<svg xmlns="http://www.w3.org/2000/svg" width="512" height="512" viewBox="0 0 512 512">
  <rect width="512" height="512" fill="#ffffff"/>

  <!-- steam -->
  <path d="M190 250 C180 230, 200 220, 194 200" fill="none" stroke="#c9c9c9" stroke-width="8" stroke-linecap="round"/>
  <path d="M256 245 C246 225, 270 218, 260 196" fill="none" stroke="#c9c9c9" stroke-width="8" stroke-linecap="round"/>
  <path d="M322 250 C312 230, 332 220, 326 200" fill="none" stroke="#c9c9c9" stroke-width="8" stroke-linecap="round"/>

  <!-- grumpy face -->
  <circle cx="256" cy="165" r="84" fill="#f3d2b3" stroke="#2f2f2f" stroke-width="6"/>
  <path d="M208 146 Q226 132 244 146" fill="none" stroke="#2f2f2f" stroke-width="8" stroke-linecap="round"/>
  <path d="M268 146 Q286 132 304 146" fill="none" stroke="#2f2f2f" stroke-width="8" stroke-linecap="round"/>
  <ellipse cx="229" cy="168" rx="12" ry="8" fill="#2f2f2f"/>
  <ellipse cx="283" cy="168" rx="12" ry="8" fill="#2f2f2f"/>
  <path d="M220 204 Q256 176 292 204" fill="none" stroke="#8b3a3a" stroke-width="10" stroke-linecap="round"/>
  <path d="M330 178 Q346 190 336 212" fill="none" stroke="#7dc6d8" stroke-width="10" stroke-linecap="round"/>
  <circle cx="342" cy="214" r="6" fill="#7dc6d8"/>

  <!-- coffee mug -->
  <rect x="154" y="280" width="204" height="130" rx="22" fill="#ffffff" stroke="#2f2f2f" stroke-width="6"/>
  <rect x="170" y="296" width="172" height="82" rx="14" fill="#3a2415"/>
  <path d="M358 310 C386 310, 386 364, 358 364" fill="none" stroke="#2f2f2f" stroke-width="16" stroke-linecap="round"/>
  <path d="M358 324 C371 324, 371 350, 358 350" fill="none" stroke="#ffffff" stroke-width="8" stroke-linecap="round"/>
  <path d="M192 280 Q256 262 320 280" fill="none" stroke="#2f2f2f" stroke-width="6" stroke-linecap="round"/>

  <!-- bitter bean / taste cue -->
  <ellipse cx="128" cy="352" rx="28" ry="18" fill="#5a3a26" transform="rotate(-20 128 352)"/>
  <path d="M118 344 C126 350, 131 355, 138 361" fill="none" stroke="#3a2415" stroke-width="4" stroke-linecap="round"/>
  <path d="M117 360 C126 354, 132 349, 141 343" fill="none" stroke="#3a2415" stroke-width="4" stroke-linecap="round"/>
</svg>