<svg xmlns="http://www.w3.org/2000/svg" width="512" height="512" viewBox="0 0 512 512"><defs><radialGradient id="bg" cx="50%" cy="50%" r="70%"><stop offset="0%" stop-color="#0a0b1a"/><stop offset="100%" stop-color="#000000"/></radialGradient><radialGradient id="disk" cx="50%" cy="50%" r="50%"><stop offset="0%" stop-color="#ffd36b"/><stop offset="35%" stop-color="#ff8a2a"/><stop offset="65%" stop-color="#a63cff"/><stop offset="100%" stop-color="rgba(166,60,255,0)"/></radialGradient><radialGradient id="glow" cx="50%" cy="50%" r="50%"><stop offset="0%" stop-color="rgba(255,255,255,0)"/><stop offset="70%" stop-color="rgba(255,255,255,0)"/><stop offset="100%" stop-color="rgba(140,80,255,0.35)"/></radialGradient></defs><rect width="512" height="512" fill="url(#bg)"/><g fill="#ffffff" opacity="0.9"><circle cx="54" cy="88" r="2"/><circle cx="96" cy="46" r="1.5"/><circle cx="180" cy="102" r="1.7"/><circle cx="401" cy="78" r="1.6"/><circle cx="456" cy="140" r="2.2"/><circle cx="62" cy="390" r="1.8"/><circle cx="118" cy="462" r="1.4"/><circle cx="430" cy="420" r="1.9"/><circle cx="352" cy="456" r="1.6"/><circle cx="250" cy="54" r="1.4"/></g><ellipse cx="256" cy="256" rx="180" ry="88" fill="url(#glow)" opacity="0.9"/><ellipse cx="256" cy="256" rx="160" ry="72" fill="none" stroke="url(#disk)" stroke-width="18" opacity="0.95" transform="rotate(-18 256 256)"/><ellipse cx="256" cy="256" rx="138" ry="58" fill="none" stroke="#ffcf7a" stroke-width="4" opacity="0.25" transform="rotate(-18 256 256)"/><path d="M122 262c38-37 82-59 134-64 55-5 108 10 154 46" fill="none" stroke="#ffb24d" stroke-width="10" stroke-linecap="round" opacity="0.7"/><path d="M388 250c-34 42-77 68-130 74-61 6-120-12-167-55" fill="none" stroke="#7f3cff" stroke-width="8" stroke-linecap="round" opacity="0.6"/><circle cx="256" cy="256" r="58" fill="#000000"/><circle cx="256" cy="256" r="74" fill="none" stroke="#000000" stroke-width="10" opacity="0.7"/><g fill="#ffffff" opacity="0.18"><circle cx="207" cy="181" r="5"/><circle cx="319" cy="329" r="4"/><circle cx="180" cy="291" r="3.5"/><circle cx="342" cy="209" r="4.5"/></g></svg>