<svg xmlns="http://www.w3.org/2000/svg" width="512" height="512" viewBox="0 0 512 512"><rect width="512" height="512" fill="#f2f6fb"/><rect x="86" y="150" width="340" height="210" rx="28" fill="#f4b400" stroke="#2b2b2b" stroke-width="10"/><rect x="112" y="178" width="188" height="82" rx="8" fill="#9fd3ff" stroke="#2b2b2b" stroke-width="8"/><rect x="314" y="178" width="86" height="82" rx="8" fill="#9fd3ff" stroke="#2b2b2b" stroke-width="8"/><rect x="314" y="268" width="86" height="64" rx="8" fill="#ffffff" stroke="#2b2b2b" stroke-width="8"/><rect x="112" y="268" width="188" height="64" rx="8" fill="#ffffff" stroke="#2b2b2b" stroke-width="8"/><rect x="96" y="200" width="16" height="84" rx="6" fill="#2b2b2b"/><circle cx="156" cy="372" r="34" fill="#2b2b2b"/><circle cx="156" cy="372" r="16" fill="#bfc7d1"/><circle cx="364" cy="372" r="34" fill="#2b2b2b"/><circle cx="364" cy="372" r="16" fill="#bfc7d1"/><rect x="72" y="238" width="18" height="42" rx="8" fill="#2b2b2b"/><circle cx="100" cy="295" r="10" fill="#ff6b6b"/><circle cx="420" cy="295" r="10" fill="#ffd84d"/><path d="M120 150V126c0-14 11-25 25-25h222c14 0 25 11 25 25v24" fill="none" stroke="#2b2b2b" stroke-width="10" stroke-linecap="round"/></svg>