<svg xmlns="http://www.w3.org/2000/svg" width="512" height="512" viewBox="0 0 512 512"><rect width="512" height="512" fill="#ffffff"/><g transform="translate(0,20)"><path d="M92 330h328c10 0 18-8 18-18v-28c0-14-6-28-17-37l-37-29c-10-8-22-12-35-12H210c-18 0-35 8-46 22l-24 30H96c-24 0-44 20-44 44v10c0 10 8 18 18 18h22z" fill="#4b84d8" stroke="#1e3f73" stroke-width="8" stroke-linejoin="round"/><path d="M160 206h116c15 0 29 6 40 16l34 30H134l26-34c9-8 20-12 34-12z" fill="#7fc1ff" stroke="#1e3f73" stroke-width="8" stroke-linejoin="round"/><rect x="126" y="262" width="76" height="18" rx="9" fill="#2b5aa0" opacity="0.35"/><rect x="214" y="262" width="82" height="18" rx="9" fill="#2b5aa0" opacity="0.35"/><rect x="308" y="262" width="58" height="18" rx="9" fill="#2b5aa0" opacity="0.35"/><circle cx="164" cy="352" r="50" fill="#2a2a2a" stroke="#111" stroke-width="8"/><circle cx="164" cy="352" r="24" fill="#d9d9d9" stroke="#666" stroke-width="6"/><circle cx="370" cy="352" r="50" fill="#2a2a2a" stroke="#111" stroke-width="8"/><circle cx="370" cy="352" r="24" fill="#d9d9d9" stroke="#666" stroke-width="6"/><path d="M54 312h28c8 0 14 6 14 14v6H48v-4c0-9 7-16 16-16z" fill="#f2c94c" stroke="#9a7210" stroke-width="6"/><path d="M398 236h34c15 0 27 12 27 27v3h-61v-8c0-12 10-22 22-22z" fill="#f2c94c" stroke="#9a7210" stroke-width="6"/><path d="M112 332h288" stroke="#1e3f73" stroke-width="8" stroke-linecap="round"/><path d="M126 298h252" stroke="#1e3f73" stroke-width="6" stroke-linecap="round" opacity="0.5"/></g></svg>