<svg xmlns="http://www.w3.org/2000/svg" viewBox="0 0 512 512"><defs><linearGradient id="bg" x1="0" y1="0" x2="0" y2="1"><stop offset="0%" stop-color="#eef6ff"/><stop offset="100%" stop-color="#dbe9ff"/></linearGradient><linearGradient id="screen" x1="0" y1="0" x2="1" y2="1"><stop offset="0%" stop-color="#1f2a44"/><stop offset="100%" stop-color="#2f4a7a"/></linearGradient><linearGradient id="laptop" x1="0" y1="0" x2="0" y2="1"><stop offset="0%" stop-color="#4e5d73"/><stop offset="100%" stop-color="#2d3646"/></linearGradient></defs><rect width="512" height="512" fill="url(#bg)"/><circle cx="420" cy="95" r="46" fill="#cfe2ff" opacity="0.8"/><rect x="68" y="360" width="376" height="18" rx="9" fill="#7b5a49"/><rect x="88" y="378" width="336" height="38" rx="14" fill="#5c463a"/><circle cx="150" cy="205" r="44" fill="#f1c7a6"/><circle cx="134" cy="201" r="5" fill="#2b2b2b"/><circle cx="166" cy="201" r="5" fill="#2b2b2b"/><path d="M138 220 Q150 230 162 220" fill="none" stroke="#c77d63" stroke-width="4" stroke-linecap="round"/><path d="M112 255 Q150 238 188 255 L196 345 Q150 362 104 345 Z" fill="#4f6cff"/><path d="M118 260 Q150 276 182 260" fill="none" stroke="#8fb0ff" stroke-width="8" stroke-linecap="round" opacity="0.6"/><path d="M118 258 L92 326" fill="none" stroke="#f1c7a6" stroke-width="16" stroke-linecap="round"/><path d="M182 258 L206 318" fill="none" stroke="#f1c7a6" stroke-width="16" stroke-linecap="round"/><path d="M98 328 Q114 342 128 340" fill="none" stroke="#f1c7a6" stroke-width="14" stroke-linecap="round"/><path d="M200 318 Q214 330 228 326" fill="none" stroke="#f1c7a6" stroke-width="14" stroke-linecap="round"/><path d="M126 342 Q150 350 174 342" fill="none" stroke="#32415c" stroke-width="18" stroke-linecap="round"/><rect x="264" y="278" width="150" height="90" rx="10" fill="url(#screen)"/><path d="M255 272 L430 272 L446 380 L239 380 Z" fill="url(#laptop)"/><rect x="278" y="292" width="112" height="50" rx="6" fill="#13213a" opacity="0.7"/><path d="M293 308 H366" stroke="#9fd3ff" stroke-width="6" stroke-linecap="round"/><path d="M293 324 H342" stroke="#9fd3ff" stroke-width="6" stroke-linecap="round"/><path d="M293 340 H356" stroke="#9fd3ff" stroke-width="6" stroke-linecap="round"/><circle cx="390" cy="300" r="17" fill="none" stroke="#b9d7ff" stroke-width="6"/><g transform="translate(390 300)"><rect x="-3" y="-25" width="6" height="10" rx="2" fill="#b9d7ff"/><rect x="-3" y="15" width="6" height="10" rx="2" fill="#b9d7ff"/><rect x="-25" y="-3" width="10" height="6" rx="2" fill="#b9d7ff"/><rect x="15" y="-3" width="10" height="6" rx="2" fill="#b9d7ff"/><rect x="-3" y="-25" width="6" height="10" rx="2" fill="#b9d7ff" transform="rotate(45)"/><rect x="-3" y="-25" width="6" height="10" rx="2" fill="#b9d7ff" transform="rotate(90)"/><rect x="-3" y="-25" width="6" height="10" rx="2" fill="#b9d7ff" transform="rotate(135)"/><rect x="-3" y="-25" width="6" height="10" rx="2" fill="#b9d7ff" transform="rotate(180)"/></g><path d="M305 368 L395 368" stroke="#202939" stroke-width="10" stroke-linecap="round"/><rect x="268" y="379" width="126" height="10" rx="5" fill="#1b2230"/><path d="M438 236 C454 240 464 252 465 266" fill="none" stroke="#7dd3fc" stroke-width="6" stroke-linecap="round"/><circle cx="468" cy="270" r="7" fill="#7dd3fc"/><path d="M425 194 L437 188 L447 198 L441 211 L426 210 L420 197 Z" fill="#ffd166" opacity="0.95"/></svg>