<svg xmlns="http://www.w3.org/2000/svg" width="512" height="512" viewBox="0 0 512 512"><rect width="512" height="512" fill="#cfe9ff"/><rect y="392" width="512" height="120" fill="#7bc96f"/><path d="M232 420c-8-56-6-120 4-176 4-22 18-43 26-64 6-16 10-33 10-50 0-8 8-14 16-12 10 3 14 13 12 22-4 21-12 41-21 59-7 15-14 30-17 46-9 48-12 111-7 175z" fill="#8b5a2b"/><path d="M247 298c-31-34-55-58-83-73 34-2 65 4 95 17" fill="none" stroke="#8b5a2b" stroke-width="14" stroke-linecap="round" stroke-linejoin="round"/><path d="M263 250c28-33 54-57 82-72-33-2-63 4-92 16" fill="none" stroke="#8b5a2b" stroke-width="14" stroke-linecap="round" stroke-linejoin="round"/><path d="M241 214c-26-24-47-41-74-50 27-7 53-4 79 4" fill="none" stroke="#8b5a2b" stroke-width="12" stroke-linecap="round" stroke-linejoin="round"/><path d="M267 205c22-22 43-38 68-46-24-8-48-6-71 1" fill="none" stroke="#8b5a2b" stroke-width="12" stroke-linecap="round" stroke-linejoin="round"/><g fill="#f4a340" stroke="#d97a1d" stroke-width="4"><circle cx="182" cy="152" r="18"/><circle cx="214" cy="122" r="20"/><circle cx="256" cy="108" r="22"/><circle cx="298" cy="118" r="18"/><circle cx="331" cy="146" r="20"/><circle cx="342" cy="194" r="18"/><circle cx="168" cy="198" r="16"/><circle cx="192" cy="238" r="18"/><circle cx="314" cy="236" r="18"/></g><g fill="#f4a340" stroke="#d97a1d" stroke-width="4"><path d="M145 150c10-10 21-16 33-18-3 11-7 20-14 28 9 4 16 10 21 19-13 1-25-1-36-7-10 7-22 11-35 11 6-10 14-18 24-24-4-8-6-17-5-27 10 3 18 9 22 18z"/><path d="M372 120c10-10 21-16 33-18-3 11-7 20-14 28 9 4 16 10 21 19-13 1-25-1-36-7-10 7-22 11-35 11 6-10 14-18 24-24-4-8-6-17-5-27 10 3 18 9 22 18z"/></g><g fill="#f4a340" stroke="#d97a1d" stroke-width="4"><path d="M340 330c10-10 21-16 33-18-3 11-7 20-14 28 9 4 16 10 21 19-13 1-25-1-36-7-10 7-22 11-35 11 6-10 14-18 24-24-4-8-6-17-5-27 10 3 18 9 22 18z" transform="rotate(28 340 330)"/><path d="M220 336c10-10 21-16 33-18-3 11-7 20-14 28 9 4 16 10 21 19-13 1-25-1-36-7-10 7-22 11-35 11 6-10 14-18 24-24-4-8-6-17-5-27 10 3 18 9 22 18z" transform="rotate(-18 220 336)"/><path d="M305 388c10-10 21-16 33-18-3 11-7 20-14 28 9 4 16 10 21 19-13 1-25-1-36-7-10 7-22 11-35 11 6-10 14-18 24-24-4-8-6-17-5-27 10 3 18 9 22 18z" transform="rotate(10 305 388)"/></g><path d="M376 292c18 16 26 34 27 56" fill="none" stroke="#d97a1d" stroke-width="6" stroke-linecap="round" opacity="0.8"/><path d="M136 260c14 10 22 24 24 42" fill="none" stroke="#d97a1d" stroke-width="6" stroke-linecap="round" opacity="0.8"/><path d="M330 298c10 18 15 35 14 56" fill="none" stroke="#d97a1d" stroke-width="6" stroke-linecap="round" opacity="0.8"/><ellipse cx="256" cy="468" rx="140" ry="18" fill="#5aa65c" opacity="0.35"/></svg>