<svg xmlns="http://www.w3.org/2000/svg" viewBox="0 0 512 512" width="512" height="512"><rect width="512" height="512" fill="#cfe8ff"/><rect y="330" width="512" height="182" fill="#7bc96f"/><path d="M70 360 Q256 300 442 360 L442 512 L70 512 Z" fill="#6ab85b" opacity="0.9"/><g stroke="#5a4a3a" stroke-width="4" stroke-linejoin="round" stroke-linecap="round"><rect x="178" y="150" width="156" height="130" fill="#b9b2a8"/><rect x="164" y="120" width="34" height="160" fill="#a69f95"/><rect x="314" y="120" width="34" height="160" fill="#a69f95"/><rect x="208" y="96" width="96" height="184" fill="#c5beb4"/><path d="M164 120 L181 92 L198 120 Z" fill="#8f8a81"/><path d="M314 120 L331 92 L348 120 Z" fill="#8f8a81"/><path d="M208 96 L224 70 L240 96 Z" fill="#8f8a81"/><path d="M272 96 L288 70 L304 96 Z" fill="#8f8a81"/><rect x="236" y="214" width="40" height="66" rx="20" fill="#7a5a3a"/><rect x="190" y="172" width="22" height="28" fill="#e6f2ff"/><rect x="300" y="172" width="22" height="28" fill="#e6f2ff"/><rect x="234" y="122" width="44" height="28" rx="8" fill="#8b6b3e"/><path d="M256 92 L256 58" fill="none"/><path d="M242 58 L256 38 L270 58 Z" fill="#d9b24c" stroke="none"/></g><g fill="#7a5730" stroke="#5a4a3a" stroke-width="4" stroke-linecap="round" stroke-linejoin="round"><path d="M348 206 h58 v54 h-58 z" fill="#a28d72"/><path d="M360 206 l29-34 l29 34" fill="#b39b82"/><rect x="370" y="222" width="16" height="38" fill="#6d4e2f"/><circle cx="382" cy="225" r="12" fill="#ead6b8" stroke="none"/></g><g fill="#ead6b8" stroke="#5a4a3a" stroke-width="4" stroke-linecap="round" stroke-linejoin="round"><circle cx="382" cy="222" r="12"/><path d="M382 234 v30"/><path d="M382 244 l-14 18"/><path d="M382 244 l14 18"/><path d="M382 264 l-10 20"/><path d="M382 264 l10 20"/><path d="M368 235 l-16 8"/><path d="M396 235 l16 8"/></g><g stroke="#5a4a3a" stroke-width="4" stroke-linecap="round" stroke-linejoin="round"><path d="M350 298 C320 318 302 344 292 380" fill="none" stroke-dasharray="8 8"/><path d="M292 380 l-12 -8 l4 14 z" fill="#5a4a3a" stroke="none"/><path d="M176 298 C146 318 128 344 118 380" fill="none" stroke-dasharray="8 8"/><path d="M118 380 l-12 -8 l4 14 z" fill="#5a4a3a" stroke="none"/></g><g stroke="#5a4a3a" stroke-width="4" stroke-linecap="round" stroke-linejoin="round"><path d="M126 374 q12-28 24-28 q12 0 18 16 q6 16 18 16" fill="none"/><circle cx="150" cy="344" r="10" fill="#ead6b8"/><path d="M150 354 v36"/><path d="M150 366 l-16 16"/><path d="M150 366 l16 16"/><path d="M150 390 l-10 24"/><path d="M150 390 l10 24"/><path d="M132 360 l-16 0"/><path d="M168 360 l16 0"/></g><g stroke="#5a4a3a" stroke-width="4" stroke-linecap="round" stroke-linejoin="round"><path d="M256 336 q16-28 32-28 q16 0 24 18 q8 18 24 18" fill="none"/><circle cx="288" cy="306" r="10" fill="#ead6b8"/><path d="M288 316 v36"/><path d="M288 328 l-16 18"/><path d="M288 328 l16 18"/><path d="M288 352 l-10 24"/><path d="M288 352 l10 24"/><path d="M272 322 l-16 0"/><path d="M304 322 l16 0"/></g><g fill="#6f8f4c" stroke="#5a4a3a" stroke-width="4" stroke-linejoin="round"><path d="M72 410 h86 v46 H72 z"/><path d="M76 410 l18-18 h54 l18 18" fill="#8a6b3e"/><path d="M72 410 h86"/><path d="M84 438 h18"/><path d="M110 438 h18"/><path d="M136 438 h18"/></g><g fill="#6f8f4c" stroke="#5a4a3a" stroke-width="4" stroke-linejoin="round"><path d="M354 410 h86 v46 h-86 z"/><path d="M358 410 l18-18 h54 l18 18" fill="#8a6b3e"/><path d="M354 410 h86"/><path d="M366 438 h18"/><path d="M392 438 h18"/><path d="M418 438 h18"/></g></svg>