<svg xmlns="http://www.w3.org/2000/svg" width="512" height="512" viewBox="0 0 512 512"><rect width="512" height="512" rx="36" fill="#f7fbff"/><circle cx="256" cy="270" r="150" fill="#ffd84d" stroke="#d6a800" stroke-width="8"/><path d="M188 196 L256 92 L324 196 Z" fill="#7a4cff" stroke="#5c2fd6" stroke-width="8" stroke-linejoin="round"/><circle cx="256" cy="84" r="16" fill="#ff6b6b" stroke="#c94a4a" stroke-width="6"/><circle cx="225" cy="248" r="16" fill="#1f1f1f"/><path d="M205 240 Q225 220 245 240" fill="none" stroke="#1f1f1f" stroke-width="8" stroke-linecap="round"/><path d="M267 240 Q287 220 307 240" fill="none" stroke="#1f1f1f" stroke-width="8" stroke-linecap="round"/><path d="M204 306 Q256 370 308 306" fill="none" stroke="#1f1f1f" stroke-width="14" stroke-linecap="round" stroke-linejoin="round"/><path d="M184 297 Q182 340 166 360" fill="none" stroke="#6ec6ff" stroke-width="12" stroke-linecap="round"/><path d="M328 297 Q330 340 346 360" fill="none" stroke="#6ec6ff" stroke-width="12" stroke-linecap="round"/><path d="M224 322 Q256 345 288 322 Q264 388 224 322 Z" fill="#ff6b6b" stroke="#c94a4a" stroke-width="6" stroke-linejoin="round"/><ellipse cx="256" cy="286" rx="34" ry="18" fill="#ff9c7a" opacity="0.9"/><circle cx="210" cy="224" r="5" fill="#ffffff" opacity="0.9"/><circle cx="300" cy="224" r="5" fill="#ffffff" opacity="0.9"/></svg>