<svg xmlns="http://www.w3.org/2000/svg" width="512" height="512" viewBox="0 0 512 512"><defs><radialGradient id="bg" cx="50%" cy="50%" r="70%"><stop offset="0%" stop-color="#1b1440"/><stop offset="45%" stop-color="#0b0b1c"/><stop offset="100%" stop-color="#020208"/></radialGradient><radialGradient id="core" cx="50%" cy="50%" r="50%"><stop offset="0%" stop-color="#fff7d6"/><stop offset="35%" stop-color="#ffd36a"/><stop offset="100%" stop-color="#ff9c3a" stop-opacity="0"/></radialGradient><linearGradient id="arm" x1="0%" y1="0%" x2="100%" y2="100%"><stop offset="0%" stop-color="#7cf6ff" stop-opacity="0"/><stop offset="40%" stop-color="#7cf6ff" stop-opacity="0.35"/><stop offset="100%" stop-color="#ffffff" stop-opacity="0"/></linearGradient><filter id="blur" x="-30%" y="-30%" width="160%" height="160%"><feGaussianBlur stdDeviation="6"/></filter></defs><rect width="512" height="512" fill="url(#bg)"/><g opacity="0.9"><circle cx="92" cy="88" r="2.2" fill="#fff7c9"/><circle cx="428" cy="86" r="1.8" fill="#b7f7ff"/><circle cx="450" cy="310" r="2" fill="#ffffff"/><circle cx="70" cy="380" r="1.7" fill="#d7e8ff"/><circle cx="156" cy="54" r="1.4" fill="#ffffff"/><circle cx="382" cy="44" r="1.6" fill="#c8f2ff"/><circle cx="474" cy="156" r="1.4" fill="#ffffff"/><circle cx="34" cy="172" r="1.5" fill="#e6f0ff"/><circle cx="52" cy="280" r="1.3" fill="#ffffff"/><circle cx="420" cy="452" r="1.8" fill="#fff7c9"/><circle cx="202" cy="472" r="1.5" fill="#c8f2ff"/><circle cx="322" cy="404" r="1.4" fill="#ffffff"/></g><g transform="translate(256 256)"><g filter="url(#blur)"><ellipse cx="0" cy="0" rx="190" ry="58" fill="url(#arm)" transform="rotate(28)"/><ellipse cx="0" cy="0" rx="190" ry="58" fill="url(#arm)" transform="rotate(208)"/><ellipse cx="0" cy="0" rx="160" ry="48" fill="url(#arm)" transform="rotate(-34)"/><ellipse cx="0" cy="0" rx="160" ry="48" fill="url(#arm)" transform="rotate(146)"/></g><g fill="#ffffff" opacity="0.95"><circle cx="120" cy="-20" r="3.3"/><circle cx="150" cy="32" r="2.5"/><circle cx="92" cy="78" r="2.2"/><circle cx="20" cy="118" r="2.8"/><circle cx="-72" cy="104" r="2.1"/><circle cx="-132" cy="46" r="2.6"/><circle cx="-148" cy="-22" r="2.1"/><circle cx="-104" cy="-88" r="2.7"/><circle cx="-24" cy="-124" r="2.2"/><circle cx="68" cy="-108" r="2.9"/><circle cx="132" cy="-52" r="2.1"/><circle cx="-8" cy="-162" r="1.9"/><circle cx="168" cy="-6" r="1.8"/><circle cx="-172" cy="18" r="1.8"/><circle cx="58" cy="150" r="1.7"/><circle cx="-56" cy="-150" r="1.7"/></g><g fill="#8fe8ff" opacity="0.9"><circle cx="104" cy="-12" r="1.8"/><circle cx="138" cy="24" r="1.5"/><circle cx="84" cy="72" r="1.4"/><circle cx="10" cy="108" r="1.5"/><circle cx="-82" cy="96" r="1.4"/><circle cx="-136" cy="36" r="1.5"/><circle cx="-140" cy="-28" r="1.3"/><circle cx="-96" cy="-78" r="1.6"/><circle cx="-18" cy="-116" r="1.4"/><circle cx="60" cy="-100" r="1.5"/><circle cx="122" cy="-46" r="1.3"/></g><ellipse cx="0" cy="0" rx="42" ry="34" fill="url(#core)"/><circle cx="0" cy="0" r="18" fill="#fff7d6"/><circle cx="0" cy="0" r="42" fill="#ffcc66" opacity="0.16"/></g><g opacity="0.7" fill="#ffffff"><circle cx="118" cy="180" r="1.2"/><circle cx="396" cy="214" r="1.3"/><circle cx="346" cy="330" r="1.1"/><circle cx="176" cy="352" r="1.1"/><circle cx="270" cy="92" r="1.2"/><circle cx="238" cy="430" r="1.2"/><circle cx="104" cy="314" r="1.1"/><circle cx="418" cy="382" r="1.2"/></g></svg>