<svg xmlns="http://www.w3.org/2000/svg" width="512" height="512" viewBox="0 0 512 512"><defs><linearGradient id="g1" x1="0" y1="0" x2="0" y2="1"><stop offset="0%" stop-color="#ffffff" stop-opacity="0.95"/><stop offset="100%" stop-color="#d9eefc" stop-opacity="0.65"/></linearGradient><linearGradient id="g2" x1="0" y1="0" x2="0" y2="1"><stop offset="0%" stop-color="#8fd3ff" stop-opacity="0.85"/><stop offset="100%" stop-color="#4aa3df" stop-opacity="0.85"/></linearGradient></defs><rect width="512" height="512" fill="#f4f7fb"/><ellipse cx="256" cy="412" rx="108" ry="18" fill="#000000" opacity="0.12"/><path d="M172 104h168l-14 214c-2 32-28 58-60 58h-20c-32 0-58-26-60-58L172 104z" fill="url(#g1)" stroke="#8aa8bf" stroke-width="8"/><path d="M188 132h136l-12 180c-1 24-21 42-45 42h-22c-24 0-44-18-45-42L188 132z" fill="url(#g2)" opacity="0.95"/><path d="M184 122c0-16 14-30 32-30h80c18 0 32 14 32 30" fill="none" stroke="#ffffff" stroke-width="10" stroke-linecap="round" opacity="0.85"/><path d="M214 160c10 6 16 18 18 34" fill="none" stroke="#ffffff" stroke-width="10" stroke-linecap="round" opacity="0.45"/><path d="M230 154c-8 78-4 147 8 224" fill="none" stroke="#ffffff" stroke-width="8" stroke-linecap="round" opacity="0.45"/><path d="M176 318c18 22 40 34 80 34h0c40 0 62-12 80-34" fill="none" stroke="#ffffff" stroke-width="6" opacity="0.4"/><rect x="232" y="370" width="48" height="20" rx="8" fill="#ffffff" opacity="0.75"/></svg>