<svg xmlns="http://www.w3.org/2000/svg" width="512" height="512" viewBox="0 0 512 512"><defs><linearGradient id="bg" x1="0" y1="0" x2="0" y2="1"><stop offset="0%" stop-color="#1b1b1f"/><stop offset="100%" stop-color="#2f2a1f"/></linearGradient><linearGradient id="gold" x1="0" y1="0" x2="1" y2="1"><stop offset="0%" stop-color="#fff2a0"/><stop offset="35%" stop-color="#f6cf4d"/><stop offset="70%" stop-color="#d79a16"/><stop offset="100%" stop-color="#fff0a8"/></linearGradient><linearGradient id="gold2" x1="0" y1="0" x2="0" y2="1"><stop offset="0%" stop-color="#ffe98a"/><stop offset="100%" stop-color="#c98b0f"/></linearGradient></defs><rect width="512" height="512" fill="url(#bg)"/><ellipse cx="256" cy="400" rx="160" ry="34" fill="#000" opacity="0.25"/><g transform="translate(96 170)"><g transform="translate(18 118) rotate(-10 128 52)"><path d="M20 40 L236 40 L210 92 L46 92 Z" fill="url(#gold)" stroke="#8a5c00" stroke-width="6"/><path d="M40 40 L216 40 L196 58 L60 58 Z" fill="#fff6c8" opacity="0.55"/><path d="M46 56 L72 56 L62 86 L34 86 Z" fill="#fff0a8" opacity="0.45"/></g><g transform="translate(58 62) rotate(8 128 52)"><path d="M20 40 L236 40 L210 92 L46 92 Z" fill="url(#gold2)" stroke="#8a5c00" stroke-width="6"/><path d="M40 40 L216 40 L196 58 L60 58 Z" fill="#fff6c8" opacity="0.55"/><path d="M46 56 L72 56 L62 86 L34 86 Z" fill="#fff0a8" opacity="0.45"/></g><g transform="translate(0 0) rotate(-2 128 52)"><path d="M20 40 L236 40 L210 92 L46 92 Z" fill="url(#gold)" stroke="#8a5c00" stroke-width="6"/><path d="M40 40 L216 40 L196 58 L60 58 Z" fill="#fff6c8" opacity="0.55"/><path d="M46 56 L72 56 L62 86 L34 86 Z" fill="#fff0a8" opacity="0.45"/></g></g><g transform="translate(360 120)"><circle cx="54" cy="54" r="44" fill="url(#gold)" stroke="#8a5c00" stroke-width="6"/><path d="M32 42 C42 24, 68 20, 78 36" fill="none" stroke="#fff7cc" stroke-width="10" stroke-linecap="round" opacity="0.7"/><path d="M24 62 C40 78, 72 80, 86 58" fill="none" stroke="#8a5c00" stroke-width="8" stroke-linecap="round" opacity="0.35"/></g></svg>