<svg xmlns="http://www.w3.org/2000/svg" width="512" height="512" viewBox="0 0 512 512"><rect width="512" height="512" fill="#f7f3ea"/><g transform="translate(0,0)"><ellipse cx="220" cy="320" rx="86" ry="108" fill="#9b5c2e" stroke="#5a3419" stroke-width="8" transform="rotate(-12 220 320)"/><ellipse cx="250" cy="300" rx="58" ry="78" fill="#b56b34" opacity="0.85" transform="rotate(-12 250 300)"/><rect x="278" y="152" width="34" height="210" rx="12" fill="#8a4f27" stroke="#5a3419" stroke-width="8" transform="rotate(-12 295 257)"/><rect x="326" y="115" width="68" height="34" rx="8" fill="#7a4521" stroke="#5a3419" stroke-width="8" transform="rotate(-12 360 132)"/><circle cx="256" cy="286" r="28" fill="#2b1a12" stroke="#c79a5e" stroke-width="8" transform="rotate(-12 256 286)"/><circle cx="256" cy="286" r="8" fill="#f7f3ea" opacity="0.25" transform="rotate(-12 256 286)"/><path d="M 185 226 C 220 242, 262 262, 345 296" fill="none" stroke="#f1e7d2" stroke-width="3" stroke-linecap="round"/><path d="M 180 244 C 220 257, 264 274, 340 305" fill="none" stroke="#f1e7d2" stroke-width="3" stroke-linecap="round"/><path d="M 176 262 C 220 272, 266 286, 334 312" fill="none" stroke="#f1e7d2" stroke-width="3" stroke-linecap="round"/><path d="M 173 280 C 218 287, 267 297, 328 319" fill="none" stroke="#f1e7d2" stroke-width="3" stroke-linecap="round"/><path d="M 171 298 C 216 301, 266 308, 322 327" fill="none" stroke="#f1e7d2" stroke-width="3" stroke-linecap="round"/><path d="M 332 128 L 378 128" stroke="#e8d8bd" stroke-width="4" stroke-linecap="round"/><path d="M 332 138 L 378 138" stroke="#e8d8bd" stroke-width="4" stroke-linecap="round"/><circle cx="392" cy="132" r="5" fill="#e8d8bd"/><circle cx="392" cy="146" r="5" fill="#e8d8bd"/><circle cx="392" cy="160" r="5" fill="#e8d8bd"/><path d="M 308 182 C 290 205, 270 230, 240 250" fill="none" stroke="#5a3419" stroke-width="4" stroke-linecap="round" opacity="0.35"/><path d="M 310 348 C 285 370, 250 390, 214 402" fill="none" stroke="#5a3419" stroke-width="4" stroke-linecap="round" opacity="0.35"/></g></svg>