<svg xmlns="http://www.w3.org/2000/svg" width="512" height="512" viewBox="0 0 512 512"><rect width="512" height="512" fill="#f5f7fb"/><ellipse cx="256" cy="420" rx="140" ry="26" fill="#d9e1ee" opacity="0.8"/><g transform="translate(0,6)"><path d="M196 210c12-24 30-42 52-54l8-24h40l8 24c22 12 40 30 52 54 18 36 14 84-8 120-24 38-60 60-92 60s-68-22-92-60c-22-36-26-84-8-120z" fill="#48a868" stroke="#2f7a46" stroke-width="8"/><path d="M220 174c12 10 28 16 36 16s24-6 36-16" fill="none" stroke="#2f7a46" stroke-width="8" stroke-linecap="round"/><path d="M220 172c6-14 18-28 36-34 18 6 30 20 36 34" fill="none" stroke="#2f7a46" stroke-width="8" stroke-linecap="round"/><rect x="214" y="152" width="84" height="26" rx="13" fill="#3b8f54" stroke="#2f7a46" stroke-width="8"/><rect x="178" y="286" width="156" height="38" rx="19" fill="#2f7a46" opacity="0.22"/><path d="M176 252c32-18 68-28 80-28s48 10 80 28" fill="none" stroke="#d8f1dd" stroke-width="10" stroke-linecap="round" opacity="0.55"/><path d="M190 252c28-22 42-34 66-34s38 12 66 34" fill="none" stroke="#d8f1dd" stroke-width="8" stroke-linecap="round" opacity="0.45"/></g><g transform="translate(86,290) rotate(-10)"><rect x="0" y="0" width="160" height="88" rx="12" fill="#78c2ff" stroke="#2f6fa3" stroke-width="8"/><rect x="14" y="14" width="132" height="60" rx="8" fill="#9dd5ff" opacity="0.9"/><circle cx="44" cy="44" r="18" fill="#ffffff" opacity="0.95"/><circle cx="120" cy="44" r="18" fill="#ffffff" opacity="0.95"/><path d="M30 20h100M30 68h100" stroke="#2f6fa3" stroke-width="6" stroke-linecap="round" opacity="0.7"/></g><g transform="translate(270,286) rotate(12)"><rect x="0" y="0" width="150" height="82" rx="12" fill="#7bd97b" stroke="#3d8c3d" stroke-width="8"/><rect x="14" y="14" width="122" height="54" rx="8" fill="#a9eaa9" opacity="0.9"/><circle cx="42" cy="41" r="16" fill="#ffffff" opacity="0.95"/><circle cx="108" cy="41" r="16" fill="#ffffff" opacity="0.95"/><path d="M26 20h94M26 62h94" stroke="#3d8c3d" stroke-width="6" stroke-linecap="round" opacity="0.7"/></g><g><g transform="translate(154,350)"><ellipse cx="0" cy="30" rx="26" ry="10" fill="#caa64a"/><rect x="-18" y="-8" width="36" height="44" rx="8" fill="#e3bf54" stroke="#b58d2f" stroke-width="6"/><ellipse cx="0" cy="-8" rx="18" ry="8" fill="#f0d37a"/><rect x="-18" y="8" width="36" height="10" fill="#d5aa3c" opacity="0.9"/></g><g transform="translate(220,338)"><ellipse cx="0" cy="42" rx="30" ry="11" fill="#caa64a"/><rect x="-20" y="-4" width="40" height="52" rx="9" fill="#efc95b" stroke="#b58d2f" stroke-width="6"/><ellipse cx="0" cy="-4" rx="20" ry="9" fill="#f7dd86"/><rect x="-20" y="16" width="40" height="10" fill="#d5aa3c" opacity="0.9"/></g><g transform="translate(294,348)"><ellipse cx="0" cy="32" rx="26" ry="10" fill="#caa64a"/><rect x="-18" y="-6" width="36" height="44" rx="8" fill="#e3bf54" stroke="#b58d2f" stroke-width="6"/><ellipse cx="0" cy="-6" rx="18" ry="8" fill="#f0d37a"/><rect x="-18" y="10" width="36" height="10" fill="#d5aa3c" opacity="0.9"/></g></g><g fill="#ffffff" opacity="0.9"><path d="M86 156l8 14 14 8-14 8-8 14-8-14-14-8 14-8z"/><path d="M420 150l7 12 12 7-12 7-7 12-7-12-12-7 12-7z"/><path d="M390 90l6 10 10 6-10 6-6 10-6-10-10-6 10-6z"/></g></svg>