<svg xmlns="http://www.w3.org/2000/svg" width="512" height="512" viewBox="0 0 512 512"><rect width="512" height="512" fill="#f7f7fb"/><g fill="none" stroke="#2f3542" stroke-width="8" stroke-linecap="round" stroke-linejoin="round"><circle cx="256" cy="176" r="70" fill="#ffd9c7"/><path d="M210 170c10-18 28-26 46-26s36 8 46 26"/><circle cx="232" cy="178" r="6" fill="#2f3542" stroke="none"/><circle cx="280" cy="178" r="6" fill="#2f3542" stroke="none"/><path d="M236 208c14-10 26-10 40 0"/><path d="M205 150c6-26 24-44 51-48"/><path d="M312 150c-6-26-24-44-51-48"/><path d="M188 296c18-28 40-40 68-40s50 12 68 40" fill="#7da8ff"/><path d="M224 254c-28 18-44 42-52 74"/><path d="M288 254c28 18 44 42 52 74"/><path d="M220 318l-26 48"/><path d="M292 318l26 48"/><path d="M240 336l-28 64"/><path d="M272 336l28 64"/><path d="M330 168l20-10"/><path d="M334 190l24 4"/><path d="M86 214c-8 12-8 24 0 36"/><path d="M432 214c8 12 8 24 0 36"/><path d="M110 160c14 8 22 18 26 30"/><path d="M402 160c-14 8-22 18-26 30"/></g><g fill="#66b3ff" stroke="#2f3542" stroke-width="6" stroke-linecap="round" stroke-linejoin="round"><path d="M324 216c10 8 14 20 12 34-14-4-24-12-30-24 5-6 11-9 18-10z"/><path d="M136 226c12 6 18 16 18 30-14-1-26-7-34-18 3-7 8-11 16-12z"/><path d="M356 244c8 8 12 18 10 30-12-2-22-8-28-18 4-5 9-9 18-12z"/></g><g stroke="#2f3542" stroke-width="7" stroke-linecap="round" fill="none"><path d="M190 362c12 10 24 10 36 0"/><path d="M286 362c12 10 24 10 36 0"/><path d="M172 388c16 10 32 10 48 0"/><path d="M292 388c16 10 32 10 48 0"/></g></svg>