<svg xmlns="http://www.w3.org/2000/svg" width="512" height="512" viewBox="0 0 512 512"><defs><linearGradient id="sky" x1="0" y1="0" x2="0" y2="1"><stop offset="0%" stop-color="#8fd3ff"/><stop offset="100%" stop-color="#dff5ff"/></linearGradient><linearGradient id="sea" x1="0" y1="0" x2="0" y2="1"><stop offset="0%" stop-color="#1e90ff"/><stop offset="100%" stop-color="#005f9e"/></linearGradient><linearGradient id="wave" x1="0" y1="0" x2="0" y2="1"><stop offset="0%" stop-color="#ffffff" stop-opacity="0.85"/><stop offset="100%" stop-color="#ffffff" stop-opacity="0"/></linearGradient></defs><rect width="512" height="512" fill="url(#sky)"/><circle cx="402" cy="92" r="34" fill="#ffd86b" opacity="0.95"/><path d="M0 286 C60 268 120 268 180 286 C240 304 300 304 360 286 C420 268 462 268 512 286 L512 512 L0 512 Z" fill="url(#sea)"/><path d="M0 285 C32 276 64 276 96 285 C128 294 160 294 192 285 C224 276 256 276 288 285 C320 294 352 294 384 285 C416 276 448 276 512 285" fill="none" stroke="#d8f4ff" stroke-width="8" stroke-linecap="round" opacity="0.9"/><path d="M0 332 C38 318 76 318 114 332 C152 346 190 346 228 332 C266 318 304 318 342 332 C380 346 418 346 456 332 C474 326 492 326 512 332" fill="none" stroke="#b8ebff" stroke-width="7" stroke-linecap="round" opacity="0.75"/><path d="M18 370 C54 356 90 356 126 370 C162 384 198 384 234 370 C270 356 306 356 342 370 C378 384 414 384 450 370 C468 364 486 364 504 370" fill="none" stroke="#7fd6ff" stroke-width="6" stroke-linecap="round" opacity="0.7"/><path d="M0 250 C42 238 84 238 126 250 C168 262 210 262 252 250 C294 238 336 238 378 250 C420 262 462 262 512 250" fill="none" stroke="#ffffff" stroke-width="4" opacity="0.55"/><g opacity="0.4" fill="#ffffff"><circle cx="112" cy="410" r="5"/><circle cx="124" cy="396" r="3.5"/><circle cx="384" cy="398" r="4.5"/><circle cx="402" cy="384" r="3"/></g><path d="M360 430c20-18 46-18 66 0c-20 18-46 18-66 0Z" fill="#ffd86b" opacity="0.85"/><path d="M366 430c10-9 24-9 34 0c-10 9-24 9-34 0Z" fill="#ffffff" opacity="0.65"/><path d="M256 214 C260 192 280 176 304 174 C328 172 350 186 356 208 C360 222 356 240 344 252 C330 266 308 272 290 268 C270 264 254 250 252 230 C250 224 252 220 256 214 Z" fill="#ffffff" opacity="0.28"/><path d="M252 214 C220 198 190 192 154 194" fill="none" stroke="#ffffff" stroke-width="10" stroke-linecap="round" opacity="0.3"/></svg>