<svg xmlns="http://www.w3.org/2000/svg" width="512" height="512" viewBox="0 0 512 512"><rect width="512" height="512" fill="#f7fbf2"/><ellipse cx="170" cy="260" rx="78" ry="110" transform="rotate(-18 170 260)" fill="#7fb24a"/><ellipse cx="170" cy="260" rx="58" ry="88" transform="rotate(-18 170 260)" fill="#f2a23a"/><ellipse cx="184" cy="160" rx="16" ry="34" transform="rotate(28 184 160)" fill="#5b8f37"/><ellipse cx="158" cy="155" rx="16" ry="30" transform="rotate(-24 158 155)" fill="#6aa23f"/><ellipse cx="290" cy="275" rx="86" ry="122" transform="rotate(20 290 275)" fill="#d9782a"/><path d="M242 185 C286 168, 347 182, 369 227 C389 267, 385 339, 347 376 C311 411, 258 410, 230 375 C201 337, 197 275, 208 235 C214 212, 225 195, 242 185 Z" fill="#f6b14c"/><path d="M289 193 C320 199, 343 225, 349 263 C354 299, 346 345, 320 372 C311 381, 300 389, 289 394 C278 389, 268 381, 260 371 C234 344, 225 299, 230 263 C236 225, 259 199, 289 193 Z" fill="#ffd7a0" opacity="0.55"/><circle cx="270" cy="258" r="7" fill="#2b1a12"/><circle cx="292" cy="246" r="7" fill="#2b1a12"/><circle cx="309" cy="262" r="7" fill="#2b1a12"/><circle cx="281" cy="278" r="7" fill="#2b1a12"/><circle cx="303" cy="288" r="7" fill="#2b1a12"/><circle cx="325" cy="272" r="7" fill="#2b1a12"/><circle cx="287" cy="304" r="7" fill="#2b1a12"/><circle cx="309" cy="318" r="7" fill="#2b1a12"/><circle cx="332" cy="304" r="7" fill="#2b1a12"/><path d="M252 185 C262 172, 278 164, 296 163 C315 164, 330 170, 342 181" fill="none" stroke="#c86c24" stroke-width="6" stroke-linecap="round"/><path d="M222 336 C214 368, 210 404, 214 430" fill="none" stroke="#6aa23f" stroke-width="10" stroke-linecap="round" opacity="0.7"/></svg>