<svg xmlns="http://www.w3.org/2000/svg" viewBox="0 0 512 512" width="512" height="512"><rect width="512" height="512" fill="#f7fbff"/><g stroke="#222" stroke-width="8" stroke-linecap="round" stroke-linejoin="round"><path d="M156 170 L120 88 L182 126 Z" fill="#f5d33b"/><path d="M356 170 L330 126 L392 88 Z" fill="#f5d33b"/><path d="M158 172 L141 135 L172 123 L187 159 Z" fill="#222" stroke="none"/><path d="M354 172 L323 159 L338 123 L369 135 Z" fill="#222" stroke="none"/><ellipse cx="256" cy="304" rx="122" ry="118" fill="#f5d33b"/><ellipse cx="194" cy="304" rx="42" ry="50" fill="#f5d33b"/><ellipse cx="318" cy="304" rx="42" ry="50" fill="#f5d33b"/><circle cx="218" cy="260" r="13" fill="#222" stroke="none"/><circle cx="294" cy="260" r="13" fill="#222" stroke="none"/><circle cx="213" cy="255" r="4" fill="#fff" stroke="none"/><circle cx="289" cy="255" r="4" fill="#fff" stroke="none"/><path d="M240 290 Q256 304 272 290" fill="none"/><path d="M246 318 Q256 326 266 318" fill="none"/><path d="M228 336 Q256 352 284 336" fill="none"/><circle cx="176" cy="302" r="22" fill="#ee5b62"/><circle cx="336" cy="302" r="22" fill="#ee5b62"/><path d="M244 372 Q256 388 268 372" fill="none"/><path d="M192 408 Q210 386 230 390" fill="none"/><path d="M320 408 Q302 386 282 390" fill="none"/><path d="M330 392 L366 366 L346 356 L392 330 L354 328 L404 292" fill="none"/></g></svg>