<svg xmlns="http://www.w3.org/2000/svg" width="512" height="512" viewBox="0 0 512 512"><rect width="512" height="512" fill="#f7f3e8"/><circle cx="256" cy="170" r="62" fill="#f2c9a0"/><circle cx="238" cy="160" r="8" fill="#333"/><circle cx="274" cy="160" r="8" fill="#333"/><path d="M236 185 Q256 200 276 185" fill="none" stroke="#333" stroke-width="6" stroke-linecap="round"/><rect x="216" y="220" width="80" height="120" rx="30" fill="#4f7cac"/><path d="M196 260 Q150 310 152 380" fill="none" stroke="#f2c9a0" stroke-width="18" stroke-linecap="round"/><path d="M316 260 Q362 310 360 380" fill="none" stroke="#f2c9a0" stroke-width="18" stroke-linecap="round"/><rect x="150" y="372" width="212" height="58" rx="26" fill="#3b4a5a"/><rect x="165" y="330" width="182" height="88" rx="10" fill="#ffffff" stroke="#c9c2b5" stroke-width="4"/><line x1="256" y1="330" x2="256" y2="418" stroke="#c9c2b5" stroke-width="4"/><path d="M165 340 Q210 360 256 350 Q302 360 347 340" fill="none" stroke="#d8d1c5" stroke-width="3"/><path d="M165 410 Q210 390 256 400 Q302 390 347 410" fill="none" stroke="#d8d1c5" stroke-width="3"/><circle cx="190" cy="280" r="10" fill="#f2c9a0"/><circle cx="322" cy="280" r="10" fill="#f2c9a0"/><path d="M190 280 L165 342" stroke="#f2c9a0" stroke-width="16" stroke-linecap="round"/><path d="M322 280 L347 342" stroke="#f2c9a0" stroke-width="16" stroke-linecap="round"/><ellipse cx="180" cy="430" rx="34" ry="14" fill="#cfc7ba" opacity="0.5"/><ellipse cx="332" cy="430" rx="34" ry="14" fill="#cfc7ba" opacity="0.5"/></svg>