<svg xmlns="http://www.w3.org/2000/svg" width="512" height="512" viewBox="0 0 512 512">
  <rect width="512" height="512" fill="#f3e6c8"/>
  <rect x="28" y="28" width="456" height="456" rx="24" fill="#f8efd9" stroke="#b89a64" stroke-width="8"/>
  <path d="M96 188c42-64 95-96 160-96s118 32 160 96" fill="none" stroke="#c8a96a" stroke-width="14" stroke-linecap="round"/>
  <rect x="112" y="192" width="48" height="180" rx="8" fill="#d7b67a" stroke="#a67d3d" stroke-width="6"/>
  <rect x="352" y="192" width="48" height="180" rx="8" fill="#d7b67a" stroke="#a67d3d" stroke-width="6"/>
  <path d="M124 184h264l-14 34H138z" fill="#b98a4e" stroke="#8c6231" stroke-width="6"/>
  <path d="M150 184c32-42 63-62 106-62s74 20 106 62" fill="none" stroke="#d9bb7a" stroke-width="10" stroke-linecap="round"/>
  <circle cx="256" cy="146" r="52" fill="#c79b63" stroke="#7a5330" stroke-width="6"/>
  <path d="M221 145c10-31 31-49 35-49s25 18 35 49" fill="#6c4a2f"/>
  <path d="M233 128c10-16 18-22 23-22s13 6 23 22" fill="none" stroke="#6c4a2f" stroke-width="14" stroke-linecap="round"/>
  <ellipse cx="256" cy="176" rx="70" ry="18" fill="#f8f0e3"/>
  <path d="M186 182c0 38 32 71 70 71s70-33 70-71" fill="#e0b98a" stroke="#7a5330" stroke-width="6"/>
  <path d="M226 206c12 10 28 10 40 0" fill="none" stroke="#5a3a24" stroke-width="6" stroke-linecap="round"/>
  <path d="M236 222c13 8 27 8 40 0" fill="none" stroke="#5a3a24" stroke-width="5" stroke-linecap="round"/>
  <path d="M224 232c9 20 18 30 32 30s23-10 32-30" fill="none" stroke="#5a3a24" stroke-width="6" stroke-linecap="round"/>
  <ellipse cx="218" cy="166" rx="10" ry="7" fill="#5a3a24"/>
  <ellipse cx="294" cy="166" rx="10" ry="7" fill="#5a3a24"/>
  <path d="M205 300c16-26 33-37 51-37s35 11 51 37l20 34H185z" fill="#7f5a39" stroke="#53331f" stroke-width="6"/>
  <path d="M170 346c30-36 60-54 86-54s56 18 86 54" fill="none" stroke="#f4f0ea" stroke-width="26" stroke-linecap="round"/>
  <path d="M170 346c30-36 60-54 86-54s56 18 86 54" fill="none" stroke="#d9d0c7" stroke-width="6" stroke-linecap="round"/>
  <path d="M136 394c40-24 76-36 120-36s80 12 120 36" fill="none" stroke="#caa063" stroke-width="12" stroke-linecap="round"/>
  <path d="M142 394c48-12 88-18 114-18s66 6 114 18" fill="none" stroke="#e9d2a0" stroke-width="6" stroke-linecap="round"/>
  <path d="M356 260c36 10 62 34 78 69" fill="none" stroke="#7a4e2b" stroke-width="10" stroke-linecap="round"/>
  <path d="M426 332c-16-2-30-8-42-18 10-13 24-22 40-27 6 14 7 30 2 45z" fill="#d8a73a" stroke="#8a5a1f" stroke-width="5"/>
  <circle cx="390" cy="300" r="10" fill="#e85c5c"/>
  <circle cx="405" cy="314" r="10" fill="#5aa0e6"/>
  <circle cx="387" cy="330" r="10" fill="#6bc46b"/>
  <circle cx="418" cy="330" r="10" fill="#f0c24c"/>
  <path d="M92 388c28-24 54-36 78-36" fill="none" stroke="#9b6b3c" stroke-width="8" stroke-linecap="round"/>
  <path d="M88 390c20-13 39-17 58-12" fill="none" stroke="#efe1c6" stroke-width="14" stroke-linecap="round"/>
</svg>