<svg xmlns="http://www.w3.org/2000/svg" width="512" height="512" viewBox="0 0 512 512"><defs><linearGradient id="sky" x1="0" y1="0" x2="0" y2="1"><stop offset="0%" stop-color="#eaf8ff"/><stop offset="100%" stop-color="#c7ebff"/></linearGradient><linearGradient id="water" x1="0" y1="0" x2="0" y2="1"><stop offset="0%" stop-color="#5eb2e8"/><stop offset="100%" stop-color="#1c6ea8"/></linearGradient><radialGradient id="halo" cx="50%" cy="28%" r="45%"><stop offset="0%" stop-color="#fff6b8" stop-opacity="0.95"/><stop offset="100%" stop-color="#fff6b8" stop-opacity="0"/></radialGradient></defs><rect width="512" height="512" fill="url(#sky)"/><ellipse cx="270" cy="110" rx="160" ry="120" fill="url(#halo)"/><g opacity="0.25" stroke="#fff6b8" stroke-width="10" stroke-linecap="round"><line x1="256" y1="28" x2="256" y2="112"/><line x1="206" y1="42" x2="230" y2="118"/><line x1="306" y1="42" x2="282" y2="118"/><line x1="178" y1="84" x2="248" y2="126"/><line x1="334" y1="84" x2="264" y2="126"/></g><g fill="#ffffff" opacity="0.95"><circle cx="150" cy="92" r="26"/><circle cx="186" cy="68" r="34"/><circle cx="230" cy="86" r="30"/><circle cx="274" cy="70" r="36"/><circle cx="316" cy="90" r="24"/><rect x="150" y="88" width="176" height="42" rx="21"/></g><g transform="translate(360 92) rotate(18)"><rect x="-22" y="18" width="86" height="34" rx="17" fill="#f2c6a1"/><rect x="-22" y="-2" width="18" height="42" rx="9" fill="#f2c6a1"/><rect x="0" y="-10" width="18" height="50" rx="9" fill="#f2c6a1"/><rect x="22" y="-14" width="18" height="54" rx="9" fill="#f2c6a1"/><rect x="44" y="-10" width="18" height="50" rx="9" fill="#f2c6a1"/><rect x="66" y="-2" width="18" height="42" rx="9" fill="#f2c6a1"/></g><path d="M392 134 C360 190 334 242 304 300 C287 332 272 350 248 362" fill="none" stroke="#f6d36d" stroke-width="7" stroke-linecap="round"/><rect y="330" width="512" height="182" fill="url(#water)"/><path d="M0 360 C60 344 110 376 170 360 S280 344 342 360 S450 376 512 360" fill="none" stroke="#8bd9ff" stroke-width="10" stroke-linecap="round" opacity="0.35"/><path d="M0 390 C70 372 120 404 190 388 S320 372 390 388 S460 404 512 388" fill="none" stroke="#8bd9ff" stroke-width="10" stroke-linecap="round" opacity="0.22"/><g transform="translate(256 392)"><circle cx="0" cy="-42" r="20" fill="#ffd7b5"/><path d="M-24 -10 C-18 -34 18 -34 24 -10 L20 36 C20 54 -20 54 -20 36 Z" fill="#173f63"/><path d="M-12 -8 C-34 -2 -52 16 -62 34" fill="none" stroke="#173f63" stroke-width="12" stroke-linecap="round"/><path d="M12 -8 C34 -2 52 16 62 34" fill="none" stroke="#173f63" stroke-width="12" stroke-linecap="round"/><path d="M-8 40 C-16 64 -18 82 -10 100" fill="none" stroke="#173f63" stroke-width="12" stroke-linecap="round"/><path d="M8 40 C16 64 18 82 10 100" fill="none" stroke="#173f63" stroke-width="12" stroke-linecap="round"/><path d="M-8 -18 C-20 -34 -32 -54 -30 -76" fill="none" stroke="#173f63" stroke-width="12" stroke-linecap="round"/><circle cx="-30" cy="-76" r="6" fill="#ffd7b5"/><path d="M8 -18 C24 -30 38 -44 52 -62" fill="none" stroke="#173f63" stroke-width="12" stroke-linecap="round"/><circle cx="52" cy="-62" r="6" fill="#ffd7b5"/></g><path d="M236 364 C242 348 254 342 268 344 C279 345 288 352 292 362" fill="none" stroke="#f6d36d" stroke-width="7" stroke-linecap="round"/><ellipse cx="256" cy="392" rx="92" ry="20" fill="#0f4c75" opacity="0.18"/></svg>