<svg xmlns="http://www.w3.org/2000/svg" width="512" height="512" viewBox="0 0 512 512"><rect width="512" height="512" fill="#f6f7fb"/><g transform="rotate(-28 256 256)"><rect x="130" y="226" width="220" height="34" rx="17" fill="#9aa3ad"/><rect x="285" y="230" width="92" height="26" rx="13" fill="#6b7280"/><rect x="374" y="224" width="18" height="38" rx="6" fill="#c0c6cf"/><path d="M392 243 L444 256 L392 269 Z" fill="#d9a441"/><path d="M444 256 L470 247 L470 265 Z" fill="#8f6b1f"/><path d="M392 243 L404 249 L404 263 L392 269 Z" fill="#b88b2a"/><rect x="78" y="216" width="82" height="54" rx="20" fill="#d44c4c"/><path d="M88 228 L150 258" stroke="#ffffff" stroke-width="7" stroke-linecap="round" opacity="0.85"/><path d="M88 258 L150 228" stroke="#ffffff" stroke-width="7" stroke-linecap="round" opacity="0.85"/><rect x="60" y="221" width="34" height="44" rx="14" fill="#8b949e"/><path d="M94 228 L126 208 L126 278 L94 258 Z" fill="#7a838e"/></g></svg>