<svg xmlns="http://www.w3.org/2000/svg" width="512" height="512" viewBox="0 0 512 512"><rect width="512" height="512" fill="#f3f6fb"/><rect x="70" y="330" width="372" height="20" rx="8" fill="#7a5a3a"/><rect x="92" y="350" width="24" height="88" rx="6" fill="#6b4f33"/><rect x="396" y="350" width="24" height="88" rx="6" fill="#6b4f33"/><rect x="120" y="255" width="110" height="60" rx="8" fill="#ffffff" stroke="#d5dbe6" stroke-width="4"/><rect x="124" y="259" width="102" height="10" rx="5" fill="#e96b6b"/><rect x="124" y="273" width="102" height="10" rx="5" fill="#6bb7e9"/><rect x="124" y="287" width="80" height="10" rx="5" fill="#7fd37a"/><rect x="240" y="272" width="90" height="18" rx="8" fill="#8a6b4e"/><rect x="238" y="250" width="94" height="18" rx="8" fill="#6f8fc7"/><rect x="236" y="228" width="98" height="18" rx="8" fill="#d98c4a"/><rect x="343" y="182" width="16" height="120" rx="8" fill="#4b5563"/><circle cx="351" cy="171" r="26" fill="#ffd45b" stroke="#f0b83d" stroke-width="4"/><path d="M334 150 L318 120" stroke="#4b5563" stroke-width="10" stroke-linecap="round"/><path d="M368 150 L388 120" stroke="#4b5563" stroke-width="10" stroke-linecap="round"/><path d="M145 310 C145 270 175 244 216 244 C257 244 287 270 287 310" fill="#d9b08c"/><circle cx="181" cy="214" r="28" fill="#d9b08c"/><path d="M155 212 C155 170 207 170 207 212" fill="#2f3b4d"/><path d="M164 204 C164 183 198 183 198 204" fill="#2f3b4d"/><rect x="168" y="238" width="28" height="56" rx="12" fill="#d9b08c" transform="rotate(-18 182 266)"/><rect x="225" y="238" width="28" height="56" rx="12" fill="#d9b08c" transform="rotate(22 239 266)"/><path d="M171 270 C190 282 203 282 221 270" fill="none" stroke="#b07e61" stroke-width="6" stroke-linecap="round"/><ellipse cx="188" cy="312" rx="62" ry="18" fill="#c9d1dd" opacity="0.8"/><path d="M160 320 H216" stroke="#9aa6b2" stroke-width="6" stroke-linecap="round"/><path d="M181 242 C189 248 197 248 205 242" stroke="#b07e61" stroke-width="4" stroke-linecap="round" fill="none"/><circle cx="173" cy="220" r="3.5" fill="#3b2f2f"/><circle cx="195" cy="220" r="3.5" fill="#3b2f2f"/><path d="M154 352 H358" stroke="#5f4630" stroke-width="12" stroke-linecap="round"/></svg>