<svg xmlns="http://www.w3.org/2000/svg" width="512" height="512" viewBox="0 0 512 512"><defs><linearGradient id="sky" x1="0" y1="0" x2="0" y2="1"><stop offset="0%" stop-color="#9ed8ff"/><stop offset="55%" stop-color="#d8f1ff"/><stop offset="100%" stop-color="#f7e7c9"/></linearGradient><linearGradient id="sand" x1="0" y1="0" x2="0" y2="1"><stop offset="0%" stop-color="#e6c98a"/><stop offset="100%" stop-color="#c8a56a"/></linearGradient><radialGradient id="moon" cx="50%" cy="45%" r="60%"><stop offset="0%" stop-color="#fff7cf"/><stop offset="100%" stop-color="#e6d48f"/></radialGradient><radialGradient id="eyeIris" cx="50%" cy="50%" r="50%"><stop offset="0%" stop-color="#7bd3c3"/><stop offset="100%" stop-color="#2f7f7a"/></radialGradient></defs><rect width="512" height="512" fill="url(#sky)"/><path d="M0 360C70 330 120 330 175 350C235 372 300 385 368 362C420 345 468 340 512 354V512H0Z" fill="url(#sand)"/><circle cx="398" cy="110" r="38" fill="url(#moon)"/><circle cx="410" cy="104" r="38" fill="#9ed8ff" opacity="0.85"/><path d="M112 388C170 360 238 360 286 382C326 400 380 402 452 378" fill="none" stroke="#8a6542" stroke-width="8" stroke-linecap="round"/><path d="M198 381c14-18 36-34 58-46 12-6 22-8 30-7-10 8-18 18-22 30-5 16-4 31 4 46-22-6-45-12-70-23z" fill="#6d4f33" opacity="0.95"/><g transform="translate(132 224)"><ellipse cx="0" cy="0" rx="70" ry="18" fill="#ffffff" opacity="0.35"/><path d="M-26 0L-8-58H28L46 0Z" fill="#f3d7a0" stroke="#6d4f33" stroke-width="4" stroke-linejoin="round"/><path d="M-8-58L-20-94H12L28-58Z" fill="#f7e6b8" stroke="#6d4f33" stroke-width="4" stroke-linejoin="round"/><rect x="-34" y="0" width="80" height="24" rx="6" fill="#d85d5d" stroke="#6d4f33" stroke-width="4"/><path d="M-28 18c-8 18-6 38 7 52 10 11 25 12 35 3 12-11 11-29 7-40-5-13-16-20-31-20" fill="none" stroke="#d85d5d" stroke-width="12" stroke-linecap="round"/></g><g transform="translate(320 225)"><path d="M0 0h96v94c0 10-8 18-18 18H18c-10 0-18-8-18-18z" fill="#efe9db" stroke="#6b5a46" stroke-width="4"/><rect x="14" y="14" width="68" height="54" rx="8" fill="#bfe8f0" stroke="#6b5a46" stroke-width="3"/><circle cx="48" cy="41" r="17" fill="url(#eyeIris)" stroke="#6b5a46" stroke-width="3"/><circle cx="48" cy="41" r="7" fill="#1b1b1b"/><circle cx="54" cy="35" r="4" fill="#ffffff"/><path d="M22 94c0 18-4 27-14 42" fill="none" stroke="#6b5a46" stroke-width="4" stroke-linecap="round"/><path d="M74 94c0 18 4 27 14 42" fill="none" stroke="#6b5a46" stroke-width="4" stroke-linecap="round"/></g><g transform="translate(214 292)"><ellipse cx="88" cy="30" rx="62" ry="14" fill="#ffffff" opacity="0.25"/><path d="M40 6h88c8 0 14 6 14 14v38c0 22-18 40-40 40H70c-22 0-40-18-40-40V20c0-8 6-14 14-14z" fill="#f4efe6" stroke="#63513d" stroke-width="4"/><circle cx="84" cy="44" r="31" fill="#fff7df" stroke="#63513d" stroke-width="4"/><circle cx="84" cy="44" r="21" fill="none" stroke="#a8a08f" stroke-width="3"/><path d="M84 44L95 12" stroke="#63513d" stroke-width="4" stroke-linecap="round"/><path d="M84 44l18 8" stroke="#63513d" stroke-width="4" stroke-linecap="round"/><path d="M74 86c-12 22-8 44 0 58" fill="none" stroke="#f4efe6" stroke-width="18" stroke-linecap="round"/><path d="M74 86c-10 16-11 31-5 47" fill="none" stroke="#b85b5b" stroke-width="10" stroke-linecap="round"/></g><g transform="translate(250 144)"><path d="M0 0c18-10 38-10 52 0 12 8 14 24 4 34-8 8-18 11-31 12-7 1-15 2-22 7 1-10 1-16-2-23C-4 19-3 8 0 0z" fill="#ffffff" opacity="0.8"/><path d="M26 4c2 10 0 20-5 29" fill="none" stroke="#9ed8ff" stroke-width="3" stroke-linecap="round"/></g><path d="M222 274l-34 18" stroke="#7c5b39" stroke-width="5" stroke-linecap="round"/><path d="M366 232l36-14" stroke="#7c5b39" stroke-width="5" stroke-linecap="round"/><path d="M420 260c14-10 30-12 44-8-8 12-19 20-33 24-4 1-9 2-13 2 2-5 3-10 2-18z" fill="#d7f0ff" stroke="#6b5a46" stroke-width="4"/><path d="M421 260c12 10 20 20 25 34" fill="none" stroke="#6b5a46" stroke-width="4" stroke-linecap="round"/><path d="M438 259c10 3 19 9 26 18" fill="none" stroke="#6b5a46" stroke-width="4" stroke-linecap="round"/><circle cx="405" cy="295" r="6" fill="#ffef7a"/><circle cx="420" cy="308" r="4" fill="#ffef7a"/><circle cx="432" cy="297" r="5" fill="#ffef7a"/><path d="M82 452c22-24 52-38 83-40 12-1 24 0 36 3-18 14-32 30-40 50H78c1-4 2-9 4-13z" fill="#9c7147" opacity="0.35"/></svg>