<svg xmlns="http://www.w3.org/2000/svg" width="512" height="512" viewBox="0 0 512 512"><rect width="512" height="512" fill="#dff5df"/><g transform="translate(70,60) rotate(-18 180 200)"><ellipse cx="180" cy="170" rx="88" ry="112" fill="#f7f7f7" stroke="#4a4a4a" stroke-width="10"/><g stroke="#cfcfcf" stroke-width="6" opacity="0.9"><line x1="120" y1="120" x2="240" y2="220"/><line x1="110" y1="150" x2="250" y2="190"/><line x1="110" y1="185" x2="250" y2="145"/><line x1="120" y1="220" x2="240" y2="120"/><line x1="140" y1="100" x2="140" y2="250"/><line x1="165" y1="92" x2="165" y2="258"/><line x1="190" y1="92" x2="190" y2="258"/><line x1="215" y1="100" x2="215" y2="250"/></g><rect x="165" y="272" width="30" height="118" rx="12" fill="#8b5a2b" stroke="#5a3718" stroke-width="8"/><rect x="156" y="362" width="48" height="24" rx="10" fill="#6b4420" stroke="#5a3718" stroke-width="6"/></g><g transform="translate(330,300)"><circle cx="0" cy="0" r="56" fill="#cde94b" stroke="#7fb43a" stroke-width="8"/><path d="M -28 -38 C -6 -20 6 20 -22 42" fill="none" stroke="#ffffff" stroke-width="10" stroke-linecap="round"/><path d="M 28 -38 C 6 -20 -6 20 22 42" fill="none" stroke="#ffffff" stroke-width="10" stroke-linecap="round"/></g><path d="M 250 330 C 285 310 310 290 336 258" fill="none" stroke="#ffffff" stroke-width="10" stroke-linecap="round" opacity="0.7"/><path d="M 240 344 C 280 330 310 320 345 292" fill="none" stroke="#ffffff" stroke-width="6" stroke-linecap="round" opacity="0.45"/></svg>