<svg xmlns="http://www.w3.org/2000/svg" width="512" height="512" viewBox="0 0 512 512"><rect width="512" height="512" fill="#f7f7fb"/><circle cx="190" cy="250" r="90" fill="#ffd6b0" stroke="#333" stroke-width="8"/><path d="M135 220c18-28 46-44 78-44 38 0 71 23 84 58-16 18-33 27-52 30-16 3-33 0-49-8-18-10-31-24-41-36z" fill="#4a4f7a"/><path d="M128 262c18 12 31 31 35 52" fill="none" stroke="#333" stroke-width="10" stroke-linecap="round"/><path d="M160 316c10-12 24-19 39-21 18-2 35 3 49 14" fill="none" stroke="#333" stroke-width="10" stroke-linecap="round"/><path d="M232 312c18 10 29 24 34 43" fill="none" stroke="#333" stroke-width="10" stroke-linecap="round"/><path d="M171 344c8-23 25-37 48-42 21-4 41 0 58 12 20 14 32 35 35 59" fill="none" stroke="#333" stroke-width="10" stroke-linecap="round"/><path d="M154 346c-6 38 4 71 31 99" fill="none" stroke="#333" stroke-width="12" stroke-linecap="round"/><path d="M223 355c18 14 29 31 33 52" fill="none" stroke="#333" stroke-width="12" stroke-linecap="round"/><ellipse cx="184" cy="246" rx="9" ry="11" fill="#333"/><ellipse cx="208" cy="246" rx="9" ry="11" fill="#333"/><path d="M185 272c10 8 22 8 33 0" fill="none" stroke="#333" stroke-width="7" stroke-linecap="round"/><path d="M228 305c20 3 35 15 43 35 8 20 8 41 0 62" fill="none" stroke="#333" stroke-width="10" stroke-linecap="round"/><path d="M266 402c-17 1-31-4-42-15" fill="none" stroke="#333" stroke-width="10" stroke-linecap="round"/><path d="M281 338c10 8 19 20 24 36" fill="none" stroke="#333" stroke-width="10" stroke-linecap="round"/><path d="M266 306c40-58 94-84 155-78 33 3 63 19 89 46-16 18-31 31-46 40-20 11-42 17-67 18-48 2-88-8-131-26z" fill="#ffffff" stroke="#333" stroke-width="8" stroke-linejoin="round"/><circle cx="346" cy="195" r="18" fill="#fff" stroke="#333" stroke-width="8"/><circle cx="383" cy="168" r="26" fill="#fff" stroke="#333" stroke-width="8"/><circle cx="425" cy="143" r="34" fill="#fff" stroke="#333" stroke-width="8"/><circle cx="456" cy="140" r="8" fill="#333"/><circle cx="436" cy="146" r="6" fill="#333"/></svg>