<svg xmlns="http://www.w3.org/2000/svg" width="512" height="512" viewBox="0 0 512 512"><rect width="512" height="512" fill="#ffffff"/><circle cx="256" cy="256" r="170" fill="#f7f7f7" stroke="#222" stroke-width="12"/><circle cx="256" cy="256" r="8" fill="#222"/><g stroke="#222" stroke-width="10" stroke-linecap="round"><line x1="256" y1="104" x2="256" y2="132"/><line x1="256" y1="380" x2="256" y2="408"/><line x1="104" y1="256" x2="132" y2="256"/><line x1="380" y1="256" x2="408" y2="256"/><line x1="149" y1="149" x2="168" y2="168"/><line x1="344" y1="149" x2="325" y2="168"/><line x1="149" y1="363" x2="168" y2="344"/><line x1="344" y1="363" x2="325" y2="344"/></g><line x1="256" y1="256" x2="256" y2="170" stroke="#222" stroke-width="14" stroke-linecap="round"/><line x1="256" y1="256" x2="325" y2="220" stroke="#d33" stroke-width="14" stroke-linecap="round"/><circle cx="256" cy="256" r="14" fill="#222"/><path d="M130 112c18-20 42-34 68-40" fill="none" stroke="#7ab7ff" stroke-width="12" stroke-linecap="round"/><path d="M390 400c-18 20-42 34-68 40" fill="none" stroke="#7ab7ff" stroke-width="12" stroke-linecap="round"/></svg>