<svg xmlns="http://www.w3.org/2000/svg" width="512" height="512" viewBox="0 0 512 512"><rect width="512" height="512" fill="#ffffff"/><g transform="translate(70 260) rotate(-18 186 0)"><rect x="40" y="-28" width="270" height="56" rx="28" fill="#4a90e2"/><rect x="70" y="-18" width="190" height="36" rx="18" fill="#7ec3ff" opacity="0.9"/><rect x="300" y="-24" width="92" height="48" rx="18" fill="#f2f2f2" stroke="#d0d0d0" stroke-width="4"/><rect x="386" y="-26" width="44" height="52" rx="20" fill="#e95d5d"/><g fill="#ffffff"><rect x="400" y="-18" width="6" height="18" rx="2"/><rect x="410" y="-18" width="6" height="18" rx="2"/><rect x="420" y="-18" width="6" height="18" rx="2"/><rect x="405" y="-6" width="6" height="18" rx="2"/><rect x="415" y="-6" width="6" height="18" rx="2"/><rect x="425" y="-6" width="6" height="18" rx="2"/></g></g><ellipse cx="110" cy="355" rx="60" ry="18" fill="#000000" opacity="0.08"/></svg>