<svg xmlns="http://www.w3.org/2000/svg" viewBox="0 0 512 512"><rect width="512" height="512" fill="#f7f7fb"/><ellipse cx="260" cy="438" rx="130" ry="20" fill="#e6e9ef"/><g stroke="#2b2b2b" stroke-width="8" stroke-linecap="round" stroke-linejoin="round"><circle cx="188" cy="210" r="44" fill="#ffd9c2"/><path d="M149 270C146 332 160 386 188 422C225 394 240 340 232 270Z" fill="#ff9f7a"/><path d="M215 206q24 4 38 22" fill="none"/><path d="M219 220q10 2 16 10" fill="none"/><path d="M216 245C240 244 258 238 274 225C285 217 295 218 302 224C296 236 287 245 274 251C258 258 240 261 220 263Z" fill="#ffd9c2"/><path d="M267 223q16 1 26 12" fill="none"/><path d="M259 208q24-10 45-6" fill="none" stroke="#7aa0c4"/><path d="M260 228q26-6 47 1" fill="none" stroke="#7aa0c4"/><path d="M260 248q22-2 40 6" fill="none" stroke="#7aa0c4"/><circle cx="350" cy="200" r="46" fill="#ffd9c2"/><path d="M310 262C300 330 314 390 350 422C390 395 402 337 394 262Z" fill="#7cc7ff"/><path d="M332 206q12-12 28-10q16 2 20 18q4 16-8 28" fill="none"/><path d="M346 224q8 6 16 0" fill="none"/><path d="M316 298q34-18 70-4" fill="none" stroke="#5f86a8"/></g></svg>