<svg xmlns="http://www.w3.org/2000/svg" width="512" height="512" viewBox="0 0 512 512"><rect width="512" height="512" fill="#ffffff"/><g fill="none" stroke="#7ec8e3" stroke-width="18" stroke-linecap="round" stroke-linejoin="round"><path d="M72 190c48 0 78-28 118-28 36 0 52 18 52 38 0 24-20 42-48 42-18 0-34-7-44-18"/><path d="M58 262c64 0 92-18 146-18 48 0 80 23 80 58 0 30-24 52-60 52-30 0-52-13-68-34"/><path d="M92 340c52 0 83-12 126-12 46 0 76 20 76 52 0 28-20 48-52 48-23 0-41-10-54-26"/><path d="M292 190c34-28 78-34 112-12 23 15 31 40 18 59-12 18-38 27-64 21"/><path d="M318 286c40-22 82-20 104 2 18 18 20 45 4 62-16 17-44 22-68 12"/></g><path d="M392 364c-20-26-42-38-66-38 16-14 36-22 58-22 24 0 44 10 56 28-18 2-34 11-48 32Z" fill="#b6e3a8" stroke="#6aa84f" stroke-width="8" stroke-linejoin="round"/><path d="M356 333c10 18 14 39 12 62" fill="none" stroke="#6aa84f" stroke-width="7" stroke-linecap="round"/><path d="M348 404c-8-14-20-24-36-31" fill="none" stroke="#6aa84f" stroke-width="7" stroke-linecap="round"/><circle cx="408" cy="350" r="7" fill="#7ec8e3" opacity="0.8"/></svg>