<svg width="512" height="512" viewBox="0 0 512 512" xmlns="http://www.w3.org/2000/svg"><path d="M100 270 C140 210 230 160 300 150 C360 150 420 190 440 230 C460 272 440 320 380 340 C320 360 200 360 120 340 C100 336 100 320 100 270 Z" fill="#2f2f2f"/><polygon points="260 150 320 100 340 140" fill="#2f2f2f"/><polygon points="170 320 120 320 150 360" fill="#2f2f2f"/><polygon points="320 320 370 360 355 336" fill="#2f2f2f"/><polygon points="420 240 480 240 460 290" fill="#2f2f2f"/><circle cx="270" cy="230" r="6" fill="#000"/></svg>