<svg width="512" height="512" viewBox="0 0 512 512" xmlns="http://www.w3.org/2000/svg"><rect x="0" y="0" width="512" height="512" fill="#87CEEB"/><rect x="0" y="300" width="512" height="212" fill="#8B4513"/><path d="M100 300 L120 200 L140 300 Z" fill="#FFD700"/><path d="M150 300 L170 200 L190 300 Z" fill="#FFD700"/><path d="M200 300 L220 200 L240 300 Z" fill="#FFD700"/><path d="M250 300 L270 200 L290 300 Z" fill="#FFD700"/><path d="M300 300 L320 200 L340 300 Z" fill="#FFD700"/><path d="M350 300 L370 200 L390 300 Z" fill="#FFD700"/><rect x="200" y="100" width="100" height="100" fill="#A0522D"/><rect x="220" y="50" width="60" height="50" fill="#A0522D"/><path d="M250 200 L250 300" stroke="#696969" stroke-width="5"/><path d="M220 250 L280 250" stroke="#696969" stroke-width="5"/></svg>