<svg width="512" height="512" viewBox="0 0 512 512" xmlns="http://www.w3.org/2000/svg"><path d="M100 256c0-50 50-100 100-100s100 50 100 100-50 100-100 100-100-50-100-100z" fill="none" stroke="black" stroke-width="10"/><path d="M200 256c0-50 50-100 100-100s100 50 100 100-50 100-100 100-100-50-100-100z" fill="none" stroke="black" stroke-width="10"/><path d="M300 256c0-50 50-100 100-100s100 50 100 100-50 100-100 100-100-50-100-100z" fill="none" stroke="black" stroke-width="10"/><circle cx="100" cy="256" r="20" fill="black"/><circle cx="200" cy="256" r="20" fill="black"/><circle cx="300" cy="256" r="20" fill="black"/><circle cx="400" cy="256" r="20" fill="black"/></svg>