<svg width="512" height="512" viewBox="0 0 512 512" xmlns="http://www.w3.org/2000/svg"><rect x="0" y="0" width="512" height="512" fill="#fff"/><g transform="translate(256 256)"><circle cx="-80" cy="0" r="60" fill="#f0c2a6"/><circle cx="80" cy="0" r="60" fill="#f0c2a6"/><path d="M-140 -20 Q -100 -80 -60 -20" stroke="#000" stroke-width="4" fill="none"/><path d="M60 -20 Q 100 -80 140 -20" stroke="#000" stroke-width="4" fill="none"/><path d="M-100 40 C -80 60 -120 60 -100 40" fill="#000"/><path d="M100 40 C 80 60 120 60 100 40" fill="#000"/><path d="M-100 100 C -80 120 -120 120 -100 100" fill="#000"/><path d="M100 100 C 80 120 120 120 100 100" fill="#000"/><path d="M-100 160 C -80 180 -120 180 -100 160" fill="#000"/><path d="M100 160 C 80 180 120 180 100 160" fill="#000"/><path d="M-100 220 C -80 240 -120 240 -100 220" fill="#000"/><path d="M100 220 C 80 240 120 240 100 220" fill="#000"/></g></svg>