<svg viewBox="0 0 512 512" xmlns="http://www.w3.org/2000/svg"><defs><style>body { background-color: white; }</style></defs><rect width="512" height="512" fill="white"/><circle cx="100" cy="80" r="20" fill="#FF6B6B" opacity="0.8"/><circle cx="420" cy="120" r="25" fill="#4ECDC4" opacity="0.7"/><rect x="150" y="200" width="60" height="40" fill="#FFE66D" opacity="0.8" transform="rotate(35 180 220)"/><polygon points="300,150 320,180 280,190" fill="#95E1D3" opacity="0.7"/><circle cx="250" cy="350" r="30" fill="#FF6B6B" opacity="0.6"/><rect x="50" y="300" width="80" height="20" fill="#4ECDC4" opacity="0.7" transform="rotate(-45 90 310)"/><circle cx="380" cy="280" r="15" fill="#FFE66D" opacity="0.8"/><polygon points="150,400 180,420 140,440 120,410" fill="#95E1D3" opacity="0.6"/><circle cx="320" cy="420" r="22" fill="#FF6B6B" opacity="0.7"/><rect x="400" y="350" width="50" height="30" fill="#4ECDC4" opacity="0.6" transform="rotate(60 425 365)"/><circle cx="200" cy="100" r="18" fill="#FFE66D" opacity="0.7"/><polygon points="420,350 450,370 430,400" fill="#95E1D3" opacity="0.8"/><rect x="280" y="50" width="40" height="70" fill="#FF6B6B" opacity="0.6" transform="rotate(-30 300 85)"/><circle cx="80" cy="200" r="25" fill="#4ECDC4" opacity="0.8"/><polygon points="350,250 380,280 340,290 320,260" fill="#FFE66D" opacity="0.7"/></svg>