<svg viewBox="0 0 512 512" xmlns="http://www.w3.org/2000/svg"><defs><linearGradient id="skyGrad" x1="0%" y1="0%" x2="0%" y2="100%"><stop offset="0%" style="stop-color:#87CEEB;stop-opacity:1" /><stop offset="100%" style="stop-color:#E0F6FF;stop-opacity:1" /></linearGradient></defs><rect width="512" height="512" fill="url(#skyGrad)"/><rect y="350" width="512" height="162" fill="#8B7355"/><polygon points="80,350 120,200 160,350" fill="#2D5016"/><polygon points="100,320 150,150 200,320" fill="#3A6B1F"/><polygon points="140,340 190,180 240,340" fill="#2D5016"/><polygon points="200,350 250,160 300,350" fill="#3A6B1F"/><polygon points="240,330 290,170 340,330" fill="#2D5016"/><polygon points="300,350 350,180 400,350" fill="#3A6B1F"/><polygon points="340,340 390,200 440,340" fill="#2D5016"/><polygon points="380,350 420,220 460,350" fill="#3A6B1F"/><rect x="75" y="280" width="20" height="70" fill="#654321"/><rect x="145" y="250" width="18" height="100" fill="#654321"/><rect x="235" y="240" width="22" height="110" fill="#654321"/><rect x="335" y="260" width="20" height="90" fill="#654321"/><rect x="415" y="270" width="18" height="80" fill="#654321"/><ellipse cx="90" cy="240" rx="25" ry="35" fill="#4A7C2C"/><ellipse cx="160" cy="200" rx="28" ry="40" fill="#4A7C2C"/><ellipse cx="250" cy="190" rx="30" ry="45" fill="#4A7C2C"/><ellipse cx="350" cy="210" rx="26" ry="38" fill="#4A7C2C"/><ellipse cx="425" cy="230" rx="24" ry="35" fill="#4A7C2C"/></svg>