<svg viewBox="0 0 512 512" xmlns="http://www.w3.org/2000/svg"><defs><style>.stalk { stroke: #8B7355; stroke-width: 3; fill: none; } .grain { fill: #FFD700; } .basket { stroke: #8B4513; stroke-width: 2; fill: #D2691E; } .handle { stroke: #8B4513; stroke-width: 3; fill: none; }</style></defs><rect width="512" height="512" fill="#F5DEB3"/><g id="wheat1"><path class="stalk" d="M 80 280 Q 75 250 70 220"/><circle class="grain" cx="65" cy="210" r="4"/><circle class="grain" cx="68" cy="215" r="4"/><circle class="grain" cx="62" cy="215" r="4"/><circle class="grain" cx="70" cy="220" r="4"/></g><g id="wheat2"><path class="stalk" d="M 120 300 Q 118 260 115 220"/><circle class="grain" cx="110" cy="210" r="4"/><circle class="grain" cx="113" cy="215" r="4"/><circle class="grain" cx="107" cy="215" r="4"/><circle class="grain" cx="115" cy="220" r="4"/></g><g id="wheat3"><path class="stalk" d="M 160 290 Q 165 250 170 210"/><circle class="grain" cx="175" cy="200" r="4"/><circle class="grain" cx="172" cy="205" r="4"/><circle class="grain" cx="178" cy="205" r="4"/><circle class="grain" cx="170" cy="210" r="4"/></g><g id="wheat4"><path class="stalk" d="M 200 310 Q 205 270 210 230"/><circle class="grain" cx="215" cy="220" r="4"/><circle class="grain" cx="212" cy="225" r="4"/><circle class="grain" cx="218" cy="225" r="4"/><circle class="grain" cx="210" cy="230" r="4"/></g><g id="basket"><ellipse class="basket" cx="300" cy="340" rx="90" ry="50"/><path class="basket" d="M 220 340 L 210 280 Q 210 260 230 250 L 370 250 Q 390 260 390 280 L 380 340"/><path class="handle" d="M 240 250 Q 300 180 360 250"/><line class="basket" x1="250" y1="340" x2="250" y2="290"/><line class="basket" x1="300" y1="340" x2="300" y2="290"/><line class="basket" x1="350" y1="340" x2="350" y2="290"/></g><g id="wheat5"><path class="stalk" d="M 250 330 Q 245 290 240 250"/><circle class="grain" cx="235" cy="240" r="4"/><circle class="grain" cx="238" cy="245" r="4"/><circle class="grain" cx="232" cy="245" r="4"/></g><g id="wheat6"><path class="stalk" d="M 320 330 Q 325 290 330 250"/><circle class="grain" cx="335" cy="240" r="4"/><circle class="grain" cx="332" cy="245" r="4"/><circle class="grain" cx="338" cy="245" r="4"/></g></svg>