<svg viewBox="0 0 512 512" xmlns="http://www.w3.org/2000/svg"><rect width="512" height="512" fill="#ffffff"/><circle cx="256" cy="200" r="60" fill="#FFD700" stroke="#333" stroke-width="3"/><circle cx="240" cy="190" r="8" fill="#333"/><circle cx="272" cy="190" r="8" fill="#333"/><path d="M 256 220 Q 250 230 256 235 Q 262 230 256 220" fill="#333"/><path d="M 220 240 L 200 280" stroke="#333" stroke-width="4" stroke-linecap="round"/><path d="M 292 240 L 312 280" stroke="#333" stroke-width="4" stroke-linecap="round"/><path d="M 256 260 L 256 320" stroke="#333" stroke-width="4" stroke-linecap="round"/><path d="M 230 320 L 210 380" stroke="#333" stroke-width="4" stroke-linecap="round"/><path d="M 282 320 L 302 380" stroke="#333" stroke-width="4" stroke-linecap="round"/><path d="M 240 150 Q 235 140 230 145" stroke="#FF6B6B" stroke-width="2" fill="none" stroke-linecap="round"/><path d="M 272 150 Q 277 140 282 145" stroke="#FF6B6B" stroke-width="2" fill="none" stroke-linecap="round"/><path d="M 220 200 Q 210 195 215 205" stroke="#FF6B6B" stroke-width="2" fill="none" stroke-linecap="round"/><path d="M 292 200 Q 302 195 297 205" stroke="#FF6B6B" stroke-width="2" fill="none" stroke-linecap="round"/><path d="M 256 100 Q 250 90 260 95" stroke="#FF6B6B" stroke-width="2" fill="none" stroke-linecap="round"/><path d="M 256 100 Q 262 90 252 95" stroke="#FF6B6B" stroke-width="2" fill="none" stroke-linecap="round"/></svg>