<svg viewBox="0 0 512 512" xmlns="http://www.w3.org/2000/svg"><defs><linearGradient id="waterGradient" x1="0%" y1="0%" x2="0%" y2="100%"><stop offset="0%" style="stop-color:#87CEEB;stop-opacity:1" /><stop offset="100%" style="stop-color:#1E90FF;stop-opacity:1" /></linearGradient></defs><rect width="512" height="512" fill="url(#waterGradient)"/><path d="M 0 200 Q 64 180 128 200 T 256 200 T 384 200 T 512 200 L 512 250 Q 448 230 384 250 T 256 250 T 128 250 T 0 250 Z" fill="#4A90E2" opacity="0.6"/><path d="M 0 280 Q 64 260 128 280 T 256 280 T 384 280 T 512 280 L 512 330 Q 448 310 384 330 T 256 330 T 128 330 T 0 330 Z" fill="#1E90FF" opacity="0.5"/><path d="M 0 360 Q 64 340 128 360 T 256 360 T 384 360 T 512 360 L 512 410 Q 448 390 384 410 T 256 410 T 128 410 T 0 410 Z" fill="#0047AB" opacity="0.4"/><circle cx="100" cy="120" r="25" fill="#FFD700" opacity="0.8"/><circle cx="450" cy="100" r="15" fill="#FFFFFF" opacity="0.7"/><circle cx="80" cy="90" r="8" fill="#FFFFFF" opacity="0.6"/><circle cx="420" cy="140" r="10" fill="#FFFFFF" opacity="0.5"/></svg>