<svg xmlns="http://www.w3.org/2000/svg" width="512" height="512" viewBox="0 0 512 512"><rect width="100%" height="100%" fill="#f7f7f7"/><rect x="0" y="380" width="512" height="132" fill="#444"/><rect x="90" y="240" width="332" height="90" rx="24" ry="24" fill="#d33" stroke="#9b0000" stroke-width="4"/><rect x="150" y="190" width="212" height="80" rx="18" ry="18" fill="#e55" stroke="#9b0000" stroke-width="4"/><path d="M170 200 L260 200 L285 255 L165 255 Z" fill="#bfeeff" stroke="#66a" stroke-width="3"/><path d="M265 200 L330 200 L360 255 L285 255 Z" fill="#bfeeff" stroke="#66a" stroke-width="3"/><circle cx="170" cy="360" r="44" fill="#222" stroke="#000" stroke-width="6"/><circle cx="170" cy="360" r="20" fill="#ccc" stroke="#999" stroke-width="4"/><circle cx="342" cy="360" r="44" fill="#222" stroke="#000" stroke-width="6"/><circle cx="342" cy="360" r="20" fill="#ccc" stroke="#999" stroke-width="4"/><ellipse cx="430" cy="295" rx="12" ry="8" fill="#fff6b3" stroke="#f0d86b" stroke-width="2"/><path d="M110 260 C140 250 200 250 240 260" fill="none" stroke="#ffb3b3" stroke-width="8" stroke-linecap="round" opacity="0.3"/><path d="M200 210 L280 210" stroke="#ffffff" stroke-width="6" stroke-linecap="round" opacity="0.25"/></svg>