<svg xmlns="http://www.w3.org/2000/svg" width="512" height="512" viewBox="0 0 512 512">
  <defs>
    <linearGradient id="billGrad1" x1="0" x2="0" y1="0" y2="1">
      <stop offset="0%" stop-color="#98e082" />
      <stop offset="100%" stop-color="#61b84a" />
    </linearGradient>
    <linearGradient id="billGrad2" x1="0" x2="0" y1="0" y2="1">
      <stop offset="0%" stop-color="#b7f1a6" />
      <stop offset="100%" stop-color="#7fd56d" />
    </linearGradient>
    <linearGradient id="coinGrad" x1="0" x2="1" y1="0" y2="1">
      <stop offset="0%" stop-color="#ffd766" />
      <stop offset="100%" stop-color="#d99e00" />
    </linearGradient>
    <filter id="soft" x="-50%" y="-50%" width="200%" height="200%">
      <feDropShadow dx="0" dy="6" stdDeviation="8" flood-color="#000" flood-opacity="0.25" />
    </filter>
  </defs>

  <!-- Stack of bills (three overlapping rounded rectangles) -->
  <g filter="url(#soft)">
    <!-- bottom bill -->
    <rect x="66" y="170" width="380" height="220" rx="20" fill="url(#billGrad1)" stroke="#4d8f36" stroke-width="6" />
    <!-- middle bill (slightly offset up-left) -->
    <rect x="56" y="150" width="380" height="220" rx="20" fill="url(#billGrad2)" stroke="#4d8f36" stroke-width="6" opacity="0.95" />
    <!-- top bill (front) -->
    <rect x="46" y="130" width="380" height="220" rx="20" fill="#89d46a" stroke="#3f7c30" stroke-width="6" />

    <!-- decorative emblems on top bill -->
    <!-- central emblem -->
    <circle cx="256" cy="240" r="36" fill="#ffffff" opacity="0.9" stroke="#cfead0" stroke-width="4" />
    <circle cx="256" cy="240" r="20" fill="#7ab24a" />
    <!-- corner motifs -->
    <circle cx="110" cy="190" r="14" fill="#ffffff" opacity="0.9" stroke="#cfead0" stroke-width="3" />
    <circle cx="402" cy="190" r="14" fill="#ffffff" opacity="0.9" stroke="#cfead0" stroke-width="3" />
    <circle cx="110" cy="310" r="14" fill="#ffffff" opacity="0.9" stroke="#cfead0" stroke-width="3" />
    <circle cx="402" cy="310" r="14" fill="#ffffff" opacity="0.9" stroke="#cfead0" stroke-width="3" />

    <!-- subtle horizontal pattern lines on bills -->
    <g stroke="#6aa755" stroke-width="4" stroke-linecap="round" opacity="0.35">
      <path d="M86 200 H426" />
      <path d="M86 280 H426" />
    </g>
  </g>

  <!-- Coin overlapping the right side -->
  <g>
    <circle cx="360" cy="340" r="78" fill="url(#coinGrad)" stroke="#b37a00" stroke-width="6" />
    <circle cx="360" cy="340" r="52" fill="#ffd779" opacity="0.25" />
    <!-- rim highlight -->
    <path d="M300 300 C320 260, 400 260, 420 300" fill="none" stroke="#fff8b8" stroke-width="6" opacity="0.25" stroke-linecap="round" />
    <!-- small inner ring -->
    <circle cx="360" cy="340" r="28" fill="#efb200" opacity="0.9" />
    <circle cx="360" cy="340" r="14" fill="#ffd" opacity="0.7" />
  </g>

  <!-- small pile shadow under composition -->
  <ellipse cx="256" cy="420" rx="160" ry="28" fill="#000" opacity="0.12" />
</svg>