<svg xmlns="http://www.w3.org/2000/svg" width="512" height="512" viewBox="0 0 512 512">
  <defs>
    <linearGradient id="bg" x1="0" x2="0" y1="0" y2="1">
      <stop offset="0%" stop-color="#0b3d91"/>
      <stop offset="100%" stop-color="#05091a"/>
    </linearGradient>
    <linearGradient id="bodyGrad" x1="0" x2="0" y1="0" y2="1">
      <stop offset="0%" stop-color="#ffffff"/>
      <stop offset="100%" stop-color="#cbd3db"/>
    </linearGradient>
    <radialGradient id="glass" cx="50%" cy="40%" r="60%">
      <stop offset="0%" stop-color="#aee5ff"/>
      <stop offset="100%" stop-color="#4aa6d6"/>
    </radialGradient>
    <radialGradient id="flameGrad" cx="50%" cy="30%" r="70%">
      <stop offset="0%" stop-color="#fff176"/>
      <stop offset="50%" stop-color="#ff8a00"/>
      <stop offset="100%" stop-color="#c21807"/>
    </radialGradient>
  </defs>

  <rect width="512" height="512" fill="url(#bg)"/>

  <!-- stars -->
  <g fill="#ffffff" opacity="0.9">
    <circle cx="60" cy="60" r="1.8"/>
    <circle cx="120" cy="40" r="1.4"/>
    <circle cx="420" cy="80" r="1.6"/>
    <circle cx="350" cy="40" r="1.2"/>
    <circle cx="460" cy="150" r="1.5"/>
    <circle cx="80" cy="140" r="1.3"/>
  </g>

  <!-- rocket -->
  <g>
    <!-- fins -->
    <path d="M216 320 L160 360 L216 340 Z" fill="#d32f2f"/>
    <path d="M296 320 L352 360 L296 340 Z" fill="#d32f2f"/>

    <!-- body -->
    <rect x="216" y="120" width="80" height="200" rx="40" ry="40" fill="url(#bodyGrad)" stroke="#777" stroke-width="2"/>

    <!-- nose cone -->
    <path d="M256 64 L296 120 L216 120 Z" fill="#ec407a" stroke="#aa2a4a" stroke-width="2"/>

    <!-- window -->
    <circle cx="256" cy="200" r="28" fill="url(#glass)" stroke="#2d6f9e" stroke-width="4"/>

    <!-- engine bell -->
    <ellipse cx="256" cy="356" rx="28" ry="14" fill="#424242"/>

    <!-- flame -->
    <path d="M256 370 C246 390 232 418 256 456 C280 418 266 390 256 370 Z" fill="url(#flameGrad)" opacity="0.95"/>

    <!-- small highlight on body -->
    <path d="M232 140 C236 130 246 125 256 125 C266 125 276 129 280 139 L280 140 C270 132 242 132 232 140 Z" fill="#ffffff" opacity="0.15"/>
  </g>
</svg>