<svg xmlns="http://www.w3.org/2000/svg" viewBox="0 0 512 512" width="512" height="512"><path d="M50,300 Q150,200 350,250 Q450,270 480,220 Q460,320 480,380 Q450,330 350,350 Q150,400 50,300" fill="#78909C" /><path d="M220,245 Q260,120 320,235" fill="#78909C" /><path d="M250,355 Q280,420 330,360" fill="#78909C" /><path d="M100,280 Q120,280 130,300" fill="none" stroke="#455A64" stroke-width="3" /><path d="M115,280 Q135,280 145,300" fill="none" stroke="#455A64" stroke-width="3" /><path d="M130,280 Q150,280 160,300" fill="none" stroke="#455A64" stroke-width="3" /><circle cx="380" cy="280" r="6" fill="black" /><path d="M370,310 Q390,320 410,305" fill="none" stroke="white" stroke-width="2" /></svg>