<svg width="512" height="512" viewBox="0 0 512 512" xmlns="http://www.w3.org/2000/svg" background-color="#ffffff"><rect width="512" height="512" fill="#f0f0f0"/><circle cx="256" cy="200" r="80" fill="#bc002d"/><path d="M100 450 L100 350 L150 350 L150 450 M160 450 L160 300 L210 300 L210 450 M220 450 L220 250 L270 250 L270 450 M280 450 L280 320 L330 320 L330 450 M340 450 L340 280 L390 280 L390 450 M400 450 L400 360 L450 360 L450 450" fill="#333333"/><path d="M180 450 L256 100 L332 450" fill="none" stroke="#ff4444" stroke-width="8"/><line x1="210" y1="350" x2="302" y2="350" stroke="#ff4444" stroke-width="8"/><line x1="230" y1="250" x2="282" y2="250" stroke="#ff4444" stroke-width="8"/><rect x="80" y="450" width="352" height="20" fill="#666666"/></svg>