<svg xmlns="http://www.w3.org/2000/svg" viewBox="0 0 512 512" width="512" height="512"><rect width="512" height="512" fill="#f0f0f0"/><path d="M50 400 Q 150 350, 200 420 T 350 380 T 480 450" fill="none" stroke="#8b4513" stroke-width="12" stroke-dasharray="20,15"/><circle cx="480" cy="450" r="8" fill="#8b4513"/><path d="M240 380 L255 380 L260 340 L275 340" fill="none" stroke="#333" stroke-width="6" stroke-linecap="round"/><circle cx="260" cy="325" r="10" fill="#333"/><path d="M260 340 L245 365 M260 340 L275 365" stroke="#333" stroke-width="6" stroke-linecap="round"/><path d="M100 150 Q 120 120, 150 150 T 200 150" fill="none" stroke="#ccc" stroke-width="20" stroke-linecap="round"/><path d="M350 100 Q 370 70, 400 100 T 450 100" fill="none" stroke="#ccc" stroke-width="20" stroke-linecap="round"/><path d="M50 400 L40 410 M50 400 L60 410" fill="none" stroke="#8b4513" stroke-width="4"/></svg>