<svg xmlns="http://www.w3.org/2000/svg" viewBox="0 0 512 512" width="512" height="512">
  <!-- Person on the left (whispering) -->
  <circle cx="180" cy="180" r="40" fill="#333" />
  <path d="M180 230 Q180 350 100 350 L260 350 Q180 350 180 230" fill="#333" />
  
  <!-- Hand cupping mouth -->
  <path d="M210 180 Q230 180 235 210" stroke="#333" stroke-width="8" fill="none" stroke-linecap="round" />

  <!-- Person on the right (listening) -->
  <circle cx="332" cy="180" r="40" fill="#666" />
  <path d="M332 230 Q332 350 252 350 L412 350 Q332 350 332 230" fill="#666" />
  
  <!-- Ear of the listener -->
  <path d="M292 170 Q280 170 280 185 Q280 200 292 200" stroke="#000" stroke-width="4" fill="none" />

  <!-- Air/Sound dashes -->
  <line x1="230" y1="195" x2="260" y2="195" stroke="#999" stroke-width="3" stroke-dasharray="5,5" />
  <line x1="235" y1="185" x2="265" y2="185" stroke="#999" stroke-width="3" stroke-dasharray="5,5" />
  <line x1="235" y1="205" x2="265" y2="205" stroke="#999" stroke-width="3" stroke-dasharray="5,5" />
</svg>