<svg xmlns="http://www.w3.org/2000/svg" width="512" height="512"><rect width="512" height="512" fill="#87ceeb"/><rect x="96" y="160" width="320" height="312" fill="#d3d3d3" stroke="#303030" stroke-width="4" rx="16"/><polygon points="96,160 256,72 416,160" fill="#b0b0b0" stroke="#303030" stroke-width="4"/><rect x="192" y="312" width="128" height="160" fill="#8b5a2b" stroke="#4b2f1a" stroke-width="4" rx="10"/><rect x="144" y="220" width="40" height="40" fill="#fffbcc" stroke="#706c51" stroke-width="3" rx="4"/><rect x="228" y="220" width="40" height="40" fill="#fffbcc" stroke="#706c51" stroke-width="3" rx="4"/><rect x="312" y="220" width="40" height="40" fill="#fffbcc" stroke="#706c51" stroke-width="3" rx="4"/><rect x="144" y="280" width="40" height="40" fill="#fffbcc" stroke="#706c51" stroke-width="3" rx="4"/><rect x="228" y="280" width="40" height="40" fill="#fffbcc" stroke="#706c51" stroke-width="3" rx="4"/><rect x="312" y="280" width="40" height="40" fill="#fffbcc" stroke="#706c51" stroke-width="3" rx="4"/><rect x="144" y="340" width="40" height="40" fill="#fffbcc" stroke="#706c51" stroke-width="3" rx="4"/><rect x="228" y="340" width="40" height="40" fill="#fffbcc" stroke="#706c51" stroke-width="3" rx="4"/><rect x="312" y="340" width="40" height="40" fill="#fffbcc" stroke="#706c51" stroke-width="3" rx="4"/><rect x="224" y="420" width="64" height="40" fill="#f4c542" stroke="#a67c00" stroke-width="3" rx="6"/><rect x="80" y="468" width="352" height="20" fill="#2f4f4f"/><circle cx="420" cy="96" r="36" fill="#fff9c4" stroke="#ffd700" stroke-width="4"/></svg>