<svg xmlns="http://www.w3.org/2000/svg" width="512" height="512" viewBox="0 0 512 512"><rect width="512" height="512" fill="#0d0d0d"/><g fill="none" stroke-linecap="round" stroke-linejoin="round" stroke-width="10"><path d="M22 120 C100 60 180 220 260 110 S430 90 490 200" stroke="#f44336" opacity="0.9"/><path d="M10 320 Q120 260 210 340 T410 310" stroke="#ffeb3b" opacity="0.8"/><path d="M50 460 C130 380 190 420 260 360 S420 330 470 400" stroke="#4caf50" opacity="0.85"/><path d="M60 220 L140 260 L120 320 L200 360 L180 420 L240 460 L280 380" stroke="#03a9f4" opacity="0.85"/><path d="M320 40 L360 110 L330 160 L410 190 L380 250" stroke="#9c27b0" opacity="0.7"/><path d="M90 60 L150 130 L90 200 L140 250 L80 310" stroke="#ff5722" opacity="0.75"/></g><g fill="none" stroke="#ffffff" stroke-width="8" stroke-opacity="0.6"><circle cx="150" cy="150" r="45"/><circle cx="320" cy="250" r="60"/><circle cx="220" cy="360" r="40"/><circle cx="400" cy="120" r="30"/><circle cx="360" cy="420" r="50"/></g><path d="M60 420 C110 380 190 420 270 370 C300 340 330 360 360 310 C390 260 440 290 470 250" fill="none" stroke="#8bc34a" stroke-width="6" stroke-linecap="round"/></svg>