<svg xmlns="http://www.w3.org/2000/svg" width="512" height="512"><rect width="512" height="512" fill="#87CEEB"/><rect y="320" width="512" height="192" fill="#654321"/><rect y="330" width="512" height="120" fill="#8B4513"/><g fill="#DEB887"><rect x="80" y="280" width="40" height="160" rx="10"/><rect x="140" y="260" width="40" height="180" rx="10"/><rect x="200" y="300" width="40" height="140" rx="10"/><rect x="260" y="270" width="40" height="170" rx="10"/><rect x="320" y="290" width="40" height="150" rx="10"/><rect x="380" y="310" width="40" height="130" rx="10"/></g><g fill="#FFD700"><ellipse cx="160" cy="160" rx="100" ry="90"/><ellipse cx="200" cy="120" rx="60" ry="40"/></g><path d="M120 360 Q150 300 190 360 T260 360" fill="#556B2F"/><path d="M300 360 Q330 300 370 360 T440 360" fill="#6B8E23"/></svg>