<svg xmlns="http://www.w3.org/2000/svg" width="512" height="512" viewBox="0 0 512 512"><defs><linearGradient id="sky" x1="0" y1="0" x2="0" y2="1"><stop offset="0%" stop-color="#87ceeb"/><stop offset="100%" stop-color="#5b94d3"/></linearGradient><linearGradient id="grass" x1="0" y1="0" x2="0" y2="1"><stop offset="0%" stop-color="#4caf50"/><stop offset="100%" stop-color="#2e7d32"/></linearGradient><linearGradient id="dirt" x1="0" y1="0" x2="0" y2="1"><stop offset="0%" stop-color="#8d6e63"/><stop offset="100%" stop-color="#4e342e"/></linearGradient></defs><rect width="512" height="512" fill="url(#sky)"/><polygon points="0,320 160,200 240,280 320,180 512,320" fill="#3a6b3f" opacity="0.8"/><g><rect x="96" y="320" width="320" height="140" fill="url(#dirt)"/><rect x="96" y="280" width="320" height="40" fill="url(#grass)"/></g><g opacity="0.9"><rect x="180" y="200" width="60" height="60" fill="#7c8c3d"/><rect x="250" y="200" width="60" height="60" fill="#314e2e"/><rect x="220" y="170" width="60" height="60" fill="#456e34"/><rect x="200" y="140" width="30" height="30" fill="#2e5f29"/><rect x="230" y="120" width="30" height="30" fill="#1f4d1d"/><rect x="260" y="140" width="30" height="30" fill="#2e5f29"/></g><g><rect x="120" y="360" width="40" height="40" fill="#b0bec5"/><rect x="80" y="400" width="20" height="20" fill="#cfd8dc"/><rect x="160" y="360" width="40" height="40" fill="#b0bec5"/><rect x="200" y="320" width="40" height="40" fill="#b0bec5"/><rect x="160" y="320" width="40" height="20" fill="#90a4ae"/><rect x="140" y="280" width="30" height="40" fill="#8a8f99"/><rect x="180" y="280" width="40" height="20" fill="#607d8b"/><rect x="220" y="280" width="20" height="60" fill="#546e7a"/><rect x="260" y="240" width="20" height="80" fill="#455a64"/><rect x="240" y="240" width="20" height="40" fill="#607d8b"/></g><g><rect x="360" y="360" width="60" height="60" fill="#2e7d32"/><rect x="360" y="300" width="60" height="60" fill="#1b5e20"/><rect x="360" y="420" width="60" height="20" fill="#0b3d13"/><rect x="340" y="360" width="20" height="20" fill="#1b5e20"/><rect x="420" y="360" width="20" height="20" fill="#1b5e20"/><rect x="360" y="320" width="20" height="20" fill="#4c8c2c"/><rect x="400" y="320" width="20" height="20" fill="#4c8c2c"/><rect x="360" y="380" width="20" height="20" fill="#41682b"/><rect x="400" y="380" width="20" height="20" fill="#41682b"/></g></svg>