<svg xmlns="http://www.w3.org/2000/svg" viewBox="0 0 512 512"><rect width="512" height="512" fill="#050b1a"/><defs><linearGradient id="bodyGrad" x1="0" y1="0" x2="0" y2="1"><stop offset="0%" stop-color="#f4f6ff"/><stop offset="100%" stop-color="#9fb8ff"/></linearGradient><linearGradient id="flameGrad" x1="0" y1="0" x2="0" y2="1"><stop offset="0%" stop-color="#ffd973"/><stop offset="100%" stop-color="#ff4f1f"/></linearGradient></defs><g><path d="M256 96 L216 200 L216 384 C216 404 236 456 256 456 C276 456 296 404 296 384 L296 200 Z" fill="url(#bodyGrad)" stroke="#0f1426" stroke-width="4"/><path d="M256 96 L216 200 L296 200 Z" fill="#ffb347" stroke="#0f1426" stroke-width="4"/><polygon points="216,324 168,428 216,428" fill="#d93849" stroke="#0f1426" stroke-width="4"/><polygon points="296,324 344,428 296,428" fill="#d93849" stroke="#0f1426" stroke-width="4"/><circle cx="256" cy="280" r="32" fill="#1d2a60" stroke="#6ea7ff" stroke-width="6"/></g><circle cx="242" cy="268" r="10" fill="#9cf0ff" opacity="0.35"/><path d="M256 456 L234 512 L256 486 L278 512 Z" fill="url(#flameGrad)"/><circle cx="90" cy="110" r="4" fill="#8ec5ff"/><circle cx="430" cy="80" r="3" fill="#c7e5ff"/><circle cx="380" cy="150" r="5" fill="#b6d8ff"/></svg>