<svg xmlns="http://www.w3.org/2000/svg" width="512" height="512" viewBox="0 0 512 512"><rect width="512" height="512" fill="#7bc8f6"/><g fill="#1c1c1c" stroke="#0d0d0d" stroke-width="2"><path d="M110 280c60-40 150-80 310-40 0 0 10-12 22-12 21 0 38 16 38 36v42c0 5-1 11-4 15-8 10-28 14-48 20-44 13-60 43-72 62-10 16-20 36-40 42-14 4-52 12-74 10-32-3-42-18-48-30-13-28-16-75-46-96-24-18-40-11-56 3-14 12-26 33-60 40-38 9-60 0-80-20-12-12-18-40-18-60 0-16 2-25 6-30z"/><path d="M60 340c20 5 40 10 58 8 20-2 32-11 46-28 28-34 60-28 80 10" fill="none" stroke="#ffffff" stroke-width="8" stroke-linecap="round" stroke-linejoin="round" opacity="0.6"/><path d="M230 320c20 5 38 4 56-5 54-25 82 24 96 38" fill="none" stroke="#ffffff" stroke-width="8" stroke-linecap="round" stroke-linejoin="round" opacity="0.6"/><path d="M10 380c40 10 90 15 140 5" fill="none" stroke="#ffffff" stroke-width="9" stroke-linecap="round" opacity="0.5"/></g><path d="M260 260c15-8 30-12 45-12 18 0 30 5 40 12l45 20c18 8 20 24 4 32l-55 25c-12 6-30 6-42 0l-40-20c-12-6-16-22-6-32z" fill="#a8a8a8" stroke="#0f0f0f" stroke-width="3"/><path d="M330 280c20-4 30-1 40 8" fill="none" stroke="#0f0f0f" stroke-width="4" stroke-linecap="round"/><path d="M170 280c-10 12-20 24-30 38" fill="none" stroke="#0f0f0f" stroke-width="4" stroke-linecap="round"/><path d="M310 320c30 15 50 12 80 30" fill="none" stroke="#0f0f0f" stroke-width="4" stroke-linecap="round"/></svg>