<svg xmlns="http://www.w3.org/2000/svg" width="512" height="512" viewBox="0 0 512 512"><defs><linearGradient id="g1" x1="0%" x2="0%" y1="0%" y2="100%"><stop offset="0%" stop-color="#ffffff"/><stop offset="100%" stop-color="#c0c0c0"/></linearGradient><linearGradient id="g2" x1="0%" x2="100%" y1="0%" y2="100%"><stop offset="0%" stop-color="#fff800"/><stop offset="100%" stop-color="#ff8700"/></linearGradient></defs><rect width="512" height="512" fill="#081023"/><path d="M120 220c0-30 24-54 54-54 9 0 18 3 26 8 12-24 36-42 64-42 22 0 42 12 54 30 4-1 9-1 13-1 33 0 60 27 60 60 0 31-24 57-55 60l5 10c18 5 30 22 30 41 0 24-19 43-43 43H160c-26 0-48-22-48-48 0-23 17-42 39-47l21-78c-18-10-30-29-30-51z" fill="url(#g1)" stroke="#263244" stroke-width="5" stroke-linecap="round" stroke-linejoin="round"/><path d="M276 312h-32l32 96-60-40h32l-48 96 88-104-40 8z" fill="url(#g2)" stroke="#f07a00" stroke-width="5" stroke-linejoin="round"/></svg>