<svg xmlns="http://www.w3.org/2000/svg" width="512" height="512" viewBox="0 0 512 512"><rect width="512" height="512" fill="#0d071d"/><defs><radialGradient id="g1" cx="0.5" cy="0.5" r="0.6"><stop offset="0%" stop-color="#ffd500"/><stop offset="100%" stop-color="#ff5f1f"/></radialGradient><radialGradient id="g2" cx="0.5" cy="0.5" r="0.7"><stop offset="0%" stop-color="#00ffe6"/><stop offset="100%" stop-color="#004bff"/></radialGradient><radialGradient id="g3" cx="0.5" cy="0.5" r="0.7"><stop offset="0%" stop-color="#ff3dba"/><stop offset="100%" stop-color="#7500ff"/></radialGradient><radialGradient id="g4" cx="0.5" cy="0.5" r="0.7"><stop offset="0%" stop-color="#14ff00"/><stop offset="100%" stop-color="#006b00"/></radialGradient></defs><path d="M80 256 Q120 120 200 220 T320 180 Q420 80 430 210 T330 320 Q240 430 120 300 T100 260" fill="url(#g1)" opacity="0.8"/><path d="M140 120 Q200 40 270 80 T360 120 Q420 160 380 220 T320 210 Q250 170 190 230 T140 210" fill="url(#g2)" opacity="0.7"/><path d="M250 290 Q320 260 360 340 T400 420 Q360 460 300 400 T260 330" fill="url(#g3)" opacity="0.75"/><path d="M150 320 Q190 380 260 360 T320 420 Q390 460 330 480 T220 420 Q170 380 150 320" fill="url(#g4)" opacity="0.8"/><circle cx="416" cy="96" r="96" fill="#ffd400" opacity="0.6"/><circle cx="96" cy="416" r="96" fill="#4ef67d" opacity="0.6"/></svg>