<svg width="512" height="512" viewBox="0 0 512 512" xmlns="http://www.w3.org/2000/svg"><rect width="512" height="512" fill="#f8f0ff"/><g stroke="#543280" stroke-width="4" fill="none" stroke-linecap="round" stroke-linejoin="round"><path d="M140 320c-38-32-28-88 7-108 35-20 64-4 76 13 16 22 20 54-4 78-24 25-62 33-79 17z" fill="#f0c6ff" stroke-width="3"/><path d="M205 345c0 17-10 30-22 30-12 0-22-13-22-30" fill="#f0f" stroke-width="3"/><path d="M172 200c12-60 70-96 135-82" stroke-width="8"/><path d="M177 262c-28-6-37-44-21-67 16-23 49-24 74-16 12 4 19 14 18 24-2 11-13 18-29 19" stroke-width="5"/><path d="M242 310c15-18 26-45 28-69" stroke-width="6"/><path d="M269 290c34-26 52-68 65-111" stroke-width="6"/><path d="M200 280c16-15 4-52-12-62" stroke-width="5"/><path d="M310 218c20 18 40 34 60 14 20-20 18-56-22-72-40-16-74 18-80 35" stroke-width="5"/><path d="M318 178c12-34 42-56 72-52" stroke-width="5"/><path d="M378 130c22-2 40 14 48 34" stroke-width="5"/></g><g fill="none" stroke="#340c3c" stroke-width="4" stroke-linecap="round"><path d="M120 382c25 10 58 5 90-12"/><path d="M114 400c28 8 57 4 84-6"/><path d="M107 420c30 7 60 2 88-15"/></g><path d="M344 320c-2 28 18 54 46 58 28 4 52-14 54-42 0-1 0-3 0-4-6-21-28-32-50-26-12 3-23 10-32 20" fill="#d5b7ff" stroke="#622c7e" stroke-width="3" stroke-linecap="round" stroke-linejoin="round"/></svg>