<svg width="512" height="512" viewBox="0 0 512 512" xmlns="http://www.w3.org/2000/svg"><rect x="0" y="0" width="512" height="512" fill="#87CEEB"/><circle cx="420" cy="70" r="35" fill="#FFD700"/><rect x="0" y="360" width="512" height="152" fill="#228B22"/><rect x="60" y="290" width="20" height="90" fill="#8B4513"/><polygon points="40,290 70,210 100,290" fill="#006400"/><polygon points="45,250 70,180 95,250" fill="#004d00"/><rect x="140" y="310" width="25" height="70" fill="#8B4513"/><circle cx="152" cy="290" r="35" fill="#228B22"/><rect x="250" y="260" width="30" height="120" fill="#8B4513"/><polygon points="210,300 265,140 320,300" fill="#004d00"/><polygon points="215,220 265,80 315,220" fill="#006400"/><rect x="380" y="300" width="22" height="80" fill="#8B4513"/><circle cx="391" cy="270" r="40" fill="#32CD32"/><rect x="460" y="330" width="15" height="50" fill="#8B4513"/><polygon points="445,330 467,270 490,330" fill="#006400"/></svg>