<svg xmlns="http://www.w3.org/2000/svg" width="512" height="512" viewBox="0 0 512 512"><rect width="512" height="512" fill="#87CEEB"/><g transform="translate(0, 40)"><path d="M 256 80 L 400 150 L 256 220 L 112 150 Z" fill="#5D8C47"/><rect x="200" y="130" width="20" height="20" fill="#6B8E23" opacity="0.5"/><rect x="280" y="170" width="20" height="20" fill="#6B8E23" opacity="0.5"/><rect x="240" y="140" width="20" height="20" fill="#8B7355" opacity="0.6"/><path d="M 112 150 L 256 220 L 256 420 L 112 350 Z" fill="#8B5A2B"/><path d="M 112 150 L 256 220 L 256 240 L 112 170 Z" fill="#5D8C47"/><rect x="140" y="260" width="20" height="20" fill="#654321" opacity="0.6"/><rect x="180" y="320" width="20" height="20" fill="#654321" opacity="0.6"/><rect x="220" y="280" width="20" height="20" fill="#654321" opacity="0.6"/><path d="M 256 220 L 400 150 L 400 350 L 256 420 Z" fill="#6F4E34"/><path d="M 256 220 L 400 150 L 400 170 L 256 240 Z" fill="#4A7C29"/><rect x="300" y="260" width="20" height="20" fill="#5C4033" opacity="0.6"/><rect x="340" y="320" width="20" height="20" fill="#5C4033" opacity="0.6"/><rect x="280" y="360" width="20" height="20" fill="#5C4033" opacity="0.6"/></g></svg>