<svg width="512" height="512" viewBox="0 0 512 512" xmlns="http://www.w3.org/2000/svg">
  <rect width="512" height="512" fill="#f5f5f5"/>
  <circle cx="246" cy="256" r="75" fill="none" stroke="#ef9a9a" stroke-width="3" opacity="0.5"/>
  <circle cx="266" cy="256" r="75" fill="none" stroke="#ef9a9a" stroke-width="3" opacity="0.5"/>
  <circle cx="256" cy="256" r="75" fill="#ffebee" stroke="#d32f2f" stroke-width="4"/>
  <circle cx="236" cy="246" r="7" fill="#37474f"/>
  <circle cx="276" cy="246" r="7" fill="#37474f"/>
  <path d="M 230 285 Q 243 275 256 285 Q 269 275 282 285" fill="none" stroke="#37474f" stroke-width="3" stroke-linecap="round"/>
  <path d="M 340 190 Q 355 160 370 190 Q 355 220 340 190" fill="#81d4fa" stroke="#0288d1" stroke-width="2"/>
  <path d="M 380 230 Q 392 210 404 230 Q 392 250 380 230" fill="#81d4fa" stroke="#0288d1" stroke-width="2"/>
  <polyline points="150,256 170,236 190,256 210,236" fill="none" stroke="#ff5722" stroke-width="4" stroke-linecap="round" stroke-linejoin="round"/>
  <polyline points="302,256 322,236 342,256 362,236" fill="none" stroke="#ff5722" stroke-width="4" stroke-linecap="round" stroke-linejoin="round"/>
  <polyline points="200,150 220,130 240,150 260,130 280,150" fill="none" stroke="#ff5722" stroke-width="4" stroke-linecap="round" stroke-linejoin="round"/>
</svg>