<svg xmlns="http://www.w3.org/2000/svg" viewBox="0 0 512 512" width="512" height="512"><defs><linearGradient id="sky" x1="0" y1="0" x2="0" y2="1"><stop offset="0%" stop-color="#FF9A9E"/><stop offset="100%" stop-color="#FECFEF"/></linearGradient></defs><rect width="512" height="512" fill="url(#sky)"/><circle cx="380" cy="120" r="50" fill="#FF6B6B"/><polygon points="256,60 264,100 248,100" fill="#E74C3C"/><rect x="248" y="100" width="16" height="30" fill="#FFFFFF"/><polygon points="248,130 264,130 270,200 242,200" fill="#E74C3C"/><rect x="242" y="200" width="28" height="40" fill="#FFFFFF"/><polygon points="242,240 270,240 280,350 232,350" fill="#E74C3C"/><rect x="240" y="190" width="32" height="8" fill="#C0392B" rx="2"/><rect x="235" y="240" width="42" height="12" fill="#C0392B" rx="2"/><line x1="248" y1="130" x2="264" y2="200" stroke="#C0392B" stroke-width="2"/><line x1="264" y1="130" x2="248" y2="200" stroke="#C0392B" stroke-width="2"/><line x1="242" y1="240" x2="270" y2="350" stroke="#C0392B" stroke-width="2"/><line x1="270" y1="240" x2="242" y2="350" stroke="#C0392B" stroke-width="2"/><rect x="220" y="350" width="72" height="10" fill="#C0392B"/><line x1="220" y1="350" x2="200" y2="420" stroke="#E74C3C" stroke-width="6"/><line x1="292" y1="350" x2="312" y2="420" stroke="#E74C3C" stroke-width="6"/><line x1="246" y1="350" x2="236" y2="420" stroke="#E74C3C" stroke-width="4"/><line x1="266" y1="350" x2="276" y2="420" stroke="#E74C3C" stroke-width="4"/><rect x="40" y="400" width="50" height="60" fill="#2C3E50"/><rect x="100" y="380" width="40" height="80" fill="#34495E"/><rect x="150" y="410" width="60" height="50" fill="#2C3E50"/><rect x="302" y="410" width="60" height="50" fill="#2C3E50"/><rect x="372" y="390" width="50" height="70" fill="#34495E"/><rect x="432" y="405" width="40" height="55" fill="#2C3E50"/><rect x="0" y="460" width="512" height="52" fill="#1A252F"/></svg>