<svg width="512" height="512" viewBox="0 0 512 512" xmlns="http://www.w3.org/2000/svg"><circle cx="256" cy="256" r="150" fill="#FFD700" stroke="#B8860B" stroke-width="12"/><circle cx="256" cy="256" r="144" fill="#FFFACD"/><g fill="#FFE135"><path d="M256,256 L256,112 A144,144 0 0,1 358,154 Z"/><path d="M256,256 L358,154 A144,144 0 0,1 400,256 Z"/><path d="M256,256 L400,256 A144,144 0 0,1 358,358 Z"/><path d="M256,256 L358,358 A144,144 0 0,1 256,400 Z"/><path d="M256,256 L256,400 A144,144 0 0,1 154,358 Z"/><path d="M256,256 L154,358 A144,144 0 0,1 112,256 Z"/><path d="M256,256 L112,256 A144,144 0 0,1 154,154 Z"/><path d="M256,256 L154,154 A144,144 0 0,1 256,112 Z"/></g><g stroke="#FFFACD" stroke-width="8" stroke-linecap="round"><line x1="256" y1="256" x2="256" y2="112"/><line x1="256" y1="256" x2="358" y2="154"/><line x1="256" y1="256" x2="400" y2="256"/><line x1="256" y1="256" x2="358" y2="358"/><line x1="256" y1="256" x2="256" y2="400"/><line x1="256" y1="256" x2="154" y2="358"/><line x1="256" y1="256" x2="112" y2="256"/><line x1="256" y1="256" x2="154" y2="154"/></g><g fill="#8B4513"><ellipse cx="280" cy="180" rx="8" ry="12" transform="rotate(45 280 180)"/><ellipse cx="330" cy="220" rx="8" ry="12"/><ellipse cx="320" cy="300" rx="8" ry="12" transform="rotate(-45 320 300)"/><ellipse cx="220" cy="320" rx="8" ry="12" transform="rotate(45 220 320)"/><ellipse cx="180" cy="256" rx="8" ry="12" transform="rotate(90 180 256)"/></g></svg>