<svg xmlns="http://www.w3.org/2000/svg" viewBox="0 0 512 512"><rect fill="#f0f0f0" width="512" height="512"/><path d="M40,80 Q120,300 200,100 T350,250 T480,150" stroke="#e74c3c" stroke-width="4" fill="none"/><path d="M450,400 Q300,350 400,200 T150,450 T50,300" stroke="#3498db" stroke-width="5" fill="none"/><circle cx="120" cy="150" r="35" fill="#f39c12" opacity="0.8"/><circle cx="400" cy="120" r="50" fill="#9b59b6" opacity="0.6"/><circle cx="300" cy="400" r="25" fill="#e74c3c" opacity="0.9"/><circle cx="80" cy="350" r="45" fill="#2ecc71" opacity="0.7" transform="rotate(20 80 350)"/><rect x="250" y="180" width="60" height="80" fill="#1abc9c" transform="rotate(45 280 220)" opacity="0.8"/><rect x="150" y="320" width="40" height="100" fill="#e67e22" transform="rotate(-30 170 370)" opacity="0.7"/><polygon points="350,350 380,420 320,400" fill="#34495e" opacity="0.8"/><polygon points="80,200 120,180 110,240" fill="#f1c40f" opacity="0.9"/><path d="M200,50 L220,120 L180,100 Z" fill="#c0392b" opacity="0.8"/><line x1="50" y1="450" x2="200" y2="380" stroke="#16a085" stroke-width="6" stroke-linecap="round"/><line x1="350" y1="50" x2="300" y2="150" stroke="#d35400" stroke-width="5" stroke-linecap="round"/><line x1="450" y1="300" x2="380" y2="480" stroke="#8e44ad" stroke-width="4" stroke-linecap="round"/><path d="M150,150 Q180,200 130,220 T180,280" stroke="#c0392b" stroke-width="3" fill="none"/><path d="M380,350 Q420,300 450,350 T480,300" stroke="#27ae60" stroke-width="3" fill="none"/><circle cx="450" cy="80" r="15" fill="#f39c12"/><circle cx="50" cy="250" r="20" fill="#2980b9"/><rect x="420" y="420" width="50" height="50" fill="#e74c3c" transform="rotate(15 445 445)"/><polygon points="200,450 230,480 170,490" fill="#8e44ad" opacity="0.7"/><path d="M300,300 L340,260 L360,310 L320,340 Z" fill="#d35400" opacity="0.6"/></svg>