<svg width="512" height="512" xmlns="http://www.w3.org/2000/svg"><rect width="512" height="512" fill="#87CEEB"/><rect y="400" width="512" height="112" fill="#D2691E"/><g transform="translate(256,300)"><path d="M-60,150 Q-50,50 -70,-50" stroke="#DAA520" stroke-width="6" fill="none"/><path d="M-30,150 Q-20,40 -30,-80" stroke="#DAA520" stroke-width="6" fill="none"/><path d="M0,150 Q0,30 0,-100" stroke="#DAA520" stroke-width="6" fill="none"/><path d="M30,150 Q20,40 30,-80" stroke="#DAA520" stroke-width="6" fill="none"/><path d="M60,150 Q50,50 70,-50" stroke="#DAA520" stroke-width="6" fill="none"/><ellipse cx="-70" cy="-50" rx="14" ry="35" fill="#F1C40F"/><ellipse cx="-30" cy="-80" rx="16" ry="45" fill="#F4D03F"/><ellipse cx="0" cy="-100" rx="18" ry="50" fill="#F1C40F"/><ellipse cx="30" cy="-80" rx="16" ry="45" fill="#F4D03F"/><ellipse cx="70" cy="-50" rx="14" ry="35" fill="#F1C40F"/><line x1="-80" y1="-70" x2="-60" y2="-70" stroke="#DAA520" stroke-width="3"/><line x1="-82" y1="-50" x2="-58" y2="-50" stroke="#DAA520" stroke-width="3"/><line x1="-80" y1="-30" x2="-60" y2="-30" stroke="#DAA520" stroke-width="3"/><line x1="-40" y1="-100" x2="-20" y2="-100" stroke="#DAA520" stroke-width="3"/><line x1="-42" y1="-80" x2="-18" y2="-80" stroke="#DAA520" stroke-width="3"/><line x1="-42" y1="-60" x2="-18" y2="-60" stroke="#DAA520" stroke-width="3"/><line x1="-40" y1="-40" x2="-20" y2="-40" stroke="#DAA520" stroke-width="3"/><line x1="-10" y1="-120" x2="10" y2="-120" stroke="#DAA520" stroke-width="3"/><line x1="-14" y1="-100" x2="14" y2="-100" stroke="#DAA520" stroke-width="3"/><line x1="-14" y1="-80" x2="14" y2="-80" stroke="#DAA520" stroke-width="3"/><line x1="-14" y1="-60" x2="14" y2="-60" stroke="#DAA520" stroke-width="3"/><line x1="-10" y1="-40" x2="10" y2="-40" stroke="#DAA520" stroke-width="3"/><line x1="20" y1="-100" x2="40" y2="-100" stroke="#DAA520" stroke-width="3"/><line x1="18" y1="-80" x2="42" y2="-80" stroke="#DAA520" stroke-width="3"/><line x1="18" y1="-60" x2="42" y2="-60" stroke="#DAA520" stroke-width="3"/><line x1="20" y1="-40" x2="40" y2="-40" stroke="#DAA520" stroke-width="3"/><line x1="60" y1="-70" x2="80" y2="-70" stroke="#DAA520" stroke-width="3"/><line x1="58" y1="-50" x2="82" y2="-50" stroke="#DAA520" stroke-width="3"/><line x1="60" y1="-30" x2="80" y2="-30" stroke="#DAA520" stroke-width="3"/><path d="M-80,20 Q0,40 80,20" stroke="#C0392B" stroke-width="15" fill="none"/><path d="M-80,20 Q0,40 80,20" stroke="#E74C3C" stroke-width="10" fill="none"/><circle cx="0" cy="30" r="10" fill="#96281B"/></g><ellipse cx="180" cy="420" rx="15" ry="8" fill="#F1C40F" transform="rotate(-20,180,420)"/><ellipse cx="340" cy="430" rx="15" ry="8" fill="#F1C40F" transform="rotate(20,340,430)"/></svg>