<svg xmlns="http://www.w3.org/2000/svg" viewBox="0 0 512 512" width="512" height="512"><rect width="512" height="512" fill="#0f172a"/><polygon points="256,160 296,240 246,240 286,320 216,400 266,320 226,240 276,240" fill="#facc15" stroke="#fef08a" stroke-width="6" stroke-linejoin="round"/><path d="M 140 180 Q 140 120 200 120 Q 240 80 320 80 Q 380 80 400 130 Q 450 130 430 190 Q 440 220 400 220 L 160 220 Q 120 220 140 180 Z" fill="#64748b"/><line x1="180" y1="240" x2="160" y2="300" stroke="#60a5fa" stroke-width="4" opacity="0.7"/><line x1="256" y1="240" x2="236" y2="300" stroke="#60a5fa" stroke-width="4" opacity="0.7"/><line x1="332" y1="240" x2="312" y2="300" stroke="#60a5fa" stroke-width="4" opacity="0.7"/></svg>