<svg width="512" height="512" xmlns="http://www.w3.org/2000/svg">
  <rect width="512" height="512" fill="white"/>
  
  <!-- Left person (speaker) -->
  <circle cx="170" cy="256" r="60" fill="none" stroke="black" stroke-width="4"/>
  <path d="M 130 300 Q 170 280 210 300" fill="none" stroke="black" stroke-width="4" stroke-linecap="round"/>
  
  <!-- Hand cupped at mouth -->
  <path d="M 210 260 Q 230 250 240 270" fill="none" stroke="black" stroke-width="4" stroke-linecap="round"/>
  <path d="M 235 265 Q 240 275 230 280" fill="none" stroke="black" stroke-width="4" stroke-linecap="round"/>
  
  <!-- Whisper sound waves (dashed lines) -->
  <path d="M 250 260 Q 280 240 310 260" fill="none" stroke="black" stroke-width="3" stroke-dasharray="6,4" stroke-linecap="round"/>
  <path d="M 250 275 Q 280 255 310 275" fill="none" stroke="black" stroke-width="3" stroke-dasharray="6,4" stroke-linecap="round"/>
  <path d="M 250 290 Q 280 270 310 290" fill="none" stroke="black" stroke-width="3" stroke-dasharray="6,4" stroke-linecap="round"/>
  
  <!-- Right person (listener) -->
  <circle cx="370" cy="256" r="60" fill="none" stroke="black" stroke-width="4"/>
  <path d="M 330 300 Q 370 280 410 300" fill="none" stroke="black" stroke-width="4" stroke-linecap="round"/>
  
  <!-- Ear facing the whisper -->
  <path d="M 320 256 Q 310 256 310 266 Q 310 276 320 276" fill="none" stroke="black" stroke-width="4" stroke-linecap="round"/>
</svg>