<svg viewBox="0 0 512 512" xmlns="http://www.w3.org/2000/svg"><defs><style>.flower-petal { fill: #FF69B4; } .flower-center { fill: #FFD700; } .stem { stroke: #228B22; stroke-width: 3; fill: none; } .leaf { fill: #32CD32; } .butterfly-wing { fill: #FF1493; } .butterfly-body { fill: #333; }</style></defs><g id="flower"><circle cx="256" cy="200" r="15" class="flower-center"/><circle cx="256" cy="160" r="20" class="flower-petal"/><circle cx="296" cy="175" r="20" class="flower-petal"/><circle cx="306" cy="215" r="20" class="flower-petal"/><circle cx="276" cy="250" r="20" class="flower-petal"/><circle cx="236" cy="250" r="20" class="flower-petal"/><circle cx="206" cy="215" r="20" class="flower-petal"/><circle cx="216" cy="175" r="20" class="flower-petal"/></g><path d="M 256 220 Q 250 280 240 350" class="stem"/><path d="M 256 220 Q 262 280 270 350" class="stem"/><ellipse cx="230" cy="280" rx="15" ry="25" class="leaf" transform="rotate(-30 230 280)"/><ellipse cx="280" cy="300" rx="15" ry="25" class="leaf" transform="rotate(30 280 300)"/><g id="butterfly"><ellipse cx="120" cy="120" rx="8" ry="12" class="butterfly-body"/><circle cx="120" cy="105" r="5" class="butterfly-body"/><ellipse cx="95" cy="110" rx="25" ry="35" class="butterfly-wing" transform="rotate(-25 95 110)"/><ellipse cx="145" cy="110" rx="25" ry="35" class="butterfly-wing" transform="rotate(25 145 110)"/><path d="M 120 105 L 115 90" stroke="#333" stroke-width="1" fill="none"/><path d="M 120 105 L 125 90" stroke="#333" stroke-width="1" fill="none"/></g><g id="sun"><circle cx="420" cy="80" r="35" fill="#FFD700"/><line x1="420" y1="30" x2="420" y2="10" stroke="#FFD700" stroke-width="4"/><line x1="420" y1="150" x2="420" y2="130" stroke="#FFD700" stroke-width="4"/><line x1="470" y1="80" x2="490" y2="80" stroke="#FFD700" stroke-width="4"/><line x1="370" y1="80" x2="350" y2="80" stroke="#FFD700" stroke-width="4"/><line x1="460" y1="40" x2="475" y2="25" stroke="#FFD700" stroke-width="4"/><line x1="380" y1="120" x2="365" y2="135" stroke="#FFD700" stroke-width="4"/><line x1="460" y1="120" x2="475" y2="135" stroke="#FFD700" stroke-width="4"/><line x1="380" y1="40" x2="365" y2="25" stroke="#FFD700" stroke-width="4"/></g></svg>