<svg viewBox="0 0 512 512" xmlns="http://www.w3.org/2000/svg"><defs><style>.metal{fill:#888;stroke:#333;stroke-width:2}.wheel{fill:#333;stroke:#000;stroke-width:2}.blade{fill:#666;stroke:#222;stroke-width:2}.cabin{fill:#FFD700;stroke:#333;stroke-width:2}</style></defs><rect width="512" height="512" fill="#E8F4F8"/><g id="bulldozer"><ellipse cx="120" cy="380" rx="50" ry="25" class="wheel"/><ellipse cx="380" cy="380" rx="50" ry="25" class="wheel"/><circle cx="120" cy="380" r="35" class="wheel" opacity="0.3"/><circle cx="380" cy="380" r="35" class="wheel" opacity="0.3"/><rect x="80" y="320" width="340" height="70" class="metal" rx="5"/><rect x="100" y="280" width="300" height="50" class="metal" rx="3"/><polygon points="150,280 200,200 310,200 360,280" class="cabin"/><rect x="170" y="220" width="40" height="35" fill="#87CEEB" stroke="#333" stroke-width="1"/><rect x="290" y="220" width="40" height="35" fill="#87CEEB" stroke="#333" stroke-width="1"/><polygon points="80,320 60,300 100,280 120,310" class="blade"/><polygon points="432,320 452,300 412,280 392,310" class="blade"/><rect x="90" y="310" width="320" height="25" class="blade" opacity="0.8"/><rect x="85" y="305" width="330" height="8" fill="#444" stroke="#222" stroke-width="1"/><circle cx="120" cy="380" r="8" fill="#FFD700" opacity="0.6"/><circle cx="380" cy="380" r="8" fill="#FFD700" opacity="0.6"/><rect x="200" y="160" width="100" height="50" class="cabin" rx="3"/><polygon points="200,160 180,140 220,120 260,130 280,160" fill="#DAA520" stroke="#333" stroke-width="2"/></g></svg>