<svg viewBox="0 0 512 512" xmlns="http://www.w3.org/2000/svg"><defs><style>body { background-color: white; }</style></defs><rect width="512" height="512" fill="white"/><circle cx="100" cy="80" r="20" fill="#FF6B6B" opacity="0.8"/><circle cx="420" cy="150" r="25" fill="#4ECDC4" opacity="0.7"/><rect x="200" y="100" width="80" height="40" fill="#FFE66D" opacity="0.75" transform="rotate(35 240 120)"/><polygon points="80,300 120,250 150,320 110,350" fill="#95E1D3" opacity="0.8"/><circle cx="350" cy="280" r="30" fill="#F38181" opacity="0.7"/><path d="M 50 400 Q 100 350 150 400 T 250 400" stroke="#AA96DA" stroke-width="4" fill="none" opacity="0.8"/><rect x="300" y="350" width="60" height="60" fill="#FCBAD3" opacity="0.7" transform="rotate(-45 330 380)"/><circle cx="200" cy="200" r="15" fill="#A8E6CF" opacity="0.9"/><line x1="50" y1="150" x2="200" y2="250" stroke="#FF8B94" stroke-width="3" opacity="0.7"/><line x1="400" y1="100" x2="300" y2="300" stroke="#FFD3B6" stroke-width="3" opacity="0.7"/><circle cx="420" cy="420" r="22" fill="#FFAAA5" opacity="0.8"/><path d="M 150 50 L 200 150 L 100 120 Z" fill="#FF6B9D" opacity="0.75"/><rect x="280" y="150" width="50" height="50" fill="#C7CEEA" opacity="0.7" transform="rotate(25 305 175)"/><circle cx="100" cy="450" r="18" fill="#B5EAD7" opacity="0.8"/><line x1="250" y1="50" x2="350" y2="200" stroke="#E0BBE4" stroke-width="3" opacity="0.7"/><polygon points="350,50 380,100 320,110" fill="#FFDFD3" opacity="0.8"/><circle cx="280" cy="420" r="20" fill="#957DAD" opacity="0.7"/></svg>