<svg viewBox="0 0 512 512" xmlns="http://www.w3.org/2000/svg"><rect width="512" height="512" fill="white"/><circle cx="256" cy="256" r="200" fill="none" stroke="#333" stroke-width="3"/><circle cx="180" cy="200" r="30" fill="#4CAF50"/><circle cx="256" cy="150" r="30" fill="#2196F3"/><circle cx="332" cy="200" r="30" fill="#FF9800"/><circle cx="220" cy="310" r="30" fill="#9C27B0"/><circle cx="292" cy="310" r="30" fill="#F44336"/><line x1="180" y1="230" x2="256" y2="280" stroke="#666" stroke-width="2"/><line x1="256" y1="180" x2="256" y2="280" stroke="#666" stroke-width="2"/><line x1="332" y1="230" x2="256" y2="280" stroke="#666" stroke-width="2"/><line x1="220" y1="280" x2="256" y2="280" stroke="#666" stroke-width="2"/><line x1="292" y1="280" x2="256" y2="280" stroke="#666" stroke-width="2"/><circle cx="256" cy="280" r="12" fill="#333"/><path d="M 256 380 L 200 420 L 220 360 L 160 360 L 210 320 L 190 260" fill="none" stroke="#333" stroke-width="2"/><path d="M 256 380 L 312 420 L 292 360 L 352 360 L 302 320 L 322 260" fill="none" stroke="#333" stroke-width="2"/></svg>