<svg viewBox="0 0 512 512" xmlns="http://www.w3.org/2000/svg"><rect width="512" height="512" fill="#ffffff"/><circle cx="256" cy="256" r="120" fill="#f4a460" stroke="#8b4513" stroke-width="3"/><ellipse cx="256" cy="280" rx="80" ry="60" fill="#d2691e" stroke="#8b4513" stroke-width="2"/><path d="M 200 240 Q 180 220 160 240" stroke="#8b4513" stroke-width="3" fill="none" stroke-linecap="round"/><path d="M 312 240 Q 332 220 352 240" stroke="#8b4513" stroke-width="3" fill="none" stroke-linecap="round"/><path d="M 256 320 Q 240 340 230 360" stroke="#8b4513" stroke-width="3" fill="none" stroke-linecap="round"/><path d="M 256 320 Q 272 340 282 360" stroke="#8b4513" stroke-width="3" fill="none" stroke-linecap="round"/><circle cx="220" cy="260" r="8" fill="#000000"/><circle cx="292" cy="260" r="8" fill="#000000"/><path d="M 240 300 Q 256 310 272 300" stroke="#8b4513" stroke-width="2" fill="none" stroke-linecap="round"/><rect x="100" y="380" width="312" height="60" rx="10" fill="#d2b48c" stroke="#8b4513" stroke-width="2"/><line x1="140" y1="380" x2="140" y2="440" stroke="#8b4513" stroke-width="2"/><line x1="200" y1="380" x2="200" y2="440" stroke="#8b4513" stroke-width="2"/><line x1="260" y1="380" x2="260" y2="440" stroke="#8b4513" stroke-width="2"/><line x1="320" y1="380" x2="320" y2="440" stroke="#8b4513" stroke-width="2"/><line x1="380" y1="380" x2="380" y2="440" stroke="#8b4513" stroke-width="2"/></svg>