<svg viewBox="0 0 512 512" xmlns="http://www.w3.org/2000/svg"><rect width="512" height="512" fill="#ffffff"/><g stroke="#000000" stroke-width="3" fill="none"><line x1="80" y1="400" x2="432" y2="400"/><rect x="100" y="200" width="80" height="120" fill="#e8f4f8" stroke="#000000" stroke-width="2"/><circle cx="140" cy="280" r="8" fill="#ff6b6b"/><rect x="216" y="180" width="80" height="140" fill="#e8f4f8" stroke="#000000" stroke-width="2"/><circle cx="256" cy="270" r="8" fill="#ff6b6b"/><polygon points="332,320 372,320 352,200" fill="#e8f4f8" stroke="#000000" stroke-width="2"/><circle cx="352" cy="280" r="8" fill="#ff6b6b"/><line x1="140" y1="200" x2="140" y2="150"/><line x1="256" y1="180" x2="256" y2="100"/><line x1="352" y1="200" x2="352" y2="140"/><circle cx="140" cy="140" r="15" fill="none" stroke="#000000" stroke-width="2"/><circle cx="256" cy="90" r="15" fill="none" stroke="#000000" stroke-width="2"/><circle cx="352" cy="130" r="15" fill="none" stroke="#000000" stroke-width="2"/><line x1="100" y1="320" x2="60" y2="360"/><line x1="180" y1="320" x2="220" y2="360"/><line x1="216" y1="320" x2="180" y2="360"/><line x1="296" y1="320" x2="330" y2="360"/><line x1="332" y1="320" x2="300" y2="360"/><line x1="412" y1="320" x2="450" y2="360"/></g></svg>