<svg viewBox="0 0 512 512" xmlns="http://www.w3.org/2000/svg"><defs><style>body { background-color: white; }</style></defs><rect width="512" height="512" fill="white"/><g transform="translate(256, 256)"><path d="M -80 -60 L -40 -100 L 0 -80 L 40 -100 L 80 -60 L 60 0 L 80 40 L 40 60 L 0 40 L -40 60 L -80 40 L -60 0 Z" fill="#4A90E2" stroke="#2C5AA0" stroke-width="2"/><circle cx="-20" cy="-30" r="8" fill="#FFD700"/><circle cx="20" cy="-30" r="8" fill="#FFD700"/><path d="M -15 -10 L 15 -10" stroke="#2C5AA0" stroke-width="2" fill="none"/><path d="M -10 5 L 10 5" stroke="#2C5AA0" stroke-width="2" fill="none"/><path d="M -60 20 L -100 10" stroke="#E74C3C" stroke-width="3" stroke-linecap="round"/><path d="M -60 30 L -110 50" stroke="#E74C3C" stroke-width="3" stroke-linecap="round"/><path d="M 60 20 L 100 10" stroke="#E74C3C" stroke-width="3" stroke-linecap="round"/><path d="M 60 30 L 110 50" stroke="#E74C3C" stroke-width="3" stroke-linecap="round"/><path d="M -40 60 L -50 110" stroke="#2C5AA0" stroke-width="3" stroke-linecap="round"/><path d="M 40 60 L 50 110" stroke="#2C5AA0" stroke-width="3" stroke-linecap="round"/><circle cx="-50" cy="120" r="12" fill="#FFB6C1" stroke="#2C5AA0" stroke-width="2"/><circle cx="50" cy="120" r="12" fill="#FFB6C1" stroke="#2C5AA0" stroke-width="2"/></g></svg>