<svg viewBox="0 0 512 512" xmlns="http://www.w3.org/2000/svg"><rect width="512" height="512" fill="#ffffff"/><g transform="translate(256, 256)"><circle cx="0" cy="0" r="150" fill="none" stroke="#2c3e50" stroke-width="3"/><path d="M -80 -80 L 80 80 M 80 -80 L -80 80" stroke="#e74c3c" stroke-width="3" fill="none"/><path d="M 0 -120 L 0 120 M -120 0 L 120 0" stroke="#3498db" stroke-width="2" fill="none" stroke-dasharray="5,5"/><circle cx="-60" cy="-60" r="15" fill="#f39c12"/><circle cx="60" cy="-60" r="15" fill="#f39c12"/><circle cx="-60" cy="60" r="15" fill="#f39c12"/><circle cx="60" cy="60" r="15" fill="#f39c12"/><path d="M -100 0 Q -140 -40 -140 -80" stroke="#27ae60" stroke-width="3" fill="none" stroke-linecap="round"/><path d="M 100 0 Q 140 -40 140 -80" stroke="#27ae60" stroke-width="3" fill="none" stroke-linecap="round"/><path d="M -100 0 Q -140 40 -140 80" stroke="#27ae60" stroke-width="3" fill="none" stroke-linecap="round"/><path d="M 100 0 Q 140 40 140 80" stroke="#27ae60" stroke-width="3" fill="none" stroke-linecap="round"/><polygon points="0,-150 15,-120 -15,-120" fill="#e74c3c"/></g></svg>