<svg viewBox="0 0 512 512" xmlns="http://www.w3.org/2000/svg"><defs><style>.gorilla-body { fill: #2a2a2a; } .gorilla-skin { fill: #3a3a3a; } .gorilla-dark { fill: #1a1a1a; }</style></defs><ellipse cx="256" cy="320" rx="90" ry="110" class="gorilla-body"/><circle cx="256" cy="180" r="70" class="gorilla-body"/><circle cx="220" cy="160" r="25" class="gorilla-skin"/><circle cx="292" cy="160" r="25" class="gorilla-skin"/><circle cx="215" cy="155" r="12" fill="#ffffff"/><circle cx="287" cy="155" r="12" fill="#ffffff"/><circle cx="215" cy="155" r="8" fill="#000000"/><circle cx="287" cy="155" r="8" fill="#000000"/><ellipse cx="256" cy="190" rx="15" ry="20" class="gorilla-skin"/><path d="M 240 210 Q 235 220 240 230" stroke="#1a1a1a" stroke-width="3" fill="none" stroke-linecap="round"/><path d="M 272 210 Q 277 220 272 230" stroke="#1a1a1a" stroke-width="3" fill="none" stroke-linecap="round"/><ellipse cx="180" cy="280" rx="45" ry="80" class="gorilla-body" transform="rotate(-25 180 280)"/><ellipse cx="332" cy="280" rx="45" ry="80" class="gorilla-body" transform="rotate(25 332 280)"/><ellipse cx="160" cy="360" rx="35" ry="50" class="gorilla-dark" transform="rotate(-30 160 360)"/><ellipse cx="352" cy="360" rx="35" ry="50" class="gorilla-dark" transform="rotate(30 352 360)"/><ellipse cx="220" cy="400" rx="40" ry="60" class="gorilla-dark"/><ellipse cx="292" cy="400" rx="40" ry="60" class="gorilla-dark"/><ellipse cx="256" cy="420" rx="50" ry="35" class="gorilla-dark"/><circle cx="200" cy="320" r="20" class="gorilla-skin"/><circle cx="312" cy="320" r="20" class="gorilla-skin"/></svg>