<svg viewBox="0 0 512 512" xmlns="http://www.w3.org/2000/svg"><defs><linearGradient id="grad1" x1="0%" y1="0%" x2="100%" y2="100%"><stop offset="0%" style="stop-color:#00ffff;stop-opacity:1" /><stop offset="100%" style="stop-color:#ff00ff;stop-opacity:1" /></linearGradient><filter id="glow"><feGaussianBlur stdDeviation="3" result="coloredBlur"/><feMerge><feMergeNode in="coloredBlur"/><feMergeNode in="SourceGraphic"/></feMerge></filter></defs><rect width="512" height="512" fill="#0a0a1a"/><circle cx="256" cy="256" r="120" fill="none" stroke="url(#grad1)" stroke-width="2" opacity="0.6" filter="url(#glow)"/><circle cx="256" cy="256" r="100" fill="none" stroke="#00ffff" stroke-width="1.5" opacity="0.4" filter="url(#glow)"/><circle cx="256" cy="256" r="80" fill="none" stroke="#ff00ff" stroke-width="1.5" opacity="0.4" filter="url(#glow)"/><polygon points="256,150 310,200 310,310 256,360 202,310 202,200" fill="none" stroke="url(#grad1)" stroke-width="2" opacity="0.7" filter="url(#glow)"/><line x1="256" y1="150" x2="256" y2="360" stroke="#00ffff" stroke-width="1" opacity="0.5" filter="url(#glow)"/><line x1="202" y1="200" x2="310" y2="310" stroke="#ff00ff" stroke-width="1" opacity="0.5" filter="url(#glow)"/><line x1="310" y1="200" x2="202" y2="310" stroke="#00ffff" stroke-width="1" opacity="0.5" filter="url(#glow)"/><circle cx="256" cy="256" r="30" fill="none" stroke="url(#grad1)" stroke-width="2" opacity="0.8" filter="url(#glow)"/><circle cx="256" cy="256" r="15" fill="#ff00ff" opacity="0.6" filter="url(#glow)"/><path d="M 200 256 Q 180 220 200 180" fill="none" stroke="#00ffff" stroke-width="1.5" opacity="0.6" filter="url(#glow)"/><path d="M 312 256 Q 332 220 312 180" fill="none" stroke="#ff00ff" stroke-width="1.5" opacity="0.6" filter="url(#glow)"/><path d="M 256 200 Q 290 180 320 200" fill="none" stroke="#00ffff" stroke-width="1.5" opacity="0.6" filter="url(#glow)"/><path d="M 256 312 Q 290 332 320 312" fill="none" stroke="#ff00ff" stroke-width="1.5" opacity="0.6" filter="url(#glow)"/></svg>