<svg viewBox="0 0 512 512" xmlns="http://www.w3.org/2000/svg"><defs><radialGradient id="glow" cx="50%" cy="50%" r="50%"><stop offset="0%" style="stop-color:#ffff00;stop-opacity:1" /><stop offset="100%" style="stop-color:#ff8800;stop-opacity:0" /></radialGradient></defs><circle cx="256" cy="256" r="120" fill="url(#glow)" /><circle cx="256" cy="256" r="100" fill="#ffff00" opacity="0.8" /><circle cx="256" cy="256" r="80" fill="#ffff00" /><circle cx="256" cy="256" r="60" fill="#ffffff" /><path d="M 256 100 L 280 180 L 365 180 L 305 230 L 330 310 L 256 260 L 182 310 L 207 230 L 147 180 L 232 180 Z" fill="#ffff00" /><circle cx="200" cy="150" r="15" fill="#ffff00" opacity="0.6" /><circle cx="312" cy="140" r="12" fill="#ffff00" opacity="0.6" /><circle cx="150" cy="280" r="10" fill="#ffff00" opacity="0.6" /><circle cx="362" cy="290" r="10" fill="#ffff00" opacity="0.6" /><circle cx="256" cy="380" r="18" fill="#ffff00" opacity="0.7" /><line x1="256" y1="50" x2="256" y2="20" stroke="#ffff00" stroke-width="3" opacity="0.8" /><line x1="380" y1="130" x2="400" y2="110" stroke="#ffff00" stroke-width="3" opacity="0.8" /><line x1="132" y1="130" x2="112" y2="110" stroke="#ffff00" stroke-width="3" opacity="0.8" /><line x1="380" y1="380" x2="400" y2="400" stroke="#ffff00" stroke-width="3" opacity="0.8" /><line x1="132" y1="380" x2="112" y2="400" stroke="#ffff00" stroke-width="3" opacity="0.8" /></svg>