<svg viewBox="0 0 512 512" xmlns="http://www.w3.org/2000/svg"><rect width="512" height="512" fill="#ffffff"/><g stroke="#333333" stroke-width="2" fill="none"><rect x="80" y="120" width="120" height="100" rx="5"/><rect x="220" y="140" width="120" height="80" rx="5"/><rect x="360" y="100" width="120" height="120" rx="5"/><line x1="140" y1="220" x2="140" y2="280"/><line x1="280" y1="220" x2="280" y2="280"/><line x1="420" y1="220" x2="420" y2="280"/><circle cx="140" cy="320" r="25" fill="#4CAF50"/><circle cx="280" cy="320" r="25" fill="#8BC34A"/><circle cx="420" cy="320" r="25" fill="#CDDC39"/><path d="M 100 380 L 200 360 L 300 370 L 400 350 L 450 365" stroke="#2196F3" stroke-width="3" fill="none"/><circle cx="100" cy="380" r="4" fill="#2196F3"/><circle cx="200" cy="360" r="4" fill="#2196F3"/><circle cx="300" cy="370" r="4" fill="#2196F3"/><circle cx="400" cy="350" r="4" fill="#2196F3"/><circle cx="450" cy="365" r="4" fill="#2196F3"/><polygon points="450,365 460,355 455,375" fill="#2196F3"/></g></svg>