<svg viewBox="0 0 512 512" xmlns="http://www.w3.org/2000/svg"><defs><style>.spot { fill: #8B4513; } .body { fill: #F4A460; }</style></defs><ellipse cx="256" cy="280" rx="120" ry="140" class="body"/><circle cx="256" cy="140" r="80" class="body"/><ellipse cx="200" cy="120" rx="35" ry="45" class="body"/><ellipse cx="312" cy="120" rx="35" ry="45" class="body"/><ellipse cx="180" cy="320" rx="40" ry="80" class="body"/><ellipse cx="332" cy="320" rx="40" ry="80" class="body"/><ellipse cx="256" cy="400" rx="35" ry="70" class="body"/><circle cx="190" cy="160" r="8" fill="#000"/><circle cx="322" cy="160" r="8" fill="#000"/><circle cx="256" cy="180" r="6" fill="#000"/><circle cx="240" cy="200" r="5" fill="#000"/><circle cx="272" cy="200" r="5" fill="#000"/><circle cx="150" cy="240" r="12" class="spot"/><circle cx="200" cy="220" r="10" class="spot"/><circle cx="280" cy="230" r="11" class="spot"/><circle cx="340" cy="250" r="13" class="spot"/><circle cx="170" cy="300" r="9" class="spot"/><circle cx="220" cy="280" r="10" class="spot"/><circle cx="290" cy="290" r="11" class="spot"/><circle cx="340" cy="310" r="10" class="spot"/><circle cx="200" cy="360" r="8" class="spot"/><circle cx="310" cy="350" r="9" class="spot"/><circle cx="256" cy="380" r="7" class="spot"/><path d="M 256 180 L 250 195 L 256 190 L 262 195 Z" fill="#000"/></svg>