<svg viewBox="0 0 512 512" xmlns="http://www.w3.org/2000/svg"><defs><linearGradient id="waterGradient" x1="0%" y1="0%" x2="0%" y2="100%"><stop offset="0%" style="stop-color:#87CEEB;stop-opacity:1" /><stop offset="100%" style="stop-color:#1E90FF;stop-opacity:1" /></linearGradient></defs><rect width="512" height="512" fill="#E0F6FF"/><rect y="150" width="512" height="362" fill="url(#waterGradient)"/><path d="M 0 180 Q 64 160 128 180 T 256 180 T 384 180 T 512 180 L 512 220 Q 448 200 384 220 T 256 220 T 128 220 T 0 220 Z" fill="#4DB8FF" opacity="0.6"/><path d="M 0 260 Q 80 240 160 260 T 320 260 T 480 260 L 512 260 L 512 300 Q 432 280 352 300 T 192 300 T 32 300 L 0 300 Z" fill="#1E90FF" opacity="0.5"/><path d="M 0 340 Q 70 320 140 340 T 280 340 T 420 340 T 512 340 L 512 380 Q 442 360 372 380 T 232 380 T 92 380 L 0 380 Z" fill="#0066CC" opacity="0.4"/><circle cx="100" cy="80" r="35" fill="#FFD700" opacity="0.9"/><circle cx="100" cy="80" r="30" fill="#FFA500" opacity="0.7"/><path d="M 50 120 Q 60 110 70 120" stroke="#FFD700" stroke-width="3" fill="none" stroke-linecap="round"/><path d="M 130 120 Q 140 110 150 120" stroke="#FFD700" stroke-width="3" fill="none" stroke-linecap="round"/><path d="M 90 140 Q 100 130 110 140" stroke="#FFD700" stroke-width="3" fill="none" stroke-linecap="round"/></svg>