<svg viewBox="0 0 512 512" xmlns="http://www.w3.org/2000/svg"><defs><style>.parrot-body{fill:#2ecc71}.parrot-wing{fill:#27ae60}.parrot-head{fill:#e74c3c}.parrot-beak{fill:#f39c12}.parrot-eye{fill:#000}.parrot-tail{fill:#3498db}</style></defs><ellipse cx="256" cy="320" rx="80" ry="100" class="parrot-body"/><ellipse cx="220" cy="280" rx="60" ry="70" class="parrot-wing"/><ellipse cx="290" cy="280" rx="60" ry="70" class="parrot-wing"/><circle cx="256" cy="180" r="70" class="parrot-head"/><polygon points="320,180 380,170 320,190" class="parrot-beak"/><circle cx="275" cy="165" r="8" class="parrot-eye"/><circle cx="278" cy="163" r="3" fill="#fff"/><path d="M 200 350 Q 150 380 140 450 Q 135 480 160 490 Q 190 500 210 450 Q 220 400 200 350" class="parrot-tail"/><path d="M 240 350 Q 220 400 230 460 Q 235 490 260 495 Q 285 500 280 460 Q 275 400 240 350" class="parrot-tail"/><ellipse cx="256" cy="240" rx="45" ry="50" class="parrot-head" opacity="0.3"/><circle cx="256" cy="120" r="15" fill="#f1c40f"/></svg>