<svg viewBox="0 0 512 512" xmlns="http://www.w3.org/2000/svg"><rect width="512" height="512" fill="#f5f5f5"/><rect x="80" y="120" width="352" height="280" fill="#2c1810" stroke="#000" stroke-width="3" rx="8"/><rect x="90" y="130" width="332" height="260" fill="#1a0f0a" stroke="#333" stroke-width="2"/><g id="keys"><rect x="100" y="280" width="20" height="100" fill="#fff" stroke="#000" stroke-width="1"/><rect x="125" y="280" width="20" height="100" fill="#fff" stroke="#000" stroke-width="1"/><rect x="150" y="280" width="20" height="100" fill="#fff" stroke="#000" stroke-width="1"/><rect x="175" y="280" width="20" height="100" fill="#fff" stroke="#000" stroke-width="1"/><rect x="200" y="280" width="20" height="100" fill="#fff" stroke="#000" stroke-width="1"/><rect x="225" y="280" width="20" height="100" fill="#fff" stroke="#000" stroke-width="1"/><rect x="250" y="280" width="20" height="100" fill="#fff" stroke="#000" stroke-width="1"/><rect x="275" y="280" width="20" height="100" fill="#fff" stroke="#000" stroke-width="1"/><rect x="300" y="280" width="20" height="100" fill="#fff" stroke="#000" stroke-width="1"/><rect x="325" y="280" width="20" height="100" fill="#fff" stroke="#000" stroke-width="1"/><rect x="350" y="280" width="20" height="100" fill="#fff" stroke="#000" stroke-width="1"/><rect x="375" y="280" width="20" height="100" fill="#fff" stroke="#000" stroke-width="1"/><rect x="112" y="260" width="12" height="25" fill="#000" stroke="#000" stroke-width="1"/><rect x="137" y="260" width="12" height="25" fill="#000" stroke="#000" stroke-width="1"/><rect x="187" y="260" width="12" height="25" fill="#000" stroke="#000" stroke-width="1"/><rect x="212" y="260" width="12" height="25" fill="#000" stroke="#000" stroke-width="1"/><rect x="237" y="260" width="12" height="25" fill="#000" stroke="#000" stroke-width="1"/><rect x="287" y="260" width="12" height="25" fill="#000" stroke="#000" stroke-width="1"/><rect x="312" y="260" width="12" height="25" fill="#000" stroke="#000" stroke-width="1"/><rect x="337" y="260" width="12" height="25" fill="#000" stroke="#000" stroke-width="1"/></g><rect x="100" y="140" width="312" height="110" fill="#3d2817" stroke="#555" stroke-width="1"/><circle cx="180" cy="180" r="8" fill="#666"/><circle cx="240" cy="180" r="8" fill="#666"/><circle cx="300" cy="180" r="8" fill="#666"/><circle cx="360" cy="180" r="8" fill="#666"/></svg>