<svg viewBox="0 0 512 512" xmlns="http://www.w3.org/2000/svg"><defs><style>.crown-gold { fill: #FFD700; stroke: #DAA520; stroke-width: 2; } .crown-jewel { fill: #FF1493; } .face { fill: #F4A460; } .hair { fill: #8B4513; } .dress { fill: #9932CC; stroke: #4B0082; stroke-width: 2; } .skin { fill: #F4A460; }</style></defs><ellipse cx="256" cy="180" rx="50" ry="60" class="face"/><path d="M 206 160 Q 200 120 220 100 Q 240 85 256 80 Q 272 85 292 100 Q 312 120 306 160" class="hair"/><circle cx="240" cy="160" r="8" class="hair"/><circle cx="272" cy="160" r="8" class="hair"/><circle cx="256" cy="140" r="10" class="hair"/><path d="M 220 100 L 210 60 L 230 80 L 245 50 L 256 75 L 267 50 L 282 80 L 302 60 L 292 100" class="crown-gold"/><circle cx="210" cy="65" r="6" class="crown-jewel"/><circle cx="245" cy="55" r="6" class="crown-jewel"/><circle cx="256" cy="45" r="7" class="crown-jewel"/><circle cx="267" cy="55" r="6" class="crown-jewel"/><circle cx="302" cy="65" r="6" class="crown-jewel"/><circle cx="235" cy="175" r="4" fill="#000"/><circle cx="277" cy="175" r="4" fill="#000"/><path d="M 256 190 L 252 200 L 260 200" fill="#000"/><path d="M 240 210 Q 256 220 272 210" stroke="#000" stroke-width="2" fill="none"/><path d="M 206 240 L 306 240 L 310 380 Q 256 400 202 380 Z" class="dress"/><ellipse cx="180" cy="280" rx="30" ry="80" class="dress"/><ellipse cx="332" cy="280" rx="30" ry="80" class="dress"/><path d="M 230 240 L 220 380" class="dress" stroke="#4B0082" stroke-width="2" fill="none"/><path d="M 282 240 L 292 380" class="dress" stroke="#4B0082" stroke-width="2" fill="none"/><ellipse cx="200" cy="320" rx="12" ry="40" class="skin"/><ellipse cx="312" cy="320" rx="12" ry="40" class="skin"/></svg>