<svg viewBox="0 0 512 512" xmlns="http://www.w3.org/2000/svg"><defs><linearGradient id="rocketGrad" x1="0%" y1="0%" x2="0%" y2="100%"><stop offset="0%" style="stop-color:#ff4444;stop-opacity:1" /><stop offset="100%" style="stop-color:#cc0000;stop-opacity:1" /></linearGradient></defs><g><ellipse cx="256" cy="120" rx="35" ry="45" fill="#ffcc00" stroke="#ff9900" stroke-width="2"/><rect x="236" y="160" width="40" height="200" fill="url(#rocketGrad)" stroke="#990000" stroke-width="2" rx="5"/><polygon points="236,360 236,400 220,380" fill="#ff6600" stroke="#cc3300" stroke-width="2"/><polygon points="276,360 276,400 292,380" fill="#ff6600" stroke="#cc3300" stroke-width="2"/><polygon points="256,360 256,420 240,380" fill="#ffaa00" stroke="#ff6600" stroke-width="2"/><polygon points="256,360 256,420 272,380" fill="#ffaa00" stroke="#ff6600" stroke-width="2"/><circle cx="256" cy="190" r="12" fill="#4488ff" stroke="#0044cc" stroke-width="2"/><circle cx="256" cy="240" r="10" fill="#4488ff" stroke="#0044cc" stroke-width="2"/><circle cx="256" cy="285" r="8" fill="#4488ff" stroke="#0044cc" stroke-width="2"/><line x1="220" y1="300" x2="200" y2="330" stroke="#ff6600" stroke-width="4" stroke-linecap="round"/><line x1="292" y1="300" x2="312" y2="330" stroke="#ff6600" stroke-width="4" stroke-linecap="round"/><line x1="220" y1="320" x2="195" y2="360" stroke="#ffaa00" stroke-width="3" stroke-linecap="round"/><line x1="292" y1="320" x2="317" y2="360" stroke="#ffaa00" stroke-width="3" stroke-linecap="round"/></g></svg>