<svg viewBox="0 0 512 512" width="512" height="512" xmlns="http://www.w3.org/2000/svg"><rect width="512" height="512" fill="white"/><circle cx="180" cy="100" r="30" fill="#333"/><line x1="180" y1="130" x2="180" y2="200" stroke="#333" stroke-width="8" stroke-linecap="round"/><line x1="180" y1="150" x2="120" y2="180" stroke="#333" stroke-width="8" stroke-linecap="round"/><line x1="180" y1="150" x2="240" y2="120" stroke="#333" stroke-width="8" stroke-linecap="round"/><line x1="180" y1="200" x2="140" y2="280" stroke="#333" stroke-width="8" stroke-linecap="round"/><line x1="180" y1="200" x2="260" y2="280" stroke="#333" stroke-width="8" stroke-linecap="round"/><line x1="140" y1="280" x2="120" y2="380" stroke="#333" stroke-width="8" stroke-linecap="round"/><line x1="260" y1="280" x2="300" y2="380" stroke="#333" stroke-width="8" stroke-linecap="round"/><circle cx="120" cy="400" r="15" fill="#333"/><circle cx="300" cy="400" r="15" fill="#333"/><path d="M 350 200 Q 380 180 420 200 Q 440 220 420 240 Q 380 260 350 240" fill="none" stroke="#333" stroke-width="6" stroke-linecap="round"/><path d="M 340 260 L 380 320" stroke="#333" stroke-width="6" stroke-linecap="round"/><path d="M 380 320 L 360 380" stroke="#333" stroke-width="6" stroke-linecap="round"/></svg>