<svg viewBox="0 0 512 512" xmlns="http://www.w3.org/2000/svg"><defs><linearGradient id="barkGradient" x1="0%" y1="0%" x2="100%" y2="0%"><stop offset="0%" style="stop-color:#8B4513;stop-opacity:1" /><stop offset="100%" style="stop-color:#A0522D;stop-opacity:1" /></linearGradient><linearGradient id="foliageGradient" x1="0%" y1="0%" x2="0%" y2="100%"><stop offset="0%" style="stop-color:#2D5016;stop-opacity:1" /><stop offset="100%" style="stop-color:#1a3a0a;stop-opacity:1" /></linearGradient></defs><rect width="512" height="512" fill="#87CEEB"/><ellipse cx="256" cy="100" rx="80" ry="120" fill="url(#foliageGradient)"/><ellipse cx="200" cy="80" rx="60" ry="100" fill="#2D5016"/><ellipse cx="312" cy="80" rx="60" ry="100" fill="#2D5016"/><ellipse cx="256" cy="140" rx="70" ry="90" fill="#1a3a0a"/><rect x="235" y="200" width="42" height="200" fill="url(#barkGradient)"/><rect x="240" y="200" width="32" height="200" fill="#A0522D" opacity="0.7"/><ellipse cx="251" cy="210" rx="8" ry="12" fill="#654321"/><ellipse cx="251" cy="240" rx="8" ry="12" fill="#654321"/><ellipse cx="251" cy="270" rx="8" ry="12" fill="#654321"/><ellipse cx="251" cy="300" rx="8" ry="12" fill="#654321"/><ellipse cx="251" cy="330" rx="8" ry="12" fill="#654321"/><ellipse cx="251" cy="360" rx="8" ry="12" fill="#654321"/><ellipse cx="256" cy="400" rx="50" ry="30" fill="#8B7355"/><path d="M 220 420 Q 200 450 190 480" stroke="#654321" stroke-width="8" fill="none" stroke-linecap="round"/><path d="M 256 420 Q 256 460 256 490" stroke="#654321" stroke-width="8" fill="none" stroke-linecap="round"/><path d="M 292 420 Q 312 450 322 480" stroke="#654321" stroke-width="8" fill="none" stroke-linecap="round"/></svg>