<svg viewBox="0 0 512 512" xmlns="http://www.w3.org/2000/svg"><defs><style>.fur{fill:#8B7355}.face{fill:#A0826D}.claw{fill:#654321}</style></defs><ellipse cx="256" cy="280" rx="80" ry="100" class="fur"/><circle cx="256" cy="160" r="70" class="face"/><circle cx="240" cy="145" r="12" fill="#000"/><circle cx="272" cy="145" r="12" fill="#000"/><ellipse cx="256" cy="170" rx="8" ry="12" fill="#000"/><path d="M 240 180 Q 256 190 272 180" stroke="#000" stroke-width="2" fill="none"/><ellipse cx="200" cy="240" rx="35" ry="60" class="fur" transform="rotate(-30 200 240)"/><ellipse cx="312" cy="240" rx="35" ry="60" class="fur" transform="rotate(30 312 240)"/><ellipse cx="180" cy="320" rx="30" ry="70" class="fur" transform="rotate(-40 180 320)"/><ellipse cx="332" cy="320" rx="30" ry="70" class="fur" transform="rotate(40 332 320)"/><path d="M 165 375 L 155 420" stroke="#654321" stroke-width="8" stroke-linecap="round"/><path d="M 180 385 L 175 430" stroke="#654321" stroke-width="8" stroke-linecap="round"/><path d="M 195 390 L 195 435" stroke="#654321" stroke-width="8" stroke-linecap="round"/><path d="M 347 375 L 357 420" stroke="#654321" stroke-width="8" stroke-linecap="round"/><path d="M 332 385 L 337 430" stroke="#654321" stroke-width="8" stroke-linecap="round"/><path d="M 317 390 L 317 435" stroke="#654321" stroke-width="8" stroke-linecap="round"/><circle cx="155" cy="425" r="6" class="claw"/><circle cx="175" cy="435" r="6" class="claw"/><circle cx="195" cy="440" r="6" class="claw"/><circle cx="357" cy="425" r="6" class="claw"/><circle cx="337" cy="435" r="6" class="claw"/><circle cx="317" cy="440" r="6" class="claw"/></svg>