<svg viewBox="0 0 512 512" xmlns="http://www.w3.org/2000/svg"><rect width="512" height="512" fill="#ffffff"/><rect x="80" y="80" width="350" height="280" fill="none" stroke="#333333" stroke-width="3" rx="10"/><rect x="100" y="100" width="310" height="240" fill="#f0f0f0"/><circle cx="120" cy="120" r="8" fill="#ff6b6b"/><circle cx="145" cy="120" r="8" fill="#ffd93d"/><circle cx="170" cy="120" r="8" fill="#6bcf7f"/><line x1="100" y1="145" x2="410" y2="145" stroke="#cccccc" stroke-width="2"/><rect x="110" y="160" width="30" height="30" fill="#4a90e2" rx="3"/><rect x="150" y="160" width="30" height="30" fill="#4a90e2" rx="3"/><rect x="190" y="160" width="30" height="30" fill="#4a90e2" rx="3"/><rect x="230" y="160" width="30" height="30" fill="#4a90e2" rx="3"/><rect x="110" y="205" width="150" height="15" fill="#cccccc" rx="2"/><rect x="110" y="230" width="200" height="15" fill="#cccccc" rx="2"/><rect x="110" y="255" width="180" height="15" fill="#cccccc" rx="2"/><path d="M 320 200 L 360 240 L 320 280 L 280 240 Z" fill="#9b59b6" stroke="#333333" stroke-width="2"/><circle cx="320" cy="240" r="8" fill="#ffffff"/></svg>