<svg viewBox="0 0 512 512" xmlns="http://www.w3.org/2000/svg"><rect width="512" height="512" fill="#ffffff"/><circle cx="256" cy="200" r="80" fill="#90EE90" stroke="#228B22" stroke-width="3"/><path d="M 200 160 Q 180 140 160 160" fill="none" stroke="#228B22" stroke-width="4" stroke-linecap="round"/><path d="M 312 160 Q 332 140 352 160" fill="none" stroke="#228B22" stroke-width="4" stroke-linecap="round"/><line x1="256" y1="120" x2="256" y2="280" stroke="#333333" stroke-width="8" stroke-linecap="round"/><ellipse cx="256" cy="320" rx="60" ry="15" fill="#8B4513" stroke="#654321" stroke-width="2"/><line x1="220" y1="320" x2="180" y2="380" stroke="#8B4513" stroke-width="6" stroke-linecap="round"/><line x1="292" y1="320" x2="332" y2="380" stroke="#8B4513" stroke-width="6" stroke-linecap="round"/><circle cx="180" cy="390" r="12" fill="#8B4513" stroke="#654321" stroke-width="1"/><circle cx="332" cy="390" r="12" fill="#8B4513" stroke="#654321" stroke-width="1"/><rect x="100" y="420" width="312" height="8" fill="#D2691E" stroke="#8B4513" stroke-width="1"/><line x1="150" y1="420" x2="150" y2="428" stroke="#8B4513" stroke-width="2"/><line x1="200" y1="420" x2="200" y2="428" stroke="#8B4513" stroke-width="2"/><line x1="250" y1="420" x2="250" y2="428" stroke="#8B4513" stroke-width="2"/><line x1="300" y1="420" x2="300" y2="428" stroke="#8B4513" stroke-width="2"/><line x1="350" y1="420" x2="350" y2="428" stroke="#8B4513" stroke-width="2"/></svg>