<svg viewBox="0 0 512 512" xmlns="http://www.w3.org/2000/svg"><rect width="512" height="512" fill="white"/><circle cx="256" cy="200" r="80" fill="none" stroke="#333" stroke-width="3"/><circle cx="256" cy="200" r="70" fill="#e8f4f8" stroke="#333" stroke-width="2"/><path d="M 220 160 Q 210 140 200 135" fill="none" stroke="#ff6b6b" stroke-width="3" stroke-linecap="round"/><path d="M 256 160 Q 250 130 245 115" fill="none" stroke="#ff6b6b" stroke-width="3" stroke-linecap="round"/><path d="M 292 160 Q 302 140 312 135" fill="none" stroke="#ff6b6b" stroke-width="3" stroke-linecap="round"/><circle cx="240" cy="190" r="6" fill="#333"/><circle cx="272" cy="190" r="6" fill="#333"/><path d="M 245 220 Q 256 235 267 220" fill="none" stroke="#333" stroke-width="2" stroke-linecap="round"/><path d="M 200 280 L 160 320 Q 150 330 160 340 L 200 300" fill="#ffd700" stroke="#333" stroke-width="2"/><path d="M 312 280 L 352 320 Q 362 330 352 340 L 312 300" fill="#ffd700" stroke="#333" stroke-width="2"/><path d="M 256 270 L 256 340 Q 256 360 240 370 L 272 370 Q 256 360 256 340" fill="#ffd700" stroke="#333" stroke-width="2"/><circle cx="195" cy="315" r="4" fill="#333"/><circle cx="317" cy="315" r="4" fill="#333"/></svg>