<svg xmlns="http://www.w3.org/2000/svg" width="512" height="512" viewBox="0 0 512 512"><rect width="512" height="512" fill="#e9eef3"/><g stroke="#222" stroke-width="8" stroke-linejoin="round"><path d="M84 180h278c22 0 43 9 58 25l32 34v69c0 14-12 26-26 26H84c-18 0-32-14-32-32V212c0-18 14-32 32-32z" fill="#f4c542"/><path d="M390 180h34c12 0 24 5 34 14l22 22v24h-54z" fill="#cfe8ff"/><rect x="104" y="198" width="56" height="40" rx="6" fill="#cfe8ff"/><rect x="170" y="198" width="56" height="40" rx="6" fill="#cfe8ff"/><rect x="236" y="198" width="56" height="40" rx="6" fill="#cfe8ff"/><rect x="302" y="198" width="56" height="40" rx="6" fill="#cfe8ff"/><rect x="356" y="198" width="64" height="82" fill="#f4c542"/><line x1="338" y1="198" x2="338" y2="280"/><line x1="370" y1="198" x2="370" y2="280"/><rect x="84" y="260" width="354" height="12" fill="#222" stroke="none" opacity="0.2"/></g><circle cx="156" cy="318" r="36" fill="#222"/><circle cx="156" cy="318" r="16" fill="#e9eef3" stroke="#222" stroke-width="6"/><circle cx="354" cy="318" r="36" fill="#222"/><circle cx="354" cy="318" r="16" fill="#e9eef3" stroke="#222" stroke-width="6"/><circle cx="430" cy="280" r="7" fill="#fff"/></svg>