<svg xmlns="http://www.w3.org/2000/svg" width="512" height="512" viewBox="0 0 512 512"><rect width="512" height="512" fill="#ffffff"/><g stroke="#222" stroke-width="10" stroke-linecap="round" stroke-linejoin="round"><path d="M92 312h34l28-58c10-20 30-32 52-32h106c24 0 46 13 58 34l20 36h20c16 0 30 14 30 30v34H92z" fill="#4f86c6"/><path d="M176 222h104c18 0 34 9 44 24l18 28H150l12-22c9-18 28-30 36-30z" fill="#8fc3f4"/><circle cx="166" cy="366" r="38" fill="#333"/><circle cx="166" cy="366" r="16" fill="#cfd8dc"/><circle cx="364" cy="366" r="38" fill="#333"/><circle cx="364" cy="366" r="16" fill="#cfd8dc"/><path d="M120 312h272" fill="none"/><path d="M150 286h150" fill="none"/></g></svg>