<svg xmlns="http://www.w3.org/2000/svg" width="512" height="512" viewBox="0 0 512 512"><rect width="512" height="512" fill="#f7f1e8"/><ellipse cx="256" cy="392" rx="138" ry="22" fill="#d8cec2"/><path d="M152 220h176c20 0 36 16 36 36v82c0 30-24 54-54 54H206c-30 0-54-24-54-54v-82c0-20 16-36 36-36z" fill="#ffffff" stroke="#3f3b37" stroke-width="8" stroke-linejoin="round"/><path d="M330 250c28 0 50 22 50 50s-22 50-50 50" fill="none" stroke="#3f3b37" stroke-width="14" stroke-linecap="round"/><path d="M174 242c0-14 11-25 25-25h114c14 0 25 11 25 25v14H174z" fill="#7a4a2a"/><ellipse cx="256" cy="248" rx="82" ry="18" fill="#9a6642" opacity="0.35"/><path d="M214 170c-14-14-14-32 0-46M248 166c-12-12-12-28 0-40M282 170c-14-14-14-32 0-46" fill="none" stroke="#8c7b6a" stroke-width="6" stroke-linecap="round"/><ellipse cx="256" cy="352" rx="92" ry="12" fill="#000" opacity="0.08"/></svg>