<svg xmlns="http://www.w3.org/2000/svg" viewBox="0 0 512 512"><rect width="512" height="512" rx="28" fill="#f6fbff"/><circle cx="256" cy="268" r="180" fill="#e3edf7"/><ellipse cx="256" cy="392" rx="140" ry="28" fill="#c8d8e6" opacity="0.55"/><g><rect x="170" y="236" width="172" height="122" rx="16" fill="#2f5b93"/><rect x="162" y="220" width="188" height="34" rx="12" fill="#4376b3"/><rect x="216" y="236" width="80" height="12" rx="6" fill="#1d3f68"/><rect x="205" y="258" width="102" height="70" rx="8" fill="#f2f6fb"/><path d="M234 293l16 16 30-34" fill="none" stroke="#2f8f5b" stroke-width="10" stroke-linecap="round" stroke-linejoin="round"/></g><g transform="translate(312 170) rotate(18)"><rect x="-18" y="-8" width="72" height="48" rx="6" fill="#ffffff" stroke="#d8e2ee" stroke-width="4"/><path d="M14 -8v18h18" fill="#eef4fb"/><path d="M2 18l10 10 22-24" fill="none" stroke="#2f8f5b" stroke-width="6" stroke-linecap="round" stroke-linejoin="round"/></g><path d="M326 190c24-20 48-22 62-12 10 7 10 20 1 28-10 9-20 10-35 8l-14 14c-8 8-20 3-20-7v-10c0-8 2-16 6-21z" fill="#f1bf98"/><g transform="translate(92 180)"><circle cx="0" cy="0" r="24" fill="#f1bf98"/><path d="M-22 -2c4-22 18-36 38-36 10 0 18 3 25 9-2 6-9 9-16 11-10 2-20 7-27 17z" fill="#3c4a66"/><rect x="-28" y="28" width="56" height="74" rx="22" fill="#5b8def"/><path d="M-22 44c-18 8-25 20-28 38" fill="none" stroke="#f1bf98" stroke-width="12" stroke-linecap="round"/><path d="M24 46c18 2 29 12 38 28" fill="none" stroke="#f1bf98" stroke-width="12" stroke-linecap="round"/><path d="M-12 102h24" stroke="#3c4a66" stroke-width="12" stroke-linecap="round"/></g><g transform="translate(420 182)"><circle cx="0" cy="0" r="24" fill="#d98f6e"/><path d="M-23 -1c5-20 19-34 39-34 12 0 21 4 28 11-3 7-10 10-18 12-11 2-21 6-29 15z" fill="#2f3e5c"/><rect x="-28" y="28" width="56" height="74" rx="22" fill="#f28f4b"/><path d="M-24 48c-16 8-23 18-27 36" fill="none" stroke="#d98f6e" stroke-width="12" stroke-linecap="round"/><path d="M24 48c16 10 24 22 29 36" fill="none" stroke="#d98f6e" stroke-width="12" stroke-linecap="round"/><path d="M-12 102h24" stroke="#2f3e5c" stroke-width="12" stroke-linecap="round"/></g><g transform="translate(256 102)"><circle cx="0" cy="0" r="22" fill="#8fc1d4"/><path d="M-18 -3c3-18 15-30 31-30 8 0 15 2 20 7-2 5-7 8-13 9-8 2-16 5-20 12z" fill="#465a77"/><rect x="-24" y="24" width="48" height="66" rx="20" fill="#7ec8a3"/><path d="M-18 44c-10 14-12 24-12 40" fill="none" stroke="#8fc1d4" stroke-width="10" stroke-linecap="round"/><path d="M18 44c10 14 12 24 12 40" fill="none" stroke="#8fc1d4" stroke-width="10" stroke-linecap="round"/></g></svg>