<svg xmlns="http://www.w3.org/2000/svg" viewBox="0 0 512 512"><defs><radialGradient id="bg" cx="50%" cy="38%" r="75%"><stop offset="0%" stop-color="#fffef6"/><stop offset="65%" stop-color="#f7e8b0"/><stop offset="100%" stop-color="#ead59a"/></radialGradient><radialGradient id="halo" cx="50%" cy="45%" r="55%"><stop offset="0%" stop-color="#fffdf0" stop-opacity="1"/><stop offset="55%" stop-color="#ffe88a" stop-opacity="0.85"/><stop offset="100%" stop-color="#ffd54d" stop-opacity="0"/></radialGradient></defs><rect width="512" height="512" fill="url(#bg)"/><circle cx="256" cy="165" r="122" fill="url(#halo)"/><g stroke="#f2b400" stroke-width="7" stroke-linecap="round" opacity="0.8"><line x1="256" y1="18" x2="256" y2="56"/><line x1="256" y1="274" x2="256" y2="312"/><line x1="109" y1="165" x2="147" y2="165"/><line x1="365" y1="165" x2="403" y2="165"/><line x1="152" y1="61" x2="179" y2="88"/><line x1="333" y1="61" x2="306" y2="88"/><line x1="152" y1="269" x2="179" y2="242"/><line x1="333" y1="269" x2="306" y2="242"/><line x1="190" y1="36" x2="206" y2="69"/><line x1="322" y1="36" x2="306" y2="69"/><line x1="190" y1="294" x2="206" y2="261"/><line x1="322" y1="294" x2="306" y2="261"/></g><g fill="#ffe9a8" opacity="0.55"><circle cx="256" cy="165" r="84" fill="none" stroke="#ffe9a8" stroke-width="10" opacity="0.55"/><circle cx="256" cy="103" r="5"/><circle cx="204" cy="126" r="4"/><circle cx="308" cy="126" r="4"/><circle cx="176" cy="176" r="4"/><circle cx="336" cy="176" r="4"/><circle cx="213" cy="226" r="4"/><circle cx="299" cy="226" r="4"/></g><ellipse cx="256" cy="396" rx="104" ry="18" fill="#7a4ad1" opacity="0.22"/><g fill="#7c4ad1"><path d="M256 392C236 385 220 370 214 351C230 355 244 366 256 382C268 366 282 355 298 351C292 370 276 385 256 392Z"/><path d="M256 392C244 378 237 365 234 352C245 357 253 366 256 377C259 366 267 357 278 352C275 365 268 378 256 392Z"/><path d="M214 397C226 380 238 369 253 363C248 379 241 393 230 406Z"/><path d="M298 397C286 380 274 369 259 363C264 379 271 393 282 406Z"/></g><g fill="#3d2a1a"><circle cx="256" cy="180" r="28"/><path d="M226 210C236 193 276 193 286 210C292 221 292 234 286 244C280 253 266 258 256 258C246 258 232 253 226 244C220 234 220 221 226 210Z"/><path d="M173 294C193 273 218 264 238 270C247 273 252 279 256 286C260 279 265 273 274 270C294 264 319 273 339 294C325 320 301 334 274 336C266 337 260 335 256 331C252 335 246 337 238 336C211 334 187 320 173 294Z"/></g><g fill="none" stroke="#3d2a1a" stroke-width="10" stroke-linecap="round"><path d="M214 240C224 232 236 232 245 241"/><path d="M298 240C288 232 276 232 267 241"/></g></svg>