<svg xmlns="http://www.w3.org/2000/svg" viewBox="0 0 512 512"><rect width="512" height="512" fill="#eef6ff"/><circle cx="256" cy="250" r="150" fill="#dbeafe" opacity="0.75"/><g stroke="#9bb7dd" stroke-width="6" stroke-linecap="round" opacity="0.5"><line x1="256" y1="92" x2="256" y2="58"/><line x1="256" y1="92" x2="298" y2="64"/><line x1="256" y1="92" x2="214" y2="64"/><line x1="256" y1="100" x2="332" y2="92"/><line x1="256" y1="100" x2="180" y2="92"/></g><ellipse cx="256" cy="430" rx="120" ry="24" fill="#c4d4e9"/><g><circle cx="256" cy="150" r="44" fill="#f2c9a0" stroke="#263238" stroke-width="5"/><rect x="212" y="130" width="88" height="16" rx="8" fill="#e33a3a"/><path d="M213 138 C201 132,194 144,184 142" fill="none" stroke="#e33a3a" stroke-width="12" stroke-linecap="round"/><path d="M299 138 C311 132,318 144,328 142" fill="none" stroke="#e33a3a" stroke-width="12" stroke-linecap="round"/><circle cx="243" cy="151" r="4" fill="#263238"/><circle cx="269" cy="151" r="4" fill="#263238"/><path d="M236 142 L247 138" stroke="#263238" stroke-width="4" stroke-linecap="round"/><path d="M265 138 L276 142" stroke="#263238" stroke-width="4" stroke-linecap="round"/><path d="M242 166 Q256 173 270 166" fill="none" stroke="#7a4a2a" stroke-width="4" stroke-linecap="round"/><rect x="218" y="192" width="76" height="108" rx="26" fill="#2e4a7d" stroke="#263238" stroke-width="5"/><path d="M229 214 C207 206,193 191,177 178" fill="none" stroke="#263238" stroke-width="18" stroke-linecap="round"/><path d="M177 178 C166 168,156 161,148 156" fill="none" stroke="#263238" stroke-width="18" stroke-linecap="round"/><circle cx="148" cy="156" r="24" fill="#d63b3b" stroke="#263238" stroke-width="5"/><circle cx="140" cy="148" r="6" fill="#fff" opacity="0.35"/><path d="M283 214 C304 206,326 196,348 182" fill="none" stroke="#263238" stroke-width="18" stroke-linecap="round"/><path d="M348 182 C356 178,362 177,368 176" fill="none" stroke="#263238" stroke-width="18" stroke-linecap="round"/><circle cx="368" cy="176" r="26" fill="#d63b3b" stroke="#263238" stroke-width="5"/><circle cx="359" cy="168" r="6" fill="#fff" opacity="0.35"/><rect x="214" y="288" width="84" height="22" rx="8" fill="#1d2f52" stroke="#263238" stroke-width="5"/><path d="M246 308 C236 332,228 350,220 390" fill="none" stroke="#263238" stroke-width="18" stroke-linecap="round"/><path d="M220 390 C217 402,212 410,206 418" fill="none" stroke="#263238" stroke-width="18" stroke-linecap="round"/><ellipse cx="202" cy="422" rx="28" ry="12" fill="#111827"/><path d="M266 308 C278 332,288 350,298 390" fill="none" stroke="#263238" stroke-width="18" stroke-linecap="round"/><path d="M298 390 C305 401,312 410,320 418" fill="none" stroke="#263238" stroke-width="18" stroke-linecap="round"/><ellipse cx="328" cy="422" rx="30" ry="12" fill="#111827"/><g stroke="#ff7a7a" stroke-width="6" stroke-linecap="round" opacity="0.8"><line x1="120" y1="156" x2="92" y2="146"/><line x1="122" y1="172" x2="94" y2="178"/><line x1="390" y1="176" x2="420" y2="166"/><line x1="388" y1="192" x2="418" y2="200"/></g></g></svg>