<svg xmlns="http://www.w3.org/2000/svg" viewBox="0 0 512 512"><rect width="512" height="512" fill="#f7f7f7"/><ellipse cx="245" cy="418" rx="175" ry="22" fill="#d9d9d9" opacity="0.55"/><path d="M92 360V312c0-20 12-34 32-40l86-26h92c18 0 30 10 34 25v89z" fill="#f2b233" stroke="#d58d1f" stroke-width="6" stroke-linejoin="round"/><rect x="146" y="185" width="108" height="84" rx="10" fill="#d9eaf2" stroke="#51606a" stroke-width="6"/><rect x="174" y="217" width="52" height="52" rx="6" fill="#8fb2c6" opacity="0.5"/><rect x="332" y="160" width="18" height="200" fill="#61666c"/><rect x="360" y="160" width="18" height="200" fill="#61666c"/><rect x="326" y="302" width="60" height="14" fill="#61666c"/><rect x="382" y="335" width="104" height="12" rx="3" fill="#61666c"/><rect x="382" y="358" width="96" height="12" rx="3" fill="#61666c"/><rect x="414" y="286" width="76" height="56" rx="6" fill="#c88c4d" stroke="#8a5c32" stroke-width="5"/><rect x="426" y="292" width="8" height="44" fill="#8a5c32" opacity="0.4"/><rect x="442" y="292" width="8" height="44" fill="#8a5c32" opacity="0.4"/><rect x="458" y="292" width="8" height="44" fill="#8a5c32" opacity="0.4"/><circle cx="160" cy="382" r="38" fill="#23262b"/><circle cx="160" cy="382" r="20" fill="#7b7f84"/><circle cx="160" cy="382" r="8" fill="#f2b233"/><circle cx="280" cy="382" r="46" fill="#23262b"/><circle cx="280" cy="382" r="24" fill="#7b7f84"/><circle cx="280" cy="382" r="9" fill="#f2b233"/><path d="M108 360h44" stroke="#9a6431" stroke-width="10" stroke-linecap="round"/><path d="M226 360h36" stroke="#9a6431" stroke-width="10" stroke-linecap="round"/></svg>