<svg xmlns="http://www.w3.org/2000/svg" viewBox="0 0 512 512" width="512" height="512"><rect width="512" height="512" fill="#d9f0ff"/><circle cx="425" cy="82" r="34" fill="#ffd166"/><g fill="#fff" opacity=".9"><ellipse cx="108" cy="92" rx="28" ry="12"/><ellipse cx="132" cy="86" rx="22" ry="10"/><ellipse cx="152" cy="92" rx="28" ry="12"/><ellipse cx="362" cy="132" rx="24" ry="10"/><ellipse cx="383" cy="126" rx="18" ry="8"/><ellipse cx="402" cy="132" rx="24" ry="10"/></g><g transform="translate(82 252)"><rect x="0" y="-96" width="136" height="190" rx="30" fill="#f8fbff" stroke="#3d4b57" stroke-width="6"/><path d="M20 -84v160M44 -84v160M68 -84v160M92 -84v160M116 -84v160" stroke="#3d4b57" stroke-width="5" stroke-linecap="round"/><path d="M136 -56c32 18 52 46 52 82s-20 64-52 82" fill="none" stroke="#3d4b57" stroke-width="6" stroke-linecap="round" stroke-linejoin="round"/><path d="M136 -56l36-28" stroke="#3d4b57" stroke-width="6" stroke-linecap="round"/><path d="M120 -4c16 10 28 26 28 42s-12 30-28 42" fill="none" stroke="#8aa0b3" stroke-width="4" stroke-dasharray="8 10" stroke-linecap="round"/><path d="M24 94h88" stroke="#3d4b57" stroke-width="8" stroke-linecap="round"/></g><g transform="translate(312 188)"><ellipse cx="0" cy="48" rx="54" ry="34" fill="#ffffff" stroke="#3d4b57" stroke-width="5"/><path d="M-10 36c-30-18-52-52-30-64 16-9 42 16 56 48" fill="#ffffff" stroke="#3d4b57" stroke-width="5" stroke-linecap="round" stroke-linejoin="round"/><circle cx="42" cy="22" r="14" fill="#ffffff" stroke="#3d4b57" stroke-width="5"/><path d="M55 24l20 6-20 8z" fill="#f4a261"/><path d="M-46 58l-32 14 28 8z" fill="#ffffff" stroke="#3d4b57" stroke-width="5" stroke-linejoin="round"/><path d="M-18 70c14 10 30 14 50 14" fill="none" stroke="#3d4b57" stroke-width="4" stroke-linecap="round"/></g><g stroke="#3d4b57" stroke-width="6" stroke-linecap="round" fill="none"><path d="M212 372c22-18 40-18 54 0"/><path d="M270 372c20 18 42 18 60 0"/><path d="M264 372l-10-14"/><path d="M272 372l12-14"/></g><path d="M246 306c20 10 34 24 50 44" fill="none" stroke="#8aa0b3" stroke-width="5" stroke-linecap="round" stroke-dasharray="10 10"/></svg>