<svg xmlns="http://www.w3.org/2000/svg" viewBox="0 0 512 512" width="512" height="512"><rect width="512" height="512" fill="#F7F3E8"/><g stroke-linecap="round" stroke-linejoin="round"><circle cx="256" cy="264" r="154" fill="#FFD84D" stroke="#D39B17" stroke-width="10"/><path d="M180 139c18-46 134-46 152 0v24H180z" fill="#6D4CDB" stroke="#4A2E9E" stroke-width="8"/><rect x="166" y="156" width="180" height="30" rx="15" fill="#8C63F2" stroke="#4A2E9E" stroke-width="8"/><circle cx="256" cy="118" r="12" fill="#F04B4B"/><path d="M256 118l35-24M256 118l-20-38" stroke="#F04B4B" stroke-width="6"/><circle cx="292" cy="94" r="8" fill="#F04B4B"/><circle cx="234" cy="80" r="8" fill="#F04B4B"/><path d="M184 240c18-18 36-18 54 0" fill="none" stroke="#222" stroke-width="10"/><path d="M274 240c18-18 36-18 54 0" fill="none" stroke="#222" stroke-width="10"/><path d="M198 250c12 14 12 32 0 50c-12-14-12-32 0-50z" fill="#58C7FF"/><path d="M314 250c12 14 12 32 0 50c-12-14-12-32 0-50z" fill="#58C7FF"/><circle cx="256" cy="280" r="12" fill="#E58B3C"/><ellipse cx="256" cy="324" rx="80" ry="58" fill="#1F1A17"/><ellipse cx="256" cy="332" rx="50" ry="32" fill="#FF7D8A"/><path d="M214 320h84" stroke="#FFF" stroke-width="8"/><path d="M256 320v28" stroke="#FFF" stroke-width="5"/><ellipse cx="176" cy="305" rx="22" ry="15" fill="#FF9FB0" opacity="0.45"/><ellipse cx="336" cy="305" rx="22" ry="15" fill="#FF9FB0" opacity="0.45"/><path d="M118 192c-18-12-32-28-42-48" fill="none" stroke="#C8B56A" stroke-width="10"/><circle cx="72" cy="132" r="12" fill="#C8B56A" opacity="0.9"/></g></svg>