<svg xmlns="http://www.w3.org/2000/svg" width="512" height="512" viewBox="0 0 512 512"><rect width="512" height="512" fill="#eef3f8"/><ellipse cx="256" cy="410" rx="150" ry="20" fill="#c9d1d8"/><g><rect x="120" y="190" width="280" height="170" rx="24" fill="#3c4249"/><rect x="136" y="205" width="248" height="14" rx="7" fill="#545b63" opacity=".7"/><rect x="176" y="145" width="110" height="34" rx="14" fill="#4a5058"/><rect x="182" y="153" width="98" height="18" rx="9" fill="#6b737b"/><path d="M170 145 L160 120 H205 L198 145 Z" fill="#4a5058"/><path d="M288 145 L298 120 H348 L340 145 Z" fill="#4a5058"/><circle cx="150" cy="275" r="74" fill="#2f353c"/><circle cx="150" cy="275" r="56" fill="#a0a8af"/><circle cx="150" cy="275" r="42" fill="#dce2e7"/><g transform="translate(150 275)"><polygon points="0,-34 10,-10 34,0 10,10 0,34 -10,10 -34,0 -10,-10" fill="#f6c343"/><circle cx="0" cy="0" r="10" fill="#ffdf70"/><path d="M-18 -18 L18 18 M18 -18 L-18 18" stroke="#8a6110" stroke-width="4" stroke-linecap="round"/></g><rect x="308" y="222" width="82" height="100" rx="12" fill="#50565d"/><rect x="318" y="232" width="62" height="16" rx="8" fill="#69717a"/><circle cx="338" cy="270" r="8" fill="#1f2328"/><circle cx="364" cy="270" r="8" fill="#1f2328"/><rect x="334" y="288" width="34" height="10" rx="5" fill="#1f2328"/><rect x="132" y="324" width="316" height="18" rx="9" fill="#262b30"/><circle cx="176" cy="366" r="22" fill="#2f353c"/><circle cx="176" cy="366" r="10" fill="#8b949b"/><circle cx="338" cy="366" r="22" fill="#2f353c"/><circle cx="338" cy="366" r="10" fill="#8b949b"/><path d="M394 182 L429 120 L418 170 L448 170 L404 236 L416 190 Z" fill="#ffd84d" stroke="#d89b00" stroke-width="4" stroke-linejoin="round"/><path d="M407 232 C434 246 448 262 460 294" fill="none" stroke="#ffd84d" stroke-width="8" stroke-linecap="round"/><circle cx="460" cy="294" r="6" fill="#ffd84d"/></g></svg>