<svg xmlns="http://www.w3.org/2000/svg" width="512" height="512" viewBox="0 0 512 512"><defs><radialGradient id="bg" cx="50%" cy="40%" r="70%"><stop offset="0%" stop-color="#31364f"/><stop offset="100%" stop-color="#141824"/></radialGradient><linearGradient id="gold" x1="0" y1="0" x2="1" y2="1"><stop offset="0%" stop-color="#fff2a8"/><stop offset="35%" stop-color="#ffd34d"/><stop offset="70%" stop-color="#d89a00"/><stop offset="100%" stop-color="#8d5d00"/></linearGradient><linearGradient id="gold2" x1="0" y1="0" x2="0" y2="1"><stop offset="0%" stop-color="#ffe98b"/><stop offset="100%" stop-color="#c98a00"/></linearGradient></defs><rect width="512" height="512" fill="url(#bg)"/><ellipse cx="256" cy="394" rx="150" ry="34" fill="#000" opacity="0.35"/><g opacity="0.95"><ellipse cx="165" cy="356" rx="34" ry="13" fill="url(#gold)"/><ellipse cx="203" cy="368" rx="38" ry="14" fill="url(#gold2)"/><ellipse cx="244" cy="378" rx="44" ry="16" fill="url(#gold)"/><ellipse cx="292" cy="374" rx="38" ry="14" fill="url(#gold2)"/><ellipse cx="330" cy="360" rx="34" ry="13" fill="url(#gold)"/></g><g><path d="M164 292L346 292L386 335L130 335Z" fill="url(#gold)" stroke="#5c3d00" stroke-width="6" stroke-linejoin="round"/><path d="M180 295L331 295L359 325L156 325Z" fill="#fff6c0" opacity="0.28"/><path d="M148 335L372 335L368 356L152 356Z" fill="#9a6700" opacity="0.35"/></g><g transform="translate(26 -24) scale(0.82)"><path d="M164 292L346 292L386 335L130 335Z" fill="url(#gold2)" stroke="#5c3d00" stroke-width="7" stroke-linejoin="round" opacity="0.92"/><path d="M180 295L331 295L359 325L156 325Z" fill="#fff6c0" opacity="0.24"/></g><g fill="#fff4b8" opacity="0.95"><polygon points="110,154 118,174 138,182 118,190 110,210 102,190 82,182 102,174"/><polygon points="396,136 403,150 417,157 403,164 396,178 389,164 375,157 389,150"/><polygon points="378,226 384,239 397,245 384,251 378,264 372,251 359,245 372,239"/><polygon points="136,232 141,243 152,248 141,253 136,264 131,253 120,248 131,243"/></g><circle cx="255" cy="264" r="6" fill="#fff8cf" opacity="0.7"/></svg>