<svg xmlns="http://www.w3.org/2000/svg" viewBox="0 0 512 512"><rect width="512" height="512" fill="#bfe8ff"/><circle cx="430" cy="88" r="34" fill="#ffd96a"/><ellipse cx="256" cy="428" rx="330" ry="116" fill="#5ac14c"/><ellipse cx="256" cy="438" rx="245" ry="62" fill="#49a83d" opacity=".35"/><ellipse cx="360" cy="382" rx="28" ry="9" fill="#000" opacity=".16"/><circle cx="360" cy="360" r="20" fill="#fff" stroke="#1f1f1f" stroke-width="6"/><circle cx="360" cy="360" r="5" fill="#d9d9d9"/><g transform="translate(378 165)"><rect x="0" y="0" width="6" height="155" rx="3" fill="#8b5a2b"/><path d="M6 18 L52 30 L6 42 Z" fill="#ff5252"/><circle cx="6" cy="153" r="10" fill="#8b5a2b"/></g><ellipse cx="245" cy="344" rx="24" ry="8" fill="#000" opacity=".15"/><circle cx="245" cy="330" r="16" fill="#fff" stroke="#1f1f1f" stroke-width="6"/><g transform="rotate(32 190 260)"><rect x="100" y="252" width="250" height="9" rx="4.5" fill="#7a532f"/><path d="M90 256 q-14 7 -14 22 q0 14 14 20 h29 q12 0 12-12 v-25 q0-5 -5-8 z" fill="#c7c7c7" stroke="#555" stroke-width="5"/><path d="M97 259 h18 v29 h-18 z" fill="#8a8a8a"/></g></svg>