<svg xmlns="http://www.w3.org/2000/svg" width="512" height="512" viewBox="0 0 512 512"><rect width="512" height="512" fill="#eef3f6"/><ellipse cx="256" cy="436" rx="128" ry="22" fill="#cdd5db"/><ellipse cx="256" cy="292" rx="118" ry="138" fill="#303338"/><ellipse cx="256" cy="162" rx="78" ry="70" fill="#303338"/><ellipse cx="256" cy="176" rx="46" ry="38" fill="#d0b8a0"/><ellipse cx="256" cy="188" rx="22" ry="16" fill="#b89d85"/><ellipse cx="230" cy="171" rx="6" ry="8" fill="#111"/><ellipse cx="282" cy="171" rx="6" ry="8" fill="#111"/><path d="M250 188 Q256 194 262 188" stroke="#111" stroke-width="5" fill="none" stroke-linecap="round"/><circle cx="215" cy="160" r="8" fill="#303338"/><circle cx="297" cy="160" r="8" fill="#303338"/><path d="M160 244 C130 280 114 330 118 382 C120 408 132 424 147 428" stroke="#303338" stroke-width="42" fill="none" stroke-linecap="round"/><path d="M352 244 C382 280 398 330 394 382 C392 408 380 424 365 428" stroke="#303338" stroke-width="42" fill="none" stroke-linecap="round"/><path d="M190 345 C170 388 164 416 171 438 C178 458 196 462 206 451" stroke="#303338" stroke-width="36" fill="none" stroke-linecap="round"/><path d="M322 345 C342 388 348 416 341 438 C334 458 316 462 306 451" stroke="#303338" stroke-width="36" fill="none" stroke-linecap="round"/><ellipse cx="206" cy="451" rx="20" ry="12" fill="#303338"/><ellipse cx="306" cy="451" rx="20" ry="12" fill="#303338"/></svg>