<svg xmlns="http://www.w3.org/2000/svg" width="512" height="512" viewBox="0 0 512 512"><rect width="512" height="512" fill="#f7f4ee"/><g transform="rotate(-12 256 256)"><path d="M 190 150 C 155 158 132 193 140 227 C 116 246 110 295 138 325 C 150 378 207 414 255 392 C 302 373 315 328 297 288 C 317 256 312 204 281 182 C 267 161 227 144 190 150 Z" fill="#8b5a2b" stroke="#5a3416" stroke-width="6"/><circle cx="214" cy="287" r="34" fill="#f7f4ee" stroke="#5a3416" stroke-width="6"/><rect x="242" y="205" width="160" height="34" rx="14" fill="#c89a5b" stroke="#5a3416" stroke-width="6"/><path d="M 400 205 L 451 210 L 467 222 L 453 239 L 400 239 Z" fill="#b07b40" stroke="#5a3416" stroke-width="6"/><circle cx="435" cy="217" r="6" fill="#5a3416"/><circle cx="446" cy="224" r="6" fill="#5a3416"/><circle cx="435" cy="231" r="6" fill="#5a3416"/><rect x="185" y="328" width="58" height="12" rx="4" fill="#5a3416"/><g stroke="#efe8db" stroke-width="2.5" stroke-linecap="round"><line x1="409" y1="212" x2="244" y2="214"/><line x1="409" y1="219" x2="244" y2="220"/><line x1="409" y1="226" x2="244" y2="226"/><line x1="409" y1="233" x2="244" y2="232"/><line x1="409" y1="238" x2="244" y2="238"/></g><circle cx="198" cy="305" r="9" fill="#5a3416" opacity="0.55"/><ellipse cx="206" cy="187" rx="16" ry="10" fill="#b47a3f" opacity="0.35"/></g></svg>