<svg xmlns="http://www.w3.org/2000/svg" width="512" height="512" viewBox="0 0 512 512"><rect width="512" height="512" fill="#bfe8ff"/><ellipse cx="256" cy="420" rx="210" ry="38" fill="#eef9ff"/><ellipse cx="256" cy="412" rx="150" ry="22" fill="#d9eef8" opacity="0.9"/><defs><clipPath id="domeClip"><path d="M140 360A116 116 0 0 1 372 360V412H140Z"/></clipPath></defs><path d="M140 360A116 116 0 0 1 372 360V412H140Z" fill="#f9fdff" stroke="#7aa7c4" stroke-width="6"/><g clip-path="url(#domeClip)" fill="none" stroke-linecap="round"><path d="M146 356C190 340 322 340 366 356" stroke="#d0e2ea" stroke-width="8"/><path d="M142 332C191 318 321 318 370 332" stroke="#d0e2ea" stroke-width="8"/><path d="M140 308C191 294 321 294 372 308" stroke="#d0e2ea" stroke-width="8"/><path d="M140 284C192 270 320 270 372 284" stroke="#d0e2ea" stroke-width="8"/><path d="M144 260C194 246 318 246 368 260" stroke="#d0e2ea" stroke-width="8"/><path d="M176 246V412" stroke="#d9eaf0" stroke-width="6"/><path d="M224 236V412" stroke="#d9eaf0" stroke-width="6"/><path d="M288 236V412" stroke="#d9eaf0" stroke-width="6"/><path d="M336 246V412" stroke="#d9eaf0" stroke-width="6"/></g><path d="M176 356c16-54 44-82 80-82s64 28 80 82" fill="#eef6fb" opacity="0.8"/><path d="M218 412v-32c0-21 17-38 38-38s38 17 38 38v32z" fill="#5e7b8f" stroke="#4e6676" stroke-width="6"/><path d="M230 412v-26c0-14 12-26 26-26s26 12 26 26v26z" fill="#22343f"/><path d="M228 364c9-7 20-11 28-11s19 4 28 11" fill="none" stroke="#9cc3d6" stroke-width="5" stroke-linecap="round" opacity="0.9"/><path d="M176 360c10 18 23 28 40 34" fill="none" stroke="#e8f5fb" stroke-width="8" stroke-linecap="round" opacity="0.9"/></svg>