<svg xmlns="http://www.w3.org/2000/svg" width="512" height="512" viewBox="0 0 512 512"><rect width="512" height="512" fill="#eef6ea"/><ellipse cx="260" cy="410" rx="140" ry="26" fill="#c9d6c3"/><path d="M142 332 C160 270 220 240 300 240 C356 240 398 266 416 314 C426 340 418 360 400 370 C360 392 250 392 178 376 C151 370 136 353 142 332 Z" fill="#d79b2e" stroke="#8b5a17" stroke-width="5"/><ellipse cx="286" cy="330" rx="108" ry="60" fill="#e6b34a" opacity="0.65"/><path d="M369 237 C386 222 413 220 430 235 C444 248 448 271 438 288 C430 302 413 309 396 307 C374 304 359 288 357 268 C356 254 361 245 369 237 Z" fill="#d79b2e" stroke="#8b5a17" stroke-width="5"/><path d="M378 233 L389 210 L402 234 Z" fill="#8b5a17"/><path d="M410 231 L419 210 L430 233 Z" fill="#8b5a17"/><path d="M381 232 L389 216 L397 233 Z" fill="#f2c96d"/><path d="M413 232 L419 216 L425 232 Z" fill="#f2c96d"/><ellipse cx="423" cy="274" rx="20" ry="14" fill="#f1d28c"/><circle cx="430" cy="270" r="3.5" fill="#2d1b0f"/><path d="M423 275 Q418 280 412 278" stroke="#2d1b0f" stroke-width="3" fill="none" stroke-linecap="round"/><circle cx="408" cy="258" r="4.5" fill="#2d1b0f"/><circle cx="210" cy="300" r="16" fill="#5a3a16"/><circle cx="210" cy="300" r="7" fill="#d79b2e"/><circle cx="252" cy="278" r="13" fill="#5a3a16"/><circle cx="252" cy="278" r="5" fill="#d79b2e"/><circle cx="296" cy="287" r="15" fill="#5a3a16"/><circle cx="296" cy="287" r="6" fill="#d79b2e"/><circle cx="336" cy="314" r="14" fill="#5a3a16"/><circle cx="336" cy="314" r="6" fill="#d79b2e"/><circle cx="245" cy="344" r="15" fill="#5a3a16"/><circle cx="245" cy="344" r="6" fill="#d79b2e"/><circle cx="314" cy="350" r="14" fill="#5a3a16"/><circle cx="314" cy="350" r="6" fill="#d79b2e"/><circle cx="184" cy="346" r="12" fill="#5a3a16"/><circle cx="184" cy="346" r="5" fill="#d79b2e"/><circle cx="355" cy="337" r="10" fill="#5a3a16"/><circle cx="355" cy="337" r="4" fill="#d79b2e"/><circle cx="391" cy="252" r="7" fill="#5a3a16"/><circle cx="389" cy="252" r="3" fill="#d79b2e"/><circle cx="420" cy="248" r="6" fill="#5a3a16"/><circle cx="420" cy="248" r="2.5" fill="#d79b2e"/><circle cx="401" cy="283" r="6" fill="#5a3a16"/><circle cx="401" cy="283" r="2.5" fill="#d79b2e"/><rect x="180" y="343" width="28" height="92" rx="14" fill="#d79b2e" stroke="#8b5a17" stroke-width="5"/><rect x="237" y="345" width="28" height="90" rx="14" fill="#d79b2e" stroke="#8b5a17" stroke-width="5"/><rect x="330" y="340" width="28" height="95" rx="14" fill="#d79b2e" stroke="#8b5a17" stroke-width="5"/><rect x="377" y="338" width="28" height="97" rx="14" fill="#d79b2e" stroke="#8b5a17" stroke-width="5"/><ellipse cx="194" cy="437" rx="18" ry="9" fill="#8b5a17"/><ellipse cx="251" cy="435" rx="18" ry="9" fill="#8b5a17"/><ellipse cx="344" cy="437" rx="18" ry="9" fill="#8b5a17"/><ellipse cx="391" cy="437" rx="18" ry="9" fill="#8b5a17"/><path d="M153 312 C118 300 105 276 112 255 C119 235 144 230 154 242 C162 251 157 264 146 267" fill="none" stroke="#d79b2e" stroke-width="14" stroke-linecap="round" stroke-linejoin="round"/><path d="M145 266 C131 270 126 283 128 295" fill="none" stroke="#8b5a17" stroke-width="5" stroke-linecap="round"/><path d="M110 252 C115 256 116 264 111 269" fill="none" stroke="#2d1b0f" stroke-width="10" stroke-linecap="round"/><circle cx="132" cy="260" r="6" fill="#5a3a16"/><circle cx="132" cy="260" r="2.5" fill="#d79b2e"/><circle cx="121" cy="280" r="5" fill="#5a3a16"/><circle cx="121" cy="280" r="2" fill="#d79b2e"/></svg>