<svg xmlns="http://www.w3.org/2000/svg" width="512" height="512" viewBox="0 0 512 512"><rect width="512" height="512" fill="#ffffff"/><g transform="translate(0,8)"><g transform="translate(108,126) rotate(-10 148 124)"><rect x="52" y="52" width="196" height="132" rx="18" fill="#4caf50" stroke="#2e7d32" stroke-width="8"/><path d="M72 72 h156 a12 12 0 0 1 12 12 v88 a12 12 0 0 1-12 12 H72 a12 12 0 0 1-12-12 V84 a12 12 0 0 1 12-12z" fill="#66bb6a" opacity="0.95"/><circle cx="150" cy="118" r="34" fill="#c8e6c9" stroke="#2e7d32" stroke-width="8"/><circle cx="150" cy="118" r="14" fill="#4caf50"/><path d="M62 84 h176" stroke="#2e7d32" stroke-width="6" opacity="0.45"/><path d="M62 160 h176" stroke="#2e7d32" stroke-width="6" opacity="0.45"/></g><g transform="translate(0,8)"><ellipse cx="344" cy="314" rx="62" ry="18" fill="#d8a84b" opacity="0.35"/><g transform="translate(292,198)"><ellipse cx="52" cy="26" rx="54" ry="18" fill="#f2c14e" stroke="#c98c1f" stroke-width="6"/><path d="M0 26v34c0 10 24 18 52 18s52-8 52-18V26" fill="#ffd766" stroke="#c98c1f" stroke-width="6"/><ellipse cx="52" cy="60" rx="52" ry="18" fill="#f2c14e" stroke="#c98c1f" stroke-width="6"/></g><g transform="translate(260,234)"><ellipse cx="56" cy="26" rx="54" ry="18" fill="#f2c14e" stroke="#c98c1f" stroke-width="6"/><path d="M2 26v34c0 10 24 18 54 18s54-8 54-18V26" fill="#ffd766" stroke="#c98c1f" stroke-width="6"/><ellipse cx="56" cy="60" rx="54" ry="18" fill="#f2c14e" stroke="#c98c1f" stroke-width="6"/></g><g transform="translate(228,270)"><ellipse cx="60" cy="26" rx="54" ry="18" fill="#f2c14e" stroke="#c98c1f" stroke-width="6"/><path d="M6 26v34c0 10 24 18 54 18s54-8 54-18V26" fill="#ffd766" stroke="#c98c1f" stroke-width="6"/><ellipse cx="60" cy="60" rx="54" ry="18" fill="#f2c14e" stroke="#c98c1f" stroke-width="6"/></g></g><g transform="translate(118,230)"><path d="M84 36c0-28 20-50 44-50s44 22 44 50c0 6-1 11-3 16 19 10 30 25 30 42 0 34-35 61-78 61s-78-27-78-61c0-17 11-32 30-42-2-5-3-10-3-16z" fill="#8d5a3b" stroke="#5d3925" stroke-width="8"/><path d="M84 36c0-28 20-50 44-50s44 22 44 50c0 6-1 11-3 16 19 10 30 25 30 42 0 34-35 61-78 61s-78-27-78-61c0-17 11-32 30-42-2-5-3-10-3-16z" fill="none" stroke="#a46b48" stroke-width="10" opacity="0.35"/><path d="M110 20c12 14 24 24 18 40-4 10-14 16-18 21-4-5-14-11-18-21-6-16 6-26 18-40z" fill="#d7b48a" stroke="#5d3925" stroke-width="6"/><path d="M136 34c-2 12-10 18-22 24" stroke="#5d3925" stroke-width="7" stroke-linecap="round" fill="none" opacity="0.7"/><circle cx="128" cy="104" r="10" fill="#d7b48a" opacity="0.9"/><circle cx="96" cy="104" r="10" fill="#d7b48a" opacity="0.9"/><circle cx="160" cy="104" r="10" fill="#d7b48a" opacity="0.9"/></g></g></svg>