<svg xmlns="http://www.w3.org/2000/svg" viewBox="0 0 512 512"><rect width="512" height="512" fill="#eef3f9"/><circle cx="256" cy="250" r="168" fill="#dde6f2"/><ellipse cx="256" cy="430" rx="98" ry="18" fill="#d7dfeb"/><g fill="none" stroke="#6b7280" stroke-width="6" stroke-linecap="round" stroke-linejoin="round"><path d="M104 210l-18-14"/><path d="M102 246l-24 0"/><path d="M408 210l18-14"/><path d="M410 246l24 0"/><path d="M146 336c-10 6-10 14 0 20"/><path d="M366 336c10 6 10 14 0 20"/><path d="M140 392l-18 12"/><path d="M372 392l18 12"/></g><circle cx="256" cy="170" r="74" fill="#ffd9b8" stroke="#243042" stroke-width="6"/><path d="M190 176c4-42 34-72 66-72s62 24 68 58c-18-10-34-12-50-10-18 2-32 8-43 15-14-10-28-14-41-13z" fill="#2f333a"/><g fill="none" stroke="#243042" stroke-width="6" stroke-linecap="round" stroke-linejoin="round"><path d="M218 155c10-8 20-11 32-8"/><path d="M294 155c-10-8-20-11-32-8"/><circle cx="231" cy="177" r="7" fill="#243042" stroke="none"/><circle cx="281" cy="177" r="7" fill="#243042" stroke="none"/><path d="M246 205c7 6 13 6 20 0"/><path d="M246 214c7 4 13 4 20 0"/></g><rect x="184" y="250" width="144" height="132" rx="28" fill="#7f92ab" stroke="#243042" stroke-width="6"/><rect x="242" y="236" width="28" height="32" rx="10" fill="#ffd9b8" stroke="#243042" stroke-width="6"/><path d="M188 285c-24 14-36 34-42 56" fill="none" stroke="#243042" stroke-width="6" stroke-linecap="round"/><path d="M324 285c24 14 36 34 42 56" fill="none" stroke="#243042" stroke-width="6" stroke-linecap="round"/><circle cx="236" cy="348" r="16" fill="#ffd9b8" stroke="#243042" stroke-width="6"/><circle cx="276" cy="348" r="16" fill="#ffd9b8" stroke="#243042" stroke-width="6"/><path d="M218 340c12-6 22-6 34 0" fill="none" stroke="#243042" stroke-width="6" stroke-linecap="round"/><path d="M294 340c-12-6-22-6-34 0" fill="none" stroke="#243042" stroke-width="6" stroke-linecap="round"/><path d="M230 380v60" fill="none" stroke="#243042" stroke-width="6" stroke-linecap="round"/><path d="M282 380v60" fill="none" stroke="#243042" stroke-width="6" stroke-linecap="round"/><path d="M209 438h42c10 0 18 8 18 18H191c0-10 8-18 18-18z" fill="#3c4756"/><path d="M261 438h42c10 0 18 8 18 18H243c0-10 8-18 18-18z" fill="#3c4756"/><path d="M184 118c8 14 14 22 14 33 0 8-6 14-14 14s-14-6-14-14c0-11 6-19 14-33z" fill="#77d5ff" stroke="none"/><path d="M330 124c7 11 12 18 12 28 0 7-5 12-12 12s-12-5-12-12c0-10 5-17 12-28z" fill="#77d5ff" stroke="none"/></svg>