<svg xmlns="http://www.w3.org/2000/svg" width="512" height="512" viewBox="0 0 512 512"><defs><linearGradient id="sky" x1="0" y1="0" x2="0" y2="1"><stop offset="0%" stop-color="#9ad9ff"/><stop offset="100%" stop-color="#e9fbff"/></linearGradient><linearGradient id="sea" x1="0" y1="0" x2="0" y2="1"><stop offset="0%" stop-color="#19a0ea"/><stop offset="100%" stop-color="#034b86"/></linearGradient></defs><rect width="512" height="512" fill="url(#sky)"/><circle cx="414" cy="102" r="36" fill="#ffd86b"/><rect y="214" width="512" height="298" fill="url(#sea)"/><path d="M0 250C60 226 114 226 174 250S292 274 352 250S452 226 512 250V512H0Z" fill="#0d78c6" opacity=".95"/><path d="M0 292C48 268 96 268 144 292S240 316 288 292S384 268 432 292S480 316 512 292" fill="none" stroke="#fff" stroke-width="7" stroke-linecap="round" opacity=".7"/><path d="M0 334C52 310 104 310 156 334S260 358 312 334S416 310 512 334" fill="none" stroke="#c9f3ff" stroke-width="6" stroke-linecap="round" opacity=".5"/><path d="M0 380C56 356 112 356 168 380S280 404 336 380S448 356 512 380" fill="none" stroke="#fff" stroke-width="5" stroke-linecap="round" opacity=".35"/><path d="M92 262C110 246 130 246 148 262" fill="none" stroke="#fff" stroke-width="7" stroke-linecap="round" opacity=".8"/><path d="M206 258C224 242 244 242 262 258" fill="none" stroke="#fff" stroke-width="7" stroke-linecap="round" opacity=".75"/><path d="M332 260C350 244 370 244 388 260" fill="none" stroke="#fff" stroke-width="7" stroke-linecap="round" opacity=".7"/></svg>