<svg xmlns="http://www.w3.org/2000/svg" viewBox="0 0 512 512"><defs><linearGradient id="skin" x1="0" y1="0" x2="1" y2="0"><stop offset="0%" stop-color="#4f8a2d"/><stop offset="35%" stop-color="#8fc943"/><stop offset="70%" stop-color="#cfd44f"/><stop offset="100%" stop-color="#f2b749"/></linearGradient><linearGradient id="flesh" x1="0" y1="0" x2="1" y2="0"><stop offset="0%" stop-color="#ffa531"/><stop offset="100%" stop-color="#ffcf62"/></linearGradient></defs><rect width="512" height="512" fill="#f7faf2"/><ellipse cx="276" cy="398" rx="156" ry="24" fill="#d9e6c8" opacity="0.7"/><g transform="rotate(-10 265 255)"><path d="M120 260 C120 190 180 150 265 150 C360 150 400 190 400 260 C400 330 360 360 265 360 C180 360 120 330 120 260 Z" fill="url(#skin)" stroke="#5e7429" stroke-width="5"/><path d="M136 260 C136 205 185 166 265 166 C350 166 384 205 384 260 C384 315 350 344 265 344 C185 344 136 315 136 260 Z" fill="url(#flesh)" stroke="#f2a33b" stroke-width="3"/><ellipse cx="321" cy="260" rx="58" ry="27" fill="#f6dfb3" opacity="0.96"/><ellipse cx="209" cy="206" rx="96" ry="30" fill="#fff7e0" opacity="0.18"/><g fill="#151515"><circle cx="292" cy="248" r="5"/><circle cx="304" cy="242" r="4"/><circle cx="316" cy="246" r="5"/><circle cx="328" cy="241" r="4"/><circle cx="340" cy="248" r="5"/><circle cx="346" cy="258" r="4"/><circle cx="339" cy="268" r="5"/><circle cx="327" cy="273" r="4"/><circle cx="314" cy="271" r="5"/><circle cx="302" cy="265" r="4"/><circle cx="294" cy="257" r="5"/><circle cx="305" cy="255" r="4"/><circle cx="318" cy="257" r="5"/><circle cx="330" cy="259" r="4"/><circle cx="321" cy="265" r="4"/><circle cx="309" cy="262" r="4"/><circle cx="343" cy="250" r="4"/><circle cx="347" cy="266" r="4"/></g></g><g transform="translate(118 349) rotate(20)"><ellipse cx="0" cy="0" rx="68" ry="28" fill="url(#skin)" stroke="#5e7429" stroke-width="4"/><rect x="-54" y="-5" width="12" height="10" rx="3" fill="#7c5528"/><path d="M-58 -4 C-84 -20 -84 -45 -52 -38 C-28 -34 -22 -7 -58 -4 Z" fill="#6fb546"/></g></svg>