<svg xmlns="http://www.w3.org/2000/svg" width="512" height="512" viewBox="0 0 512 512"><rect width="512" height="512" fill="#dff4ff"/><path d="M84 398 C170 360, 310 360, 428 402" fill="none" stroke="#7b4b20" stroke-width="28" stroke-linecap="round"/><path d="M126 312 L72 346 L130 364 Z" fill="#e63946"/><path d="M142 322 L98 374 L156 392 Z" fill="#3a86ff"/><path d="M150 300 L108 320 L152 338 Z" fill="#ffd166"/><ellipse cx="236" cy="280" rx="102" ry="122" fill="#39b54a"/><ellipse cx="220" cy="286" rx="58" ry="78" fill="#2f9e44" transform="rotate(-18 220 286)"/><ellipse cx="254" cy="325" rx="54" ry="68" fill="#a6d608" opacity="0.9"/><circle cx="318" cy="202" r="56" fill="#39b54a"/><path d="M308 155 L294 130 L320 148 L326 125 L338 150 Z" fill="#2f9e44"/><path d="M350 196 L401 182 L377 209 Z" fill="#f4b400"/><path d="M350 203 L396 212 L374 225 Z" fill="#e08b00"/><circle cx="327" cy="195" r="11" fill="#ffffff"/><circle cx="329" cy="196" r="5" fill="#111111"/><path d="M176 350 C182 385, 183 398, 176 420" fill="none" stroke="#8d5a2b" stroke-width="9" stroke-linecap="round"/><path d="M203 352 C206 388, 210 400, 218 421" fill="none" stroke="#8d5a2b" stroke-width="9" stroke-linecap="round"/><path d="M168 420 L152 432 M178 421 L166 438 M186 420 L190 439" stroke="#8d5a2b" stroke-width="5" stroke-linecap="round"/><path d="M210 421 L198 434 M218 421 L225 438 M228 420 L239 434" stroke="#8d5a2b" stroke-width="5" stroke-linecap="round"/><path d="M251 285 C236 307, 226 339, 228 376" fill="none" stroke="#1f7a34" stroke-width="10" stroke-linecap="round"/><path d="M284 282 C286 324, 282 354, 266 383" fill="none" stroke="#1f7a34" stroke-width="10" stroke-linecap="round"/><path d="M286 250 C312 260, 326 280, 332 309" fill="none" stroke="#1f7a34" stroke-width="8" stroke-linecap="round"/><path d="M282 230 C296 225, 311 227, 324 235" fill="none" stroke="#1f7a34" stroke-width="7" stroke-linecap="round"/></svg>