<svg xmlns="http://www.w3.org/2000/svg" viewBox="0 0 512 512"><rect width="512" height="512" fill="#d9f1ff"/><path d="M347 286 L418 255 L390 304 L435 334 L377 362 L416 425 L350 401 L362 351 L330 338 Z" fill="#ffd84d" stroke="#8b5a2b" stroke-width="10" stroke-linejoin="round"/><ellipse cx="256" cy="285" rx="114" ry="125" fill="#ffd84d" stroke="#2c2c2c" stroke-width="6"/><path d="M175 168 L137 83 L181 108 L206 62 L226 152 Z" fill="#ffd84d" stroke="#2c2c2c" stroke-width="6" stroke-linejoin="round"/><path d="M150 92 L182 108 L170 127 L137 83 Z" fill="#222"/><path d="M337 168 L375 83 L331 108 L306 62 L286 152 Z" fill="#ffd84d" stroke="#2c2c2c" stroke-width="6" stroke-linejoin="round"/><path d="M362 92 L331 108 L344 127 L375 83 Z" fill="#222"/><ellipse cx="217" cy="330" rx="31" ry="20" fill="#ffcf3f" stroke="#2c2c2c" stroke-width="6" transform="rotate(-18 217 330)"/><ellipse cx="295" cy="330" rx="31" ry="20" fill="#ffcf3f" stroke="#2c2c2c" stroke-width="6" transform="rotate(18 295 330)"/><ellipse cx="214" cy="260" rx="15" ry="18" fill="#222"/><ellipse cx="298" cy="260" rx="15" ry="18" fill="#222"/><circle cx="209" cy="253" r="4" fill="#fff"/><circle cx="293" cy="253" r="4" fill="#fff"/><circle cx="184" cy="302" r="15" fill="#ff4b5c"/><circle cx="328" cy="302" r="15" fill="#ff4b5c"/><path d="M246 284 Q256 294 266 284" fill="none" stroke="#2c2c2c" stroke-width="5" stroke-linecap="round"/><path d="M256 294 Q245 305 236 303" fill="none" stroke="#2c2c2c" stroke-width="5" stroke-linecap="round"/><path d="M256 294 Q267 305 276 303" fill="none" stroke="#2c2c2c" stroke-width="5" stroke-linecap="round"/><path d="M152 245 Q128 258 129 287 Q130 312 147 320 Q156 323 167 318" fill="none" stroke="#2c2c2c" stroke-width="12" stroke-linecap="round"/><path d="M360 245 Q384 258 383 287 Q382 312 365 320 Q356 323 345 318" fill="none" stroke="#2c2c2c" stroke-width="12" stroke-linecap="round"/><path d="M210 206 Q237 188 256 189 Q275 188 302 206" fill="none" stroke="#2c2c2c" stroke-width="6" stroke-linecap="round"/><path d="M176 381 Q220 361 256 370 Q292 361 336 381" fill="none" stroke="#2c2c2c" stroke-width="6" stroke-linecap="round"/><ellipse cx="256" cy="390" rx="90" ry="18" fill="#000" opacity=".12"/></svg>