<svg xmlns="http://www.w3.org/2000/svg" viewBox="0 0 512 512"><defs><linearGradient id="bg" x1="0" y1="0" x2="0" y2="1"><stop offset="0%" stop-color="#fff8ef"/><stop offset="100%" stop-color="#f7efe6"/></linearGradient><linearGradient id="pink" x1="0" y1="0" x2="1" y2="1"><stop offset="0%" stop-color="#ff6aa5"/><stop offset="55%" stop-color="#ea3c7b"/><stop offset="100%" stop-color="#c91f62"/></linearGradient><linearGradient id="pink2" x1="0" y1="0" x2="0" y2="1"><stop offset="0%" stop-color="#ff88b6"/><stop offset="100%" stop-color="#d81f6a"/></linearGradient><linearGradient id="green" x1="0" y1="0" x2="1" y2="1"><stop offset="0%" stop-color="#7ee05d"/><stop offset="100%" stop-color="#2e9b3d"/></linearGradient><linearGradient id="greenDark" x1="0" y1="0" x2="1" y2="1"><stop offset="0%" stop-color="#57c844"/><stop offset="100%" stop-color="#1f7d31"/></linearGradient></defs><rect width="512" height="512" fill="url(#bg)"/><ellipse cx="256" cy="402" rx="168" ry="28" fill="#d7c6b2" opacity="0.35"/><g transform="translate(165 284)"><ellipse cx="0" cy="0" rx="112" ry="154" fill="url(#pink)" stroke="#b81f5d" stroke-width="5"/><ellipse cx="-8" cy="-10" rx="86" ry="128" fill="#f8f6ef"/><ellipse cx="-18" cy="-22" rx="75" ry="114" fill="none" stroke="#efe7da" stroke-width="4" opacity="0.7"/><g fill="#1b1b1b" opacity="0.96"><ellipse cx="-38" cy="-66" rx="4" ry="6" transform="rotate(22 -38 -66)"/><ellipse cx="-16" cy="-76" rx="4" ry="6" transform="rotate(-18 -16 -76)"/><ellipse cx="10" cy="-70" rx="4" ry="6" transform="rotate(30 10 -70)"/><ellipse cx="32" cy="-56" rx="4" ry="6" transform="rotate(-10 32 -56)"/><ellipse cx="46" cy="-28" rx="4" ry="6" transform="rotate(15 46 -28)"/><ellipse cx="20" cy="-30" rx="4" ry="6" transform="rotate(-25 20 -30)"/><ellipse cx="-2" cy="-34" rx="4" ry="6" transform="rotate(10 -2 -34)"/><ellipse cx="-28" cy="-28" rx="4" ry="6" transform="rotate(-14 -28 -28)"/><ellipse cx="-50" cy="-8" rx="4" ry="6" transform="rotate(20 -50 -8)"/><ellipse cx="-22" cy="-2" rx="4" ry="6" transform="rotate(-18 -22 -2)"/><ellipse cx="6" cy="-6" rx="4" ry="6" transform="rotate(12 6 -6)"/><ellipse cx="34" cy="0" rx="4" ry="6" transform="rotate(-8 34 0)"/><ellipse cx="-38" cy="28" rx="4" ry="6" transform="rotate(16 -38 28)"/><ellipse cx="-12" cy="22" rx="4" ry="6" transform="rotate(-22 -12 22)"/><ellipse cx="16" cy="28" rx="4" ry="6" transform="rotate(14 16 28)"/><ellipse cx="44" cy="34" rx="4" ry="6" transform="rotate(-12 44 34)"/><ellipse cx="-26" cy="62" rx="4" ry="6" transform="rotate(18 -26 62)"/><ellipse cx="2" cy="58" rx="4" ry="6" transform="rotate(-18 2 58)"/><ellipse cx="28" cy="58" rx="4" ry="6" transform="rotate(10 28 58)"/><ellipse cx="52" cy="48" rx="4" ry="6" transform="rotate(-15 52 48)"/><ellipse cx="-8" cy="88" rx="4" ry="6" transform="rotate(8 -8 88)"/><ellipse cx="18" cy="84" rx="4" ry="6" transform="rotate(-10 18 84)"/><ellipse cx="44" cy="76" rx="4" ry="6" transform="rotate(16 44 76)"/><ellipse cx="-34" cy="-96" rx="4" ry="6" transform="rotate(24 -34 -96)"/></g><path d="M-110 -92 C-138 -130 -120 -168 -80 -176 C-82 -146 -86 -116 -94 -88 Z" fill="url(#green)" opacity="0.95"/><path d="M106 -88 C132 -128 118 -168 80 -176 C82 -146 86 -116 94 -86 Z" fill="url(#greenDark)" opacity="0.95"/><path d="M-116 6 C-144 -20 -144 14 -128 42 C-114 28 -108 14 -106 0 Z" fill="url(#greenDark)" opacity="0.95"/><path d="M112 8 C140 -18 142 16 126 44 C112 30 106 16 104 2 Z" fill="url(#green)" opacity="0.95"/><path d="M-96 110 C-124 92 -124 126 -108 156 C-92 142 -90 126 -88 112 Z" fill="url(#green)" opacity="0.95"/><path d="M96 110 C124 92 124 126 108 156 C92 142 90 126 88 112 Z" fill="url(#greenDark)" opacity="0.95"/><path d="M-16 -156 C-20 -178 -6 -192 10 -190 C20 -176 18 -160 8 -146 Z" fill="#1f7d31"/></g><g transform="translate(359 275) rotate(-10)"><ellipse cx="0" cy="0" rx="92" ry="132" fill="url(#pink2)" stroke="#b71f5c" stroke-width="5"/><ellipse cx="0" cy="0" rx="88" ry="126" fill="none" stroke="#ffb0c9" stroke-width="4" opacity="0.45"/><path d="M-8 -135 C-2 -165 18 -172 29 -158 C34 -143 27 -131 12 -122 Z" fill="#2e9b3d"/><path d="M-70 -94 C-89 -104 -104 -88 -100 -70 C-86 -68 -78 -74 -64 -84 Z" fill="url(#green)"/><path d="M69 -92 C88 -102 103 -86 100 -68 C86 -66 77 -72 63 -82 Z" fill="url(#greenDark)"/><path d="M-88 -20 C-110 -12 -112 14 -98 28 C-82 22 -75 12 -70 -2 Z" fill="url(#greenDark)"/><path d="M88 -18 C110 -10 112 16 98 30 C82 24 75 14 70 0 Z" fill="url(#green)"/><path d="M-74 78 C-92 88 -100 112 -88 126 C-70 120 -62 106 -58 90 Z" fill="url(#green)"/><path d="M72 80 C90 90 98 114 86 128 C68 122 60 108 56 92 Z" fill="url(#greenDark)"/><path d="M-18 132 C-10 152 8 160 24 154 C22 138 14 128 2 120 Z" fill="#1f7d31"/><ellipse cx="-4" cy="-18" rx="22" ry="36" fill="#ffffff" opacity="0.18"/></g></svg>