<svg xmlns="http://www.w3.org/2000/svg" viewBox="0 0 512 512"><defs><clipPath id="water"><rect x="0" y="300" width="512" height="212"/></clipPath></defs><rect width="512" height="512" fill="#cfeeff"/><circle cx="92" cy="92" r="34" fill="#ffd95a"/><path d="M0 300 C70 292 120 308 180 300 S300 292 380 300 S450 308 512 300 V512 H0 Z" fill="#64bff5"/><path d="M0 314 C80 304 132 322 200 314 S336 304 416 314 S480 322 512 314" fill="none" stroke="#a9e3ff" stroke-width="6" opacity=".55"/><g><ellipse cx="132" cy="268" rx="54" ry="10" fill="#4a8f3b" opacity=".25"/><rect x="126" y="172" width="16" height="98" rx="7" fill="#8b5a2b"/><circle cx="134" cy="148" r="34" fill="#2f8f46"/><circle cx="108" cy="164" r="25" fill="#2f8f46"/><circle cx="162" cy="164" r="25" fill="#2f8f46"/><circle cx="134" cy="126" r="24" fill="#2f8f46"/></g><g clip-path="url(#water)" opacity=".38" transform="translate(0 600) scale(1 -1)"><ellipse cx="132" cy="268" rx="54" ry="10" fill="#4a8f3b" opacity=".25"/><rect x="126" y="172" width="16" height="98" rx="7" fill="#8b5a2b"/><circle cx="134" cy="148" r="34" fill="#2f8f46"/><circle cx="108" cy="164" r="25" fill="#2f8f46"/><circle cx="162" cy="164" r="25" fill="#2f8f46"/><circle cx="134" cy="126" r="24" fill="#2f8f46"/></g><path d="M0 300 C40 295 70 305 110 300 S180 295 220 300 S290 305 330 300 S400 295 440 300 S480 305 512 300" fill="none" stroke="#d9f6ff" stroke-width="4" opacity=".7"/><path d="M40 316 C70 312 90 320 120 316" fill="none" stroke="#d9f6ff" stroke-width="3" opacity=".55"/></svg>