<svg xmlns="http://www.w3.org/2000/svg" width="512" height="512" viewBox="0 0 512 512"><rect width="512" height="512" fill="#09111f"/><circle cx="68" cy="84" r="3" fill="#ffffff" opacity="0.9"/><circle cx="414" cy="110" r="2.5" fill="#ffffff" opacity="0.8"/><circle cx="378" cy="54" r="2" fill="#ffffff" opacity="0.7"/><circle cx="120" cy="150" r="2" fill="#ffffff" opacity="0.6"/><circle cx="446" cy="220" r="3" fill="#ffffff" opacity="0.7"/><circle cx="88" cy="370" r="2.5" fill="#ffffff" opacity="0.8"/><ellipse cx="256" cy="410" rx="58" ry="16" fill="#1d2740" opacity="0.65"/><g><rect x="198" y="140" width="116" height="220" rx="58" fill="#f2f4f8"/><polygon points="256,58 318,140 194,140" fill="#de4d4d"/><polygon points="198,250 150,286 198,320" fill="#de4d4d"/><polygon points="314,250 362,286 314,320" fill="#de4d4d"/><rect x="238" y="120" width="36" height="24" rx="10" fill="#ffd166"/><circle cx="256" cy="205" r="28" fill="#4aa3ff" stroke="#1d4f91" stroke-width="8"/><circle cx="256" cy="205" r="12" fill="#cfe9ff" opacity="0.8"/><rect x="242" y="350" width="28" height="24" rx="10" fill="#5e6778"/><path d="M238 360 C236 382 222 398 210 414 C232 414 244 406 256 392 C268 406 280 414 302 414 C290 398 276 382 274 360 Z" fill="#ff8a00"/><path d="M244 360 C244 375 236 388 228 398 C242 397 249 392 256 382 C263 392 270 397 284 398 C276 388 268 375 268 360 Z" fill="#ffd166"/><path d="M256 425 C250 442 244 454 236 466 C248 462 254 458 256 450 C258 458 264 462 276 466 C268 454 262 442 256 425 Z" fill="#ff5f2e"/></g></svg>