<svg xmlns="http://www.w3.org/2000/svg" width="512" height="512" viewBox="0 0 512 512"><rect width="512" height="512" fill="#f7fbff"/><g fill="none" stroke="#1f4b99" stroke-width="10" stroke-linecap="round" stroke-linejoin="round"><ellipse cx="234" cy="190" rx="120" ry="52" transform="rotate(28 234 190)"/><ellipse cx="234" cy="190" rx="120" ry="52" transform="rotate(-28 234 190)"/><ellipse cx="234" cy="190" rx="120" ry="52"/></g><circle cx="234" cy="190" r="24" fill="#ffd34d" stroke="#1f4b99" stroke-width="8"/><circle cx="348" cy="190" r="12" fill="#ff6b6b" stroke="#1f4b99" stroke-width="6"/><circle cx="142" cy="136" r="12" fill="#ff6b6b" stroke="#1f4b99" stroke-width="6"/><circle cx="150" cy="250" r="12" fill="#ff6b6b" stroke="#1f4b99" stroke-width="6"/><path d="M342 128v56l46 90c13 25-5 55-34 55H314c-29 0-47-30-34-55l46-90v-56" fill="#ffffff" stroke="#1f4b99" stroke-width="10" stroke-linejoin="round"/><path d="M320 286h88c-3 18-16 29-34 29h-20c-18 0-31-11-34-29z" fill="#4cc9f0" opacity="0.85"/><circle cx="345" cy="245" r="8" fill="#4cc9f0"/><circle cx="363" cy="223" r="6" fill="#4cc9f0"/><circle cx="332" cy="220" r="5" fill="#4cc9f0"/><g fill="#ffcc4d" stroke="#1f4b99" stroke-width="6" stroke-linecap="round"><path d="M404 94l6 14 14 6-14 6-6 14-6-14-14-6 14-6z"/><path d="M108 380l5 11 11 5-11 5-5 11-5-11-11-5 11-5z"/></g></svg>