<svg xmlns="http://www.w3.org/2000/svg" viewBox="0 0 512 512">
  <rect width="512" height="512" fill="#d9f0e5"/>
  <path d="M60 140C150 115 362 115 452 140" stroke="#7a4b2a" stroke-width="30" stroke-linecap="round" fill="none"/>
  <path d="M122 135l-18 26M178 128l-15 30M244 125l-8 32M308 125l10 31M376 128l15 28" stroke="#6a3f25" stroke-width="8" stroke-linecap="round" fill="none"/>
  <ellipse cx="95" cy="110" rx="20" ry="14" fill="#a7d7a4" transform="rotate(-20 95 110)"/>
  <ellipse cx="400" cy="108" rx="22" ry="15" fill="#a7d7a4" transform="rotate(18 400 108)"/>

  <ellipse cx="256" cy="304" rx="100" ry="114" fill="#8b6b4f"/>
  <ellipse cx="256" cy="208" rx="74" ry="64" fill="#8b6b4f"/>
  <ellipse cx="256" cy="220" rx="50" ry="40" fill="#f2e3c9"/>
  <ellipse cx="256" cy="214" rx="28" ry="22" fill="#ffffff" opacity="0.35"/>
  <circle cx="196" cy="198" r="12" fill="#8b6b4f"/>
  <circle cx="316" cy="198" r="12" fill="#8b6b4f"/>
  <circle cx="196" cy="198" r="5" fill="#f2e3c9"/>
  <circle cx="316" cy="198" r="5" fill="#f2e3c9"/>
  <ellipse cx="230" cy="210" rx="11" ry="15" fill="#2f241c"/>
  <ellipse cx="282" cy="210" rx="11" ry="15" fill="#2f241c"/>
  <circle cx="226" cy="205" r="3" fill="#ffffff"/>
  <circle cx="278" cy="205" r="3" fill="#ffffff"/>
  <path d="M245 228q11 10 22 0" fill="none" stroke="#3b2c22" stroke-width="5" stroke-linecap="round"/>
  <path d="M248 242q8 6 16 0" fill="none" stroke="#3b2c22" stroke-width="5" stroke-linecap="round"/>
  <path d="M251 219l5 6 5-6" fill="#3b2c22"/>

  <path d="M219 175C202 176 193 161 184 138" fill="none" stroke="#8b6b4f" stroke-width="18" stroke-linecap="round" stroke-linejoin="round"/>
  <path d="M293 175C310 176 319 161 328 138" fill="none" stroke="#8b6b4f" stroke-width="18" stroke-linecap="round" stroke-linejoin="round"/>
  <path d="M175 137l-9-8M184 137l0-11M193 137l9-8" fill="none" stroke="#6a4a31" stroke-width="4" stroke-linecap="round"/>
  <path d="M319 137l-9-8M328 137l0-11M337 137l9-8" fill="none" stroke="#6a4a31" stroke-width="4" stroke-linecap="round"/>

  <path d="M219 380C205 403 194 418 177 431" fill="none" stroke="#8b6b4f" stroke-width="18" stroke-linecap="round" stroke-linejoin="round"/>
  <path d="M293 380C307 403 318 418 335 431" fill="none" stroke="#8b6b4f" stroke-width="18" stroke-linecap="round" stroke-linejoin="round"/>
  <path d="M168 431l-10-7M177 431l-2-11M186 431l10-7" fill="none" stroke="#6a4a31" stroke-width="4" stroke-linecap="round"/>
  <path d="M326 431l-10-7M335 431l-2-11M344 431l10-7" fill="none" stroke="#6a4a31" stroke-width="4" stroke-linecap="round"/>
</svg>