<svg xmlns="http://www.w3.org/2000/svg" viewBox="0 0 512 512" width="512" height="512">
  <rect width="512" height="512" fill="#7fcf67"/>
  <rect x="0" y="0" width="512" height="512" fill="none"/>
  <g opacity="0.18">
    <rect x="0" y="0" width="102" height="512" fill="#ffffff"/>
    <rect x="204" y="0" width="102" height="512" fill="#ffffff"/>
    <rect x="408" y="0" width="104" height="512" fill="#ffffff"/>
  </g>
  <g transform="translate(332 230)">
    <rect x="0" y="0" width="116" height="100" rx="4" fill="none" stroke="#ffffff" stroke-width="8"/>
    <g stroke="#ffffff" stroke-width="3" opacity="0.9">
      <path d="M0 20H116M0 40H116M0 60H116M0 80H116"/>
      <path d="M20 0V100M40 0V100M60 0V100M80 0V100M100 0V100"/>
      <path d="M0 0L116 100M116 0L0 100"/>
    </g>
  </g>
  <ellipse cx="200" cy="392" rx="92" ry="18" fill="#3e8d3a" opacity="0.35"/>
  <g transform="translate(182 286)">
    <circle cx="0" cy="0" r="96" fill="#f8f8f8" stroke="#111111" stroke-width="8"/>
    <polygon points="0,-28 26,-8 16,24 -16,24 -26,-8" fill="#111111"/>
    <polygon points="0,-80 20,-66 14,-44 -14,-44 -20,-66" fill="#111111"/>
    <polygon points="66,-18 84,0 76,24 52,24 44,0" fill="#111111"/>
    <polygon points="40,55 58,68 50,90 30,90 22,68" fill="#111111"/>
    <polygon points="-40,55 -22,68 -30,90 -50,90 -58,68" fill="#111111"/>
    <polygon points="-66,-18 -44,0 -52,24 -76,24 -84,0" fill="#111111"/>
    <path d="M-14 -44 L-40 -18 L-26 -8 M14 -44 L40 -18 L26 -8 M-16 24 L-30 55 M16 24 L30 55 M-52 24 L-40 55 M52 24 L40 55 M-14 -44 L-66 -18 M14 -44 L66 -18" fill="none" stroke="#111111" stroke-width="5" stroke-linecap="round" stroke-linejoin="round"/>
    <circle cx="0" cy="0" r="96" fill="none" stroke="#111111" stroke-width="4" opacity="0.25"/>
  </g>
  <path d="M90 300 C120 282, 136 278, 158 286" fill="none" stroke="#ffffff" stroke-width="8" stroke-linecap="round" opacity="0.9"/>
  <path d="M105 332 C118 326, 128 323, 139 324" fill="none" stroke="#ffffff" stroke-width="6" stroke-linecap="round" opacity="0.7"/>
</svg>