<svg xmlns="http://www.w3.org/2000/svg" viewBox="0 0 512 512"><rect width="512" height="512" fill="#eef3f8"/><circle cx="410" cy="108" r="58" fill="#dfe9ff"/><circle cx="102" cy="420" r="78" fill="#e6f4ea"/><ellipse cx="256" cy="438" rx="168" ry="24" fill="#dbe3ec"/><rect x="96" y="110" width="320" height="220" rx="18" fill="#263042"/><rect x="108" y="124" width="296" height="192" rx="12" fill="#f8fbff"/><rect x="108" y="124" width="296" height="32" rx="12" fill="#7486ff"/><circle cx="128" cy="140" r="6" fill="#ff6b6b"/><circle cx="148" cy="140" r="6" fill="#ffd166"/><circle cx="168" cy="140" r="6" fill="#6ce38b"/><rect x="126" y="176" width="110" height="120" rx="16" fill="#ffffff" stroke="#d8e1ec" stroke-width="3"/><g transform="translate(181 236)"><circle r="30" fill="#7486ff"/><rect x="-5" y="-40" width="10" height="16" rx="2" fill="#7486ff" transform="rotate(0)"/><rect x="-5" y="-40" width="10" height="16" rx="2" fill="#7486ff" transform="rotate(45)"/><rect x="-5" y="-40" width="10" height="16" rx="2" fill="#7486ff" transform="rotate(90)"/><rect x="-5" y="-40" width="10" height="16" rx="2" fill="#7486ff" transform="rotate(135)"/><rect x="-5" y="-40" width="10" height="16" rx="2" fill="#7486ff" transform="rotate(180)"/><rect x="-5" y="-40" width="10" height="16" rx="2" fill="#7486ff" transform="rotate(225)"/><rect x="-5" y="-40" width="10" height="16" rx="2" fill="#7486ff" transform="rotate(270)"/><rect x="-5" y="-40" width="10" height="16" rx="2" fill="#7486ff" transform="rotate(315)"/><circle r="16" fill="#ffffff"/><circle r="7" fill="#7486ff"/></g><rect x="248" y="176" width="122" height="52" rx="14" fill="#ffffff" stroke="#d8e1ec" stroke-width="3"/><rect x="266" y="192" width="74" height="8" rx="4" fill="#dfe6f2"/><rect x="266" y="206" width="92" height="8" rx="4" fill="#dfe6f2"/><rect x="248" y="242" width="122" height="54" rx="14" fill="#ffffff" stroke="#d8e1ec" stroke-width="3"/><rect x="264" y="256" width="18" height="18" rx="4" fill="#6ce38b"/><rect x="288" y="256" width="18" height="18" rx="4" fill="#ffd166"/><rect x="312" y="256" width="18" height="18" rx="4" fill="#ff6b6b"/><rect x="336" y="256" width="18" height="18" rx="4" fill="#7486ff"/><rect x="248" y="304" width="122" height="14" rx="7" fill="#dfe6f2"/><rect x="216" y="330" width="80" height="16" rx="6" fill="#1d2531"/><path d="M80 346 H432 L470 414 H42 Z" fill="#263042"/><path d="M110 356 H402 L416 386 H96 Z" fill="#3a4352"/><rect x="220" y="372" width="72" height="8" rx="4" fill="#616b7a"/></svg>