<svg xmlns="http://www.w3.org/2000/svg" viewBox="0 0 512 512"><rect width="512" height="512" fill="#dff3ff"/><rect x="0" y="292" width="512" height="220" fill="#6ecb6f"/><rect x="46" y="312" width="420" height="172" rx="18" fill="#79d86c" stroke="#ffffff" stroke-width="8"/><path d="M256 312V484M46 398H466" stroke="#ffffff" stroke-width="6" stroke-linecap="round" opacity="0.9"/><g transform="translate(356 165) rotate(18)"><ellipse cx="0" cy="0" rx="58" ry="72" fill="#f7f7f7" stroke="#3d3d3d" stroke-width="10"/><ellipse cx="0" cy="0" rx="42" ry="56" fill="none" stroke="#8a8a8a" stroke-width="4"/><path d="M-34 -18H34M-34 0H34M-34 18H34M-18 -46V46M0 -46V46M18 -46V46" stroke="#a8a8a8" stroke-width="3" stroke-linecap="round"/><rect x="-7" y="70" width="14" height="110" rx="7" fill="#8b5a2b"/><rect x="-11" y="176" width="22" height="32" rx="10" fill="#5f3719"/></g><g transform="translate(145 180)"><circle cx="0" cy="0" r="40" fill="#dfff4f" stroke="#b6d93b" stroke-width="8"/><path d="M-20 -24C4 -10 16 14 12 42" fill="none" stroke="#ffffff" stroke-width="6" stroke-linecap="round"/><path d="M22 -24C-2 -10 -14 14 -10 42" fill="none" stroke="#ffffff" stroke-width="6" stroke-linecap="round"/><circle cx="-13" cy="-14" r="8" fill="#ffffff" opacity="0.35"/></g></svg>