<svg xmlns="http://www.w3.org/2000/svg" width="512" height="512" viewBox="0 0 512 512"><rect width="512" height="512" fill="#e5f6ff"/><circle cx="418" cy="98" r="36" fill="#ffd86d"/><path d="M0 404H512V512H0Z" fill="#203248"/><path d="M52 342C104 286 160 278 218 308C258 330 300 332 346 304C390 278 430 280 472 310" fill="none" stroke="#9ec4e3" stroke-width="18" stroke-linecap="round" opacity="0.6"/><rect x="34" y="324" width="54" height="80" fill="#31465d"/><rect x="94" y="292" width="46" height="112" fill="#24384e"/><rect x="146" y="334" width="34" height="70" fill="#2d4054"/><rect x="326" y="304" width="56" height="100" fill="#263a50"/><rect x="388" y="330" width="36" height="74" fill="#31465d"/><rect x="430" y="292" width="48" height="112" fill="#24384e"/><path d="M196 362L228 286H284L316 362" fill="none" stroke="#d94b4b" stroke-width="12" stroke-linecap="round" stroke-linejoin="round"/><path d="M256 146L256 108" stroke="#d94b4b" stroke-width="10" stroke-linecap="round"/><circle cx="256" cy="100" r="7" fill="#d94b4b"/><rect x="224" y="178" width="64" height="10" rx="5" fill="#fff7f7"/><rect x="218" y="228" width="76" height="10" rx="5" fill="#fff7f7"/><rect x="212" y="280" width="88" height="10" rx="5" fill="#fff7f7"/><rect x="206" y="330" width="100" height="10" rx="5" fill="#fff7f7"/><path d="M216 286L256 240L296 286" fill="none" stroke="#d94b4b" stroke-width="12" stroke-linecap="round" stroke-linejoin="round"/><path d="M204 348H308M210 325H302M216 302H296" stroke="#b93636" stroke-width="8" stroke-linecap="round"/></svg>