<svg xmlns="http://www.w3.org/2000/svg" width="512" height="512" viewBox="0 0 512 512"><defs><radialGradient id="bg" cx="50%" cy="42%" r="75%"><stop offset="0%" stop-color="#1523ff"/><stop offset="40%" stop-color="#07102a"/><stop offset="100%" stop-color="#000000"/></radialGradient><radialGradient id="core" cx="35%" cy="30%" r="70%"><stop offset="0%" stop-color="#fffbd1"/><stop offset="32%" stop-color="#ffffff"/><stop offset="60%" stop-color="#ff4fd8"/><stop offset="100%" stop-color="#00eaff"/></radialGradient><filter id="glow" x="-60%" y="-60%" width="220%" height="220%"><feGaussianBlur stdDeviation="10" result="b"/><feMerge><feMergeNode in="b"/><feMergeNode in="SourceGraphic"/></feMerge></filter></defs><rect width="512" height="512" fill="url(#bg)"/><g filter="url(#glow)" opacity="0.96"><ellipse cx="256" cy="256" rx="24" ry="132" fill="#ff2d55" transform="rotate(0 256 256)"/><ellipse cx="256" cy="256" rx="24" ry="132" fill="#ff7a00" transform="rotate(30 256 256)"/><ellipse cx="256" cy="256" rx="24" ry="132" fill="#ffd400" transform="rotate(60 256 256)"/><ellipse cx="256" cy="256" rx="24" ry="132" fill="#8cff00" transform="rotate(90 256 256)"/><ellipse cx="256" cy="256" rx="24" ry="132" fill="#00eaff" transform="rotate(120 256 256)"/><ellipse cx="256" cy="256" rx="24" ry="132" fill="#2d7bff" transform="rotate(150 256 256)"/><ellipse cx="256" cy="256" rx="24" ry="132" fill="#7b2dff" transform="rotate(180 256 256)"/><ellipse cx="256" cy="256" rx="24" ry="132" fill="#ff2dd8" transform="rotate(210 256 256)"/><ellipse cx="256" cy="256" rx="24" ry="132" fill="#ff2d55" transform="rotate(240 256 256)"/><ellipse cx="256" cy="256" rx="24" ry="132" fill="#ff7a00" transform="rotate(270 256 256)"/><ellipse cx="256" cy="256" rx="24" ry="132" fill="#ffd400" transform="rotate(300 256 256)"/><ellipse cx="256" cy="256" rx="24" ry="132" fill="#00eaff" transform="rotate(330 256 256)"/><circle cx="256" cy="256" r="70" fill="url(#core)" stroke="#ffffff" stroke-width="6"/><circle cx="170" cy="180" r="20" fill="#ffffff" opacity="0.9"/><circle cx="348" cy="172" r="18" fill="#ff2d55" opacity="0.95"/><circle cx="384" cy="284" r="14" fill="#8cff00" opacity="0.95"/><circle cx="132" cy="306" r="16" fill="#00eaff" opacity="0.95"/><circle cx="220" cy="394" r="12" fill="#ffd400" opacity="0.95"/><circle cx="310" cy="392" r="12" fill="#7b2dff" opacity="0.95"/><circle cx="98" cy="128" r="10" fill="#ff7a00" opacity="0.9"/><circle cx="414" cy="116" r="10" fill="#ff2dd8" opacity="0.9"/><circle cx="74" cy="246" r="8" fill="#ffffff" opacity="0.8"/><circle cx="438" cy="246" r="8" fill="#ffffff" opacity="0.8"/><circle cx="256" cy="118" r="10" fill="#ffffff" opacity="0.85"/></g><g opacity="0.8"><path d="M256 64 L276 116 L332 124 L286 160 L298 216 L256 186 L214 216 L226 160 L180 124 L236 116 Z" fill="#ffffff" opacity="0.18"/><path d="M256 448 L276 396 L332 388 L286 352 L298 296 L256 326 L214 296 L226 352 L180 388 L236 396 Z" fill="#ffffff" opacity="0.12"/></g></svg>