<svg xmlns="http://www.w3.org/2000/svg" viewBox="0 0 512 512"><rect width="512" height="512" fill="#f6f2e8"/><ellipse cx="256" cy="435" rx="150" ry="18" fill="#d9d0c4"/><rect x="78" y="66" width="356" height="34" rx="14" fill="#6a4526"/><rect x="92" y="92" width="328" height="342" rx="22" fill="#8b5a33" stroke="#5a381f" stroke-width="4"/><rect x="110" y="110" width="292" height="306" rx="14" fill="#7a4f2b"/><rect x="170" y="138" width="172" height="248" rx="10" fill="#4a3422"/><line x1="190" y1="170" x2="322" y2="170" stroke="#d8bf8f" stroke-width="6" stroke-linecap="round"/><path d="M182 210 L196 186 L210 210 L221 206 L230 218 L230 300 L164 300 L164 218 L173 206 Z" fill="#59a5d8"/><path d="M242 208 L256 184 L270 208 L282 206 L292 220 L292 300 L220 300 L220 220 L230 206 Z" fill="#88c85f"/><path d="M300 208 L314 186 L328 208 L340 206 L348 220 L348 300 L284 300 L284 220 L292 206 Z" fill="#e27a76"/><rect x="126" y="130" width="118" height="250" rx="10" fill="#9a673d" stroke="#5a381f" stroke-width="3" transform="rotate(-11 126 255)"/><rect x="268" y="130" width="118" height="250" rx="10" fill="#9a673d" stroke="#5a381f" stroke-width="3" transform="rotate(11 386 255)"/><rect x="141" y="146" width="8" height="215" rx="4" fill="#b88955" opacity="0.6"/><rect x="363" y="146" width="8" height="215" rx="4" fill="#b88955" opacity="0.6"/><rect x="227" y="236" width="8" height="34" rx="4" fill="#d8bf8f"/><rect x="277" y="236" width="8" height="34" rx="4" fill="#d8bf8f"/><rect x="112" y="428" width="288" height="16" rx="8" fill="#5a381f"/></svg>