<svg xmlns="http://www.w3.org/2000/svg" width="512" height="512" viewBox="0 0 512 512"><rect width="512" height="512" fill="#ffffff"/><g transform="translate(95,130)"><path d="M42 149c12-20 35-31 66-31s54 11 66 31v70H42z" fill="#7e60b7"/><circle cx="76" cy="76" r="58" fill="#f2c9a0"/><path d="M33 78c6-39 33-64 66-64 26 0 48 11 61 31-17-4-33-6-53-6-28 0-53 8-74 21z" fill="#5d4335"/><ellipse cx="24" cy="80" rx="8" ry="15" fill="#f2c9a0"/><circle cx="68" cy="82" r="4" fill="#35251f"/><path d="M79 96c7 3 12 3 17 0" fill="none" stroke="#a35f4a" stroke-width="4" stroke-linecap="round"/><path d="M90 108c16 6 29 17 39 30" fill="none" stroke="#f2c9a0" stroke-width="16" stroke-linecap="round"/><path d="M121 126c-3-5-2-11 3-15 6-5 14-5 20-2 6 4 9 10 8 16-1 8-6 14-14 17-8 2-16-1-21-8z" fill="#f2c9a0"/><path d="M92 114c8 10 15 22 21 34" fill="none" stroke="#f2c9a0" stroke-width="10" stroke-linecap="round"/></g><g transform="translate(292,125)"><path d="M15 150c12-21 35-33 64-33s52 12 64 33v70H15z" fill="#5c87b2"/><circle cx="78" cy="82" r="58" fill="#f2c9a0"/><path d="M29 84c7-39 35-63 72-63 23 0 44 8 58 23-19 0-37 5-54 14-18 10-32 20-44 35z" fill="#6b4b3b"/><ellipse cx="21" cy="82" rx="8" ry="15" fill="#f2c9a0"/><path d="M30 88c8 8 16 10 23 10" fill="none" stroke="#7a4c3d" stroke-width="5" stroke-linecap="round"/><path d="M80 102c8 4 14 10 18 19" fill="none" stroke="#7a4c3d" stroke-width="5" stroke-linecap="round"/></g><g fill="none" stroke="#86b8cc" stroke-linecap="round" opacity="0.6"><path d="M222 188c18-12 36-12 54 0" stroke-width="6"/><path d="M233 205c22-13 44-13 66 0" stroke-width="5" opacity="0.45"/><path d="M246 221c16-8 32-8 48 0" stroke-width="4" opacity="0.3"/></g></svg>