<svg xmlns="http://www.w3.org/2000/svg" width="512" height="512" viewBox="0 0 512 512"><rect width="512" height="512" fill="#f7fbff"/><path d="M40 180 C120 120 210 120 290 180 S450 240 470 170" fill="none" stroke="#9fd3ff" stroke-width="18" stroke-linecap="round" stroke-linejoin="round"/><path d="M60 250 C150 190 250 200 340 250 S450 300 500 240" fill="none" stroke="#7fc4f5" stroke-width="16" stroke-linecap="round" stroke-linejoin="round" opacity="0.9"/><path d="M30 330 C130 270 230 280 320 335 S440 395 490 330" fill="none" stroke="#b7e3ff" stroke-width="14" stroke-linecap="round" stroke-linejoin="round" opacity="0.95"/><path d="M92 105 C92 105 92 105 92 105" fill="none" stroke="#6b7280" stroke-width="10" stroke-linecap="round"/><rect x="88" y="105" width="8" height="230" rx="4" fill="#6b7280"/><path d="M96 128 L170 145 L170 182 L96 165 Z" fill="#ff6b6b"/><path d="M96 141 L170 158" stroke="#ffd6d6" stroke-width="6" stroke-linecap="round" opacity="0.9"/><path d="M96 154 L170 170" stroke="#ffd6d6" stroke-width="6" stroke-linecap="round" opacity="0.9"/><path d="M405 146 C419 136 435 136 446 148 C438 162 421 167 405 146Z" fill="#8ad36f" transform="rotate(-18 426 151)"/><path d="M432 232 C446 222 462 223 472 236 C464 248 447 253 432 232Z" fill="#8ad36f" transform="rotate(20 452 239)"/><path d="M374 312 C388 302 404 303 414 316 C406 328 389 333 374 312Z" fill="#8ad36f" transform="rotate(-10 394 319)"/><path d="M470 112 C476 120 477 130 471 138 C461 136 454 127 470 112Z" fill="#f4c56a" opacity="0.9"/><circle cx="470" cy="170" r="6" fill="#9fd3ff" opacity="0.8"/><circle cx="500" cy="240" r="5" fill="#7fc4f5" opacity="0.75"/><circle cx="490" cy="330" r="4" fill="#b7e3ff" opacity="0.8"/></svg>