<svg width="512" height="512" xmlns="http://www.w3.org/2000/svg">
  <rect width="512" height="512" fill="#1a1a1a"/>

  <!-- Scattered circles -->
  <circle cx="100" cy="100" r="40" fill="#FF0000" opacity="0.8"/>
  <circle cx="400" cy="150" r="25" fill="#FFFF00" opacity="0.7"/>
  <circle cx="250" cy="300" r="50" fill="#0000FF" opacity="0.9"/>
  <circle cx="50" cy="400" r="30" fill="#00FF00" opacity="0.6"/>
  <circle cx="450" cy="450" r="35" fill="#FFA500" opacity="0.8"/>
  <circle cx="150" cy="250" r="20" fill="#800080" opacity="0.7"/>
  <circle cx="350" cy="100" r="30" fill="#00FFFF" opacity="0.8"/>
  <circle cx="200" cy="450" r="40" fill="#FF00FF" opacity="0.6"/>
  <circle cx="300" cy="50" r="22" fill="#FF4500" opacity="0.7"/>
  <circle cx="50" cy="200" r="38" fill="#DA70D6" opacity="0.8"/>
  <circle cx="180" cy="180" r="33" fill="#FF6347" opacity="0.7"/>
  <circle cx="380" cy="380" r="28" fill="#FFD700" opacity="0.8"/>

  <!-- Scattered squares -->
  <rect x="50" y="150" width="50" height="50" fill="#FF0000" opacity="0.7"/>
  <rect x="300" y="200" width="40" height="40" fill="#FFFF00" opacity="0.8"/>
  <rect x="400" y="300" width="60" height="60" fill="#0000FF" opacity="0.6"/>
  <rect x="100" y="350" width="30" height="30" fill="#00FF00" opacity="0.9"/>
  <rect x="200" y="50" width="45" height="45" fill="#FFA500" opacity="0.7"/>
  <rect x="450" y="200" width="35" height="35" fill="#800080" opacity="0.8"/>
  <rect x="150" y="500" width="28" height="28" fill="#00FFFF" opacity="0.7"/>
  <rect x="380" y="400" width="42" height="42" fill="#FF00FF" opacity="0.6"/>
  <rect x="120" y="280" width="55" height="55" fill="#4682B4" opacity="0.7"/>
  <rect x="320" y="120" width="48" height="48" fill="#20B2AA" opacity="0.8"/>

  <!-- Scattered triangles -->
  <polygon points="200,100 230,150 170,150" fill="#FF0000" opacity="0.8"/>
  <polygon points="350,350 380,400 320,400" fill="#FFFF00" opacity="0.7"/>
  <polygon points="50,250 80,300 20,300" fill="#0000FF" opacity="0.9"/>
  <polygon points="400,50 430,100 370,100" fill="#00FF00" opacity="0.6"/>
  <polygon points="250,400 280,450 220,450" fill="#FFA500" opacity="0.8"/>
  <polygon points="100,50 130,100 70,100" fill="#800080" opacity="0.7"/>
  <polygon points="450,250 480,300 420,300" fill="#00FFFF" opacity="0.8"/>

  <!-- Jagged lines and dots -->
  <line x1="10" y1="10" x2="50" y2="60" stroke="#FFFFFF" stroke-width="6" opacity="0.7" stroke-linecap="round"/>
  <line x1="500" y1="20" x2="450" y2="70" stroke="#FFFFFF" stroke-width="6" opacity="0.7" stroke-linecap="round"/>
  <line x1="20" y1="500" x2="70" y2="450" stroke="#FFFFFF" stroke-width="6" opacity="0.7" stroke-linecap="round"/>
  <line x1="480" y1="500" x2="430" y2="450" stroke="#FFFFFF" stroke-width="6" opacity="0.7" stroke-linecap="round"/>
  <line x1="100" y1="40" x2="120" y2="20" stroke="#FFFFFF" stroke-width="4" opacity="0.6" stroke-linecap="round"/>
  <line x1="400" y1="480" x2="420" y2="500" stroke="#FFFFFF" stroke-width="4" opacity="0.6" stroke-linecap="round"/>
  <line x1="250" y1="10" x2="270" y2="30" stroke="#FFFFFF" stroke-width="5" opacity="0.7" stroke-linecap="round"/>
  <line x1="280" y1="480" x2="300" y2="500" stroke="#FFFFFF" stroke-width="5" opacity="0.7" stroke-linecap="round"/>

  <circle cx="300" cy="300" r="4" fill="#FFFFFF" opacity="0.9"/>
  <circle cx="150" cy="150" r="5" fill="#FFFFFF" opacity="0.8"/>
  <circle cx="400" cy="400" r="3" fill="#FFFFFF" opacity="0.7"/>
  <circle cx="220" cy="220" r="6" fill="#FFFFFF" opacity="0.9"/>
  <circle cx="80" cy="320" r="3" fill="#FFFFFF" opacity="0.7"/>
  <circle cx="480" cy="180" r="4" fill="#FFFFFF" opacity="0.8"/>
  <circle cx="270" cy="150" r="5" fill="#FFFFFF" opacity="0.9"/>
  <circle cx="100" cy="450" r="4" fill="#FFFFFF" opacity="0.7"/>

  <!-- Overlapping elements for more chaos -->
  <circle cx="256" cy="256" r="70" fill="#FF6347" opacity="0.7"/>
  <rect x="230" y="230" width="60" height="60" fill="#FFD700" opacity="0.8"/>
  <polygon points="240,240 280,290 200,290" fill="#4682B4" opacity="0.9"/>
  <circle cx="270" cy="270" r="40" fill="#DA70D6" opacity="0.7"/>
  <rect x="250" y="250" width="40" height="40" fill="#20B2AA" opacity="0.8"/>

</svg>