<svg width="512" height="512" xmlns="http://www.w3.org/2000/svg">
  <!-- Background stars -->
  <circle cx="50" cy="50" r="2" fill="white"/>
  <circle cx="120" cy="180" r="2" fill="white"/>
  <circle cx="300" cy="100" r="2" fill="white"/>
  <circle cx="450" cy="300" r="2" fill="white"/>
  <circle cx="200" cy="400" r="2" fill="white"/>
  <circle cx="400" cy="450" r="2" fill="white"/>
  <circle cx="80" cy="350" r="2" fill="white"/>
  <circle cx="480" cy="150" r="2" fill="white"/>
  <circle cx="350" cy="480" r="2" fill="white"/>
  <circle cx="100" cy="250" r="2" fill="white"/>
  <circle cx="420" cy="80" r="2" fill="white"/>
  <circle cx="250" cy="40" r="2" fill="white"/>
  <circle cx="500" cy="400" r="2" fill="white"/>
  <circle cx="150" cy="480" r="2" fill="white"/>
  <circle cx="30" cy="300" r="2" fill="white"/>

  <!-- Mars planet -->
  <circle cx="256" cy="256" r="150" fill="#C1440E"/>

  <!-- Surface features -->
  <!-- Darker region 1 -->
  <ellipse cx="220" cy="200" rx="70" ry="40" fill="#8B3200" transform="rotate(-30 220 200)"/>
  <!-- Darker region 2 -->
  <ellipse cx="300" cy="320" rx="50" ry="30" fill="#8B3200" transform="rotate(20 300 320)"/>
  <!-- Lighter region (ice cap) -->
  <ellipse cx="180" cy="150" rx="30" ry="20" fill="#E08B60"/>
  <!-- A small crater -->
  <circle cx="380" cy="180" r="15" fill="#8B3200" opacity="0.7"/>
</svg>