<svg width="512" height="512" viewBox="0 0 512 512" xmlns="http://www.w3.org/2000/svg">
  <!-- Ear shape representing listening/receiving a whisper -->
  <path d="M 180 150 Q 150 180 150 200 Q 150 220 180 250 Q 210 220 210 200 Q 210 180 180 150 Z" fill="#E0E0E0" stroke="#A0A0A0" stroke-width="2"/>
  <path d="M 170 170 Q 160 185 160 200 Q 160 215 170 230" fill="none" stroke="#A0A0A0" stroke-width="2"/>
  <path d="M 180 240 Q 190 245 195 240" fill="#E0E0E0" stroke="#A0A0A0" stroke-width="2"/>

  <!-- Subtle sound waves indicating a whisper -->
  <path d="M 160 200 Q 180 180 200 200 Q 220 220 240 200" stroke="#B0C4DE" stroke-width="1.5" fill="none" opacity="0.6"/>
  <path d="M 160 200 Q 180 190 200 200 Q 220 210 240 200" stroke="#B0C4DE" stroke-width="1.5" fill="none" opacity="0.6"/>
  <path d="M 160 200 Q 180 210 200 200 Q 220 190 240 200" stroke="#B0C4DE" stroke-width="1.5" fill="none" opacity="0.6"/>
</svg>