<svg xmlns="http://www.w3.org/2000/svg" width="512" height="512"><rect width="512" height="512" fill="#f6f1e6"/><g fill="none" stroke-linecap="round" stroke-width="16" stroke="#8b5a2b"><path d="M160 360c0 40 20 60 80 60s80-20 80-60" fill="#4b2d1c" stroke="#4b2d1c" stroke-width="1"/><path d="M160 360c0 0 0-160 160-160s160 160 160 160" fill="#d8b58f"/><path d="M160 360h240" stroke="#4b2d1c" stroke-width="14"/><path d="M220 400c10 20 20 30 40 30s30-10 40-30" fill="#4b2d1c"/><path d="M200 340c0-50 40-90 80-90s80 40 80 90" fill="none" stroke="#4b2d1c" stroke-width="18"/><path d="M192 290s-14-30 6-64c16-26 52-38 92-26 34 10 48 52 50 64" stroke="#9e6c3e" stroke-width="10" fill="none" stroke-linecap="round"/> <path d="M240 210c0-30 24-50 24-50" stroke="#a16a3d" stroke-width="10"/><path d="M264 210c0-30 24-50 24-50" stroke="#a16a3d" stroke-width="10"/> <path d="M210 320c-24 24-38 40-62 16s16-62 40-38" fill="#3d1f12" stroke="#3d1f12" stroke-width="2"/><path d="M320 320c24 24 38 40 62 16s-16-62-40-38" fill="#3d1f12" stroke="#3d1f12" stroke-width="2"/><path d="M244 240c0-12 22-36 22-36" stroke="#fff" stroke-width="6" stroke-linecap="round" opacity="0.3"/><path d="M280 240c0-12 22-36 22-36" stroke="#fff" stroke-width="6" stroke-linecap="round" opacity="0.3"/></g></svg>