<svg xmlns="http://www.w3.org/2000/svg" width="512" height="512"><rect width="512" height="512" fill="#121212"/><g stroke="#FFD700" stroke-width="6" fill="none" stroke-linecap="round"><path d="M40 80c120 60 190-50 270 30s120-20 160 60"/><path d="M60 150c80 70 60-90 220 70s140-110 200 40"/><path d="M30 320c100-120 160 80 240-40s160 80 180-40"/><path d="M80 410c140-30 80 60 220-90s160 140 170-40"/><path d="M20 220c80-30 130 110 210-40s140 120 200-30"/></g><g stroke="#FF6F61" stroke-width="4" fill="none" stroke-linecap="round"><path d="M140 40c30 100-90 120 40 220s80 200 150 150"/><path d="M320 60c-50 90 100 60 0 190s-160 40-120 140"/><path d="M200 420c80-50 140 10 220-150"/><path d="M70 280c90 40 170-30 260 40s40-140 20-200"/></g></svg>