<svg viewBox="0 0 512 512" xmlns="http://www.w3.org/2000/svg"> <rect width="512" height="512" fill="#b2d8ff"/> <rect y="400" width="512" height="112" fill="#6da06f"/> <ellipse cx="256" cy="430" rx="220" ry="60" fill="#5c9747"/> <g fill="#2b6b2c"> <path d="M120 400 L140 240 Q140 210 180 210 L200 260 L210 400 Z"/> <path d="M200 400 L220 240 Q220 210 260 210 L280 260 L290 400 Z" <path d="M320 400 L340 240 Q340 210 380 210 L400 260 L410 400 Z" <path d="M80 400 L100 240 Q100 210 140 210 L160 260 L170 400 Z" <path d="M260 400 L280 240 Q280 210 320 210 L340 260 L350 400 Z" </g> <g fill="#1f4a20"> <circle cx="130" cy="230" r="40"/> <circle cx="210" cy="230" r="50"/> <circle cx="290" cy="230" r="45"/> <circle cx="360" cy="230" r="55"/> <circle cx="170" cy="190" r="35"/> <circle cx="240" cy="190" r="40"/> <circle cx="310" cy="190" r="30"/> </g> <circle cx="90" cy="250" r="45" fill="#1f4a20"/> <circle cx="420" cy="250" r="60" fill="#1f4a20"/> </svg>