<svg xmlns="http://www.w3.org/2000/svg" width="512" height="512" viewBox="0 0 512 512"><rect width="512" height="512" fill="#87ceeb"/><rect y="300" width="512" height="212" fill="#f4a460"/><path d="M80 320 Q100 250 120 320" fill="none" stroke="#8b4513" stroke-width="8" stroke-linecap="round"/><path d="M120 320 Q140 250 160 320" fill="none" stroke="#8b4513" stroke-width="8" stroke-linecap="round"/><path d="M160 320 Q180 260 200 320" fill="none" stroke="#8b4513" stroke-width="8" stroke-linecap="round"/><path d="M200 320 Q220 250 240 320" fill="none" stroke="#8b4513" stroke-width="8" stroke-linecap="round"/><path d="M240 320 Q260 260 280 320" fill="none" stroke="#8b4513" stroke-width="8" stroke-linecap="round"/><path d="M280 320 Q300 250 320 320" fill="none" stroke="#8b4513" stroke-width="8" stroke-linecap="round"/><path d="M320 320 Q340 260 360 320" fill="none" stroke="#8b4513" stroke-width="8" stroke-linecap="round"/><path d="M360 320 Q380 250 400 320" fill="none" stroke="#8b4513" stroke-width="8" stroke-linecap="round"/><path d="M100 300 L416 300" stroke="#deb887" stroke-width="8"/><path d="M60 330 Q120 220 260 330" fill="#f8d890" stroke="#c68642" stroke-width="6"/> <path d="M260 330 Q400 220 460 330" fill="#f8d890" stroke="#c68642" stroke-width="6"/><g stroke="#d2691e" stroke-width="6" fill="none"><path d="M120 360 Q140 320 160 360"/><path d="M160 360 Q180 320 200 360"/><path d="M200 360 Q220 320 240 360"/><path d="M240 360 Q260 320 280 360"/><path d="M280 360 Q300 320 320 360"/><path d="M320 360 Q340 320 360 360"/><path d="M360 360 Q380 320 400 360"/></g><circle cx="400" cy="120" r="60" fill="#ffe066"/><path d="M440 40 Q420 80 400 40" stroke="#ffe066" stroke-width="8" fill="none"/><path d="M360 40 Q380 80 400 40" stroke="#ffe066" stroke-width="8" fill="none"/><path d="M380 20 L420 20" stroke="#ffe066" stroke-width="8"/><path d="M360 140 L440 140" stroke="#ffe066" stroke-width="8"/><path d="M420 100 L380 100" stroke="#ffe066" stroke-width="8"/></svg>