<svg xmlns="http://www.w3.org/2000/svg" width="512" height="512" viewBox="0 0 512 512"><defs><radialGradient id="g1" cx="40%" cy="30%" r="70%"><stop offset="0%" stop-color="#ffb47d"/><stop offset="60%" stop-color="#e04c1d"/><stop offset="100%" stop-color="#9a2910"/></radialGradient><radialGradient id="g2" cx="60%" cy="40%" r="60%"><stop offset="0%" stop-color="#ffda9d" stop-opacity="0.7"/><stop offset="100%" stop-color="#c14021" stop-opacity="0"/></radialGradient><clipPath id="c1"><circle cx="256" cy="256" r="190"/></clipPath></defs><rect width="512" height="512" fill="#050b24"/><circle cx="256" cy="256" r="190" fill="url(#g1)"/><g clip-path="url(#c1)"><circle cx="240" cy="200" r="140" fill="url(#g2)" opacity="0.7"/><path d="M140 260 C160 220, 220 200, 260 220 C300 240, 320 300, 280 320 C260 330, 220 330, 190 310 C160 290, 150 280, 140 260 Z" fill="#bb3f1c" opacity="0.8"/><path d="M150 310 C180 330, 230 330, 260 310 C290 290, 310 270, 320 250 C330 230, 310 220, 290 230 C260 240, 210 260, 180 250 C150 240, 140 260, 150 310 Z" fill="#e05628" opacity="0.7"/></g></svg>