<svg xmlns="http://www.w3.org/2000/svg" width="512" height="512" viewBox="0 0 512 512"><defs><linearGradient id="sky" x1="0" y1="0" x2="0" y2="1"><stop offset="0%" stop-color="#7ad7ff"/><stop offset="100%" stop-color="#1d7ec0"/></linearGradient><linearGradient id="ground" x1="0" y1="0" x2="0" y2="1"><stop offset="0%" stop-color="#6aa84f"/><stop offset="100%" stop-color="#38761d"/></linearGradient><linearGradient id="block" x1="0" y1="0" x2="1" y2="1"><stop offset="0%" stop-color="#8a6c3a"/><stop offset="100%" stop-color="#533d20"/></linearGradient></defs><rect width="512" height="512" fill="url(#sky)"/><rect y="360" width="512" height="152" fill="url(#ground)"/><g transform="translate(150 200)"><polygon points="0,160 0,40 120,0 240,40 240,160 120,200" fill="url(#block)"/><polygon points="240,40 240,160 120,200 120,40" fill="#4b3622"/><polygon points="0,40 120,0 120,200 0,160" fill="#6b4a28"/><polygon points="0,160 120,200 240,160" fill="#8c612e"/></g><g transform="translate(320 320)"><rect width="120" height="40" fill="#c6c6c6" rx="6" ry="6"/><path d="M120 0L180 -50L200 -30L140 20Z" fill="#9a9a9a"/><rect x="40" y="-80" width="25" height="60" fill="#c6c6c6"/><rect x="60" y="-40" width="60" height="18" fill="#9a9a9a"/></g><circle cx="120" cy="120" r="60" fill="#ffe97f" opacity="0.5"/></svg>