<svg width="512" height="512" viewBox="0 0 512 512" xmlns="http://www.w3.org/2000/svg"><rect width="512" height="512" fill="#f4f4f4"/><g fill="#80b04a"><path d="M256 64c-40 0-72 32-72 72v56c-52 14-88 64-88 116 0 72 58 130 130 130s130-58 130-130c0-52-36-102-88-116v-56c0-40-32-72-72-72z"/><path d="M256 120c-20 0-36 16-36 36h72c0-20-16-36-36-36z"/></g><g fill="#f1c40f"><circle cx="200" cy="320" r="38"/><circle cx="310" cy="320" r="38"/><circle cx="256" cy="270" r="38"/></g><path d="M184 130c-12 0-36 22-36 50s24 50 36 50c12 0 36-22 36-50s-24-50-36-50z" fill="#f1c40f" opacity="0.5"/><path d="M328 130c-12 0-36 22-36 50s24 50 36 50 36-22 36-50-24-50-36-50z" fill="#f1c40f" opacity="0.5"/></svg>