<svg xmlns="http://www.w3.org/2000/svg" width="512" height="512"><defs><linearGradient id="sky" x1="0" y1="0" x2="0" y2="1"><stop offset="0%" stop-color="#a2d5f2"/><stop offset="100%" stop-color="#5fb0dc"/></linearGradient><linearGradient id="sea" x1="0" y1="0" x2="0" y2="1"><stop offset="0%" stop-color="#1e6e9b"/><stop offset="100%" stop-color="#0b3c5d"/></linearGradient><linearGradient id="sun" x1="0" y1="0" x2="1" y2="1"><stop offset="0%" stop-color="#fff27a"/><stop offset="100%" stop-color="#ffc932"/></linearGradient></defs><rect width="512" height="512" fill="url(#sky)"/><rect y="256" width="512" height="256" fill="url(#sea)"/><g fill="none" stroke="#ffffff" stroke-width="6" stroke-linecap="round"><path d="M0 380c40-20 80-20 120 0s80 20 120 0c40-20 80-20 120 0 40 20 80 20 120 0"/><path d="M0 420c60-20 120-20 180 0 60 20 120 20 180 0"/><path d="M0 460c40-15 80-15 120 0s80 15 120 0c40-15 80-15 120 0 40 15 80 15 120 0"/></g><circle cx="400" cy="120" r="60" fill="url(#sun)"/><path d="M400 40c0 0 10 40 0 80-10-40-0-80-0-80" fill="none" stroke="#fff27a" stroke-width="12" stroke-linecap="round"/><path d="M360 120c0 0 40 0 80 0" fill="none" stroke="#fff27a" stroke-width="12" stroke-linecap="round"/><path d="M380 80c0 0 20 20 40 40" fill="none" stroke="#fff27a" stroke-width="12" stroke-linecap="round"/><path d="M420 80c0 0-20 20-40 40" fill="none" stroke="#fff27a" stroke-width="12" stroke-linecap="round"/></svg>