<svg xmlns="http://www.w3.org/2000/svg" width="512" height="512" viewBox="0 0 512 512"> <defs> <linearGradient id="sky" x1="0" y1="0" x2="0" y2="1"> <stop offset="0%" stop-color="#f6d365"/> <stop offset="100%" stop-color="#fda085"/> </linearGradient> <linearGradient id="mount" x1="0" y1="0" x2="0" y2="1"> <stop offset="0%" stop-color="#97a4c7"/> <stop offset="100%" stop-color="#5e6a8b"/> </linearGradient> </defs> <rect width="512" height="512" fill="url(#sky)"/> <circle cx="256" cy="180" r="80" fill="#ffb347" opacity="0.85"/> <path d="M64 360 L180 210 L256 260 L332 210 L448 360 Z" fill="url(#mount)"/> <path d="M112 380 L400 380 L400 400 L112 400 Z" fill="#2c2c2c"/> <path d="M160 360 L176 360 L176 470 L160 470 Z" fill="#ff4d4d"/> <path d="M336 360 L320 360 L320 470 L336 470 Z" fill="#ff4d4d"/> <path d="M140 360 L352 360 L352 380 L140 380 Z" fill="#ff4d4d"/> <path d="M160 330 L352 330 L352 350 L160 350 Z" fill="#cc1d1d"/> <path d="M192 260 C196 240 316 240 320 260 L320 330 L192 330 Z" fill="#e05959"/> <circle cx="256" cy="300" r="8" fill="#ffe3b3" opacity="0.7"/> <circle cx="220" cy="310" r="6" fill="#ffe3b3" opacity="0.6"/> <circle cx="292" cy="310" r="6" fill="#ffe3b3" opacity="0.6"/> </svg>