<svg width="512" height="512" viewBox="0 0 512 512" xmlns="http://www.w3.org/2000/svg"><defs><linearGradient id="g" x1="0%" y1="0%" x2="100%" y2="0%"><stop offset="0%" stop-color="#f5f5f5"/><stop offset="100%" stop-color="#dfe4f0"/></linearGradient><linearGradient id="h" x1="0%" y1="0%" x2="0%" y2="100%"><stop offset="0%" stop-color="#ffe4c4"/><stop offset="100%" stop-color="#f0c8a8"/></linearGradient></defs><rect width="512" height="512" fill="url(#g)"/><g fill="none" stroke="#8a8b8f" stroke-width="14" stroke-linecap="round" stroke-linejoin="round"><path d="M336 220c-6-36-42-60-80-54-28 4-46 22-56 40-12 22-18 48-18 70 0 0 10 40 48 44 36 4 66-22 78-54"/><path d="M311 267c-18 18-32 9-32 9"/><path d="M352 272c-28 14-50 4-50 4"/><path d="M165 272c-12 16-28 11-40 8"/><path d="M286 304c-6 14-24 26-38 26"/><path d="M200 220c-2-20 6-40 22-52"/><path d="M189 316s34-2 46 26"/></g><path d="M210 348c-8 0-28-2-46-22-16-18-24-32-24-50 0-28 20-52 48-52 12 0 22 4 30 12 6 6 8 22-8 32s-26 14-26 14" fill="#ffc8b0"/><path d="M362 262c24-4 36 6 36 6l28 30c12 14 8 36-8 46-18 12-32 12-40 10s-20-10-22-26l-6-14" fill="#cfd3dd"/><path d="M260 306s18 26 18 42c0 14-10 30-24 34-16 4-32 0-40-6-8-8-10-28-6-38 6-14 24-20 40-20 14 0 24 4 30 12" fill="#fcdac8"/><path d="M188 340c0 8-10 22-26 22s-26-14-26-22" fill="none" stroke="#a96c4b" stroke-width="6" stroke-linecap="round"/><path d="M112 320s8 12 18 18 16 4 24 4" fill="none" stroke="#9d9fa4" stroke-width="8" stroke-linecap="round"/><path d="M390 168c-40-16-80-6-110 12-26 16-44 40-44 40" fill="none" stroke="#a6a6aa" stroke-width="12" stroke-linecap="round" stroke-linejoin="round"/><path d="M390 168s12 32 0 56" fill="none" stroke="#8d8f94" stroke-width="10" stroke-linecap="round"/><path d="M390 168s44 30 20 84" fill="none" stroke="#8d8f94" stroke-width="10" stroke-linecap="round"/><path d="M320 352c14 10 48 4 60-8s8-28-4-40c-8-10-22-16-34-12" fill="#e4e8ef" stroke="#a7a8ad" stroke-width="6" stroke-linejoin="round"/><path d="M232 180c0 0-24 20-6 64" fill="none" stroke="#b3b0bd" stroke-width="10" stroke-linecap="round"/><circle cx="260" cy="210" r="8" fill="#3c2d2d" opacity="0.6"/><circle cx="220" cy="210" r="8" fill="#3c2d2d" opacity="0.6"/><path d="M210 320c12 12 32 18 54 4" fill="none" stroke="#9d9fa4" stroke-width="8" stroke-linecap="round"/><circle cx="366" cy="274" r="12" fill="#c1c5d2"/><circle cx="178" cy="168" r="10" fill="#f6d1a7" opacity="0.6"/><circle cx="174" cy="199" r="6" fill="#ffe2cf" opacity="0.8"/></svg>