<svg xmlns="http://www.w3.org/2000/svg" width="512" height="512" viewBox="0 0 512 512"><rect width="512" height="512" fill="#ffffff"/><path d="M128 144c-14 0-25.2 11.2-25.2 25.2v172c0 14 11.2 25.2 25.2 25.2h256c14 0 25.2-11.2 25.2-25.2V169.2c0-14-11.2-25.2-25.2-25.2H128zm256 20c6.6 0 12 5.4 12 12v172c0 6.6-5.4 12-12 12H128c-6.6 0-12-5.4-12-12V176c0-6.6 5.4-12 12-12h256z" fill="#cc0000"/><circle cx="256" cy="256" r="144" fill="#ffffff" opacity="0.1"/><path d="M217 174.5c-9.2 0-16.7 6.9-16.7 15.4v132.2c0 8.5 7.5 15.4 16.7 15.4 4.4 0 8.6-1.6 12-4.7l86.7-66.6c6.6-5.1 6.6-14.4 0-19.6l-86.7-66.6c-3.4-3.1-7.6-4.7-12-4.7z" fill="#ffffff"/></svg>