<svg width="512" height="512" viewBox="0 0 512 512" xmlns="http://www.w3.org/2000/svg"><defs><linearGradient id="bg" x1="0" x2="0" y1="0" y2="1"><stop offset="0%" stop-color="#f7f2ed"/><stop offset="100%" stop-color="#e8e0d6"/></linearGradient></defs><rect width="512" height="512" fill="url(#bg)"/><polygon points="256,120 276,152 316,152 288,170 300,214 256,190 212,214 224,170 196,152 236,152" fill="#ffd166" opacity="0.25"/><ellipse cx="256" cy="360" rx="140" ry="28" fill="#d2c6a7" /><rect x="178" y="232" width="156" height="120" rx="28" ry="28" fill="#4b2c1f"/><ellipse cx="256" cy="210" rx="90" ry="20" fill="#6b4a2a"/><rect x="190" y="240" width="120" height="70" rx="12" fill="#2d1710"/><path d="M340 232 a28 28 0 0 1 0 60" fill="none" stroke="#6b4a2a" stroke-width="12" stroke-linecap="round"/><path d="M180 190 C190 150 200 132 218 128" fill="none" stroke="#ffffff" stroke-width="3" stroke-linecap="round"/><path d="M198 184 C208 152 224 144 240 140" fill="none" stroke="#ffffff" stroke-width="3" stroke-linecap="round"/><path d="M214 178 C226 150 244 148 260 144" fill="none" stroke="#ffffff" stroke-width="3" stroke-linecap="round"/></svg>