<svg width="512" height="512" viewBox="0 0 512 512" xmlns="http://www.w3.org/2000/svg"><defs><linearGradient id="sky" x1="0" y1="0" x2="0" y2="1"><stop offset="0%" stop-color="#87CEEB"/><stop offset="100%" stop-color="#5DADE2"/></linearGradient><linearGradient id="ground" x1="0" y1="0" x2="0" y2="1"><stop offset="0%" stop-color="#4CAF50"/><stop offset="100%" stop-color="#2E7D32"/></linearGradient></defs><rect width="512" height="512" fill="url(#sky)"/><rect x="0" y="360" width="512" height="152" fill="url(#ground)"/><g><rect x="57" y="300" width="14" height="60" rx="3" fill="#5B3A23"/><polygon points="64,260 14,320 114,320" fill="#2E7D32"/><polygon points="64,240 24,290 104,290" fill="#2E9A3C"/><polygon points="64,210 39,250 89,250" fill="#2C8A3A"/></g><g><rect x="121" y="300" width="14" height="60" rx="3" fill="#5B3A23"/><polygon points="128,260 78,320 178,320" fill="#2E7D32"/><polygon points="128,240 88,290 168,290" fill="#2E9A3C"/><polygon points="128,210 103,250 153,250" fill="#2C8A3A"/></g><g><rect x="185" y="300" width="14" height="60" rx="3" fill="#5B3A23"/><polygon points="192,260 142,320 242,320" fill="#2E7D32"/><polygon points="192,240 152,290 232,290" fill="#2E9A3C"/><polygon points="192,210 167,250 217,250" fill="#2C8A3A"/></g><g><rect x="249" y="300" width="14" height="60" rx="3" fill="#5B3A23"/><polygon points="256,260 206,320 306,320" fill="#2E7D32"/><polygon points="256,240 216,290 296,290" fill="#2E9A3C"/><polygon points="256,210 231,250 281,250" fill="#2C8A3A"/></g><g><rect x="313" y="300" width="14" height="60" rx="3" fill="#5B3A23"/><polygon points="320,260 270,320 370,320" fill="#2E7D32"/><polygon points="320,240 280,290 360,290" fill="#2E9A3C"/><polygon points="320,210 295,250 345,250" fill="#2C8A3A"/></g><g><rect x="377" y="300" width="14" height="60" rx="3" fill="#5B3A23"/><polygon points="384,260 334,320 434,320" fill="#2E7D32"/><polygon points="384,240 344,290 424,290" fill="#2E9A3C"/><polygon points="384,210 359,250 409,250" fill="#2C8A3A"/></g><g><rect x="441" y="300" width="14" height="60" rx="3" fill="#5B3A23"/><polygon points="448,260 398,320 498,320" fill="#2E7D32"/><polygon points="448,240 408,290 488,290" fill="#2E9A3C"/><polygon points="448,210 423,250 473,250" fill="#2C8A3A"/></g></svg>