<svg width="512" height="512" viewBox="0 0 512 512" xmlns="http://www.w3.org/2000/svg"><rect width="512" height="512" fill="#87ceeb"/><rect y="320" width="512" height="192" fill="#6bd36e"/><line x1="52" y1="320" x2="52" y2="238" stroke="#d2a02a" stroke-width="6"/><polygon points="48,238 52,232 56,238" fill="#f5d067"/><line x1="120" y1="320" x2="120" y2="244" stroke="#d2a02a" stroke-width="6"/><polygon points="116,244 120,238 124,244" fill="#f5d067"/><line x1="188" y1="320" x2="188" y2="238" stroke="#d2a02a" stroke-width="6"/><polygon points="184,238 188,232 192,238" fill="#f5d067"/><line x1="256" y1="320" x2="256" y2="246" stroke="#d2a02a" stroke-width="6"/><polygon points="252,246 256,240 260,246" fill="#f5d067"/><line x1="324" y1="320" x2="324" y2="240" stroke="#d2a02a" stroke-width="6"/><polygon points="320,240 324,234 328,240" fill="#f5d067"/><line x1="392" y1="320" x2="392" y2="252" stroke="#d2a02a" stroke-width="6"/><polygon points="388,252 392,246 396,252" fill="#f5d067"/></svg>