<svg width="512" height="512" viewBox="0 0 512 512" xmlns="http://www.w3.org/2000/svg"><rect x="0" y="0" width="512" height="512" fill="#f0f0f0"/><rect x="100" y="100" width="312" height="312" fill="#8b4513"/><rect x="100" y="100" width="78" height="78" fill="#ffe4b5"/><rect x="256" y="100" width="78" height="78" fill="#ffe4b5"/><rect x="178" y="178" width="78" height="78" fill="#ffe4b5"/><rect x="334" y="178" width="78" height="78" fill="#ffe4b5"/><rect x="100" y="256" width="78" height="78" fill="#ffe4b5"/><rect x="256" y="256" width="78" height="78" fill="#ffe4b5"/><rect x="178" y="334" width="78" height="78" fill="#ffe4b5"/><rect x="334" y="334" width="78" height="78" fill="#ffe4b5"/><g transform="translate(217, 130) scale(0.8)"><rect x="10" y="80" width="60" height="10" fill="#000"/><path d="M20 80 L25 30 L55 30 L60 80 Z" fill="#000"/><circle cx="40" cy="25" r="15" fill="#000"/><rect x="35" y="5" width="10" height="25" fill="#000"/><rect x="27" y="12" width="26" height="8" fill="#000"/></g><g transform="translate(217, 280) scale(0.8) rotate(180, 40, 45)"><rect x="10" y="80" width="60" height="10" fill="#fff" stroke="#000"/><path d="M20 80 L25 30 L55 30 L60 80 Z" fill="#fff" stroke="#000"/><circle cx="40" cy="25" r="15" fill="#fff" stroke="#000"/><rect x="35" y="5" width="10" height="25" fill="#fff" stroke="#000"/><rect x="27" y="12" width="26" height="8" fill="#fff" stroke="#000"/></g><g transform="translate(295, 130) scale(0.8)"><rect x="15" y="80" width="50" height="10" fill="#fff" stroke="#000"/><path d="M25 80 L30 40 L50 40 L55 80 Z" fill="#fff" stroke="#000"/><path d="M25 40 L25 20 L35 20 L35 30 L45 30 L45 20 L55 20 L55 40 Z" fill="#fff" stroke="#000"/></g></svg>