<svg xmlns="http://www.w3.org/2000/svg" viewBox="0 0 512 512" width="512" height="512"><path d="M256 480c-80 0-140-60-140-130 0-60 40-110 90-140 0 50 30 70 50 80 0-80 40-160 100-210-20 80 60 140 60 230 0 90-70 170-160 170z" fill="#FF4500" /><path d="M256 460c-60 0-100-45-100-100 0-45 30-85 70-105 0 40 20 55 30 65 0-60 30-120 70-160-10 60 40 100 40 170 0 70-50 130-110 130z" fill="#FF8C00" /><path d="M256 430c-40 0-70-30-70-70 0-30 20-60 50-75 0 30 15 40 20 45 0-40 20-80 40-110-5 40 30 70 30 110 0 50-30 100-70 100z" fill="#FFD700" /></svg>