<svg width="512" height="512" viewBox="0 0 512 512" xmlns="http://www.w3.org/2000/svg" style="background-color:#050510;"><defs><radialGradient id="core" cx="50%" cy="50%" r="50%"><stop offset="0%" stop-color="#ffffff"/><stop offset="40%" stop-color="#fff7cc"/><stop offset="100%" stop-color="#ffcc00" stop-opacity="0"/></radialGradient></defs><circle cx="256" cy="256" r="60" fill="url(#core)"/><g fill="none" stroke-width="12" stroke-linecap="round"><path d="M256,256 Q350,150 450,256 Q350,362 256,256" stroke="#663399" opacity="0.6"/><path d="M256,256 Q162,362 62,256 Q162,150 256,256" stroke="#483d8b" opacity="0.6"/><path d="M256,256 C350,100 500,300 400,400" stroke="#9370db" opacity="0.5"/><path d="M256,256 C162,412 12,212 112,112" stroke="#8a2be2" opacity="0.5"/><path d="M256,256 C400,200 400,100 300,50" stroke="#00ffff" opacity="0.4"/><path d="M256,256 C112,312 112,412 212,462" stroke="#00ffff" opacity="0.4"/></g><g fill="#ffffff"><circle cx="120" cy="150" r="2"/><circle cx="400" cy="100" r="1.5"/><circle cx="350" cy="420" r="2"/><circle cx="80" cy="380" r="1.5"/><circle cx="256" cy="50" r="1"/><circle cx="480" cy="256" r="2"/><circle cx="30" cy="256" r="1"/><circle cx="200" cy="200" r="3"/><circle cx="312" cy="312" r="3"/><circle cx="280" cy="180" r="2"/><circle cx="230" cy="330" r="2"/></g></svg>