<svg xmlns="http://www.w3.org/2000/svg" viewBox="0 0 512 512" width="512" height="512"><rect x="80" y="180" width="352" height="220" rx="10" fill="#4a4a4a" /><rect x="100" y="150" width="312" height="30" fill="#333" /><rect x="120" y="120" width="40" height="30" fill="#222" /><rect x="350" y="120" width="40" height="30" fill="#222" /><rect x="110" y="210" width="120" height="80" fill="#666" /><circle cx="140" cy="250" r="15" fill="#888" /><circle cx="200" cy="250" r="15" fill="#888" /><rect x="260" y="210" width="140" height="160" fill="#2c3e50" /><path d="M260 240 L400 240 M260 270 L400 270 M260 300 L400 300 M260 330 L400 330" stroke="#1a252f" stroke-width="4" /><circle cx="432" cy="300" r="30" fill="#333" /><circle cx="432" cy="300" r="10" fill="#111" /><path d="M432 270 L432 240 Q432 210 460 210" fill="none" stroke="#f1c40f" stroke-width="8" /><rect x="100" y="400" width="40" height="20" fill="#222" /><rect x="372" y="400" width="40" height="20" fill="#222" /><rect x="150" y="320" width="60" height="40" fill="#95a5a6" /><circle cx="165" cy="340" r="5" fill="#e74c3c" /><circle cx="195" cy="340" r="5" fill="#2ecc71" /></svg>