<svg xmlns="http://www.w3.org/2000/svg" viewBox="0 0 512 512" width="512" height="512"><rect x="0" y="0" width="512" height="512" fill="#fdfdfd"/><path d="M100 380 L220 380 L200 300 L120 300 Z" fill="#FFD700" stroke="#DAA520" stroke-width="2"/><path d="M290 380 L410 380 L390 300 L310 300 Z" fill="#FFD700" stroke="#DAA520" stroke-width="2"/><path d="M195 290 L315 290 L295 210 L215 210 Z" fill="#FFD700" stroke="#DAA520" stroke-width="2"/><path d="M120 300 L200 300 L180 280 L140 280 Z" fill="#FFFACD" opacity="0.5"/><path d="M310 300 L390 300 L370 280 L330 280 Z" fill="#FFFACD" opacity="0.5"/><path d="M215 210 L295 210 L275 190 L235 190 Z" fill="#FFFACD" opacity="0.5"/><circle cx="400" cy="150" r="5" fill="#FFD700"><animate attributeName="opacity" values="0;1;0" dur="2s" repeatCount="indefinite" /></circle><path d="M390 150 L410 150 M400 140 L400 160" stroke="#FFD700" stroke-width="2"/><circle cx="150" cy="220" r="5" fill="#FFD700"><animate attributeName="opacity" values="0;1;0" dur="2.5s" repeatCount="indefinite" /></circle><path d="M140 220 L160 220 M150 210 L150 230" stroke="#FFD700" stroke-width="2"/></svg>