<svg xmlns="http://www.w3.org/2000/svg" viewBox="0 0 512 512" width="512" height="512"><rect width="512" height="512" fill="#87CEEB"/><rect x="0" y="350" width="512" height="162" fill="#C2B280"/><path d="M100 350 Q110 250 120 350 M110 350 Q120 250 130 350 M120 350 Q130 250 140 350 M130 350 Q140 250 150 350" stroke="#DAA520" stroke-width="4" fill="none"/><path d="M200 350 Q210 250 220 350 M210 350 Q220 250 230 350 M220 350 Q230 250 240 350 M230 350 Q240 250 250 350" stroke="#DAA520" stroke-width="4" fill="none"/><path d="M300 350 Q310 250 320 350 M310 350 Q320 250 330 350 M320 350 Q330 250 340 350 M330 350 Q340 250 350 350" stroke="#DAA520" stroke-width="4" fill="none"/><g transform="translate(300, 380) rotate(-15)"><path d="M0 0 C 80 -20, 100 -100, 20 -120 C 40 -100, 40 -40, 0 -20 Z" fill="#C0C0C0" stroke="#333" stroke-width="2"/><rect x="-5" y="-20" width="10" height="60" fill="#5D4037"/></g><circle cx="400" cy="80" r="40" fill="#FFD700"/><path d="M50 420 L150 420 L160 460 L40 460 Z" fill="#8B4513"/><path d="M60 420 Q100 380 140 420" fill="#DAA520"/></svg>