<svg width="512" height="512" viewBox="0 0 512 512" xmlns="http://www.w3.org/2000/svg"><rect width="512" height="512" fill="#e0f7fa"/><path d="M80 400 Q80 120 256 120 Q432 120 432 400" fill="#ffffff" stroke="#90a4ae" stroke-width="4"/><path d="M200 400 L200 320 Q256 280 312 320 L312 400" fill="#ffffff" stroke="#90a4ae" stroke-width="4"/><path d="M80 400 L432 400" stroke="#90a4ae" stroke-width="4"/><path d="M100 320 L412 320 M140 240 L372 240 M200 170 L312 170" stroke="#cfd8dc" stroke-width="2" fill="none"/><path d="M160 400 L160 320 M256 400 L256 285 M352 400 L352 320 M210 320 L210 240 M302 320 L302 240 M256 240 L256 170" stroke="#cfd8dc" stroke-width="2" fill="none"/></svg>