<svg width="512" height="512" viewBox="0 0 512 512" xmlns="http://www.w3.org/2000/svg"><rect width="512" height="512" fill="#f0f0f0"/><path d="M120 320 Q120 200 250 200 T400 280 Q450 280 460 350" stroke="#d4a017" stroke-width="60" fill="none" stroke-linecap="round"/><circle cx="150" cy="180" r="50" fill="#d4a017"/><circle cx="130" cy="130" r="15" fill="#d4a017"/><circle cx="170" cy="130" r="15" fill="#d4a017"/><line x1="150" y1="320" x2="150" y2="420" stroke="#d4a017" stroke-width="30" stroke-linecap="round"/><line x1="220" y1="320" x2="220" y2="420" stroke="#d4a017" stroke-width="30" stroke-linecap="round"/><line x1="330" y1="320" x2="330" y2="420" stroke="#d4a017" stroke-width="30" stroke-linecap="round"/><line x1="380" y1="320" x2="380" y2="420" stroke="#d4a017" stroke-width="30" stroke-linecap="round"/><g fill="#332211"><circle cx="140" cy="175" r="4"/><circle cx="160" cy="175" r="4"/><circle cx="200" cy="240" r="8"/><circle cx="240" cy="220" r="10"/><circle cx="280" cy="250" r="9"/><circle cx="330" cy="240" r="11"/><circle cx="370" cy="270" r="7"/><circle cx="220" cy="280" r="10"/><circle cx="270" cy="300" r="8"/><circle cx="320" cy="290" r="10"/><circle cx="150" cy="360" r="6"/><circle cx="220" cy="380" r="6"/><circle cx="330" cy="370" r="6"/><circle cx="380" cy="390" r="6"/><circle cx="430" cy="310" r="7"/><circle cx="450" cy="340" r="5"/></g></svg>