<svg width="512" height="512" viewBox="0 0 512 512" xmlns="http://www.w3.org/2000/svg"><rect width="512" height="512" fill="#f0f0f0"/><path d="M200 150 Q256 100 312 150 L312 180 L200 180 Z" fill="#228B22"/><circle cx="256" cy="165" r="15" fill="white"/><path d="M200 180 Q256 170 312 180 Q330 250 256 260 Q182 250 200 180" fill="#ffdbac"/><ellipse cx="235" cy="210" rx="8" ry="12" fill="white"/><ellipse cx="277" cy="210" rx="8" ry="12" fill="white"/><circle cx="235" cy="210" r="4" fill="blue"/><circle cx="277" cy="210" r="4" fill="blue"/><path d="M230 235 Q256 230 282 235" stroke="black" stroke-width="8" fill="none"/><ellipse cx="256" cy="225" rx="15" ry="10" fill="#ffdbac" stroke="#d2b48c"/><rect x="210" y="260" width="92" height="100" fill="#228B22"/><path d="M210 300 L180 380 L332 380 L302 300" fill="#00008B"/><rect x="210" y="300" width="92" height="120" fill="#00008B"/><circle cx="225" cy="310" r="8" fill="yellow"/><circle cx="287" cy="310" r="8" fill="yellow"/><rect x="170" y="380" width="60" height="30" rx="15" fill="#5C4033"/><rect x="282" y="380" width="60" height="30" rx="15" fill="#5C4033"/><path d="M210 270 L160 320" stroke="#228B22" stroke-width="25"/><path d="M302 270 L352 320" stroke="#228B22" stroke-width="25"/><circle cx="150" cy="330" r="20" fill="white"/><circle cx="362" cy="330" r="20" fill="white"/></svg>