<svg width="512" height="512" viewBox="0 0 512 512" xmlns="http://www.w3.org/2000/svg"><rect x="106" y="106" width="300" height="300" fill="#795548" stroke="#3e2723" stroke-width="4"/><rect x="106" y="106" width="300" height="80" fill="#4caf50"/><path d="M106 186 L146 186 L146 216 L186 216 L186 186 L226 186 L226 226 L266 226 L266 186 L306 186 L306 216 L346 216 L346 186 L406 186 L406 106 L106 106 Z" fill="#4caf50"/><rect x="156" y="246" width="40" height="40" fill="#3e2723"/><rect x="316" y="246" width="40" height="40" fill="#3e2723"/><rect x="236" y="286" width="40" height="60" fill="#3e2723"/><rect x="216" y="346" width="80" height="20" fill="#3e2723"/><rect x="126" y="126" width="20" height="20" fill="#81c784"/><rect x="366" y="146" width="20" height="20" fill="#81c784"/><rect x="246" y="116" width="20" height="20" fill="#81c784"/><rect x="186" y="366" width="30" height="30" fill="#5d4037"/><rect x="346" y="326" width="30" height="30" fill="#5d4037"/></svg>