<svg width="512" height="512" viewBox="0 0 512 512" xmlns="http://www.w3.org/2000/svg"><rect x="50" y="150" width="412" height="200" fill="#333" rx="10" /><rect x="60" y="250" width="392" height="90" fill="white" /><rect x="60" y="250" width="28" height="90" fill="none" stroke="black" stroke-width="1" /><rect x="88" y="250" width="28" height="90" fill="none" stroke="black" stroke-width="1" /><rect x="116" y="250" width="28" height="90" fill="none" stroke="black" stroke-width="1" /><rect x="144" y="250" width="28" height="90" fill="none" stroke="black" stroke-width="1" /><rect x="172" y="250" width="28" height="90" fill="none" stroke="black" stroke-width="1" /><rect x="200" y="250" width="28" height="90" fill="none" stroke="black" stroke-width="1" /><rect x="228" y="250" width="28" height="90" fill="none" stroke="black" stroke-width="1" /><rect x="256" y="250" width="28" height="90" fill="none" stroke="black" stroke-width="1" /><rect x="284" y="250" width="28" height="90" fill="none" stroke="black" stroke-width="1" /><rect x="312" y="250" width="28" height="90" fill="none" stroke="black" stroke-width="1" /><rect x="340" y="250" width="28" height="90" fill="none" stroke="black" stroke-width="1" /><rect x="368" y="250" width="28" height="90" fill="none" stroke="black" stroke-width="1" /><rect x="396" y="250" width="28" height="90" fill="none" stroke="black" stroke-width="1" /><rect x="424" y="250" width="28" height="90" fill="none" stroke="black" stroke-width="1" /><rect x="78" y="250" width="18" height="55" fill="black" /><rect x="106" y="250" width="18" height="55" fill="black" /><rect x="162" y="250" width="18" height="55" fill="black" /><rect x="190" y="250" width="18" height="55" fill="black" /><rect x="218" y="250" width="18" height="55" fill="black" /><rect x="274" y="250" width="18" height="55" fill="black" /><rect x="302" y="250" width="18" height="55" fill="black" /><rect x="358" y="250" width="18" height="55" fill="black" /><rect x="386" y="250" width="18" height="55" fill="black" /><rect x="414" y="250" width="18" height="55" fill="black" /><rect x="70" y="350" width="15" height="60" fill="#333" /><rect x="427" y="350" width="15" height="60" fill="#333" /></svg>