<svg xmlns="http://www.w3.org/2000/svg" viewBox="0 0 512 512"><path d="M256 450c-60 0-110-50-110-140s50-160 110-160s110 70 110 160s-50 140-110 140z" fill="#ff4d94"/><path d="M256 150c-10-30-5-60 10-80c15 20 20 50 10 80z" fill="#4caf50"/><path d="M180 220c-20-10-40-5-55 15c15 5 35 5 55-15z" fill="#4caf50"/><path d="M332 220c20-10 40-5 55 15c-15 5-35 5-55-15z" fill="#4caf50"/><path d="M150 320c-25 0-40 15-45 30c10-5 30-10 45-30z" fill="#4caf50"/><path d="M362 320c25 0 40 15 45 30c-10-5-30-10-45-30z" fill="#4caf50"/><path d="M256 400c-10 20-5 40 10 50c15-10 20-30 10-50z" fill="#4caf50"/><ellipse cx="256" cy="310" rx="70" ry="100" fill="#ffffff"/><circle cx="230" cy="280" r="3" fill="#000"/><circle cx="280" cy="260" r="3" fill="#000"/><circle cx="250" cy="320" r="3" fill="#000"/><circle cx="270" cy="350" r="3" fill="#000"/><circle cx="230" cy="360" r="3" fill="#000"/><circle cx="290" cy="310" r="3" fill="#000"/><circle cx="256" cy="240" r="3" fill="#000"/><circle cx="220" cy="330" r="3" fill="#000"/></svg>