<svg width="512" height="512" viewBox="0 0 512 512" xmlns="http://www.w3.org/2000/svg"><path d="M50,400 A206,206 0 0,1 462,400" fill="none" stroke="#FF0000" stroke-width="25"/><path d="M75,400 A181,181 0 0,1 437,400" fill="none" stroke="#FF7F00" stroke-width="25"/><path d="M100,400 A156,156 0 0,1 412,400" fill="none" stroke="#FFFF00" stroke-width="25"/><path d="M125,400 A131,131 0 0,1 387,400" fill="none" stroke="#00FF00" stroke-width="25"/><path d="M150,400 A106,106 0 0,1 362,400" fill="none" stroke="#0000FF" stroke-width="25"/><path d="M175,400 A81,81 0 0,1 337,400" fill="none" stroke="#4B0082" stroke-width="25"/><path d="M200,400 A56,56 0 0,1 312,400" fill="none" stroke="#9400D3" stroke-width="25"/><circle cx="60" cy="400" r="40" fill="#F0F0F0"/><circle cx="100" cy="410" r="35" fill="#F0F0F0"/><circle cx="30" cy="415" r="30" fill="#F0F0F0"/><circle cx="452" cy="400" r="40" fill="#F0F0F0"/><circle cx="412" cy="410" r="35" fill="#F0F0F0"/><circle cx="482" cy="415" r="30" fill="#F0F0F0"/></svg>