<svg xmlns="http://www.w3.org/2000/svg" viewBox="0 0 512 512" width="512" height="512"><rect width="512" height="512" fill="#fdf5e6"/><path d="M150 450 L150 250 Q150 200 200 200 L312 200 Q362 200 362 250 L362 450" fill="none" stroke="#5d4037" stroke-width="8"/><path d="M150 280 L362 280 M150 340 L362 340" stroke="#5d4037" stroke-width="4"/><circle cx="256" cy="120" r="40" fill="#ffdbac"/><path d="M256 160 L256 320 M256 200 L180 150 M256 200 L332 150 M256 320 L190 420 M256 320 L322 420" stroke="#2c3e50" stroke-width="6" stroke-linecap="round"/><circle cx="180" cy="150" r="8" fill="#ffdbac"/><circle cx="332" cy="150" r="8" fill="#ffdbac"/><path d="M200 100 Q256 60 312 100" fill="none" stroke="#8b4513" stroke-width="10"/><rect x="120" y="450" width="272" height="20" fill="#5d4037"/></svg>