<svg xmlns="http://www.w3.org/2000/svg" viewBox="0 0 512 512" width="512" height="512"><rect width="512" height="512" fill="#87CEEB"/><rect x="220" y="100" width="72" height="412" fill="#5D4037"/><path d="M220 450 L100 480 M292 430 L400 460 M220 380 L120 400 M292 350 L380 370 M220 300 L140 310 M292 270 L360 280 M220 220 L160 225 M292 190 L340 195" stroke="#5D4037" stroke-width="12" stroke-linecap="round"/><path d="M100 480 Q150 440 220 450 M400 460 Q350 420 292 430 M120 400 Q170 370 220 380 M380 370 Q330 340 292 350 M140 310 Q180 290 220 300 M360 280 Q320 260 292 270 M160 225 Q190 210 220 220 M340 195 Q310 180 292 190" fill="none" stroke="#2E7D32" stroke-width="25" stroke-linecap="round"/><path d="M256 50 L200 120 L312 120 Z" fill="#1B5E20"/><rect x="0" y="480" width="512" height="32" fill="#388E3C"/></svg>