<svg xmlns="http://www.w3.org/2000/svg" viewBox="0 0 512 512" width="512" height="512"><path d="M50,300 Q150,150 450,250 Q480,260 480,280 Q480,300 450,310 Q350,350 250,350 Q150,350 50,300" fill="#78909C" /><path d="M200,215 Q250,100 320,225" fill="#78909C" /><path d="M50,300 L10,250 L10,350 Z" fill="#78909C" /><path d="M220,350 Q240,400 280,345" fill="#78909C" /><circle cx="400" cy="265" r="5" fill="black" /><path d="M330,280 L320,310 M350,280 L340,310 M370,280 L360,310" stroke="#455A64" stroke-width="3" fill="none" /><path d="M400,295 Q430,305 450,295" stroke="white" stroke-width="2" fill="none" /></svg>