<svg xmlns="http://www.w3.org/2000/svg" viewBox="0 0 512 512" width="512" height="512"><rect width="512" height="512" fill="#f0f0f0"/><path d="M50 150 Q256 100 462 150" stroke="#5d4037" stroke-width="20" fill="none"/><path d="M180 135 L170 220 M340 135 L350 220" stroke="#8d6e63" stroke-width="12" fill="none"/><path d="M150 200 C150 160, 360 160, 360 200 C360 300, 150 300, 150 200" fill="#a1887f"/><path d="M210 210 C210 180, 300 180, 300 210 C300 250, 210 250, 210 210" fill="#d7ccc8"/><circle cx="235" cy="210" r="8" fill="#3e2723"/><circle cx="275" cy="210" r="8" fill="#3e2723"/><path d="M245 225 Q255 235 265 225" stroke="#3e2723" stroke-width="2" fill="none"/><path d="M170 220 Q170 240 160 245" stroke="#8d6e63" stroke-width="10" fill="none"/><path d="M350 220 Q350 240 360 245" stroke="#8d6e63" stroke-width="10" fill="none"/><path d="M155 245 L150 260 M160 245 L160 260 M165 245 L170 260" stroke="#e0e0e0" stroke-width="3"/><path d="M345 245 L340 260 M355 245 L355 260 M365 245 L370 260" stroke="#e0e0e0" stroke-width="3"/></svg>