<svg width="512" height="512" viewBox="0 0 512 512" xmlns="http://www.w3.org/2000/svg"><circle cx="256" cy="256" r="200" fill="white" stroke="black" stroke-width="4"/><path d="M256 160 L200 200 L220 270 L292 270 L312 200 Z" fill="black"/><path d="M256 56 L210 90 L256 160 L302 90 Z" fill="black"/><path d="M456 256 L410 220 L312 200 L292 270 L360 330 Z" fill="black"/><path d="M56 256 L102 220 L200 200 L220 270 L152 330 Z" fill="black"/><path d="M256 456 L200 410 L220 270 L292 270 L312 410 Z" fill="black"/><path d="M256 160 L210 90 M200 200 L102 220 M220 270 L152 330 M292 270 L360 330 M312 200 L410 220 M302 90 L256 160" stroke="black" stroke-width="4"/></svg>