<svg width="512" height="512" viewBox="0 0 512 512" xmlns="http://www.w3.org/2000/svg" style="background-color:#000;"><defs><radialGradient id="grad1" cx="50%" cy="50%" r="50%"><stop offset="0%" style="stop-color:white;stop-opacity:1" /><stop offset="40%" style="stop-color:yellow;stop-opacity:1" /><stop offset="70%" style="stop-color:orange;stop-opacity:0.8" /><stop offset="100%" style="stop-color:red;stop-opacity:0" /></radialGradient></defs><circle cx="256" cy="256" r="180" fill="url(#grad1)" /><path d="M256 20 L280 200 L492 256 L280 312 L256 492 L232 312 L20 256 L232 200 Z" fill="white" opacity="0.9" /><path d="M256 80 L270 220 L432 256 L270 292 L256 432 L242 292 L80 256 L242 220 Z" fill="yellow" opacity="0.7" transform="rotate(45 256 256)" /><circle cx="256" cy="256" r="40" fill="white"><animate attributeName="r" values="30;50;30" dur="2s" repeatCount="indefinite" /></circle><g opacity="0.6"><circle cx="100" cy="100" r="2" fill="white" /><circle cx="400" cy="80" r="3" fill="white" /><circle cx="150" cy="400" r="2" fill="white" /><circle cx="450" cy="450" r="2" fill="white" /><circle cx="50" cy="300" r="3" fill="white" /></g></svg>