<svg xmlns="http://www.w3.org/2000/svg" viewBox="0 0 512 512" width="512" height="512" fill="none">
  <!-- Background -->
  <rect width="512" height="512" fill="#f0e6d2" />
  <path d="M0 350 Q256 300 512 350 V512 H0 Z" fill="#d2b48c" />

  <!-- Melting Clock 1 -->
  <path d="M150 200 C150 150, 250 150, 250 250 C250 350, 180 400, 150 380 C120 360, 150 250, 150 200" fill="white" stroke="black" stroke-width="4" />
  <path d="M170 230 L200 260 M200 260 L220 230" stroke="black" stroke-width="3" stroke-linecap="round" />
  
  <!-- Melting Clock 2 (draped over edge) -->
  <path d="M350 320 C420 320, 450 350, 450 420 C450 480, 380 500, 350 480 C320 460, 320 320, 350 320" fill="white" stroke="black" stroke-width="4" />
  <path d="M360 380 L390 410 M390 410 L410 390" stroke="black" stroke-width="3" stroke-linecap="round" />

  <!-- Floating Eye -->
  <ellipse cx="380" cy="150" rx="60" ry="35" fill="white" stroke="black" stroke-width="3" />
  <circle cx="380" cy="150" r="20" fill="#4682b4" />
  <circle cx="380" cy="150" r="8" fill="black" />

  <!-- Floating Apple -->
  <path d="M100 100 C80 100, 70 130, 100 150 C130 130, 120 100, 100 100" fill="#6b8e23" stroke="#3e4d16" stroke-width="2" />
  <path d="M100 105 L105 90" stroke="#4b3621" stroke-width="3" />

  <!-- Distant thin tree/crutch -->
  <line x1="50" y1="340" x2="50" y2="150" stroke="black" stroke-width="2" />
  <path d="M30 150 Q50 130 70 150" stroke="black" stroke-width="2" fill="none" />
</svg>