<svg xmlns="http://www.w3.org/2000/svg" viewBox="0 0 512 512" width="512" height="512"><rect width="512" height="512" fill="#0a0a2a"/><circle cx="400" cy="100" r="50" fill="#f0f0f0"/><path d="M150 450 L200 300 L250 200 L300 300 L350 450 Z" fill="#332211"/><path d="M250 200 L210 120 L240 160 L260 160 L290 120 Z" fill="#332211"/><path d="M210 120 L190 70 L220 100 Z" fill="#332211"/><path d="M290 120 L310 70 L280 100 Z" fill="#332211"/><path d="M235 180 Q250 195 265 180" stroke="#ff0000" fill="none" stroke-width="2"/><circle cx="230" cy="150" r="5" fill="#ffff00"/><circle cx="270" cy="150" r="5" fill="#ffff00"/><path d="M240 185 L245 195 L250 185 M255 185 L260 195 L265 185" fill="white"/><path d="M180 320 L120 280 L140 260" fill="#332211"/><path d="M320 320 L380 280 L360 260" fill="#332211"/><path d="M120 280 L100 260 L110 250 M380 280 L400 260 L390 250" stroke="#332211" stroke-width="5" fill="none"/></svg>