<svg width="512" height="512" viewBox="0 0 512 512" xmlns="http://www.w3.org/2000/svg"><rect width="512" height="512" fill="#fff"/><path d="M256 450 L256 100" stroke="#d4af37" stroke-width="6"/><path d="M220 450 L240 100" stroke="#d4af37" stroke-width="6"/><path d="M292 450 L272 100" stroke="#d4af37" stroke-width="6"/><g fill="#d4af37"><ellipse cx="256" cy="90" rx="10" ry="15"/><ellipse cx="240" cy="110" rx="10" ry="15" transform="rotate(-20 240 110)"/><ellipse cx="272" cy="110" rx="10" ry="15" transform="rotate(20 272 110)"/><ellipse cx="245" cy="130" rx="10" ry="15" transform="rotate(-20 245 130)"/><ellipse cx="267" cy="130" rx="10" ry="15" transform="rotate(20 267 130)"/><ellipse cx="240" cy="90" rx="10" ry="15" transform="rotate(-10 240 90)"/><ellipse cx="225" cy="110" rx="10" ry="15" transform="rotate(-30 225 110)"/><ellipse cx="255" cy="110" rx="10" ry="15" transform="rotate(10 255 110)"/><ellipse cx="272" cy="90" rx="10" ry="15" transform="rotate(10 272 90)"/><ellipse cx="287" cy="110" rx="10" ry="15" transform="rotate(30 287 110)"/><ellipse cx="257" cy="110" rx="10" ry="15" transform="rotate(-10 257 110)"/></g><rect x="235" y="350" width="42" height="30" fill="#8b4513" rx="5"/></svg>