<svg width="512" height="512" viewBox="0 0 512 512" xmlns="http://www.w3.org/2000/svg"><circle cx="256" cy="256" r="100" fill="#FFDAB9" stroke="black" stroke-width="5" /><circle cx="220" cy="230" r="15" fill="white" stroke="black" stroke-width="2" /><circle cx="292" cy="230" r="15" fill="white" stroke="black" stroke-width="2" /><circle cx="210" cy="230" r="5" fill="black" /><circle cx="282" cy="230" r="5" fill="black" /><path d="M 230 300 Q 256 290 282 300" fill="none" stroke="black" stroke-width="3" /><path d="M 230 140 Q 240 120 250 140 A 10 10 0 0 0 230 140 Z" fill="lightblue" stroke="black" /><path d="M 260 150 Q 270 130 280 150 A 10 10 0 0 0 260 150 Z" fill="lightblue" stroke="black" /><path d="M 150 256 Q 140 240 150 220" fill="none" stroke="black" stroke-width="3" /><path d="M 360 256 Q 370 240 360 220" fill="none" stroke="black" stroke-width="3" /></svg>