<svg width="512" height="512" viewBox="0 0 512 512" xmlns="http://www.w3.org/2000/svg"><rect width="512" height="512" fill="#ffffff"/><g transform="translate(256, 256)"><path d="M0,0 L220,30 L220,-30 Z" fill="#FF0000" transform="rotate(0)"/><path d="M0,0 L220,30 L220,-30 Z" fill="#FF7F00" transform="rotate(45)"/><path d="M0,0 L220,30 L220,-30 Z" fill="#FFFF00" transform="rotate(90)"/><path d="M0,0 L220,30 L220,-30 Z" fill="#00FF00" transform="rotate(135)"/><path d="M0,0 L220,30 L220,-30 Z" fill="#0000FF" transform="rotate(180)"/><path d="M0,0 L220,30 L220,-30 Z" fill="#4B0082" transform="rotate(225)"/><path d="M0,0 L220,30 L220,-30 Z" fill="#9400D3" transform="rotate(270)"/><path d="M0,0 L220,30 L220,-30 Z" fill="#FF1493" transform="rotate(315)"/><circle cx="0" cy="0" r="60" fill="#ffffff"/></g></svg>