<svg viewBox="0 0 512 512" xmlns="http://www.w3.org/2000/svg"><defs><linearGradient id="waterGrad" x1="0%" y1="0%" x2="0%" y2="100%"><stop offset="0%" style="stop-color:#87CEEB;stop-opacity:1" /><stop offset="100%" style="stop-color:#1E90FF;stop-opacity:1" /></linearGradient></defs><rect width="512" height="512" fill="url(#waterGrad)"/><g id="algae1"><path d="M 150 250 Q 140 200 160 150 Q 170 120 180 100" stroke="#228B22" stroke-width="8" fill="none" stroke-linecap="round"/><path d="M 160 200 Q 130 180 120 140" stroke="#32CD32" stroke-width="6" fill="none" stroke-linecap="round"/><path d="M 170 180 Q 190 150 210 120" stroke="#32CD32" stroke-width="6" fill="none" stroke-linecap="round"/></g><g id="algae2"><path d="M 280 280 Q 290 220 270 160 Q 260 120 250 80" stroke="#228B22" stroke-width="8" fill="none" stroke-linecap="round"/><path d="M 270 230 Q 300 200 330 170" stroke="#32CD32" stroke-width="6" fill="none" stroke-linecap="round"/><path d="M 260 210 Q 240 180 220 140" stroke="#32CD32" stroke-width="6" fill="none" stroke-linecap="round"/></g><g id="algae3"><path d="M 380 260 Q 370 210 390 150 Q 400 110 410 70" stroke="#228B22" stroke-width="8" fill="none" stroke-linecap="round"/><path d="M 385 210 Q 360 180 340 140" stroke="#32CD32" stroke-width="6" fill="none" stroke-linecap="round"/><path d="M 395 190 Q 420 160 440 120" stroke="#32CD32" stroke-width="6" fill="none" stroke-linecap="round"/></g><circle cx="200" cy="350" r="20" fill="#90EE90" opacity="0.7"/><circle cx="320" cy="360" r="18" fill="#90EE90" opacity="0.7"/><circle cx="420" cy="340" r="22" fill="#90EE90" opacity="0.7"/></svg>