<svg viewBox="0 0 512 512" xmlns="http://www.w3.org/2000/svg"><rect width="512" height="512" fill="#e8f4f8"/><g id="water"><path d="M 0 300 Q 128 280 256 300 T 512 300 L 512 512 L 0 512 Z" fill="#4a90e2" opacity="0.7"/><path d="M 0 320 Q 128 310 256 320 T 512 320 L 512 512 L 0 512 Z" fill="#2e5c8a" opacity="0.5"/></g><g id="canal_houses"><rect x="40" y="180" width="50" height="100" fill="#d4582a"/><rect x="45" y="185" width="15" height="20" fill="#87ceeb"/><rect x="65" y="185" width="15" height="20" fill="#87ceeb"/><polygon points="40,180 65,140 90,180" fill="#8b4513"/><rect x="110" y="170" width="55" height="110" fill="#c41e3a"/><rect x="116" y="176" width="16" height="22" fill="#87ceeb"/><rect x="140" y="176" width="16" height="22" fill="#87ceeb"/><polygon points="110,170 137.5,125 165,170" fill="#8b4513"/><rect x="190" y="190" width="48" height="90" fill="#2d5016"/><rect x="196" y="196" width="14" height="18" fill="#87ceeb"/><rect x="216" y="196" width="14" height="18" fill="#87ceeb"/><polygon points="190,190 214,155 238,190" fill="#8b4513"/><rect x="270" y="175" width="52" height="105" fill="#d4a574"/><rect x="276" y="181" width="15" height="21" fill="#87ceeb"/><rect x="299" y="181" width="15" height="21" fill="#87ceeb"/><polygon points="270,175 296,130 322,175" fill="#8b4513"/><rect x="350" y="185" width="50" height="95" fill="#8b0000"/><rect x="355" y="191" width="14" height="19" fill="#87ceeb"/><rect x="375" y="191" width="14" height="19" fill="#87ceeb"/><polygon points="350,185 375,145 400,185" fill="#8b4513"/></g><g id="bicycles"><circle cx="100" cy="350" r="8" fill="#333"/><circle cx="120" cy="350" r="8" fill="#333"/><line x1="100" y1="350" x2="120" y2="350" stroke="#333" stroke-width="2"/><line x1="110" y1="350" x2="110" y2="320" stroke="#333" stroke-width="2"/><circle cx="280" cy="370" r="8" fill="#333"/><circle cx="300" cy="370" r="8" fill="#333"/><line x1="280" y1="370" x2="300" y2="370" stroke="#333" stroke-width="2"/><line x1="290" y1="370" x2="290" y2="340" stroke="#333" stroke-width="2"/></g><g id="bridge"><rect x="380" y="280" width="100" height="8" fill="#8b7355"/><line x1="390" y1="280" x2="390" y2="320" stroke="#8b7355" stroke-width="3"/><line x1="410" y1="280" x2="410" y2="320" stroke="#8b7355" stroke-width="3"/><line x1="430" y1="280" x2="430" y2="320" stroke="#8b7355" stroke-width="3"/><line x1="450" y1="280" x2="450" y2="320" stroke="#8b7355" stroke-width="3"/></g><g id="tulips"><circle cx="60" cy="130" r="6" fill="#ff1493"/><line x1="60" y1="130" x2="60" y2="150" stroke="#228b22" stroke-width="2"/><circle cx="200" cy="100" r="6" fill="#ff69b4"/><line x1="200" y1="100" x2="200" y2="120" stroke="#228b22" stroke-width="2"/><circle cx="420" cy="110" r="6" fill="#ff1493"/><line x1="420" y1="110" x2="420" y2="130" stroke="#228b22" stroke-width="2"/></g></svg>