<svg viewBox="0 0 512 512" xmlns="http://www.w3.org/2000/svg"><defs><style>.shield{fill:#c41e3a;stroke:#8b0000;stroke-width:3;}.sword{fill:#ffd700;stroke:#b8860b;stroke-width:2;}.flame{fill:#ff6b35;}.star{fill:#ffd700;}</style></defs><g><path class="shield" d="M 256 80 L 180 140 L 180 280 Q 180 360 256 420 Q 332 360 332 280 L 332 140 Z"/><line x1="200" y1="200" x2="312" y2="200" stroke="#ffd700" stroke-width="4"/><line x1="256" y1="140" x2="256" y2="340" stroke="#ffd700" stroke-width="4"/><circle cx="256" cy="240" r="35" fill="none" stroke="#ffd700" stroke-width="3"/><polygon class="star" points="256,160 262,180 283,180 267,192 273,212 256,200 239,212 245,192 229,180 250,180"/><polygon class="star" points="220,260 224,272 237,272 227,280 231,292 220,284 209,292 213,280 203,272 216,272"/><polygon class="star" points="292,260 296,272 309,272 299,280 303,292 292,284 281,292 285,280 275,272 288,272"/></g></svg>