<svg viewBox="0 0 512 512" xmlns="http://www.w3.org/2000/svg"><rect width="512" height="512" fill="#f0f0f0"/><g id="chessboard"><rect x="32" y="32" width="448" height="448" fill="#8b7355" stroke="#000" stroke-width="2"/><g id="squares"><rect x="32" y="32" width="56" height="56" fill="#f5deb3"/><rect x="144" y="32" width="56" height="56" fill="#f5deb3"/><rect x="256" y="32" width="56" height="56" fill="#f5deb3"/><rect x="368" y="32" width="56" height="56" fill="#f5deb3"/><rect x="88" y="88" width="56" height="56" fill="#f5deb3"/><rect x="200" y="88" width="56" height="56" fill="#f5deb3"/><rect x="312" y="88" width="56" height="56" fill="#f5deb3"/><rect x="424" y="88" width="56" height="56" fill="#f5deb3"/><rect x="32" y="144" width="56" height="56" fill="#f5deb3"/><rect x="144" y="144" width="56" height="56" fill="#f5deb3"/><rect x="256" y="144" width="56" height="56" fill="#f5deb3"/><rect x="368" y="144" width="56" height="56" fill="#f5deb3"/><rect x="88" y="200" width="56" height="56" fill="#f5deb3"/><rect x="200" y="200" width="56" height="56" fill="#f5deb3"/><rect x="312" y="200" width="56" height="56" fill="#f5deb3"/><rect x="424" y="200" width="56" height="56" fill="#f5deb3"/><rect x="32" y="256" width="56" height="56" fill="#f5deb3"/><rect x="144" y="256" width="56" height="56" fill="#f5deb3"/><rect x="256" y="256" width="56" height="56" fill="#f5deb3"/><rect x="368" y="256" width="56" height="56" fill="#f5deb3"/><rect x="88" y="312" width="56" height="56" fill="#f5deb3"/><rect x="200" y="312" width="56" height="56" fill="#f5deb3"/><rect x="312" y="312" width="56" height="56" fill="#f5deb3"/><rect x="424" y="312" width="56" height="56" fill="#f5deb3"/><rect x="32" y="368" width="56" height="56" fill="#f5deb3"/><rect x="144" y="368" width="56" height="56" fill="#f5deb3"/><rect x="256" y="368" width="56" height="56" fill="#f5deb3"/><rect x="368" y="368" width="56" height="56" fill="#f5deb3"/><rect x="88" y="424" width="56" height="56" fill="#f5deb3"/><rect x="200" y="424" width="56" height="56" fill="#f5deb3"/><rect x="312" y="424" width="56" height="56" fill="#f5deb3"/><rect x="424" y="424" width="56" height="56" fill="#f5deb3"/></g><g id="pieces"><circle cx="256" cy="120" r="20" fill="#000"/><polygon points="256,80 270,110 242,110" fill="#000"/><circle cx="256" cy="120" r="16" fill="none" stroke="#fff" stroke-width="2"/><circle cx="200" cy="200" r="18" fill="#fff" stroke="#000" stroke-width="2"/><polygon points="200,170 215,200 185,200" fill="#fff" stroke="#000" stroke-width="2"/><circle cx="312" cy="312" r="18" fill="#fff" stroke="#000" stroke-width="2"/><polygon points="312,282 327,312 297,312" fill="#fff" stroke="#000" stroke-width="2"/><path d="M 256 340 L 270 370 L 242 370 Z" fill="#000" stroke="#000" stroke-width="2"/><circle cx="256" cy="340" r="16" fill="#000"/><line x1="256" y1="320" x2="256" y2="360" stroke="#ff0000" stroke-width="3"/><line x1="240" y1="340" x2="272" y2="340" stroke="#ff0000" stroke-width="3"/></g></g></svg>