<svg viewBox="0 0 512 512" xmlns="http://www.w3.org/2000/svg"><defs><style>.cup-body { fill: #D2691E; stroke: #8B4513; stroke-width: 2; } .cup-handle { fill: none; stroke: #8B4513; stroke-width: 3; } .coffee { fill: #3E2723; } .steam { fill: none; stroke: #A9A9A9; stroke-width: 2; stroke-linecap: round; }</style></defs><rect width="512" height="512" fill="#F5E6D3"/><ellipse cx="256" cy="280" rx="80" ry="100" class="cup-body"/><rect x="176" y="180" width="160" height="100" class="cup-body"/><path d="M 176 180 Q 160 180 160 200 L 160 280 Q 160 300 176 300 L 336 300 Q 352 300 352 280 L 352 200 Q 352 180 336 180" class="cup-body"/><path d="M 352 220 Q 400 220 420 250 Q 420 290 400 310" class="cup-handle"/><ellipse cx="256" cy="240" rx="70" ry="50" class="coffee"/><path d="M 220 200 Q 220 180 220 160" class="steam" stroke-dasharray="5,5"/><path d="M 256 200 Q 256 170 256 140" class="steam" stroke-dasharray="5,5"/><path d="M 292 200 Q 292 180 292 160" class="steam" stroke-dasharray="5,5"/><circle cx="220" cy="150" r="8" fill="#D3D3D3" opacity="0.6"/><circle cx="256" cy="120" r="8" fill="#D3D3D3" opacity="0.6"/><circle cx="292" cy="150" r="8" fill="#D3D3D3" opacity="0.6"/></svg>