<svg viewBox="0 0 512 512" xmlns="http://www.w3.org/2000/svg"><defs><linearGradient id="wingGradient" x1="0%" y1="0%" x2="100%" y2="100%"><stop offset="0%" style="stop-color:#87CEEB;stop-opacity:0.7" /><stop offset="100%" style="stop-color:#4A90E2;stop-opacity:0.5" /></linearGradient></defs><ellipse cx="256" cy="200" rx="25" ry="60" fill="#2E7D32" /><ellipse cx="256" cy="280" rx="20" ry="50" fill="#1B5E20" /><circle cx="256" cy="140" r="30" fill="#388E3C" /><ellipse cx="240" cy="130" rx="8" ry="12" fill="#000" /><ellipse cx="272" cy="130" rx="8" ry="12" fill="#000" /><line x1="256" y1="145" x2="256" y2="165" stroke="#000" stroke-width="2" /><polygon points="256,165 250,175 262,175" fill="#FF6B35" /><path d="M 180 180 Q 120 140 80 120" stroke="#2E7D32" stroke-width="8" fill="none" stroke-linecap="round" /><path d="M 332 180 Q 392 140 432 120" stroke="#2E7D32" stroke-width="8" fill="none" stroke-linecap="round" /><path d="M 190 240 Q 100 220 60 260" stroke="#2E7D32" stroke-width="8" fill="none" stroke-linecap="round" /><path d="M 322 240 Q 412 220 452 260" stroke="#2E7D32" stroke-width="8" fill="none" stroke-linecap="round" /><ellipse cx="140" cy="100" rx="45" ry="25" fill="url(#wingGradient)" stroke="#1976D2" stroke-width="2" transform="rotate(-35 140 100)" /><ellipse cx="372" cy="100" rx="45" ry="25" fill="url(#wingGradient)" stroke="#1976D2" stroke-width="2" transform="rotate(35 372 100)" /><ellipse cx="120" cy="240" rx="40" ry="22" fill="url(#wingGradient)" stroke="#1976D2" stroke-width="2" transform="rotate(-50 120 240)" /><ellipse cx="392" cy="240" rx="40" ry="22" fill="url(#wingGradient)" stroke="#1976D2" stroke-width="2" transform="rotate(50 392 240)" /></svg>