<svg viewBox="0 0 512 512" xmlns="http://www.w3.org/2000/svg"><defs><radialGradient id="glow" cx="50%" cy="50%" r="50%"><stop offset="0%" style="stop-color:#ffff00;stop-opacity:1" /><stop offset="100%" style="stop-color:#ff8800;stop-opacity:0" /></radialGradient></defs><circle cx="256" cy="200" r="80" fill="url(#glow)" /><circle cx="256" cy="200" r="70" fill="#ffff00" opacity="0.9" /><circle cx="256" cy="200" r="60" fill="#ffff99" /><path d="M 256 140 L 270 160 L 290 160 L 275 172 L 285 192 L 256 180 L 227 192 L 237 172 L 222 160 L 242 160 Z" fill="#ff6600" /><path d="M 256 140 L 270 160 L 290 160 L 275 172 L 285 192 L 256 180 L 227 192 L 237 172 L 222 160 L 242 160 Z" fill="#ff6600" transform="rotate(72 256 200)" /><path d="M 256 140 L 270 160 L 290 160 L 275 172 L 285 192 L 256 180 L 227 192 L 237 172 L 222 160 L 242 160 Z" fill="#ff6600" transform="rotate(144 256 200)" /><path d="M 256 140 L 270 160 L 290 160 L 275 172 L 285 192 L 256 180 L 227 192 L 237 172 L 222 160 L 242 160 Z" fill="#ff6600" transform="rotate(216 256 200)" /><path d="M 256 140 L 270 160 L 290 160 L 275 172 L 285 192 L 256 180 L 227 192 L 237 172 L 222 160 L 242 160 Z" fill="#ff6600" transform="rotate(288 256 200)" /><circle cx="256" cy="200" r="40" fill="#ffffff" opacity="0.8" /><circle cx="256" cy="200" r="30" fill="#ffff00" /><path d="M 256 320 Q 220 360 200 420 Q 256 440 312 420 Q 292 360 256 320" fill="#8b4513" /><ellipse cx="220" cy="380" rx="25" ry="35" fill="#228b22" /><ellipse cx="292" cy="380" rx="25" ry="35" fill="#228b22" /><line x1="256" y1="280" x2="256" y2="320" stroke="#8b4513" stroke-width="8" stroke-linecap="round" /></svg>