<svg viewBox="0 0 512 512" xmlns="http://www.w3.org/2000/svg"><defs><style>.leaf { fill: #FF6B35; } .leaf2 { fill: #F7931E; } .leaf3 { fill: #FDB833; } .branch { stroke: #8B4513; stroke-width: 3; fill: none; } .ground { fill: #654321; }</style></defs><rect width="512" height="512" fill="#87CEEB"/><ellipse cx="256" cy="450" rx="150" ry="40" class="ground"/><path d="M 256 100 Q 200 200 180 350" class="branch"/><path d="M 256 100 Q 312 200 332 350" class="branch"/><path d="M 200 180 Q 150 220 120 280" class="branch"/><path d="M 312 180 Q 362 220 392 280" class="branch"/><ellipse cx="100" cy="200" rx="20" ry="25" class="leaf" transform="rotate(-45 100 200)"/><ellipse cx="130" cy="250" rx="20" ry="25" class="leaf2" transform="rotate(-30 130 250)"/><ellipse cx="160" cy="300" rx="20" ry="25" class="leaf3" transform="rotate(-15 160 300)"/><ellipse cx="200" cy="320" rx="20" ry="25" class="leaf" transform="rotate(20 200 320)"/><ellipse cx="240" cy="340" rx="20" ry="25" class="leaf2" transform="rotate(45 240 340)"/><ellipse cx="280" cy="330" rx="20" ry="25" class="leaf3" transform="rotate(-20 280 330)"/><ellipse cx="320" cy="310" rx="20" ry="25" class="leaf" transform="rotate(-40 320 310)"/><ellipse cx="350" cy="260" rx="20" ry="25" class="leaf2" transform="rotate(30 350 260)"/><ellipse cx="370" cy="210" rx="20" ry="25" class="leaf3" transform="rotate(50 370 210)"/><ellipse cx="390" cy="280" rx="20" ry="25" class="leaf" transform="rotate(15 390 280)"/></svg>