<svg viewBox="0 0 512 512" xmlns="http://www.w3.org/2000/svg"><defs><style>.castle{fill:#8B7355;stroke:#654321;stroke-width:2}.tower{fill:#A0826D;stroke:#654321;stroke-width:2}.flag{fill:#DC143C;stroke:#333;stroke-width:1}.person{fill:#FFD700;stroke:#333;stroke-width:1.5}.ground{fill:#228B22;stroke:none}</style></defs><rect class="ground" x="0" y="380" width="512" height="132"/><g class="castle"><rect x="80" y="200" width="350" height="180" rx="5"/><polygon points="100,200 100,140 130,160 160,140 160,200" class="tower"/><polygon points="280,200 280,130 310,155 340,130 340,200" class="tower"/><polygon points="400,200 400,145 430,165 460,145 460,200" class="tower"/></g><rect class="flag" x="305" y="110" width="30" height="50" rx="3"/><polygon points="335,115 335,135 365,125" class="flag"/><circle class="person" cx="150" cy="320" r="15"/><rect class="person" x="140" y="340" width="20" height="30"/><rect class="person" x="135" y="345" width="10" height="25"/><rect class="person" x="155" y="345" width="10" height="25"/><circle class="person" cx="280" cy="320" r="15"/><rect class="person" x="270" y="340" width="20" height="30"/><rect class="person" x="265" y="345" width="10" height="25"/><rect class="person" x="285" y="345" width="10" height="25"/><circle class="person" cx="380" cy="330" r="12"/><rect class="person" x="372" y="345" width="16" height="25"/><rect class="person" x="368" y="350" width="8" height="20"/><rect class="person" x="388" y="350" width="8" height="20"/><line x1="200" y1="300" x2="200" y2="360" stroke="#333" stroke-width="2"/><line x1="190" y1="310" x2="210" y2="310" stroke="#333" stroke-width="2"/><line x1="320" y1="300" x2="320" y2="360" stroke="#333" stroke-width="2"/><line x1="310" y1="310" x2="330" y2="310" stroke="#333" stroke-width="2"/></svg>