<svg viewBox="0 0 512 512" xmlns="http://www.w3.org/2000/svg"><defs><linearGradient id="fireGrad" x1="0%" y1="100%" x2="0%" y2="0%"><stop offset="0%" style="stop-color:#ff4500;stop-opacity:1" /><stop offset="50%" style="stop-color:#ff8c00;stop-opacity:1" /><stop offset="100%" style="stop-color:#ffff00;stop-opacity:1" /></linearGradient></defs><ellipse cx="256" cy="380" rx="80" ry="40" fill="#333333" opacity="0.3"/><path d="M 256 480 Q 220 420 220 360 Q 220 300 256 260 Q 292 300 292 360 Q 292 420 256 480" fill="url(#fireGrad)" opacity="0.9"/><path d="M 240 420 Q 210 370 210 320 Q 210 270 240 240 Q 270 270 270 320 Q 270 370 240 420" fill="#ff6b1a" opacity="0.8"/><path d="M 272 420 Q 302 370 302 320 Q 302 270 272 240 Q 242 270 242 320 Q 242 370 272 420" fill="#ff6b1a" opacity="0.8"/><path d="M 256 380 Q 230 340 230 300 Q 230 260 256 240 Q 282 260 282 300 Q 282 340 256 380" fill="#ffaa00" opacity="0.7"/><path d="M 256 320 Q 240 290 240 270 Q 240 250 256 240 Q 272 250 272 270 Q 272 290 256 320" fill="#ffff00" opacity="0.6"/></svg>