<svg viewBox="0 0 512 512" xmlns="http://www.w3.org/2000/svg"><defs><ellipse id="body" cx="256" cy="280" rx="80" ry="100"/></defs><g stroke="#8B4513" stroke-width="3" fill="none"><ellipse cx="256" cy="280" rx="80" ry="100" fill="#D2691E"/><circle cx="256" cy="260" r="25" fill="none" stroke="#333"/><line x1="256" y1="180" x2="256" y2="80"/><rect x="240" y="60" width="32" height="30" fill="#8B4513" stroke="#333" stroke-width="2"/><line x1="248" y1="60" x2="248" y2="50"/><line x1="256" y1="60" x2="256" y2="50"/><line x1="264" y1="60" x2="264" y2="50"/><line x1="256" y1="180" x2="220" y2="200"/><line x1="256" y1="180" x2="292" y2="200"/><line x1="220" y1="200" x2="200" y2="280"/><line x1="292" y1="200" x2="312" y2="280"/><line x1="256" y1="260" x2="256" y2="380"/><line x1="250" y1="265" x2="245" y2="375"/><line x1="262" y1="265" x2="267" y2="375"/><line x1="248" y1="270" x2="240" y2="370"/><line x1="264" y1="270" x2="272" y2="370"/><line x1="246" y1="275" x2="235" y2="365"/><line x1="266" y1="275" x2="277" y2="365"/></g></svg>