<svg viewBox="0 0 512 512" xmlns="http://www.w3.org/2000/svg"><defs><style>.stalk { stroke: #8B7355; stroke-width: 3; fill: none; } .grain { fill: #DAA520; } .basket { stroke: #8B4513; stroke-width: 2; fill: #D2B48C; } .handle { stroke: #8B4513; stroke-width: 3; fill: none; }</style></defs><rect width="512" height="512" fill="#F5DEB3"/><g id="wheat1"><line class="stalk" x1="80" y1="280" x2="80" y2="180"/><circle class="grain" cx="75" cy="170" r="4"/><circle class="grain" cx="80" cy="165" r="4"/><circle class="grain" cx="85" cy="170" r="4"/><circle class="grain" cx="78" cy="155" r="4"/><circle class="grain" cx="82" cy="155" r="4"/></g><g id="wheat2"><line class="stalk" x1="140" y1="290" x2="140" y2="160"/><circle class="grain" cx="135" cy="150" r="4"/><circle class="grain" cx="140" cy="145" r="4"/><circle class="grain" cx="145" cy="150" r="4"/><circle class="grain" cx="138" cy="135" r="4"/><circle class="grain" cx="142" cy="135" r="4"/><circle class="grain" cx="140" cy="120" r="4"/></g><g id="wheat3"><line class="stalk" x1="200" y1="300" x2="200" y2="170"/><circle class="grain" cx="195" cy="160" r="4"/><circle class="grain" cx="200" cy="155" r="4"/><circle class="grain" cx="205" cy="160" r="4"/><circle class="grain" cx="198" cy="145" r="4"/><circle class="grain" cx="202" cy="145" r="4"/><circle class="grain" cx="200" cy="130" r="4"/></g><g id="basket"><ellipse class="basket" cx="280" cy="320" rx="90" ry="30"/><path class="basket" d="M 190 320 Q 190 380 210 400 L 350 400 Q 370 380 370 320"/><line class="basket" x1="210" y1="320" x2="210" y2="400"/><line class="basket" x1="280" y1="320" x2="280" y2="400"/><line class="basket" x1="350" y1="320" x2="350" y2="400"/><path class="handle" d="M 210 320 Q 280 240 350 320"/></g><g id="grain_in_basket"><circle class="grain" cx="260" cy="340" r="5"/><circle class="grain" cx="290" cy="345" r="5"/><circle class="grain" cx="270" cy="355" r="5"/><circle class="grain" cx="300" cy="350" r="5"/><circle class="grain" cx="250" cy="360" r="5"/></g></svg>