<svg viewBox="0 0 512 512" xmlns="http://www.w3.org/2000/svg"><defs><style>.flame { fill: #FF6B35; } .bulb-glass { fill: #FFD93D; stroke: #333; stroke-width: 2; } .bulb-base { fill: #333; } .spark { fill: #FFD93D; }</style></defs><g><circle cx="256" cy="280" r="60" class="bulb-glass"/><path d="M 220 280 Q 220 240 256 220 Q 292 240 292 280" class="bulb-glass"/><rect x="240" y="340" width="32" height="20" class="bulb-base"/><rect x="235" y="360" width="42" height="8" class="bulb-base"/><circle cx="256" cy="260" r="35" class="flame" opacity="0.9"/><circle cx="240" cy="275" r="25" class="flame" opacity="0.8"/><circle cx="272" cy="275" r="25" class="flame" opacity="0.8"/><circle cx="256" cy="240" r="20" class="flame" opacity="0.7"/><polygon points="256,180 265,210 245,210" class="spark"/><polygon points="180,240 205,250 190,265" class="spark"/><polygon points="332,240 357,250 342,265" class="spark"/><polygon points="200,160 220,185 205,200" class="spark"/><polygon points="312,160 332,185 317,200" class="spark"/><circle cx="256" cy="250" r="15" fill="#FFF" opacity="0.6"/></g></svg>