<svg viewBox="0 0 512 512" xmlns="http://www.w3.org/2000/svg"><rect width="512" height="512" fill="#ffffff"/><circle cx="180" cy="120" r="40" fill="#e74c3c"/><rect x="140" y="160" width="80" height="100" fill="#0066cc" rx="5"/><rect x="120" y="260" width="120" height="120" fill="#0066cc" rx="5"/><rect x="130" y="270" width="30" height="110" fill="#8b4513"/><rect x="250" y="270" width="30" height="110" fill="#8b4513"/><circle cx="160" cy="200" r="8" fill="#000000"/><circle cx="200" cy="200" r="8" fill="#000000"/><path d="M 170 220 Q 180 230 190 220" stroke="#000000" stroke-width="2" fill="none"/><rect x="350" y="160" width="80" height="100" fill="#228b22" rx="5"/><rect x="330" y="260" width="120" height="120" fill="#228b22" rx="5"/><rect x="340" y="270" width="30" height="110" fill="#8b4513"/><rect x="450" y="270" width="30" height="110" fill="#8b4513"/><circle cx="370" cy="200" r="8" fill="#000000"/><circle cx="410" cy="200" r="8" fill="#000000"/><path d="M 380 220 Q 390 230 400 220" stroke="#000000" stroke-width="2" fill="none"/><circle cx="380" cy="120" r="40" fill="#228b22"/></svg>