<svg viewBox="0 0 512 512" xmlns="http://www.w3.org/2000/svg"><rect width="512" height="512" fill="white"/><circle cx="180" cy="150" r="40" fill="#FFB6C1" stroke="#000" stroke-width="2"/><circle cx="180" cy="150" r="35" fill="#FFD7E0"/><circle cx="170" cy="140" r="6" fill="#000"/><circle cx="190" cy="140" r="6" fill="#000"/><path d="M 180 155 Q 175 165 180 170" stroke="#000" stroke-width="2" fill="none"/><path d="M 175 175 Q 175 185 180 190" stroke="#000" stroke-width="2" fill="none"/><path d="M 185 175 Q 185 185 180 190" stroke="#000" stroke-width="2" fill="none"/><circle cx="150" cy="280" r="35" fill="#FFB6C1" stroke="#000" stroke-width="2"/><circle cx="150" cy="280" r="30" fill="#FFD7E0"/><circle cx="142" cy="272" r="5" fill="#000"/><circle cx="158" cy="272" r="5" fill="#000"/><path d="M 150 285 Q 146 292 150 297" stroke="#000" stroke-width="1.5" fill="none"/><circle cx="210" cy="280" r="35" fill="#FFB6C1" stroke="#000" stroke-width="2"/><circle cx="210" cy="280" r="30" fill="#FFD7E0"/><circle cx="202" cy="272" r="5" fill="#000"/><circle cx="218" cy="272" r="5" fill="#000"/><path d="M 210 285 Q 206 292 210 297" stroke="#000" stroke-width="1.5" fill="none"/><rect x="140" y="310" width="20" height="60" fill="#FFB6C1" stroke="#000" stroke-width="2"/><rect x="200" y="310" width="20" height="60" fill="#FFB6C1" stroke="#000" stroke-width="2"/><rect x="130" y="370" width="15" height="40" fill="#FFB6C1" stroke="#000" stroke-width="2"/><rect x="155" y="370" width="15" height="40" fill="#FFB6C1" stroke="#000" stroke-width="2"/><rect x="200" y="370" width="15" height="40" fill="#FFB6C1" stroke="#000" stroke-width="2"/><rect x="225" y="370" width="15" height="40" fill="#FFB6C1" stroke="#000" stroke-width="2"/><path d="M 160 200 Q 150 240 150 280" stroke="#000" stroke-width="2" fill="none"/><path d="M 200 200 Q 210 240 210 280" stroke="#000" stroke-width="2" fill="none"/></svg>