<svg viewBox="0 0 512 512" xmlns="http://www.w3.org/2000/svg"><rect width="512" height="512" fill="#ffffff"/><circle cx="256" cy="200" r="60" fill="#FFD700" stroke="#333" stroke-width="3"/><circle cx="240" cy="190" r="8" fill="#333"/><circle cx="272" cy="190" r="8" fill="#333"/><path d="M 256 220 Q 250 230 256 235 Q 262 230 256 220" fill="#333"/><path d="M 220 210 Q 210 215 200 210" stroke="#333" stroke-width="3" fill="none" stroke-linecap="round"/><path d="M 292 210 Q 302 215 312 210" stroke="#333" stroke-width="3" fill="none" stroke-linecap="round"/><line x1="256" y1="260" x2="220" y2="340" stroke="#333" stroke-width="4" stroke-linecap="round"/><line x1="256" y1="260" x2="292" y2="340" stroke="#333" stroke-width="4" stroke-linecap="round"/><line x1="220" y1="340" x2="200" y2="420" stroke="#333" stroke-width="4" stroke-linecap="round"/><line x1="220" y1="340" x2="240" y2="420" stroke="#333" stroke-width="4" stroke-linecap="round"/><line x1="292" y1="340" x2="272" y2="420" stroke="#333" stroke-width="4" stroke-linecap="round"/><line x1="292" y1="340" x2="312" y2="420" stroke="#333" stroke-width="4" stroke-linecap="round"/><path d="M 180 280 Q 170 290 180 300" stroke="#FF6B6B" stroke-width="2" fill="none" stroke-linecap="round"/><path d="M 332 280 Q 342 290 332 300" stroke="#FF6B6B" stroke-width="2" fill="none" stroke-linecap="round"/><path d="M 170 320 Q 160 330 170 340" stroke="#FF6B6B" stroke-width="2" fill="none" stroke-linecap="round"/><path d="M 342 320 Q 352 330 342 340" stroke="#FF6B6B" stroke-width="2" fill="none" stroke-linecap="round"/></svg>