<svg viewBox="0 0 512 512" xmlns="http://www.w3.org/2000/svg"><defs><style>.column { fill: none; stroke: #8B7355; stroke-width: 8; } .roof { fill: #D4A574; stroke: #8B7355; stroke-width: 2; } .dome { fill: #C9A961; stroke: #8B7355; stroke-width: 2; } .base { fill: #A0826D; stroke: #333; stroke-width: 2; }</style></defs><rect width="512" height="512" fill="#F5E6D3"/><g id="pantheon"><polygon points="80,380 432,380 432,420 80,420" class="base"/><polygon points="100,320 412,320 432,380 80,380" class="roof"/><circle cx="256" cy="180" r="120" class="dome"/><line x1="120" y1="320" x2="120" y2="380" class="column"/><line x1="160" y1="320" x2="160" y2="380" class="column"/><line x1="200" y1="320" x2="200" y2="380" class="column"/><line x1="240" y1="320" x2="240" y2="380" class="column"/><line x1="280" y1="320" x2="280" y2="380" class="column"/><line x1="320" y1="320" x2="320" y2="380" class="column"/><line x1="360" y1="320" x2="360" y2="380" class="column"/><line x1="400" y1="320" x2="400" y2="380" class="column"/><circle cx="256" cy="180" r="100" fill="none" stroke="#8B7355" stroke-width="3"/><circle cx="256" cy="180" r="80" fill="none" stroke="#8B7355" stroke-width="2" opacity="0.6"/><line x1="256" y1="100" x2="256" y2="260" stroke="#8B7355" stroke-width="2" opacity="0.4"/><line x1="176" y1="180" x2="336" y2="180" stroke="#8B7355" stroke-width="2" opacity="0.4"/></g></svg>