<svg viewBox="0 0 512 512" xmlns="http://www.w3.org/2000/svg"><defs><radialGradient id="papayaGrad" cx="40%" cy="40%"><stop offset="0%" style="stop-color:#FFD700;stop-opacity:1" /><stop offset="100%" style="stop-color:#FF8C00;stop-opacity:1" /></radialGradient><radialGradient id="seedGrad" cx="30%" cy="30%"><stop offset="0%" style="stop-color:#333333;stop-opacity:1" /><stop offset="100%" style="stop-color:#000000;stop-opacity:1" /></radialGradient></defs><ellipse cx="256" cy="280" rx="120" ry="140" fill="url(#papayaGrad)" stroke="#E67E22" stroke-width="2"/><path d="M 200 160 Q 180 120 200 80 Q 220 100 240 90 Q 260 80 280 95 Q 300 110 290 140 Q 270 160 256 170" fill="#228B22" stroke="#1a6b1a" stroke-width="2"/><ellipse cx="220" cy="260" rx="18" ry="22" fill="url(#seedGrad)" opacity="0.8"/><ellipse cx="256" cy="240" rx="16" ry="20" fill="url(#seedGrad)" opacity="0.8"/><ellipse cx="290" cy="270" rx="17" ry="21" fill="url(#seedGrad)" opacity="0.8"/><ellipse cx="240" cy="310" rx="15" ry="19" fill="url(#seedGrad)" opacity="0.8"/><ellipse cx="280" cy="320" rx="16" ry="20" fill="url(#seedGrad)" opacity="0.8"/><ellipse cx="256" cy="350" rx="18" ry="22" fill="url(#seedGrad)" opacity="0.8"/><ellipse cx="220" cy="300" rx="14" ry="18" fill="url(#seedGrad)" opacity="0.7"/><ellipse cx="310" cy="310" rx="15" ry="19" fill="url(#seedGrad)" opacity="0.7"/></svg>