<svg viewBox="0 0 512 512" xmlns="http://www.w3.org/2000/svg"><defs><style>.body{fill:#FFCC00}.eye{fill:#000000}.cheek{fill:#FF6B6B}.ear{fill:#FFCC00}.ear-inner{fill:#000000}</style></defs><ellipse cx="256" cy="280" rx="100" ry="120" class="body"/><circle cx="256" cy="160" r="90" class="body"/><circle cx="200" cy="120" r="50" class="ear"/><circle cx="312" cy="120" r="50" class="ear"/><polygon points="200,80 180,40 220,60" class="ear-inner"/><polygon points="312,80 332,40 292,60" class="ear-inner"/><circle cx="230" cy="150" r="12" class="eye"/><circle cx="282" cy="150" r="12" class="eye"/><circle cx="225" cy="155" r="5" fill="#FFFFFF"/><circle cx="277" cy="155" r="5" fill="#FFFFFF"/><circle cx="180" cy="200" r="25" class="cheek"/><circle cx="332" cy="200" r="25" class="cheek"/><ellipse cx="256" cy="220" rx="15" ry="20" fill="#000000"/><path d="M 256 240 Q 240 260 230 270" stroke="#000000" stroke-width="3" fill="none" stroke-linecap="round"/><path d="M 256 240 Q 272 260 282 270" stroke="#000000" stroke-width="3" fill="none" stroke-linecap="round"/><ellipse cx="220" cy="340" rx="30" ry="50" class="body"/><ellipse cx="292" cy="340" rx="30" ry="50" class="body"/><ellipse cx="256" cy="380" rx="25" ry="35" class="body"/><path d="M 180 300 L 140 320 L 160 340" fill="#FFCC00" stroke="#000000" stroke-width="2"/><path d="M 332 300 L 372 320 L 352 340" fill="#FFCC00" stroke="#000000" stroke-width="2"/><path d="M 256 420 L 256 460" stroke="#FFCC00" stroke-width="8" stroke-linecap="round"/><path d="M 240 420 L 230 460" stroke="#FFCC00" stroke-width="8" stroke-linecap="round"/><path d="M 272 420 L 282 460" stroke="#FFCC00" stroke-width="8" stroke-linecap="round"/></svg>