<svg viewBox="0 0 512 512" xmlns="http://www.w3.org/2000/svg"><defs><radialGradient id="pitayaGrad" cx="40%" cy="40%"><stop offset="0%" style="stop-color:#ff69b4;stop-opacity:1" /><stop offset="100%" style="stop-color:#ff1493;stop-opacity:1" /></radialGradient></defs><ellipse cx="256" cy="280" rx="140" ry="160" fill="url(#pitayaGrad)" /><circle cx="220" cy="250" r="8" fill="#2d2d2d" /><circle cx="240" cy="270" r="8" fill="#2d2d2d" /><circle cx="260" cy="260" r="8" fill="#2d2d2d" /><circle cx="280" cy="280" r="8" fill="#2d2d2d" /><circle cx="300" cy="270" r="8" fill="#2d2d2d" /><circle cx="230" cy="300" r="8" fill="#2d2d2d" /><circle cx="250" cy="310" r="8" fill="#2d2d2d" /><circle cx="270" cy="305" r="8" fill="#2d2d2d" /><circle cx="290" cy="315" r="8" fill="#2d2d2d" /><circle cx="240" cy="330" r="8" fill="#2d2d2d" /><circle cx="260" cy="340" r="8" fill="#2d2d2d" /><circle cx="280" cy="335" r="8" fill="#2d2d2d" /><path d="M 200 180 Q 190 160 200 140 Q 210 150 220 140 Q 230 160 220 180" fill="#228b22" /><path d="M 280 160 Q 270 140 280 120 Q 290 130 300 120 Q 310 140 300 160" fill="#228b22" /><path d="M 320 200 Q 310 180 320 160 Q 330 170 340 160 Q 350 180 340 200" fill="#228b22" /></svg>