<svg viewBox="0 0 512 512" xmlns="http://www.w3.org/2000/svg"><rect width="512" height="512" fill="#f0f0f0"/><rect x="50" y="80" width="412" height="300" fill="#1a1a1a" stroke="#333" stroke-width="2" rx="8"/><rect x="60" y="90" width="392" height="280" fill="#0d0d0d" stroke="#444" stroke-width="1" rx="4"/><text x="256" y="140" font-family="monospace" font-size="24" fill="#00ff00" text-anchor="middle">function()</text><line x1="80" y1="160" x2="432" y2="160" stroke="#00ff00" stroke-width="1" opacity="0.5"/><circle cx="100" cy="200" r="6" fill="#ff6b6b"/><circle cx="130" cy="200" r="6" fill="#4ecdc4"/><circle cx="160" cy="200" r="6" fill="#ffe66d"/><path d="M 200 180 L 220 220 L 240 190" stroke="#95e1d3" stroke-width="2" fill="none"/><path d="M 280 190 L 300 220 L 320 190" stroke="#95e1d3" stroke-width="2" fill="none"/><rect x="350" y="185" width="30" height="30" fill="none" stroke="#a8e6cf" stroke-width="2" rx="2"/><circle cx="100" cy="260" r="4" fill="#00ff00"/><circle cx="120" cy="260" r="4" fill="#00ff00"/><circle cx="140" cy="260" r="4" fill="#00ff00"/><line x1="170" y1="250" x2="220" y2="270" stroke="#00ff00" stroke-width="2"/><line x1="220" y1="270" x2="270" y2="250" stroke="#00ff00" stroke-width="2"/><rect x="300" y="245" width="20" height="30" fill="#ff6b6b" opacity="0.7"/><rect x="330" y="245" width="20" height="30" fill="#4ecdc4" opacity="0.7"/><rect x="360" y="245" width="20" height="30" fill="#ffe66d" opacity="0.7"/><line x1="60" y1="320" x2="452" y2="320" stroke="#00ff00" stroke-width="1" opacity="0.3"/><circle cx="80" cy="350" r="8" fill="none" stroke="#95e1d3" stroke-width="2"/><circle cx="120" cy="350" r="8" fill="none" stroke="#a8e6cf" stroke-width="2"/><circle cx="160" cy="350" r="8" fill="none" stroke="#95e1d3" stroke-width="2"/><path d="M 200 340 L 210 360 L 220 340" stroke="#00ff00" stroke-width="2" fill="none"/><path d="M 250 340 L 260 360 L 270 340" stroke="#00ff00" stroke-width="2" fill="none"/><rect x="300" y="340" width="15" height="20" fill="#ff6b6b" opacity="0.6"/><rect x="325" y="340" width="15" height="20" fill="#4ecdc4" opacity="0.6"/><rect x="350" y="340" width="15" height="20" fill="#ffe66d" opacity="0.6"/></svg>