<svg viewBox="0 0 512 512" xmlns="http://www.w3.org/2000/svg"><defs><style>.line{stroke:#000;stroke-width:2;fill:none}.fill{fill:#000}</style></defs><rect width="512" height="512" fill="#fff"/><circle cx="256" cy="200" r="80" class="line"/><path d="M 256 120 L 256 80" class="line"/><path d="M 256 280 L 256 320" class="line"/><path d="M 176 200 L 136 200" class="line"/><path d="M 336 200 L 376 200" class="line"/><path d="M 190 135 L 160 105" class="line"/><path d="M 322 265 L 352 295" class="line"/><path d="M 322 135 L 352 105" class="line"/><path d="M 190 265 L 160 295" class="line"/><circle cx="256" cy="200" r="50" class="line"/><path d="M 256 150 Q 280 175 256 200 Q 232 175 256 150" class="fill"/><path d="M 200 200 Q 225 224 256 200 Q 225 176 200 200" class="fill"/><path d="M 312 200 Q 287 224 256 200 Q 287 176 312 200" class="fill"/><path d="M 256 250 Q 280 225 256 200 Q 232 225 256 250" class="fill"/><circle cx="256" cy="380" r="60" class="line"/><path d="M 220 360 L 240 400" class="line"/><path d="M 292 360 L 272 400" class="line"/><path d="M 230 420 L 282 420" class="line"/></svg>