<svg viewBox="0 0 512 512" xmlns="http://www.w3.org/2000/svg"><rect width="512" height="512" fill="white"/><circle cx="256" cy="200" r="60" fill="none" stroke="#2563eb" stroke-width="3"/><circle cx="200" cy="160" r="8" fill="#2563eb"/><circle cx="312" cy="160" r="8" fill="#2563eb"/><circle cx="180" cy="220" r="8" fill="#2563eb"/><circle cx="332" cy="220" r="8" fill="#2563eb"/><line x1="256" y1="100" x2="256" y2="50" stroke="#dc2626" stroke-width="4" stroke-linecap="round"/><circle cx="256" cy="40" r="12" fill="#dc2626"/><rect x="100" y="300" width="312" height="120" rx="10" fill="none" stroke="#16a34a" stroke-width="3"/><line x1="130" y1="340" x2="382" y2="340" stroke="#16a34a" stroke-width="2"/><line x1="130" y1="380" x2="382" y2="380" stroke="#16a34a" stroke-width="2"/><circle cx="150" cy="320" r="6" fill="#16a34a"/><circle cx="200" cy="320" r="6" fill="#16a34a"/><circle cx="250" cy="320" r="6" fill="#16a34a"/><circle cx="300" cy="320" r="6" fill="#16a34a"/><circle cx="350" cy="320" r="6" fill="#16a34a"/><path d="M 150 360 L 160 350 L 170 365 L 180 355 L 190 370" stroke="#7c3aed" stroke-width="2" fill="none" stroke-linecap="round" stroke-linejoin="round"/><path d="M 250 360 L 260 350 L 270 365 L 280 355 L 290 370" stroke="#7c3aed" stroke-width="2" fill="none" stroke-linecap="round" stroke-linejoin="round"/><path d="M 350 360 L 360 350 L 370 365 L 380 355 L 390 370" stroke="#7c3aed" stroke-width="2" fill="none" stroke-linecap="round" stroke-linejoin="round"/></svg>