<svg viewBox="0 0 512 512" xmlns="http://www.w3.org/2000/svg"><defs><style>.sonic-body { fill: #0066cc; } .sonic-belly { fill: #ffffff; } .sonic-eye { fill: #000000; } .sonic-spike { fill: #0066cc; } .sonic-shoe { fill: #ff0000; } .sonic-glove { fill: #ffffff; }</style></defs><circle cx="256" cy="280" r="80" class="sonic-body"/><ellipse cx="256" cy="240" rx="70" ry="75" class="sonic-body"/><circle cx="240" cy="220" r="12" class="sonic-eye"/><circle cx="272" cy="220" r="12" class="sonic-eye"/><circle cx="242" cy="218" r="5" fill="#ffffff"/><circle cx="274" cy="218" r="5" fill="#ffffff"/><polygon points="220,180 200,150 210,190" class="sonic-spike"/><polygon points="256,160 240,120 260,180" class="sonic-spike"/><polygon points="290,180 310,150 300,190" class="sonic-spike"/><ellipse cx="220" cy="280" rx="25" ry="35" class="sonic-glove"/><ellipse cx="292" cy="280" rx="25" ry="35" class="sonic-glove"/><ellipse cx="240" cy="350" rx="20" ry="30" class="sonic-shoe"/><ellipse cx="272" cy="350" rx="20" ry="30" class="sonic-shoe"/><ellipse cx="235" cy="355" rx="15" ry="12" fill="#ffcc00"/><ellipse cx="277" cy="355" rx="15" ry="12" fill="#ffcc00"/><ellipse cx="256" cy="300" rx="35" ry="25" class="sonic-belly"/><path d="M 256 260 Q 250 270 256 280" stroke="#000000" stroke-width="2" fill="none"/><path d="M 256 280 Q 250 290 256 300" stroke="#000000" stroke-width="2" fill="none"/></svg>