<svg viewBox="0 0 512 512" xmlns="http://www.w3.org/2000/svg"><defs><radialGradient id="supernovaGlow" cx="50%" cy="50%" r="50%"><stop offset="0%" style="stop-color:#ffff00;stop-opacity:1" /><stop offset="50%" style="stop-color:#ff8800;stop-opacity:0.8" /><stop offset="100%" style="stop-color:#ff0000;stop-opacity:0" /></radialGradient></defs><circle cx="256" cy="256" r="120" fill="url(#supernovaGlow)" /><circle cx="256" cy="256" r="80" fill="#ffff00" opacity="0.9" /><circle cx="256" cy="256" r="50" fill="#ffffff" opacity="0.95" /><polygon points="256,80 290,180 400,200 320,270 350,380 256,330 162,380 192,270 112,200 222,180" fill="#ffff00" opacity="0.8" /><polygon points="256,100 280,170 370,185 310,240 330,330 256,290 182,330 202,240 142,185 232,170" fill="#ff8800" opacity="0.7" /><line x1="256" y1="50" x2="256" y2="10" stroke="#ffff00" stroke-width="3" opacity="0.8" /><line x1="256" y1="462" x2="256" y2="502" stroke="#ffff00" stroke-width="3" opacity="0.8" /><line x1="50" y1="256" x2="10" y2="256" stroke="#ffff00" stroke-width="3" opacity="0.8" /><line x1="462" y1="256" x2="502" y2="256" stroke="#ffff00" stroke-width="3" opacity="0.8" /><line x1="100" y1="100" x2="70" y2="70" stroke="#ff8800" stroke-width="2" opacity="0.7" /><line x1="412" y1="412" x2="442" y2="442" stroke="#ff8800" stroke-width="2" opacity="0.7" /><line x1="412" y1="100" x2="442" y2="70" stroke="#ff8800" stroke-width="2" opacity="0.7" /><line x1="100" y1="412" x2="70" y2="442" stroke="#ff8800" stroke-width="2" opacity="0.7" /></svg>