<svg viewBox="0 0 512 512" xmlns="http://www.w3.org/2000/svg"><defs><style>.surreal-fill { fill: #2c3e50; } .surreal-stroke { stroke: #2c3e50; stroke-width: 2; fill: none; }</style></defs><rect width="512" height="512" fill="#ecf0f1"/><circle cx="150" cy="150" r="60" class="surreal-fill" opacity="0.7"/><ellipse cx="300" cy="180" rx="80" ry="40" class="surreal-fill" opacity="0.6" transform="rotate(25 300 180)"/><path d="M 100 300 Q 150 250 200 300 T 300 300" class="surreal-stroke"/><polygon points="350,350 400,280 450,350 420,400 380,400" class="surreal-fill" opacity="0.5"/><circle cx="250" cy="400" r="35" class="surreal-stroke"/><path d="M 80 450 L 180 420 L 200 480 Z" class="surreal-fill" opacity="0.6"/><rect x="320" y="420" width="60" height="70" class="surreal-stroke" transform="rotate(-20 350 455)"/><circle cx="120" cy="280" r="25" class="surreal-stroke" opacity="0.8"/><ellipse cx="400" cy="150" rx="45" ry="25" class="surreal-fill" opacity="0.4"/><path d="M 200 100 Q 250 80 280 120" class="surreal-stroke" stroke-linecap="round"/><circle cx="280" cy="350" r="20" class="surreal-fill" opacity="0.7"/><path d="M 50 200 L 100 180 L 90 240 Z" class="surreal-fill" opacity="0.5"/></svg>