<svg viewBox="0 0 512 512" xmlns="http://www.w3.org/2000/svg"><defs><style>.building{fill:#333;stroke:#666;stroke-width:2}.window{fill:#ffeb3b;stroke:#333;stroke-width:1}.tree{fill:#2d5016}.water{fill:#4da6ff;stroke:#0066cc;stroke-width:2}.mountain{fill:#8b7355;stroke:#654321;stroke-width:2}</style></defs><rect width="512" height="512" fill="#e8f4f8"/><path class="mountain" d="M 80 350 L 150 200 L 220 350 Z"/><path class="mountain" d="M 200 350 L 280 180 L 360 350 Z"/><ellipse class="water" cx="256" cy="420" rx="180" ry="60"/><rect class="building" x="80" y="200" width="60" height="180"/><rect class="window" x="90" y="220" width="12" height="12"/><rect class="window" x="110" y="220" width="12" height="12"/><rect class="window" x="130" y="220" width="12" height="12"/><rect class="window" x="90" y="250" width="12" height="12"/><rect class="window" x="110" y="250" width="12" height="12"/><rect class="window" x="130" y="250" width="12" height="12"/><rect class="window" x="90" y="280" width="12" height="12"/><rect class="window" x="110" y="280" width="12" height="12"/><rect class="window" x="130" y="280" width="12" height="12"/><rect class="window" x="90" y="310" width="12" height="12"/><rect class="window" x="110" y="310" width="12" height="12"/><rect class="window" x="130" y="310" width="12" height="12"/><rect class="building" x="200" y="150" width="70" height="230"/><rect class="window" x="215" y="170" width="14" height="14"/><rect class="window" x="240" y="170" width="14" height="14"/><rect class="window" x="215" y="210" width="14" height="14"/><rect class="window" x="240" y="210" width="14" height="14"/><rect class="window" x="215" y="250" width="14" height="14"/><rect class="window" x="240" y="250" width="14" height="14"/><rect class="window" x="215" y="290" width="14" height="14"/><rect class="window" x="240" y="290" width="14" height="14"/><rect class="window" x="215" y="330" width="14" height="14"/><rect class="window" x="240" y="330" width="14" height="14"/><rect class="building" x="330" y="220" width="55" height="160"/><rect class="window" x="342" y="240" width="11" height="11"/><rect class="window" x="360" y="240" width="11" height="11"/><rect class="window" x="342" y="270" width="11" height="11"/><rect class="window" x="360" y="270" width="11" height="11"/><rect class="window" x="342" y="300" width="11" height="11"/><rect class="window" x="360" y="300" width="11" height="11"/><rect class="window" x="342" y="330" width="11" height="11"/><rect class="window" x="360" y="330" width="11" height="11"/><circle class="tree" cx="420" cy="300" r="25"/><circle class="tree" cx="440" cy="310" r="20"/><line x1="430" y1="325" x2="430" y2="360" stroke="#654321" stroke-width="3"/></svg>