<svg viewBox="0 0 512 512" xmlns="http://www.w3.org/2000/svg"><rect width="512" height="512" fill="#ffffff"/><rect x="180" y="80" width="152" height="320" fill="#8B4513" stroke="#654321" stroke-width="2"/><rect x="160" y="60" width="192" height="40" fill="#A0522D" stroke="#654321" stroke-width="2"/><polygon points="256,20 320,60 192,60" fill="#DC143C" stroke="#8B0000" stroke-width="2"/><rect x="200" y="120" width="40" height="40" fill="#87CEEB" stroke="#4682B4" stroke-width="2"/><rect x="272" y="120" width="40" height="40" fill="#87CEEB" stroke="#4682B4" stroke-width="2"/><rect x="200" y="200" width="40" height="40" fill="#87CEEB" stroke="#4682B4" stroke-width="2"/><rect x="272" y="200" width="40" height="40" fill="#87CEEB" stroke="#4682B4" stroke-width="2"/><rect x="200" y="280" width="40" height="40" fill="#87CEEB" stroke="#4682B4" stroke-width="2"/><rect x="272" y="280" width="40" height="40" fill="#87CEEB" stroke="#4682B4" stroke-width="2"/><line x1="180" y1="150" x2="332" y2="150" stroke="#654321" stroke-width="2"/><line x1="180" y1="230" x2="332" y2="230" stroke="#654321" stroke-width="2"/><line x1="180" y1="310" x2="332" y2="310" stroke="#654321" stroke-width="2"/><rect x="220" y="400" width="72" height="60" fill="#8B4513" stroke="#654321" stroke-width="2"/><rect x="240" y="420" width="32" height="40" fill="#654321" stroke="#3d2817" stroke-width="1"/></svg>