<svg viewBox="0 0 512 512" xmlns="http://www.w3.org/2000/svg"><defs><style>.face{fill:#f4d4a8}.hair{fill:#1a1a1a}.cape{fill:#8b0000}.eye{fill:#000}.fang{fill:#fff}</style></defs><rect width="512" height="512" fill="#1a0033"/><ellipse cx="256" cy="280" rx="100" ry="120" class="face"/><path d="M 156 200 Q 156 140 256 140 Q 356 140 356 200" class="hair"/><ellipse cx="256" cy="100" rx="110" ry="90" class="hair"/><path d="M 140 200 L 100 400 L 180 380 L 180 200 Z" class="cape"/><path d="M 372 200 L 412 400 L 332 380 L 332 200 Z" class="cape"/><circle cx="220" cy="260" r="12" class="eye"/><circle cx="292" cy="260" r="12" class="eye"/><circle cx="220" cy="260" r="6" fill="#8b0000"/><circle cx="292" cy="260" r="6" fill="#8b0000"/><path d="M 256 320 Q 250 330 245 335" stroke="#8b0000" stroke-width="2" fill="none" stroke-linecap="round"/><path d="M 256 320 Q 262 330 267 335" stroke="#8b0000" stroke-width="2" fill="none" stroke-linecap="round"/><polygon points="235,335 230,350 240,340" class="fang"/><polygon points="277,335 282,350 272,340" class="fang"/><path d="M 200 380 Q 256 420 312 380" stroke="#8b0000" stroke-width="3" fill="none" stroke-linecap="round"/></svg>