<svg viewBox="0 0 512 512" xmlns="http://www.w3.org/2000/svg"><rect width="512" height="512" fill="#f5f5f5"/><rect x="80" y="100" width="350" height="320" fill="#8b4513" stroke="#654321" stroke-width="3"/><line x1="255" y1="100" x2="255" y2="420" stroke="#654321" stroke-width="2"/><line x1="80" y1="200" x2="430" y2="200" stroke="#654321" stroke-width="2"/><rect x="100" y="120" width="140" height="70" fill="#d4a574" stroke="#654321" stroke-width="2"/><rect x="270" y="120" width="140" height="70" fill="#d4a574" stroke="#654321" stroke-width="2"/><circle cx="120" cy="135" r="4" fill="#654321"/><circle cx="220" cy="135" r="4" fill="#654321"/><circle cx="290" cy="135" r="4" fill="#654321"/><circle cx="390" cy="135" r="4" fill="#654321"/><rect x="100" y="220" width="65" height="80" fill="#e8d4c4" stroke="#654321" stroke-width="2"/><rect x="175" y="220" width="65" height="80" fill="#e8d4c4" stroke="#654321" stroke-width="2"/><rect x="270" y="220" width="65" height="80" fill="#e8d4c4" stroke="#654321" stroke-width="2"/><rect x="345" y="220" width="65" height="80" fill="#e8d4c4" stroke="#654321" stroke-width="2"/><line x1="132" y1="220" x2="132" y2="300" stroke="#654321" stroke-width="1"/><line x1="207" y1="220" x2="207" y2="300" stroke="#654321" stroke-width="1"/><line x1="302" y1="220" x2="302" y2="300" stroke="#654321" stroke-width="1"/><line x1="377" y1="220" x2="377" y2="300" stroke="#654321" stroke-width="1"/><circle cx="132" cy="260" r="3" fill="#654321"/><circle cx="207" cy="260" r="3" fill="#654321"/><circle cx="302" cy="260" r="3" fill="#654321"/><circle cx="377" cy="260" r="3" fill="#654321"/></svg>