<svg viewBox="0 0 512 512" xmlns="http://www.w3.org/2000/svg"><defs><style>.fur{fill:#8B4513}.face{fill:#A0522D}.eye{fill:#FFD700}.pupil{fill:#000}.claw{fill:#333}</style></defs><circle cx="256" cy="280" r="120" class="face"/><circle cx="256" cy="200" r="90" class="face"/><circle cx="200" cy="160" r="35" class="fur"/><circle cx="312" cy="160" r="35" class="fur"/><polygon points="180,140 160,100 190,130" class="fur"/><polygon points="332,140 352,100 322,130" class="fur"/><circle cx="220" cy="190" r="18" class="eye"/><circle cx="292" cy="190" r="18" class="eye"/><circle cx="220" cy="190" r="10" class="pupil"/><circle cx="292" cy="190" r="10" class="pupil"/><polygon points="256,220 250,240 262,240" fill="#333"/><path d="M 240 250 Q 235 260 240 270" stroke="#333" stroke-width="3" fill="none"/><path d="M 272 250 Q 277 260 272 270" stroke="#333" stroke-width="3" fill="none"/><path d="M 256 270 Q 250 280 256 290" stroke="#333" stroke-width="3" fill="none"/><polygon points="150,320 130,380 160,340" class="claw"/><polygon points="170,340 140,410 180,360" class="claw"/><polygon points="190,350 160,420 200,370" class="claw"/><polygon points="362,320 382,380 352,340" class="claw"/><polygon points="342,340 372,410 332,360" class="claw"/><polygon points="322,350 352,420 312,370" class="claw"/><ellipse cx="256" cy="380" rx="80" ry="60" class="fur"/><path d="M 200 420 L 190 480" stroke="#8B4513" stroke-width="20" fill="none"/><path d="M 256 420 L 256 480" stroke="#8B4513" stroke-width="20" fill="none"/><path d="M 312 420 L 322 480" stroke="#8B4513" stroke-width="20" fill="none"/></svg>