<svg xmlns="http://www.w3.org/2000/svg" width="512" height="512" viewBox="0 0 512 512"><rect x="0" y="0" width="512" height="512" fill="#ffffff"/><g fill="none" stroke="#111" stroke-width="6" stroke-linecap="round" stroke-linejoin="round"><ellipse cx="160" cy="380" rx="55" ry="55" fill="#222" stroke="#111" stroke-width="6"/><ellipse cx="352" cy="380" rx="55" ry="55" fill="#222" stroke="#111" stroke-width="6"/><ellipse cx="160" cy="380" rx="22" ry="22" fill="#555" stroke="#111" stroke-width="6"/><ellipse cx="352" cy="380" rx="22" ry="22" fill="#555" stroke="#111" stroke-width="6"/></g><g><path d="M105 340 C115 310, 150 290, 190 286 L300 276 C335 273, 365 287, 385 312 L425 338 C440 348, 446 360, 446 380 L446 402 C446 416, 436 426, 422 426 L390 426 C386 405, 368 390, 346 390 C324 390, 306 405, 302 426 L206 426 C202 405, 184 390, 162 390 C140 390, 122 405, 118 426 L92 426 C78 426, 68 416, 68 402 L68 378 C68 360, 80 350, 105 340 Z" fill="#e53935" stroke="#111" stroke-width="6" stroke-linejoin="round"/><path d="M185 290 L300 282 C325 280, 350 288, 365 305 L390 340 L150 340 C160 312, 168 299, 185 290 Z" fill="#ffebee" opacity="0.25"/><path d="M175 340 L390 340" stroke="#111" stroke-width="6" stroke-linecap="round"/><path d="M210 312 L305 305 C320 304, 335 310, 344 321 L354 336 L196 336 L210 312 Z" fill="#1976d2" stroke="#111" stroke-width="6" stroke-linejoin="round"/><path d="M160 340 C150 356, 150 366, 160 378" stroke="#111" stroke-width="6" fill="none" stroke-linecap="round"/><path d="M352 340 C342 356, 342 366, 352 378" stroke="#111" stroke-width="6" fill="none" stroke-linecap="round"/><path d="M100 356 L125 340" stroke="#111" stroke-width="6" stroke-linecap="round"/><path d="M412 356 L390 340" stroke="#111" stroke-width="6" stroke-linecap="round"/><path d="M170 340 L205 340" stroke="#111" stroke-width="6" stroke-linecap="round"/><path d="M307 340 L355 340" stroke="#111" stroke-width="6" stroke-linecap="round"/></g><g><path d="M195 276 L215 236 C220 226, 231 220, 242 220 L298 220 C310 220, 320 227, 325 238 L340 276" fill="#f44336" stroke="#111" stroke-width="6" stroke-linejoin="round"/></g><g fill="none" stroke="#111" stroke-width="6" stroke-linecap="round"><path d="M235 246 L305 246"/><path d="M245 272 L245 246"/><path d="M295 272 L295 246"/></g><g fill="#263238" stroke="#111" stroke-width="6" stroke-linejoin="round"><path d="M214 220 C220 206, 232 198, 247 198 L267 198 C282 198, 294 206, 300 220 L214 220 Z" opacity="0.35"/><path d="M230 226 C236 214, 247 207, 260 207 L280 207 C293 207, 304 214, 310 226" opacity="0.25"/></g></svg>