<svg xmlns="http://www.w3.org/2000/svg" width="512" height="512" viewBox="0 0 512 512"><rect width="512" height="512" fill="#f6f7fb"/><rect x="90" y="90" width="260" height="210" rx="14" fill="#ffffff" stroke="#2b2d42" stroke-width="4"/><rect x="104" y="104" width="232" height="182" rx="10" fill="#0b1220"/><path d="M130 150 L170 150" stroke="#22c55e" stroke-width="6" stroke-linecap="round"/><path d="M130 175 L260 175" stroke="#60a5fa" stroke-width="6" stroke-linecap="round"/><path d="M130 200 L240 200" stroke="#f97316" stroke-width="6" stroke-linecap="round"/><path d="M290 150 C270 160 270 190 290 200" stroke="#22c55e" stroke-width="7" fill="none" stroke-linecap="round"/><path d="M130 225 L230 225" stroke="#eab308" stroke-width="6" stroke-linecap="round"/><path d="M300 165 C318 175 318 190 300 200" stroke="#eab308" stroke-width="6" fill="none" stroke-linecap="round"/><rect x="160" y="300" width="120" height="32" rx="10" fill="#111827"/><rect x="110" y="320" width="220" height="26" rx="10" fill="#0f172a" opacity="0.95"/><rect x="200" y="80" width="24" height="20" rx="6" fill="#2b2d42" opacity="0.7"/><rect x="236" y="80" width="24" height="20" rx="6" fill="#2b2d42" opacity="0.35"/><g transform="translate(355,170)"><circle cx="80" cy="80" r="52" fill="#f8fafc" stroke="#2b2d42" stroke-width="5"/><g fill="none" stroke="#0ea5e9" stroke-width="6" stroke-linecap="round"><path d="M80 28 V14"/><path d="M80 146 V132"/><path d="M28 80 H14"/><path d="M146 80 H132"/><path d="M44 44 L34 34"/><path d="M116 116 L106 106"/><path d="M116 44 L106 34"/><path d="M44 116 L34 106"/></g><circle cx="80" cy="80" r="28" fill="#22c55e" opacity="0.16"/><circle cx="80" cy="80" r="22" fill="none" stroke="#22c55e" stroke-width="6"/><path d="M80 58 L96 80 L80 102 L64 80 Z" fill="#22c55e" opacity="0.7"/></g><path d="M110 426 C160 400 220 400 270 426" fill="none" stroke="#2b2d42" stroke-width="6" stroke-linecap="round" opacity="0.35"/></svg>