<svg xmlns="http://www.w3.org/2000/svg" width="512" height="512" viewBox="0 0 512 512">
  <rect width="512" height="512" fill="#ffffff"/>

  <!-- Plate -->
  <circle cx="256" cy="290" r="150" fill="#f3f6ff" stroke="#1f2a44" stroke-width="6"/>
  <ellipse cx="256" cy="325" rx="115" ry="45" fill="#ffffff" opacity="0.8"/>

  <!-- Food (steak) -->
  <path d="M205 285 C205 250 230 225 256 225 C282 225 307 250 307 285 C307 323 280 350 256 350 C232 350 205 323 205 285 Z" fill="#c86b3a" stroke="#6b2e18" stroke-width="4"/>
  <path d="M225 270 C240 255 255 250 270 256 C255 272 245 288 235 305 C230 295 220 282 225 270 Z" fill="#e79a6a" opacity="0.9"/>

  <!-- Fork -->
  <g transform="translate(310,145) rotate(12)">
    <rect x="0" y="90" width="18" height="160" rx="8" fill="#d9dde8" stroke="#29324a" stroke-width="4"/>
    <rect x="4" y="70" width="10" height="30" rx="5" fill="#d9dde8"/>
    <g>
      <rect x="0" y="250" width="18" height="22" rx="6" fill="#d9dde8" stroke="#29324a" stroke-width="4"/>
      <path d="M3 205 L3 235" stroke="#29324a" stroke-width="4" stroke-linecap="round"/>
      <path d="M9 205 L9 235" stroke="#29324a" stroke-width="4" stroke-linecap="round"/>
      <path d="M15 205 L15 235" stroke="#29324a" stroke-width="4" stroke-linecap="round"/>
      <path d="M3 205 L9 205" stroke="#29324a" stroke-width="4" stroke-linecap="round" opacity="0.0"/>
      <path d="M3 210 L8 210" stroke="#29324a" stroke-width="4" stroke-linecap="round" opacity="0.0"/>
    </g>
    <g>
      <path d="M4 235 L8 262" stroke="#29324a" stroke-width="4" stroke-linecap="round"/>
      <path d="M10 235 L14 262" stroke="#29324a" stroke-width="4" stroke-linecap="round"/>
      <path d="M16 235 L20 262" stroke="#29324a" stroke-width="4" stroke-linecap="round" opacity="0"/>
    </g>
    <!-- Prongs -->
    <g transform="translate(0,170)">
      <path d="M4 0 L4 40" stroke="#29324a" stroke-width="4" stroke-linecap="round"/>
      <path d="M14 0 L14 40" stroke="#29324a" stroke-width="4" stroke-linecap="round"/>
      <path d="M9 0 L9 40" stroke="#29324a" stroke-width="4" stroke-linecap="round"/>
    </g>
  </g>

  <!-- Knife -->
  <g transform="translate(160,170) rotate(-12)">
    <rect x="0" y="60" width="110" height="22" rx="10" fill="#d9dde8" stroke="#29324a" stroke-width="4"/>
    <rect x="85" y="78" width="55" height="16" rx="8" fill="#d9dde8" stroke="#29324a" stroke-width="4" opacity="0.95"/>
    <rect x="90" y="95" width="25" height="150" rx="10" fill="#d9dde8" stroke="#29324a" stroke-width="4"/>
    <path d="M95 240 L135 190" stroke="#29324a" stroke-width="4" stroke-linecap="round"/>
  </g>

  <!-- Table shading -->
  <path d="M70 430 C145 380 215 375 256 385 C307 397 378 402 442 430 L442 512 L70 512 Z" fill="#e9edf7" opacity="0.9"/>
  <path d="M100 445 C165 410 220 405 258 413 C310 425 360 430 410 445" fill="none" stroke="#c7d0ea" stroke-width="6" stroke-linecap="round"/>
</svg>