<svg xmlns="http://www.w3.org/2000/svg" width="512" height="512" viewBox="0 0 512 512">  <rect width="512" height="512" fill="#ffffff"/>  <!-- wheels -->  <circle cx="150" cy="420" r="42" fill="#1f2937"/>  <circle cx="150" cy="420" r="26" fill="#111827"/>  <circle cx="360" cy="420" r="42" fill="#1f2937"/>  <circle cx="360" cy="420" r="26" fill="#111827"/>  <!-- chassis -->  <path d="M105 360 L205 360 Q220 360 230 350 L260 320 Q270 310 286 310 L360 310 Q390 310 405 330 L430 360 L465 360 Q480 360 480 375 L480 395 Q480 415 460 415 L95 415 Q75 415 75 395 L75 385 Q75 360 105 360 Z" fill="#4b5563" stroke="#111827" stroke-width="4"/>  <!-- counterweight/top block -->  <path d="M300 255 Q300 235 320 225 L395 195 Q420 185 430 210 L455 270 Q460 285 445 290 L310 330 Q300 335 300 325 Z" fill="#6b7280" stroke="#111827" stroke-width="4"/>  <!-- mast and frame -->  <rect x="250" y="200" width="140" height="210" rx="12" fill="#374151" stroke="#111827" stroke-width="4"/>  <rect x="268" y="215" width="104" height="180" rx="10" fill="#4b5563" stroke="#111827" stroke-width="3"/>  <!-- inner rails -->  <rect x="298" y="215" width="12" height="180" rx="6" fill="#111827" opacity="0.8"/>  <rect x="330" y="215" width="12" height="180" rx="6" fill="#111827" opacity="0.8"/>  <!-- hydraulic cylinders -->  <rect x="248" y="315" width="40" height="38" rx="8" fill="#9ca3af" stroke="#111827" stroke-width="3"/>  <rect x="258" y="292" width="22" height="48" rx="7" fill="#6b7280" stroke="#111827" stroke-width="3"/>  <!-- carriage / forks mount -->  <path d="M235 330 L235 360 Q235 375 250 375 L365 375 Q390 375 400 360 L420 330 Z" fill="#6b7280" stroke="#111827" stroke-width="4"/>  <!-- forks -->  <g>    <path d="M245 370 L220 430" stroke="#111827" stroke-width="16" stroke-linecap="round"/>    <path d="M285 370 L300 435" stroke="#111827" stroke-width="16" stroke-linecap="round"/>    <path d="M210 425 L310 425" stroke="#111827" stroke-width="22" stroke-linecap="round"/>    <!-- fork tips -->    <path d="M206 425 L188 446" stroke="#111827" stroke-width="16" stroke-linecap="round"/>    <path d="M304 425 L315 445" stroke="#111827" stroke-width="16" stroke-linecap="round"/>  </g>  <!-- upper operator cab -->  <path d="M145 295 Q145 260 180 250 L235 240 Q265 235 270 265 L275 315 Q276 330 260 330 L170 330 Q145 330 145 305 Z" fill="#374151" stroke="#111827" stroke-width="4"/>  <path d="M175 275 Q175 255 198 252 L225 249 Q245 246 251 263 L260 292 Q262 305 248 308 L195 312 Q175 312 175 295 Z" fill="#4b5563" opacity="0.95"/>  <!-- roof / guard -->  <path d="M175 245 Q190 205 240 190 L315 190 Q345 192 360 210 L385 245 Q390 254 379 258 L185 270 Q172 272 175 245 Z" fill="#4b5563" stroke="#111827" stroke-width="4"/>  <!-- safety bar / window framing -->  <path d="M200 285 Q210 270 230 268 L255 265" stroke="#9ca3af" stroke-width="6" stroke-linecap="round" opacity="0.9"/>  <path d="M205 305 Q225 292 255 292" stroke="#9ca3af" stroke-width="6" stroke-linecap="round" opacity="0.9"/>  <!-- front bumper / details -->  <path d="M465 360 Q455 365 448 360 L405 335" stroke="#111827" stroke-width="6" stroke-linecap="round"/>  <path d="M110 360 Q125 355 150 360" stroke="#111827" stroke-width="6" stroke-linecap="round" opacity="0.9"/>  <!-- subtle ground shadow -->  <ellipse cx="255" cy="468" rx="160" ry="20" fill="#e5e7eb"/>  <ellipse cx="255" cy="468" rx="120" ry="14" fill="#d1d5db" opacity="0.7"/> </svg>