<svg xmlns="http://www.w3.org/2000/svg" width="512" height="512" viewBox="0 0 512 512"><rect width="512" height="512" fill="#ffffff"/><g transform="translate(0,0)"><circle cx="256" cy="250" r="150" fill="#FFD84D" stroke="#D9A400" stroke-width="6"/><path d="M168 235 C190 180, 232 170, 256 170 C280 170, 322 180, 344 235" fill="none" stroke="#C78B00" stroke-width="10" stroke-linecap="round" opacity="0.35"/><ellipse cx="210" cy="240" rx="18" ry="12" fill="#222"/><ellipse cx="302" cy="240" rx="18" ry="12" fill="#222"/><path d="M188 268 C210 318, 302 318, 324 268" fill="none" stroke="#7A3B00" stroke-width="10" stroke-linecap="round"/><path d="M230 280 C238 292, 242 305, 256 305 C270 305, 274 292, 282 280" fill="none" stroke="#7A3B00" stroke-width="6" stroke-linecap="round" opacity="0.9"/><path d="M190 330 C175 350, 177 375, 195 385 C210 395, 230 382, 225 360 C220 338, 206 324, 190 330 Z" fill="#FF5A7A" opacity="0.85"/><path d="M322 330 C307 350, 309 375, 327 385 C342 395, 362 382, 357 360 C352 338, 338 324, 322 330 Z" fill="#FF5A7A" opacity="0.85"/><path d="M130 220 C105 205, 95 175, 112 155" fill="none" stroke="#FFB703" stroke-width="8" stroke-linecap="round"/><path d="M382 220 C407 205, 417 175, 400 155" fill="none" stroke="#FFB703" stroke-width="8" stroke-linecap="round"/><path d="M116 290 C92 290, 78 315, 90 337 C100 355, 126 356, 140 340" fill="none" stroke="#FFB703" stroke-width="8" stroke-linecap="round" opacity="0.9"/><path d="M396 290 C420 290, 434 315, 422 337 C412 355, 386 356, 372 340" fill="none" stroke="#FFB703" stroke-width="8" stroke-linecap="round" opacity="0.9"/><g fill="#8A2BE2" opacity="0.95"><circle cx="115" cy="250" r="9"/><circle cx="398" cy="140" r="7"/><circle cx="410" cy="310" r="8"/></g><g stroke="#00AEEF" stroke-width="6" stroke-linecap="round" fill="none" opacity="0.9"><path d="M85 410 C120 370, 165 365, 205 390"/><path d="M235 405 C260 375, 305 365, 345 385"/><path d="M170 110 C145 140, 140 170, 160 200"/></g></g></svg>