<svg xmlns="http://www.w3.org/2000/svg" width="512" height="512" viewBox="0 0 512 512" role="img" aria-label="Golf scene"><rect width="512" height="512" fill="#dff6ff"/><path d="M0 320 C90 290, 170 340, 260 320 C340 300, 420 340, 512 310 L512 512 L0 512 Z" fill="#4caf50" opacity="0.95"/><path d="M0 345 C100 315, 160 365, 260 350 C360 335, 420 370, 512 342 L512 512 L0 512 Z" fill="#3d9b3f" opacity="0.9"/><!-- tee/ground highlight --><ellipse cx="170" cy="338" rx="38" ry="14" fill="#2e7d32" opacity="0.65"/><ellipse cx="170" cy="342" rx="36" ry="12" fill="#66bb6a" opacity="0.55"/><!-- golf ball --><circle cx="238" cy="318" r="12" fill="#ffffff"/><circle cx="242" cy="313" r="3" fill="#d9eaff"/><circle cx="232" cy="325" r="2" fill="#cfe2ff"/><path d="M230 318 L244 318" stroke="#cfd8dc" stroke-width="2" opacity="0.5"/><g><!-- flag pole --><rect x="340" y="155" width="8" height="170" rx="4" fill="#6d4c41"/><rect x="343" y="165" width="2" height="145" rx="1" fill="#8d6e63" opacity="0.6"/><path d="M349 165 C372 180, 372 204, 349 214 L349 165 Z" fill="#ef5350" opacity="0.95"/><!-- flag notch --><path d="M349 170 C362 184, 362 201, 349 211" fill="none" stroke="#c62828" stroke-width="2" stroke-linecap="round" opacity="0.8"/><!-- small pennant shadow --><path d="M349 165 C356 173, 356 198, 349 214" fill="none" stroke="#ff8a80" stroke-width="2" stroke-linecap="round" opacity="0.6"/><ellipse cx="344" cy="325" rx="7" ry="6" fill="#8d6e63" opacity="0.4"/></g><!-- club --><g transform="translate(0,0)"><!-- handle --><path d="M130 390 C165 360, 205 350, 245 340" fill="none" stroke="#5d4037" stroke-width="14" stroke-linecap="round"/><path d="M130 390 C165 360, 205 350, 245 340" fill="none" stroke="#795548" stroke-width="5" stroke-linecap="round" opacity="0.65"/><!-- shaft end / grip --><path d="M240 340 C262 332, 284 334, 296 352" fill="none" stroke="#5d4037" stroke-width="12" stroke-linecap="round"/><path d="M296 352 C306 370, 292 392, 270 401" fill="none" stroke="#3e2723" stroke-width="10" stroke-linecap="round" opacity="0.95"/><!-- club head --><path d="M270 401 C290 380, 322 370, 352 370 C374 370, 395 376, 412 385 C374 410, 320 427, 280 424 C274 423, 268 415, 270 401 Z" fill="#455a64" opacity="0.95"/><path d="M292 404 C310 390, 334 383, 359 383 C375 383, 392 387, 405 394" fill="none" stroke="#263238" stroke-width="4" stroke-linecap="round" opacity="0.55"/><path d="M270 401 C286 395, 304 394, 322 395" fill="none" stroke="#90a4ae" stroke-width="3" stroke-linecap="round" opacity="0.6"/></g><!-- subtle fairway streaks --><path d="M60 420 C140 385, 240 435, 320 415 C390 398, 450 420, 500 405" fill="none" stroke="#76c893" stroke-width="10" opacity="0.35" stroke-linecap="round"/><path d="M30 455 C130 420, 220 465, 320 450 C400 438, 460 458, 500 445" fill="none" stroke="#6fbf73" stroke-width="8" opacity="0.25" stroke-linecap="round"/></svg>