<svg xmlns="http://www.w3.org/2000/svg" width="512" height="512" viewBox="0 0 512 512"><rect width="512" height="512" fill="#ffffff"/><path d="M60 420 H452" stroke="#d0d0d0" stroke-width="6" stroke-linecap="round"/><rect x="110" y="150" width="290" height="300" fill="none" stroke="#e6e6e6" stroke-width="6" rx="18" opacity="0.7"/><path d="M165 110 V360" stroke="#b0b0b0" stroke-width="16" stroke-linecap="round"/><path d="M347 110 V360" stroke="#b0b0b0" stroke-width="16" stroke-linecap="round"/><path d="M150 120 H362" stroke="#b0b0b0" stroke-width="20" stroke-linecap="round"/><rect x="205" y="370" width="102" height="28" rx="14" fill="#bcbcbc"/><path d="M150 360 H362" stroke="#a9a9a9" stroke-width="18" stroke-linecap="round"/><g>
  <circle cx="170" cy="360" r="34" fill="#6b6f76"/>
  <circle cx="170" cy="360" r="20" fill="#3f4248"/>
  <rect x="170" y="336" width="0" height="48" fill="#3f4248"/>
  <circle cx="342" cy="360" r="34" fill="#6b6f76"/>
  <circle cx="342" cy="360" r="20" fill="#3f4248"/>
  <rect x="196" y="343" width="120" height="34" rx="17" fill="#4f545c"/>
</g>
<g opacity="0.85">
  <path d="M246 272 C246 242 266 222 296 222" fill="none" stroke="#4a90e2" stroke-width="10" stroke-linecap="round"/>
  <path d="M266 272 C266 252 278 240 298 240" fill="none" stroke="#4a90e2" stroke-width="8" stroke-linecap="round"/>
</g>
<g>
  <circle cx="256" cy="300" r="20" fill="#2f3035"/>
  <path d="M256 320 C236 340 226 362 220 386" stroke="#2f3035" stroke-width="14" stroke-linecap="round" fill="none"/>
  <path d="M256 320 C276 340 286 362 292 386" stroke="#2f3035" stroke-width="14" stroke-linecap="round" fill="none"/>
  <path d="M220 360 C240 344 252 342 256 342" stroke="#2f3035" stroke-width="14" stroke-linecap="round" fill="none"/>
  <path d="M292 360 C272 344 260 342 256 342" stroke="#2f3035" stroke-width="14" stroke-linecap="round" fill="none"/>
</g></svg>