<svg xmlns="http://www.w3.org/2000/svg" width="512" height="512" viewBox="0 0 512 512"><defs><linearGradient id="glowC" x1="120" y1="120" x2="400" y2="420" gradientUnits="userSpaceOnUse"><stop offset="0" stop-color="#00e5ff" stop-opacity="0.95"/><stop offset="0.5" stop-color="#7c4dff" stop-opacity="0.8"/><stop offset="1" stop-color="#ff2bd6" stop-opacity="0.9"/></linearGradient><radialGradient id="halo" cx="256" cy="256" r="200" gradientUnits="userSpaceOnUse"><stop offset="0" stop-color="#00e5ff" stop-opacity="0.28"/><stop offset="0.45" stop-color="#7c4dff" stop-opacity="0.12"/><stop offset="1" stop-color="#000000" stop-opacity="0"/></radialGradient></defs><rect x="0" y="0" width="512" height="512" fill="#070A12"/><circle cx="256" cy="256" r="220" fill="url(#halo)"/><g opacity="0.95" stroke-linecap="round" stroke-linejoin="round"><circle cx="256" cy="256" r="128" fill="none" stroke="#00e5ff" stroke-opacity="0.35" stroke-width="3"/><circle cx="256" cy="256" r="160" fill="none" stroke="#ff2bd6" stroke-opacity="0.22" stroke-width="2"/><circle cx="256" cy="256" r="92" fill="none" stroke="#7c4dff" stroke-opacity="0.25" stroke-width="2"/></g><g opacity="0.95" fill="none"><g stroke="url(#glowC)" stroke-width="6" opacity="0.9"><path d="M256 150 L350 205 L350 310 L256 365 L162 310 L162 205 Z"/><path d="M256 150 L350 205"/><path d="M256 150 L162 205"/><path d="M350 205 L350 310"/><path d="M162 205 L162 310"/><path d="M256 365 L350 310"/><path d="M256 365 L162 310"/></g><g stroke="#00e5ff" stroke-width="3" opacity="0.55"><path d="M256 130 L370 200 L370 320 L256 390 L142 320 L142 200 Z"/></g><g stroke="#ff2bd6" stroke-width="2" opacity="0.45"><path d="M256 165 L338 210 L338 300 L256 345 L174 300 L174 210 Z"/></g></g><g opacity="0.9" stroke-linecap="round"><path d="M120 250 C165 210, 215 195, 256 200" fill="none" stroke="#00e5ff" stroke-opacity="0.35" stroke-width="5"/><path d="M120 270 C165 310, 215 325, 256 320" fill="none" stroke="#7c4dff" stroke-opacity="0.28" stroke-width="4"/><path d="M392 245 C350 210, 305 195, 256 200" fill="none" stroke="#ff2bd6" stroke-opacity="0.28" stroke-width="4"/><path d="M392 275 C350 310, 305 325, 256 320" fill="none" stroke="#00e5ff" stroke-opacity="0.22" stroke-width="3"/></g><g opacity="0.75" fill="none" stroke-width="2"><path d="M120 220 L160 240" stroke="#00e5ff" stroke-opacity="0.35"/><path d="M120 292 L160 272" stroke="#7c4dff" stroke-opacity="0.28"/><path d="M392 220 L352 240" stroke="#ff2bd6" stroke-opacity="0.26"/><path d="M392 292 L352 272" stroke="#00e5ff" stroke-opacity="0.22"/></g><g opacity="0.8"><path d="M256 150 L256 365" stroke="#ffffff" stroke-opacity="0.08" stroke-width="10"/><path d="M162 205 L350 310" stroke="#ffffff" stroke-opacity="0.07" stroke-width="8"/></g></svg>