<svg xmlns="http://www.w3.org/2000/svg" width="512" height="512" viewBox="0 0 512 512">
  <rect x="0" y="0" width="512" height="512" fill="#ffffff"/>

  <!-- Outer frame -->
  <rect x="60" y="60" width="392" height="392" rx="18" ry="18" fill="none" stroke="#94a3b8" stroke-width="6"/>

  <!-- Labyrinth path (corridor/walls) -->
  <path d="M90 110 L180 110 L180 180 L260 180 L260 130 L330 130 L330 230 L290 230 L290 280 L360 280 L360 240 L410 240 L410 320 L340 320 L340 360 L270 360 L270 310 L230 310 L230 390 L310 390 L310 430 L420 430" fill="none" stroke="#e5e7eb" stroke-width="36" stroke-linecap="round" stroke-linejoin="round"/>
  <path d="M90 110 L180 110 L180 180 L260 180 L260 130 L330 130 L330 230 L290 230 L290 280 L360 280 L360 240 L410 240 L410 320 L340 320 L340 360 L270 360 L270 310 L230 310 L230 390 L310 390 L310 430 L420 430" fill="none" stroke="#0f172a" stroke-width="28" stroke-linecap="round" stroke-linejoin="round"/>

  <!-- Entry/exit hints (no text) -->
  <circle cx="90" cy="110" r="12" fill="#0f172a"/>
  <circle cx="420" cy="430" r="12" fill="#0f172a"/>
</svg>