<svg xmlns="http://www.w3.org/2000/svg" width="512" height="512" viewBox="0 0 512 512"><rect width="512" height="512" fill="#ffffff"/><!-- hat --><path d="M140 190 C160 100, 260 70, 320 110 C360 140, 385 205, 360 220 C335 235, 270 228, 225 232 C185 235, 145 225, 140 190 Z" fill="#2ecc40" stroke="#1f8f2a" stroke-width="6"/><!-- hat brim --><path d="M145 215 C175 190, 230 195, 285 200 C330 205, 360 210, 375 225 C340 270, 235 270, 160 250 C145 245, 140 232, 145 215 Z" fill="#dfe6ee" stroke="#bfc7d1" stroke-width="6"/><!-- head --><circle cx="255" cy="235" r="62" fill="#f1c7a7" stroke="#d4a98c" stroke-width="6"/><!-- hair/side shadow --><path d="M210 190 C220 160, 250 145, 280 155 C305 164, 320 185, 315 212 C305 205, 280 198, 245 205 C230 210, 215 205, 210 190 Z" fill="#2f1b12" opacity="0.25"/><!-- mustache --><path d="M205 242 C225 255, 245 255, 265 242 C245 278, 225 278, 205 242 Z" fill="#2b1a13"/><!-- body --><path d="M185 300 C200 265, 235 250, 255 250 C275 250, 310 265, 325 300 C340 340, 350 390, 342 430 C330 460, 295 470, 255 470 C215 470, 180 460, 168 430 C160 390, 170 340, 185 300 Z" fill="#3b82f6" stroke="#1f4fb3" stroke-width="6"/><!-- overalls front --><path d="M205 305 C220 285, 235 275, 255 275 C275 275, 290 285, 305 305 C318 325, 318 360, 310 410 C300 455, 210 455, 202 410 C194 360, 194 325, 205 305 Z" fill="#1e3a8a" opacity="0.20"/><!-- chest bib --><path d="M225 305 C235 290, 245 285, 255 285 C265 285, 275 290, 285 305 C295 320, 295 350, 290 375 C278 415, 232 415, 220 375 C215 350, 215 320, 225 305 Z" fill="#2d4fd3" stroke="#12318a" stroke-width="5"/><!-- straps --><path d="M225 310 L190 275" stroke="#2d4fd3" stroke-width="16" stroke-linecap="round"/><path d="M285 310 L320 275" stroke="#2d4fd3" stroke-width="16" stroke-linecap="round"/><!-- white gloves --><path d="M170 330 C145 340, 135 365, 140 390 C148 420, 185 420, 195 395 C202 378, 195 350, 170 330 Z" fill="#f8f8f8" stroke="#d8d8d8" stroke-width="5"/><path d="M340 330 C365 340, 375 365, 370 390 C362 420, 325 420, 315 395 C308 378, 315 350, 340 330 Z" fill="#f8f8f8" stroke="#d8d8d8" stroke-width="5"/><!-- green sleeves/arms --><path d="M175 315 C185 330, 190 350, 188 375 C160 375, 145 355, 140 340 C150 320, 160 305, 175 315 Z" fill="#2ecc40" opacity="0.95"/>
<path d="M335 315 C325 330, 320 350, 322 375 C350 375, 365 355, 370 340 C360 320, 350 305, 335 315 Z" fill="#2ecc40" opacity="0.95"/><!-- legs --><path d="M205 400 C200 430, 195 460, 210 470 C232 485, 255 470, 252 445 C250 425, 245 405, 240 390 Z" fill="#0b1220" opacity="0.85"/>
<path d="M305 400 C310 430, 315 460, 300 470 C278 485, 255 470, 258 445 C260 425, 265 405, 270 390 Z" fill="#0b1220" opacity="0.85"/>
<!-- shoes --><path d="M175 455 C195 440, 230 445, 245 458 C250 470, 240 490, 210 495 C185 498, 168 485, 165 470 C163 462, 168 460, 175 455 Z" fill="#2f2f2f" stroke="#111" stroke-width="5"/>
<path d="M335 455 C315 440, 280 445, 265 458 C260 470, 270 490, 300 495 C325 498, 342 485, 345 470 C347 462, 342 460, 335 455 Z" fill="#2f2f2f" stroke="#111" stroke-width="5"/>
<!-- face highlight --><path d="M228 225 C238 212, 250 208, 265 215" fill="none" stroke="#ffffff" stroke-width="6" stroke-linecap="round" opacity="0.25"/>
<!-- subtle outline for overall figure -->
<path d="M170 310 C185 270, 220 245, 255 245 C290 245, 325 270, 340 310 C360 365, 352 430, 342 440 C320 470, 295 480, 255 480 C215 480, 190 470, 168 440 C158 430, 150 365, 170 310 Z" fill="none" stroke="#1b1b1b" stroke-width="6" opacity="0.06"/></svg>