<svg xmlns="http://www.w3.org/2000/svg" width="512" height="512" viewBox="0 0 512 512"><rect width="512" height="512" fill="#fff"/><path d="M96 372c0-66 52-120 116-120s116 54 116 120v36H96v-36z" fill="#f2a7b8"/><path d="M128 372c0-52 40-95 84-95s84 43 84 95v36H128v-36z" fill="#f7b7c8" opacity="0.95"/><circle cx="212" cy="240" r="42" fill="#f2a7b8"/><path d="M184 160c14-20 38-30 62-24 18 4 32 16 38 33-26 2-44 16-52 32-6-16-22-35-48-41z" fill="#e889a2" opacity="0.9"/><path d="M300 168c22-20 56-18 76 4 18 20 18 49 0 69-14 16-37 29-38 30-1 1-2 1-3 0-1-1-24-14-38-30-18-20-18-49 0-69z" fill="#ff5a78" opacity="0.25"/><path d="M356 142c14 0 26 6 34 16l-22 28c-3-2-6-3-12-3-6 0-10 1-13 4l-24-30c8-10 20-15 37-15z" fill="#f2a7b8" opacity="0.65"/><path d="M96 372c34-48 78-70 132-70s98 22 132 70H96z" fill="#e96b88" opacity="0.12"/><path d="M320 110c0 46 36 83 82 83s82-37 82-83S448 27 402 27s-82 37-82 83z" fill="#ffd6e1" opacity="0.6"/><path d="M402 77c8 0 16 4 21 10 6-6 13-10 21-10 12 0 22 10 22 22 0 24-22 42-43 52-21-10-43-28-43-52 0-12 10-22 22-22z" fill="#ff5a78" opacity="0.9"/><path d="M170 250c-3 32-22 49-44 56 16 16 41 22 71 22 33 0 60-9 78-26-30-10-49-29-55-52-10 10-26 18-50 0z" fill="#e889a2" opacity="0.55"/></svg>