<svg xmlns="http://www.w3.org/2000/svg" width="512" height="512" viewBox="0 0 512 512" shape-rendering="crispEdges"><rect width="512" height="512" fill="#cfe9ff"/><ellipse cx="256" cy="420" rx="160" ry="26" fill="#000" opacity="0.12"/><g id="grassBlock" transform="translate(120,190)"><rect x="0" y="0" width="160" height="160" fill="#2f8d47" opacity="0.15"/><rect x="-2" y="-2" width="164" height="164" fill="#000" opacity="0.08"/><g><rect width="20" height="20" x="0" y="0" fill="#2f9f4b"/><rect width="20" height="20" x="20" y="0" fill="#3bbf5c"/><rect width="20" height="20" x="40" y="0" fill="#3bbf5c"/><rect width="20" height="20" x="60" y="0" fill="#2f9f4b"/><rect width="20" height="20" x="80" y="0" fill="#3bbf5c"/><rect width="20" height="20" x="100" y="0" fill="#3bbf5c"/><rect width="20" height="20" x="120" y="0" fill="#2f9f4b"/><rect width="20" height="20" x="140" y="0" fill="#3bbf5c"/></g><g><rect width="20" height="20" x="0" y="20" fill="#3bbf5c"/><rect width="20" height="20" x="20" y="20" fill="#2f9f4b"/><rect width="20" height="20" x="40" y="20" fill="#3bbf5c"/><rect width="20" height="20" x="60" y="20" fill="#3bbf5c"/><rect width="20" height="20" x="80" y="20" fill="#2f9f4b"/><rect width="20" height="20" x="100" y="20" fill="#3bbf5c"/><rect width="20" height="20" x="120" y="20" fill="#3bbf5c"/><rect width="20" height="20" x="140" y="20" fill="#2f9f4b"/></g><g><rect width="20" height="20" x="0" y="40" fill="#2f9f4b"/><rect width="20" height="20" x="20" y="40" fill="#3bbf5c"/><rect width="20" height="20" x="40" y="40" fill="#3bbf5c"/><rect width="20" height="20" x="60" y="40" fill="#2f9f4b"/><rect width="20" height="20" x="80" y="40" fill="#3bbf5c"/><rect width="20" height="20" x="100" y="40" fill="#2f9f4b"/><rect width="20" height="20" x="120" y="40" fill="#3bbf5c"/><rect width="20" height="20" x="140" y="40" fill="#3bbf5c"/></g><g><rect width="20" height="20" x="0" y="60" fill="#3bbf5c"/><rect width="20" height="20" x="20" y="60" fill="#3bbf5c"/><rect width="20" height="20" x="40" y="60" fill="#2f9f4b"/><rect width="20" height="20" x="60" y="60" fill="#3bbf5c"/><rect width="20" height="20" x="80" y="60" fill="#3bbf5c"/><rect width="20" height="20" x="100" y="60" fill="#2f9f4b"/><rect width="20" height="20" x="120" y="60" fill="#3bbf5c"/><rect width="20" height="20" x="140" y="60" fill="#2f9f4b"/></g><g><rect width="20" height="20" x="0" y="80" fill="#9a6b3a"/><rect width="20" height="20" x="20" y="80" fill="#7a4e25"/><rect width="20" height="20" x="40" y="80" fill="#9a6b3a"/><rect width="20" height="20" x="60" y="80" fill="#7a4e25"/><rect width="20" height="20" x="80" y="80" fill="#9a6b3a"/><rect width="20" height="20" x="100" y="80" fill="#9a6b3a"/><rect width="20" height="20" x="120" y="80" fill="#9a6b3a"/><rect width="20" height="20" x="140" y="80" fill="#7a4e25"/></g><g><rect width="20" height="20" x="0" y="100" fill="#9a6b3a"/><rect width="20" height="20" x="20" y="100" fill="#7a4e25"/><rect width="20" height="20" x="40" y="100" fill="#9a6b3a"/><rect width="20" height="20" x="60" y="100" fill="#9a6b3a"/><rect width="20" height="20" x="80" y="100" fill="#7a4e25"/><rect width="20" height="20" x="100" y="100" fill="#7a4e25"/><rect width="20" height="20" x="120" y="100" fill="#9a6b3a"/><rect width="20" height="20" x="140" y="100" fill="#9a6b3a"/></g><g><rect width="20" height="20" x="0" y="120" fill="#7a4e25"/><rect width="20" height="20" x="20" y="120" fill="#9a6b3a"/><rect width="20" height="20" x="40" y="120" fill="#9a6b3a"/><rect width="20" height="20" x="60" y="120" fill="#9a6b3a"/><rect width="20" height="20" x="80" y="120" fill="#7a4e25"/><rect width="20" height="20" x="100" y="120" fill="#9a6b3a"/><rect width="20" height="20" x="120" y="120" fill="#9a6b3a"/><rect width="20" height="20" x="140" y="120" fill="#7a4e25"/></g><g><rect width="20" height="20" x="0" y="140" fill="#9a6b3a"/><rect width="20" height="20" x="20" y="140" fill="#7a4e25"/><rect width="20" height="20" x="40" y="140" fill="#9a6b3a"/><rect width="20" height="20" x="60" y="140" fill="#7a4e25"/><rect width="20" height="20" x="80" y="140" fill="#9a6b3a"/><rect width="20" height="20" x="100" y="140" fill="#9a6b3a"/><rect width="20" height="20" x="120" y="140" fill="#7a4e25"/><rect width="20" height="20" x="140" y="140" fill="#9a6b3a"/></g></g><g id="creeper" transform="translate(290,175)"><rect x="0" y="0" width="112" height="140" fill="#1f6f31" opacity="0.08"/><g><rect width="14" height="14" x="0" y="0" fill="#2f9a45"/><rect width="14" height="14" x="14" y="0" fill="#41c45f"/><rect width="14" height="14" x="28" y="0" fill="#41c45f"/><rect width="14" height="14" x="42" y="0" fill="#41c45f"/><rect width="14" height="14" x="56" y="0" fill="#2f9a45"/><rect width="14" height="14" x="70" y="0" fill="#41c45f"/><rect width="14" height="14" x="84" y="0" fill="#41c45f"/><rect width="14" height="14" x="98" y="0" fill="#2f9a45"/></g><g><rect width="14" height="14" x="0" y="14" fill="#41c45f"/><rect width="14" height="14" x="14" y="14" fill="#55d46e"/><rect width="14" height="14" x="28" y="14" fill="#41c45f"/><rect width="14" height="14" x="42" y="14" fill="#2f9a45"/><rect width="14" height="14" x="56" y="14" fill="#41c45f"/><rect width="14" height="14" x="70" y="14" fill="#41c45f"/><rect width="14" height="14" x="84" y="14" fill="#2f9a45"/><rect width="14" height="14" x="98" y="14" fill="#41c45f"/></g><g><rect width="14" height="14" x="0" y="28" fill="#41c45f"/><rect width="14" height="14" x="14" y="28" fill="#41c45f"/><rect width="14" height="14" x="28" y="28" fill="#55d46e"/><rect width="14" height="14" x="42" y="28" fill="#41c45f"/><rect width="14" height="14" x="56" y="28" fill="#2f9a45"/><rect width="14" height="14" x="70" y="28" fill="#41c45f"/><rect width="14" height="14" x="84" y="28" fill="#41c45f"/><rect width="14" height="14" x="98" y="28" fill="#2f9a45"/></g><g><rect width="14" height="14" x="0" y="42" fill="#41c45f"/><rect width="14" height="14" x="14" y="42" fill="#2f9a45"/><rect width="14" height="14" x="28" y="42" fill="#f5f5f5"/><rect width="14" height="14" x="42" y="42" fill="#41c45f"/><rect width="14" height="14" x="56" y="42" fill="#41c45f"/><rect width="14" height="14" x="70" y="42" fill="#f5f5f5"/><rect width="14" height="14" x="84" y="42" fill="#2f9a45"/><rect width="14" height="14" x="98" y="42" fill="#41c45f"/></g><g><rect width="14" height="14" x="0" y="56" fill="#41c45f"/><rect width="14" height="14" x="14" y="56" fill="#41c45f"/><rect width="14" height="14" x="28" y="56" fill="#f5f5f5"/><rect width="14" height="14" x="42" y="56" fill="#41c45f"/><rect width="14" height="14" x="56" y="56" fill="#2f9a45"/><rect width="14" height="14" x="70" y="56" fill="#f5f5f5"/><rect width="14" height="14" x="84" y="56" fill="#41c45f"/><rect width="14" height="14" x="98" y="56" fill="#2f9a45"/></g><g><rect width="14" height="14" x="0" y="70" fill="#41c45f"/><rect width="14" height="14" x="14" y="70" fill="#2f9a45"/><rect width="14" height="14" x="28" y="70" fill="#41c45f"/><rect width="14" height="14" x="42" y="70" fill="#1f6f31"/><rect width="14" height="14" x="56" y="70" fill="#1f6f31"/><rect width="14" height="14" x="70" y="70" fill="#41c45f"/><rect width="14" height="14" x="84" y="70" fill="#55d46e"/><rect width="14" height="14" x="98" y="70" fill="#2f9a45"/></g><g><rect width="14" height="14" x="0" y="84" fill="#41c45f"/><rect width="14" height="14" x="14" y="84" fill="#41c45f"/><rect width="14" height="14" x="28" y="84" fill="#2f9a45"/><rect width="14" height="14" x="42" y="84" fill="#41c45f"/><rect width="14" height="14" x="56" y="84" fill="#41c45f"/><rect width="14" height="14" x="70" y="84" fill="#2f9a45"/><rect width="14" height="14" x="84" y="84" fill="#41c45f"/><rect width="14" height="14" x="98" y="84" fill="#55d46e"/></g><g><rect width="14" height="14" x="0" y="98" fill="#2f9a45"/><rect width="14" height="14" x="14" y="98" fill="#41c45f"/><rect width="14" height="14" x="28" y="98" fill="#41c45f"/><rect width="14" height="14" x="42" y="98" fill="#2f9a45"/><rect width="14" height="14" x="56" y="98" fill="#41c45f"/><rect width="14" height="14" x="70" y="98" fill="#41c45f"/><rect width="14" height="14" x="84" y="98" fill="#2f9a45"/><rect width="14" height="14" x="98" y="98" fill="#41c45f"/></g><g><rect width="14" height="14" x="0" y="112" fill="#41c45f"/><rect width="14" height="14" x="14" y="112" fill="#2f9a45"/><rect width="14" height="14" x="28" y="112" fill="#41c45f"/><rect width="14" height="14" x="42" y="112" fill="#41c45f"/><rect width="14" height="14" x="56" y="112" fill="#2f9a45"/><rect width="14" height="14" x="70" y="112" fill="#41c45f"/><rect width="14" height="14" x="84" y="112" fill="#41c45f"/><rect width="14" height="14" x="98" y="112" fill="#2f9a45"/></g><g><rect width="14" height="14" x="0" y="126" fill="#2f9a45"/><rect width="14" height="14" x="14" y="126" fill="#41c45f"/><rect width="14" height="14" x="28" y="126" fill="#2f9a45"/><rect width="14" height="14" x="42" y="126" fill="#41c45f"/><rect width="14" height="14" x="56" y="126" fill="#41c45f"/><rect width="14" height="14" x="70" y="126" fill="#2f9a45"/><rect width="14" height="14" x="84" y="126" fill="#41c45f"/><rect width="14" height="14" x="98" y="126" fill="#2f9a45"/></g><g><rect width="14" height="14" x="28" y="56" fill="#0a2a12"/><rect width="14" height="14" x="70" y="56" fill="#0a2a12"/></g></g></svg>