<svg xmlns="http://www.w3.org/2000/svg" width="512" height="512" viewBox="0 0 512 512">
  <rect x="0" y="0" width="512" height="512" fill="#ffffff"/>

  <!-- Ground shadow -->
  <ellipse cx="256" cy="430" rx="150" ry="28" fill="#000000" opacity="0.08"/>

  <!-- Money bag -->
  <path d="M165 165 C165 130 195 105 230 105 L282 105 C317 105 347 130 347 165
           C370 175 385 205 385 235 L385 355
           C385 395 355 425 315 425 L197 425
           C157 425 127 395 127 355 L127 235
           C127 205 142 175 165 165 Z"
        fill="#6b4f2a" stroke="#3b2a14" stroke-width="6"/>

  <!-- Bag opening -->
  <path d="M200 115 C205 140 220 155 256 155 C292 155 307 140 312 115
           C300 105 284 100 256 100 C228 100 212 105 200 115 Z"
        fill="#8a6a38" stroke="#3b2a14" stroke-width="5"/>

  <!-- Drawstring -->
  <path d="M155 180 C190 165 220 160 256 160 C292 160 322 165 357 180"
        fill="none" stroke="#d7c07a" stroke-width="6" stroke-linecap="round"/>
  <path d="M165 190 C190 180 220 175 256 175 C292 175 322 180 347 190"
        fill="none" stroke="#b79652" stroke-width="3" stroke-linecap="round" opacity="0.9"/>

  <!-- Bag highlights -->
  <path d="M175 220 C175 200 190 190 205 185 C190 215 185 250 185 295
           C185 340 190 375 205 400 C190 385 175 360 175 320 Z"
        fill="#8a6a38" opacity="0.35"/>
  <path d="M337 220 C337 200 322 190 307 185 C322 215 327 250 327 295
           C327 340 322 375 307 400 C322 385 337 360 337 320 Z"
        fill="#6b4f2a" opacity="0.25"/>

  <!-- Coins on top -->
  <g>
    <circle cx="210" cy="305" r="28" fill="#d6a54a" stroke="#8a5a16" stroke-width="5"/>
    <circle cx="210" cy="305" r="12" fill="#f2d089" opacity="0.9"/>

    <circle cx="255" cy="280" r="30" fill="#d6a54a" stroke="#8a5a16" stroke-width="5"/>
    <circle cx="255" cy="280" r="13" fill="#f2d089" opacity="0.9"/>

    <circle cx="305" cy="312" r="26" fill="#d6a54a" stroke="#8a5a16" stroke-width="5"/>
    <circle cx="305" cy="312" r="11" fill="#f2d089" opacity="0.9"/>

    <circle cx="240" cy="340" r="24" fill="#c99235" stroke="#8a5a16" stroke-width="5"/>
    <circle cx="240" cy="340" r="10" fill="#f2d089" opacity="0.85"/>
  </g>

  <!-- A few smaller coins peeking -->
  <g opacity="0.95">
    <circle cx="280" cy="355" r="18" fill="#d6a54a" stroke="#8a5a16" stroke-width="4"/>
    <circle cx="280" cy="355" r="7" fill="#f2d089"/>

    <circle cx="190" cy="335" r="16" fill="#c99235" stroke="#8a5a16" stroke-width="4"/>
    <circle cx="190" cy="335" r="6" fill="#f2d089"/>
  </g>
</svg>