<svg xmlns="http://www.w3.org/2000/svg" width="512" height="512" viewBox="0 0 512 512" role="img" aria-label="Pantheon drawing"><rect width="512" height="512" fill="#ffffff"/><g stroke="#1f2937" stroke-width="6" stroke-linecap="round" stroke-linejoin="round" fill="none"><path d="M120 210 L392 210"/><!-- roof line --><path d="M156 210 L256 120 L356 210" fill="#e5e7eb" stroke="#111827" stroke-width="6"/><!-- pediment --><path d="M96 210 L416 210"/><!-- top entablature --><g fill="#f3f4f6" stroke="#111827" stroke-width="6"><rect x="146" y="210" width="40" height="150" rx="10"/><rect x="202" y="210" width="40" height="150" rx="10"/><rect x="258" y="210" width="40" height="150" rx="10"/><rect x="314" y="210" width="40" height="150" rx="10"/></g><!-- body base --><path d="M110 360 C150 330, 362 330, 402 360 L402 400 C362 430, 150 430, 110 400 Z" fill="#d1d5db" stroke="#111827" stroke-width="6"/><path d="M256 120 C195 138, 160 185, 160 250"/><!-- dome outline start --><path d="M256 120 C317 138, 352 185, 352 250"/><!-- dome --><path d="M160 250 C190 205, 225 185, 256 185 C287 185, 322 205, 352 250" fill="none"/><path d="M172 250 C196 214, 226 198, 256 198 C286 198, 316 214, 340 250" fill="#e5e7eb" stroke="#111827" stroke-width="6"/><path d="M256 185 L256 430"/><!-- central axis --><ellipse cx="256" cy="250" rx="88" ry="98" fill="rgba(229,231,235,0.9)" stroke="#111827" stroke-width="6"/><path d="M220 255 C236 232, 246 224, 256 224 C266 224, 276 232, 292 255" fill="none"/><!-- small opening hint --><path d="M256 350 C220 350, 190 370, 190 392 C190 415, 220 430, 256 430 C292 430, 322 415, 322 392 C322 370, 292 350, 256 350 Z" fill="#f3f4f6" stroke="#111827" stroke-width="6"/></g></svg>