<svg xmlns="http://www.w3.org/2000/svg" width="512" height="512" viewBox="0 0 512 512"><defs><linearGradient id="skin" x1="0" y1="0" x2="0" y2="1"><stop offset="0" stop-color="#f5b45b"/><stop offset="1" stop-color="#d97a2f"/></linearGradient><linearGradient id="flesh" x1="0" y1="0" x2="0" y2="1"><stop offset="0" stop-color="#ffd27a"/><stop offset="1" stop-color="#ff8a3d"/></linearGradient><linearGradient id="leaf" x1="0" y1="0" x2="1" y2="1"><stop offset="0" stop-color="#2fb36f"/><stop offset="1" stop-color="#167a3e"/></linearGradient></defs><rect width="512" height="512" fill="#fff"/><!-- leaf --><g transform="translate(250,110)"><path d="M-70,40 C-25,-35 25,-35 70,40 C40,30 10,45 0,65 C-10,45 -40,30 -70,40 Z" fill="url(#leaf)" opacity="0.98"/><path d="M-50,42 C-20,10 20,10 50,42" fill="none" stroke="#0f5f2f" stroke-width="6" stroke-linecap="round" opacity="0.55"/></g><!-- body --><g transform="translate(0,10)"><path d="M140,250 C130,185 175,135 230,120 C310,95 365,170 368,235 C371,310 320,405 242,400 C178,396 150,330 140,250 Z" fill="url(#skin)"/><path d="M155,230 C155,175 205,145 245,138" fill="none" stroke="#b65f2b" stroke-width="10" stroke-linecap="round" opacity="0.35"/><path d="M178,170 C210,125 295,132 320,175" fill="none" stroke="#ffd59b" stroke-width="8" stroke-linecap="round" opacity="0.35"/><!-- speckles --><g opacity="0.35"><circle cx="200" cy="245" r="4" fill="#a85a22"/><circle cx="225" cy="205" r="3" fill="#a85a22"/><circle cx="265" cy="195" r="4" fill="#a85a22"/><circle cx="305" cy="230" r="3" fill="#a85a22"/><circle cx="280" cy="275" r="4" fill="#a85a22"/><circle cx="225" cy="295" r="3" fill="#a85a22"/><circle cx="250" cy="255" r="2" fill="#a85a22"/><circle cx="290" cy="310" r="3" fill="#a85a22"/></g><!-- flesh slice hint --><ellipse cx="270" cy="285" rx="95" ry="110" fill="#000" opacity="0.06"/><path d="M205,245 C235,190 300,175 338,220 C370,258 355,332 305,360 C250,390 190,325 205,245 Z" fill="url(#flesh)" opacity="0.95"/><path d="M230,250 C250,215 295,205 320,230 C345,256 338,302 305,325 C270,350 220,315 230,250 Z" fill="#ffb357" opacity="0.35"/><!-- seeds --><g><circle cx="270" cy="280" r="8" fill="#2a1b14"/><circle cx="295" cy="305" r="7" fill="#2a1b14"/><circle cx="245" cy="315" r="7" fill="#2a1b14"/><circle cx="260" cy="255" r="6" fill="#2a1b14"/><circle cx="305" cy="260" r="6" fill="#2a1b14"/><circle cx="275" cy="245" r="5" fill="#2a1b14"/></g><!-- outline shading --><path d="M140,250 C130,185 175,135 230,120 C310,95 365,170 368,235 C371,310 320,405 242,400 C178,396 150,330 140,250 Z" fill="none" stroke="#7a3a18" stroke-width="8" stroke-linejoin="round" opacity="0.25"/></g></svg>