<svg xmlns="http://www.w3.org/2000/svg" width="512" height="512" viewBox="0 0 512 512"><rect width="512" height="512" fill="#f6f7fb"/><path d="M140 266c-26-22-26-58 0-80 25-21 61-16 82 11 7 9 13 21 20 32 7 11 13 23 20 32 21 27 57 32 82 11 26-22 26-58 0-80" fill="none" stroke="#3b82f6" stroke-width="14" stroke-linecap="round"/><path d="M372 246c26 22 26 58 0 80-25 21-61 16-82-11-7-9-13-21-20-32-7-11-13-23-20-32-21-27-57-32-82-11-26 22-26 58 0 80" fill="none" stroke="#3b82f6" stroke-width="14" stroke-linecap="round"/><path d="M256 150v212" stroke="#111827" stroke-width="6" stroke-dasharray="10 12" opacity="0.25"/><path d="M176 256c20-18 38-28 80-28s60 10 80 28" fill="none" stroke="#ef4444" stroke-width="10" stroke-linecap="round"/><path d="M176 256c20 18 38 28 80 28s60-10 80-28" fill="none" stroke="#ef4444" stroke-width="10" stroke-linecap="round"/><path d="M256 190 L230 212 L256 190 L282 212 Z" fill="#ef4444" opacity="0.95"/><path d="M256 322 L230 300 L256 322 L282 300 Z" fill="#ef4444" opacity="0.95"/><path d="M210 210 L302 302" stroke="#111827" stroke-width="5" opacity="0.25"/><path d="M302 210 L210 302" stroke="#111827" stroke-width="5" opacity="0.25"/></svg>