<svg xmlns="http://www.w3.org/2000/svg" width="512" height="512" viewBox="0 0 512 512" fill="none"><rect width="512" height="512" fill="#ffffff"/><g transform="translate(70,110)"><path d="M70 50 C90 30, 130 20, 170 20 L260 20 C310 20, 350 32, 370 52 L380 62 L380 190 C380 215, 360 235, 335 235 L95 235 C70 235, 50 215, 50 190 L50 62 Z" fill="#6f4f2f" stroke="#3b2416" stroke-width="6" stroke-linejoin="round"/><path d="M70 62 C90 45, 130 35, 170 35 L260 35 C308 35, 345 45, 360 60 L370 70 L370 175 C370 198, 352 215, 330 215 L100 215 C78 215, 60 198, 60 175 L60 70 Z" fill="#8b5a33" opacity="0.95"/><path d="M95 80 L345 80 C358 80, 368 90, 368 103 L368 170 C368 183, 358 193, 345 193 L95 193 C82 193, 72 183, 72 170 L72 103 C72 90, 82 80, 95 80 Z" fill="#2b2b2b" stroke="#1a1a1a" stroke-width="4"/><g><rect x="85" y="98" width="18" height="84" rx="3" fill="#f3f3f3" stroke="#cfcfcf" stroke-width="2"/><rect x="111" y="98" width="18" height="84" rx="3" fill="#f3f3f3" stroke="#cfcfcf" stroke-width="2"/><rect x="137" y="98" width="18" height="84" rx="3" fill="#f3f3f3" stroke="#cfcfcf" stroke-width="2"/><rect x="163" y="98" width="18" height="84" rx="3" fill="#f3f3f3" stroke="#cfcfcf" stroke-width="2"/><rect x="189" y="98" width="18" height="84" rx="3" fill="#f3f3f3" stroke="#cfcfcf" stroke-width="2"/><rect x="215" y="98" width="18" height="84" rx="3" fill="#f3f3f3" stroke="#cfcfcf" stroke-width="2"/><rect x="241" y="98" width="18" height="84" rx="3" fill="#f3f3f3" stroke="#cfcfcf" stroke-width="2"/><rect x="267" y="98" width="18" height="84" rx="3" fill="#f3f3f3" stroke="#cfcfcf" stroke-width="2"/><rect x="293" y="98" width="18" height="84" rx="3" fill="#f3f3f3" stroke="#cfcfcf" stroke-width="2"/><g opacity="0.98"><rect x="104" y="98" width="12" height="56" rx="2" fill="#111"/><rect x="130" y="98" width="12" height="56" rx="2" fill="#111"/><rect x="156" y="98" width="12" height="56" rx="2" fill="#111"/><rect x="182" y="98" width="12" height="56" rx="2" fill="#111"/><rect x="208" y="98" width="12" height="56" rx="2" fill="#111"/><rect x="234" y="98" width="12" height="56" rx="2" fill="#111"/><rect x="260" y="98" width="12" height="56" rx="2" fill="#111"/><rect x="286" y="98" width="12" height="56" rx="2" fill="#111"/><rect x="312" y="98" width="12" height="56" rx="2" fill="#111"/></g></g><path d="M120 235 L120 280 C120 292, 130 302, 142 302 L142 302 C154 302, 164 292, 164 280 L164 235 Z" fill="#6b4a2c" stroke="#3b2416" stroke-width="5" stroke-linejoin="round"/><path d="M300 235 L300 280 C300 292, 310 302, 322 302 L322 302 C334 302, 344 292, 344 280 L344 235 Z" fill="#6b4a2c" stroke="#3b2416" stroke-width="5" stroke-linejoin="round"/><path d="M155 330 L155 360 C155 374, 167 386, 181 386 L181 386 C195 386, 207 374, 207 360 L207 330 Z" fill="#7b552f" stroke="#3b2416" stroke-width="5" stroke-linejoin="round"/><path d="M257 330 L257 360 C257 374, 269 386, 283 386 L283 386 C297 386, 309 374, 309 360 L309 330 Z" fill="#7b552f" stroke="#3b2416" stroke-width="5" stroke-linejoin="round"/><path d="M85 235 L380 235" stroke="#3b2416" stroke-width="8" stroke-linecap="round" opacity="0.85"/><path d="M70 50 C95 35, 140 28, 190 28 L245 28 C298 28, 340 38, 365 56" stroke="#3b2416" stroke-width="6" stroke-linecap="round" opacity="0.6"/></g></svg>