<svg xmlns="http://www.w3.org/2000/svg" width="512" height="512" viewBox="0 0 512 512"><rect width="512" height="512" fill="#ffffff"/><g transform="translate(0,0)"><ellipse cx="256" cy="320" rx="130" ry="145" fill="#ff4fb0" stroke="#e63d9a" stroke-width="6"/><path d="M165 205 C185 175, 225 160, 256 160 C287 160, 327 175, 347 205" fill="none" stroke="#1f7a3a" stroke-width="8" stroke-linecap="round"/><g fill="#2aa84b" stroke="#1f7a3a" stroke-width="4" stroke-linejoin="round"><path d="M210 185 L232 135 L250 188 Z"/><path d="M250 185 L260 125 L276 187 Z"/><path d="M290 185 L280 125 L306 188 Z"/><path d="M186 205 L195 165 L212 210 Z"/><path d="M326 205 L314 165 L346 210 Z"/></g><ellipse cx="256" cy="315" rx="95" ry="110" fill="#ff7ac6" opacity="0.95"/><g fill="#f3b24c" opacity="0.95"><circle cx="216" cy="300" r="5"/><circle cx="235" cy="265" r="5"/><circle cx="256" cy="285" r="5"/><circle cx="279" cy="270" r="5"/><circle cx="301" cy="300" r="5"/><circle cx="230" cy="330" r="5"/><circle cx="255" cy="340" r="5"/><circle cx="285" cy="330" r="5"/><circle cx="210" cy="350" r="5"/><circle cx="300" cy="350" r="5"/><circle cx="185" cy="310" r="5"/><circle cx="330" cy="310" r="5"/></g><path d="M182 292 C210 260, 300 260, 330 292" fill="none" stroke="#ff9ad7" stroke-width="10" opacity="0.6" stroke-linecap="round"/><g opacity="0.9"><path d="M256 150 C248 165, 242 175, 236 190 C250 182, 262 182, 276 190 C270 175, 264 165, 256 150 Z" fill="#2aa84b" stroke="#1f7a3a" stroke-width="4"/></g></g></svg>