<svg xmlns="http://www.w3.org/2000/svg" width="512" height="512" viewBox="0 0 512 512">
  <defs>
    <linearGradient id="g" x1="0" y1="0" x2="0" y2="1">
      <stop offset="0" stop-color="#111"/>
      <stop offset="1" stop-color="#000"/>
    </linearGradient>
    <filter id="s" x="-20%" y="-20%" width="140%" height="140%">
      <feDropShadow dx="0" dy="6" stdDeviation="6" flood-color="#000" flood-opacity="0.25"/>
    </filter>
  </defs>

  <!-- ground shadow -->
  <ellipse cx="256" cy="470" rx="95" ry="16" fill="#000" opacity="0.18"/>

  <!-- Queen chess piece -->
  <g filter="url(#s)" fill="url(#g)" stroke="#000" stroke-opacity="0.25" stroke-width="2">

    <!-- base -->
    <path d="M170 414c-10 0-18-8-18-18v-14c0-6 3-11 8-14l18-11h192l18 11c5 3 8 8 8 14v14c0 10-8 18-18 18H170z"/>
    <path d="M184 382l-6-30c-2-9 4-18 13-20 26-5 53-7 75-7s49 2 75 7c9 2 15 11 13 20l-6 30H184z"/>

    <!-- body -->
    <path d="M206 362c-10-40-13-78-13-114 0-20 6-36 18-48 13-13 33-20 45-22 12 2 32 9 45 22 12 12 18 28 18 48 0 36-3 74-13 114H206z"/>

    <!-- collar / shoulders -->
    <path d="M160 360c0-28 24-48 48-48h96c24 0 48 20 48 48v6c0 10-8 18-18 18H178c-10 0-18-8-18-18v-6z"/>

    <!-- neck -->
    <path d="M210 330c0-16 10-28 22-34 8-4 17-6 24-6s16 2 24 6c12 6 22 18 22 34v12c0 14-11 26-25 26h-42c-14 0-25-12-25-26v-12z"/>

    <!-- crown base ring -->
    <path d="M185 255c0-14 11-25 25-25h102c14 0 25 11 25 25v14c0 10-6 19-15 23l-15 7H215l-15-7c-9-4-15-13-15-23v-14z"/>

    <!-- crown spikes -->
    <path d="M256 148c-9 18-23 41-23 56 0 16 10 29 23 29s23-13 23-29c0-15-14-38-23-56z"/>

    <path d="M200 163c-13 24-28 50-24 66 4 15 19 22 33 15 14-7 21-26 17-41-4-16-16-31-26-40z"/>
    <path d="M312 163c13 24 28 50 24 66-4 15-19 22-33 15-14-7-21-26-17-41 4-16 16-31 26-40z"/>

    <!-- side trefoils / crown ornaments -->
    <path d="M152 205c-8-2-14-8-16-16 0 0 12-20 28-20 16 0 26 20 26 20-2 8-8 14-16 16-5 1-10 1-15 0z"/>
    <path d="M360 205c8-2 14-8 16-16 0 0-12-20-28-20-16 0-26 20-26 20 2 8 8 14 16 16 5 1 10 1 15 0z"/>

    <!-- central crown flourish -->
    <path d="M230 238c-8-16-2-34 10-48 9-10 16-22 16-22s7 12 16 22c12 14 18 32 10 48-6 12-18 20-26 20s-20-8-26-20z" opacity="0.95"/>

    <!-- top jewel dome -->
    <path d="M256 156c-7 14-14 26-14 39 0 10 6 18 14 18s14-8 14-18c0-13-7-25-14-39z"/>

    <!-- cutout-like inner shapes for depth (still no text) -->
    <path d="M214 356c6-28 9-58 10-88 0-15 5-27 14-35 8-8 18-12 18-12s10 4 18 12c9 8 14 20 14 35 1 30 4 60 10 88H214z" fill="#000" opacity="0.18"/>

  </g>
</svg>