<svg xmlns="http://www.w3.org/2000/svg" width="512" height="512" viewBox="0 0 512 512"><rect width="512" height="512" fill="#ffffff"/><g fill="none" stroke="#111827" stroke-linecap="round" stroke-linejoin="round" stroke-width="10"><path d="M150 220 C170 165, 230 145, 270 155 C315 166, 355 210, 350 260 C345 320, 290 360, 235 350 C180 340, 140 295, 150 220 Z" opacity="0.15"/></g><g fill="#111827"><circle cx="238" cy="235" r="8"/><circle cx="304" cy="235" r="8"/></g><g fill="none" stroke="#111827" stroke-width="10" stroke-linecap="round" stroke-linejoin="round"><path d="M255 300 C270 315, 285 315, 300 300"/></g><g fill="none" stroke="#111827" stroke-width="10" stroke-linecap="round" stroke-linejoin="round"><path d="M248 295 C235 290, 220 300, 215 312 C210 326, 220 342, 238 342 C258 342, 270 325, 265 312 C262 303, 255 298, 248 295 Z"/></g><g fill="none" stroke="#111827" stroke-width="12" stroke-linecap="round" stroke-linejoin="round"><path d="M360 210 C380 195, 405 198, 418 220"/><path d="M360 210 C388 218, 408 242, 412 270"/></g><g fill="#111827" stroke="#111827" stroke-width="8" stroke-linecap="round" stroke-linejoin="round"><path d="M400 170 C392 175, 392 185, 400 190 C408 195, 418 190, 420 182 C422 173, 409 165, 400 170 Z" opacity="0.15"/></g><g fill="none" stroke="#111827" stroke-width="10" stroke-linecap="round" stroke-linejoin="round"><path d="M340 305 C352 287, 370 273, 392 270"/><path d="M342 315 C350 330, 365 342, 385 346"/></g><g fill="#111827" stroke="#111827" stroke-width="8" stroke-linecap="round" stroke-linejoin="round"><path d="M395 230 C395 240, 395 250, 395 260 C395 270, 385 280, 375 280 C365 280, 356 272, 356 262 C356 250, 368 244, 378 246 C385 248, 390 253, 395 260 L395 230 Z" opacity="0"/><path d="M395 250 C395 250, 395 250, 395 250" opacity="0"/></g><g fill="none" stroke="#111827" stroke-width="10" stroke-linecap="round" stroke-linejoin="round"><path d="M380 165 C420 145, 470 165, 458 210"/></g><g fill="none" stroke="#111827" stroke-width="10" stroke-linecap="round" stroke-linejoin="round"><path d="M410 105 C415 95, 428 95, 434 105" opacity="0"/></g><g stroke="#111827" fill="none" stroke-width="10" stroke-linecap="round" stroke-linejoin="round"><path d="M380 240 L380 175"/><path d="M380 175 C380 175, 380 175, 380 175"/></g><g fill="#111827" stroke="#111827" stroke-width="10" stroke-linecap="round" stroke-linejoin="round"><path d="M365 200 C350 210, 346 230, 358 242 C370 254, 392 250, 398 232 C404 215, 388 195, 365 200 Z" opacity="0"/></g><g fill="none" stroke="#111827" stroke-width="10" stroke-linecap="round" stroke-linejoin="round"><path d="M220 430 C240 410, 275 405, 300 420" opacity="0"/></g><g fill="none" stroke="#111827" stroke-width="10" stroke-linecap="round" stroke-linejoin="round"><path d="M175 210 C160 230, 160 260, 175 280"/></g><g fill="none" stroke="#111827" stroke-width="8" stroke-linecap="round" stroke-linejoin="round"><path d="M430 160 C455 150, 480 170, 470 195 C462 215, 438 220, 420 205"/></g><g fill="none" stroke="#111827" stroke-width="8" stroke-linecap="round" stroke-linejoin="round"><path d="M440 140 C455 128, 478 138, 476 158 C474 175, 455 184, 440 175"/></g><g fill="none" stroke="#111827" stroke-width="10" stroke-linecap="round" stroke-linejoin="round"><path d="M355 215 C350 190, 345 170, 335 155" opacity="0"/></g><g fill="none" stroke="#111827" stroke-width="10" stroke-linecap="round" stroke-linejoin="round"><path d="M335 165 C315 185, 305 210, 308 240" opacity="0"/></g><g fill="none" stroke="#111827" stroke-width="10" stroke-linecap="round" stroke-linejoin="round"><path d="M320 180 C300 195, 285 215, 280 245" opacity="0"/></g><g fill="none" stroke="#111827" stroke-width="10" stroke-linecap="round" stroke-linejoin="round"><path d="M370 270 C380 255, 400 250, 415 258"/></g><g fill="none" stroke="#111827" stroke-width="10" stroke-linecap="round" stroke-linejoin="round"><path d="M370 245 C375 235, 390 230, 405 235"/></g><g fill="none" stroke="#111827" stroke-width="10" stroke-linecap="round" stroke-linejoin="round"><path d="M360 290 C365 275, 380 265, 398 265"/></g><g stroke="#111827" fill="none" stroke-width="12" stroke-linecap="round" stroke-linejoin="round"><path d="M290 245 C300 225, 330 225, 340 245"/></g><g fill="none" stroke="#111827" stroke-width="10" stroke-linecap="round" stroke-linejoin="round" opacity="0.95"><path d="M380 210 C410 195, 440 215, 435 245 C431 266, 410 277, 390 270"/></g><g fill="none" stroke="#111827" stroke-width="10" stroke-linecap="round" stroke-linejoin="round"><path d="M360 185 C360 185, 360 185, 360 185" opacity="0"/></g><g fill="none" stroke="#111827" stroke-width="10" stroke-linecap="round" stroke-linejoin="round"><path d="M390 250 C380 240, 380 225, 392 216 C404 208, 422 214, 425 230 C428 246, 410 259, 395 252" opacity="0"/></g><g fill="none" stroke="#111827" stroke-width="10" stroke-linecap="round" stroke-linejoin="round"><path d="M382 240 C382 240, 382 240, 382 240" opacity="0"/></g><g fill="none" stroke="#111827" stroke-width="10" stroke-linecap="round" stroke-linejoin="round" opacity="0"><path d=""/></g><g fill="none" stroke="#111827" stroke-width="10" stroke-linecap="round" stroke-linejoin="round"><path d="M370 230 L370 175"/></g><g fill="#111827" stroke="#111827" stroke-width="10" stroke-linejoin="round"><ellipse cx="370" cy="165" rx="14" ry="12"/></g><g fill="none" stroke="#111827" stroke-width="10" stroke-linecap="round" stroke-linejoin="round"><path d="M370 165 C345 140, 300 145, 290 175"/></g><g fill="none" stroke="#111827" stroke-width="10" stroke-linecap="round" stroke-linejoin="round"><path d="M310 180 C330 165, 360 175, 360 200 C360 220, 340 232, 320 225"/></g><g fill="none" stroke="#111827" stroke-width="12" stroke-linecap="round" stroke-linejoin="round"><path d="M405 260 C420 240, 450 235, 468 250"/></g><g fill="none" stroke="#111827" stroke-width="12" stroke-linecap="round" stroke-linejoin="round"><path d="M400 290 C420 275, 452 280, 466 300"/></g><g fill="none" stroke="#111827" stroke-width="10" stroke-linecap="round" stroke-linejoin="round"><path d="M420 205 L420 145"/></g><g fill="#111827" stroke="#111827" stroke-width="10" stroke-linejoin="round"><ellipse cx="420" cy="135" rx="14" ry="12"/></g></svg>