<svg xmlns="http://www.w3.org/2000/svg" width="512" height="512" viewBox="0 0 512 512"><rect x="0" y="0" width="512" height="512" fill="#0b6b2f"/><rect x="60" y="92" width="392" height="330" rx="16" fill="none" stroke="#cfe9cf" stroke-width="6"/><line x1="256" y1="92" x2="256" y2="422" stroke="#cfe9cf" stroke-width="4"/><line x1="60" y1="257" x2="452" y2="257" stroke="#cfe9cf" stroke-width="4"/><rect x="86" y="135" width="78" height="245" rx="12" fill="none" stroke="#cfe9cf" stroke-width="4" opacity="0.25"/><rect x="348" y="135" width="78" height="245" rx="12" fill="none" stroke="#cfe9cf" stroke-width="4" opacity="0.25"/><g transform="translate(0,0)"><circle cx="256" cy="260" r="86" fill="#f2f2f2" stroke="#222" stroke-width="6"/><g stroke="#222" stroke-width="4" fill="none"><path d="M256 174 C230 190 212 218 212 260 C212 302 230 330 256 346"/><path d="M256 174 C282 190 300 218 300 260 C300 302 282 330 256 346"/><path d="M170 260 C186 235 214 217 256 217 C298 217 326 235 342 260"/><path d="M170 260 C186 285 214 303 256 303 C298 303 326 285 342 260"/></g><g stroke="#222" stroke-width="4" fill="none" opacity="0.95"><path d="M256 186 L234 212 L256 238 L278 212 Z"/><path d="M256 238 L234 264 L256 290 L278 264 Z"/><path d="M256 290 L234 316 L256 342 L278 316 Z"/></g></g><g opacity="0.22" fill="#a7d6a7"><circle cx="110" cy="120" r="6"/><circle cx="430" cy="170" r="5"/><circle cx="90" cy="310" r="7"/><circle cx="400" cy="410" r="6"/><circle cx="300" cy="110" r="5"/></g></svg>