<svg xmlns="http://www.w3.org/2000/svg" width="512" height="512" viewBox="0 0 512 512" fill="none"><rect x="0" y="0" width="512" height="512" fill="white"/><g transform="translate(40,70)"><path d="M122 250c-34 0-62-23-62-53 0-29 24-51 56-53 8-31 38-54 74-54 42 0 76 31 78 70 3-1 6-1 9-1 29 0 53 20 53 46 0 26-22 47-50 47H122z" fill="#BFD6FF" stroke="#5B7FB8" stroke-width="6" stroke-linejoin="round"/><path d="M140 274h248c32 0 58-22 58-50 0-26-22-46-48-49-5-36-43-64-88-64-38 0-71 19-85 47-6-2-13-3-20-3-32 0-58 23-58 52 0 5 1 10 2 14-17 7-29 21-29 39 0 30 26 53 59 53z" fill="#8EC0FF" stroke="#3B66A8" stroke-width="6" stroke-linejoin="round"/><path d="M268 86c-46 10-72 39-86 73" stroke="#3B66A8" stroke-width="6" stroke-linecap="round" opacity="0.35"/><path d="M235 455c-10-18-7-45 9-63l25-28h-42c-10 0-15-10-9-19l92-132c8-12 26-4 24 10l-19 102h46c12 0 18 13 10 23L300 444c-20 24-52 24-65 11z" fill="#FFD34D" stroke="#B07A00" stroke-width="6" stroke-linejoin="round"/><path d="M267 150 190 265h79l-33 125 112-140h-79l- -2-100z" fill="#FFEA7A" opacity="0.9"/><g opacity="0.25" stroke="#B07A00" stroke-width="10" stroke-linecap="round"><path d="M288 112v0"/></g><g><path d="M235 455c-10-18-7-45 9-63l25-28h-42c-10 0-15-10-9-19l92-132c8-12 26-4 24 10l-19 102h46c12 0 18 13 10 23L300 444c-20 24-52 24-65 11z" fill="none" stroke="#B07A00" stroke-width="5"/></g></g><g transform="translate(0,0)" opacity="0.18"><path d="M70 400c40-10 70-10 110 0" stroke="#5B7FB8" stroke-width="10" stroke-linecap="round"/><path d="M290 410c55 15 105 15 165 0" stroke="#5B7FB8" stroke-width="10" stroke-linecap="round"/></g></svg>