<svg xmlns="http://www.w3.org/2000/svg" width="512" height="512" viewBox="0 0 512 512">
  <rect width="512" height="512" fill="#0b0b12"/>

  <!-- moon/smoke vibe -->
  <circle cx="410" cy="120" r="45" fill="#1a1a2a"/>
  <circle cx="430" cy="105" r="30" fill="#151525"/>
  <path d="M330 150 C355 120, 410 115, 450 145 C410 160, 360 175, 330 150 Z" fill="#141425" opacity="0.9"/>

  <!-- cape -->
  <path d="M120 220
           C140 170, 205 140, 256 140
           C307 140, 372 170, 392 220
           C420 295, 418 450, 256 480
           C94 450, 92 295, 120 220 Z" 
        fill="#1b0f22"/>
  <path d="M150 250
           C175 205, 215 185, 256 185
           C297 185, 337 205, 362 250
           C355 370, 330 450, 256 460
           C182 450, 157 370, 150 250 Z" 
        fill="#2a1233"/>

  <!-- shoulders highlight -->
  <path d="M155 250 C185 230, 215 220, 256 220 C297 220, 327 230, 357 250
           C345 310, 300 340, 256 340 C212 340, 167 310, 155 250 Z" 
        fill="#3a184a" opacity="0.55"/>

  <!-- head/hood -->
  <path d="M180 215
           C180 155, 215 115, 256 115
           C297 115, 332 155, 332 215
           C332 260, 310 290, 256 290
           C202 290, 180 260, 180 215 Z" 
        fill="#6b4a5b"/>

  <!-- ears -->
  <path d="M205 160 L165 135 L184 205 Z" fill="#553846"/>
  <path d="M307 160 L347 135 L328 205 Z" fill="#553846"/>

  <!-- neck -->
  <path d="M225 285 C230 320, 242 335, 256 335 C270 335, 282 320, 287 285
           C275 295, 238 295, 225 285 Z" fill="#5c3e4f"/>

  <!-- eyes -->
  <circle cx="235" cy="215" r="10" fill="#8b0f1a"/>
  <circle cx="277" cy="215" r="10" fill="#8b0f1a"/>
  <circle cx="232" cy="212" r="3" fill="#ff4b5c"/>
  <circle cx="274" cy="212" r="3" fill="#ff4b5c"/>

  <!-- brow -->
  <path d="M210 200 C225 190, 245 186, 256 188
           C267 186, 287 190, 302 200
           C285 205, 270 206, 256 206
           C242 206, 227 205, 210 200 Z" fill="#4d2f3c" opacity="0.75"/>

  <!-- mouth -->
  <path d="M225 250 C235 262, 241 268, 256 268 C271 268, 277 262, 287 250
           C279 290, 233 290, 225 250 Z" fill="#2b0f18" opacity="0.35"/>

  <!-- fangs (no text) -->
  <path d="M244 270 L234 298 L252 292 Z" fill="#e9e9f2"/>
  <path d="M268 270 L258 292 L276 298 Z" fill="#e9e9f2"/>
  <path d="M243 275 L238 288 L246 284 Z" fill="#cfd2de"/>
  <path d="M269 275 L266 284 L274 288 Z" fill="#cfd2de"/>

  <!-- cape folds -->
  <path d="M145 260 C185 280, 220 310, 240 420 C210 408, 160 375, 145 260 Z" fill="#140a18" opacity="0.55"/>
  <path d="M367 260 C327 280, 292 310, 272 420 C302 408, 352 375, 367 260 Z" fill="#140a18" opacity="0.55"/>

  <!-- bat wings hint (abstract) -->
  <path d="M120 230 C80 210, 60 175, 70 150 C95 135, 135 160, 155 195 C145 205, 130 220, 120 230 Z" fill="#1a0d21" opacity="0.9"/>
  <path d="M392 230 C432 210, 452 175, 442 150 C417 135, 377 160, 357 195 C367 205, 382 220, 392 230 Z" fill="#1a0d21" opacity="0.9"/>
</svg>