<svg xmlns="http://www.w3.org/2000/svg" width="512" height="512" viewBox="0 0 512 512">
  <rect x="0" y="0" width="512" height="512" fill="#ffffff"/>

  <!-- Wardrobe body -->
  <rect x="110" y="90" width="292" height="360" rx="18" fill="#E7F0FF" stroke="#2B3A67" stroke-width="6"/>

  <!-- Inner panel -->
  <rect x="142" y="118" width="228" height="304" rx="12" fill="#F7FBFF" stroke="#2B3A67" stroke-width="4"/>

  <!-- Vertical door separator -->
  <line x1="256" y1="124" x2="256" y2="420" stroke="#2B3A67" stroke-width="6"/>

  <!-- Hinges (top/bottom) -->
  <rect x="108" y="140" width="18" height="18" fill="#BFD0FF" stroke="#2B3A67" stroke-width="3"/>
  <rect x="386" y="140" width="18" height="18" fill="#BFD0FF" stroke="#2B3A67" stroke-width="3"/>
  <rect x="108" y="355" width="18" height="18" fill="#BFD0FF" stroke="#2B3A67" stroke-width="3"/>
  <rect x="386" y="355" width="18" height="18" fill="#BFD0FF" stroke="#2B3A67" stroke-width="3"/>

  <!-- Handles / knobs -->
  <circle cx="212" cy="255" r="10" fill="#FFD166" stroke="#2B3A67" stroke-width="4"/>
  <circle cx="300" cy="255" r="10" fill="#FFD166" stroke="#2B3A67" stroke-width="4"/>
  <rect x="206" y="248" width="12" height="14" rx="6" fill="#F9A825" opacity="0.9"/>
  <rect x="294" y="248" width="12" height="14" rx="6" fill="#F9A825" opacity="0.9"/>

  <!-- Top shelf line -->
  <line x1="155" y1="190" x2="357" y2="190" stroke="#2B3A67" stroke-width="4" opacity="0.6"/>

  <!-- Drawers at bottom -->
  <rect x="155" y="300" width="202" height="120" rx="10" fill="#DDE7FF" stroke="#2B3A67" stroke-width="4"/>
  <line x1="155" y1="350" x2="357" y2="350" stroke="#2B3A67" stroke-width="4"/>
  <line x1="155" y1="400" x2="357" y2="400" stroke="#2B3A67" stroke-width="4"/>
  <circle cx="205" cy="375" r="8" fill="#FFD166" stroke="#2B3A67" stroke-width="3"/>
  <circle cx="307" cy="375" r="8" fill="#FFD166" stroke="#2B3A67" stroke-width="3"/>

  <!-- Small base shadow -->
  <ellipse cx="256" cy="465" rx="150" ry="20" fill="#000000" opacity="0.08"/>
  <rect x="130" y="428" width="252" height="40" rx="12" fill="#DCE7FF" stroke="#2B3A67" stroke-width="4"/>
</svg>