<svg xmlns="http://www.w3.org/2000/svg" width="512" height="512" viewBox="0 0 512 512"><defs><filter id="shadow" x="-30%" y="-30%" width="160%" height="160%"><feDropShadow dx="0" dy="10" stdDeviation="12" flood-color="#000000" flood-opacity="0.25"/></filter></defs><rect x="90" y="176" width="332" height="170" rx="48" fill="#E62117" filter="url(#shadow)"/><path d="M224 236 L224 306 C224 317 236 324 246 318 L316 277 C326 271 326 271 316 265 L246 224 C236 218 224 225 224 236 Z" fill="#FFFFFF"/><path d="M360 200 C392 224 406 250 406 270 C406 300 388 332 352 356" fill="none" stroke="#E62117" stroke-width="18" stroke-linecap="round" opacity="0.28"/><path d="M382 176 C425 210 448 244 448 274 C448 318 420 366 372 396" fill="none" stroke="#E62117" stroke-width="12" stroke-linecap="round" opacity="0.18"/></svg>