<svg xmlns="http://www.w3.org/2000/svg" viewBox="0 0 512 512" width="512" height="512"><rect width="512" height="512" fill="#e0f7fa"/><path d="M120 512 Q100 400 140 350 T110 200" stroke="#2e7d32" stroke-width="12" fill="none" stroke-linecap="round"/><path d="M200 512 Q230 380 180 300 T210 100" stroke="#388e3c" stroke-width="15" fill="none" stroke-linecap="round"/><path d="M280 512 Q250 420 300 320 T270 150" stroke="#1b5e20" stroke-width="10" fill="none" stroke-linecap="round"/><path d="M380 512 Q410 400 360 330 T390 180" stroke="#4caf50" stroke-width="14" fill="none" stroke-linecap="round"/><path d="M450 512 Q430 450 460 380 T440 250" stroke="#2e7d32" stroke-width="8" fill="none" stroke-linecap="round"/><circle cx="150" cy="420" r="15" fill="#81c784" opacity="0.6"/><circle cx="320" cy="450" r="20" fill="#66bb6a" opacity="0.5"/><circle cx="220" cy="480" r="12" fill="#a5d6a7" opacity="0.7"/><circle cx="400" cy="470" r="18" fill="#43a047" opacity="0.4"/><path d="M0 480 Q128 460 256 480 T512 480 L512 512 L0 512 Z" fill="#4db6ac" opacity="0.3"/></svg>