<svg xmlns="http://www.w3.org/2000/svg" viewBox="0 0 512 512" width="512" height="512"><rect width="512" height="512" fill="#f0f8ff"/><path d="M256 450 Q256 300 256 150" stroke="#228b22" stroke-width="8" fill="none"/><path d="M256 350 Q200 330 180 300" stroke="#228b22" stroke-width="6" fill="none"/><path d="M256 380 Q312 360 332 330" stroke="#228b22" stroke-width="6" fill="none"/><circle cx="256" cy="150" r="40" fill="#ffd700"/><path d="M256 110 Q300 30 350 110 Q430 150 350 190 Q300 270 256 190 Q212 270 162 190 Q82 150 162 110 Q212 30 256 110" fill="#ff69b4" opacity="0.8"/><path d="M256 110 Q280 60 310 110 Q360 130 310 150 Q280 200 256 150 Q232 200 202 150 Q152 130 202 110 Q232 60 256 110" fill="#ff1493" opacity="0.6"/><circle cx="100" cy="80" r="30" fill="#fff" opacity="0.7"/><circle cx="400" cy="120" r="20" fill="#fff" opacity="0.7"/><circle cx="450" cy="60" r="25" fill="#fff" opacity="0.7"/><path d="M400 300 L410 330 L440 340 L410 350 L400 380 L390 350 L360 340 L390 330 Z" fill="#ffd700"/><path d="M100 200 L105 215 L120 220 L105 225 L100 240 L95 225 L80 220 L95 215 Z" fill="#ffd700"/></svg>