<svg xmlns="http://www.w3.org/2000/svg" viewBox="0 0 512 512" width="512" height="512"><rect width="512" height="512" fill="#f0f0f0"/><path d="M256 100 C150 100 120 250 120 350 C120 420 180 450 256 450 C332 450 392 420 392 350 C392 250 362 100 256 100 Z" fill="#4a6741" stroke="#2d3e27" stroke-width="8"/><path d="M256 40 L256 100" stroke="#5d4037" stroke-width="12" stroke-linecap="round"/><path d="M180 220 Q210 200 240 220" fill="none" stroke="#2d3e27" stroke-width="6" stroke-linecap="round"/><path d="M272 220 Q302 200 332 220" fill="none" stroke="#2d3e27" stroke-width="6" stroke-linecap="round"/><path d="M210 330 Q256 280 302 330" fill="none" stroke="#2d3e27" stroke-width="10" stroke-linecap="round"/><path d="M160 150 L170 170 M352 150 L342 170 M256 120 L256 145" stroke="#3a5334" stroke-width="4" stroke-linecap="round"/><path d="M200 380 L210 400 M312 380 L302 400" stroke="#3a5334" stroke-width="4" stroke-linecap="round"/></svg>