<svg xmlns="http://www.w3.org/2000/svg" viewBox="0 0 512 512" width="512" height="512"><rect width="512" height="512" fill="#f0f0f0"/><g transform="translate(256, 256)"><circle cx="0" cy="0" r="60" fill="#555"/><path d="M-20,-120 L20,-120 L30,-80 L-30,-80 Z" fill="#555" transform="rotate(0)"/><path d="M-20,-120 L20,-120 L30,-80 L-30,-80 Z" fill="#555" transform="rotate(45)"/><path d="M-20,-120 L20,-120 L30,-80 L-30,-80 Z" fill="#555" transform="rotate(90)"/><path d="M-20,-120 L20,-120 L30,-80 L-30,-80 Z" fill="#555" transform="rotate(135)"/><path d="M-20,-120 L20,-120 L30,-80 L-30,-80 Z" fill="#555" transform="rotate(180)"/><path d="M-20,-120 L20,-120 L30,-80 L-30,-80 Z" fill="#555" transform="rotate(225)"/><path d="M-20,-120 L20,-120 L30,-80 L-30,-80 Z" fill="#555" transform="rotate(270)"/><path d="M-20,-120 L20,-120 L30,-80 L-30,-80 Z" fill="#555" transform="rotate(315)"/><circle cx="0" cy="0" r="40" fill="#f0f0f0"/></g><g transform="translate(380, 180) scale(0.7)"><circle cx="0" cy="0" r="60" fill="#777"/><path d="M-20,-120 L20,-120 L30,-80 L-30,-80 Z" fill="#777" transform="rotate(22.5)"/><path d="M-20,-120 L20,-120 L30,-80 L-30,-80 Z" fill="#777" transform="rotate(67.5)"/><path d="M-20,-120 L20,-120 L30,-80 L-30,-80 Z" fill="#777" transform="rotate(112.5)"/><path d="M-20,-120 L20,-120 L30,-80 L-30,-80 Z" fill="#777" transform="rotate(157.5)"/><path d="M-20,-120 L20,-120 L30,-80 L-30,-80 Z" fill="#777" transform="rotate(202.5)"/><path d="M-20,-120 L20,-120 L30,-80 L-30,-80 Z" fill="#777" transform="rotate(247.5)"/><path d="M-20,-120 L20,-120 L30,-80 L-30,-80 Z" fill="#777" transform="rotate(292.5)"/><path d="M-20,-120 L20,-120 L30,-80 L-30,-80 Z" fill="#777" transform="rotate(337.5)"/><circle cx="0" cy="0" r="40" fill="#f0f0f0"/></g><path d="M50,400 L462,400 L462,420 L50,420 Z" fill="#333"/><path d="M100,400 L100,100 L120,100 L120,400" fill="#333"/><path d="M100,120 L400,380" stroke="#333" stroke-width="5" fill="none"/><path d="M100,250 L250,400" stroke="#333" stroke-width="5" fill="none"/><path d="M250,100 L400,250" stroke="#333" stroke-width="5" fill="none"/></svg>