<svg width="512" height="512" viewBox="0 0 512 512" xmlns="http://www.w3.org/2000/svg"><rect width="512" height="512" fill="#87CEEB"/><rect y="400" width="512" height="112" fill="#228B22"/><g transform="translate(50, 320)"><rect x="30" y="80" width="20" height="50" fill="#5D4037"/><polygon points="40,0 0,90 80,90" fill="#006400"/></g><g transform="translate(150, 300)"><rect x="35" y="100" width="30" height="60" fill="#5D4037"/><polygon points="50,0 0,110 100,110" fill="#2E7D32"/></g><g transform="translate(280, 330)"><rect x="25" y="70" width="20" height="40" fill="#5D4037"/><polygon points="35,0 0,80 70,80" fill="#1B5E20"/></g><g transform="translate(380, 290)"><rect x="40" y="110" width="30" height="70" fill="#5D4037"/><polygon points="55,0 0,120 110,120" fill="#004D40"/></g><g transform="translate(100, 360)"><rect x="20" y="40" width="15" height="30" fill="#5D4037"/><polygon points="27,0 0,50 55,50" fill="#388E3C"/></g><g transform="translate(320, 370)"><rect x="20" y="40" width="15" height="30" fill="#5D4037"/><polygon points="27,0 0,50 55,50" fill="#2E7D32"/></g></svg>