<svg xmlns="http://www.w3.org/2000/svg" viewBox="0 0 512 512" width="512" height="512"><rect width="512" height="512" fill="#f0f8ff"/><path d="M150 350 L150 200 Q150 150 200 150 L312 150" fill="none" stroke="#4a4a4a" stroke-width="12"/><rect x="130" y="350" width="40" height="80" fill="#4a4a4a"/><path d="M312 150 L312 100" fill="none" stroke="#4a4a4a" stroke-width="12"/><path d="M312 100 Q350 100 350 150 L350 250 Q350 300 312 300 L200 300" fill="none" stroke="#4a4a4a" stroke-width="12" stroke-dasharray="15,10"/><path d="M300 120 L350 50 L400 120 L480 140 L410 190 L430 270 L350 220 L270 270 L290 190 L220 140 Z" fill="#ffd700" stroke="#daa520" stroke-width="4"/><path d="M350 150 L420 80 M350 150 L450 150 M350 150 L420 220" fill="none" stroke="#ffd700" stroke-width="8" stroke-linecap="round"/></svg>