<svg xmlns="http://www.w3.org/2000/svg" viewBox="0 0 512 512" width="512" height="512"><rect width="512" height="512" fill="#f0f0f0"/><path d="M256 80c-60 0-100 40-100 100 0 30 10 50 30 70-20 20-40 60-40 100 0 60 40 100 110 100s110-40 110-100c0-40-20-80-40-100 20-20 30-40 30-70 0-60-40-100-100-100z" fill="#333"/><circle cx="210" cy="160" r="25" fill="#555"/><circle cx="302" cy="160" r="25" fill="#555"/><circle cx="215" cy="165" r="5" fill="#000"/><circle cx="297" cy="165" r="5" fill="#000"/><path d="M240 210 q16-10 32 0" stroke="#000" stroke-width="4" fill="none"/><path d="M230 240 q26 10 52 0" stroke="#000" stroke-width="3" fill="none"/><path d="M156 180c-20 0-30 20-30 40 0 30 20 40 20 40" stroke="#333" stroke-width="15" fill="none" stroke-linecap="round"/><path d="M356 180c20 0 30 20 30 40 0 30-20 40-20 40" stroke="#333" stroke-width="15" fill="none" stroke-linecap="round"/><rect x="180" y="320" width="152" height="100" rx="50" fill="#444"/><path d="M120 300c-30 20-50 80-40 140" stroke="#333" stroke-width="40" fill="none" stroke-linecap="round"/><path d="M392 300c30 20 50 80 40 140" stroke="#333" stroke-width="40" fill="none" stroke-linecap="round"/></svg>