<svg xmlns="http://www.w3.org/2000/svg" viewBox="0 0 512 512" width="512" height="512"><rect width="512" height="512" fill="#f0f0f0"/><path d="M256 120 C200 120 160 160 160 210 C160 260 200 280 220 320 L292 320 C312 280 352 260 352 210 C352 160 312 120 256 120 Z" fill="#ffd700" stroke="#333" stroke-width="8"/><rect x="220" y="320" width="72" height="15" fill="#999" stroke="#333" stroke-width="4"/><rect x="225" y="335" width="62" height="15" fill="#999" stroke="#333" stroke-width="4"/><path d="M256 350 L256 380" stroke="#333" stroke-width="8" stroke-linecap="round"/><circle cx="256" cy="210" r="40" fill="#fff" opacity="0.4"/><line x1="256" y1="100" x2="256" y2="40" stroke="#ffd700" stroke-width="10" stroke-linecap="round"/><line x1="160" y1="140" x2="110" y2="90" stroke="#ffd700" stroke-width="10" stroke-linecap="round"/><line x1="352" y1="140" x2="402" y2="90" stroke="#ffd700" stroke-width="10" stroke-linecap="round"/><line x1="120" y1="210" x2="60" y2="210" stroke="#ffd700" stroke-width="10" stroke-linecap="round"/><line x1="392" y1="210" x2="452" y2="210" stroke="#ffd700" stroke-width="10" stroke-linecap="round"/><path d="M230 210 Q256 170 282 210" fill="none" stroke="#333" stroke-width="4"/></svg>