<svg width="512" height="512" viewBox="0 0 512 512" xmlns="http://www.w3.org/2000/svg"><ellipse cx="256" cy="256" rx="200" ry="120" fill="#f8d7da" stroke="#721c24" stroke-width="8"/><path d="M 100 256 C 100 200, 140 200, 140 256 S 180 312, 180 256 S 220 200, 220 256 S 260 312, 260 256 S 300 200, 300 256 S 340 312, 340 256 S 380 200, 380 256 S 412 312, 412 256" fill="none" stroke="#721c24" stroke-width="12" stroke-linecap="round" stroke-linejoin="round"/><circle cx="150" cy="230" r="4" fill="#721c24"/><circle cx="280" cy="280" r="4" fill="#721c24"/><circle cx="350" cy="240" r="4" fill="#721c24"/><circle cx="210" cy="260" r="4" fill="#721c24"/><path d="M 80 256 Q 80 156, 256 156 Q 432 156, 432 256 Q 432 356, 256 356 Q 80 356, 80 256" fill="none" stroke="#721c24" stroke-width="4" stroke-dasharray="10,5"/></svg>