<svg xmlns="http://www.w3.org/2000/svg" viewBox="0 0 512 512" width="512" height="512">
  <!-- Face -->
  <circle cx="256" cy="256" r="180" fill="#fff8e1" stroke="#333" stroke-width="8" />
  
  <!-- Eyes (Wide and darting) -->
  <ellipse cx="200" cy="220" rx="25" ry="30" fill="white" stroke="#333" stroke-width="4" />
  <ellipse cx="312" cy="220" rx="25" ry="30" fill="white" stroke="#333" stroke-width="4" />
  <circle cx="210" cy="220" r="8" fill="black" />
  <circle cx="322" cy="220" r="8" fill="black" />

  <!-- Eyebrows (Slanted/Worried) -->
  <path d="M170 180 Q200 160 230 185" fill="none" stroke="#333" stroke-width="6" stroke-linecap="round" />
  <path d="M282 185 Q312 160 342 180" fill="none" stroke="#333" stroke-width="6" stroke-linecap="round" />

  <!-- Mouth (Wavy/Trembling) -->
  <path d="M190 340 Q210 320 230 340 T270 340 T310 340 T350 340" fill="none" stroke="#333" stroke-width="6" stroke-linecap="round" />

  <!-- Sweat Drop -->
  <path d="M380 180 Q395 180 395 200 Q395 215 380 215 Q365 215 365 200 Q365 180 380 180" fill="#add8e6" stroke="#4682b4" stroke-width="2" />

  <!-- Shaking Lines -->
  <path d="M60 230 L40 250 M60 270 L40 290" fill="none" stroke="#ccc" stroke-width="4" stroke-linecap="round" />
  <path d="M452 230 L472 250 M452 270 L472 290" fill="none" stroke="#ccc" stroke-width="4" stroke-linecap="round" />
</svg>