<svg xmlns="http://www.w3.org/2000/svg" viewBox="0 0 512 512" width="512" height="512"><rect width="512" height="512" fill="#ffffff"/><path d="M256,80 C180,80 140,160 140,280 C140,400 190,460 256,460 C322,460 372,400 372,280 C372,160 332,80 256,80 Z" fill="#f4b400" stroke="#e67e22" stroke-width="4"/><path d="M256,110 C200,110 170,180 170,280 C170,380 210,430 256,430 C302,430 342,380 342,280 C342,180 312,110 256,110 Z" fill="#ff8c00"/><circle cx="256" cy="240" r="8" fill="#333"/><circle cx="240" cy="260" r="8" fill="#333"/><circle cx="272" cy="260" r="8" fill="#333"/><circle cx="256" cy="280" r="8" fill="#333"/><circle cx="240" cy="300" r="8" fill="#333"/><circle cx="272" cy="300" r="8" fill="#333"/><circle cx="256" cy="320" r="8" fill="#333"/><circle cx="245" cy="225" r="8" fill="#333"/><circle cx="267" cy="225" r="8" fill="#333"/><circle cx="256" cy="345" r="8" fill="#333"/><path d="M256,80 L256,50" stroke="#228b22" stroke-width="12" stroke-linecap="round"/></svg>