<svg width="512" height="512" viewBox="0 0 512 512" xmlns="http://www.w3.org/2000/svg"><rect width="512" height="512" fill="#f0f0f0"/><path d="M320 150c0-40-30-70-70-70s-70 30-70 70v150c0 40 30 70 70 70s70-30 70-70V150z" fill="#228B22"/><path d="M250 80c-40 0-70 30-70 70h70V80z" fill="#FF4500"/><path d="M180 150c-30 0-50 40-50 100s20 100 50 100V150z" fill="#32CD32"/><path d="M320 150c30 0 50 40 50 100s-20 100-50 100V150z" fill="#32CD32"/><path d="M250 370c0 40-20 80-50 110h100c-30-30-50-70-50-110z" fill="#228B22"/><path d="M180 160c-20 0-30 20-30 40 0 10 10 20 30 20v-60z" fill="#FFD700"/><circle cx="210" cy="130" r="8" fill="black"/><path d="M230 370l-10 30M270 370l10 30" stroke="#8B4513" stroke-width="8" stroke-linecap="round"/><rect x="150" y="400" width="212" height="15" rx="5" fill="#8B4513"/></svg>