<svg xmlns="http://www.w3.org/2000/svg" viewBox="0 0 512 512" width="512" height="512"><path d="M280 80c0 22.09-17.91 40-40 40s-40-17.91-40-40 17.91-40 40-40 40 17.91 40 40z" fill="black"/><path d="M360 200l-80-30-30-60-40 20 25 70-60 50-50-30-20 30 70 50 10 100 40-10-10-80 60-50 40 90 40-15-45-135z" fill="black"/><line x1="100" y1="450" x2="400" y2="450" stroke="black" stroke-width="4"/><line x1="120" y1="400" x2="160" y2="400" stroke="black" stroke-width="2" stroke-dasharray="10,10"/><line x1="80" y1="350" x2="130" y2="350" stroke="black" stroke-width="2" stroke-dasharray="10,10"/></svg>