<svg xmlns="http://www.w3.org/2000/svg" viewBox="0 0 512 512" width="512" height="512"><rect width="512" height="512" fill="#f0f0f0"/><path d="M180 150 L180 380 Q180 420 140 420 L372 420 Q332 420 332 380 L332 150 Z" fill="#add8e6" stroke="#333" stroke-width="8"/><path d="M180 300 L332 300 L332 420 L180 420 Z" fill="#4682b4"/><line x1="160" y1="150" x2="352" y2="150" stroke="#333" stroke-width="12" stroke-linecap="round"/><circle cx="220" cy="340" r="10" fill="white" opacity="0.6"/><circle cx="280" cy="370" r="15" fill="white" opacity="0.6"/><circle cx="250" cy="260" r="8" fill="#4682b4" opacity="0.4"/><path d="M380 180 A100 100 0 1 0 480 280" fill="none" stroke="#555" stroke-width="4"/><ellipse cx="430" cy="280" rx="60" ry="20" fill="none" stroke="#e67e22" stroke-width="3" transform="rotate(30 430 280)"/><ellipse cx="430" cy="280" rx="60" ry="20" fill="none" stroke="#e67e22" stroke-width="3" transform="rotate(-30 430 280)"/><circle cx="430" cy="280" r="12" fill="#d35400"/><path d="M80 200 L120 200 M80 240 L120 240 M80 280 L120 280" stroke="#333" stroke-width="4"/><path d="M60 150 L140 150 L140 350 L60 350 Z" fill="none" stroke="#333" stroke-width="6"/></svg>