<svg xmlns="http://www.w3.org/2000/svg" viewBox="0 0 512 512" width="512" height="512"><circle cx="256" cy="150" r="60" fill="none" stroke="black" stroke-width="8"/><path d="M256,210 L256,380 M256,240 L200,300 M256,240 L312,300" fill="none" stroke="black" stroke-width="8"/><path d="M236,170 Q256,190 276,170" fill="none" stroke="black" stroke-width="8"/><path d="M320,120 Q350,100 380,120" fill="none" stroke="black" stroke-width="6"/><path d="M330,150 Q360,130 390,150" fill="none" stroke="black" stroke-width="6"/><path d="M380,120 L380,80 L420,70 L420,110" fill="black"/><circle cx="370" cy="120" r="10" fill="black"/><circle cx="410" cy="110" r="10" fill="black"/><path d="M150,120 Q120,100 90,120" fill="none" stroke="black" stroke-width="6"/><circle cx="100" cy="120" r="10" fill="black"/><path d="M100,120 L100,80 L140,70" fill="none" stroke="black" stroke-width="6"/></svg>