<svg xmlns="http://www.w3.org/2000/svg" viewBox="0 0 512 512" width="512" height="512">
  <!-- Table -->
  <rect x="50" y="350" width="412" height="20" fill="#8B4513" />
  <rect x="80" y="370" width="20" height="100" fill="#8B4513" />
  <rect x="412" y="370" width="20" height="100" fill="#8B4513" />

  <!-- Open Book -->
  <path d="M150 350 L150 280 Q250 260 256 300 Q262 260 362 280 L362 350 Q256 330 150 350" fill="#FFF" stroke="#000" stroke-width="2" />
  <line x1="256" y1="300" x2="256" y2="345" stroke="#000" stroke-width="2" />
  <line x1="170" y1="300" x2="230" y2="295" stroke="#CCC" stroke-width="1" />
  <line x1="170" y1="315" x2="230" y2="310" stroke="#CCC" stroke-width="1" />
  <line x1="282" y1="295" x2="342" y2="300" stroke="#CCC" stroke-width="1" />
  <line x1="282" y1="310" x2="342" y2="315" stroke="#CCC" stroke-width="1" />

  <!-- Desk Lamp -->
  <path d="M400 350 L400 330 Q400 200 330 200" fill="none" stroke="#333" stroke-width="8" />
  <path d="M300 180 L360 220 L340 240 L280 200 Z" fill="#555" />
  <path d="M305 215 L260 280" fill="none" stroke="#FFD700" stroke-width="40" stroke-opacity="0.3" />

  <!-- Pencil Holder -->
  <rect x="100" y="310" width="30" height="40" fill="#2F4F4F" />
  <line x1="110" y1="310" x2="110" y2="280" stroke="#DAA520" stroke-width="3" />
  <line x1="120" y1="310" x2="120" y2="270" stroke="#CD5C5C" stroke-width="3" />
</svg>