<svg xmlns="http://www.w3.org/2000/svg" width="512" height="512" viewBox="0 0 512 512"><path d="M256 40c-70 0-120 50-120 110 0 40 25 80 50 100 20 15 30 40 30 70h80c0-30 10-55 30-70 25-20 50-60 50-100 0-60-50-110-120-110z" fill="#f1c40f" stroke="#000" stroke-width="8"/><rect x="216" y="330" width="80" height="20" fill="#bdc3c7" stroke="#000" stroke-width="4"/><rect x="226" y="360" width="60" height="20" fill="#bdc3c7" stroke="#000" stroke-width="4"/><path d="M256 390c-10 0-20 10-20 20s10 20 20 20 20-10 20-20-10-20-20-20z" fill="#bdc3c7" stroke="#000" stroke-width="4"/><line x1="256" y1="30" x2="256" y2="10" stroke="#f1c40f" stroke-width="6" stroke-linecap="round"/><line x1="340" y1="60" x2="355" y2="45" stroke="#f1c40f" stroke-width="6" stroke-linecap="round"/><line x1="172" y1="60" x2="157" y2="45" stroke="#f1c40f" stroke-width="6" stroke-linecap="round"/><line x1="380" y1="130" x2="405" y2="130" stroke="#f1c40f" stroke-width="6" stroke-linecap="round"/><line x1="132" y1="130" x2="107" y2="130" stroke="#f1c40f" stroke-width="6" stroke-linecap="round"/></svg>