<svg xmlns="http://www.w3.org/2000/svg" viewBox="0 0 512 512" width="512" height="512"><rect width="512" height="512" fill="#1a1a2e"/><path d="M150 150 Q100 150 100 200 Q100 250 150 250 Q150 300 200 300 Q250 300 250 250 Q300 250 300 200 Q300 150 250 150 Q250 100 200 100 Q150 100 150 150 Z" fill="#4a4e69"/><path d="M350 180 Q310 180 310 220 Q310 260 350 260 Q350 300 390 300 Q430 300 430 260 Q470 260 470 220 Q470 180 430 180 Q430 140 390 140 Q350 140 350 180 Z" fill="#4a4e69"/><path d="M220 250 L180 350 L240 350 L200 480 L320 320 L260 320 L300 250 Z" fill="#ffea00" stroke="#ffffff" stroke-width="4" stroke-linejoin="round"/><path d="M100 320 L80 380 L110 380 L90 440" fill="none" stroke="#ffea00" stroke-width="6" stroke-linecap="round"/><path d="M400 320 L380 380 L410 380 L390 440" fill="none" stroke="#ffea00" stroke-width="6" stroke-linecap="round"/></svg>