<svg width="512" height="512" viewBox="0 0 512 512" xmlns="http://www.w3.org/2000/svg"><rect width="512" height="512" fill="#f0f0f0"/><rect x="100" y="350" width="312" height="100" fill="#333"/><rect x="120" y="200" width="60" height="150" fill="#444"/><rect x="190" y="150" width="80" height="200" fill="#555"/><rect x="280" y="100" width="70" height="250" fill="#444"/><rect x="360" y="220" width="50" height="130" fill="#666"/><rect x="135" y="220" width="10" height="15" fill="#ffff00"/><rect x="155" y="220" width="10" height="15" fill="#ffff00"/><rect x="205" y="170" width="15" height="20" fill="#ffff00"/><rect x="235" y="170" width="15" height="20" fill="#ffff00"/><rect x="205" y="210" width="15" height="20" fill="#ffff00"/><rect x="235" y="210" width="15" height="20" fill="#ffff00"/><rect x="300" y="120" width="12" height="18" fill="#ffff00"/><rect x="325" y="120" width="12" height="18" fill="#ffff00"/><path d="M150 150 L362 150 L362 170 L150 170 Z" fill="#cc0000"/><path d="M200 120 L312 120 L312 135 L200 135 Z" fill="#cc0000"/><rect x="251" y="50" width="10" height="100" fill="#cc0000"/><circle cx="400" cy="80" r="50" fill="#ff0000"/></svg>