<svg xmlns="http://www.w3.org/2000/svg" viewBox="0 0 512 512" width="512" height="512"><rect x="180" y="100" width="152" height="350" fill="#808080" stroke="#000000" stroke-width="4"/><rect x="160" y="60" width="192" height="40" fill="#606060" stroke="#000000" stroke-width="4"/><rect x="170" y="40" width="20" height="20" fill="#606060" stroke="#000000" stroke-width="2"/><rect x="210" y="40" width="20" height="20" fill="#606060" stroke="#000000" stroke-width="2"/><rect x="250" y="40" width="20" height="20" fill="#606060" stroke="#000000" stroke-width="2"/><rect x="290" y="40" width="20" height="20" fill="#606060" stroke="#000000" stroke-width="2"/><rect x="330" y="40" width="20" height="20" fill="#606060" stroke="#000000" stroke-width="2"/><rect x="210" y="140" width="30" height="40" fill="#ADD8E6" stroke="#000000" stroke-width="2"/><rect x="270" y="140" width="30" height="40" fill="#ADD8E6" stroke="#000000" stroke-width="2"/><rect x="210" y="220" width="30" height="40" fill="#ADD8E6" stroke="#000000" stroke-width="2"/><rect x="270" y="220" width="30" height="40" fill="#ADD8E6" stroke="#000000" stroke-width="2"/><rect x="210" y="300" width="30" height="40" fill="#ADD8E6" stroke="#000000" stroke-width="2"/><rect x="270" y="300" width="30" height="40" fill="#ADD8E6" stroke="#000000" stroke-width="2"/><path d="M220 450 Q256 380 292 450 Z" fill="#404040" stroke="#000000" stroke-width="2"/></svg>