<svg xmlns="http://www.w3.org/2000/svg" viewBox="0 0 512 512" width="512" height="512"><rect width="512" height="512" fill="#1a1a1a"/><path d="M100 150 L256 100 L412 150 L412 450 L256 500 L100 450 Z" fill="#330000"/><path d="M256 120 C180 120 140 180 140 250 C140 320 180 380 256 380 C332 380 372 320 372 250 C372 180 332 120 256 120 Z" fill="#f0f0f0"/><path d="M140 200 Q256 100 372 200 L372 120 Q256 80 140 120 Z" fill="#000000"/><circle cx="210" cy="240" r="10" fill="#ff0000"/><circle cx="302" cy="240" r="10" fill="#ff0000"/><path d="M200 290 L312 290 Q256 310 200 290" fill="#000000"/><path d="M215 290 L225 320 L235 290 Z" fill="#ffffff"/><path d="M277 290 L287 320 L297 290 Z" fill="#ffffff"/><path d="M100 150 Q50 250 100 450 L256 350 L412 450 Q462 250 412 150 Z" fill="#000000"/></svg>