<svg xmlns="http://www.w3.org/2000/svg" viewBox="0 0 512 512" width="512" height="512"><path d="M50,400 Q100,350 150,420 T250,380 T350,450 T460,390" fill="none" stroke="#8B4513" stroke-width="12" stroke-dasharray="20,10" /><circle cx="460" cy="390" r="8" fill="#8B4513" /><g transform="translate(80, 360)"><circle cx="0" cy="-40" r="10" fill="black" /><line x1="0" y1="-30" x2="0" y2="0" stroke="black" stroke-width="4" /><line x1="0" y1="-20" x2="-15" y2="-5" stroke="black" stroke-width="4" /><line x1="0" y1="-20" x2="15" y2="-5" stroke="black" stroke-width="4" /><line x1="0" y1="0" x2="-10" y2="20" stroke="black" stroke-width="4" /><line x1="0" y1="0" x2="10" y2="20" stroke="black" stroke-width="4" /></g><path d="M300,100 Q350,50 400,100 Q450,150 400,200 Q350,250 300,200 Q250,150 300,100" fill="none" stroke="#CCC" stroke-width="2" opacity="0.5" /><path d="M100,150 Q120,130 140,150 T180,150" fill="none" stroke="#87CEEB" stroke-width="10" stroke-linecap="round" /><path d="M350,80 Q370,60 390,80 T430,80" fill="none" stroke="#87CEEB" stroke-width="10" stroke-linecap="round" /></svg>