<svg xmlns="http://www.w3.org/2000/svg" viewBox="0 0 512 512" width="512" height="512"><path d="M80 150 C 150 150, 200 100, 250 100 C 300 100, 350 150, 350 200 C 350 250, 300 250, 280 230" fill="none" stroke="#888" stroke-width="12" stroke-linecap="round"/><path d="M50 250 C 150 250, 250 350, 350 350 C 450 350, 480 300, 480 250 C 480 200, 430 200, 410 220" fill="none" stroke="#AAA" stroke-width="12" stroke-linecap="round"/><path d="M120 380 C 200 380, 250 430, 300 430 C 350 430, 380 400, 380 370 C 380 340, 350 340, 330 360" fill="none" stroke="#CCC" stroke-width="12" stroke-linecap="round"/><path d="M30 100 L 100 100" fill="none" stroke="#888" stroke-width="8" stroke-linecap="round"/><path d="M400 120 L 460 120" fill="none" stroke="#AAA" stroke-width="8" stroke-linecap="round"/></svg>