<svg width="512" height="512" xmlns="http://www.w3.org/2000/svg"><path d="M150,100 L362,100 L362,250 Q362,450 256,450 Q150,450 150,250 Z" fill="#b71c1c" stroke="#000" stroke-width="8"/><circle cx="256" cy="250" r="70" fill="#ff9800" stroke="#000" stroke-width="4"/><path d="M256,180 L230,150 L256,170 L282,150 Z" fill="#e65100"/><path d="M326,250 L350,220 L330,250 L350,280 Z" fill="#e65100"/><path d="M256,320 L230,350 L256,330 L282,350 Z" fill="#e65100"/><path d="M186,250 L160,220 L180,250 L160,280 Z" fill="#e65100"/><circle cx="230" cy="240" r="8" fill="#000"/><circle cx="282" cy="240" r="8" fill="#000"/><path d="M246,260 L266,260 L256,275 Z" fill="#000"/></svg>