<svg width="512" height="512" viewBox="0 0 512 512" xmlns="http://www.w3.org/2000/svg"><rect width="512" height="512" fill="#00001a"/><circle cx="256" cy="256" r="15" fill="#ffffff"/><path d="M256,256 C350,256 400,350 350,450" stroke="#ffffff" stroke-width="3" fill="none" opacity="0.7"/><path d="M256,256 C162,256 112,162 162,62" stroke="#ffffff" stroke-width="3" fill="none" opacity="0.7"/><path d="M256,256 C256,350 162,400 62,350" stroke="#ffffff" stroke-width="3" fill="none" opacity="0.7"/><path d="M256,256 C256,162 350,112 450,162" stroke="#ffffff" stroke-width="3" fill="none" opacity="0.7"/><circle cx="100" cy="100" r="2" fill="#ffffff"/><circle cx="400" cy="400" r="1" fill="#ffffff"/><circle cx="450" cy="100" r="2" fill="#ffffff"/><circle cx="50" cy="450" r="1" fill="#ffffff"/><circle cx="200" cy="50" r="2" fill="#ffffff"/><circle cx="350" cy="500" r="1" fill="#ffffff"/><circle cx="480" cy="250" r="2" fill="#ffffff"/><circle cx="20" cy="200" r="1" fill="#ffffff"/><circle cx="300" cy="150" r="2" fill="#ffffff"/><circle cx="150" cy="350" r="1" fill="#ffffff"/></svg>