<svg xmlns="http://www.w3.org/2000/svg" viewBox="0 0 512 512" width="512" height="512"><rect width="512" height="512" fill="#f0f0f0"/><path d="M256 50 C 180 50, 150 150, 150 250 C 150 380, 200 460, 256 460 C 312 460, 362 380, 362 250 C 362 150, 332 50, 256 50" fill="#4a6741" stroke="#2d3e27" stroke-width="8"/><path d="M256 50 L 256 20" fill="none" stroke="#2d3e27" stroke-width="10" stroke-linecap="round"/><path d="M180 150 Q 220 170, 256 150 Q 290 130, 330 150" fill="none" stroke="#2d3e27" stroke-width="4" opacity="0.4"/><path d="M170 250 Q 210 270, 256 250 Q 300 230, 340 250" fill="none" stroke="#2d3e27" stroke-width="4" opacity="0.4"/><path d="M190 350 Q 230 370, 256 350 Q 280 330, 320 350" fill="none" stroke="#2d3e27" stroke-width="4" opacity="0.4"/><path d="M200 180 L 210 190 M 300 210 L 310 220 M 240 280 L 250 290 M 280 330 L 290 340 M 220 380 L 230 390" stroke="#1a2417" stroke-width="6" stroke-linecap="round"/><path d="M180 220 Q 200 210, 220 220" fill="none" stroke="#000" stroke-width="5" stroke-linecap="round"/><path d="M290 220 Q 310 210, 330 220" fill="none" stroke="#000" stroke-width="5" stroke-linecap="round"/><path d="M230 310 Q 256 280, 282 310" fill="none" stroke="#000" stroke-width="6" stroke-linecap="round"/><path d="M220 340 L 292 340" stroke="#000" stroke-width="4"/><path d="M230 340 L 225 360 M 256 340 L 256 365 M 282 340 L 287 360" stroke="#000" stroke-width="3"/></svg>