<svg xmlns="http://www.w3.org/2000/svg" width="512" height="512" viewBox="0 0 512 512"><rect width="512" height="512" fill="#f0f0f0"/><path d="M50 50 L460 460 M100 400 L400 100 M256 20 L256 492 M20 256 L492 256 M100 50 Q 300 250 50 450 M450 50 Q 200 250 450 450" stroke="black" stroke-width="4" fill="none"/><circle cx="150" cy="150" r="40" stroke="red" stroke-width="3" fill="none"/><circle cx="360" cy="360" r="60" stroke="blue" stroke-width="3" fill="none"/><path d="M50 200 C 150 100, 350 400, 450 200" stroke="green" stroke-width="5" fill="none"/><rect x="200" y="200" width="112" height="112" stroke="purple" stroke-width="4" fill="none" transform="rotate(45 256 256)"/><path d="M10 10 L30 50 L70 20 L90 80 L150 30 L200 100" stroke="orange" stroke-width="4" fill="none"/><path d="M500 500 L480 450 L440 480 L420 420 L360 470 L310 400" stroke="brown" stroke-width="4" fill="none"/><ellipse cx="100" cy="400" rx="50" ry="20" stroke="teal" stroke-width="3" fill="none" transform="rotate(-30 100 400)"/></svg>