<svg width="512" height="512" viewBox="0 0 512 512" xmlns="http://www.w3.org/2000/svg"><rect width="512" height="512" fill="#87CEEB"/><rect y="400" width="512" height="112" fill="#228B22"/><g transform="translate(80, 420)"><rect x="-15" y="-60" width="30" height="60" fill="#5D4037"/><polygon points="0,-180 -60,-60 60,-60" fill="#006400"/><polygon points="0,-220 -50,-110 50,-110" fill="#006400"/></g><g transform="translate(200, 440)"><rect x="-15" y="-60" width="30" height="60" fill="#5D4037"/><polygon points="0,-160 -55,-50 55,-50" fill="#2E7D32"/><polygon points="0,-200 -45,-100 45,-100" fill="#2E7D32"/></g><g transform="translate(320, 410)"><rect x="-15" y="-60" width="30" height="60" fill="#5D4037"/><polygon points="0,-190 -65,-70 65,-70" fill="#1B5E20"/><polygon points="0,-230 -55,-120 55,-120" fill="#1B5E20"/></g><g transform="translate(440, 430)"><rect x="-15" y="-60" width="30" height="60" fill="#5D4037"/><polygon points="0,-170 -60,-60 60,-60" fill="#228B22"/><polygon points="0,-210 -50,-110 50,-110" fill="#228B22"/></g><g transform="translate(140, 460)"><rect x="-10" y="-40" width="20" height="40" fill="#5D4037"/><polygon points="0,-120 -40,-40 40,-40" fill="#388E3C"/></g><g transform="translate(380, 470)"><rect x="-10" y="-40" width="20" height="40" fill="#5D4037"/><polygon points="0,-120 -40,-40 40,-40" fill="#43A047"/></g></svg>