<svg xmlns="http://www.w3.org/2000/svg" viewBox="0 0 512 512" width="512" height="512">
  <!-- Background Ground -->
  <rect x="0" y="400" width="512" height="112" fill="#8B4513" />
  
  <!-- Wheat Stalks -->
  <g stroke="#DAA520" stroke-width="4" fill="none">
    <path d="M100,400 Q110,300 100,200" />
    <path d="M120,400 Q130,310 120,220" />
    <path d="M140,400 Q150,320 140,240" />
    <path d="M80,400 Q90,310 80,220" />
  </g>
  <g fill="#FFD700">
    <ellipse cx="100" cy="190" rx="8" ry="12" transform="rotate(-10, 100, 190)" />
    <ellipse cx="100" cy="170" rx="8" ry="12" transform="rotate(10, 100, 170)" />
    <ellipse cx="120" cy="210" rx="8" ry="12" />
    <ellipse cx="80" cy="210" rx="8" ry="12" />
  </g>

  <!-- Wicker Basket -->
  <path d="M250,350 L450,350 L430,450 L270,450 Z" fill="#CD853F" stroke="#8B4513" stroke-width="3" />
  <path d="M250,350 Q350,320 450,350" fill="none" stroke="#8B4513" stroke-width="5" />
  
  <!-- Harvested Corn/Produce in Basket -->
  <ellipse cx="300" cy="340" rx="25" ry="40" fill="#FFFF00" stroke="#DAA520" />
  <ellipse cx="350" cy="330" rx="25" ry="40" fill="#FFFF00" stroke="#DAA520" />
  <ellipse cx="400" cy="340" rx="25" ry="40" fill="#FFFF00" stroke="#DAA520" />

  <!-- Scythe -->
  <g transform="translate(180, 150) rotate(-20)">
    <rect x="0" y="0" width="10" height="300" fill="#5D4037" />
    <path d="M10,0 Q150,20 180,120 L160,120 Q130,40 10,30 Z" fill="#B0BEC5" stroke="#455A64" />
  </g>
</svg>