<svg xmlns="http://www.w3.org/2000/svg" viewBox="0 0 512 512" width="512" height="512"><rect x="128" y="128" width="256" height="256" fill="#795548" /><rect x="128" y="128" width="256" height="80" fill="#4CAF50" /><path d="M128 208 L160 208 L160 240 L192 240 L192 208 L224 208 L224 240 L256 240 L256 208 L288 208 L288 240 L320 240 L320 208 L352 208 L352 240 L384 240 L384 208" fill="none" stroke="#388E3C" stroke-width="8" /><rect x="160" y="160" width="32" height="32" fill="#8BC34A" opacity="0.6" /><rect x="280" y="140" width="40" height="40" fill="#8BC34A" opacity="0.6" /><rect x="200" y="280" width="40" height="40" fill="#5D4037" /><rect x="300" y="320" width="30" height="30" fill="#5D4037" /><rect x="128" y="128" width="256" height="256" fill="none" stroke="#333" stroke-width="4" /></svg>