<svg xmlns="http://www.w3.org/2000/svg" viewBox="0 0 512 512" width="512" height="512"><circle cx="256" cy="256" r="200" fill="#FFD700" stroke="#000" stroke-width="5"/><ellipse cx="180" cy="200" rx="25" ry="35" fill="#fff" stroke="#000" stroke-width="3"/><circle cx="180" cy="210" r="8" fill="#000"/><ellipse cx="332" cy="200" rx="25" ry="35" fill="#fff" stroke="#000" stroke-width="3"/><circle cx="332" cy="210" r="8" fill="#000"/><path d="M150 140 Q180 120 210 145" fill="none" stroke="#000" stroke-width="4"/><path d="M302 145 Q332 120 362 140" fill="none" stroke="#000" stroke-width="4"/><path d="M180 340 L200 320 L220 340 L240 320 L260 340 L280 320 L300 340 L320 320 L340 340" fill="none" stroke="#000" stroke-width="6" stroke-linecap="round" stroke-linejoin="round"/><path d="M100 256 Q80 240 60 256 Q40 270 60 280" fill="none" stroke="#000" stroke-width="2" opacity="0.6"/><path d="M412 256 Q432 240 452 256 Q472 270 452 280" fill="none" stroke="#000" stroke-width="2" opacity="0.6"/><circle cx="140" cy="380" r="10" fill="#ADD8E6" opacity="0.8"/><circle cx="370" cy="380" r="10" fill="#ADD8E6" opacity="0.8"/></svg>