<svg xmlns="http://www.w3.org/2000/svg" width="512" height="512" viewBox="0 0 512 512"><rect width="512" height="512" fill="#009B3A"/><polygon points="256,80 392,216 256,352 120,216" fill="#FFDF00"/><circle cx="256" cy="216" r="86" fill="#002776"/><path d="M203 216c0-40 23-72 53-72s53 32 53 72-23 72-53 72-53-32-53-72Z" fill="none" stroke="#BFD7FF" stroke-width="3" opacity="0.9"/><path d="M170 216h172" stroke="#BFD7FF" stroke-width="3" opacity="0.9"/><path d="M213 144c16 25 26 52 26 72s-10 47-26 72" fill="none" stroke="#BFD7FF" stroke-width="3" opacity="0.85"/><path d="M299 144c-16 25-26 52-26 72s10 47 26 72" fill="none" stroke="#BFD7FF" stroke-width="3" opacity="0.85"/><path d="M195 170c18 18 40 28 61 28s43-10 61-28" fill="none" stroke="#BFD7FF" stroke-width="2" opacity="0.6"/><path d="M195 262c18-18 40-28 61-28s43 10 61 28" fill="none" stroke="#BFD7FF" stroke-width="2" opacity="0.6"/><circle cx="236" cy="190" r="3" fill="#FFFFFF" opacity="0.95"/><circle cx="274" cy="190" r="2.5" fill="#FFFFFF" opacity="0.95"/><circle cx="254" cy="205" r="2" fill="#FFFFFF" opacity="0.95"/><circle cx="226" cy="225" r="2.5" fill="#FFFFFF" opacity="0.95"/><circle cx="290" cy="228" r="2" fill="#FFFFFF" opacity="0.95"/><circle cx="246" cy="245" r="2" fill="#FFFFFF" opacity="0.95"/><circle cx="268" cy="250" r="3" fill="#FFFFFF" opacity="0.95"/></svg>