<svg xmlns="http://www.w3.org/2000/svg" width="512" height="512" viewBox="0 0 512 512"><rect width="512" height="512" fill="#ffffff"/><path d="M90 305 Q92 250 150 245 L320 240 Q380 240 402 280 L420 320 Q430 350 395 360 L150 370 Q88 365 90 305 Z" fill="#c9c9c9" stroke="#2b2b2b" stroke-width="6" stroke-linejoin="round"/><path d="M122 292 Q128 258 165 257 L310 254 Q355 254 372 285 L388 318 Q396 342 370 346 L160 355 Q118 352 122 292 Z" fill="#9ea3a7" stroke="#2b2b2b" stroke-width="6" stroke-linejoin="round" opacity="0.9"/><path d="M290 178 Q295 145 330 145 L352 145 Q382 148 398 175 L420 210 Q425 220 410 225 L300 245 Q286 250 283 235 Z" fill="#b4bcc2" stroke="#2b2b2b" stroke-width="6" stroke-linejoin="round"/><path d="M335 165 Q342 155 356 155 L380 155 Q392 158 398 168 L413 193 Q418 202 408 206 L338 218 Q326 221 324 210 Z" fill="#7a8793" stroke="#2b2b2b" stroke-width="6" stroke-linejoin="round" opacity="0.95"/><path d="M305 185 Q325 170 355 173 Q381 175 396 196" fill="none" stroke="#2b2b2b" stroke-width="5" stroke-linecap="round" opacity="0.7"/><path d="M158 253 L265 245 Q290 244 300 225 L312 204" fill="none" stroke="#2b2b2b" stroke-width="6" stroke-linecap="round"/><path d="M95 310 L190 310 Q214 310 225 332 L240 360 L115 360 Q92 360 95 310 Z" fill="#bfbfbf" stroke="#2b2b2b" stroke-width="6" stroke-linejoin="round"/><path d="M205 310 L235 310 Q250 310 257 325 L268 350 Q271 356 265 356 L212 356 Q197 356 197 342 Z" fill="#5f6a72" stroke="#2b2b2b" stroke-width="6" stroke-linejoin="round" opacity="0.95"/><path d="M197 344 L270 344" stroke="#2b2b2b" stroke-width="6" stroke-linecap="round" opacity="0.8"/><path d="M105 325 Q115 315 125 314 L320 309 Q336 309 344 320 L352 332 Q359 342 348 347 L120 364 Q106 364 104 352 Z" fill="#a0a0a0" opacity="0.35"/>

<!-- Blade (bulldozer front) -->
<g transform="translate(0,0)">
  <path d="M130 265 L290 265 Q320 265 330 275 L410 350 Q418 358 410 365 L390 385 Q382 393 373 385 L280 300 Q270 290 255 290 L140 290 Q120 290 120 270 Q120 265 130 265 Z" fill="#7f8b93" stroke="#2b2b2b" stroke-width="6" stroke-linejoin="round"/>
  <path d="M150 285 L245 285 Q258 285 267 294 L338 360 Q343 365 337 370 L328 378 Q321 384 314 378 L235 306 Q228 300 218 300 L150 300 Q140 300 140 291 Q140 285 150 285 Z" fill="#5b666d" stroke="#2b2b2b" stroke-width="6" stroke-linejoin="round" opacity="0.95"/>
  <path d="M150 299 L245 299" stroke="#2b2b2b" stroke-width="6" stroke-linecap="round" opacity="0.6"/>
</g>

<!-- Tracks -->
<g>
  <!-- left track band -->
  <path d="M135 348 Q110 330 120 305 Q130 280 160 275 Q175 272 190 280 L195 380 Q175 390 150 382 Q135 378 135 348 Z" fill="#2f2f2f" stroke="#0f0f0f" stroke-width="6" stroke-linejoin="round"/>
  <path d="M165 290 Q150 292 146 308 Q141 328 155 340 Q169 352 185 344 Q200 336 198 316 Q196 295 165 290 Z" fill="#1c1c1c" opacity="0.8"/>
  <!-- sprocket-ish -->
  <circle cx="182" cy="315" r="26" fill="#3a3a3a" stroke="#0f0f0f" stroke-width="6"/>
  <circle cx="182" cy="315" r="12" fill="#101010"/>
  <!-- top idler -->
  <circle cx="155" cy="285" r="18" fill="#3a3a3a" stroke="#0f0f0f" stroke-width="6" opacity="0.95"/>
  <!-- rollers -->
  <g fill="#4b4b4b" stroke="#0f0f0f" stroke-width="4" opacity="0.95">
    <circle cx="150" cy="322" r="10"/>
    <circle cx="175" cy="335" r="10"/>
    <circle cx="160" cy="355" r="10"/>
    <circle cx="190" cy="355" r="10"/>
  </g>
</g>

<g>
  <!-- right track band -->
  <path d="M300 350 Q280 338 286 315 Q292 292 315 285 Q340 278 370 295 Q392 308 392 332 Q392 365 360 378 Q332 389 315 375 Q305 368 300 350 Z" fill="#2f2f2f" stroke="#0f0f0f" stroke-width="6" stroke-linejoin="round"/>
  <path d="M320 296 Q305 302 303 320 Q301 339 318 350 Q337 362 355 348 Q370 336 366 317 Q362 295 320 296 Z" fill="#1c1c1c" opacity="0.8"/>
  <!-- sprocket-ish -->
  <circle cx="350" cy="318" r="26" fill="#3a3a3a" stroke="#0f0f0f" stroke-width="6"/>
  <circle cx="350" cy="318" r="12" fill="#101010"/>
  <!-- top idler -->
  <circle cx="320" cy="292" r="18" fill="#3a3a3a" stroke="#0f0f0f" stroke-width="6" opacity="0.95"/>
  <!-- rollers -->
  <g fill="#4b4b4b" stroke="#0f0f0f" stroke-width="4" opacity="0.95">
    <circle cx="318" cy="322" r="10"/>
    <circle cx="342" cy="336" r="10"/>
    <circle cx="325" cy="357" r="10"/>
    <circle cx="360" cy="357" r="10"/>
  </g>
</g>

<!-- Links/arm -->
<path d="M235 265 L195 312" stroke="#2b2b2b" stroke-width="10" stroke-linecap="round" opacity="0.9"/>
<path d="M290 260 L265 300" stroke="#2b2b2b" stroke-width="10" stroke-linecap="round" opacity="0.9"/>

<!-- Exhaust/antenna details (no text) -->
<path d="M365 215 Q360 195 380 190" fill="none" stroke="#2b2b2b" stroke-width="6" stroke-linecap="round"/>
<path d="M382 190 Q395 186 402 198" fill="none" stroke="#2b2b2b" stroke-width="6" stroke-linecap="round" opacity="0.7"/>

<!-- Subtle ground shadow -->
<ellipse cx="260" cy="430" rx="190" ry="28" fill="#000000" opacity="0.08"/>
</svg>