<svg xmlns="http://www.w3.org/2000/svg" width="512" height="512" viewBox="0 0 512 512" role="img" aria-label="bus drawing"><rect width="512" height="512" fill="#ffffff"/><g transform="translate(70,170)"><path d="M40 100 C40 65 65 40 100 40 L260 40 C295 40 320 65 320 100 L320 185 C320 210 305 225 280 225 L80 225 C55 225 40 210 40 185 Z" fill="#2f6fd6" stroke="#1e3f7a" stroke-width="6" stroke-linejoin="round"/><path d="M70 100 C70 85 82 73 97 73 L260 73 C275 73 290 85 290 100 L290 115 L70 115 Z" fill="#4aa3ff" stroke="#1e3f7a" stroke-width="4" stroke-linejoin="round" opacity="0.35"/><g fill="#eaf2ff" opacity="0.95"><rect x="92" y="85" width="60" height="50" rx="8"/><rect x="162" y="85" width="60" height="50" rx="8"/><rect x="232" y="85" width="50" height="50" rx="8"/></g><g fill="#d9e6ff"><path d="M110 155 C110 145 118 137 128 137 L180 137 C190 137 198 145 198 155 L198 190 L110 190 Z" opacity="0.95"/><path d="M208 155 C208 145 216 137 226 137 L278 137 C288 137 296 145 296 155 L296 190 L208 190 Z" opacity="0.8"/></g><rect x="188" y="133" width="50" height="64" rx="10" fill="#1456b8" opacity="0.35"/><g><rect x="132" y="178" width="40" height="40" rx="10" fill="#0f2f63" opacity="0.18"/></g><g><path d="M160 40 L200 40" stroke="#1e3f7a" stroke-width="6" stroke-linecap="round" opacity="0.9"/></g><g><circle cx="105" cy="225" r="36" fill="#1b1f2a"/><circle cx="105" cy="225" r="22" fill="#4b5563"/><circle cx="292" cy="225" r="36" fill="#1b1f2a"/><circle cx="292" cy="225" r="22" fill="#4b5563"/></g><g><path d="M50 125 C80 120 110 118 140 120" stroke="#0b2a5e" stroke-width="6" stroke-linecap="round" opacity="0.7"/><path d="M300 125 C270 120 240 118 210 120" stroke="#0b2a5e" stroke-width="6" stroke-linecap="round" opacity="0.7"/></g><path d="M55 175 C95 172 130 172 170 175" stroke="#ffffff" stroke-width="5" stroke-linecap="round" opacity="0.25"/><path d="M170 175 C210 172 250 172 285 175" stroke="#ffffff" stroke-width="5" stroke-linecap="round" opacity="0.25"/></g></svg>