<svg xmlns="http://www.w3.org/2000/svg" width="512" height="512" viewBox="0 0 512 512">  <defs>    <linearGradient id="cupGrad" x1="0" y1="0" x2="0" y2="1">      <stop offset="0" stop-color="#f3e8d3"/>      <stop offset="1" stop-color="#d8c2a0"/>    </linearGradient>    <linearGradient id="coffeeGrad" x1="0" y1="0" x2="0" y2="1">      <stop offset="0" stop-color="#7a4a2a"/>      <stop offset="1" stop-color="#4a2a16"/>    </linearGradient>  </defs>  <!-- saucer -->  <ellipse cx="256" cy="400" rx="150" ry="30" fill="#d9d9e0" stroke="#b9b9c6" stroke-width="6"/>  <ellipse cx="256" cy="408" rx="120" ry="20" fill="#cfcfe0" opacity="0.9"/>  <!-- coffee cup body -->  <path d="M160 160 C160 140 176 128 195 128 L317 128 C336 128 352 140 352 160 L336 320 C334 345 314 364 289 364 L223 364 C198 364 178 345 176 320 Z" fill="url(#cupGrad)" stroke="#9b7a55" stroke-width="8" stroke-linejoin="round"/>  <!-- cup rim -->  <ellipse cx="256" cy="132" rx="96" ry="28" fill="#f8f0de" stroke="#9b7a55" stroke-width="8"/>  <!-- coffee surface -->  <path d="M186 235 C210 210 302 210 326 235 L314 312 C312 331 296 346 277 346 L235 346 C216 346 200 331 198 312 Z" fill="url(#coffeeGrad)" opacity="0.98"/>  <!-- cup highlight -->  <path d="M205 170 C195 200 195 240 206 280 C215 312 212 336 206 352" fill="none" stroke="#ffffff" stroke-opacity="0.35" stroke-width="10" stroke-linecap="round"/>  <!-- handle -->  <path d="M352 190 C385 195 415 225 415 260 C415 305 378 330 345 326" fill="none" stroke="#9b7a55" stroke-width="14" stroke-linecap="round"/>  <path d="M362 205 C384 210 400 228 400 255 C400 290 376 309 355 306" fill="none" stroke="#7b5a3d" stroke-width="6" stroke-linecap="round" opacity="0.9"/>  <!-- steam -->  <path d="M210 70 C185 95 212 110 190 140" fill="none" stroke="#ffffff" stroke-opacity="0.9" stroke-width="10" stroke-linecap="round"/>  <path d="M260 55 C232 85 264 100 238 132" fill="none" stroke="#ffffff" stroke-opacity="0.9" stroke-width="10" stroke-linecap="round"/>  <path d="M310 75 C286 96 312 112 292 145" fill="none" stroke="#ffffff" stroke-opacity="0.9" stroke-width="10" stroke-linecap="round"/>  <!-- small steam wisps -->  <path d="M185 120 C175 135 188 145 178 160" fill="none" stroke="#ffffff" stroke-opacity="0.55" stroke-width="7" stroke-linecap="round"/>  <path d="M340 125 C330 140 344 150 334 165" fill="none" stroke="#ffffff" stroke-opacity="0.55" stroke-width="7" stroke-linecap="round"/> </svg>