<svg xmlns="http://www.w3.org/2000/svg" width="512" height="512" viewBox="0 0 512 512" role="img" aria-label="fire">
  <rect width="512" height="512" fill="#0b0b12"/>

  <!-- soft glow -->
  <ellipse cx="256" cy="320" rx="120" ry="90" fill="#ff7a18" opacity="0.18"/>
  <ellipse cx="256" cy="330" rx="85" ry="65" fill="#ffd166" opacity="0.18"/>

  <!-- flame (outer) -->
  <path d="M256 118
           C234 155, 195 192, 195 240
           C195 278, 214 295, 214 318
           C214 360, 242 392, 256 402
           C270 392, 298 360, 298 318
           C298 295, 317 278, 317 240
           C317 192, 278 155, 256 118 Z"
        fill="#ff5a1f"/>

  <!-- flame inner (hot core) -->
  <path d="M256 170
           C243 196, 222 218, 222 250
           C222 277, 237 291, 237 310
           C237 345, 252 366, 256 372
           C260 366, 275 345, 275 310
           C275 291, 290 277, 290 250
           C290 218, 269 196, 256 170 Z"
        fill="#ffb703"/>

  <!-- inner highlight lobes -->
  <path d="M256 200
           C248 220, 236 237, 236 255
           C236 274, 245 285, 245 302
           C245 326, 252 342, 256 348
           C260 342, 267 326, 267 302
           C267 285, 276 274, 276 255
           C276 237, 264 220, 256 200 Z"
        fill="#ffe08a" opacity="0.95"/>

  <!-- wisps / sparks -->
  <path d="M190 275 C170 260, 165 235, 178 215 C192 194, 205 190, 220 178" fill="none" stroke="#ffd166" stroke-width="8" stroke-linecap="round" opacity="0.55"/>
  <path d="M322 275 C342 260, 347 235, 334 215 C320 194, 307 190, 292 178" fill="none" stroke="#ffd166" stroke-width="8" stroke-linecap="round" opacity="0.55"/>

  <!-- base ember -->
  <path d="M158 390
           C190 420, 225 430, 256 430
           C287 430, 322 420, 354 390
           C350 420, 320 465, 256 465
           C192 465, 162 420, 158 390 Z"
        fill="#9a3412" opacity="0.65"/>
  <path d="M178 395
           C205 418, 230 425, 256 425
           C282 425, 307 418, 334 395
           C329 415, 302 448, 256 448
           C210 448, 183 415, 178 395 Z"
        fill="#ff6a00" opacity="0.75"/>
</svg>