<svg xmlns="http://www.w3.org/2000/svg" width="512" height="512" viewBox="0 0 512 512"><rect width="512" height="512" fill="#ffffff"/><ellipse cx="256" cy="430" rx="165" ry="28" fill="#d9d9d9"/><g transform="translate(0,0)"><path d="M170 210c0-55 44-100 98-100s98 45 98 100c0 20-6 37-15 52 18 17 28 38 28 64 0 63-54 112-111 112s-111-49-111-112c0-26 10-47 28-64-9-15-14-32-14-52z" fill="#3a3a3a"/><path d="M205 226c8-33 28-56 51-56s43 23 51 56c-6 7-25 18-51 18s-45-11-51-18z" fill="#2f2f2f" opacity="0.95"/><ellipse cx="229" cy="232" rx="14" ry="10" fill="#1f1f1f"/><ellipse cx="283" cy="232" rx="14" ry="10" fill="#1f1f1f"/><path d="M256 235c-18 6-28 19-28 33 0 18 16 33 28 33s28-15 28-33c0-14-10-27-28-33z" fill="#2a2a2a"/><path d="M235 258c7 10 14 15 21 15s14-5 21-15c-5-6-12-11-21-11s-16 5-21 11z" fill="#1c1c1c" opacity="0.9"/><path d="M176 286c-28-15-54-5-64 24-10 30 8 56 38 62 21 4 41-6 55-22 4-5 8-11 11-18-17-5-27-16-40-46z" fill="#343434"/><path d="M336 286c28-15 54-5 64 24 10 30-8 56-38 62-21 4-41-6-55-22-4-5-8-11-11-18 17-5 27-16 40-46z" fill="#343434"/><path d="M140 330c-25 22-34 58-16 85 16 25 48 24 72 11-15-10-25-25-25-46 0-20 10-35 20-45-11-11-33-13-51-5z" fill="#2f2f2f" opacity="0.9"/><path d="M372 330c25 22 34 58 16 85-16 25-48 24-72 11 15-10 25-25 25-46 0-20-10-35-20-45 11-11 33-13 51-5z" fill="#2f2f2f" opacity="0.9"/><path d="M198 155c-10 12-16 30-16 48 0 8 1 16 3 22-16 0-30 6-41 15-9-13-14-29-14-47 0-48 40-87 88-87 17 0 33 5 46 14-27 0-50 13-66 36z" fill="#2f2f2f" opacity="0.9"/></g></svg>