<svg xmlns="http://www.w3.org/2000/svg" width="512" height="512" viewBox="0 0 512 512">
  <rect width="512" height="512" fill="#ffffff"/>

  <!-- Guitar body -->
  <path d="M140 270
           C120 240, 120 200, 150 180
           C185 155, 225 170, 248 190
           C270 205, 305 210, 330 200
           C380 175, 425 220, 410 275
           C395 330, 345 360, 295 360
           C250 360, 170 340, 140 270 Z"
        fill="#d08a4a" stroke="#3a2416" stroke-width="6" stroke-linejoin="round"/>

  <!-- Upper curve highlight -->
  <path d="M170 205
           C195 185, 225 185, 255 205
           C210 215, 190 235, 175 260
           C165 235, 160 220, 170 205 Z"
        fill="#e8b276" opacity="0.9"/>

  <!-- Sound hole -->
  <circle cx="292" cy="275" r="36" fill="#2b1a12"/>
  <circle cx="292" cy="275" r="26" fill="#3a2416"/>
  <circle cx="292" cy="275" r="18" fill="#2f1e16"/>
  <circle cx="292" cy="275" r="36" fill="none" stroke="#6b4a2a" stroke-width="3"/>

  <!-- Pickguard -->
  <path d="M332 288
           C352 270, 380 282, 382 308
           C384 332, 355 350, 333 333
           C316 320, 315 301, 332 288 Z"
        fill="#6fb8a5" stroke="#3a2416" stroke-width="4"/>

  <!-- Neck -->
  <path d="M235 205
           L315 160
           L345 210
           L265 255 Z"
        fill="#8b5a2b" stroke="#3a2416" stroke-width="6" stroke-linejoin="round"/>

  <!-- Neck shaft highlight -->
  <path d="M255 198
           L300 172
           L315 203
           L270 229 Z" fill="#a8753a" opacity="0.9"/>

  <!-- Headstock -->
  <path d="M300 166
           L370 130
           L400 178
           L330 214 Z"
        fill="#8b5a2b" stroke="#3a2416" stroke-width="6" stroke-linejoin="round"/>
  <path d="M330 214 L395 182" stroke="#5b3a1e" stroke-width="6" stroke-linecap="round"/>

  <!-- Tuning pegs (no text) -->
  <g stroke="#3a2416" stroke-width="5" stroke-linecap="round">
    <path d="M353 145 C350 157, 353 165, 365 169" fill="none"/>
    <path d="M373 156 C370 168, 373 176, 385 180" fill="none"/>
    <path d="M393 167 C390 179, 393 187, 405 191" fill="none"/>
  </g>

  <!-- Frets area guide -->
  <rect x="268" y="222" width="38" height="90" fill="#6f4a25" opacity="0.25"/>

  <!-- Strings -->
  <g stroke="#2b1a12" stroke-width="3" stroke-linecap="round">
    <path d="M245 230 L355 180" />
    <path d="M252 242 L363 193" />
    <path d="M259 254 L371 205" />
    <path d="M266 266 L379 217" />
    <path d="M273 278 L387 229" />
    <path d="M280 290 L395 241" opacity="0.9"/>
  </g>

  <!-- Bridge (simple) -->
  <rect x="308" y="328" width="58" height="10" rx="5" fill="#3a2416"/>
  <rect x="316" y="322" width="44" height="6" rx="3" fill="#4a2d1a"/>

  <!-- Small body contours -->
  <path d="M160 265 C175 230, 220 225, 255 245" fill="none" stroke="#7a4a22" stroke-width="5" stroke-linecap="round"/>
</svg>