<svg xmlns="http://www.w3.org/2000/svg" width="512" height="512" viewBox="0 0 512 512"><rect x="0" y="0" width="512" height="512" fill="#dff3ff"/><circle cx="410" cy="95" r="45" fill="#ffd66b"/><circle cx="410" cy="95" r="28" fill="#ffefb0"/><path d="M0 210 C120 180, 220 230, 330 210 C420 195, 470 205, 512 215 L512 512 L0 512 Z" fill="#62b96a"/><path d="M0 300 C90 270, 170 315, 260 295 C330 280, 410 305, 512 280 L512 512 L0 512 Z" fill="#4aa85a" opacity="0.9"/><path d="M30 360 C70 330, 120 370, 160 350 C200 330, 250 370, 290 355 C330 340, 380 370, 430 352" fill="none" stroke="#2f7f3e" stroke-width="6" stroke-linecap="round" opacity="0.35"/><path d="M60 405 C105 380, 150 420, 195 395 C240 370, 290 418, 335 398 C380 378, 425 420, 470 398" fill="none" stroke="#2f7f3e" stroke-width="6" stroke-linecap="round" opacity="0.25"/><g stroke="#2b5e2d" stroke-width="4" stroke-linecap="round"><path d="M170 430 C168 360, 172 305, 195 265" fill="none"/><path d="M215 435 C210 360, 218 305, 240 255" fill="none"/><path d="M265 430 C268 355, 260 305, 285 260" fill="none"/><path d="M320 438 C315 370, 325 315, 350 270" fill="none"/></g><g><g fill="#f2c14f"><path d="M186 270 C180 255, 190 245, 202 248 C210 250, 214 262, 206 270 Z"/><path d="M205 255 C198 240, 210 230, 222 235 C232 239, 234 251, 224 257 Z"/><path d="M229 258 C224 244, 236 235, 248 238 C258 241, 260 252, 251 259 Z"/><path d="M243 244 C238 230, 252 220, 264 225 C274 230, 275 241, 265 246 Z"/></g><g fill="#f2c14f"><path d="M215 285 C208 270, 220 260, 232 264 C240 267, 243 278, 235 285 Z"/><path d="M236 270 C228 255, 242 245, 254 250 C263 254, 265 266, 255 271 Z"/><path d="M258 270 C252 255, 266 245, 277 250 C287 254, 288 265, 279 271 Z"/></g><g fill="#f2c14f"><path d="M276 280 C270 265, 282 255, 294 259 C303 262, 306 273, 298 280 Z"/><path d="M296 265 C290 250, 304 240, 316 246 C325 250, 327 261, 317 266 Z"/><path d="M316 260 C310 245, 324 235, 336 241 C345 246, 346 257, 337 262 Z"/></g><g fill="#f2c14f"><path d="M340 295 C334 280, 346 270, 358 275 C366 279, 368 290, 360 296 Z"/><path d="M360 278 C353 263, 368 253, 379 259 C388 263, 389 274, 380 279 Z"/><path d="M382 270 C376 255, 390 246, 401 252 C410 257, 410 268, 402 272 Z"/></g></g><g><path d="M360 475 L430 475 L455 430 Q440 420 415 420 Q392 420 370 430 Z" fill="#b86a3b" stroke="#8a4524" stroke-width="4" stroke-linejoin="round"/><path d="M370 430 C395 415, 425 415, 448 430" fill="none" stroke="#7a3c1e" stroke-width="5" stroke-linecap="round" opacity="0.8"/><path d="M375 448 C398 437, 423 437, 440 448" fill="none" stroke="#7a3c1e" stroke-width="4" stroke-linecap="round" opacity="0.85"/><path d="M395 415 C410 405, 430 405, 445 415" fill="none" stroke="#7a3c1e" stroke-width="10" stroke-linecap="round" opacity="0.25"/><path d="M350 475 C350 456, 390 445, 420 446 C450 447, 475 460, 475 475 Z" fill="#a55a33" opacity="0.55"/></g><g><path d="M315 420 C320 400, 340 385, 365 385 C390 385, 410 400, 415 420 C395 412, 375 412, 315 420 Z" fill="#c97a46" opacity="0.9"/></g><g><path d="M120 445 C145 430, 175 425, 205 428 C170 435, 150 450, 145 465 C130 468, 118 458, 120 445 Z" fill="#d08a55" opacity="0.55"/></g><g fill="#ffffff" opacity="0.15"><path d="M395 437 C410 430, 432 432, 445 441"/></g></svg>