<svg xmlns="http://www.w3.org/2000/svg" width="512" height="512" viewBox="0 0 512 512">
  <rect width="512" height="512" fill="#eaf3ff"/>

  <!-- Ground snow -->
  <path d="M0 410 C80 380 140 430 210 410 C280 390 330 430 512 410 L512 512 L0 512 Z" fill="#dff1ff"/>
  <path d="M0 432 C90 405 150 450 230 430 C310 410 355 450 512 430 L512 512 L0 512 Z" fill="#cfeaff" opacity="0.85"/>

  <!-- Igloo base dome -->
  <path d="M140 395 C160 310 195 245 256 225 C317 245 352 310 372 395 Z" fill="#f7fbff" stroke="#d7e6f2" stroke-width="6"/>
  <!-- Inner shadow bowl -->
  <path d="M170 395 C186 328 215 275 256 262 C297 275 326 328 342 395 Z" fill="#eef6ff" opacity="0.9"/>

  <!-- Entrance (door) -->
  <path d="M225 390 C220 355 230 330 256 318 C282 330 292 355 287 390 Z" fill="#d6e6f4" stroke="#b8d0e5" stroke-width="5"/>
  <path d="M242 390 C240 365 246 348 256 342 C266 348 272 365 270 390 Z" fill="#b6d2ea" opacity="0.55"/>

  <!-- Snow blocks lines -->
  <g fill="none" stroke="#d6e6f2" stroke-width="4" opacity="0.95">
    <path d="M192 390 C205 340 230 290 256 275 C282 290 307 340 320 390"/>
    <path d="M180 350 C205 305 226 285 256 270 C286 285 307 305 332 350" opacity="0.85"/>
    <path d="M190 320 C210 290 230 270 256 258 C282 270 302 290 322 320" opacity="0.8"/>
  </g>

  <!-- Curved block separators -->
  <g fill="none" stroke="#cfe2f0" stroke-width="3" opacity="0.9">
    <path d="M158 390 C168 345 190 310 220 282"/>
    <path d="M354 390 C344 345 322 310 292 282"/>
    <path d="M145 410 C165 360 195 330 225 300"/>
    <path d="M367 410 C347 360 317 330 287 300"/>
  </g>

  <!-- Small snow cap highlight -->
  <path d="M160 300 C195 250 230 235 256 228 C282 235 317 250 352 300 C330 285 300 270 256 270 C212 270 182 285 160 300 Z" fill="#ffffff" opacity="0.65"/>
</svg>