<svg xmlns="http://www.w3.org/2000/svg" width="512" height="512" viewBox="0 0 512 512"> <defs> <radialGradient id="marsGlow" cx="35%" cy="30%" r="70%"> <stop offset="0%" stop-color="#ffb07a"/> <stop offset="35%" stop-color="#d46a3d"/> <stop offset="70%" stop-color="#9f3e26"/> <stop offset="100%" stop-color="#6f261a"/> </radialGradient> <radialGradient id="craterShade" cx="30%" cy="35%" r="70%"> <stop offset="0%" stop-color="#2b0f0a" stop-opacity="0.35"/> <stop offset="60%" stop-color="#000" stop-opacity="0.18"/> <stop offset="100%" stop-color="#000" stop-opacity="0.05"/> </radialGradient> <filter id="softShadow" x="-30%" y="-30%" width="160%" height="160%"> <feDropShadow dx="0" dy="8" stdDeviation="10" flood-color="#000" flood-opacity="0.35"/> </filter> </defs> <!-- Space background --> <rect width="512" height="512" fill="#070914"/> <g opacity="0.85" fill="#cfe3ff"> <circle cx="72" cy="92" r="1.4"/><circle cx="118" cy="66" r="1.1"/><circle cx="165" cy="120" r="1.3"/> <circle cx="418" cy="88" r="1.2"/><circle cx="460" cy="140" r="1.4"/> <circle cx="390" cy="160" r="1.1"/> <circle cx="310" cy="60" r="1.3"/> <circle cx="62" cy="190" r="1.1"/><circle cx="110" cy="240" r="1.2"/> <circle cx="445" cy="240" r="1.2"/><circle cx="410" cy="280" r="1.1"/> <circle cx="270" cy="120" r="1.0"/> <circle cx="245" cy="210" r="1.1"/> </g> <!-- Orbit ring --> <ellipse cx="260" cy="270" rx="210" ry="110" fill="none" stroke="#8bd3ff" stroke-opacity="0.35" stroke-width="2" stroke-dasharray="8 10"/> <ellipse cx="260" cy="270" rx="210" ry="110" fill="none" stroke="#ffffff" stroke-opacity="0.08" stroke-width="6"/> <!-- Planet (Mars) --> <g filter="url(#softShadow)"> <circle cx="270" cy="270" r="120" fill="url(#marsGlow)"/> <circle cx="270" cy="270" r="120" fill="none" stroke="#ffcfad" stroke-opacity="0.25" stroke-width="3"/> <!-- Craters --> <g opacity="0.9"> <ellipse cx="220" cy="240" rx="18" ry="12" fill="url(#craterShade)"/> <ellipse cx="245" cy="310" rx="26" ry="18" fill="url(#craterShade)"/> <ellipse cx="300" cy="235" rx="14" ry="10" fill="url(#craterShade)"/> <ellipse cx="325" cy="285" rx="22" ry="15" fill="url(#craterShade)"/> <ellipse cx="275" cy="360" rx="18" ry="12" fill="url(#craterShade)"/> <ellipse cx="200" cy="290" rx="12" ry="9" fill="url(#craterShade)"/> </g> <!-- Subtle surface banding --> <g opacity="0.25" stroke="#ff8b5f" stroke-width="6" stroke-linecap="round"> <path d="M190 265 C220 210, 280 195, 330 220" fill="none"/> <path d="M205 300 C245 260, 290 255, 340 280" fill="none"/> <path d="M205 240 C235 215, 290 215, 330 235" fill="none"/> </g> <!-- Rim highlight --> <path d="M175 305 C205 365, 280 395, 350 335" fill="none" stroke="#ffd0b5" stroke-opacity="0.22" stroke-width="10" stroke-linecap="round"/> </g> <!-- Optional small rover silhouette (no text) --> <g transform="translate(0,0)" opacity="0.95"> <g transform="translate(120 380) scale(1.0)"> <ellipse cx="150" cy="90" rx="70" ry="18" fill="#000" opacity="0.25"/> <g fill="#c9d3e5" opacity="0.15"> <circle cx="150" cy="90" r="4"/><circle cx="170" cy="88" r="3"/> </g> <g> <ellipse cx="150" cy="90" rx="38" ry="14" fill="#c35b3a" opacity="0.35"/> <g transform="translate(120 55)"> <circle cx="45" cy="50" r="14" fill="#b7c5d8" opacity="0.9"/> <rect x="40" y="62" width="10" height="16" rx="3" fill="#b7c5d8" opacity="0.9"/> <rect x="25" y="40" width="40" height="18" rx="6" fill="#d0d9ea" opacity="0.9"/> <rect x="35" y="22" width="20" height="20" rx="6" fill="#d0d9ea" opacity="0.9"/> <rect x="18" y="55" width="44" height="10" rx="5" fill="#a9b7cc" opacity="0.9"/> <g fill="#4f2020" opacity="0.55"> <circle cx="18" cy="68" r="6"/> <circle cx="72" cy="68" r="6"/> <circle cx="100" cy="68" r="6"/> </g> <g fill="#9bd1ff" opacity="0.35"> <circle cx="42" cy="47" r="6"/> </g> </g> </g> </g> </g> </svg>