<svg xmlns="http://www.w3.org/2000/svg" width="512" height="512" viewBox="0 0 512 512"><rect width="512" height="512" fill="#0b4f7a"/><path d="M0 250 C60 230, 120 270, 180 250 C240 230, 300 270, 360 250 C420 230, 480 270, 512 260 L512 512 L0 512 Z" fill="#0a3f63" opacity="0.9"/><path d="M0 290 C70 260, 140 330, 210 300 C270 275, 330 340, 390 300 C450 260, 490 315, 512 310 L512 512 L0 512 Z" fill="#0a3557" opacity="0.95"/><path d="M0 220 C65 195, 135 245, 200 220 C265 195, 330 245, 395 220 C460 195, 490 230, 512 225" fill="none" stroke="#58c8ff" stroke-width="8" stroke-linecap="round" opacity="0.85"/><path d="M0 245 C70 220, 140 270, 210 245 C280 220, 350 270, 420 245 C470 228, 495 250, 512 250" fill="none" stroke="#7fe0ff" stroke-width="6" stroke-linecap="round" opacity="0.8"/><path d="M0 320 C75 295, 150 345, 225 320 C300 295, 375 345, 450 320 C485 308, 500 320, 512 325" fill="none" stroke="#9be9ff" stroke-width="6" stroke-linecap="round" opacity="0.75"/><path d="M0 355 C80 330, 160 385, 240 355 C320 325, 400 385, 480 355" fill="none" stroke="#5fd0ff" stroke-width="5" stroke-linecap="round" opacity="0.7"/><path d="M40 170 C90 140, 140 140, 190 170 C240 200, 290 200, 340 170 C390 140, 440 140, 490 170" fill="none" stroke="#c7f2ff" stroke-width="4" stroke-linecap="round" opacity="0.35"/></svg>