<svg xmlns="http://www.w3.org/2000/svg" width="512" height="512" viewBox="0 0 512 512">
  <!-- Perch -->
  <path d="M70 380 C160 340, 250 340, 380 370 C430 382, 460 395, 470 405 C420 420, 350 438, 260 440 C180 442, 120 425, 70 408 Z" fill="#7a4b22" opacity="0.95"/>
  <path d="M120 410 C165 395, 240 382, 310 386 C360 388, 410 402, 455 418" fill="none" stroke="#5e3618" stroke-width="12" stroke-linecap="round"/>
  <path d="M125 410 C170 395, 240 382, 305 386 C355 389, 405 403, 445 415" fill="none" stroke="#8a5a2c" stroke-width="4" stroke-linecap="round"/>

  <!-- Parrot body -->
  <ellipse cx="265" cy="250" rx="115" ry="95" fill="#2fbf6a"/>
  <ellipse cx="200" cy="255" rx="55" ry="65" fill="#33c86f"/>
  <ellipse cx="320" cy="255" rx="55" ry="65" fill="#26a85a"/>

  <!-- Wing -->
  <path d="M205 255 C220 220, 265 200, 305 215 C310 230, 305 255, 290 275 C255 295, 220 295, 205 280 Z" fill="#1f9d55"/>
  <path d="M218 265 C235 242, 265 230, 290 235" fill="none" stroke="#56e38a" stroke-width="10" stroke-linecap="round"/>

  <!-- Tail -->
  <path d="M170 290 C115 330, 90 380, 120 435 C165 455, 200 420, 225 380 C205 360, 190 335, 170 290 Z" fill="#1aa7d6"/>
  <path d="M160 315 C120 350, 115 390, 135 415 C160 405, 185 370, 200 350 Z" fill="#27c5f2" opacity="0.95"/>
  <path d="M190 385 C170 410, 165 435, 180 455 C220 450, 238 420, 250 395 C233 385, 215 380, 190 385 Z" fill="#0f7fa3" opacity="0.95"/>

  <!-- Head -->
  <ellipse cx="350" cy="205" rx="52" ry="48" fill="#2fbf6a"/>
  <ellipse cx="372" cy="188" rx="22" ry="18" fill="#219b51" opacity="0.7"/>

  <!-- Chest accents -->
  <path d="M215 290 C250 315, 285 315, 320 290" fill="none" stroke="#56e38a" stroke-width="10" stroke-linecap="round" opacity="0.9"/>

  <!-- Beak -->
  <path d="M400 195 C430 185, 452 188, 460 205 C445 220, 420 222, 396 212 Z" fill="#ffb300"/>
  <path d="M404 200 C424 194, 441 195, 450 205" fill="none" stroke="#ffe066" stroke-width="6" stroke-linecap="round" opacity="0.9"/>

  <!-- Eye -->
  <circle cx="365" cy="198" r="11" fill="#ffffff"/>
  <circle cx="367" cy="200" r="5.5" fill="#0b1a2b"/>
  <circle cx="369" cy="197" r="2.2" fill="#ffffff" opacity="0.9"/>

  <!-- Feet / perch grip -->
  <path d="M240 405 C240 420, 245 430, 255 437 C265 430, 270 420, 270 405" fill="#c96d3b"/>
  <path d="M250 438 C262 445, 275 442, 287 434 C282 422, 270 413, 255 410" fill="#a85a30" opacity="0.9"/>
  <path d="M282 405 C282 420, 287 430, 297 437 C307 430, 312 420, 312 405" fill="#c96d3b"/>
  <path d="M292 438 C304 445, 317 442, 329 434 C324 422, 312 413, 297 410" fill="#a85a30" opacity="0.9"/>

  <!-- Colorful wing stripe -->
  <path d="M245 238 C260 225, 278 220, 295 222" fill="none" stroke="#ff4db8" stroke-width="10" stroke-linecap="round" opacity="0.85"/>
  <path d="M235 255 C255 242, 275 240, 290 243" fill="none" stroke="#ffd24a" stroke-width="8" stroke-linecap="round" opacity="0.9"/>

  <!-- Decorative feathers (subtle) -->
  <path d="M120 410 C160 425, 200 432, 250 430" fill="none" stroke="#5aa54a" stroke-width="6" stroke-linecap="round" opacity="0.45"/>
</svg>