<svg xmlns="http://www.w3.org/2000/svg" width="512" height="512" viewBox="0 0 512 512">
  <!-- Background -->
  <rect x="0" y="0" width="512" height="512" fill="#ffffff"/>

  <!-- Tail (lightning bolt) behind body -->
  <path d="M330 395 L420 305 L368 305 L402 235 L300 320 L356 320 Z" fill="#FFEB3B" stroke="#F2C100" stroke-width="6" stroke-linejoin="round"/>
  <path d="M330 395 L420 305 L368 305 L402 235" fill="none" stroke="#F2C100" stroke-width="6" stroke-linejoin="round"/>

  <!-- Body -->
  <ellipse cx="256" cy="340" rx="120" ry="145" fill="#FFD93B" stroke="#F2C100" stroke-width="8"/>

  <!-- Belly patch -->
  <ellipse cx="256" cy="360" rx="70" ry="95" fill="#FFF3B0" stroke="#F2C100" stroke-width="6"/>

  <!-- Arms -->
  <path d="M165 330 C130 340, 125 390, 165 405 C195 416, 210 380, 195 355 C185 340, 178 326, 165 330 Z" fill="#FFD93B" stroke="#F2C100" stroke-width="7"/>
  <path d="M347 330 C382 340, 387 390, 347 405 C317 416, 302 380, 317 355 C327 340, 334 326, 347 330 Z" fill="#FFD93B" stroke="#F2C100" stroke-width="7"/>

  <!-- Head -->
  <circle cx="256" cy="195" r="135" fill="#FFD93B" stroke="#F2C100" stroke-width="8"/>

  <!-- Ears -->
  <path d="M155 125 L95 45 L75 155 Z" fill="#FFD93B" stroke="#F2C100" stroke-width="8" stroke-linejoin="round"/>
  <path d="M357 125 L417 45 L437 155 Z" fill="#FFD93B" stroke="#F2C100" stroke-width="8" stroke-linejoin="round"/>
  <path d="M145 120 L105 60 L92 135 Z" fill="#F5D000"/>
  <path d="M367 120 L407 60 L420 135 Z" fill="#F5D000"/>

  <!-- Cheeks -->
  <circle cx="195" cy="245" r="22" fill="#FF4D4D"/>
  <circle cx="317" cy="245" r="22" fill="#FF4D4D"/>

  <!-- Eyes -->
  <circle cx="215" cy="205" r="16" fill="#1A1A1A"/>
  <circle cx="297" cy="205" r="16" fill="#1A1A1A"/>
  <circle cx="210" cy="200" r="5" fill="#ffffff"/>
  <circle cx="292" cy="200" r="5" fill="#ffffff"/>

  <!-- Brows / head markings -->
  <path d="M185 185 C205 165, 225 165, 245 185" fill="none" stroke="#F2C100" stroke-width="8" stroke-linecap="round"/>
  <path d="M267 185 C287 165, 307 165, 327 185" fill="none" stroke="#F2C100" stroke-width="8" stroke-linecap="round"/>

  <!-- Nose & mouth -->
  <path d="M252 225 L260 225 L256 238 Z" fill="#1A1A1A"/>
  <path d="M235 255 C245 270, 267 270, 277 255" fill="none" stroke="#1A1A1A" stroke-width="6" stroke-linecap="round"/>

  <!-- Feet -->
  <path d="M175 470 C175 430, 240 430, 240 470 C240 490, 175 490, 175 470 Z" fill="#FFD93B" stroke="#F2C100" stroke-width="7"/>
  <path d="M272 470 C272 430, 337 430, 337 470 C337 490, 272 490, 272 470 Z" fill="#FFD93B" stroke="#F2C100" stroke-width="7"/>

  <!-- Small highlight on body -->
  <path d="M212 300 C190 335, 195 385, 225 420" fill="none" stroke="#FFF3B0" stroke-width="10" stroke-linecap="round" opacity="0.7"/>
</svg>