<svg xmlns="http://www.w3.org/2000/svg" width="512" height="512" viewBox="0 0 512 512"><rect width="512" height="512" fill="#bfe6ff"/><path d="M70 390 Q256 200 442 390" fill="none" stroke="#ff4d4d" stroke-width="16" stroke-linecap="round"/><path d="M82 390 Q256 214 430 390" fill="none" stroke="#ff9900" stroke-width="16" stroke-linecap="round"/><path d="M96 390 Q256 230 416 390" fill="none" stroke="#ffd400" stroke-width="16" stroke-linecap="round"/><path d="M112 390 Q256 247 400 390" fill="none" stroke="#33cc33" stroke-width="16" stroke-linecap="round"/><path d="M128 390 Q256 265 384 390" fill="none" stroke="#33a1ff" stroke-width="16" stroke-linecap="round"/><path d="M146 390 Q256 284 366 390" fill="none" stroke="#7a5cff" stroke-width="16" stroke-linecap="round"/><path d="M166 390 Q256 306 346 390" fill="none" stroke="#b266ff" stroke-width="16" stroke-linecap="round"/><path d="M0 410 Q110 380 220 405 Q300 420 512 392 L512 512 L0 512 Z" fill="#4caf50" opacity="0.28"/></svg>