<svg xmlns="http://www.w3.org/2000/svg" width="512" height="512" viewBox="0 0 512 512"> <rect x="0" y="0" width="512" height="512" fill="#ffffff"/> <defs> <linearGradient id="bodyGrad" x1="0" y1="0" x2="0" y2="1"> <stop offset="0%" stop-color="#4aa3ff"/> <stop offset="100%" stop-color="#1f6fbf"/> </linearGradient> <linearGradient id="coneGrad" x1="0" y1="0" x2="0" y2="1"> <stop offset="0%" stop-color="#ff6b4a"/> <stop offset="100%" stop-color="#d8432d"/> </linearGradient> <linearGradient id="flameGrad" x1="0" y1="0" x2="0" y2="1"> <stop offset="0%" stop-color="#ffd84a"/> <stop offset="100%" stop-color="#ff5a3d"/> </linearGradient> </defs> <!-- trailing smoke/star hints --> <g opacity="0.12"> <circle cx="95" cy="150" r="3" fill="#000"/> <circle cx="420" cy="120" r="2" fill="#000"/> <circle cx="390" cy="210" r="2" fill="#000"/> <circle cx="130" cy="230" r="2" fill="#000"/> <circle cx="240" cy="90" r="2" fill="#000"/> <circle cx="300" cy="330" r="2" fill="#000"/> </g> <!-- rocket flame --> <g> <path d="M256 405 C 235 380, 230 350, 245 325 C 252 314, 260 314, 268 325 C 283 350, 278 380, 256 405 Z" fill="url(#flameGrad)"/> <path d="M256 420 C 230 395, 220 360, 235 332 C 244 316, 268 316, 277 332 C 292 360, 282 395, 256 420 Z" fill="#ffeb7a" opacity="0.25"/> </g> <!-- rocket body --> <g> <path d="M205 135 C 210 120, 230 108, 256 108 C 282 108, 302 120, 307 135 L 332 215 C 340 240, 340 265, 332 290 L 307 365 C 302 380, 282 392, 256 392 C 230 392, 210 380, 205 365 L 180 290 C 172 265, 172 240, 180 215 Z" fill="url(#bodyGrad)" stroke="#0b3d6e" stroke-width="4"/> <!-- top cone --> <path d="M256 78 L 305 125 C 295 145, 276 158, 256 158 C 236 158, 217 145, 207 125 Z" fill="url(#coneGrad)" stroke="#5a1a12" stroke-width="4"/> <!-- window --> <g> <circle cx="256" cy="260" r="28" fill="#0b1b2e"/> <circle cx="256" cy="260" r="20" fill="#7fe3ff" opacity="0.9"/> <circle cx="246" cy="252" r="7" fill="#e9faff" opacity="0.9"/> </g> <!-- fins --> <g> <path d="M180 275 C 140 280, 125 310, 130 345 C 140 352, 170 345, 195 330 Z" fill="#2b7dff" stroke="#0b3d6e" stroke-width="4"/> <path d="M332 275 C 372 280, 387 310, 382 345 C 372 352, 342 345, 317 330 Z" fill="#2b7dff" stroke="#0b3d6e" stroke-width="4"/> <path d="M195 330 C 165 340, 150 360, 150 380 C 185 372, 205 355, 215 340 Z" fill="#1f6fbf" opacity="0.9"/> <path d="M317 330 C 347 340, 362 360, 362 380 C 327 372, 307 355, 297 340 Z" fill="#1f6fbf" opacity="0.9"/> </g> <!-- nose details ring --> <path d="M214 150 C 228 168, 240 175, 256 175 C 272 175, 284 168, 298 150" fill="none" stroke="#0b3d6e" stroke-width="6" stroke-linecap="round" opacity="0.6"/> </g> <!-- side thrusters accents --> <g opacity="0.9"> <path d="M176 305 C 158 315, 150 330, 152 348" fill="none" stroke="#8fd3ff" stroke-width="6" stroke-linecap="round"/> <path d="M336 305 C 354 315, 362 330, 360 348" fill="none" stroke="#8fd3ff" stroke-width="6" stroke-linecap="round"/> </g> </svg>