<svg xmlns="http://www.w3.org/2000/svg" width="512" height="512" viewBox="0 0 512 512"><defs><linearGradient id="trunk" x1="0" y1="0" x2="0" y2="1"><stop offset="0" stop-color="#8b5a2b"/><stop offset="1" stop-color="#5b3418"/></linearGradient><linearGradient id="leaf" x1="0" y1="0" x2="0" y2="1"><stop offset="0" stop-color="#2f8f5b"/><stop offset="1" stop-color="#145a35"/></linearGradient></defs><rect x="0" y="0" width="512" height="512" fill="#e9f6ff"/><!-- ground --><path d="M0 390 C80 360 160 430 256 410 C340 392 430 450 512 420 L512 512 L0 512 Z" fill="#b7e3c2"/><!-- trunk shadow --><path d="M234 380 C246 340 246 300 238 270 C234 255 236 235 246 225 C260 210 278 220 284 238 C290 257 288 278 281 300 C269 335 270 355 274 380 Z" fill="#4a2a14" opacity="0.35"/><!-- trunk --><path d="M238 400 C246 350 245 312 236 276 C232 260 234 239 246 228 C260 214 282 222 289 242 C295 260 293 280 284 305 C272 338 273 360 276 400 C276 410 260 416 256 416 C249 416 237 411 238 400 Z" fill="url(#trunk)" stroke="#3b200f" stroke-width="3"/><path d="M244 260 C250 270 265 286 281 298" stroke="#3b200f" stroke-width="3" opacity="0.35"/><path d="M246 286 C252 296 262 312 271 330" stroke="#3b200f" stroke-width="3" opacity="0.25"/><path d="M260 245 C265 257 270 268 276 282" stroke="#3b200f" stroke-width="3" opacity="0.25"/><!-- canopy base --><g fill="url(#leaf)" stroke="#0f3b22" stroke-width="3"><polygon points="256,95 320,170 192,170"/><polygon points="256,125 350,220 162,220"/><polygon points="256,160 380,270 132,270"/><polygon points="256,205 410,320 102,320"/></g><!-- layered foliage --><g fill="none" stroke="#0f3b22" stroke-width="4" opacity="0.18"><path d="M256 95 L320 170 L192 170 Z"/><path d="M256 125 L350 220 L162 220 Z"/><path d="M256 160 L380 270 L132 270 Z"/><path d="M256 205 L410 320 L102 320 Z"/></g><!-- inner foliage texture --><g opacity="0.85"><polygon points="256,120 325,190 187,190" fill="#2a7f53" opacity="0.65"/><polygon points="256,165 355,255 157,255" fill="#1f6f45" opacity="0.55"/><polygon points="256,220 390,320 122,320" fill="#155c3a" opacity="0.55"/></g><!-- cones (sequoia has small cones) --><g><path d="M228 245 C244 232 268 232 284 245 C280 265 266 274 256 276 C246 274 232 265 228 245 Z" fill="#6a3b1f" stroke="#3a1f0f" stroke-width="2"/><path d="M218 260 C236 246 250 252 256 258 C262 252 276 246 294 260 C290 281 272 291 256 292 C240 291 222 281 218 260 Z" fill="#5b2f16" opacity="0.9" stroke="#3a1f0f" stroke-width="2"/><path d="M232 222 C244 212 260 212 272 222 C268 236 260 242 252 244 C244 242 236 236 232 222 Z" fill="#7a4522" stroke="#3a1f0f" stroke-width="2" opacity="0.95"/></g><!-- ground detail --><path d="M120 420 C160 405 210 435 256 425 C308 414 358 448 404 430" fill="none" stroke="#2b7a43" stroke-width="10" opacity="0.25"/><circle cx="120" cy="430" r="4" fill="#1f6f42" opacity="0.6"/><circle cx="400" cy="430" r="4" fill="#1f6f42" opacity="0.6"/></svg>