<svg xmlns="http://www.w3.org/2000/svg" width="512" height="512" viewBox="0 0 512 512"><defs><linearGradient id="g1" x1="0" y1="0" x2="1" y2="1"><stop offset="0" stop-color="#3b82f6"/><stop offset="1" stop-color="#22c55e"/></linearGradient><linearGradient id="g2" x1="0" y1="0" x2="0" y2="1"><stop offset="0" stop-color="#0ea5e9" stop-opacity="0.9"/><stop offset="1" stop-color="#1d4ed8" stop-opacity="0.9"/></linearGradient></defs><rect width="512" height="512" fill="#f6f7fb"/><path d="M150 155c2-35 30-63 65-63 29 0 54 18 62 44 5-3 12-5 19-5 22 0 40 18 40 40 0 4-1 8-2 12h-28c2-3 3-7 3-11 0-12-10-22-22-22-6 0-12 2-16 6l-11 10-4-14c-6-19-23-32-44-32-26 0-46 21-46 47 0 6 1 11 3 16H150z" fill="#93c5fd" opacity="0.9"/><path d="M350 130c10-15 26-25 44-25 28 0 50 23 50 51 0 3 0 6-1 9 15 7 26 22 26 40 0 25-20 45-45 45H333c-23 0-42-19-42-42 0-20 14-37 33-41z" fill="#60a5fa" opacity="0.85"/><rect x="120" y="175" width="272" height="214" rx="18" fill="#0f172a"/><rect x="132" y="186" width="248" height="192" rx="14" fill="#111c36"/><g opacity="0.95"><rect x="150" y="214" width="212" height="52" rx="12" fill="url(#g2)"/><rect x="170" y="244" width="172" height="30" rx="10" fill="#0b1226" opacity="0.55"/></g><g opacity="0.95"><rect x="150" y="274" width="212" height="52" rx="12" fill="url(#g1)"/><rect x="178" y="304" width="158" height="30" rx="10" fill="#0b1226" opacity="0.55"/></g><g><path d="M160 340h192" stroke="#2dd4bf" stroke-width="3" stroke-linecap="round" opacity="0.7"/></g><g opacity="0.9"><circle cx="190" cy="318" r="6" fill="#22c55e"/><circle cx="235" cy="306" r="6" fill="#3b82f6"/><circle cx="275" cy="318" r="6" fill="#38bdf8"/><circle cx="320" cy="306" r="6" fill="#22c55e"/><path d="M190 318 L235 306 L275 318 L320 306" stroke="#93c5fd" stroke-width="2.5" fill="none" stroke-linecap="round" opacity="0.9"/><path d="M212 312 L260 312" stroke="#2dd4bf" stroke-width="2" fill="none" stroke-linecap="round" opacity="0.6"/></g><rect x="215" y="390" width="82" height="26" rx="10" fill="#0f172a"/><rect x="165" y="410" width="182" height="10" rx="5" fill="#94a3b8" opacity="0.65"/><g transform="translate(0,0)"><g transform="translate(78,292)"><circle cx="70" cy="70" r="48" fill="#0b1226" opacity="0.9"/><circle cx="70" cy="70" r="34" fill="#111c36"/><g fill="#fbbf24"><path d="M70 18c4 0 7 3 7 7v8h-14v-8c0-4 3-7 7-7z" opacity="0.9"/><path d="M70 114c4 0 7 3 7 7v8h-14v-8c0-4 3-7 7-7z" opacity="0.9"/><path d="M18 70c0-4 3-7 7-7h8v14h-8c-4 0-7-3-7-7z" opacity="0.9" transform="rotate(-90 18 70)"/><path d="M122 70c0-4-3-7-7-7h-8v14h8c4 0 7-3 7-7z" opacity="0.9" transform="rotate(90 122 70)"/></g><g fill="#eab308"><circle cx="70" cy="70" r="6"/><path d="M70 34a36 36 0 0 1 0 72a36 36 0 0 1 0-72z" fill="none" stroke="#fbbf24" stroke-width="4" opacity="0.75"/></g></g><g transform="translate(320,278)"><circle cx="70" cy="70" r="48" fill="#0b1226" opacity="0.9"/><circle cx="70" cy="70" r="34" fill="#111c36"/><g fill="#fbbf24"><path d="M70 18c4 0 7 3 7 7v8h-14v-8c0-4 3-7 7-7z" opacity="0.9"/><path d="M70 114c4 0 7 3 7 7v8h-14v-8c0-4 3-7 7-7z" opacity="0.9"/><path d="M18 70c0-4 3-7 7-7h8v14h-8c-4 0-7-3-7-7z" opacity="0.9" transform="rotate(-90 18 70)"/><path d="M122 70c0-4-3-7-7-7h-8v14h8c4 0 7-3 7-7z" opacity="0.9" transform="rotate(90 122 70)"/></g><g fill="#eab308"><circle cx="70" cy="70" r="6"/><path d="M70 34a36 36 0 0 1 0 72a36 36 0 0 1 0-72z" fill="none" stroke="#fbbf24" stroke-width="4" opacity="0.75"/></g></g></g><g opacity="0.75"><path d="M185 185c0-14 11-25 25-25h92c14 0 25 11 25 25v0" fill="none" stroke="#93c5fd" stroke-width="3" stroke-linecap="round"/><path d="M170 200h172" stroke="#22c55e" stroke-width="2" opacity="0.35"/></g></svg>