<svg xmlns="http://www.w3.org/2000/svg" width="512" height="512" viewBox="0 0 512 512">
  <defs>
    <radialGradient id="bulb" cx="50%" cy="35%" r="70%">
      <stop offset="0%" stop-color="#fff2a8"/>
      <stop offset="55%" stop-color="#ffd34d"/>
      <stop offset="100%" stop-color="#ffb300"/>
    </radialGradient>
  </defs>

  <!-- rays -->
  <g fill="none" stroke="#ffcc66" stroke-width="10" stroke-linecap="round" opacity="0.9">
    <path d="M256 62 L256 120"/>
    <path d="M256 392 L256 450"/>
    <path d="M62 256 L120 256"/>
    <path d="M392 256 L450 256"/>
    <path d="M103 103 L144 144"/>
    <path d="M368 368 L409 409"/>
    <path d="M103 409 L144 368"/>
    <path d="M368 144 L409 103"/>
  </g>

  <!-- bulb glow halo -->
  <circle cx="256" cy="210" r="125" fill="rgba(255,204,102,0.25)"/>

  <!-- bulb -->
  <g>
    <path d="M256 95
             C210 95 175 132 175 178
             C175 211 193 235 208 251
             C218 261 221 269 221 282
             L221 298
             C221 308 229 316 239 316
             L273 316
             C283 316 291 308 291 298
             L291 282
             C291 269 294 261 304 251
             C319 235 337 211 337 178
             C337 132 302 95 256 95 Z" fill="url(#bulb)" stroke="#c97a00" stroke-width="6"/>

    <!-- bulb base/foot -->
    <rect x="230" y="316" width="52" height="38" rx="10" fill="#d19a3a" stroke="#8a5a00" stroke-width="5"/>
    <path d="M208 355 C214 382 234 400 256 400 C278 400 298 382 304 355" fill="#b17b24" stroke="#7a4c00" stroke-width="5"/>
  </g>

  <!-- brain silhouette inside bulb -->
  <path d="M256 135
           C242 135 229 142 222 154
           C210 152 199 162 199 176
           C199 187 204 195 213 199
           C206 205 203 214 205 223
           C208 236 221 244 234 242
           C241 251 252 256 264 254
           C278 261 295 256 302 243
           C314 244 325 236 327 223
           C329 214 326 205 319 199
           C328 195 334 187 334 176
           C334 162 323 152 311 154
           C304 142 291 135 277 135
           C270 130 264 130 256 135 Z"
        fill="#ffe9a8" stroke="#b97a00" stroke-width="5"/>

  <!-- brain folds overlay -->
  <path d="M235 160 C224 170 223 183 231 193
           C222 201 220 215 230 224
           M277 160 C288 170 289 183 281 193
           C290 201 292 215 282 224
           M256 158 C248 165 247 176 252 184
           C246 193 248 206 257 212" 
        fill="none" stroke="#d9a300" stroke-width="4" stroke-linecap="round"/>

  <!-- small highlight -->
  <path d="M215 180 C217 153 241 139 257 141" fill="none" stroke="rgba(255,255,255,0.7)" stroke-width="8" stroke-linecap="round"/>
</svg>