<svg xmlns="http://www.w3.org/2000/svg" width="512" height="512" viewBox="0 0 512 512" role="img" aria-hidden="true"><defs><radialGradient id="g" cx="50%" cy="45%" r="60%"><stop offset="0%" stop-color="#f7f7f9"/><stop offset="60%" stop-color="#d9dde6"/><stop offset="100%" stop-color="#b7bcc7"/></radialGradient></defs><rect width="512" height="512" fill="#ffffff"/><circle cx="256" cy="256" r="190" fill="url(#g)" stroke="#4a4f5a" stroke-width="10"/><circle cx="256" cy="256" r="155" fill="none" stroke="#6b717c" stroke-width="6"/><g stroke="#4a4f5a" stroke-width="6" stroke-linecap="round" opacity="0.95"><line x1="256" y1="78" x2="256" y2="105"/><line x1="256" y1="407" x2="256" y2="434"/><line x1="78" y1="256" x2="105" y2="256"/><line x1="407" y1="256" x2="434" y2="256"/><line x1="139" y1="139" x2="158" y2="158"/><line x1="354" y1="354" x2="373" y2="373"/><line x1="139" y1="373" x2="158" y2="354"/><line x1="354" y1="158" x2="373" y2="139"/></g><g stroke="#2f333a" stroke-width="10" stroke-linecap="round"><line x1="256" y1="256" x2="256" y2="140"/><line x1="256" y1="256" x2="360" y2="304"/></g><circle cx="256" cy="256" r="16" fill="#2f333a"/><circle cx="256" cy="256" r="32" fill="none" stroke="#2f333a" stroke-width="6" opacity="0.25"/><path d="M170 165c18-26 52-44 86-44 40 0 77 23 92 56" fill="none" stroke="#7b8392" stroke-width="8" stroke-linecap="round" opacity="0.25"/></svg>