<svg xmlns="http://www.w3.org/2000/svg" width="512" height="512" viewBox="0 0 512 512"><defs><linearGradient id="sky" x1="0" y1="0" x2="0" y2="1"><stop offset="0" stop-color="#9fe3ff"/><stop offset="1" stop-color="#dff6ff"/></linearGradient><linearGradient id="ground" x1="0" y1="0" x2="0" y2="1"><stop offset="0" stop-color="#3b8a3e"/><stop offset="1" stop-color="#1f5f25"/></linearGradient></defs><rect width="512" height="512" fill="url(#sky)"/><circle cx="410" cy="105" r="42" fill="#ff4b4b" opacity="0.95"/><circle cx="410" cy="105" r="26" fill="#ffeded" opacity="0.35"/><path d="M120 480 H392 L352 300 L256 220 L160 300 Z" fill="url(#ground)" opacity="0.9"/><path d="M210 480 L256 220 L302 480 Z" fill="#f6f7fb" stroke="#d6d8e0" stroke-width="3"/><path d="M232 392 L256 300 L280 392 Z" fill="#e7eaf2" opacity="0.9"/><g transform="translate(0,0)"><rect x="65" y="290" width="48" height="130" rx="6" fill="#6f7b88"/><rect x="78" y="320" width="22" height="100" rx="5" fill="#8d98a7" opacity="0.55"/><rect x="120" y="260" width="60" height="160" rx="6" fill="#5f6a77"/><rect x="132" y="290" width="36" height="130" rx="5" fill="#7f8b99" opacity="0.55"/><rect x="195" y="300" width="52" height="120" rx="6" fill="#6a7684"/><rect x="208" y="325" width="26" height="95" rx="5" fill="#8b97a6" opacity="0.55"/><rect x="252" y="270" width="72" height="150" rx="7" fill="#576273"/><rect x="267" y="300" width="42" height="120" rx="5" fill="#7d8896" opacity="0.55"/><rect x="332" y="310" width="48" height="110" rx="6" fill="#6b7784"/><rect x="344" y="338" width="24" height="82" rx="5" fill="#8a95a4" opacity="0.55"/><rect x="390" y="275" width="70" height="145" rx="7" fill="#55606d"/><rect x="405" y="305" width="40" height="115" rx="5" fill="#7c8795" opacity="0.55"/></g><g><rect x="54" y="402" width="404" height="7" rx="3.5" fill="#144a1a" opacity="0.7"/></g><g transform="translate(0,0)"><path d="M150 425 H280" stroke="#d6452f" stroke-width="22" stroke-linecap="round" opacity="0.95"/><path d="M150 425 C168 408 194 398 215 398 C236 398 260 408 280 425" fill="#d6452f" opacity="0.95"/><path d="M175 425 V355" stroke="#d6452f" stroke-width="18" stroke-linecap="round"/><path d="M255 425 V355" stroke="#d6452f" stroke-width="18" stroke-linecap="round"/><path d="M165 355 H265" stroke="#d6452f" stroke-width="18" stroke-linecap="round"/><rect x="186" y="381" width="58" height="10" rx="5" fill="#b83427" opacity="0.9"/></g><g opacity="0.35" fill="#ffffff"><circle cx="112" cy="330" r="4"/><circle cx="160" cy="350" r="3"/><circle cx="220" cy="335" r="3"/><circle cx="310" cy="330" r="4"/><circle cx="375" cy="345" r="3"/></g></svg>