<svg xmlns="http://www.w3.org/2000/svg" width="512" height="512" viewBox="0 0 512 512"><rect width="512" height="512" fill="#ffffff"/><g transform="translate(110,80) rotate(-8 150 200)"><rect x="210" y="70" width="160" height="55" rx="20" fill="#cfe8ff" stroke="#2b5c8a" stroke-width="6"/><rect x="70" y="130" width="290" height="40" rx="18" fill="#ffd56a" stroke="#b06b00" stroke-width="6"/><rect x="85" y="170" width="270" height="230" rx="35" fill="#2e7dff" opacity="0.95" stroke="#0b3f91" stroke-width="6"/><rect x="92" y="120" width="58" height="285" rx="20" fill="#1f6feb" opacity="0.35"/><g><rect x="315" y="70" width="18" height="290" rx="9" fill="#0b3f91" opacity="0.35"/></g><g transform="translate(120,80)"><rect x="245" y="0" width="70" height="25" rx="10" fill="#ffd56a" opacity="0.0"/><rect x="355" y="160" width="75" height="85" rx="18" fill="#5b3a29" opacity="0.0"/></g><g transform="translate(0,0)"><path d="M340 145 C360 155, 400 175, 420 170 C430 168, 440 175, 442 186 C445 205, 425 215, 406 217 C385 219, 365 211, 350 202 Z" fill="#2b5c8a" opacity="0.25"/></g><g><rect x="145" y="120" width="240" height="60" rx="28" fill="#ffd56a" stroke="#b06b00" stroke-width="6" opacity="0.95"/></g><g transform="translate(0,0)"><rect x="150" y="155" width="120" height="15" rx="7.5" fill="#ffffff" opacity="0.12"/></g><g transform="translate(0,0)"><g transform="translate(0,0)"><rect x="140" y="200" width="265" height="150" rx="45" fill="#2e7dff" opacity="0.05"/></g></g><g transform="translate(0,0)"><g><rect x="155" y="190" width="250" height="20" rx="10" fill="#0b3f91" opacity="0.18"/></g></g><g transform="translate(0,0)"><g transform="translate(0,0)"><rect x="170" y="210" width="220" height="180" rx="40" fill="#2e7dff" opacity="0.08"/></g></g><g transform="translate(0,0)"><path d="M375 140 C420 150, 470 175, 475 195 C480 215, 460 235, 430 230 C395 225, 360 200, 350 185 Z" fill="#ffffff" opacity="0.0"/></g><g transform="translate(0,0)"><g><path d="M345 155 C372 165, 415 187, 430 202 C440 212, 439 228, 425 236 C405 247, 375 232, 350 212 C335 200, 330 184, 335 172 C338 165, 342 159, 345 155 Z" fill="#e8f4ff" stroke="#2b5c8a" stroke-width="5" opacity="0.95"/></g><g><rect x="325" y="150" width="70" height="110" rx="25" fill="#ffffff" opacity="0.0"/></g></g><g transform="translate(0,0)"><g><rect x="325" y="150" width="70" height="75" rx="22" fill="#f2f2f2" stroke="#2b5c8a" stroke-width="5"/></g><g><g><rect x="335" y="140" width="10" height="95" rx="5" fill="#ffffff" opacity="0.95"/></g><g><rect x="352" y="135" width="10" height="105" rx="5" fill="#ffffff" opacity="0.95"/></g><g><rect x="369" y="140" width="10" height="95" rx="5" fill="#ffffff" opacity="0.95"/></g><g><rect x="386" y="145" width="10" height="85" rx="5" fill="#ffffff" opacity="0.95"/></g><g><rect x="403" y="150" width="10" height="75" rx="5" fill="#ffffff" opacity="0.95"/></g></g></g><g><g><path d="M345 165 C350 160, 360 160, 365 165" fill="none" stroke="#2b5c8a" stroke-width="4" opacity="0.25"/></g></g><g><g><rect x="330" y="160" width="60" height="25" rx="12" fill="#dff5ff" opacity="0.7"/></g></g><g><g><rect x="160" y="185" width="240" height="35" rx="17.5" fill="#ffd56a" opacity="0.7"/></g></g><g><path d="M145 265 C200 260, 280 265, 405 260" fill="none" stroke="#0b3f91" stroke-width="10" opacity="0.12" stroke-linecap="round"/></g><g><rect x="135" y="310" width="255" height="20" rx="10" fill="#0b3f91" opacity="0.12"/></g><g><path d="M210 120 C215 145, 230 165, 255 175" fill="none" stroke="#b06b00" stroke-width="6" opacity="0.35" stroke-linecap="round"/></g></g></svg>