<svg xmlns="http://www.w3.org/2000/svg" width="512" height="512" viewBox="0 0 512 512"> <rect x="0" y="0" width="512" height="512" fill="#ffffff"/> <g stroke="#111" stroke-width="6" stroke-linejoin="round" fill="none"> <path d="M256 70 L330 96 L330 120 L182 120 L182 96 Z" fill="#d9f0ff"/> <rect x="190" y="120" width="132" height="305" rx="10" fill="#bfe6ff"/> <path d="M202 155 L310 155" stroke="#111" stroke-width="6"/> <path d="M202 205 L310 205" stroke="#111" stroke-width="6" opacity="0.35"/> <path d="M202 255 L310 255" stroke="#111" stroke-width="6" opacity="0.35"/> <path d="M202 305 L310 305" stroke="#111" stroke-width="6" opacity="0.35"/> <rect x="210" y="145" width="16" height="36" rx="4" fill="#8ad1ff" stroke="none"/> <rect x="240" y="145" width="16" height="36" rx="4" fill="#8ad1ff" stroke="none"/> <rect x="270" y="145" width="16" height="36" rx="4" fill="#8ad1ff" stroke="none"/> <rect x="210" y="240" width="16" height="36" rx="4" fill="#8ad1ff" stroke="none"/> <rect x="240" y="240" width="16" height="36" rx="4" fill="#8ad1ff" stroke="none"/> <rect x="270" y="240" width="16" height="36" rx="4" fill="#8ad1ff" stroke="none"/> <rect x="210" y="335" width="16" height="36" rx="4" fill="#8ad1ff" stroke="none"/> <rect x="240" y="335" width="16" height="36" rx="4" fill="#8ad1ff" stroke="none"/> <rect x="270" y="335" width="16" height="36" rx="4" fill="#8ad1ff" stroke="none"/> <path d="M150 420 C180 390, 332 390, 362 420 L150 420 Z" fill="#c0d8ff"/> <path d="M150 420 L362 420"/> <rect x="120" y="418" width="272" height="30" rx="12" fill="#a9c7ff"/> <path d="M250 70 L256 40 L262 70" fill="#ffe6a8" stroke="#111" stroke-width="6" stroke-linejoin="round"/> <path d="M256 40 L256 20" stroke="#111" stroke-width="6" stroke-linecap="round"/> <path d="M220 68 L256 28 L292 68" fill="#ffd34d" stroke="#111" stroke-width="6" stroke-linejoin="round"/> </g> <g fill="#ffffff" opacity="0.25"> <circle cx="70" cy="80" r="6"/> <circle cx="120" cy="50" r="4"/> <circle cx="450" cy="120" r="5"/> <circle cx="410" cy="60" r="3"/> <circle cx="460" cy="220" r="4"/> <circle cx="80" cy="210" r="4"/> </g> </svg>