<svg xmlns="http://www.w3.org/2000/svg" width="512" height="512" viewBox="0 0 512 512">
  <rect width="512" height="512" fill="#f7f8fb"/>

  <!-- Winding path -->
  <path d="M 70 345 C 135 385 155 315 215 315 C 270 315 245 270 290 260 C 340 250 345 200 445 175" fill="none" stroke="#3b82f6" stroke-width="14" stroke-linecap="round" stroke-linejoin="round" opacity="0.95"/>
  <path d="M 70 345 C 135 385 155 315 215 315 C 270 315 245 270 290 260 C 340 250 345 200 445 175" fill="none" stroke="#1d4ed8" stroke-width="4" stroke-linecap="round" stroke-linejoin="round" opacity="0.35"/>

  <!-- Footprints along the path (no text) -->
  <g fill="rgba(120,70,20,0.35)" stroke="rgba(120,70,20,0.65)" stroke-width="3" stroke-linecap="round" stroke-linejoin="round">
    <!-- 1 -->
    <g transform="translate(110 372) rotate(-10)">
      <ellipse cx="0" cy="0" rx="22" ry="10"/>
      <ellipse cx="8" cy="-1" rx="10" ry="6" fill="rgba(120,70,20,0.20)" stroke="none"/>
    </g>
    <!-- 2 -->
    <g transform="translate(175 338) rotate(-20)">
      <ellipse cx="0" cy="0" rx="24" ry="11"/>
      <ellipse cx="10" cy="-1" rx="10" ry="6" fill="rgba(120,70,20,0.20)" stroke="none"/>
    </g>
    <!-- 3 -->
    <g transform="translate(220 316) rotate(0)">
      <ellipse cx="0" cy="0" rx="25" ry="11"/>
      <ellipse cx="11" cy="-1" rx="10" ry="6" fill="rgba(120,70,20,0.20)" stroke="none"/>
    </g>
    <!-- 4 -->
    <g transform="translate(275 287) rotate(15)">
      <ellipse cx="0" cy="0" rx="24" ry="11"/>
      <ellipse cx="10" cy="-1" rx="10" ry="6" fill="rgba(120,70,20,0.20)" stroke="none"/>
    </g>
    <!-- 5 -->
    <g transform="translate(312 262) rotate(25)">
      <ellipse cx="0" cy="0" rx="25" ry="11"/>
      <ellipse cx="11" cy="-1" rx="10" ry="6" fill="rgba(120,70,20,0.20)" stroke="none"/>
    </g>
    <!-- 6 -->
    <g transform="translate(365 225) rotate(35)">
      <ellipse cx="0" cy="0" rx="24" ry="11"/>
      <ellipse cx="10" cy="-1" rx="10" ry="6" fill="rgba(120,70,20,0.20)" stroke="none"/>
    </g>
    <!-- 7 -->
    <g transform="translate(432 178) rotate(40)">
      <ellipse cx="0" cy="0" rx="22" ry="10"/>
      <ellipse cx="9" cy="-1" rx="10" ry="6" fill="rgba(120,70,20,0.20)" stroke="none"/>
    </g>
  </g>

  <!-- A small wandering arrow/compass-like marker (still no text) -->
  <g transform="translate(445 175)">
    <circle cx="0" cy="0" r="22" fill="rgba(59,130,246,0.14)" stroke="rgba(29,78,216,0.35)" stroke-width="3"/>
    <path d="M 0 -18 L 6 0 L 0 18 L -6 0 Z" fill="rgba(29,78,216,0.85)"/>
    <path d="M -4 -2 C -1 -10 1 -10 4 -2" fill="none" stroke="rgba(255,255,255,0.55)" stroke-width="3" stroke-linecap="round"/>
  </g>
</svg>