<svg xmlns="http://www.w3.org/2000/svg" width="512" height="512" viewBox="0 0 512 512" fill="none"><defs><linearGradient id="g" x1="160" y1="120" x2="360" y2="380" gradientUnits="userSpaceOnUse"><stop stop-color="#F2D3A4"/><stop offset="1" stop-color="#D9A977"/></linearGradient><filter id="s" x="-20%" y="-20%" width="140%" height="140%"><feDropShadow dx="0" dy="3" stdDeviation="5" flood-color="#000" flood-opacity="0.18"/></filter></defs><rect width="512" height="512" fill="#FFFFFF"/><!-- Ear left --><path d="M190 150c-32 20-48 54-48 95 0 64 40 120 85 146 18 10 44 10 60-4 10-9 13-22 10-36-4-19-18-38-18-58 0-19 12-35 28-44 14-8 22-21 22-39 0-30-19-55-46-66-27-10-59-8-93 6z" fill="url(#g)" stroke="#B57A3E" stroke-width="6" filter="url(#s)"/><path d="M205 192c-18 12-27 31-27 55 0 36 22 73 52 92 10 6 24 6 33-2 6-5 7-12 5-20-3-12-11-24-11-35 0-12 7-22 16-27 9-5 14-14 14-26 0-19-12-35-29-42-17-6-36-5-52 0z" fill="#F7E3C9" opacity="0.55"/><!-- Sound waves to the right --><g stroke="#7A8CFF" stroke-width="7" stroke-linecap="round" fill="none" opacity="0.95"><path d="M285 240c26-34 62-54 104-58"/><path d="M285 268c20-26 50-42 86-46"/><path d="M285 296c14-18 36-31 62-34"/></g><g stroke="#4E63FF" stroke-width="5" stroke-linecap="round" fill="none" opacity="0.55"><path d="M285 248c26-34 62-54 104-58"/><path d="M285 276c20-26 50-42 86-46"/><path d="M285 304c14-18 36-31 62-34"/></g><!-- Small inner ear shadow --><path d="M220 185c-19 13-28 32-28 58 0 34 19 68 47 85 9 6 21 6 29-1 6-5 7-12 5-20-3-11-11-22-11-33 0-12 7-22 16-27 9-5 14-14 14-26 0-18-11-34-28-41-17-7-33-7-45 6z" fill="#C58B52" opacity="0.35"/><!-- Right ear hint for balance --><path d="M322 170c30 18 48 45 48 82 0 58-36 113-78 136-17 9-40 10-55-3-10-9-13-22-10-35 4-18 17-36 17-55 0-18-11-34-26-43-14-8-22-21-22-38 0-29 19-52 45-63 27-11 62-10 101-1z" fill="url(#g)" stroke="#B57A3E" stroke-width="6" opacity="0.45"/></svg>