<svg xmlns="http://www.w3.org/2000/svg" width="512" height="512" viewBox="0 0 512 512" fill="none"><rect width="512" height="512" fill="#ffffff"/><path d="M40 160 C110 120, 210 120, 280 160 C330 190, 390 190, 472 150" stroke="#2A9D8F" stroke-width="10" stroke-linecap="round"/><path d="M40 200 C120 160, 215 160, 290 200 C345 230, 398 228, 472 198" stroke="#2A9D8F" stroke-width="10" stroke-linecap="round" opacity="0.9"/><path d="M40 240 C130 210, 230 210, 300 245 C360 275, 410 272, 472 246" stroke="#2A9D8F" stroke-width="10" stroke-linecap="round" opacity="0.8"/><path d="M64 130 L40 160 L75 170" stroke="#2A9D8F" stroke-width="10" stroke-linecap="round" stroke-linejoin="round"/><path d="M80 260 L40 240 L78 214" stroke="#2A9D8F" stroke-width="10" stroke-linecap="round" stroke-linejoin="round" opacity="0.85"/><circle cx="110" cy="330" r="9" fill="#F4A261" opacity="0.85"/><circle cx="150" cy="350" r="6" fill="#F4A261" opacity="0.7"/><circle cx="190" cy="370" r="4" fill="#F4A261" opacity="0.55"/><path d="M110 330 C155 315, 195 320, 235 340" stroke="#F4A261" stroke-width="6" stroke-linecap="round" opacity="0.6"/></svg>