<svg xmlns="http://www.w3.org/2000/svg" width="512" height="512" viewBox="0 0 512 512">
  <defs>
    <radialGradient id="holeGrad" cx="50%" cy="50%" r="50%">
      <stop offset="0%" stop-color="#000000" />
      <stop offset="60%" stop-color="#030305" />
      <stop offset="100%" stop-color="#0b0b12" />
    </radialGradient>
    <radialGradient id="diskGlow" cx="50%" cy="50%" r="50%">
      <stop offset="0%" stop-color="rgba(255,240,180,0.95)" />
      <stop offset="40%" stop-color="rgba(255,150,60,0.95)" />
      <stop offset="100%" stop-color="rgba(60,10,10,0.0)" />
    </radialGradient>
    <linearGradient id="diskStrip" x1="0%" y1="0%" x2="100%" y2="0%">
      <stop offset="0%" stop-color="#ffdca3" />
      <stop offset="50%" stop-color="#ff8b2a" />
      <stop offset="100%" stop-color="#5a0f00" />
    </linearGradient>
    <filter id="blurSoft" x="-50%" y="-50%" width="200%" height="200%">
      <feGaussianBlur stdDeviation="6" />
    </filter>
  </defs>

  <!-- deep space background -->
  <rect width="100%" height="100%" fill="#030215" />

  <!-- scattered stars -->
  <g fill="#ffffff" opacity="0.9">
    <circle cx="36" cy="48" r="1.8" />
    <circle cx="480" cy="28" r="1.4" />
    <circle cx="420" cy="84" r="1.2" />
    <circle cx="290" cy="30" r="1.3" />
    <circle cx="130" cy="110" r="1.6" />
    <circle cx="80" cy="190" r="1.1" />
    <circle cx="200" cy="60" r="1.0" />
    <circle cx="360" cy="160" r="1.3" />
    <circle cx="460" cy="220" r="1.6" />
    <circle cx="32" cy="300" r="1.2" />
    <circle cx="140" cy="360" r="1.4" />
    <circle cx="260" cy="420" r="1.6" />
    <circle cx="380" cy="360" r="1.2" />
    <circle cx="500" cy="420" r="1.0" />
    <circle cx="420" cy="300" r="1.3" />
  </g>

  <!-- smeared lensed star arcs (gravitational lensing effect) -->
  <g stroke="#ffffff" stroke-linecap="round" fill="none" opacity="0.18">
    <path d="M76,256 C140,112 372,112 436,256" stroke-width="6" stroke-linejoin="round" />
    <path d="M92,256 C152,140 360,140 420,256" stroke-width="4" />
    <path d="M108,256 C165,170 348,170 404,256" stroke-width="2" />
  </g>

  <!-- accretion disk glow (blurred) -->
  <ellipse cx="256" cy="256" rx="210" ry="90" fill="url(#diskGlow)" filter="url(#blurSoft)" opacity="0.9" />

  <!-- accretion disk main, slightly tilted -->
  <g transform="translate(0,12)">
    <ellipse cx="256" cy="256" rx="200" ry="80" fill="url(#diskStrip)" opacity="0.95" />
    <!-- inner brighter ring -->
    <ellipse cx="256" cy="256" rx="140" ry="56" fill="url(#diskGlow)" opacity="0.85" />
    <!-- thin luminous edges -->
    <ellipse cx="256" cy="256" rx="202" ry="82" fill="none" stroke="rgba(255,230,160,0.9)" stroke-width="2" />
    <ellipse cx="256" cy="256" rx="138" ry="55" fill="none" stroke="rgba(255,240,180,0.95)" stroke-width="2" />
  </g>

  <!-- event horizon (dark center) -->
  <circle cx="256" cy="256" r="72" fill="url(#holeGrad)" />

  <!-- shadowed inner rim to suggest strong gravity -->
  <ellipse cx="256" cy="256" rx="92" ry="38" fill="rgba(0,0,0,0.75)" />

  <!-- small bright streaks near disk to suggest in-falling matter -->
  <g stroke-linecap="round" stroke-linejoin="round">
    <path d="M330,210 C340,220 350,230 360,240" stroke="rgba(255,220,140,0.9)" stroke-width="4" opacity="0.85" />
    <path d="M180,300 C190,290 200,280 210,270" stroke="rgba(255,180,70,0.9)" stroke-width="3" opacity="0.8" />
    <path d="M300,320 C310,312 320,305 330,298" stroke="rgba(255,160,50,0.85)" stroke-width="2.5" opacity="0.75" />
  </g>

</svg>