<svg xmlns="http://www.w3.org/2000/svg" width="512" height="512" viewBox="0 0 512 512"> <defs> <linearGradient id="bg" x1="0" y1="0" x2="0" y2="1"> <stop offset="0%" stop-color="#f7f9ff"/> <stop offset="100%" stop-color="#e6eefc"/> </linearGradient> <filter id="s" x="-50%" y="-50%" width="200%" height="200%"> <feDropShadow dx="0" dy="6" stdDeviation="12" flood-color="#000" flood-opacity="0.12"/> </filter> </defs> <rect width="512" height="512" fill="url(#bg)"/> <!-- People --> <g id="people"> <!-- left person --> <circle cx="160" cy="180" r="26" fill="#f6a623" /> <rect x="134" y="206" width="52" height="72" rx="12" fill="#f6a623" /> <path d="M122 214 Q154 180 174 214" fill="none" stroke="#f6a623" stroke-width="12" stroke-linecap="round" stroke-linejoin="round"/> <!-- center person --> <circle cx="256" cy="162" r="30" fill="#4aa3ff" /> <rect x="226" y="196" width="60" height="84" rx="14" fill="#4aa3ff" /> <path d="M200 200 Q256 150 312 200" fill="none" stroke="#4aa3ff" stroke-width="14" stroke-linecap="round" stroke-linejoin="round"/> <!-- right person --> <circle cx="352" cy="188" r="26" fill="#7bd389" /> <rect x="326" y="214" width="52" height="72" rx="12" fill="#7bd389" /> <path d="M314 222 Q346 188 366 222" fill="none" stroke="#7bd389" stroke-width="12" stroke-linecap="round" stroke-linejoin="round"/> </g> <!-- Ballot box --> <g filter="url(#s)"> <rect x="116" y="300" width="280" height="140" rx="12" fill="#ffffff" stroke="#2e2e2e" stroke-width="4"/> <rect x="196" y="312" width="120" height="12" rx="6" fill="#2e2e2e"/> <rect x="136" y="432" width="240" height="18" rx="9" fill="#e6e6e6"/> </g> <!-- Ballot dropping in --> <g transform="translate(256 240) rotate(-18)"> <rect x="-70" y="-40" width="140" height="80" rx="6" fill="#ffffff" stroke="#444" stroke-width="3"/> <circle cx="-30" cy="-8" r="8" fill="#2e2e2e"/> <path d="M -42 -6 L -28 8 L -10 -12" fill="none" stroke="#1a73e8" stroke-width="6" stroke-linecap="round" stroke-linejoin="round"/> </g> <!-- subtle podium shadow --> <ellipse cx="256" cy="460" rx="140" ry="22" fill="#000" opacity="0.08"/> </svg>