<svg xmlns="http://www.w3.org/2000/svg" width="512" height="512" viewBox="0 0 512 512">
  <defs>
    <linearGradient id="wingGrad" x1="0" x2="1" y1="0" y2="1">
      <stop offset="0%" stop-color="#CFF7FF" />
      <stop offset="100%" stop-color="#A6E8FF" />
    </linearGradient>
    <linearGradient id="bodyGrad" x1="0" x2="1" y1="0" y2="0">
      <stop offset="0%" stop-color="#2E8B57" />
      <stop offset="100%" stop-color="#1E6B4A" />
    </linearGradient>
    <filter id="softShadow" x="-50%" y="-50%" width="200%" height="200%">
      <feGaussianBlur stdDeviation="6" result="b" />
      <feOffset dx="0" dy="6" result="o" />
      <feBlend in="SourceGraphic" in2="o" />
    </filter>
  </defs>

  <!-- subtle ground shadow -->
  <ellipse cx="256" cy="360" rx="110" ry="18" fill="#000" fill-opacity="0.12" />

  <!-- dragonfly group centered -->
  <g transform="translate(256,240) rotate(-15)">
    <!-- Wings (right side, left side mirrored) -->
    <g stroke="#6FBBD6" stroke-width="2" stroke-linecap="round" stroke-linejoin="round">
      <!-- top right wing -->
      <path d="M12,-12 C140,-150 320,-120 240,-20 C180,-10 80,-2 12,0 Z" fill="url(#wingGrad)" fill-opacity="0.75" />
      <!-- bottom right wing -->
      <path d="M18,8 C150,120 320,100 240,20 C170,10 80,8 18,8 Z" fill="url(#wingGrad)" fill-opacity="0.7" />

      <!-- wing veins right top -->
      <path d="M18,-6 C80,-70 160,-98 220,-36" fill="none" stroke="#6FBBD6" stroke-opacity="0.8" stroke-width="1.5" />
      <path d="M18,-2 C60,-40 120,-70 200,-30" fill="none" stroke="#6FBBD6" stroke-opacity="0.7" stroke-width="1" />
      <path d="M40,-4 C90,-90 210,-110 240,-36" fill="none" stroke="#6FBBD6" stroke-opacity="0.5" stroke-width="0.9" />

      <!-- wing veins right bottom -->
      <path d="M24,10 C80,60 140,80 220,28" fill="none" stroke="#6FBBD6" stroke-opacity="0.8" stroke-width="1.5" />
      <path d="M30,12 C100,90 200,100 240,28" fill="none" stroke="#6FBBD6" stroke-opacity="0.6" stroke-width="1" />

      <!-- mirror left wings -->
      <g transform="scale(-1,1) translate(-12,0)">
        <path d="M12,-12 C140,-150 320,-120 240,-20 C180,-10 80,-2 12,0 Z" fill="url(#wingGrad)" fill-opacity="0.75" />
        <path d="M18,8 C150,120 320,100 240,20 C170,10 80,8 18,8 Z" fill="url(#wingGrad)" fill-opacity="0.7" />
        <path d="M18,-6 C80,-70 160,-98 220,-36" fill="none" stroke="#6FBBD6" stroke-opacity="0.8" stroke-width="1.5" />
        <path d="M18,-2 C60,-40 120,-70 200,-30" fill="none" stroke="#6FBBD6" stroke-opacity="0.7" stroke-width="1" />
        <path d="M40,-4 C90,-90 210,-110 240,-36" fill="none" stroke="#6FBBD6" stroke-opacity="0.5" stroke-width="0.9" />
        <path d="M24,10 C80,60 140,80 220,28" fill="none" stroke="#6FBBD6" stroke-opacity="0.8" stroke-width="1.5" />
        <path d="M30,12 C100,90 200,100 240,28" fill="none" stroke="#6FBBD6" stroke-opacity="0.6" stroke-width="1" />
      </g>
    </g>

    <!-- Body and head -->
    <g filter="url(#softShadow)">
      <!-- thorax -->
      <ellipse cx="0" cy="0" rx="20" ry="16" fill="url(#bodyGrad)" stroke="#123" stroke-opacity="0.12" stroke-width="1" />

      <!-- head -->
      <g transform="translate(-42,0)">
        <circle cx="0" cy="0" r="18" fill="#2F9B6E" stroke="#0f4033" stroke-opacity="0.12" stroke-width="1" />
        <!-- compound eyes as glossy ovals -->
        <ellipse cx="-6" cy="-2" rx="8" ry="10" fill="#0B5B4A" fill-opacity="0.95" />
        <ellipse cx="6" cy="-2" rx="8" ry="10" fill="#0B5B4A" fill-opacity="0.95" />
        <ellipse cx="-4" cy="-4" rx="2" ry="3" fill="#6FEAD1" fill-opacity="0.5" />
        <ellipse cx="8" cy="-4" rx="2" ry="3" fill="#6FEAD1" fill-opacity="0.5" />
        <!-- antennae -->
        <path d="M-8,-14 C-18,-28 -32,-36 -36,-44" stroke="#19433a" stroke-width="2" stroke-linecap="round" fill="none" />
        <path d="M8,-14 C18,-26 32,-34 36,-42" stroke="#19433a" stroke-width="2" stroke-linecap="round" fill="none" />
      </g>

      <!-- abdomen segments -->
      <g stroke="#0f4033" stroke-opacity="0.1">
        <ellipse cx="28" cy="0" rx="18" ry="12" fill="#2AA678" />
        <ellipse cx="62" cy="0" rx="16" ry="10" fill="#29A36B" />
        <ellipse cx="94" cy="0" rx="14" ry="9" fill="#23895F" />
        <ellipse cx="122" cy="0" rx="12" ry="8" fill="#1E754F" />
        <ellipse cx="148" cy="0" rx="10" ry="7" fill="#196645" />
        <ellipse cx="170" cy="0" rx="7" ry="5" fill="#134F39" />
        <!-- tail tip -->
        <path d="M177,0 C187,-3 195,-1 203,0 C195,1 187,3 177,0 Z" fill="#0e3e33" />
        <!-- segment separators -->
        <path d="M44,-8 L44,8" stroke="#0b2f24" stroke-width="1" stroke-opacity="0.12" />
        <path d="M78,-8 L78,8" stroke="#0b2f24" stroke-width="1" stroke-opacity="0.12" />
        <path d="M108,-7 L108,7" stroke="#0b2f24" stroke-width="1" stroke-opacity="0.12" />
        <path d="M136,-6 L136,6" stroke="#0b2f24" stroke-width="1" stroke-opacity="0.12" />
        <path d="M156,-5 L156,5" stroke="#0b2f24" stroke-width="1" stroke-opacity="0.12" />
      </g>
    </g>

    <!-- subtle highlights on wings -->
    <g opacity="0.35" stroke="#FFFFFF" stroke-width="1">
      <path d="M30,-40 C120,-110 230,-100 240,-36" fill="none" stroke-linecap="round" />
      <path d="M34,40 C120,100 230,92 240,28" fill="none" stroke-linecap="round" />
      <g transform="scale(-1,1) translate(-12,0)">
        <path d="M30,-40 C120,-110 230,-100 240,-36" fill="none" stroke-linecap="round" />
        <path d="M34,40 C120,100 230,92 240,28" fill="none" stroke-linecap="round" />
      </g>
    </g>
  </g>
</svg>