<svg xmlns="http://www.w3.org/2000/svg" width="512" height="512" viewBox="0 0 512 512">
  <rect width="100%" height="100%" fill="#f8fbff"/>

  <!-- Plate -->
  <circle cx="256" cy="280" r="160" fill="#fffaf0" stroke="#e0e0e0" stroke-width="12"/>
  <circle cx="256" cy="280" r="120" fill="#ffffff" stroke="#f2f2f2" stroke-width="6"/>

  <!-- Fork (left) -->
  <g transform="translate(150,140) rotate(-35)">
    <rect x="0" y="0" width="18" height="170" rx="6" fill="#b0b7bd"/>
    <rect x="-6" y="-10" width="30" height="36" rx="4" fill="#b0b7bd"/>
    <rect x="0" y="-10" width="4" height="22" fill="#ffffff" opacity="0.25"/>
    <rect x="6" y="-10" width="4" height="22" fill="#ffffff" opacity="0.25"/>
    <rect x="12" y="-10" width="4" height="22" fill="#ffffff" opacity="0.25"/>
  </g>

  <!-- Spoon (right) -->
  <g transform="translate(330,150) rotate(25)">
    <rect x="0" y="60" width="14" height="150" rx="6" fill="#b0b7bd"/>
    <ellipse cx="7" cy="46" rx="28" ry="38" fill="#dfe5e8" stroke="#b0b7bd" stroke-width="4"/>
    <ellipse cx="7" cy="38" rx="14" ry="20" fill="#ffffff" opacity="0.25"/>
  </g>

  <!-- Apple with a bite -->
  <g>
    <circle cx="256" cy="240" r="48" fill="#d93b3b" stroke="#b83030" stroke-width="3"/>
    <!-- bite (overlay matching plate interior) -->
    <circle cx="286" cy="220" r="20" fill="#ffffff"/>
    <!-- subtle shine -->
    <ellipse cx="242" cy="216" rx="12" ry="8" fill="#ff6b6b" opacity="0.35"/>
    <!-- stem -->
    <rect x="250" y="188" width="6" height="18" rx="2" fill="#7b4f2a" transform="rotate(-22 253 197)"/>
    <!-- leaf -->
    <path d="M270 195 C278 184 292 182 294 172 C288 176 282 174 276 180 C270 186 268 194 270 195 Z" fill="#4ea63b"/>
  </g>

  <!-- Soft shadow under plate -->
  <ellipse cx="256" cy="420" rx="140" ry="28" fill="#000000" opacity="0.06"/>
</svg>