<svg xmlns="http://www.w3.org/2000/svg" width="512" height="512" viewBox="0 0 512 512">
  <defs>
    <linearGradient id="bgGrad" x1="0" y1="0" x2="0" y2="1">
      <stop offset="0%" stop-color="#0f2740" />
      <stop offset="100%" stop-color="#071726" />
    </linearGradient>
    <radialGradient id="haloGrad" cx="50%" cy="40%" r="45%">
      <stop offset="0%" stop-color="#fffde7" stop-opacity="1" />
      <stop offset="40%" stop-color="#fff59d" stop-opacity="0.95" />
      <stop offset="75%" stop-color="#ffd166" stop-opacity="0.7" />
      <stop offset="100%" stop-color="#ffd166" stop-opacity="0" />
    </radialGradient>
    <linearGradient id="rayGrad" x1="0" y1="0" x2="1" y2="0" gradientUnits="userSpaceOnUse">
      <stop offset="0%" stop-color="#fff9c4" stop-opacity="1" />
      <stop offset="50%" stop-color="#ffd54f" stop-opacity="0.9" />
      <stop offset="100%" stop-color="#ff8a65" stop-opacity="0" />
    </linearGradient>
    <filter id="glow">
      <feGaussianBlur stdDeviation="8" result="b" />
      <feMerge>
        <feMergeNode in="b" />
        <feMergeNode in="SourceGraphic" />
      </feMerge>
    </filter>
  </defs>

  <!-- Background -->
  <rect width="100%" height="100%" fill="url(#bgGrad)" />

  <!-- Radiant halo and rays centered above the figure -->
  <g transform="translate(256,220)">
    <!-- Rays -->
    <g stroke="url(#rayGrad)" stroke-linecap="round" filter="url(#glow)">
      <!-- many rays by rotation -->
      <line x1="0" y1="40" x2="0" y2="-160" stroke-width="6" opacity="0.9" />
      <line x1="0" y1="40" x2="0" y2="-150" stroke-width="5" opacity="0.8" transform="rotate(15)" />
      <line x1="0" y1="40" x2="0" y2="-150" stroke-width="5" opacity="0.8" transform="rotate(-15)" />
      <line x1="0" y1="40" x2="0" y2="-140" stroke-width="4" opacity="0.75" transform="rotate(30)" />
      <line x1="0" y1="40" x2="0" y2="-140" stroke-width="4" opacity="0.75" transform="rotate(-30)" />
      <line x1="0" y1="40" x2="0" y2="-130" stroke-width="3" opacity="0.6" transform="rotate(45)" />
      <line x1="0" y1="40" x2="0" y2="-130" stroke-width="3" opacity="0.6" transform="rotate(-45)" />
      <line x1="0" y1="40" x2="0" y2="-120" stroke-width="2.5" opacity="0.5" transform="rotate(60)" />
      <line x1="0" y1="40" x2="0" y2="-120" stroke-width="2.5" opacity="0.5" transform="rotate(-60)" />
    </g>

    <!-- Halo glow -->
    <circle cx="0" cy="0" r="68" fill="url(#haloGrad)" filter="url(#glow)" />
  </g>

  <!-- Stylized figure (silhouette) sitting above a lotus -->
  <g transform="translate(0,0)">
    <!-- Head -->
    <circle cx="256" cy="220" r="28" fill="#071f2e" />
    <!-- Torso -->
    <path d="M232 260 C240 240, 272 240, 280 260 L280 310 C268 330, 244 330, 232 310 Z" fill="#071f2e" />
    <!-- Arms folded (suggestive shapes) -->
    <path d="M214 290 C232 300, 280 300, 298 290 C286 320, 238 320, 214 290 Z" fill="#0b2740" opacity="0.95" />
  </g>

  <!-- Lotus petals / seat under the figure -->
  <g transform="translate(256,360)" filter="url(#glow)">
    <ellipse rx="36" ry="18" fill="#ffb4c6" transform="rotate(-20)" opacity="0.95" />
    <ellipse rx="36" ry="18" fill="#f48fb1" transform="rotate(20)" opacity="0.95" />
    <ellipse rx="48" ry="22" fill="#ce93d8" transform="rotate(0)" opacity="0.95" />
    <ellipse rx="28" ry="12" fill="#ffab91" transform="translate(0,6) rotate(0)" opacity="0.9" />
    <!-- central petal pointing down -->
    <path d="M0 8 C-18 -22, 18 -22, 0 8 Z" fill="#ff8a80" opacity="0.95" />
  </g>

  <!-- Small sparkles of insight -->
  <g fill="#fff8e1" opacity="0.85">
    <circle cx="330" cy="140" r="4" />
    <circle cx="200" cy="130" r="3" />
    <circle cx="280" cy="100" r="3.5" />
    <circle cx="230" cy="170" r="2.5" />
    <circle cx="290" cy="180" r="2" />
  </g>

  <!-- gentle ground shadow -->
  <ellipse cx="256" cy="420" rx="120" ry="18" fill="#000" opacity="0.18" />
</svg>