<svg xmlns="http://www.w3.org/2000/svg" width="512" height="512" viewBox="0 0 512 512">
  <defs>
    <radialGradient id="gGlow" cx="50%" cy="65%" r="50%">
      <stop offset="0%" stop-color="#ffd77a" stop-opacity="0.9"/>
      <stop offset="60%" stop-color="#ff8a3a" stop-opacity="0.25"/>
      <stop offset="100%" stop-color="#ff6a2b" stop-opacity="0"/>
    </radialGradient>
    <linearGradient id="gOuter" x1="0" y1="0" x2="0" y2="1">
      <stop offset="0%" stop-color="#ffb84d"/>
      <stop offset="100%" stop-color="#ff6a00"/>
    </linearGradient>
    <linearGradient id="gMid" x1="0" y1="0" x2="0" y2="1">
      <stop offset="0%" stop-color="#ffd36b"/>
      <stop offset="100%" stop-color="#ff3b00"/>
    </linearGradient>
    <linearGradient id="gInner" x1="0" y1="0" x2="0" y2="1">
      <stop offset="0%" stop-color="#ffffff"/>
      <stop offset="100%" stop-color="#ff9a00"/>
    </linearGradient>
    <linearGradient id="gLog" x1="0" y1="0" x2="1" y2="0">
      <stop offset="0%" stop-color="#6b3b18"/>
      <stop offset="100%" stop-color="#3f2513"/>
    </linearGradient>
  </defs>

  <!-- background -->
  <rect width="100%" height="100%" fill="#0b0b0b" />

  <!-- soft glow behind the flame -->
  <ellipse cx="256" cy="320" rx="160" ry="120" fill="url(#gGlow)" opacity="0.9" />

  <!-- logs -->
  <g transform="translate(256,420)">
    <rect x="-140" y="-18" width="280" height="36" rx="18" fill="url(#gLog)" transform="rotate(-20)" />
    <rect x="-140" y="-18" width="280" height="36" rx="18" fill="url(#gLog)" transform="rotate(20)" />
  </g>

  <!-- outer flame -->
  <path d="M256 420 C170 420 120 320 170 250 C200 210 240 160 256 110 C272 160 312 210 342 250 C392 320 332 420 256 420 Z"
        fill="url(#gOuter)"/>

  <!-- middle flame -->
  <path d="M256 380 C200 380 160 320 200 260 C230 220 256 170 256 140 C256 170 292 220 312 260 C352 320 312 380 256 380 Z"
        fill="url(#gMid)"/>

  <!-- inner core -->
  <path d="M256 320 C232 320 200 280 224 240 C236 220 256 180 256 150 C256 180 278 220 288 240 C312 280 288 320 256 320 Z"
        fill="url(#gInner)"/>

  <!-- small sparks -->
  <g fill="#ffd76a" opacity="0.9">
    <circle cx="190" cy="200" r="6" />
    <circle cx="330" cy="190" r="5" />
    <circle cx="260" cy="90" r="7" />
    <circle cx="220" cy="260" r="4" />
    <circle cx="300" cy="250" r="4" />
  </g>
</svg>