<svg xmlns="http://www.w3.org/2000/svg" width="512" height="512" viewBox="0 0 512 512">
  <rect width="100%" height="100%" fill="#e8f6ff"/>
  <!-- cheerful face -->
  <circle cx="256" cy="256" r="160" fill="#ffd54a" stroke="#f0a500" stroke-width="6" />

  <!-- squinting laughing eyes -->
  <path d="M190 220 q30 -36 60 0" fill="none" stroke="#333" stroke-width="12" stroke-linecap="round" stroke-linejoin="round" />
  <path d="M262 220 q30 -36 60 0" fill="none" stroke="#333" stroke-width="12" stroke-linecap="round" stroke-linejoin="round" />

  <!-- tears of joy -->
  <path d="M170 240 c-14 26 -14 44 0 70 c14 -26 14 -44 0 -70" fill="#88d8ff" stroke="#5fb0e6" stroke-width="2" />
  <path d="M342 240 c-14 26 -14 44 0 70 c14 -26 14 -44 0 -70" fill="#88d8ff" stroke="#5fb0e6" stroke-width="2" />

  <!-- nose -->
  <circle cx="256" cy="270" r="18" fill="#ff6b6b" stroke="#e04b4b" stroke-width="3" />

  <!-- mouth (open laughing mouth) -->
  <path d="M170 310 q86 110 172 0 q-86 45 -172 0 Z" fill="#2b2b2b" />
  <!-- teeth / upper grin -->
  <path d="M190 300 q66 -30 132 0 v12 q-66 18 -132 0 Z" fill="#ffffff" />
  <!-- tongue -->
  <path d="M240 320 q16 26 32 0 q-16 20 -32 0 Z" fill="#ff8aa2" />

  <!-- subtle laugh lines at cheeks -->
  <path d="M150 270 q20 10 30 6" fill="none" stroke="#d88f00" stroke-width="4" stroke-linecap="round" />
  <path d="M362 270 q-20 10 -30 6" fill="none" stroke="#d88f00" stroke-width="4" stroke-linecap="round" />
</svg>