<svg xmlns="http://www.w3.org/2000/svg" width="512" height="512" viewBox="0 0 512 512"> <defs> <linearGradient id="glassGrad" x1="0" x2="0" y1="0" y2="1"> <stop offset="0%" stop-color="#ffffff" stop-opacity="0.9"/> <stop offset="50%" stop-color="#eaf6ff" stop-opacity="0.35"/> <stop offset="100%" stop-color="#dff4ff" stop-opacity="0.15"/> </linearGradient> <linearGradient id="waterGrad" x1="0" x2="0" y1="0" y2="1"> <stop offset="0%" stop-color="#7ec8ff" stop-opacity="0.95"/> <stop offset="100%" stop-color="#3aa0ff" stop-opacity="0.9"/> </linearGradient> <radialGradient id="shine" cx="20%" cy="20%" r="60%"> <stop offset="0%" stop-color="#ffffff" stop-opacity="0.9"/> <stop offset="100%" stop-color="#ffffff" stop-opacity="0"/> </radialGradient> </defs> <ellipse cx="256" cy="430" rx="100" ry="18" fill="#000000" opacity="0.12"/> <path d="M146,120 C120,200 120,320 176,400 L336,400 C392,320 392,200 366,120 A110 18 0 0 0 146 120 Z" fill="url(#glassGrad)" stroke="#9fb6c4" stroke-width="4" /> <ellipse cx="256" cy="120" rx="100" ry="14" fill="rgba(255,255,255,0.02)" stroke="#cfeaf8" stroke-width="2"/> <path d="M166,260 A90 12 0 0 0 346,260 L336,392 C310,404 202,404 176,392 Z" fill="url(#waterGrad)" opacity="0.95" /> <ellipse cx="256" cy="256" rx="60" ry="8" fill="rgba(255,255,255,0.5)" /> <path d="M180,140 C170,190 175,270 180,360" stroke="rgba(255,255,255,0.6)" stroke-width="10" stroke-linecap="round" fill="none" opacity="0.9"/> <path d="M332,140 C342,180 340,260 332,340" stroke="rgba(255,255,255,0.25)" stroke-width="6" stroke-linecap="round" fill="none" /> <ellipse cx="256" cy="120" rx="90" ry="12" fill="url(#shine)" opacity="0.7"/> </svg>