<svg xmlns="http://www.w3.org/2000/svg" width="512" height="512" viewBox="0 0 512 512"><rect width="512" height="512" fill="#f7f9fb"/><rect x="32" y="32" width="448" height="448" rx="20" fill="none" stroke="#222" stroke-width="18" stroke-linejoin="round"/><rect x="60" y="60" width="392" height="392" rx="18" fill="none" stroke="#222" stroke-width="18" stroke-linejoin="round"/><rect x="88" y="88" width="328" height="328" rx="16" fill="none" stroke="#222" stroke-width="18" stroke-linejoin="round"/><rect x="116" y="116" width="264" height="264" rx="14" fill="none" stroke="#222" stroke-width="18" stroke-linejoin="round"/><rect x="144" y="144" width="200" height="200" rx="12" fill="none" stroke="#222" stroke-width="18" stroke-linejoin="round"/><rect x="172" y="172" width="136" height="136" rx="10" fill="none" stroke="#222" stroke-width="18" stroke-linejoin="round"/><rect x="440" y="236" width="40" height="40" fill="#f7f9fb"/><rect x="236" y="36" width="40" height="40" fill="#f7f9fb"/><rect x="36" y="236" width="40" height="40" fill="#f7f9fb"/><rect x="236" y="436" width="40" height="40" fill="#f7f9fb"/><rect x="404" y="236" width="40" height="40" fill="#f7f9fb"/><rect x="236" y="96" width="40" height="40" fill="#f7f9fb"/><circle cx="256" cy="256" r="28" fill="#222"/></svg>