<svg xmlns="http://www.w3.org/2000/svg" width="512" height="512" viewBox="0 0 512 512"> <rect width="100%" height="100%" fill="#f0f0f0"/> <g id="luigi" transform="translate(0,0)"> <!-- Shirt --> <rect x="156" y="220" width="200" height="140" rx="30" fill="#2e8b57"/> <!-- Overalls lower --> <rect x="156" y="320" width="200" height="120" rx="20" fill="#2166b0"/> <!-- Overalls straps --> <rect x="176" y="250" width="40" height="110" rx="10" fill="#2166b0"/> <rect x="296" y="250" width="40" height="110" rx="10" fill="#2166b0"/> <!-- Overall buttons --> <circle cx="196" cy="290" r="10" fill="#f5d042"/> <circle cx="316" cy="290" r="10" fill="#f5d042"/> <!-- Arms --> <path d="M156 260 q-40 20 -40 60 v40 h40 z" fill="#2e8b57"/> <path d="M356 260 q40 20 40 60 v40 h-40 z" fill="#2e8b57"/> <!-- Head --> <ellipse cx="256" cy="170" rx="78" ry="92" fill="#f1c27d"/> <!-- Ears --> <ellipse cx="180" cy="180" rx="16" ry="22" fill="#f1c27d"/> <ellipse cx="332" cy="180" rx="16" ry="22" fill="#f1c27d"/> <!-- Hair side pieces --> <path d="M190 140 q-10 20 -8 40 q18 12 28 6 q-6 -24 -20 -46z" fill="#6b3b1f"/> <path d="M322 140 q10 20 8 40 q-18 12 -28 6 q6 -24 20 -46z" fill="#6b3b1f"/> <!-- Cap --> <path d="M170 140 q60 -80 172 -60 q52 8 64 44 q-36 18 -110 18 q-52 -2 -98 -20z" fill="#2b8b3b"/> <!-- Cap brim --> <ellipse cx="256" cy="160" rx="140" ry="34" fill="#1f6c2f"/> <!-- Nose --> <ellipse cx="256" cy="200" rx="28" ry="22" fill="#e4b58a"/> <!-- Mustache --> <g fill="#2b2b2b"> <path d="M220 222 q20 18 36 16 q-6 -10 -24 -18 q-12 -4 -12 2z"/> <path d="M292 222 q-20 18 -36 16 q6 -10 24 -18 q12 -4 12 2z"/> <rect x="236" y="224" width="40" height="18" rx="9"/> </g> <!-- Mouth (subtle) --> <path d="M230 242 q26 18 52 0" stroke="#8b3b2a" stroke-width="4" fill="none" stroke-linecap="round"/> <!-- Eyes --> <g> <ellipse cx="230" cy="160" rx="16" ry="22" fill="#fff"/> <ellipse cx="282" cy="160" rx="16" ry="22" fill="#fff"/> <circle cx="230" cy="164" r="7" fill="#1b1b1b"/> <circle cx="282" cy="164" r="7" fill="#1b1b1b"/> </g> <!-- Collar --> <path d="M196 260 q60 30 120 0 v-18 q-52 20 -120 0z" fill="#2e8b57" opacity="0.9"/> </g> </svg>