<svg xmlns="http://www.w3.org/2000/svg" width="512" height="512" viewBox="0 0 512 512"><rect width="512" height="512" fill="#bfeaff"/><ellipse cx="256" cy="448" rx="140" ry="28" fill="#000" opacity="0.12"/><rect x="96" y="96" width="320" height="320" rx="8" fill="none" stroke="#2b2b2b" stroke-width="6"/> <!-- pixel grid --> <rect x="96" y="96" width="40" height="40" fill="#3b8b3b"/><rect x="136" y="96" width="40" height="40" fill="#5fbf5f"/><rect x="176" y="96" width="40" height="40" fill="#3b8b3b"/><rect x="216" y="96" width="40" height="40" fill="#5fbf5f"/><rect x="256" y="96" width="40" height="40" fill="#3b8b3b"/><rect x="296" y="96" width="40" height="40" fill="#5fbf5f"/><rect x="336" y="96" width="40" height="40" fill="#3b8b3b"/><rect x="376" y="96" width="40" height="40" fill="#5fbf5f"/> <rect x="96" y="136" width="40" height="40" fill="#2f6f2f"/><rect x="136" y="136" width="40" height="40" fill="#4aa14a"/><rect x="176" y="136" width="40" height="40" fill="#2f6f2f"/><rect x="216" y="136" width="40" height="40" fill="#4aa14a"/><rect x="256" y="136" width="40" height="40" fill="#2f6f2f"/><rect x="296" y="136" width="40" height="40" fill="#4aa14a"/><rect x="336" y="136" width="40" height="40" fill="#2f6f2f"/><rect x="376" y="136" width="40" height="40" fill="#4aa14a"/> <rect x="96" y="176" width="40" height="40" fill="#a26b3b"/><rect x="136" y="176" width="40" height="40" fill="#8c532c"/><rect x="176" y="176" width="40" height="40" fill="#7a4b2a"/><rect x="216" y="176" width="40" height="40" fill="#5a341f"/><rect x="256" y="176" width="40" height="40" fill="#a26b3b"/><rect x="296" y="176" width="40" height="40" fill="#8c532c"/><rect x="336" y="176" width="40" height="40" fill="#7a4b2a"/><rect x="376" y="176" width="40" height="40" fill="#5a341f"/> <rect x="96" y="216" width="40" height="40" fill="#8c532c"/><rect x="136" y="216" width="40" height="40" fill="#7a4b2a"/><rect x="176" y="216" width="40" height="40" fill="#5a341f"/><rect x="216" y="216" width="40" height="40" fill="#a26b3b"/><rect x="256" y="216" width="40" height="40" fill="#8c532c"/><rect x="296" y="216" width="40" height="40" fill="#7a4b2a"/><rect x="336" y="216" width="40" height="40" fill="#5a341f"/><rect x="376" y="216" width="40" height="40" fill="#a26b3b"/> <rect x="96" y="256" width="40" height="40" fill="#7a4b2a"/><rect x="136" y="256" width="40" height="40" fill="#5a341f"/><rect x="176" y="256" width="40" height="40" fill="#a26b3b"/><rect x="216" y="256" width="40" height="40" fill="#8c532c"/><rect x="256" y="256" width="40" height="40" fill="#7a4b2a"/><rect x="296" y="256" width="40" height="40" fill="#5a341f"/><rect x="336" y="256" width="40" height="40" fill="#a26b3b"/><rect x="376" y="256" width="40" height="40" fill="#8c532c"/> <rect x="96" y="296" width="40" height="40" fill="#5a341f"/><rect x="136" y="296" width="40" height="40" fill="#a26b3b"/><rect x="176" y="296" width="40" height="40" fill="#8c532c"/><rect x="216" y="296" width="40" height="40" fill="#7a4b2a"/><rect x="256" y="296" width="40" height="40" fill="#5a341f"/><rect x="296" y="296" width="40" height="40" fill="#a26b3b"/><rect x="336" y="296" width="40" height="40" fill="#8c532c"/><rect x="376" y="296" width="40" height="40" fill="#7a4b2a"/> <rect x="96" y="336" width="40" height="40" fill="#a26b3b"/><rect x="136" y="336" width="40" height="40" fill="#8c532c"/><rect x="176" y="336" width="40" height="40" fill="#7a4b2a"/><rect x="216" y="336" width="40" height="40" fill="#5a341f"/><rect x="256" y="336" width="40" height="40" fill="#a26b3b"/><rect x="296" y="336" width="40" height="40" fill="#8c532c"/><rect x="336" y="336" width="40" height="40" fill="#7a4b2a"/><rect x="376" y="336" width="40" height="40" fill="#5a341f"/></svg>