<svg xmlns="http://www.w3.org/2000/svg" width="512" height="512" viewBox="0 0 512 512">
  <rect width="100%" height="100%" fill="#f6f8fb"/>
  <ellipse cx="256" cy="460" rx="160" ry="18" fill="rgba(0,0,0,0.12)"/>

  <g id="book">
    <path d="M64 200 C140 160 200 180 256 236 L256 420 C200 400 140 420 64 420 Z" fill="#ffffff" stroke="#8b5e3c" stroke-width="6"/>
    <path d="M448 200 C372 160 312 180 256 236 L256 420 C312 400 372 420 448 420 Z" fill="#fffdf7" stroke="#8b5e3c" stroke-width="6"/>
    <path d="M256 236 L256 420" stroke="#d1bfa6" stroke-width="2"/>

    <path d="M88 240 C164 220 208 228 256 256" fill="none" stroke="#d8c9b0" stroke-width="3" stroke-linecap="round"/>
    <path d="M88 280 C164 260 208 268 256 296" fill="none" stroke="#d8c9b0" stroke-width="3" stroke-linecap="round"/>
    <path d="M88 320 C164 300 208 308 256 336" fill="none" stroke="#d8c9b0" stroke-width="3" stroke-linecap="round"/>

    <path d="M424 240 C348 220 304 228 256 256" fill="none" stroke="#d8c9b0" stroke-width="3" stroke-linecap="round"/>
    <path d="M424 280 C348 260 304 268 256 296" fill="none" stroke="#d8c9b0" stroke-width="3" stroke-linecap="round"/>
    <path d="M424 320 C348 300 304 308 256 336" fill="none" stroke="#d8c9b0" stroke-width="3" stroke-linecap="round"/>
  </g>

  <g stroke="#2b2b2b" stroke-width="12" fill="none" stroke-linecap="round">
    <circle cx="176" cy="120" r="40"/>
    <circle cx="336" cy="120" r="40"/>
    <path d="M216 120 C236 100 276 100 296 120" stroke-width="8"/>
    <path d="M136 120 L110 112" stroke-width="8"/>
    <path d="M376 120 L402 112" stroke-width="8"/>
  </g>
</svg>