<svg xmlns="http://www.w3.org/2000/svg" width="512" height="512" viewBox="0 0 512 512"><rect width="100%" height="100%" fill="#e6f2ef"/><path d="M40 140 C120 120,392 120,472 140" stroke="#6b3f1e" stroke-width="40" stroke-linecap="round" stroke-linejoin="round" fill="none"/><ellipse cx="80" cy="120" rx="28" ry="14" fill="#3c8a3b" transform="rotate(-20 80 120)"/><ellipse cx="120" cy="110" rx="20" ry="10" fill="#2f7a2f" transform="rotate(-10 120 110)"/><ellipse cx="432" cy="120" rx="28" ry="14" fill="#3c8a3b" transform="rotate(20 432 120)"/><ellipse cx="392" cy="110" rx="20" ry="10" fill="#2f7a2f" transform="rotate(10 392 110)"/><path d="M200 265 C180 200,200 160,248 140" stroke="#8b5e3c" stroke-width="40" stroke-linecap="round" stroke-linejoin="round" fill="none"/><path d="M312 265 C332 200,312 160,264 140" stroke="#8b5e3c" stroke-width="40" stroke-linecap="round" stroke-linejoin="round" fill="none"/><path d="M226 136 C232 132,236 126,242 128 C238 132,234 136,228 138 Z" fill="#f2efe8" transform="translate(-10,-6)"/><path d="M246 136 C252 132,256 126,262 128 C258 132,254 136,248 138 Z" fill="#f2efe8" transform="translate(6,-8)"/><path d="M276 136 C282 132,286 126,292 128 C288 132,284 136,278 138 Z" fill="#f2efe8" transform="translate(-6,-8)"/><path d="M296 136 C302 132,306 126,312 128 C308 132,304 136,298 138 Z" fill="#f2efe8" transform="translate(10,-6)"/><ellipse cx="256" cy="340" rx="90" ry="100" fill="#caaea0" stroke="#9b7f6a" stroke-width="6"/><circle cx="256" cy="250" r="52" fill="#caaea0" stroke="#9b7f6a" stroke-width="6"/><path d="M200 250 C220 210,292 210,312 250 C300 285,220 285,200 250 Z" fill="#77604d"/><circle cx="235" cy="248" r="6" fill="#1b1b1b"/><circle cx="277" cy="248" r="6" fill="#1b1b1b"/><path d="M256 266 C248 266,248 278,256 282 C264 278,264 266,256 266 Z" fill="#5b4436"/><ellipse cx="256" cy="360" rx="50" ry="60" fill="#e9ddd1"/></svg>