<svg xmlns="http://www.w3.org/2000/svg" width="512" height="512" viewBox="0 0 512 512"><defs><linearGradient id="g1" x1="0" y1="0" x2="1" y2="1"><stop offset="0%" stop-color="#f48fb1"/><stop offset="100%" stop-color="#f06292"/></linearGradient><linearGradient id="g2" x1="0" y1="0" x2="1" y2="0"><stop offset="0%" stop-color="#81d4fa"/><stop offset="100%" stop-color="#b3e5fc"/></linearGradient></defs><rect width="100%" height="100%" fill="#ffffff"/><g transform="rotate(-35 240 320)"><rect x="40" y="300" width="320" height="36" rx="18" fill="url(#g1)" stroke="#b94b7a" stroke-width="2"/><rect x="360" y="296" width="24" height="32" rx="6" fill="#c9cfd6" stroke="#9da2a8" stroke-width="1"/><rect x="384" y="286" width="84" height="48" rx="12" fill="url(#g2)" stroke="#9ccff0" stroke-width="1.5"/><rect x="396" y="292" width="6" height="36" rx="2" fill="#ffffff"/><rect x="406" y="290" width="6" height="40" rx="2" fill="#bfe9ff"/><rect x="416" y="294" width="6" height="34" rx="2" fill="#e6fff9"/><rect x="426" y="292" width="6" height="38" rx="2" fill="#a7e0ff"/><rect x="436" y="290" width="6" height="40" rx="2" fill="#ffffff"/><rect x="446" y="294" width="6" height="34" rx="2" fill="#c8f8e8"/><rect x="456" y="292" width="6" height="36" rx="2" fill="#dff5ff"/><ellipse cx="220" cy="346" rx="180" ry="26" fill="#000" opacity="0.05"/></g></svg>