<svg xmlns="http://www.w3.org/2000/svg" width="512" height="512" viewBox="0 0 512 512">
  <rect width="512" height="512" fill="#87CEEB" />
  <rect y="420" width="512" height="92" fill="#6BBF4A" />

  <!-- Tower main body -->
  <rect x="156" y="120" width="200" height="300" rx="12" fill="#D7D7D7" stroke="#7A7A7A" stroke-width="6" />

  <!-- Crenellations -->
  <rect x="150" y="88" width="44" height="36" rx="4" fill="#D7D7D7" stroke="#7A7A7A" stroke-width="4" />
  <rect x="198" y="88" width="44" height="36" rx="4" fill="#D7D7D7" stroke="#7A7A7A" stroke-width="4" />
  <rect x="246" y="88" width="44" height="36" rx="4" fill="#D7D7D7" stroke="#7A7A7A" stroke-width="4" />
  <rect x="294" y="88" width="44" height="36" rx="4" fill="#D7D7D7" stroke="#7A7A7A" stroke-width="4" />
  <rect x="342" y="88" width="44" height="36" rx="4" fill="#D7D7D7" stroke="#7A7A7A" stroke-width="4" />

  <!-- Shadow on left side -->
  <path d="M156 120 C176 160, 176 360, 156 420 L186 420 C196 360,196 160,186 120 Z" fill="#000000" opacity="0.08" />

  <!-- Horizontal stone lines -->
  <g stroke="#BFBFBF" stroke-width="4" opacity="0.9">
    <line x1="166" y1="170" x2="346" y2="170" />
    <line x1="166" y1="210" x2="346" y2="210" />
    <line x1="166" y1="250" x2="346" y2="250" />
    <line x1="166" y1="290" x2="346" y2="290" />
    <line x1="166" y1="330" x2="346" y2="330" />
    <line x1="166" y1="370" x2="346" y2="370" />
    <line x1="166" y1="410" x2="346" y2="410" />
  </g>

  <!-- Narrow windows / arrow slits -->
  <rect x="244" y="140" width="24" height="48" rx="6" fill="#2E2E2E" />
  <rect x="244" y="200" width="24" height="48" rx="6" fill="#2E2E2E" />
  <rect x="244" y="260" width="24" height="48" rx="6" fill="#2E2E2E" />
  <rect x="244" y="320" width="24" height="48" rx="6" fill="#2E2E2E" />

  <!-- Door with arch -->
  <path d="M216 420 v-64 a40 40 0 0 1 80 0 v64 z" fill="#6F3F20" stroke="#4B2A17" stroke-width="4" />
  <ellipse cx="256" cy="420" rx="70" ry="12" fill="#BFBFBF" opacity="0.12" />

  <!-- Small details: mortar dots -->
  <g fill="#BFBFBF" opacity="0.8">
    <circle cx="180" cy="190" r="3" />
    <circle cx="200" cy="230" r="3" />
    <circle cx="220" cy="270" r="3" />
    <circle cx="300" cy="150" r="3" />
    <circle cx="320" cy="190" r="3" />
    <circle cx="340" cy="240" r="3" />
  </g>

  <!-- Optional small flag pole to suggest height -->
  <rect x="312" y="64" width="4" height="36" fill="#7A7A7A" />
  <path d="M316 68 q16 10 0 20 z" fill="#C62828" stroke="#8B1E1E" stroke-width="2" />
</svg>