<svg xmlns="http://www.w3.org/2000/svg" width="512" height="512" viewBox="0 0 512 512"> <rect width="512" height="512" fill="#cfeefc"/> <rect y="380" width="512" height="132" fill="#a6d24a"/> <g> <circle cx="150" cy="310" r="70" fill="#111" stroke="#333" stroke-width="6"/> <circle cx="150" cy="310" r="35" fill="#bdbdbd"/> <circle cx="360" cy="330" r="50" fill="#111" stroke="#333" stroke-width="6"/> <circle cx="360" cy="330" r="25" fill="#bdbdbd"/> </g> <rect x="200" y="230" width="170" height="70" rx="12" fill="#d9534f" stroke="#b33a3a" stroke-width="4"/> <rect x="80" y="150" width="150" height="120" rx="12" fill="#d9534f" stroke="#b33a3a" stroke-width="4"/> <rect x="100" y="170" width="110" height="80" rx="6" fill="#aee9ff"/> <polygon points="370,230 430,260 430,300 370,300" fill="#d9534f" stroke="#b33a3a" stroke-width="4"/> <g fill="#6b6b6b"> <rect x="382" y="265" width="10" height="30" rx="2"/> <rect x="396" y="265" width="10" height="30" rx="2"/> <rect x="410" y="265" width="10" height="30" rx="2"/> </g> <rect x="300" y="130" width="12" height="70" rx="3" fill="#555"/> <circle cx="306" cy="126" r="8" fill="#333"/> <path d="M100,320 A60,40 0 0 0 200,320" fill="#d9534f" opacity="0.95" stroke="#b33a3a" stroke-width="3"/> <path d="M290,350 A44,30 0 0 0 430,350" fill="#d9534f" opacity="0.95" stroke="#b33a3a" stroke-width="3"/> <rect x="150" y="330" width="220" height="12" rx="6" fill="#5c4033"/> <circle cx="440" cy="280" r="10" fill="#fffacd" stroke="#f0e68c" stroke-width="2"/> </svg>