<svg xmlns="http://www.w3.org/2000/svg" width="512" height="512" viewBox="0 0 512 512">
  <defs>
    <radialGradient id="bg" cx="50%" cy="45%" r="70%">
      <stop offset="0%" stop-color="#ff4db8" />
      <stop offset="45%" stop-color="#6b3bff" />
      <stop offset="100%" stop-color="#07103a" />
    </radialGradient>
    <filter id="soft" x="-50%" y="-50%" width="200%" height="200%">
      <feGaussianBlur stdDeviation="10" result="b" />
      <feBlend in="SourceGraphic" in2="b" mode="screen" />
    </filter>
  </defs>

  <!-- Background -->
  <rect width="512" height="512" fill="url(#bg)" />

  <!-- Starburst rays (vivid rainbow) -->
  <g transform="translate(0,0)">
    <g transform="translate(0,0)">
      <path d="M256 256 L512 220 L512 292 Z" fill="#ff3b30" opacity="0.96" transform="rotate(0 256 256)" />
      <path d="M256 256 L512 220 L512 292 Z" fill="#ff9500" opacity="0.94" transform="rotate(45 256 256)" />
      <path d="M256 256 L512 220 L512 292 Z" fill="#ffd300" opacity="0.92" transform="rotate(90 256 256)" />
      <path d="M256 256 L512 220 L512 292 Z" fill="#4cd964" opacity="0.92" transform="rotate(135 256 256)" />
      <path d="M256 256 L512 220 L512 292 Z" fill="#5ac8fa" opacity="0.92" transform="rotate(180 256 256)" />
      <path d="M256 256 L512 220 L512 292 Z" fill="#007aff" opacity="0.94" transform="rotate(225 256 256)" />
      <path d="M256 256 L512 220 L512 292 Z" fill="#5856d6" opacity="0.95" transform="rotate(270 256 256)" />
      <path d="M256 256 L512 220 L512 292 Z" fill="#ff2d95" opacity="0.96" transform="rotate(315 256 256)" />
    </g>
  </g>

  <!-- Overlapping vivid color blobs at center -->
  <g filter="url(#soft)">
    <circle cx="256" cy="220" r="92" fill="#ff2d95" opacity="0.85" />
    <circle cx="300" cy="270" r="74" fill="#ffd300" opacity="0.78" />
    <circle cx="212" cy="270" r="74" fill="#5ac8fa" opacity="0.78" />
    <circle cx="256" cy="256" r="56" fill="#4cd964" opacity="0.9" />
  </g>

  <!-- Bright glossy core -->
  <radialGradient id="core" cx="50%" cy="40%" r="60%">
    <stop offset="0%" stop-color="#ffffff" stop-opacity="0.9" />
    <stop offset="40%" stop-color="#ffffff" stop-opacity="0.2" />
    <stop offset="100%" stop-color="#ffffff" stop-opacity="0" />
  </radialGradient>
  <circle cx="256" cy="256" r="34" fill="url(#core)" />

  <!-- Sparkles -->
  <g fill="#ffffff" opacity="0.9">
    <circle cx="160" cy="160" r="6" />
    <circle cx="360" cy="140" r="5" />
    <circle cx="420" cy="220" r="4" />
    <circle cx="120" cy="300" r="5" />
    <circle cx="380" cy="340" r="6" />
    <circle cx="260" cy="100" r="4" />
  </g>

  <!-- Diagonal neon streaks for extra vivid contrast -->
  <g opacity="0.9">
    <rect x="-60" y="120" width="640" height="18" fill="#ff3b30" transform="rotate(-18 256 256)" opacity="0.25" />
    <rect x="-60" y="160" width="640" height="18" fill="#ffd300" transform="rotate(-18 256 256)" opacity="0.18" />
    <rect x="-60" y="200" width="640" height="18" fill="#5ac8fa" transform="rotate(-18 256 256)" opacity="0.16" />
  </g>

</svg>