<svg xmlns="http://www.w3.org/2000/svg" width="512" height="512" viewBox="0 0 512 512"> <defs> <linearGradient id="g" x1="0" y1="0" x2="0" y2="1"> <stop offset="0%" stop-color="#9ad3ff"/> <stop offset="60%" stop-color="#cdefff"/> <stop offset="100%" stop-color="#dff9d6"/> </linearGradient> </defs> <rect width="512" height="512" fill="url(#g)"/> <path d="M0 380 C120 300,200 320,320 360 C380 380,460 360,512 330 L512 512 L0 512 Z" fill="#8fd66b"/> <path d="M60 460 C120 360,180 340,260 360 C320 375,380 330,460 260" fill="none" stroke="#e9dcc0" stroke-width="84" stroke-linecap="round" stroke-linejoin="round"/> <path d="M60 460 C120 360,180 340,260 360 C320 375,380 330,460 260" fill="none" stroke="#d0b892" stroke-width="40" stroke-linecap="round" stroke-linejoin="round" opacity="0.9"/> <g fill="#7a5c42" transform="translate(-8,-8)"> <ellipse cx="110" cy="420" rx="10" ry="6" transform="rotate(-20 110 420)"/> <ellipse cx="140" cy="400" rx="10" ry="6" transform="rotate(-18 140 400)"/> <ellipse cx="170" cy="385" rx="10" ry="6" transform="rotate(-15 170 385)"/> <ellipse cx="210" cy="370" rx="10" ry="6" transform="rotate(-10 210 370)"/> <ellipse cx="250" cy="360" rx="10" ry="6" transform="rotate(-6 250 360)"/> <ellipse cx="300" cy="350" rx="10" ry="6" transform="rotate(-2 300 350)"/> <ellipse cx="350" cy="320" rx="10" ry="6" transform="rotate(8 350 320)"/> <ellipse cx="400" cy="290" rx="10" ry="6" transform="rotate(20 400 290)"/> <ellipse cx="440" cy="260" rx="10" ry="6" transform="rotate(24 440 260)"/> </g> <g transform="translate(420,200) rotate(20)"> <circle cx="0" cy="0" r="14" fill="#333"/> <path d="M0 13 L0 50" stroke="#333" stroke-width="6" stroke-linecap="round"/> <path d="M0 25 L-18 45" stroke="#333" stroke-width="6" stroke-linecap="round"/> <path d="M0 25 L14 38" stroke="#333" stroke-width="6" stroke-linecap="round"/> <path d="M0 40 L-6 68" stroke="#333" stroke-width="6" stroke-linecap="round"/> <path d="M0 40 L18 60" stroke="#333" stroke-width="6" stroke-linecap="round"/> </g> <g transform="translate(80,330) scale(0.6)"> <circle cx="0" cy="0" r="8" fill="#2e2e2e"/> <path d="M0 8 L0 26" stroke="#2e2e2e" stroke-width="4" stroke-linecap="round"/> </g> <path d="M60 460 C120 360,180 340,260 360 C320 375,380 330,460 260" fill="none" stroke="#f7efd6" stroke-width="6" stroke-dasharray="18 18" stroke-linecap="round" opacity="0.6"/> </svg>