<svg xmlns="http://www.w3.org/2000/svg" width="512" height="512" viewBox="0 0 512 512">
  <defs>
    <radialGradient id="moonGrad" cx="50%" cy="40%" r="40%">
      <stop offset="0%" stop-color="#fff8cc"/>
      <stop offset="70%" stop-color="#fff1a0"/>
      <stop offset="100%" stop-color="#f0d86a"/>
    </radialGradient>
    <linearGradient id="sky" x1="0" y1="0" x2="0" y2="1">
      <stop offset="0%" stop-color="#07102a"/>
      <stop offset="100%" stop-color="#0b1a3a"/>
    </linearGradient>
  </defs>

  <rect width="100%" height="100%" fill="url(#sky)"/>

  <g fill="#ffffff" opacity="0.9">
    <circle cx="420" cy="60" r="2.5"/>
    <circle cx="360" cy="30" r="1.8"/>
    <circle cx="300" cy="80" r="2"/>
    <circle cx="200" cy="40" r="1.6"/>
    <circle cx="120" cy="70" r="2.2"/>
    <circle cx="80" cy="30" r="1.5"/>
  </g>

  <g>
    <circle cx="380" cy="110" r="90" fill="url(#moonGrad)"/>
    <circle cx="410" cy="90" r="12" fill="#e6d88a" opacity="0.8"/>
    <circle cx="360" cy="130" r="8" fill="#e6d88a" opacity="0.8"/>
    <circle cx="400" cy="135" r="6" fill="#e6d88a" opacity="0.7"/>
  </g>

  <path d="M0 420 C80 360 160 380 256 400 C352 420 460 430 512 420 L512 512 L0 512 Z" fill="#1e1e1e"/>

  <g transform="translate(40,30) scale(1)">
    <path d="M330 330
      C320 300 310 260 300 230
      C325 215 340 180 330 150
      C348 140 360 120 365 95
      C350 110 330 120 320 115
      C310 100 330 70 300 60
      C270 52 240 80 230 95
      C220 80 200 70 180 78
      C150 90 140 120 150 140
      C130 150 120 170 122 190
      C100 210 90 240 110 270
      C90 290 80 320 100 340
      C80 360 90 400 120 410
      C160 420 200 430 240 432
      C280 435 300 420 320 410
      C350 400 345 370 330 350
      Z" fill="#0b0b0b"/>

    <path d="M150 260
      C120 240 110 200 120 170
      C100 150 110 120 140 110
      C130 100 150 80 170 95
      C200 120 190 160 180 190
      C190 210 170 240 150 260 Z" fill="#0b0b0b"/>

    <path d="M320 270
      C340 260 360 240 370 220
      C380 200 410 195 420 210
      C430 230 420 260 400 280
      C380 300 360 300 340 290
      Z" fill="#0b0b0b"/>

    <path d="M270 92 C280 75 305 64 320 75 C330 60 355 60 370 72 C355 80 338 84 325 96 C315 100 295 100 280 96 Z" fill="#0b0b0b"/>

    <ellipse cx="255" cy="160" rx="6" ry="10" fill="#ffd24d" opacity="0.95"/>
    <ellipse cx="295" cy="156" rx="6" ry="10" fill="#ffd24d" opacity="0.95"/>

    <path d="M200 320 C210 300 230 290 250 285 C270 280 290 282 310 295 C330 310 335 330 320 350" stroke="#111111" stroke-width="4" fill="none" opacity="0.4" stroke-linecap="round"/>
  </g>
</svg>