<svg width="512" height="512" xmlns="http://www.w3.org/2000/svg"><path d="M100,150 C300,100 500,200 450,400 L100,400 Z" fill="#333" stroke="black" stroke-width="2"/><rect x="100" y="400" width="350" height="60" fill="white" stroke="black" stroke-width="2"/><line x1="150" y1="400" x2="150" y2="460" stroke="black"/><line x1="200" y1="400" x2="200" y2="460" stroke="black"/><line x1="250" y1="400" x2="250" y2="460" stroke="black"/><line x1="300" y1="400" x2="300" y2="460" stroke="black"/><line x1="350" y1="400" x2="350" y2="460" stroke="black"/><line x1="400" y1="400" x2="400" y2="460" stroke="black"/><rect x="135" y="400" width="20" height="35" fill="black"/><rect x="185" y="400" width="20" height="35" fill="black"/><rect x="285" y="400" width="20" height="35" fill="black"/><rect x="335" y="400" width="20" height="35" fill="black"/><rect x="385" y="400" width="20" height="35" fill="black"/></svg>