<svg width="512" height="512" viewBox="0 0 512 512" xmlns="http://www.w3.org/2000/svg"><path d="M 56 400 A 200 200 0 0 1 456 400" stroke="red" stroke-width="20" fill="none"/><path d="M 76 400 A 180 180 0 0 1 436 400" stroke="orange" stroke-width="20" fill="none"/><path d="M 96 400 A 160 160 0 0 1 416 400" stroke="yellow" stroke-width="20" fill="none"/><path d="M 116 400 A 140 140 0 0 1 396 400" stroke="green" stroke-width="20" fill="none"/><path d="M 136 400 A 120 120 0 0 1 376 400" stroke="blue" stroke-width="20" fill="none"/><path d="M 156 400 A 100 100 0 0 1 356 400" stroke="indigo" stroke-width="20" fill="none"/><path d="M 176 400 A 80 80 0 0 1 336 400" stroke="violet" stroke-width="20" fill="none"/></svg>