<svg width="512" height="512" xmlns="http://www.w3.org/2000/svg">
  <!-- Sky -->
  <rect x="0" y="0" width="512" height="150" fill="#87CEEB"/>
  <!-- Ground -->
  <rect x="0" y="150" width="512" height="362" fill="#8B4513"/>

  <!-- Wheat stalks -->
  <!-- Stalk 1 -->
  <g transform="translate(100, 200)">
    <line x1="0" y1="0" x2="0" y2="150" stroke="#A0522D" stroke-width="4"/> <!-- Stem -->
    <!-- Wheat head -->
    <g transform="translate(0, -10)">
      <rect x="-5" y="0" width="10" height="3" fill="#DAA520"/>
      <rect x="-4" y="-5" width="8" height="3" fill="#DAA520"/>
      <rect x="-3" y="-10" width="6" height="3" fill="#DAA520"/>
      <rect x="-2" y="-15" width="4" height="3" fill="#DAA520"/>
    </g>
  </g>
  <!-- Stalk 2 -->
  <g transform="translate(150, 180)">
    <line x1="0" y1="0" x2="0" y2="170" stroke="#A0522D" stroke-width="4"/>
    <g transform="translate(0, -10)">
      <rect x="-6" y="0" width="12" height="3" fill="#DAA520"/>
      <rect x="-5" y="-5" width="10" height="3" fill="#DAA520"/>
      <rect x="-4" y="-10" width="8" height="3" fill="#DAA520"/>
      <rect x="-3" y="-15" width="6" height="3" fill="#DAA520"/>
      <rect x="-2" y="-20" width="4" height="3" fill="#DAA520"/>
    </g>
  </g>
  <!-- Stalk 3 -->
  <g transform="translate(200, 220)">
    <line x1="0" y1="0" x2="0" y2="130" stroke="#A0522D" stroke-width="4"/>
    <g transform="translate(0, -10)">
      <rect x="-4" y="0" width="8" height="3" fill="#DAA520"/>
      <rect x="-3" y="-5" width="6" height="3" fill="#DAA520"/>
      <rect x="-2" y="-10" width="4" height="3" fill="#DAA520"/>
      <rect x="-1" y="-15" width="2" height="3" fill="#DAA520"/>
    </g>
  </g>
  <!-- Stalk 4 -->
  <g transform="translate(250, 190)">
    <line x1="0" y1="0" x2="0" y2="160" stroke="#A0522D" stroke-width="4"/>
    <g transform="translate(0, -10)">
      <rect x="-5" y="0" width="10" height="3" fill="#DAA520"/>
      <rect x="-4" y="-5" width="8" height="3" fill="#DAA520"/>
      <rect x="-3" y="-10" width="6" height="3" fill="#DAA520"/>
      <rect x="-2" y="-15" width="4" height="3" fill="#DAA520"/>
      <rect x="-1" y="-20" width="2" height="3" fill="#DAA520"/>
    </g>
  </g>
  <!-- Stalk 5 -->
  <g transform="translate(300, 210)">
    <line x1="0" y1="0" x2="0" y2="140" stroke="#A0522D" stroke-width="4"/>
    <g transform="translate(0, -10)">
      <rect x="-4" y="0" width="8" height="3" fill="#DAA520"/>
      <rect x="-3" y="-5" width="6" height="3" fill="#DAA520"/>
      <rect x="-2" y="-10" width="4" height="3" fill="#DAA520"/>
      <rect x="-1" y="-15" width="2" height="3" fill="#DAA520"/>
    </g>
  </g>
  <!-- Stalk 6 -->
  <g transform="translate(350, 170)">
    <line x1="0" y1="0" x2="0" y2="180" stroke="#A0522D" stroke-width="4"/>
    <g transform="translate(0, -10)">
      <rect x="-6" y="0" width="12" height="3" fill="#DAA520"/>
      <rect x="-5" y="-5" width="10" height="3" fill="#DAA520"/>
      <rect x="-4" y="-10" width="8" height="3" fill="#DAA520"/>
      <rect x="-3" y="-15" width="6" height="3" fill="#DAA520"/>
      <rect x="-2" y="-20" width="4" height="3" fill="#DAA520"/>
      <rect x="-1" y="-25" width="2" height="3" fill="#DAA520"/>
    </g>
  </g>
  <!-- Stalk 7 -->
  <g transform="translate(400, 200)">
    <line x1="0" y1="0" x2="0" y2="150" stroke="#A0522D" stroke-width="4"/>
    <g transform="translate(0, -10)">
      <rect x="-5" y="0" width="10" height="3" fill="#DAA520"/>
      <rect x="-4" y="-5" width="8" height="3" fill="#DAA520"/>
      <rect x="-3" y="-10" width="6" height="3" fill="#DAA520"/>
      <rect x="-2" y="-15" width="4" height="3" fill="#DAA520"/>
    </g>
  </g>
  <!-- Stalk 8 -->
  <g transform="translate(450, 180)">
    <line x1="0" y1="0" x2="0" y2="170" stroke="#A0522D" stroke-width="4"/>
    <g transform="translate(0, -10)">
      <rect x="-6" y="0" width="12" height="3" fill="#DAA520"/>
      <rect x="-5" y="-5" width="10" height="3" fill="#DAA520"/>
      <rect x="-4" y="-10" width="8" height="3" fill="#DAA520"/>
      <rect x="-3" y="-15" width="6" height="3" fill="#DAA520"/>
      <rect x="-2" y="-20" width="4" height="3" fill="#DAA520"/>
    </g>
  </g>
  <!-- Stalk 9 -->
  <g transform="translate(50, 190)">
    <line x1="0" y1="0" x2="0" y2="160" stroke="#A0522D" stroke-width="4"/>
    <g transform="translate(0, -10)">
      <rect x="-5" y="0" width="10" height="3" fill="#DAA520"/>
      <rect x="-4" y="-5" width="8" height="3" fill="#DAA520"/>
      <rect x="-3" y="-10" width="6" height="3" fill="#DAA520"/>
      <rect x="-2" y="-15" width="4" height="3" fill="#DAA520"/>
      <rect x="-1" y="-20" width="2" height="3" fill="#DAA520"/>
    </g>
  </g>

  <!-- Sun -->
  <circle cx="450" cy="80" r="30" fill="#FFD700"/>
  <circle cx="450" cy="80" r="25" fill="#FFEC8B"/>

</svg>