<svg width="512" height="512" xmlns="http://www.w3.org/2000/svg"><circle cx="256" cy="150" r="40" stroke="black" stroke-width="2" fill="none"/><circle cx="236" cy="140" r="15" fill="black"/><circle cx="276" cy="140" r="15" fill="black"/><line x1="240" y1="170" x2="270" y2="170" stroke="black" stroke-width="3"/><line x1="256" cy="190" x2="256" y2="300" stroke="black" stroke-width="5"/><line x1="256" y1="230" x2="200" y2="250" stroke="black" stroke-width="4"/><line x1="256" y1="232" x2="198" y2="252" stroke="black" stroke-width="4"/><line x1="256" y1="228" x2="202" y2="248" stroke="black" stroke-width="4"/><line x1="256" y1="230" x2="310" y2="250" stroke="black" stroke-width="4"/><line x1="256" y1="232" x2="312" y2="252" stroke="black" stroke-width="4"/><line x1="256" y1="228" x2="308" y2="248" stroke="black" stroke-width="4"/><line x1="256" y1="300" x2="230" y2="380" stroke="black" stroke-width="4"/><line x1="256" y1="302" x2="228" y2="382" stroke="black" stroke-width="4"/><line x1="256" y1="298" x2="232" y2="378" stroke="black" stroke-width="4"/><line x1="256" y1="300" x2="280" y2="380" stroke="black" stroke-width="4"/><line x1="256" y1="302" x2="282" y2="382" stroke="black" stroke-width="4"/><line x1="256" y1="298" x2="278" y2="378" stroke="black" stroke-width="4"/><circle cx="220" cy="120" r="5" fill="#cccccc"/><circle cx="290" cy="120" r="5" fill="#cccccc"/><circle cx="256" cy="110" r="5" fill="#cccccc"/><circle cx="230" cy="140" r="5" fill="#cccccc"/><circle cx="280" cy="140" r="5" fill="#cccccc"/></svg>