<svg width="512" height="512" xmlns="http://www.w3.org/2000/svg"><rect x="0" y="0" width="512" height="200" fill="#ADD8E6"/><circle cx="450" cy="100" r="40" fill="#FFD700"/><rect x="0" y="200" width="512" height="312" fill="#4682B4"/><path d="M0 220 C 50 190, 150 190, 200 220 S 300 250, 400 220 S 500 190, 512 220" stroke="white" stroke-width="8" fill="none"/><path d="M0 240 C 50 210, 150 210, 200 240 S 300 270, 400 240 S 500 210, 512 240" stroke="white" stroke-width="6" fill="none"/><path d="M0 260 C 50 230, 150 230, 200 260 S 300 290, 400 260 S 500 230, 512 260" stroke="white" stroke-width="4" fill="none"/><path d="M150 350 Q 220 330 280 350 Q 220 370 150 350 Z" fill="#FFA500"/><polygon points="280,350 300,340 300,360" fill="#FFA500"/><circle cx="160" cy="350" r="6" fill="black"/></svg>