<svg width="512" height="512" xmlns="http://www.w3.org/2000/svg">
  <rect width="512" height="512" fill="#334455"/>
  <path d="M 0 150 C 50 50, 150 50, 250 100 C 350 50, 450 50, 500 150 C 480 200, 400 250, 300 250 C 250 250, 200 250, 150 200 C 100 200, 50 200, 0 150 Z" fill="#556677"/>
  <path d="M 250 100 L 270 160 L 250 220 L 280 280 L 260 340 L 280 400 L 260 460 L 250 480" stroke="white" stroke-width="12" fill="none"/>
  <circle cx="250" cy="480" r="40" stroke="white" stroke-width="3" fill="none" opacity="0.8"/>
  <circle cx="250" cy="480" r="80" stroke="white" stroke-width="2" fill="none" opacity="0.7"/>
  <circle cx="250" cy="480" r="120" stroke="white" stroke-width="1" fill="none" opacity="0.6"/>
</svg>