<svg xmlns="http://www.w3.org/2000/svg" width="512" height="512" viewBox="0 0 512 512"><rect width="512" height="512" fill="#a7d8ff"/><rect y="360" width="512" height="152" fill="#e9eef2"/><ellipse cx="256" cy="400" rx="220" ry="28" fill="#cbd3d8"/><rect x="60" y="160" width="392" height="160" rx="20" fill="#ffcc00" stroke="#e6b800" stroke-width="4"/><rect x="96" y="180" width="88" height="80" rx="10" fill="#bfe9ff" stroke="#88c8e6" stroke-width="3"/><rect x="192" y="180" width="88" height="80" rx="10" fill="#bfe9ff" stroke="#88c8e6" stroke-width="3"/><rect x="288" y="180" width="88" height="80" rx="10" fill="#bfe9ff" stroke="#88c8e6" stroke-width="3"/><rect x="376" y="200" width="56" height="100" rx="6" fill="#ffd24d" stroke="#e6b800" stroke-width="3"/><polygon points="412,160 452,160 452,240 412,240" fill="#ffdb70" stroke="#e6b800" stroke-width="3"/><circle cx="160" cy="360" r="44" fill="#222"/><circle cx="160" cy="360" r="20" fill="#9aa3a8"/><circle cx="360" cy="360" r="44" fill="#222"/><circle cx="360" cy="360" r="20" fill="#9aa3a8"/><circle cx="452" cy="240" r="8" fill="#fff68f" stroke="#e6e2a8" stroke-width="2"/><rect x="64" y="300" width="360" height="12" rx="6" fill="#d4a300" opacity="0.6"/></svg>