<svg xmlns="http://www.w3.org/2000/svg" width="512" height="512" viewBox="0 0 512 512"> <defs> <radialGradient id="g" cx="30%" cy="30%" r="80%"> <stop offset="0%" stop-color="#fffacd"/> <stop offset="60%" stop-color="#ffe4a3"/> <stop offset="100%" stop-color="#2b2240"/> </radialGradient> </defs> <rect width="100%" height="100%" fill="url(#g)"/> <g stroke-linecap="round" stroke-linejoin="round" fill="none" opacity="0.9"> <path d="M50 100 C120 20, 200 180, 150 260 S250 420, 350 300 S480 200, 430 120" stroke="#ff4d4d" stroke-width="8" /> <path d="M40 200 C100 150, 180 300, 120 380 S220 460, 330 360 S470 280, 390 180" stroke="#4dffff" stroke-width="6" stroke-opacity="0.9" /> <path d="M20 60 Q120 120, 200 40 T420 90" stroke="#ffd24d" stroke-width="10" stroke-opacity="0.85"/> <path d="M480 430 C400 360, 320 460, 250 410 C200 380, 150 460, 80 420" stroke="#a64dff" stroke-width="7" stroke-opacity="0.9"/> <path d="M260 20 C300 120, 380 80, 460 180" stroke="#4dff88" stroke-width="5" stroke-opacity="0.95"/> </g> <g stroke="#222" stroke-width="3" fill="none" opacity="0.6"> <polyline points="60,300 90,260 120,320 150,280 180,340 210,300 240,360 270,320 300,380 330,340 360,400" stroke="#333" stroke-width="4" /> <polyline points="450,60 420,100 380,80 360,130 320,110 300,160 260,140 240,190" stroke="#111" stroke-width="3" stroke-opacity="0.6"/> </g> <g opacity="0.85"> <circle cx="420" cy="70" r="18" fill="#ff6f6f" /> <circle cx="460" cy="120" r="10" fill="#ffd24d" /> <circle cx="80" cy="420" r="12" fill="#4dffff" /> <rect x="30" y="30" width="26" height="26" fill="#a64dff" transform="rotate(25 43 43)" opacity="0.9"/> <rect x="380" y="300" width="20" height="20" fill="#4dff88" transform="rotate(-35 390 310)" opacity="0.9"/> <rect x="230" y="220" width="28" height="28" fill="#ff4d4d" transform="rotate(15 244 234)" opacity="0.8"/> <polygon points="320,70 335,95 305,95" fill="#ffdf6f" opacity="0.9"/> <polygon points="120,120 140,140 100,150" fill="#6fe0ff" opacity="0.95"/> </g> <g> <circle cx="150" cy="150" r="4" fill="#222"/> <circle cx="160" cy="158" r="3" fill="#222"/> <circle cx="170" cy="148" r="5" fill="#222"/> <circle cx="350" cy="220" r="3" fill="#000"/> <circle cx="365" cy="228" r="5" fill="#000"/> <circle cx="240" cy="360" r="3" fill="#111"/> </g> <g stroke-linecap="round" fill="none" stroke-dasharray="8 6" opacity="0.7"> <path d="M60 460 C140 380, 220 480, 320 430" stroke="#ff7f50" stroke-width="4"/> <path d="M100 420 C180 360, 260 420, 380 360" stroke="#9b59b6" stroke-width="3"/> </g> <g stroke="#000" stroke-width="2" fill="none" opacity="0.6"> <path d="M10 10 C80 90, 60 140, 140 160 C70 200, 160 240, 120 300 C200 280, 260 200, 320 260 C280 200, 360 200, 420 240" /> <path d="M500 10 L450 60 L480 100 L430 140 L470 180" /> </g> </svg>