<svg xmlns="http://www.w3.org/2000/svg" width="512" height="512" viewBox="0 0 512 512"><defs><linearGradient id="sky" x1="0" x2="0" y1="0" y2="1"><stop offset="0" stop-color="#b7e0ff"/><stop offset="1" stop-color="#e6f7ff"/></linearGradient></defs><rect width="512" height="512" fill="url(#sky)"/><polygon points="0,512 512,512 332,200 180,200" fill="#3a3a3a"/><path d="M256 200 L256 512" stroke="#ffffff" stroke-width="10" stroke-dasharray="24,18" stroke-linecap="round" fill="none"/><ellipse cx="256" cy="472" rx="140" ry="20" fill="#000" opacity="0.18"/><rect x="116" y="350" width="280" height="90" rx="22" fill="#d94c3d"/><rect x="186" y="320" width="140" height="60" rx="20" fill="#ff6b5b"/><rect x="200" y="336" width="60" height="36" rx="8" fill="#aee8ff" opacity="0.95"/><rect x="268" y="336" width="60" height="36" rx="8" fill="#aee8ff" opacity="0.95"/><circle cx="180" cy="450" r="34" fill="#111"/><circle cx="332" cy="450" r="34" fill="#111"/><circle cx="180" cy="450" r="16" fill="#777"/><circle cx="332" cy="450" r="16" fill="#777"/><circle cx="360" cy="388" r="8" fill="#ffd76a"/><path d="M110 360 C90 350,60 330,40 320" stroke="#ffffff" stroke-width="6" stroke-linecap="round" stroke-linejoin="round" opacity="0.9" fill="none"/><path d="M110 380 C85 375,60 360,45 350" stroke="#ffffff" stroke-width="4" stroke-linecap="round" opacity="0.8" fill="none"/><path d="M110 340 C95 335,75 320,60 310" stroke="#ffffff" stroke-width="4" stroke-linecap="round" opacity="0.8" fill="none"/></svg>