<svg xmlns="http://www.w3.org/2000/svg" width="512" height="512" viewBox="0 0 512 512"> <rect width="100%" height="100%" fill="#f7ecd6"/> <rect x="0" y="320" width="512" height="192" fill="#efe6d3"/> <rect x="0" y="160" width="512" height="160" fill="#f3ead4" opacity="0.6"/> <ellipse cx="256" cy="140" rx="160" ry="60" fill="#c9b089"/> <g transform="translate(196,60)"> <rect x="20" y="40" width="120" height="60" fill="#8a6e4a" stroke="#6b5236" stroke-width="4"/> <rect x="18" y="34" width="22" height="12" fill="#8a6e4a" stroke="#6b5236" stroke-width="4"/> <rect x="44" y="34" width="22" height="12" fill="#8a6e4a" stroke="#6b5236" stroke-width="4"/> <rect x="70" y="34" width="22" height="12" fill="#8a6e4a" stroke="#6b5236" stroke-width="4"/> <rect x="96" y="34" width="22" height="12" fill="#8a6e4a" stroke="#6b5236" stroke-width="4"/> <rect x="6" y="10" width="30" height="90" fill="#8a6e4a" stroke="#6b5236" stroke-width="4"/> <rect x="6" y="-6" width="30" height="16" fill="#8a6e4a" stroke="#6b5236" stroke-width="4"/> <rect x="150" y="10" width="30" height="90" fill="#8a6e4a" stroke="#6b5236" stroke-width="4"/> <rect x="150" y="-6" width="30" height="16" fill="#8a6e4a" stroke="#6b5236" stroke-width="4"/> <rect x="70" y="66" width="30" height="34" fill="#5a4330" stroke="#3f2f22" stroke-width="3"/> </g> <g transform="translate(256,240)"> <path d="M -40 40 Q 0 -60 40 40 Z" fill="#6b8a6b" stroke="#4e6b50" stroke-width="4"/> <circle cx="0" cy="-10" r="12" fill="#f1d6b4" stroke="#c9a989" stroke-width="3"/> <path d="M -12 -18 Q 0 -30 12 -18" fill="#c59a4a" stroke="#8d6e34" stroke-width="3"/> <path d="M -70 10 L -40 0 L -40 40 L -70 30 Z" fill="#a24b3f" stroke="#7a362e" stroke-width="4"/> <rect x="48" y="-4" width="6" height="60" fill="#8d6e34" stroke="#6b4f26" stroke-width="3" transform="rotate(-10 51 26)"/> <polygon points="51,-8 63,10 39,10" fill="#c59a4a" stroke="#8d6e34" stroke-width="3" transform="rotate(-10 51 26)"/> </g> <g transform="translate(256,420)"> <path d="M -240 -40 Q -160 -60 -80 -40 T 80 -40 T 240 -40" stroke="#8ba05a" stroke-width="8" fill="none" stroke-linecap="round"/> <path d="M -240 -20 Q -160 -40 -80 -20 T 80 -20 T 240 -20" stroke="#9bb970" stroke-width="6" fill="none" stroke-linecap="round"/> <g transform="translate(-120,-20)"> <circle cx="0" cy="-8" r="8" fill="#f1d6b4" stroke="#c9a989" stroke-width="2"/> <path d="M -8 8 Q 0 -6 8 8" stroke="#5a4030" stroke-width="6" fill="none" stroke-linecap="round"/> <rect x="14" y="-6" width="4" height="34" fill="#6b4f26"/> <g transform="translate(16,24)"> <rect x="-6" y="-28" width="4" height="22" fill="#6b4f26"/> <path d="M -10 -28 L -2 -34 L 6 -28" stroke="#6b4f26" stroke-width="4" fill="none" stroke-linecap="round"/> </g> </g> <g transform="translate(0,-26)"> <circle cx="0" cy="-8" r="8" fill="#f1d6b4" stroke="#c9a989" stroke-width="2"/> <path d="M -8 8 Q 0 -6 8 8" stroke="#5a4030" stroke-width="6" fill="none" stroke-linecap="round"/> <rect x="10" y="-6" width="4" height="34" fill="#6b4f26"/> <g transform="translate(12,24)"> <rect x="-6" y="-28" width="4" height="22" fill="#6b4f26"/> <path d="M -10 -28 L -2 -34 L 6 -28" stroke="#6b4f26" stroke-width="4" fill="none" stroke-linecap="round"/> </g> </g> <g transform="translate(120,-22)"> <circle cx="0" cy="-8" r="8" fill="#f1d6b4" stroke="#c9a989" stroke-width="2"/> <path d="M -8 8 Q 0 -6 8 8" stroke="#5a4030" stroke-width="6" fill="none" stroke-linecap="round"/> <rect x="14" y="-6" width="4" height="34" fill="#6b4f26"/> <g transform="translate(16,24)"> <rect x="-6" y="-28" width="4" height="22" fill="#6b4f26"/> <path d="M -10 -28 L -2 -34 L 6 -28" stroke="#6b4f26" stroke-width="4" fill="none" stroke-linecap="round"/> </g> </g> </g> <g stroke="#6b4f26" stroke-width="3" stroke-dasharray="6 6" fill="none"> <path d="M 136 260 V 360"/> <path d="M 256 200 V 360"/> <path d="M 376 260 V 360"/> </g> <line x1="40" y1="160" x2="472" y2="160" stroke="#d8c9a8" stroke-width="2"/> <line x1="40" y1="320" x2="472" y2="320" stroke="#d8c9a8" stroke-width="2"/> </svg>