<svg xmlns="http://www.w3.org/2000/svg" width="512" height="512" viewBox="0 0 512 512"> <defs> <linearGradient id="sky" x1="0" y1="0" x2="0" y2="1"> <stop offset="0" stop-color="#cfefff"/> <stop offset="1" stop-color="#a0d4ff"/> </linearGradient> <linearGradient id="ground" x1="0" y1="0" x2="0" y2="1"> <stop offset="0" stop-color="#b5e7a0"/> <stop offset="1" stop-color="#5aa54a"/> </linearGradient> </defs> <rect width="512" height="512" fill="url(#sky)"/> <path d="M0 340 C120 300 200 320 512 340 L512 512 L0 512 Z" fill="url(#ground)"/> <path d="M0 320 C40 300 80 320 120 310 C160 300 200 320 240 300 C280 280 320 310 360 300 C400 290 440 320 480 300 C512 285 512 340 512 340 L0 340 Z" fill="#2f6b38"/> <rect x="60" y="240" width="20" height="90" rx="4" fill="#6b3b1d"/> <circle cx="70" cy="220" r="36" fill="#2e8b37"/> <circle cx="50" cy="250" r="30" fill="#3aa64b"/> <circle cx="90" cy="250" r="30" fill="#2b8b39"/> <rect x="232" y="190" width="28" height="140" rx="5" fill="#5d351f"/> <circle cx="246" cy="170" r="80" fill="#2c8b3b"/> <circle cx="200" cy="210" r="60" fill="#3aa24b"/> <circle cx="292" cy="210" r="60" fill="#2a7f36"/> <rect x="360" y="230" width="18" height="95" rx="4" fill="#6b3b1d"/> <circle cx="369" cy="210" r="40" fill="#2e8b37"/> <rect x="410" y="250" width="16" height="75" rx="3" fill="#6b3b1d"/> <circle cx="418" cy="235" r="34" fill="#2aa44b"/> <circle cx="384" cy="260" r="28" fill="#2b8b39"/> <rect x="120" y="260" width="28" height="120" rx="4" fill="#4f2b18"/> <path d="M134 240 C100 240 100 200 134 200 C152 185 172 185 190 200 C210 220 200 240 170 240 Z" fill="#195a20" opacity="0.95"/> <rect x="280" y="270" width="36" height="110" rx="5" fill="#4b2a17"/> <path d="M298 250 L260 300 L336 300 Z" fill="#1e5d27" opacity="0.95"/> </svg>