<svg xmlns="http://www.w3.org/2000/svg" width="512" height="512" viewBox="0 0 512 512">
  <rect width="512" height="512" fill="#8cc152" />
  <ellipse cx="260" cy="360" rx="220" ry="100" fill="#67a53a" />
  <ellipse cx="400" cy="360" rx="80" ry="40" fill="#4c9a2a" />

  <!-- Hole and flag -->
  <circle cx="400" cy="360" r="18" fill="#071019" />
  <circle cx="400" cy="360" r="30" fill="rgba(0,0,0,0.08)" />
  <rect x="396.5" y="240" width="3" height="120" fill="#6b4b2d" />
  <polygon points="399.5,250 399.5,286 430,268" fill="#e63946" />

  <!-- Golf ball on a tee -->
  <circle cx="220" cy="320" r="14" fill="#ffffff" stroke="#d8d8d8" stroke-width="1" />
  <g fill="#cfcfcf">
    <circle cx="214" cy="316" r="2" />
    <circle cx="228" cy="316" r="2" />
    <circle cx="220" cy="308" r="1.6" />
    <circle cx="220" cy="324" r="1.6" />
    <circle cx="212" cy="322" r="1.5" />
    <circle cx="228" cy="322" r="1.5" />
  </g>
  <polygon points="218,336 222,336 220,348" fill="#ff6b6b" />

  <!-- Golf club (shaft and head) -->
  <rect x="120" y="180" width="8" height="210" rx="4" transform="rotate(25 124 185)" fill="#2f2f2f" />
  <path d="M245 336c-18 -4 -34 -10 -42 -16 -6 -4 -10 -12 -7 -18 3 -6 11 -9 17 -12 12 -5 28 -8 42 -12 6 -2 13 1 17 6 6 8 9 18 5 27 -5 12 -18 24 -32 25z" fill="#3a3a3a" transform="translate(-20,-6) rotate(-20 220 320)" />

  <!-- subtle shadows -->
  <ellipse cx="220" cy="338" rx="20" ry="6" fill="rgba(0,0,0,0.12)" />
  <ellipse cx="360" cy="392" rx="40" ry="10" fill="rgba(0,0,0,0.08)" />
</svg>