<svg xmlns="http://www.w3.org/2000/svg" width="512" height="512" viewBox="0 0 512 512">
  <defs>
    <linearGradient id="bg" x1="0" x2="0" y1="0" y2="1">
      <stop offset="0%" stop-color="#cfeac2" />
      <stop offset="100%" stop-color="#9ccf9a" />
    </linearGradient>
    <radialGradient id="fur" cx="50%" cy="30%" r="80%">
      <stop offset="0%" stop-color="#3a3a3a" />
      <stop offset="100%" stop-color="#111" />
    </radialGradient>
  </defs>

  <!-- background -->
  <rect width="512" height="512" fill="url(#bg)" />
  <!-- ground shadow -->
  <ellipse cx="256" cy="470" rx="210" ry="24" fill="#2e4d34" opacity="0.35" />

  <!-- body and chest -->
  <ellipse cx="256" cy="320" rx="160" ry="140" fill="url(#fur)" />
  <!-- lighter chest patch -->
  <ellipse cx="256" cy="330" rx="90" ry="70" fill="#4f4f4f" opacity="0.35" />

  <!-- left arm (viewer right) -->
  <path d="M380 270 C 460 300, 420 420, 320 420 C 300 420, 290 380, 310 360 C 340 330, 360 300, 380 270 Z" fill="#1f1f1f" />
  <!-- right arm (viewer left) -->
  <path d="M132 270 C 52 300, 90 420, 190 420 C 210 420, 220 380, 200 360 C 170 330, 150 300, 132 270 Z" fill="#1f1f1f" />

  <!-- fists / knuckles in front -->
  <g transform="translate(0,10)">
    <ellipse cx="200" cy="420" rx="54" ry="40" fill="#2a2a2a" />
    <ellipse cx="316" cy="420" rx="60" ry="44" fill="#2a2a2a" />
    <!-- knuckle highlights -->
    <ellipse cx="190" cy="412" rx="12" ry="8" fill="#474747" />
    <ellipse cx="210" cy="412" rx="12" ry="8" fill="#474747" />
    <ellipse cx="302" cy="412" rx="14" ry="9" fill="#474747" />
    <ellipse cx="322" cy="412" rx="14" ry="9" fill="#474747" />
  </g>

  <!-- head -->
  <g>
    <ellipse cx="256" cy="170" rx="92" ry="88" fill="#171717" />
    <!-- brow ridge -->
    <path d="M180 150 C 200 120, 300 120, 332 150 C 320 140, 280 132, 256 132 C 232 132, 192 140, 180 150 Z" fill="#0f0f0f" />
    <!-- face muzzle -->
    <ellipse cx="256" cy="200" rx="52" ry="46" fill="#6b6b6b" />
    <!-- nose area -->
    <path d="M232 196 C 236 186, 276 186, 280 196 C 276 198, 236 198, 232 196 Z" fill="#4a4a4a" />
    <!-- nostrils -->
    <ellipse cx="246" cy="202" rx="6" ry="8" fill="#262626" />
    <ellipse cx="266" cy="202" rx="6" ry="8" fill="#262626" />
    <!-- mouth shadow -->
    <path d="M240 214 C 250 222, 262 222, 272 214" stroke="#2a2a2a" stroke-width="4" stroke-linecap="round" fill="none" opacity="0.9" />

    <!-- eyes -->
    <ellipse cx="236" cy="176" rx="12" ry="9" fill="#fff" />
    <ellipse cx="276" cy="176" rx="12" ry="9" fill="#fff" />
    <circle cx="236" cy="178" r="5" fill="#0b0b0b" />
    <circle cx="276" cy="178" r="5" fill="#0b0b0b" />
    <!-- small catchlights -->
    <circle cx="233" cy="175" r="2" fill="#fff" opacity="0.9" />
    <circle cx="273" cy="175" r="2" fill="#fff" opacity="0.9" />

    <!-- ears -->
    <ellipse cx="188" cy="170" rx="18" ry="14" fill="#151515" />
    <ellipse cx="324" cy="170" rx="18" ry="14" fill="#151515" />
  </g>

  <!-- subtle chest fur texture -->
  <path d="M200 300 C 230 280, 282 280, 312 300" stroke="#131313" stroke-width="6" stroke-linecap="round" fill="none" opacity="0.15" />

</svg>