<svg xmlns="http://www.w3.org/2000/svg" width="512" height="512" viewBox="0 0 512 512">
  <defs>
    <linearGradient id="bgGrad" x1="0%" y1="0%" x2="100%" y2="100%">
      <stop offset="0%" stop-color="#071021" />
      <stop offset="100%" stop-color="#132238" />
    </linearGradient>
    <radialGradient id="sunGlow" cx="50%" cy="40%" r="50%">
      <stop offset="0%" stop-color="#fff9d6" stop-opacity="1"/>
      <stop offset="40%" stop-color="#ffe08a" stop-opacity="0.9"/>
      <stop offset="100%" stop-color="#ff9f3b" stop-opacity="0"/>
    </radialGradient>
    <radialGradient id="lampGlow" cx="50%" cy="50%" r="50%">
      <stop offset="0%" stop-color="#fffbe6" stop-opacity="1"/>
      <stop offset="60%" stop-color="#ffd17a" stop-opacity="0.6"/>
      <stop offset="100%" stop-color="#ff7b2b" stop-opacity="0"/>
    </radialGradient>
    <filter id="soft" x="-50%" y="-50%" width="200%" height="200%">
      <feGaussianBlur stdDeviation="8" result="b" />
      <feMerge>
        <feMergeNode in="b" />
        <feMergeNode in="SourceGraphic" />
      </feMerge>
    </filter>
  </defs>

  <!-- Background -->
  <rect width="100%" height="100%" fill="url(#bgGrad)" />

  <!-- Distant subtle stars -->
  <g fill="#fff7d9" fill-opacity="0.12">
    <circle cx="70" cy="60" r="2.2" />
    <circle cx="120" cy="40" r="1.6" />
    <circle cx="430" cy="80" r="1.8" />
    <circle cx="360" cy="50" r="1.4" />
    <circle cx="250" cy="30" r="2.0" />
    <circle cx="460" cy="180" r="1.6" />
  </g>

  <!-- Central glow representing illumination -->
  <circle cx="256" cy="170" r="110" fill="url(#sunGlow)" filter="url(#soft)" />

  <!-- Radiant rays -->
  <g transform="translate(256,170)" fill="#fff3b8" opacity="0.92">
    <polygon points="0,-78 8,-132 -8,-132" transform="rotate(0)" />
    <polygon points="0,-78 12,-128 -12,-128" transform="rotate(22.5)" />
    <polygon points="0,-78 10,-132 -10,-132" transform="rotate(45)" />
    <polygon points="0,-78 12,-128 -12,-128" transform="rotate(67.5)" />
    <polygon points="0,-78 8,-132 -8,-132" transform="rotate(90)" />
    <polygon points="0,-78 10,-132 -10,-132" transform="rotate(112.5)" />
    <polygon points="0,-78 12,-128 -12,-128" transform="rotate(135)" />
    <polygon points="0,-78 8,-132 -8,-132" transform="rotate(157.5)" />
  </g>

  <!-- Stylized open book below the glow -->
  <g transform="translate(256,350)">
    <!-- left page -->
    <path d="M-170,0 L-10,-70 L-10,0 Z" fill="#f8f0e6" stroke="#d9c9b6" stroke-width="2" />
    <!-- right page -->
    <path d="M170,0 L10,-70 L10,0 Z" fill="#f8f0e6" stroke="#d9c9b6" stroke-width="2" />
    <!-- page crease / spine -->
    <path d="M-10,-70 L10,-70 L10,0 L-10,0 Z" fill="#ecdcc6" stroke="#d0bfa6" stroke-width="1" />

    <!-- subtle page lines (no letters) -->
    <g stroke="#e6d9c9" stroke-width="1.4" stroke-linecap="round" opacity="0.9">
      <path d="M-150,-10 L-20,-10" />
      <path d="M-150,-2 L-20,-2" />
      <path d="M-150,6 L-20,6" />

      <path d="M150,-10 L20,-10" />
      <path d="M150,-2 L20,-2" />
      <path d="M150,6 L20,6" />
    </g>

    <!-- shadow under book -->
    <ellipse cx="0" cy="18" rx="160" ry="24" fill="#000" opacity="0.12" />
  </g>

  <!-- Small floating sparks between book and glow -->
  <g fill="#fff8c7" opacity="0.95">
    <circle cx="230" cy="230" r="3.2" />
    <circle cx="280" cy="210" r="2.6" />
    <circle cx="260" cy="250" r="2.8" />
    <circle cx="300" cy="190" r="2.2" />
    <circle cx="220" cy="200" r="2.0" />
  </g>

  <!-- Decorative soft lamp silhouette at center of glow to emphasize light-source idea -->
  <g transform="translate(256,170)">
    <path d="M0,-38 C18,-38 34,-24 34,-6 C34,18 -28,36 -34,36 C-40,36 -34,18 -34,-6 C-34,-24 -18,-38 0,-38 Z" fill="#ffd78a" opacity="0.95" filter="url(#soft)"/>
    <path d="M0,-22 C10,-22 18,-16 18,-8 C18,6 -14,18 -18,18 C-22,18 -18,6 -18,-8 C-18,-16 -10,-22 0,-22 Z" fill="#fff6cd" opacity="0.95"/>
  </g>

</svg>