<svg xmlns="http://www.w3.org/2000/svg" width="512" height="512" viewBox="0 0 512 512">
  <defs>
    <linearGradient id="bg" x1="0" x2="0" y1="0" y2="1">
      <stop offset="0%" stop-color="#083B6B"/>
      <stop offset="60%" stop-color="#0b6ea8"/>
      <stop offset="100%" stop-color="#1aa0d6"/>
    </linearGradient>
    <radialGradient id="bellPink" cx="50%" cy="35%" r="60%">
      <stop offset="0%" stop-color="#ffc7ea" stop-opacity="0.95"/>
      <stop offset="60%" stop-color="#ff7fbf" stop-opacity="0.8"/>
      <stop offset="100%" stop-color="#ff5fa1" stop-opacity="0.6"/>
    </radialGradient>
    <radialGradient id="bellBlue" cx="50%" cy="35%" r="60%">
      <stop offset="0%" stop-color="#cfeeff" stop-opacity="0.95"/>
      <stop offset="60%" stop-color="#77d4ff" stop-opacity="0.8"/>
      <stop offset="100%" stop-color="#3cbfff" stop-opacity="0.6"/>
    </radialGradient>
    <linearGradient id="tentPink" x1="0" x2="0" y1="0" y2="1">
      <stop offset="0%" stop-color="#ff9ac0" stop-opacity="0.9"/>
      <stop offset="100%" stop-color="#ff4d95" stop-opacity="0.6"/>
    </linearGradient>
    <linearGradient id="tentBlue" x1="0" x2="0" y1="0" y2="1">
      <stop offset="0%" stop-color="#aee6ff" stop-opacity="0.9"/>
      <stop offset="100%" stop-color="#4fc8ff" stop-opacity="0.6"/>
    </linearGradient>
  </defs>
  <rect width="100%" height="100%" fill="url(#bg)"/>
  <g fill="#ffffff" opacity="0.15">
    <circle cx="80" cy="80" r="10"/>
    <circle cx="130" cy="50" r="6"/>
    <circle cx="460" cy="120" r="8"/>
    <circle cx="400" cy="60" r="5"/>
  </g>

  <g transform="translate(340,170)">
    <path d="M0 -70 C60 -70 100 -10 90 30 C85 60 40 85 0 95 C-40 85 -85 60 -90 30 C-100 -10 -60 -70 0 -70 Z" fill="url(#bellPink)" stroke="#ff8bb3" stroke-opacity="0.6" stroke-width="3" />
    <path d="M-40 -10 C-20 20 -10 40 -5 70" fill="none" stroke="url(#tentPink)" stroke-width="4" stroke-linecap="round" stroke-opacity="0.9"/>
    <path d="M-10 0 C10 30 15 50 18 78" fill="none" stroke="url(#tentPink)" stroke-width="3.5" stroke-linecap="round" stroke-opacity="0.8"/>
    <path d="M10 5 C30 35 38 58 45 84" fill="none" stroke="url(#tentPink)" stroke-width="3" stroke-linecap="round" stroke-opacity="0.7"/>
    <path d="M30 10 C20 45 10 70 5 90" fill="none" stroke="url(#tentPink)" stroke-width="2.5" stroke-linecap="round" stroke-opacity="0.6"/>
    <ellipse cx="0" cy="-20" rx="38" ry="18" fill="#ffffff" opacity="0.15"/>
  </g>

  <g transform="translate(150,260) scale(0.9)">
    <path d="M0 -45 C40 -45 70 -6 64 20 C60 40 30 55 0 62 C-30 55 -60 40 -64 20 C-70 -6 -40 -45 0 -45 Z" fill="url(#bellBlue)" stroke="#5fcfff" stroke-opacity="0.6" stroke-width="2.5"/>
    <path d="M-12 0 C-18 18 -20 34 -18 50" fill="none" stroke="url(#tentBlue)" stroke-width="3" stroke-linecap="round" stroke-opacity="0.85"/>
    <path d="M0 4 C6 22 12 36 10 52" fill="none" stroke="url(#tentBlue)" stroke-width="2.8" stroke-linecap="round" stroke-opacity="0.75"/>
    <path d="M15 6 C20 28 26 44 24 60" fill="none" stroke="url(#tentBlue)" stroke-width="2.2" stroke-linecap="round" stroke-opacity="0.65"/>
    <ellipse cx="0" cy="-12" rx="26" ry="12" fill="#ffffff" opacity="0.12"/>
  </g>

  <g opacity="0.5" fill="#ffffff">
    <path d="M350 240 C360 250 370 260 375 275 C380 290 365 305 350 300 C335 295 320 280 325 265 C330 250 340 240 350 240 Z" opacity="0.06"/>
  </g>
</svg>