<svg xmlns="http://www.w3.org/2000/svg" width="512" height="512" viewBox="0 0 512 512">
  <defs>
    <radialGradient id="bgGrad" cx="50%" cy="40%" r="80%">
      <stop offset="0%" stop-color="#070617" />
      <stop offset="100%" stop-color="#0b0f1a" />
    </radialGradient>
    <radialGradient id="marsGrad" cx="35%" cy="30%" r="70%">
      <stop offset="0%" stop-color="#ffd6bf" />
      <stop offset="35%" stop-color="#ff7a45" />
      <stop offset="100%" stop-color="#9b2a18" />
    </radialGradient>
    <clipPath id="planetClip">
      <circle cx="300" cy="260" r="170" />
    </clipPath>
    <filter id="softGlow" x="-50%" y="-50%" width="200%" height="200%">
      <feGaussianBlur stdDeviation="8" result="b" />
      <feMerge><feMergeNode in="b"/><feMergeNode in="SourceGraphic"/></feMerge>
    </filter>
  </defs>

  <!-- background -->
  <rect width="100%" height="100%" fill="url(#bgGrad)" />

  <!-- stars -->
  <g fill="#ffffff" opacity="0.85">
    <circle cx="40" cy="60" r="1.8" opacity="0.9" />
    <circle cx="120" cy="40" r="1.2" opacity="0.7" />
    <circle cx="200" cy="90" r="2.0" opacity="0.85" />
    <circle cx="460" cy="30" r="1.4" opacity="0.6" />
    <circle cx="360" cy="120" r="1.6" opacity="0.8" />
    <circle cx="80" cy="210" r="1.1" opacity="0.6" />
    <circle cx="280" cy="30" r="1.3" opacity="0.7" />
    <circle cx="450" cy="200" r="1.6" opacity="0.75" />
    <circle cx="330" cy="420" r="1.2" opacity="0.6" />
    <circle cx="150" cy="330" r="1.4" opacity="0.7" />
  </g>

  <!-- planet (Mars) -->
  <g filter="url(#softGlow)">
    <circle cx="300" cy="260" r="170" fill="url(#marsGrad)" />
    <!-- subtle highlight -->
    <ellipse cx="235" cy="200" rx="68" ry="68" fill="#ffffff" opacity="0.12" />
  </g>

  <!-- surface details clipped to planet -->
  <g clip-path="url(#planetClip)">
    <!-- darker regions / plains -->
    <path d="M210 170 C250 150, 320 160, 360 190 C340 230, 280 240, 240 230 C210 220, 200 200, 210 170 Z" fill="#7a2a1d" opacity="0.7" />
    <ellipse cx="330" cy="300" rx="90" ry="50" fill="#7b2b1f" opacity="0.55" transform="rotate(-18 330 300)" />
    <ellipse cx="260" cy="330" rx="40" ry="26" fill="#8b3a2b" opacity="0.5" />

    <!-- craters -->
    <g opacity="0.9">
      <circle cx="320" cy="240" r="22" fill="#8f3b2a" />
      <circle cx="320" cy="240" r="10" fill="#b55a44" opacity="0.12" />

      <circle cx="220" cy="300" r="28" fill="#8a3428" />
      <circle cx="220" cy="300" r="12" fill="#c46b53" opacity="0.12" />

      <circle cx="280" cy="200" r="16" fill="#8e3a2a" />
      <circle cx="280" cy="200" r="7" fill="#c76b57" opacity="0.12" />
    </g>
  </g>

  <!-- two small moons -->
  <g>
    <g transform="translate(420,110)">
      <circle cx="0" cy="0" r="18" fill="#cfcfcf" />
      <circle cx="-6" cy="-3" r="4" fill="#b3b3b3" />
      <circle cx="5" cy="5" r="3" fill="#b7b7b7" />
    </g>

    <g transform="translate(370,70)">
      <ellipse cx="0" cy="0" rx="12" ry="10" fill="#d3d3d3" />
      <circle cx="-4" cy="2" r="2.5" fill="#b9b9b9" />
    </g>
  </g>

  <!-- faint planetary ring-like dust (subtle) -->
  <ellipse cx="300" cy="260" rx="220" ry="80" fill="none" stroke="#ffb8a0" stroke-opacity="0.06" stroke-width="18" />
</svg>