<svg xmlns="http://www.w3.org/2000/svg" width="512" height="512" viewBox="0 0 512 512"><rect width="512" height="512" fill="#a9e6ff"/><rect x="40" y="380" width="432" height="30" rx="15" fill="#8b5a2b"/><polygon points="220,320 200,440 240,450 260,330" fill="#1f78b4"/><polygon points="240,320 220,460 260,470 280,330" fill="#2ca02c" opacity="0.95"/><polygon points="260,320 240,480 280,490 300,340" fill="#d64545" opacity="0.95"/><ellipse cx="300" cy="260" rx="90" ry="120" fill="#2ca02c"/><ellipse cx="310" cy="300" rx="55" ry="80" fill="#a8e6a1"/><path d="M330 240 C380 200 420 260 360 300 C400 320 340 330 300 300 Z" fill="#21618c"/><circle cx="230" cy="175" r="60" fill="#e63946"/><polygon points="200,130 220,90 240,130" fill="#c0392b"/><polygon points="220,130 240,100 260,130" fill="#b71c1c"/><polygon points="240,130 260,95 280,130" fill="#c0392b"/><circle cx="212" cy="162" r="11" fill="#ffffff"/><circle cx="212" cy="162" r="5" fill="#000000"/><polygon points="270,190 350,205 300,225" fill="#f1c40f"/><polygon points="270,215 320,230 300,225" fill="#d35400"/><path d="M270 360 C270 365 260 370 250 370" stroke="#7a4b2a" stroke-width="6" stroke-linecap="round" fill="none"/><path d="M300 360 C300 365 290 370 280 370" stroke="#7a4b2a" stroke-width="6" stroke-linecap="round" fill="none"/></svg>