<svg xmlns="http://www.w3.org/2000/svg" width="512" height="512" viewBox="0 0 512 512"> <rect width="100%" height="100%" fill="#f8f8f8"/> <defs> <radialGradient id="g1" cx="30%" cy="40%" r="60%"> <stop offset="0" stop-color="#ffd6ef"/> <stop offset="1" stop-color="#ff2d8b"/> </radialGradient> <radialGradient id="g2" cx="50%" cy="40%" r="60%"> <stop offset="0" stop-color="#ffffff"/> <stop offset="1" stop-color="#f2f2f2"/> </radialGradient> </defs> <ellipse cx="260" cy="380" rx="140" ry="80" fill="#e3e3e3" opacity="0.4"/> <g transform="translate(150,260) rotate(-20)"> <ellipse cx="0" cy="0" rx="120" ry="170" fill="url(#g1)" stroke="#d01e73" stroke-width="6"/> <path d="M -90 -40 C -140 -70 -150 -30 -120 0 C -140 -20 -110 -20 -90 -40 Z" fill="#6bda61"/> <path d="M -100 10 C -150 -10 -150 30 -120 60 C -140 30 -110 20 -100 10 Z" fill="#7ee06b"/> <path d="M -60 -120 C -100 -160 -80 -140 -50 -120 C -70 -140 -60 -130 -60 -120 Z" fill="#63d24f"/> <path d="M -20 -140 C -40 -190 -10 -180 10 -150 C -5 -170 -10 -150 -20 -140 Z" fill="#6de46b"/> <path d="M 20 -120 C 10 -170 40 -160 60 -130 C 35 -150 20 -135 20 -120 Z" fill="#6bdc58"/> <path d="M 60 -90 C 90 -120 100 -90 90 -60 C 80 -80 70 -75 60 -90 Z" fill="#7be97a"/> <path d="M 90 -40 C 140 -70 150 -30 120 0 C 140 -20 110 -20 90 -40 Z" fill="#60c84a"/> <ellipse cx="-30" cy="-50" rx="25" ry="40" fill="#ffb5d9" opacity="0.5"/> </g> <g transform="translate(370,180)"> <ellipse cx="0" cy="0" rx="110" ry="110" fill="#ff2d8b" stroke="#d01e73" stroke-width="6"/> <ellipse cx="0" cy="0" rx="86" ry="86" fill="url(#g2)"/> <g fill="#111111" opacity="0.95"> <ellipse cx="-10" cy="-5" rx="4" ry="6" transform="rotate(-20 -10 -5)"/> <ellipse cx="0" cy="20" rx="3.5" ry="5" transform="rotate(10 0 20)"/> <ellipse cx="30" cy="10" rx="3" ry="5" transform="rotate(30 30 10)"/> <ellipse cx="15" cy="-30" rx="3.5" ry="5" transform="rotate(-30 15 -30)"/> <ellipse cx="-25" cy="-15" rx="3" ry="5" transform="rotate(-10 -25 -15)"/> <ellipse cx="-40" cy="20" rx="3" ry="5" transform="rotate(15 -40 20)"/> <ellipse cx="-5" cy="-40" rx="3" ry="5" transform="rotate(-40 -5 -40)"/> <ellipse cx="40" cy="-5" rx="3.5" ry="5" transform="rotate(25 40 -5)"/> <ellipse cx="55" cy="30" rx="3" ry="5" transform="rotate(40 55 30)"/> <ellipse cx="-55" cy="-5" rx="3" ry="5" transform="rotate(-15 -55 -5)"/> <ellipse cx="-15" cy="35" rx="3" ry="5" transform="rotate(20 -15 35)"/> <ellipse cx="10" cy="45" rx="2.8" ry="4.8" transform="rotate(35 10 45)"/> <ellipse cx="40" cy="40" rx="3" ry="5" transform="rotate(20 40 40)"/> <ellipse cx="0" cy="-10" rx="4" ry="6" transform="rotate(0 0 -10)"/> <ellipse cx="-30" cy="5" rx="3" ry="5" transform="rotate(-5 -30 5)"/> <ellipse cx="25" cy="-20" rx="3" ry="5" transform="rotate(-25 25 -20)"/> <ellipse cx="5" cy="-25" rx="2.5" ry="4" transform="rotate(-15 5 -25)"/> <ellipse cx="18" cy="-8" rx="2.5" ry="4" transform="rotate(10 18 -8)"/> </g> <path d="M -86 20 C -110 10 -100 40 -80 45 C -95 35 -90 30 -86 20 Z" fill="#7ee06b"/> </g> </svg>