<svg xmlns="http://www.w3.org/2000/svg" width="512" height="512" viewBox="0 0 512 512"><rect width="512" height="512" fill="#87CEEB"/><g fill="none" stroke-linecap="round" stroke-linejoin="round"><path d="M-54 360 A310 310 0 0 1 566 360" stroke="#FF3B30" stroke-width="28"/><path d="M-20 360 A276 276 0 0 1 532 360" stroke="#FF9500" stroke-width="28"/><path d="M14 360 A242 242 0 0 1 498 360" stroke="#FFCC00" stroke-width="28"/><path d="M48 360 A208 208 0 0 1 464 360" stroke="#34C759" stroke-width="28"/><path d="M82 360 A174 174 0 0 1 430 360" stroke="#007AFF" stroke-width="28"/><path d="M116 360 A140 140 0 0 1 396 360" stroke="#5856D6" stroke-width="28"/><path d="M150 360 A106 106 0 0 1 362 360" stroke="#AF52DE" stroke-width="28"/></g><g fill="#FFFFFF" stroke="#E6E6E6" stroke-width="2"><circle cx="110" cy="400" r="30"/><circle cx="140" cy="390" r="36"/><circle cx="160" cy="410" r="24"/><ellipse cx="135" cy="420" rx="58" ry="20"/></g><g fill="#FFFFFF" stroke="#E6E6E6" stroke-width="2"><circle cx="402" cy="400" r="30"/><circle cx="372" cy="390" r="36"/><circle cx="352" cy="410" r="24"/><ellipse cx="377" cy="420" rx="58" ry="20"/></g></svg>