<svg xmlns="http://www.w3.org/2000/svg" width="512" height="512" viewBox="0 0 512 512">
  <rect width="100%" height="100%" fill="#ffffff"/>
  <g stroke-linecap="round" stroke-linejoin="round">
    <path d="M120 160 C80 150 80 140 120 130" stroke="#9ec9ff" stroke-width="6" fill="none" opacity="0.9"/>
    <path d="M110 200 C70 190 70 180 110 170" stroke="#9ec9ff" stroke-width="6" fill="none" opacity="0.7"/>
    <path d="M140 220 C100 210 100 200 140 190" stroke="#9ec9ff" stroke-width="6" fill="none" opacity="0.6"/>
  </g>
  <g stroke="#222" fill="none" stroke-linecap="round" stroke-linejoin="round">
    <path d="M206 168 C218 200 230 240 252 270" stroke-width="14"/>
    <path d="M216 190 C250 210 280 200 310 220" stroke-width="12"/>
    <path d="M212 180 C180 160 160 150 150 160" stroke-width="12"/>
    <path d="M252 270 C230 320 205 360 178 386" stroke-width="14"/>
    <path d="M252 270 C290 332 320 370 348 396" stroke-width="14"/>
  </g>
  <circle cx="200" cy="140" r="26" fill="#f1c27d" stroke="#222" stroke-width="6"/>
  <ellipse cx="178" cy="388" rx="18" ry="10" fill="#222"/>
  <ellipse cx="348" cy="398" rx="18" ry="10" fill="#222"/>
  <ellipse cx="280" cy="420" rx="180" ry="18" fill="#000" opacity="0.08"/>
  <g stroke="#222" stroke-width="6" stroke-linecap="round">
    <path d="M320 340 L340 328" stroke-opacity="0.6"/>
    <path d="M300 360 L325 350" stroke-opacity="0.5"/>
  </g>
</svg>