<svg xmlns="http://www.w3.org/2000/svg" width="512" height="512" viewBox="0 0 512 512">
  <rect width="100%" height="100%" fill="#f6f7f9" />
  <defs>
    <linearGradient id="handleGrad" x1="0" y1="0" x2="1" y2="1">
      <stop offset="0" stop-color="#ff8a65" />
      <stop offset="1" stop-color="#b23b2b" />
    </linearGradient>
    <linearGradient id="shaftGrad" x1="0" y1="0" x2="1" y2="0">
      <stop offset="0" stop-color="#e6e6e6" />
      <stop offset="1" stop-color="#9a9a9a" />
    </linearGradient>
  </defs>

  <!-- subtle ground shadow -->
  <ellipse cx="256" cy="440" rx="160" ry="26" fill="#000" opacity="0.06" />

  <!-- screwdriver group: position then rotate -->
  <g transform="translate(60,420) rotate(-35)">
    <!-- metal shaft -->
    <rect x="-20" y="46" width="260" height="20" rx="4" fill="url(#shaftGrad)" stroke="#6b6b6b" stroke-width="3" />
    <!-- tip (flathead) -->
    <polygon points="-40,46 -40,66 -12,56" fill="#7b7b7b" stroke="#4b4b4b" stroke-width="2" />
    <!-- slotted tip detail -->
    <rect x="-32" y="52" width="24" height="6" rx="2" fill="#2d2d2d" opacity="0.95" />

    <!-- handle -->
    <rect x="200" y="10" width="170" height="90" rx="28" fill="url(#handleGrad)" stroke="#5a1f1f" stroke-width="4" />
    <!-- handle highlight -->
    <ellipse cx="270" cy="35" rx="50" ry="16" fill="#ffffff" opacity="0.12" />
    <!-- grip ridges -->
    <g fill="#ffffff" opacity="0.14">
      <rect x="220" y="28" width="10" height="62" rx="5" />
      <rect x="244" y="28" width="10" height="62" rx="5" />
      <rect x="268" y="28" width="10" height="62" rx="5" />
      <rect x="292" y="28" width="10" height="62" rx="5" />
      <rect x="316" y="28" width="10" height="62" rx="5" />
    </g>
    <!-- butt end shading -->
    <ellipse cx="295" cy="65" rx="38" ry="22" fill="#000" opacity="0.08" />
  </g>
</svg>