<svg xmlns="http://www.w3.org/2000/svg" width="512" height="512" viewBox="0 0 512 512"> <defs> <clipPath id="ballClip"><circle cx="256" cy="256" r="220"/></clipPath> </defs> <rect width="512" height="512" fill="none"/> <circle cx="256" cy="256" r="220" fill="#ffffff"/> <g clip-path="url(#ballClip)"> <polygon points="256,206 303.553,240.549 285.39,296.45 226.61,296.45 208.447,240.549" fill="#000000"/> <polygon points="256,106 294.0424,133.6392 279.512,178.36 232.488,178.36 217.9576,133.6392" fill="#000000"/> <polygon points="360.6166,182 398.659,209.6392 384.1286,254.36 337.1046,254.36 322.5742,209.6392" fill="#000000"/> <polygon points="320.658,304.99 358.7004,332.6292 344.17,377.35 297.146,377.35 282.6156,332.6292" fill="#000000"/> <polygon points="191.342,304.99 229.3844,332.6292 214.854,377.35 167.83,377.35 153.2996,332.6292" fill="#000000"/> <polygon points="151.383,182 189.4254,209.6392 174.895,254.36 127.871,254.36 113.3406,209.6392" fill="#000000"/> <path d="M130 130 C200 90 312 90 382 130" stroke="#000000" stroke-width="8" stroke-linecap="round" fill="none"/> <path d="M130 382 C200 422 312 422 382 382" stroke="#000000" stroke-width="8" stroke-linecap="round" fill="none"/> <path d="M90 256 C160 220 352 292 422 256" stroke="#000000" stroke-width="8" stroke-linecap="round" fill="none"/> <path d="M180 180 C220 210 292 250 332 210" stroke="#000000" stroke-width="6" stroke-linecap="round" fill="none" opacity="0.9"/> </g> <circle cx="256" cy="256" r="220" fill="none" stroke="#000000" stroke-width="6"/> </svg>