<svg xmlns="http://www.w3.org/2000/svg" width="512" height="512" viewBox="0 0 512 512"><rect width="100%" height="100%" fill="#ffffff"/><path d="M160 352c-40 0-72-32-72-72s32-72 72-72c4 0 8 0 12 1 9-22 30-39 56-39 34 0 62 28 62 62 0 2 0 4-1 6 24 11 40 35 40 62 0 38-30 68-68 68H160z" fill="#f2c9a9" stroke="#8b5a3c" stroke-width="6" stroke-linejoin="round"/><circle cx="160" cy="300" r="14" fill="#e6b89a" stroke="#8b5a3c" stroke-width="4"/><circle cx="320" cy="120" r="18" fill="#ffffff" stroke="#9ec9ff" stroke-width="6"/><circle cx="360" cy="80" r="28" fill="#ffffff" stroke="#9ec9ff" stroke-width="6"/><path d="M396 64c28 8 44 34 40 60-4 30-36 52-72 48-30-4-52-28-56-56-4-28 12-56 40-68 14-6 32-6 48 4z" fill="#ffffff" stroke="#9ec9ff" stroke-width="6" stroke-linejoin="round"/><path d="M372 96c-8-6-20-8-30-4-10 4-16 14-18 26-2 6 0 18 8 22 8 6 18 4 26 0 8-4 14-12 18-20 2-6 2-14-2-24z" fill="none" stroke="#ff8b8b" stroke-width="6" stroke-linecap="round" stroke-linejoin="round"/><path d="M400 136c-6 6-16 10-26 8-12-2-22-10-28-20" fill="none" stroke="#ff8b8b" stroke-width="6" stroke-linecap="round"/><path d="M220 120c10-20 40-32 64-28" fill="none" stroke="#ffd86b" stroke-width="6" stroke-linecap="round"/><path d="M232 96c6-10 20-18 36-18" fill="none" stroke="#ffd86b" stroke-width="4" stroke-linecap="round"/><ellipse cx="176" cy="404" rx="92" ry="18" fill="#000000" opacity="0.06"/></svg>