<svg xmlns="http://www.w3.org/2000/svg" width="512" height="512" viewBox="0 0 512 512">
  <defs>
    <linearGradient id="sky" x1="0" y1="0" x2="0" y2="1">
      <stop offset="0" stop-color="#fff0f2"/>
      <stop offset="1" stop-color="#ffffff"/>
    </linearGradient>
    <radialGradient id="sunGrad" cx="50%" cy="40%" r="50%">
      <stop offset="0" stop-color="#ff5a5a"/>
      <stop offset="1" stop-color="#d90012"/>
    </radialGradient>
  </defs>
  <rect width="100%" height="100%" fill="url(#sky)"/>
  <circle cx="360" cy="120" r="68" fill="url(#sunGrad)"/>

  <g fill="#263238">
    <rect x="24" y="352" width="48" height="160" rx="4"/>
    <rect x="88" y="300" width="56" height="212" rx="3"/>
    <rect x="156" y="332" width="40" height="180" rx="3"/>
    <rect x="208" y="280" width="72" height="232" rx="3"/>
    <rect x="296" y="316" width="48" height="196" rx="3"/>
    <rect x="356" y="288" width="36" height="224" rx="3"/>
    <rect x="404" y="340" width="72" height="172" rx="3"/>
  </g>

  <g>
    <polygon points="256,100 218,420 234,420 250,300 262,300 278,420 294,420" fill="#ff6f00" stroke="#c35000" stroke-width="2"/>
    <rect x="248" y="120" width="16" height="180" fill="#d94800"/>
    <ellipse cx="256" cy="230" rx="68" ry="12" fill="#c63f00" stroke="#a33300" stroke-width="2"/>
    <ellipse cx="256" cy="250" rx="88" ry="14" fill="#ff9a48" opacity="0.4"/>
    <g stroke="#c35000" stroke-width="2" stroke-linecap="round" opacity="0.9">
      <line x1="232" y1="420" x2="256" y2="120"/>
      <line x1="280" y1="420" x2="256" y2="120"/>
      <line x1="218" y1="360" x2="294" y2="360"/>
      <line x1="224" y1="300" x2="288" y2="300"/>
      <line x1="232" y1="240" x2="280" y2="240"/>
    </g>
    <rect x="252" y="80" width="8" height="30" fill="#ff6f00"/>
    <circle cx="256" cy="75" r="6" fill="#ffcdcd"/>
  </g>

  <g fill="#ffb7c5" opacity="0.95">
    <path d="M92 140 C100 120,120 120,126 140 C116 138,106 150,92 140 Z" transform="rotate(-20 110 135)"/>
    <path d="M60 200 C70 180,90 180,96 200 C86 198,74 210,60 200 Z" transform="rotate(10 78 195)"/>
    <path d="M420 190 C432 170,452 170,458 190 C448 188,436 200,420 190 Z" transform="rotate(25 440 185)"/>
    <path d="M320 90 C332 70,352 70,358 90 C348 88,336 100,320 90 Z" transform="rotate(-10 340 85)"/>
  </g>
</svg>