<svg xmlns="http://www.w3.org/2000/svg" width="512" height="512" viewBox="0 0 512 512"><rect width="100%" height="100%" fill="#E8F6FF"/><g fill="none" stroke-linecap="round" stroke-linejoin="round"><path d="M40 220 C120 180, 200 160, 300 180" stroke="#8FC9FF" stroke-width="10" opacity="0.95"/><path d="M60 260 C140 220, 220 200, 360 230" stroke="#BFE7FF" stroke-width="8" opacity="0.9"/><path d="M20 300 C120 260, 240 250, 420 280" stroke="#A6DBFF" stroke-width="6" opacity="0.85"/></g><g fill="none" stroke="#6FB0FF" stroke-width="6" stroke-linecap="round"><path d="M360 120 C380 110, 420 120, 430 140 C440 160, 420 180, 400 170 C390 165, 400 150, 395 145"/></g><g fill="#6BCB6B" stroke="#3E8E3E" stroke-width="1"><path d="M150 230 C155 220, 175 210, 190 215 C180 230, 165 235, 150 230" transform="rotate(-15 170 220)"/><path d="M220 200 C225 190, 245 180, 260 185 C250 200, 235 205, 220 200" transform="rotate(-10 240 195)"/><path d="M300 250 C305 240, 325 230, 340 235 C330 250, 315 255, 300 250" transform="rotate(10 320 245)"/></g><g fill="#F6D58F" stroke="#D4A03E" stroke-width="1"><path d="M200 280 C205 270, 225 260, 240 265 C230 280, 215 285, 200 280" transform="rotate(-20 220 272)"/></g><g stroke="#8FC9FF" stroke-width="6" stroke-linecap="round" fill="none" opacity="0.75"><path d="M420 360 C360 330, 320 320, 260 340"/></g></svg>