<svg viewBox="0 0 512 512" xmlns="http://www.w3.org/2000/svg"><defs><style>.coin { fill: #FFD700; stroke: #DAA520; stroke-width: 2; } .bill { fill: #90EE90; stroke: #228B22; stroke-width: 2; } .text-style { font-size: 24px; font-weight: bold; }</style></defs><rect width="512" height="512" fill="#F5F5F5"/><circle cx="150" cy="200" r="60" class="coin"/><circle cx="150" cy="200" r="60" fill="none" stroke="#DAA520" stroke-width="3"/><line x1="130" y1="200" x2="170" y2="200" stroke="#DAA520" stroke-width="2"/><line x1="150" y1="180" x2="150" y2="220" stroke="#DAA520" stroke-width="2"/><circle cx="280" cy="180" r="55" class="coin"/><circle cx="280" cy="180" r="55" fill="none" stroke="#DAA520" stroke-width="3"/><line x1="262" y1="180" x2="298" y2="180" stroke="#DAA520" stroke-width="2"/><line x1="280" y1="162" x2="280" y2="198" stroke="#DAA520" stroke-width="2"/><rect x="120" y="280" width="100" height="60" rx="5" class="bill"/><rect x="120" y="280" width="100" height="60" rx="5" fill="none" stroke="#228B22" stroke-width="2"/><line x1="130" y1="290" x2="210" y2="290" stroke="#228B22" stroke-width="1"/><line x1="130" y1="310" x2="210" y2="310" stroke="#228B22" stroke-width="1"/><line x1="130" y1="330" x2="210" y2="330" stroke="#228B22" stroke-width="1"/><rect x="260" y="290" width="100" height="60" rx="5" class="bill"/><rect x="260" y="290" width="100" height="60" rx="5" fill="none" stroke="#228B22" stroke-width="2"/><line x1="270" y1="300" x2="350" y2="300" stroke="#228B22" stroke-width="1"/><line x1="270" y1="320" x2="350" y2="320" stroke="#228B22" stroke-width="1"/><line x1="270" y1="340" x2="350" y2="340" stroke="#228B22" stroke-width="1"/></svg>