<svg viewBox="0 0 512 512" xmlns="http://www.w3.org/2000/svg"><defs><linearGradient id="rocketGrad" x1="0%" y1="0%" x2="0%" y2="100%"><stop offset="0%" style="stop-color:#ff4444;stop-opacity:1" /><stop offset="100%" style="stop-color:#cc0000;stop-opacity:1" /></linearGradient></defs><g><path d="M 256 80 L 280 180 L 320 180 L 290 220 L 310 300 L 256 260 L 202 300 L 222 220 L 192 180 L 232 180 Z" fill="url(#rocketGrad)" stroke="#8b0000" stroke-width="2"/><circle cx="256" cy="120" r="20" fill="#ffff00" stroke="#ff8800" stroke-width="2"/><polygon points="200,320 220,400 256,380 292,400 312,320" fill="#ff6600" stroke="#cc3300" stroke-width="2"/><polygon points="160,320 140,400 180,420" fill="#ff8800" stroke="#cc3300" stroke-width="2"/><polygon points="352,320 372,400 332,420" fill="#ff8800" stroke="#cc3300" stroke-width="2"/><ellipse cx="256" cy="420" rx="60" ry="40" fill="#ffaa00" stroke="#ff6600" stroke-width="2" opacity="0.8"/><ellipse cx="256" cy="430" rx="50" ry="30" fill="#ffff00" stroke="#ffaa00" stroke-width="1" opacity="0.6"/><ellipse cx="256" cy="440" rx="40" ry="20" fill="#ffff88" stroke="#ffff00" stroke-width="1" opacity="0.4"/></g></svg>