<svg viewBox="0 0 512 512" xmlns="http://www.w3.org/2000/svg"><rect width="512" height="512" fill="#ffffff"/><circle cx="256" cy="256" r="120" fill="#ff0000" opacity="0.8"/><circle cx="256" cy="256" r="100" fill="none" stroke="#000000" stroke-width="3"/><path d="M 256 180 L 280 220 L 320 200 L 300 240 L 330 270 L 280 260 L 270 310 L 256 270 L 242 310 L 231 260 L 182 270 L 212 240 L 192 200 L 232 220 Z" fill="#ff6b6b" stroke="#000000" stroke-width="2"/><circle cx="220" cy="200" r="8" fill="#000000"/><circle cx="292" cy="200" r="8" fill="#000000"/><path d="M 240 280 Q 256 290 272 280" fill="none" stroke="#000000" stroke-width="2" stroke-linecap="round"/><line x1="150" y1="380" x2="362" y2="380" stroke="#000000" stroke-width="3"/><line x1="160" y1="390" x2="352" y2="390" stroke="#000000" stroke-width="2"/><line x1="170" y1="400" x2="342" y2="400" stroke="#000000" stroke-width="2"/></svg>