<svg viewBox="0 0 512 512" xmlns="http://www.w3.org/2000/svg"><defs><style>.mouth{fill:none;stroke:#333;stroke-width:2;stroke-linecap:round}</style></defs><circle cx="256" cy="200" r="80" fill="#FFD700" stroke="#333" stroke-width="2"/><circle cx="230" cy="180" r="12" fill="#333"/><circle cx="282" cy="180" r="12" fill="#333"/><path class="mouth" d="M 240 220 Q 256 235 272 220"/><path class="mouth" d="M 235 225 Q 256 240 277 225"/><g id="sound-wave"><path d="M 320 180 Q 340 160 360 180" fill="none" stroke="#FF6B9D" stroke-width="2" stroke-linecap="round" opacity="0.8"/><path d="M 330 170 Q 350 145 370 170" fill="none" stroke="#FF6B9D" stroke-width="2" stroke-linecap="round" opacity="0.6"/><path d="M 340 160 Q 360 130 380 160" fill="none" stroke="#FF6B9D" stroke-width="2" stroke-linecap="round" opacity="0.4"/></g><g id="sound-wave-2" transform="translate(0, 80)"><path d="M 320 180 Q 340 160 360 180" fill="none" stroke="#FF6B9D" stroke-width="2" stroke-linecap="round" opacity="0.8"/><path d="M 330 170 Q 350 145 370 170" fill="none" stroke="#FF6B9D" stroke-width="2" stroke-linecap="round" opacity="0.6"/><path d="M 340 160 Q 360 130 380 160" fill="none" stroke="#FF6B9D" stroke-width="2" stroke-linecap="round" opacity="0.4"/></g><ellipse cx="256" cy="350" rx="100" ry="80" fill="#E8E8E8" stroke="#999" stroke-width="2"/><path d="M 200 320 L 180 380" stroke="#999" stroke-width="2" fill="none"/><path d="M 312 320 L 332 380" stroke="#999" stroke-width="2" fill="none"/></svg>