<svg width="512" height="512" viewBox="0 0 512 512" xmlns="http://www.w3.org/2000/svg"><rect width="512" height="512" fill="#e0f7fa"/><path d="M100 450 L140 450 L120 350 Z" fill="#2e7d32"/><path d="M115 450 L125 450 L125 480 L115 480 Z" fill="#5d4037"/><path d="M200 420 L260 420 L230 300 Z" fill="#388e3c"/><path d="M225 420 L235 420 L235 460 L225 460 Z" fill="#5d4037"/><path d="M350 440 L410 440 L380 320 Z" fill="#2e7d32"/><path d="M375 440 L385 440 L385 480 L375 480 Z" fill="#5d4037"/><path d="M50 480 L100 480 L75 400 Z" fill="#4caf50"/><path d="M70 480 L80 480 L80 510 L70 510 Z" fill="#5d4037"/><path d="M420 470 L480 470 L450 350 Z" fill="#4caf50"/><path d="M445 470 L455 470 L455 510 L445 510 Z" fill="#5d4037"/></svg>