<svg width="512" height="512" viewBox="0 0 512 512" xmlns="http://www.w3.org/2000/svg"><path d="M256 100c-20 0-40 20-40 60v250h80V160c0-40-20-60-40-60z" fill="#DAA520"/><path d="M216 120l-40-40M296 120l40-40M216 160l-50-20M296 160l50-20M216 200l-40 10M296 200l40 10" stroke="#DAA520" stroke-width="8" stroke-linecap="round"/><path d="M150 450c0 30 212 30 212 0" fill="#8B4513"/><path d="M180 450l-20 50M220 450l-10 50M260 450l0 50M300 450l10 50M340 450l20 50" stroke="#8B4513" stroke-width="6"/></svg>