<svg xmlns="http://www.w3.org/2000/svg" width="512" height="512" viewBox="0 0 512 512"><rect width="100%" height="100%" fill="#f7f7f7"/><g fill="none" stroke="#000000" stroke-width="2" stroke-opacity="0.06"><circle cx="256" cy="220" r="140"/><circle cx="250" cy="216" r="140"/><circle cx="262" cy="224" r="140"/></g><circle cx="256" cy="220" r="140" fill="#fff7c8" stroke="#e6c07a" stroke-width="3"/><g><ellipse cx="212" cy="200" rx="28" ry="20" fill="#ffffff" stroke="#cfcfcf" stroke-width="1"/><ellipse cx="300" cy="200" rx="28" ry="20" fill="#ffffff" stroke="#cfcfcf" stroke-width="1"/><circle cx="212" cy="200" r="8" fill="#212121"/><circle cx="300" cy="200" r="8" fill="#212121"/></g><g stroke="#333" stroke-width="6" stroke-linecap="round" fill="none"><path d="M190 170 Q212 158 230 168"/><path d="M280 168 Q300 156 322 170"/></g><path d="M200 290 q10 8 20 0 q10 -8 20 0 q10 8 20 0 q10 -8 20 0" stroke="#333" stroke-width="5" fill="none" stroke-linecap="round" stroke-linejoin="round"/><g fill="#8fc8ff" stroke="#6fb5f0" stroke-width="2"><path d="M340 150 C356 132 372 150 360 170 C348 190 336 172 340 150Z"/><path d="M380 170 C392 158 406 170 398 186 C390 202 382 186 380 170Z" opacity="0.9"/></g><g stroke="#8b5e3c" stroke-width="6" stroke-linecap="round"><path d="M150 300 C170 300 190 320 210 330" fill="none"/><path d="M362 300 C342 300 322 320 302 330" fill="none"/></g><g fill="#f4c69b"><circle cx="210" cy="330" r="14"/><circle cx="202" cy="326" r="10" fill-opacity="0.5"/><circle cx="218" cy="334" r="8" fill-opacity="0.4"/><circle cx="302" cy="330" r="14"/><circle cx="310" cy="326" r="10" fill-opacity="0.5"/><circle cx="294" cy="334" r="8" fill-opacity="0.4"/></g><g stroke="#333" stroke-width="3" fill="none" stroke-linecap="round" stroke-opacity="0.6"><path d="M120 160 q-12 -6 -20 0"/><path d="M100 200 q-10 8 -18 12"/><path d="M412 150 q12 -6 20 0"/><path d="M432 190 q10 8 18 12"/></g></svg>