<svg xmlns="http://www.w3.org/2000/svg" width="512" height="512" viewBox="0 0 512 512">
  <defs>
    <linearGradient id="skyGrad" x1="0" x2="0" y1="0" y2="1">
      <stop offset="0" stop-color="#9ED8FF" />
      <stop offset="1" stop-color="#E8F7FF" />
    </linearGradient>
    <linearGradient id="groundGrad" x1="0" x2="0" y1="0" y2="1">
      <stop offset="0" stop-color="#222831" />
      <stop offset="1" stop-color="#2E3A45" />
    </linearGradient>
  </defs>

  <!-- Background sky -->
  <rect width="512" height="512" fill="url(#skyGrad)" />

  <!-- Rising sun (Japan reference) -->
  <circle cx="400" cy="110" r="62" fill="#E53935" opacity="0.95" />

  <!-- Distant city silhouette -->
  <g transform="translate(0,280)">
    <path d="M0 120 L0 80 L36 80 L36 40 L78 40 L78 80 L120 80 L120 60 L162 60 L162 80 L200 80 L200 20 L240 20 L240 80 L280 80 L280 40 L322 40 L322 80 L364 80 L364 20 L404 20 L404 80 L456 80 L456 60 L512 60 L512 120 Z" fill="url(#groundGrad)" />
  </g>

  <!-- Tokyo Tower base legs -->
  <g>
    <!-- Left leg -->
    <polygon points="200,420 225,120 235,120 210,420" fill="#FF6F3C" />
    <!-- Right leg -->
    <polygon points="290,420 265,120 255,120 280,420" fill="#FF6F3C" />

    <!-- Central mast -->
    <rect x="238" y="70" width="12" height="200" fill="#FFFFFF" />

    <!-- Observation decks -->
    <ellipse cx="246" cy="200" rx="72" ry="18" fill="#D84315" />
    <ellipse cx="246" cy="160" rx="44" ry="14" fill="#D84315" />

    <!-- White stripes on legs (simplified) -->
    <polygon points="203,380 230,210 234,210 208,380" fill="#FFFFFF" opacity="0.9" />
    <polygon points="206,320 231,180 235,180 210,320" fill="#FFFFFF" opacity="0.9" />
    <polygon points="292,380 266,210 262,210 288,380" fill="#FFFFFF" opacity="0.9" />
    <polygon points="289,320 264,180 260,180 285,320" fill="#FFFFFF" opacity="0.9" />

    <!-- Cross braces (simple diagonal lines) -->
    <g stroke="#FFFFFF" stroke-width="2" stroke-linecap="round" opacity="0.85">
      <line x1="210" y1="360" x2="238" y2="220" />
      <line x1="220" y1="360" x2="246" y2="220" />
      <line x1="230" y1="360" x2="254" y2="220" />
      <line x1="280" y1="360" x2="252" y2="220" />
      <line x1="270" y1="360" x2="246" y2="220" />
    </g>

    <!-- Top spire -->
    <polygon points="242,70 260,20 232,20 230,70" fill="#FF6F3C" />
    <circle cx="246" cy="18" r="6" fill="#FF6F3C" />
  </g>

  <!-- Cherry blossoms (sakura) -->
  <g>
    <!-- blossom 1 -->
    <g transform="translate(120,120) scale(1.0)">
      <ellipse cx="0" cy="-8" rx="8" ry="14" fill="#FFB6C1" transform="rotate(-15)" />
      <ellipse cx="6" cy="6" rx="8" ry="12" fill="#FF91A4" transform="rotate(35)" />
      <ellipse cx="-6" cy="6" rx="8" ry="12" fill="#FFC0CB" transform="rotate(-35)" />
      <ellipse cx="-12" cy="-2" rx="8" ry="12" fill="#FFB6C1" transform="rotate(-80)" />
      <ellipse cx="12" cy="-2" rx="8" ry="12" fill="#FF91A4" transform="rotate(80)" />
      <circle cx="0" cy="0" r="3" fill="#FFA0B0" />
    </g>
    <!-- blossom 2 -->
    <g transform="translate(360,80) scale(0.85)">
      <ellipse cx="0" cy="-8" rx="7" ry="12" fill="#FFB6C1" transform="rotate(-10)" />
      <ellipse cx="6" cy="6" rx="7" ry="10" fill="#FF91A4" transform="rotate(30)" />
      <ellipse cx="-6" cy="6" rx="7" ry="10" fill="#FFC0CB" transform="rotate(-30)" />
      <ellipse cx="-10" cy="-2" rx="7" ry="10" fill="#FFB6C1" transform="rotate(-70)" />
      <ellipse cx="10" cy="-2" rx="7" ry="10" fill="#FF91A4" transform="rotate(70)" />
      <circle cx="0" cy="0" r="2.5" fill="#FFA0B0" />
    </g>
    <!-- falling petals -->
    <ellipse cx="300" cy="180" rx="6" ry="9" fill="#FFB6C1" transform="rotate(25)" opacity="0.9" />
    <ellipse cx="180" cy="240" rx="5" ry="8" fill="#FFC0CB" transform="rotate(-20)" opacity="0.9" />
    <ellipse cx="420" cy="200" rx="5" ry="8" fill="#FF91A4" transform="rotate(10)" opacity="0.9" />
  </g>

  <!-- Bullet train (Shinkansen) at bottom right -->
  <g transform="translate(280,360)">
    <rect x="0" y="0" width="200" height="52" rx="18" ry="18" fill="#F5F5F5" stroke="#222" stroke-width="2" />
    <rect x="20" y="12" width="160" height="20" rx="6" ry="6" fill="#1F2933" opacity="0.95" />
    <circle cx="190" cy="26" r="6" fill="#90CAF9" opacity="0.9" />
    <rect x="-10" y="38" width="220" height="8" fill="#E0E0E0" />
  </g>

</svg>