<svg xmlns="http://www.w3.org/2000/svg" width="512" height="512" viewBox="0 0 512 512"> <defs> <linearGradient id="sky" x1="0" x2="0" y1="0" y2="1"> <stop offset="0%" stop-color="#a0d8ff"/> <stop offset="100%" stop-color="#dff3ff"/> </linearGradient> </defs> <rect width="512" height="512" fill="url(#sky)"/> <!-- distant hills --> <path d="M0 360 C110 260 210 300 320 260 C420 220 560 300 512 360 L512 512 L0 512 Z" fill="#9fd07a"/> <path d="M0 400 C100 330 200 360 300 330 C380 310 480 360 512 380 L512 512 L0 512 Z" fill="#7fb85a" opacity="0.95"/> <!-- winding path --> <path d="M40 420 C110 340 180 320 260 360 C340 400 400 320 480 260" stroke="#d9c79c" stroke-width="72" stroke-linecap="round" stroke-linejoin="round" fill="none"/> <path d="M40 420 C110 340 180 320 260 360 C340 400 400 320 480 260" stroke="#fff6d9" stroke-width="18" stroke-linecap="round" stroke-linejoin="round" fill="none" opacity="0.6"/> <!-- small stones along path --> <g fill="#c8b08a" opacity="0.9"> <circle cx="120" cy="370" r="6"/> <circle cx="180" cy="345" r="5"/> <circle cx="230" cy="355" r="6"/> <circle cx="320" cy="375" r="5"/> <circle cx="380" cy="340" r="6"/> </g> <!-- footprints (simple shapes) --> <g fill="#5b3a29" stroke="#4b2e20" stroke-width="0.5"> <!-- 1 --> <ellipse cx="70" cy="390" rx="12" ry="20" transform="rotate(-25 70 390)"/> <circle cx="58" cy="373" r="3.8"/> <circle cx="66" cy="370" r="3.2"/> <circle cx="76" cy="374" r="2.6"/> <!-- 2 --> <ellipse cx="110" cy="370" rx="11" ry="18" transform="rotate(-12 110 370)"/> <circle cx="99" cy="354" r="3.6"/> <circle cx="107" cy="351" r="3"/> <circle cx="116" cy="354" r="2.4"/> <!-- 3 --> <ellipse cx="150" cy="360" rx="11" ry="17" transform="rotate(-6 150 360)"/> <circle cx="140" cy="345" r="3.4"/> <circle cx="148" cy="343" r="2.8"/> <circle cx="158" cy="345" r="2.2"/> <!-- 4 --> <ellipse cx="200" cy="350" rx="12" ry="20" transform="rotate(0 200 350)"/> <circle cx="190" cy="335" r="3.8"/> <circle cx="198" cy="333" r="3.2"/> <circle cx="208" cy="335" r="2.6"/> <!-- 5 --> <ellipse cx="250" cy="360" rx="12" ry="20" transform="rotate(10 250 360)"/> <circle cx="238" cy="345" r="3.8"/> <circle cx="246" cy="342" r="3.2"/> <circle cx="256" cy="345" r="2.6"/> <!-- 6 --> <ellipse cx="300" cy="380" rx="13" ry="22" transform="rotate(18 300 380)"/> <circle cx="288" cy="364" r="4"/> <circle cx="296" cy="361" r="3.4"/> <circle cx="306" cy="364" r="2.8"/> <!-- 7 --> <ellipse cx="350" cy="360" rx="12" ry="20" transform="rotate(14 350 360)"/> <circle cx="338" cy="344" r="3.8"/> <circle cx="346" cy="341" r="3.2"/> <circle cx="356" cy="344" r="2.6"/> <!-- 8 --> <ellipse cx="400" cy="320" rx="11" ry="18" transform="rotate(8 400 320)"/> <circle cx="389" cy="305" r="3.6"/> <circle cx="397" cy="302" r="3"/> <circle cx="406" cy="305" r="2.4"/> <!-- 9 --> <ellipse cx="450" cy="285" rx="10" ry="16" transform="rotate(4 450 285)"/> <circle cx="439" cy="271" r="3.2"/> <circle cx="447" cy="269" r="2.8"/> <circle cx="455" cy="271" r="2.2"/> </g> <!-- subtle foreground grass tufts --> <g fill="#6ba34a" opacity="0.95"> <path d="M30 460 C36 446 50 446 56 460 C44 456 36 456 30 460"/> <path d="M90 480 C96 466 110 466 116 480 C104 476 96 476 90 480"/> <path d="M160 470 C166 456 180 456 186 470 C174 466 166 466 160 470"/> <path d="M420 470 C426 456 440 456 446 470 C434 466 426 466 420 470"/> </g> </svg>