<svg xmlns="http://www.w3.org/2000/svg" width="512" height="512" viewBox="0 0 512 512"><rect width="512" height="512" fill="#cfefff"/><rect y="300" width="512" height="212" fill="#7cc7ff"/><rect y="330" width="512" height="182" fill="#4aa3e0"/><rect x="0" y="270" width="512" height="60" fill="#6b4f3a"/><rect x="0" y="282" width="512" height="18" fill="#8b6a4d"/><g stroke="#3b2a1f" stroke-width="4"><path d="M60 280 V180 L78 160 L96 180 V280 Z" fill="#d96b4a"/><path d="M115 280 V150 L130 130 L145 150 V280 Z" fill="#e39a4b"/><path d="M165 280 V190 L182 170 L199 190 V280 Z" fill="#c86b5c"/><path d="M216 280 V145 L232 125 L248 145 V280 Z" fill="#d8a24a"/><path d="M268 280 V175 L284 156 L300 175 V280 Z" fill="#b86a4c"/><path d="M320 280 V155 L338 136 L356 155 V280 Z" fill="#d56f57"/><path d="M375 280 V185 L392 166 L409 185 V280 Z" fill="#c98d4a"/></g><g fill="#f7e7c6" stroke="#3b2a1f" stroke-width="3"><rect x="72" y="215" width="18" height="28"/><rect x="124" y="192" width="18" height="30"/><rect x="176" y="214" width="18" height="26"/><rect x="228" y="188" width="18" height="30"/><rect x="280" y="207" width="18" height="26"/><rect x="334" y="190" width="18" height="30"/><rect x="387" y="216" width="18" height="24"/></g><g fill="#3b2a1f"><rect x="83" y="252" width="6" height="28"/><rect x="135" y="230" width="6" height="50"/><rect x="187" y="240" width="6" height="40"/><rect x="239" y="230" width="6" height="50"/><rect x="291" y="238" width="6" height="42"/><rect x="345" y="230" width="6" height="50"/><rect x="398" y="246" width="6" height="34"/></g><path d="M160 330 C210 280, 302 280, 352 330" fill="#8b6a4d" stroke="#3b2a1f" stroke-width="4"/><path d="M190 330 H322" stroke="#3b2a1f" stroke-width="10" stroke-linecap="round"/><path d="M205 330 C220 312, 236 312, 251 330" fill="none" stroke="#3b2a1f" stroke-width="4"/><path d="M261 330 C276 312, 292 312, 307 330" fill="none" stroke="#3b2a1f" stroke-width="4"/><g fill="none" stroke="#222" stroke-width="5" stroke-linecap="round"><circle cx="210" cy="365" r="18"/><circle cx="274" cy="365" r="18"/><path d="M210 365 L232 347 L248 365 L274 365 L246 365 L224 383 Z"/><path d="M232 347 L244 330"/><path d="M246 365 L258 347"/><path d="M244 330 H262"/><path d="M258 347 L267 336"/></g><circle cx="210" cy="365" r="3" fill="#222"/><circle cx="274" cy="365" r="3" fill="#222"/><path d="M0 430 C120 390, 392 390, 512 430" fill="none" stroke="#2e8bc0" stroke-width="10" opacity="0.35"/><path d="M0 460 C140 420, 372 420, 512 460" fill="none" stroke="#2e8bc0" stroke-width="10" opacity="0.35"/></svg>