<svg xmlns="http://www.w3.org/2000/svg" width="512" height="512" viewBox="0 0 512 512"><defs><linearGradient id="sky" x1="0" y1="0" x2="0" y2="1"><stop offset="0%" stop-color="#bfe9ff"/><stop offset="100%" stop-color="#fef6ff"/></linearGradient><radialGradient id="sun" cx="50%" cy="40%" r="60%"><stop offset="0%" stop-color="#fff9c4"/><stop offset="100%" stop-color="#ffe082"/></radialGradient><linearGradient id="leaf" x1="0" y1="0" x2="1" y2="1"><stop offset="0%" stop-color="#66bb6a"/><stop offset="100%" stop-color="#2e7d32"/></linearGradient></defs><rect width="512" height="512" fill="url(#sky)"/><circle cx="414" cy="92" r="54" fill="url(#sun)" opacity="0.9"/><g opacity="0.75" fill="#ffffff"><path d="M108 88l8 18 18 8-18 8-8 18-8-18-18-8 18-8z"/><path d="M448 176l7 15 15 7-15 7-7 15-7-15-15-7 15-7z"/><path d="M372 52l6 13 13 6-13 6-6 13-6-13-13-6 13-6z"/><path d="M86 202l6 13 13 6-13 6-6 13-6-13-13-6 13-6z"/></g><path d="M0 392c58-28 102-24 150 0s96 28 142 0 95-28 220 0v120H0z" fill="#b2df8a"/><g transform="translate(256 286)"><g fill="#f48fb1"><ellipse cx="0" cy="-108" rx="34" ry="64" transform="rotate(0)"/><ellipse cx="0" cy="-108" rx="34" ry="64" transform="rotate(45)"/><ellipse cx="0" cy="-108" rx="34" ry="64" transform="rotate(90)"/><ellipse cx="0" cy="-108" rx="34" ry="64" transform="rotate(135)"/><ellipse cx="0" cy="-108" rx="34" ry="64" transform="rotate(180)"/><ellipse cx="0" cy="-108" rx="34" ry="64" transform="rotate(225)"/><ellipse cx="0" cy="-108" rx="34" ry="64" transform="rotate(270)"/><ellipse cx="0" cy="-108" rx="34" ry="64" transform="rotate(315)"/></g><circle r="54" fill="#ffd54f" stroke="#f9a825" stroke-width="6"/><circle cx="-14" cy="-8" r="6" fill="#6d4c41"/><circle cx="14" cy="-8" r="6" fill="#6d4c41"/><path d="M-18 14c10 12 28 12 36 0" fill="none" stroke="#d81b60" stroke-width="6" stroke-linecap="round"/></g><g stroke-linecap="round" stroke-linejoin="round"><path d="M256 340c0 44-2 84-2 116" fill="none" stroke="#2e7d32" stroke-width="10"/><path d="M254 392c-30-8-52-28-70-58" fill="none" stroke="url(#leaf)" stroke-width="14"/><path d="M258 414c34-6 60-24 82-54" fill="none" stroke="url(#leaf)" stroke-width="14"/></g><g fill="#ff80ab"><path d="M142 328c10-22 28-34 48-34-12 18-24 30-48 34z"/><path d="M370 320c18 2 34 10 46 24-22 2-38-2-46-24z"/></g><g fill="#fff" opacity="0.95"><path d="M90 302l8 18 18 8-18 8-8 18-8-18-18-8 18-8z"/><path d="M424 284l7 15 15 7-15 7-7 15-7-15-15-7 15-7z"/><path d="M176 120l7 15 15 7-15 7-7 15-7-15-15-7 15-7z"/></g><path d="M0 392c70-24 116-26 168-6" fill="none" stroke="#ffffff" stroke-width="6" opacity="0.35"/></svg>