<svg xmlns="http://www.w3.org/2000/svg" width="512" height="512" viewBox="0 0 512 512"><rect width="512" height="512" fill="#f4f7fb"/><rect x="60" y="390" width="392" height="22" rx="8" fill="#c9d3df"/><rect x="120" y="250" width="160" height="140" fill="#ffffff" stroke="#4a5568" stroke-width="8"/><rect x="150" y="290" width="28" height="32" fill="#dbeafe" stroke="#4a5568" stroke-width="6"/><rect x="196" y="290" width="28" height="32" fill="#dbeafe" stroke="#4a5568" stroke-width="6"/><rect x="150" y="335" width="28" height="32" fill="#dbeafe" stroke="#4a5568" stroke-width="6"/><rect x="196" y="335" width="28" height="32" fill="#dbeafe" stroke="#4a5568" stroke-width="6"/><polygon points="110,250 200,180 290,250" fill="#e2e8f0" stroke="#4a5568" stroke-width="8"/><rect x="240" y="210" width="18" height="180" fill="#f59e0b" stroke="#8a5a00" stroke-width="6"/><line x1="249" y1="210" x2="360" y2="150" stroke="#f59e0b" stroke-width="12" stroke-linecap="round"/><line x1="258" y1="155" x2="388" y2="155" stroke="#f59e0b" stroke-width="10" stroke-linecap="round"/><line x1="360" y1="150" x2="360" y2="230" stroke="#f59e0b" stroke-width="8" stroke-linecap="round"/><line x1="360" y1="230" x2="338" y2="270" stroke="#f59e0b" stroke-width="8" stroke-linecap="round"/><rect x="324" y="270" width="28" height="28" rx="4" fill="#ffd166" stroke="#8a5a00" stroke-width="5"/><line x1="350" y1="155" x2="350" y2="120" stroke="#f59e0b" stroke-width="6" stroke-linecap="round"/><line x1="350" y1="120" x2="360" y2="120" stroke="#f59e0b" stroke-width="6" stroke-linecap="round"/><circle cx="160" cy="365" r="10" fill="#4a5568"/><circle cx="215" cy="365" r="10" fill="#4a5568"/><rect x="90" y="360" width="80" height="14" rx="7" fill="#94a3b8"/><rect x="145" y="360" width="80" height="14" rx="7" fill="#94a3b8"/><circle cx="80" cy="250" r="8" fill="#ef4444"/><circle cx="64" cy="250" r="8" fill="#10b981"/><circle cx="95" cy="250" r="8" fill="#3b82f6"/></svg>