<svg xmlns="http://www.w3.org/2000/svg" viewBox="0 0 512 512" width="512" height="512"><defs><pattern id="board" width="80" height="80" patternUnits="userSpaceOnUse"><rect width="80" height="80" fill="#f0d9b5"/><rect x="0" y="0" width="40" height="40" fill="#b58863"/><rect x="40" y="40" width="40" height="40" fill="#b58863"/></pattern></defs><rect width="512" height="512" fill="#efe9dd"/><rect x="96" y="96" width="320" height="320" fill="url(#board)" stroke="#2f261f" stroke-width="6" rx="10"/><line x1="316" y1="396" x2="380" y2="396" stroke="#d64545" stroke-width="7" stroke-linecap="round" opacity="0.75"/><line x1="356" y1="356" x2="387" y2="387" stroke="#d64545" stroke-width="7" stroke-linecap="round" opacity="0.75"/><circle cx="396" cy="396" r="32" fill="none" stroke="#d64545" stroke-width="6" opacity="0.85"/><g transform="translate(396 396)"><rect x="-14" y="-28" width="28" height="34" rx="6" fill="#f8f8f8" stroke="#111" stroke-width="3"/><circle cx="0" cy="-34" r="12" fill="#f8f8f8" stroke="#111" stroke-width="3"/><rect x="-3" y="-53" width="6" height="14" fill="#f8f8f8" stroke="#111" stroke-width="3"/><rect x="-11" y="-45" width="22" height="6" fill="#f8f8f8" stroke="#111" stroke-width="3"/></g><g transform="translate(316 396)"><path d="M-18 18 L-18 -4 L-12 -4 L-12 -14 L-6 -14 L-6 -4 L0 -4 L0 -18 L6 -18 L6 -4 L12 -4 L12 -14 L18 -14 L18 -4 L18 18 Z" fill="#232323" stroke="#000" stroke-width="3" stroke-linejoin="round"/><rect x="-16" y="18" width="32" height="8" rx="3" fill="#232323" stroke="#000" stroke-width="3"/></g><g transform="translate(356 356)"><path d="M-18 20 L-12 6 L-8 12 L-2 -4 L4 12 L10 6 L18 20 Z" fill="#232323" stroke="#000" stroke-width="3" stroke-linejoin="round"/><circle cx="-10" cy="-8" r="4" fill="#232323" stroke="#000" stroke-width="2"/><circle cx="0" cy="-14" r="4" fill="#232323" stroke="#000" stroke-width="2"/><circle cx="10" cy="-8" r="4" fill="#232323" stroke="#000" stroke-width="2"/><rect x="-16" y="20" width="32" height="8" rx="3" fill="#232323" stroke="#000" stroke-width="3"/></g></svg>