<svg xmlns="http://www.w3.org/2000/svg" width="512" height="512" viewBox="0 0 512 512"><rect width="512" height="512" fill="#f7f3ee"/><ellipse cx="256" cy="410" rx="120" ry="22" fill="#d9d1c7"/><path d="M156 220h170c18 0 32 14 32 32v78c0 44-36 80-80 80h-74c-44 0-80-36-80-80v-78c0-18 14-32 32-32z" fill="#ffffff" stroke="#8b6b4f" stroke-width="8"/><path d="M326 250h22c28 0 50 22 50 50s-22 50-50 50h-22" fill="none" stroke="#8b6b4f" stroke-width="16" stroke-linecap="round"/><path d="M176 238h140c10 0 18 8 18 18v58c0 31-25 56-56 56h-64c-31 0-56-25-56-56v-58c0-10 8-18 18-18z" fill="#6f4527"/><ellipse cx="246" cy="258" rx="78" ry="22" fill="#8a5a35"/><ellipse cx="246" cy="255" rx="64" ry="14" fill="#4e2f1a" opacity="0.75"/><path d="M204 150c-10 20 10 28 0 48" fill="none" stroke="#8b6b4f" stroke-width="8" stroke-linecap="round"/><path d="M246 136c-10 22 12 30 0 54" fill="none" stroke="#8b6b4f" stroke-width="8" stroke-linecap="round"/><path d="M288 150c-10 20 10 28 0 48" fill="none" stroke="#8b6b4f" stroke-width="8" stroke-linecap="round"/><ellipse cx="126" cy="330" rx="26" ry="16" transform="rotate(-28 126 330)" fill="#6f4527" stroke="#3b2314" stroke-width="6"/><path d="M118 322c10-10 22-10 32 0" fill="none" stroke="#2b160d" stroke-width="4" stroke-linecap="round"/><path d="M108 344c10-10 22-10 32 0" fill="none" stroke="#2b160d" stroke-width="4" stroke-linecap="round"/><ellipse cx="392" cy="324" rx="26" ry="16" transform="rotate(28 392 324)" fill="#6f4527" stroke="#3b2314" stroke-width="6"/><path d="M384 316c10-10 22-10 32 0" fill="none" stroke="#2b160d" stroke-width="4" stroke-linecap="round"/><path d="M374 338c10-10 22-10 32 0" fill="none" stroke="#2b160d" stroke-width="4" stroke-linecap="round"/></svg>