<svg xmlns="http://www.w3.org/2000/svg" width="512" height="512" viewBox="0 0 512 512"><rect width="512" height="512" fill="#f7fbff"/><g stroke="#2d3a4a" stroke-width="6" stroke-linecap="round" stroke-linejoin="round"><ellipse cx="256" cy="260" rx="16" ry="28" fill="#3f4f5f"/><ellipse cx="256" cy="220" rx="18" ry="20" fill="#5a6b7d"/><circle cx="256" cy="190" r="16" fill="#5a6b7d"/><path d="M256 286 C255 318 252 350 250 388" fill="none"/><path d="M257 286 C260 315 266 344 274 375" fill="none"/><path d="M252 286 C246 316 237 346 227 374" fill="none"/><path d="M248 262 C214 257 186 244 154 228" fill="none"/><path d="M248 270 C216 272 189 280 160 295" fill="none"/><path d="M264 262 C299 257 329 244 358 229" fill="none"/><path d="M264 270 C297 272 325 281 354 296" fill="none"/><g fill="#bfe7ff" stroke="#7ca8c8" stroke-width="4" opacity="0.8"><path d="M252 234 C182 176 126 151 78 144 C117 188 166 221 230 248 Z"/><path d="M260 234 C331 176 386 151 434 144 C395 188 346 221 282 248 Z"/><path d="M250 240 C176 230 124 243 82 274 C138 281 190 275 242 254 Z"/><path d="M262 240 C336 230 388 243 430 274 C374 281 322 275 270 254 Z"/></g><path d="M256 176 C244 152 232 132 220 112" fill="none"/><path d="M256 176 C268 152 280 132 292 112" fill="none"/><circle cx="221" cy="108" r="4" fill="#2d3a4a" stroke="none"/><circle cx="291" cy="108" r="4" fill="#2d3a4a" stroke="none"/></g><ellipse cx="256" cy="214" rx="11" ry="9" fill="#2d3a4a"/><path d="M252 238 C256 246 260 252 264 258" stroke="#1f2933" stroke-width="5" fill="none" stroke-linecap="round"/><path d="M250 242 C246 250 242 257 238 264" stroke="#1f2933" stroke-width="5" fill="none" stroke-linecap="round"/></svg>