<svg xmlns="http://www.w3.org/2000/svg" width="512" height="512" viewBox="0 0 512 512"><rect width="512" height="512" fill="#eef6ff"/><rect y="340" width="512" height="172" fill="#2f343a"/><rect x="40" y="412" width="60" height="10" rx="5" fill="#f3d34a"/><rect x="130" y="412" width="60" height="10" rx="5" fill="#f3d34a"/><rect x="220" y="412" width="60" height="10" rx="5" fill="#f3d34a"/><rect x="310" y="412" width="60" height="10" rx="5" fill="#f3d34a"/><rect x="400" y="412" width="60" height="10" rx="5" fill="#f3d34a"/><path d="M120 300h160c18 0 34 10 42 26l12 24h28c16 0 28 12 28 28v12H88v-34c0-32 26-56 58-56z" fill="#e74c3c"/><path d="M156 300h94l26 48h-148v-22c0-14 12-26 28-26z" fill="#dfefff"/><rect x="104" y="334" width="312" height="18" rx="9" fill="#c0392b"/><circle cx="170" cy="372" r="34" fill="#1f2328"/><circle cx="170" cy="372" r="18" fill="#9aa3ad"/><circle cx="338" cy="372" r="34" fill="#1f2328"/><circle cx="338" cy="372" r="18" fill="#9aa3ad"/><rect x="86" y="320" width="24" height="8" rx="4" fill="#e74c3c"/><rect x="70" y="330" width="18" height="6" rx="3" fill="#e74c3c"/><rect x="54" y="340" width="14" height="5" rx="2.5" fill="#e74c3c"/><path d="M384 250l44-18" stroke="#4d5661" stroke-width="8" stroke-linecap="round"/><path d="M392 270l54-4" stroke="#4d5661" stroke-width="8" stroke-linecap="round"/><path d="M376 232l36-30" stroke="#4d5661" stroke-width="8" stroke-linecap="round"/><path d="M250 210c18 0 32 14 32 32s-14 32-32 32-32-14-32-32 14-32 32-32zm0 12a20 20 0 100 40 20 20 0 000-40z" fill="#2f343a" opacity="0.18"/></svg>