<svg xmlns="http://www.w3.org/2000/svg" width="512" height="512" viewBox="0 0 512 512"><rect width="512" height="512" fill="#f4f7fb"/><rect x="84" y="84" width="344" height="344" rx="26" fill="#dbe9ff" stroke="#8cb3ff" stroke-width="8"/><g opacity="0.35" stroke="#8cb3ff" stroke-width="4"><path d="M124 84V428"/><path d="M176 84V428"/><path d="M228 84V428"/><path d="M280 84V428"/><path d="M332 84V428"/><path d="M384 84V428"/><path d="M84 124H428"/><path d="M84 176H428"/><path d="M84 228H428"/><path d="M84 280H428"/><path d="M84 332H428"/><path d="M84 384H428"/></g><g transform="translate(186 252)"><g fill="#2c6ed6"><rect x="-12" y="-118" width="24" height="34" rx="5" transform="rotate(0)"/><rect x="-12" y="-118" width="24" height="34" rx="5" transform="rotate(45)"/><rect x="-12" y="-118" width="24" height="34" rx="5" transform="rotate(90)"/><rect x="-12" y="-118" width="24" height="34" rx="5" transform="rotate(135)"/><rect x="-12" y="-118" width="24" height="34" rx="5" transform="rotate(180)"/><rect x="-12" y="-118" width="24" height="34" rx="5" transform="rotate(225)"/><rect x="-12" y="-118" width="24" height="34" rx="5" transform="rotate(270)"/><rect x="-12" y="-118" width="24" height="34" rx="5" transform="rotate(315)"/></g><circle r="78" fill="#2c6ed6"/><circle r="30" fill="#f4f7fb"/><circle r="52" fill="none" stroke="#f4f7fb" stroke-width="16"/><circle cx="0" cy="0" r="10" fill="#8cb3ff"/></g><g transform="translate(354 168)" stroke-linecap="round" stroke-linejoin="round"><circle cx="0" cy="0" r="18" fill="#ffffff" stroke="#39424e" stroke-width="8"/><path d="M0 18 L-36 154" stroke="#39424e" stroke-width="10" fill="none"/><path d="M0 18 L40 136" stroke="#39424e" stroke-width="10" fill="none"/><path d="M-36 154 L-55 192" stroke="#d96b2b" stroke-width="8" fill="none"/><path d="M40 136 L62 192" stroke="#d96b2b" stroke-width="8" fill="none"/><path d="M-14 68 H18" stroke="#8cb3ff" stroke-width="10" fill="none"/><circle cx="0" cy="18" r="4" fill="#39424e"/></g></svg>