<svg xmlns="http://www.w3.org/2000/svg" width="512" height="512" viewBox="0 0 512 512"><defs><linearGradient id="g1" x1="0" y1="0" x2="0" y2="1"><stop offset="0%" stop-color="#fff59d"/><stop offset="45%" stop-color="#ffb300"/><stop offset="100%" stop-color="#e53935"/></linearGradient><linearGradient id="g2" x1="0" y1="0" x2="0" y2="1"><stop offset="0%" stop-color="#fffde7"/><stop offset="100%" stop-color="#ff7043"/></linearGradient></defs><rect width="512" height="512" fill="#ffffff"/><path d="M256 84c28 45 20 72 5 95-16 25-14 43 6 62 17 16 28 38 28 63 0 52-38 97-89 97-57 0-98-43-98-98 0-42 20-71 47-96 22-21 34-48 30-79 31 17 53 40 63 71 13-21 10-54 8-115z" fill="url(#g1)"/><path d="M255 160c18 28 13 46 1 63-11 15-12 29-1 40 13 13 20 29 20 48 0 35-25 65-59 65-39 0-67-30-67-68 0-28 12-48 28-64 13-13 20-29 17-49 20 11 35 27 41 48 8-14 7-35 4-83z" fill="url(#g2)"/><path d="M186 392c31 2 68 2 140 0" stroke="#6d4c41" stroke-width="18" stroke-linecap="round"/><path d="M202 386l-24 24" stroke="#6d4c41" stroke-width="14" stroke-linecap="round"/><path d="M314 386l24 24" stroke="#6d4c41" stroke-width="14" stroke-linecap="round"/></svg>