<svg xmlns="http://www.w3.org/2000/svg" width="512" height="512" viewBox="0 0 512 512"><rect width="512" height="512" fill="#bfe8ff"/><rect y="360" width="512" height="152" fill="#5cb85c"/><circle cx="90" cy="120" r="36" fill="#ffffff" opacity="0.85"/><circle cx="122" cy="112" r="28" fill="#ffffff" opacity="0.85"/><circle cx="154" cy="122" r="34" fill="#ffffff" opacity="0.85"/><circle cx="380" cy="90" r="34" fill="#ffffff" opacity="0.82"/><circle cx="410" cy="86" r="26" fill="#ffffff" opacity="0.82"/><circle cx="438" cy="94" r="30" fill="#ffffff" opacity="0.82"/><g><rect x="70" y="250" width="20" height="110" rx="6" fill="#7a4a21"/><circle cx="80" cy="224" r="38" fill="#2f8f3a"/><circle cx="55" cy="235" r="30" fill="#2f8f3a"/><circle cx="105" cy="235" r="30" fill="#2f8f3a"/><circle cx="80" cy="205" r="28" fill="#3aa64a"/></g><g><rect x="145" y="230" width="18" height="130" rx="6" fill="#7a4a21"/><circle cx="154" cy="198" r="42" fill="#2f8f3a"/><circle cx="128" cy="212" r="32" fill="#2f8f3a"/><circle cx="180" cy="212" r="32" fill="#2f8f3a"/><circle cx="154" cy="177" r="30" fill="#3aa64a"/></g><g><rect x="230" y="245" width="20" height="120" rx="6" fill="#7a4a21"/><circle cx="240" cy="214" r="40" fill="#2f8f3a"/><circle cx="214" cy="226" r="31" fill="#2f8f3a"/><circle cx="266" cy="226" r="31" fill="#2f8f3a"/><circle cx="240" cy="193" r="28" fill="#3aa64a"/></g><g><rect x="320" y="225" width="18" height="135" rx="6" fill="#7a4a21"/><circle cx="329" cy="190" r="44" fill="#2f8f3a"/><circle cx="301" cy="205" r="33" fill="#2f8f3a"/><circle cx="357" cy="205" r="33" fill="#2f8f3a"/><circle cx="329" cy="171" r="31" fill="#3aa64a"/></g><g><rect x="410" y="255" width="20" height="105" rx="6" fill="#7a4a21"/><circle cx="420" cy="226" r="36" fill="#2f8f3a"/><circle cx="396" cy="238" r="28" fill="#2f8f3a"/><circle cx="444" cy="238" r="28" fill="#2f8f3a"/><circle cx="420" cy="209" r="25" fill="#3aa64a"/></g><g opacity="0.9"><rect x="20" y="285" width="16" height="95" rx="6" fill="#7a4a21"/><circle cx="28" cy="260" r="30" fill="#2f8f3a"/><circle cx="10" cy="270" r="22" fill="#2f8f3a"/><circle cx="46" cy="270" r="22" fill="#2f8f3a"/></g><g opacity="0.9"><rect x="470" y="290" width="16" height="90" rx="6" fill="#7a4a21"/><circle cx="478" cy="266" r="28" fill="#2f8f3a"/><circle cx="460" cy="276" r="22" fill="#2f8f3a"/><circle cx="496" cy="276" r="22" fill="#2f8f3a"/></g><ellipse cx="256" cy="462" rx="210" ry="26" fill="#4cae4c" opacity="0.75"/></svg>