<svg xmlns="http://www.w3.org/2000/svg" width="512" height="512" viewBox="0 0 512 512"><rect width="512" height="512" fill="#f4f7fb"/><rect x="70" y="350" width="250" height="18" rx="9" fill="#c9d2db"/><rect x="112" y="270" width="150" height="80" rx="14" fill="#f4b000" stroke="#8a6400" stroke-width="6"/><rect x="225" y="235" width="74" height="115" rx="10" fill="#f4b000" stroke="#8a6400" stroke-width="6"/><rect x="259" y="178" width="18" height="177" fill="#6f7d88"/><rect x="277" y="178" width="18" height="177" fill="#55616b"/><rect x="287" y="300" width="120" height="14" fill="#6f7d88" transform="rotate(-90 287 300)"/><rect x="312" y="294" width="110" height="12" fill="#6f7d88" transform="rotate(-90 312 294)"/><rect x="256" y="238" width="92" height="12" fill="#6f7d88" transform="rotate(-90 256 238)"/><rect x="320" y="235" width="92" height="12" fill="#6f7d88" transform="rotate(-90 320 235)"/><rect x="314" y="208" width="78" height="14" rx="7" fill="#4f5962"/><rect x="370" y="183" width="70" height="110" rx="14" fill="#f4b000" stroke="#8a6400" stroke-width="6"/><rect x="384" y="195" width="42" height="52" rx="6" fill="#d9eefc" stroke="#8a6400" stroke-width="5"/><circle cx="147" cy="356" r="34" fill="#2d3339"/><circle cx="147" cy="356" r="17" fill="#cfd6dd"/><circle cx="256" cy="356" r="34" fill="#2d3339"/><circle cx="256" cy="356" r="17" fill="#cfd6dd"/><circle cx="391" cy="356" r="32" fill="#2d3339"/><circle cx="391" cy="356" r="16" fill="#cfd6dd"/><rect x="300" y="250" width="58" height="36" rx="4" fill="#d6b07a" stroke="#8a6400" stroke-width="4"/><rect x="297" y="286" width="64" height="12" rx="3" fill="#9c6f3f"/></svg>