<svg xmlns="http://www.w3.org/2000/svg" width="512" height="512" viewBox="0 0 512 512"><rect width="512" height="512" fill="#f4f7fb"/><ellipse cx="256" cy="418" rx="150" ry="20" fill="#d9e2ec"/><rect x="126" y="210" width="260" height="150" rx="18" fill="#3a4a5a" stroke="#24313d" stroke-width="8"/><rect x="144" y="228" width="224" height="114" rx="12" fill="#556778" stroke="#24313d" stroke-width="6"/><rect x="170" y="188" width="172" height="32" rx="10" fill="#2d3946" stroke="#24313d" stroke-width="6"/><circle cx="184" cy="408" r="22" fill="#2d3946" stroke="#24313d" stroke-width="6"/><circle cx="328" cy="408" r="22" fill="#2d3946" stroke="#24313d" stroke-width="6"/><circle cx="184" cy="408" r="8" fill="#8ea0b3"/><circle cx="328" cy="408" r="8" fill="#8ea0b3"/><rect x="160" y="252" width="88" height="18" rx="9" fill="#8ea0b3" opacity="0.45"/><rect x="160" y="282" width="120" height="18" rx="9" fill="#8ea0b3" opacity="0.45"/><rect x="160" y="312" width="72" height="18" rx="9" fill="#8ea0b3" opacity="0.45"/><circle cx="316" cy="270" r="22" fill="#e8eef5" stroke="#24313d" stroke-width="5"/><circle cx="316" cy="270" r="8" fill="#24313d"/><path d="M316 238l10 24h26l-21 15 8 25-23-16-23 16 8-25-21-15h26z" fill="#ffcc33" stroke="#c99b1f" stroke-width="4" stroke-linejoin="round"/><path d="M240 126c18-28 30-42 48-62" fill="none" stroke="#ffcc33" stroke-width="14" stroke-linecap="round"/><path d="M288 64l-10 30 26 2" fill="none" stroke="#ffcc33" stroke-width="14" stroke-linecap="round" stroke-linejoin="round"/><path d="M300 150c18 10 30 24 34 42" fill="none" stroke="#7fd3ff" stroke-width="10" stroke-linecap="round" opacity="0.8"/><path d="M312 146c28 12 48 34 56 62" fill="none" stroke="#7fd3ff" stroke-width="10" stroke-linecap="round" opacity="0.8"/></svg>