<svg xmlns="http://www.w3.org/2000/svg" viewBox="0 0 512 512"><rect width="512" height="512" fill="#f4f4f4"/><ellipse cx="256" cy="330" rx="105" ry="120" fill="#2b2b2b"/><path d="M132 302c-18 18-28 45-26 73 2 31 22 52 46 52 22 0 39-18 41-41 2-24-4-49-12-71-10-28-28-39-49-13z" fill="#2b2b2b"/><path d="M380 302c18 18 28 45 26 73-2 31-22 52-46 52-22 0-39-18-41-41-2-24 4-49 12-71 10-28 28-39 49-13z" fill="#2b2b2b"/><ellipse cx="256" cy="183" rx="92" ry="86" fill="#2b2b2b"/><ellipse cx="256" cy="195" rx="56" ry="42" fill="#8f8f8f"/><path d="M202 180c10-24 34-38 54-38 22 0 45 14 54 38-16 12-34 19-54 19-20 0-38-7-54-19z" fill="#555"/><circle cx="229" cy="186" r="6" fill="#111"/><circle cx="283" cy="186" r="6" fill="#111"/><path d="M247 198c6 4 12 4 18 0" stroke="#111" stroke-width="5" fill="none" stroke-linecap="round"/><path d="M256 208c-8 0-14 7-14 14 0 10 6 19 14 19s14-9 14-19c0-7-6-14-14-14z" fill="#111"/><ellipse cx="165" cy="175" rx="20" ry="24" fill="#2b2b2b"/><ellipse cx="347" cy="175" rx="20" ry="24" fill="#2b2b2b"/><path d="M165 311c18-57 51-77 91-77 40 0 73 20 91 77" fill="none" stroke="#1f1f1f" stroke-width="28" stroke-linecap="round"/><ellipse cx="256" cy="343" rx="60" ry="48" fill="#f0e6d5"/><path d="M214 319c14 12 31 18 42 18 12 0 29-6 42-18" fill="none" stroke="#c8b89f" stroke-width="10" stroke-linecap="round"/><ellipse cx="216" cy="387" rx="36" ry="52" fill="#2b2b2b"/><ellipse cx="296" cy="387" rx="36" ry="52" fill="#2b2b2b"/><ellipse cx="216" cy="405" rx="20" ry="14" fill="#111"/><ellipse cx="296" cy="405" rx="20" ry="14" fill="#111"/></svg>