<svg xmlns="http://www.w3.org/2000/svg" width="512" height="512" viewBox="0 0 512 512"><rect width="512" height="512" fill="#f3f5f7"/><rect x="0" y="360" width="512" height="152" fill="#dde3e8"/><line x1="96" y1="360" x2="416" y2="360" stroke="#aab3bb" stroke-width="6" stroke-linecap="round"/><circle cx="256" cy="108" r="34" fill="#2d2d2d"/><path d="M228 154 Q256 136 284 154 L300 246 Q256 274 212 246 Z" fill="#3b3f45"/><path d="M216 182 L156 236" stroke="#2d2d2d" stroke-width="18" stroke-linecap="round"/><path d="M296 182 L356 236" stroke="#2d2d2d" stroke-width="18" stroke-linecap="round"/><path d="M230 248 L204 326" stroke="#2d2d2d" stroke-width="18" stroke-linecap="round"/><path d="M282 248 L308 326" stroke="#2d2d2d" stroke-width="18" stroke-linecap="round"/><path d="M214 326 L184 404" stroke="#2d2d2d" stroke-width="18" stroke-linecap="round"/><path d="M298 326 L328 404" stroke="#2d2d2d" stroke-width="18" stroke-linecap="round"/><rect x="176" y="400" width="42" height="18" rx="8" fill="#2d2d2d"/><rect x="294" y="400" width="42" height="18" rx="8" fill="#2d2d2d"/><rect x="170" y="144" width="172" height="22" rx="11" fill="#4b5560"/><rect x="126" y="132" width="40" height="46" rx="10" fill="#2d2d2d"/><rect x="344" y="132" width="40" height="46" rx="10" fill="#2d2d2d"/><rect x="104" y="126" width="26" height="58" rx="10" fill="#6b7280"/><rect x="382" y="126" width="26" height="58" rx="10" fill="#6b7280"/><circle cx="98" cy="155" r="18" fill="#2d2d2d"/><circle cx="395" cy="155" r="18" fill="#2d2d2d"/><rect x="60" y="402" width="92" height="34" rx="17" fill="#8e99a4"/><rect x="360" y="402" width="92" height="34" rx="17" fill="#8e99a4"/><rect x="48" y="410" width="24" height="18" rx="8" fill="#6b7280"/><rect x="440" y="410" width="24" height="18" rx="8" fill="#6b7280"/><ellipse cx="256" cy="430" rx="110" ry="18" fill="#c7ced6" opacity="0.5"/></svg>