<svg xmlns="http://www.w3.org/2000/svg" width="512" height="512" viewBox="0 0 512 512"><rect width="512" height="512" fill="#dff4ff"/><ellipse cx="256" cy="390" rx="170" ry="34" fill="#cfe8f6"/><path d="M121 320c0-87 61-154 135-154s135 67 135 154v33H121z" fill="#ffffff" stroke="#8bbad3" stroke-width="6"/><path d="M170 321c0-60 38-109 86-109s86 49 86 109" fill="none" stroke="#b7d7e8" stroke-width="4"/><path d="M197 321c0-40 26-74 59-74s59 34 59 74" fill="none" stroke="#b7d7e8" stroke-width="4"/><path d="M146 286c27-12 46-14 67-9m85 1c21-5 41-4 67 8M151 251c28-11 47-11 69-3m71 0c22-8 42-8 70 3M171 221c21-8 36-7 49-2m72 0c13-5 28-6 49 2" fill="none" stroke="#b7d7e8" stroke-width="4" stroke-linecap="round"/><path d="M192 354c0-34 27-61 60-61s60 27 60 61v34H192z" fill="#2b4a5a"/><path d="M224 388c-7-20 4-43 22-43s29 23 23 43" fill="#1a2f3b"/><circle cx="251" cy="346" r="8" fill="#dff4ff" opacity="0.35"/><path d="M189 320h134" stroke="#8bbad3" stroke-width="5" opacity="0.8"/><path d="M209 214c13-20 35-33 47-33s34 13 47 33" fill="none" stroke="#8bbad3" stroke-width="6" stroke-linecap="round"/><circle cx="394" cy="120" r="14" fill="#ffffff" opacity="0.9"/><circle cx="96" cy="110" r="10" fill="#ffffff" opacity="0.75"/><circle cx="416" cy="170" r="8" fill="#ffffff" opacity="0.75"/></svg>