<svg xmlns="http://www.w3.org/2000/svg" width="512" height="512" viewBox="0 0 512 512"><rect width="512" height="512" fill="#ffffff"/><g stroke-linecap="round" stroke-linejoin="round"><g transform="translate(0,10)"><path d="M256 88c-43 0-78 35-78 78 0 28 15 52 37 66v28h82v-28c22-14 37-38 37-66 0-43-35-78-78-78z" fill="#ffd95a" stroke="#d1a700" stroke-width="8"/><rect x="218" y="252" width="76" height="24" rx="10" fill="#9aa3ad" stroke="#6d7580" stroke-width="6"/><rect x="224" y="276" width="64" height="18" rx="8" fill="#c4ccd4" stroke="#6d7580" stroke-width="6"/><path d="M210 116l-18-26M302 116l18-26M196 178h-30M346 178h-30M224 98l-12-30M288 98l12-30" stroke="#ffb300" stroke-width="8"/><path d="M252 132l-20 34h28l-16 34 36-46h-26z" fill="#fff5b5" opacity="0.9"/></g><g transform="translate(0,20)"><circle cx="256" cy="360" r="44" fill="#f1c7a9"/><path d="M176 468c10-54 44-84 80-84s70 30 80 84" fill="#4a78b8"/><path d="M208 408c18 14 41 22 48 22s30-8 48-22" fill="none" stroke="#355a8a" stroke-width="10"/><path d="M176 470c14-26 38-42 80-42s66 16 80 42" fill="none" stroke="#355a8a" stroke-width="10"/><path d="M214 344c11-18 27-28 42-28s31 10 42 28" fill="none" stroke="#d9a889" stroke-width="8"/><path d="M178 326c18-28 47-44 78-44s60 16 78 44" fill="none" stroke="#2d2d2d" stroke-width="16"/><path d="M168 294c10-14 21-24 33-31" stroke="#2d2d2d" stroke-width="16"/><path d="M344 294c-10-14-21-24-33-31" stroke="#2d2d2d" stroke-width="16"/><circle cx="238" cy="360" r="5" fill="#2d2d2d"/><circle cx="274" cy="360" r="5" fill="#2d2d2d"/><path d="M246 379c6 5 14 5 20 0" fill="none" stroke="#c06a5a" stroke-width="6"/></g><path d="M102 154c18-10 34-13 53-13" fill="none" stroke="#88c057" stroke-width="8"/><path d="M410 154c-18-10-34-13-53-13" fill="none" stroke="#88c057" stroke-width="8"/></g></svg>