<svg xmlns="http://www.w3.org/2000/svg" viewBox="0 0 512 512" width="512" height="512"><rect width="512" height="512" rx="32" fill="#f7f8fb"/><g stroke-linecap="round" stroke-linejoin="round"><path d="M112 370H400" stroke="#cfd6e0" stroke-width="10"/><path d="M138 330v40M206 292v78M274 250v120M342 208v162" stroke="#79a7ff" stroke-width="18"/><path d="M128 332L214 286L286 240L354 198" fill="none" stroke="#2f7de1" stroke-width="14"/><path d="M354 198l-14 2 8-14" fill="none" stroke="#2f7de1" stroke-width="14"/><ellipse cx="172" cy="384" rx="62" ry="18" fill="#f3c64d" stroke="#d59c1f" stroke-width="8"/><path d="M110 384v-44c0 10 28 18 62 18s62-8 62-18v44" fill="#ffd85a" stroke="#d59c1f" stroke-width="8"/><ellipse cx="172" cy="340" rx="62" ry="18" fill="#f3c64d" stroke="#d59c1f" stroke-width="8"/><path d="M110 340v-44c0 10 28 18 62 18s62-8 62-18v44" fill="#ffd85a" stroke="#d59c1f" stroke-width="8"/><ellipse cx="172" cy="296" rx="62" ry="18" fill="#f3c64d" stroke="#d59c1f" stroke-width="8"/><path d="M110 296v-44c0 10 28 18 62 18s62-8 62-18v44" fill="#ffd85a" stroke="#d59c1f" stroke-width="8"/><path d="M242 332c22-26 54-24 76 0" fill="none" stroke="#48a86a" stroke-width="10"/><path d="M280 330c-6-18-2-34 12-48 18 8 28 22 28 42-16 2-28 4-40 6z" fill="#5fc27b" stroke="#348e53" stroke-width="8"/><path d="M295 314c10-18 24-28 44-30-2 20-12 34-30 44" fill="#5fc27b" stroke="#348e53" stroke-width="8"/></g></svg>