<svg xmlns="http://www.w3.org/2000/svg" width="512" height="512" viewBox="0 0 512 512"><rect width="512" height="512" fill="#dff6ff"/><ellipse cx="256" cy="210" rx="110" ry="92" fill="#ffb3d9" opacity="0.9"/><path d="M146 212c0-62 49-112 110-112s110 50 110 112c0 16-8 31-24 42-22 15-58 24-86 24s-64-9-86-24c-16-11-24-26-24-42z" fill="#ff9fcb" opacity="0.75"/><path d="M178 298c10 44-8 74-18 98" fill="none" stroke="#ff7fb8" stroke-width="8" stroke-linecap="round"/><path d="M202 302c12 56-18 96-30 136" fill="none" stroke="#ff7fb8" stroke-width="8" stroke-linecap="round"/><path d="M228 305c8 58-12 104-18 145" fill="none" stroke="#ff7fb8" stroke-width="8" stroke-linecap="round"/><path d="M254 308c2 60 0 104 0 146" fill="none" stroke="#ff7fb8" stroke-width="8" stroke-linecap="round"/><path d="M284 305c-8 58 12 104 18 145" fill="none" stroke="#ff7fb8" stroke-width="8" stroke-linecap="round"/><path d="M310 302c-12 56 18 96 30 136" fill="none" stroke="#ff7fb8" stroke-width="8" stroke-linecap="round"/><path d="M334 298c-10 44 8 74 18 98" fill="none" stroke="#ff7fb8" stroke-width="8" stroke-linecap="round"/><path d="M178 300c-2 36-24 56-40 78" fill="none" stroke="#ff6ea9" stroke-width="6" stroke-linecap="round"/><path d="M206 304c0 42-18 74-42 108" fill="none" stroke="#ff6ea9" stroke-width="6" stroke-linecap="round"/><path d="M230 307c0 48-8 86-14 128" fill="none" stroke="#ff6ea9" stroke-width="6" stroke-linecap="round"/><path d="M282 307c0 48 8 86 14 128" fill="none" stroke="#ff6ea9" stroke-width="6" stroke-linecap="round"/><path d="M306 304c0 42 18 74 42 108" fill="none" stroke="#ff6ea9" stroke-width="6" stroke-linecap="round"/><path d="M334 300c2 36 24 56 40 78" fill="none" stroke="#ff6ea9" stroke-width="6" stroke-linecap="round"/><circle cx="224" cy="198" r="10" fill="#ffffff"/><circle cx="288" cy="198" r="10" fill="#ffffff"/><circle cx="227" cy="201" r="4" fill="#2d5b73"/><circle cx="291" cy="201" r="4" fill="#2d5b73"/><path d="M226 225c10 10 50 10 60 0" fill="none" stroke="#f06fa8" stroke-width="6" stroke-linecap="round"/><path d="M170 220c18-12 34-16 50-14" fill="none" stroke="#ffffff" stroke-width="10" stroke-linecap="round" opacity="0.35"/><path d="M256 120c18 0 34 12 40 28" fill="none" stroke="#ffffff" stroke-width="12" stroke-linecap="round" opacity="0.25"/></svg>