<svg xmlns="http://www.w3.org/2000/svg" width="512" height="512" viewBox="0 0 512 512"><rect width="512" height="512" fill="#f7f3e8"/><g transform="translate(0,10)"><ellipse cx="330" cy="300" rx="92" ry="118" fill="#6b4a2f"/><ellipse cx="330" cy="300" rx="78" ry="102" fill="#2e8b3c"/><ellipse cx="330" cy="300" rx="58" ry="82" fill="#9bd96b"/><circle cx="330" cy="300" r="16" fill="#f4f0dd"/><g fill="#1f1f1f"><circle cx="330" cy="230" r="5"/><circle cx="357" cy="238" r="5"/><circle cx="379" cy="258" r="5"/><circle cx="390" cy="285" r="5"/><circle cx="388" cy="316" r="5"/><circle cx="374" cy="342" r="5"/><circle cx="352" cy="361" r="5"/><circle cx="326" cy="368" r="5"/><circle cx="300" cy="362" r="5"/><circle cx="278" cy="347" r="5"/><circle cx="265" cy="321" r="5"/><circle cx="264" cy="292" r="5"/><circle cx="274" cy="264" r="5"/><circle cx="294" cy="243" r="5"/></g><ellipse cx="170" cy="306" rx="78" ry="104" fill="#7a5232"/><ellipse cx="170" cy="306" rx="64" ry="88" fill="#6d4a2d"/><g stroke="#8a6240" stroke-width="5" stroke-linecap="round"><line x1="117" y1="240" x2="104" y2="228"/><line x1="104" y1="264" x2="88" y2="257"/><line x1="98" y1="292" x2="80" y2="292"/><line x1="100" y1="320" x2="82" y2="326"/><line x1="110" y1="346" x2="96" y2="358"/><line x1="129" y1="366" x2="121" y2="383"/><line x1="154" y1="378" x2="152" y2="396"/><line x1="180" y1="380" x2="186" y2="398"/><line x1="206" y1="374" x2="219" y2="388"/><line x1="229" y1="360" x2="246" y2="366"/><line x1="244" y1="338" x2="262" y2="337"/><line x1="250" y1="311" x2="268" y2="305"/><line x1="248" y1="283" x2="266" y2="275"/><line x1="238" y1="257" x2="252" y2="244"/></g></g></svg>