<svg xmlns="http://www.w3.org/2000/svg" viewBox="0 0 512 512" width="512" height="512"><rect width="512" height="512" fill="white"/><g stroke="#2b1b10" stroke-width="4" stroke-linejoin="round" stroke-linecap="round"><ellipse cx="286" cy="292" rx="132" ry="82" fill="#d9b24c"/><circle cx="160" cy="245" r="56" fill="#d9b24c"/><ellipse cx="112" cy="262" rx="34" ry="22" fill="#d9b24c"/><path d="M132 206 L118 170 L152 190 Z" fill="#d9b24c"/><path d="M171 205 L183 170 L193 199 Z" fill="#d9b24c"/><path d="M340 282 C402 278 440 245 456 206" fill="none" stroke="#d9b24c" stroke-width="18"/><path d="M456 206 C468 184 480 176 490 172" fill="none" stroke="#d9b24c" stroke-width="14"/><path d="M205 353 L195 430" fill="none" stroke="#d9b24c" stroke-width="28"/><path d="M255 361 L250 432" fill="none" stroke="#d9b24c" stroke-width="28"/><path d="M326 356 L332 431" fill="none" stroke="#d9b24c" stroke-width="28"/><path d="M376 345 L392 425" fill="none" stroke="#d9b24c" stroke-width="28"/><path d="M185 430 H215" fill="none" stroke="#2b1b10" stroke-width="10"/><path d="M240 430 H265" fill="none" stroke="#2b1b10" stroke-width="10"/><path d="M316 430 H342" fill="none" stroke="#2b1b10" stroke-width="10"/><path d="M374 425 H404" fill="none" stroke="#2b1b10" stroke-width="10"/><circle cx="125" cy="241" r="5" fill="#2b1b10" stroke="none"/><path d="M112 263 Q123 270 134 263" fill="none" stroke="#2b1b10" stroke-width="3"/><circle cx="149" cy="234" r="4" fill="#2b1b10" stroke="none"/><circle cx="230" cy="262" r="11" fill="#2b1b10" stroke="none"/><circle cx="279" cy="248" r="10" fill="#2b1b10" stroke="none"/><circle cx="322" cy="278" r="11" fill="#2b1b10" stroke="none"/><circle cx="356" cy="319" r="9" fill="#2b1b10" stroke="none"/><circle cx="304" cy="340" r="8" fill="#2b1b10" stroke="none"/><circle cx="245" cy="316" r="9" fill="#2b1b10" stroke="none"/><circle cx="200" cy="294" r="8" fill="#2b1b10" stroke="none"/><circle cx="366" cy="269" r="8" fill="#2b1b10" stroke="none"/><circle cx="406" cy="294" r="7" fill="#2b1b10" stroke="none"/><circle cx="276" cy="304" r="6" fill="#2b1b10" stroke="none"/><circle cx="336" cy="247" r="6" fill="#2b1b10" stroke="none"/><circle cx="180" cy="286" r="7" fill="#2b1b10" stroke="none"/><circle cx="217" cy="232" r="7" fill="#2b1b10" stroke="none"/><circle cx="141" cy="292" r="6" fill="#2b1b10" stroke="none"/><circle cx="360" cy="230" r="7" fill="#2b1b10" stroke="none"/><circle cx="410" cy="257" r="6" fill="#2b1b10" stroke="none"/></g></svg>