<svg xmlns="http://www.w3.org/2000/svg" viewBox="0 0 512 512"><rect width="512" height="512" fill="#eaf6ff"/><ellipse cx="256" cy="182" rx="72" ry="76" fill="#f2c9a0"/><path d="M188 128c12-35 44-58 68-58s56 23 68 58c-23-10-113-10-136 0z" fill="#16a34a"/><path d="M174 152c0-11 9-20 20-20h124c11 0 20 9 20 20v18H174z" fill="#16a34a"/><ellipse cx="230" cy="180" rx="14" ry="18" fill="#fff"/><ellipse cx="282" cy="180" rx="14" ry="18" fill="#fff"/><circle cx="233" cy="184" r="6" fill="#222"/><circle cx="285" cy="184" r="6" fill="#222"/><rect x="214" y="163" width="24" height="6" rx="3" fill="#2f1b14"/><rect x="268" y="163" width="24" height="6" rx="3" fill="#2f1b14"/><ellipse cx="260" cy="205" rx="18" ry="13" fill="#e8b28f"/><path d="M215 225c15-16 35-17 49-4 14-13 34-12 48 4-10 19-27 29-48 22-21 7-39-3-49-22z" fill="#1f1b1a"/><path d="M243 235c8 6 18 6 26 0" stroke="#8a4d2f" stroke-width="4" fill="none" stroke-linecap="round"/><ellipse cx="256" cy="365" rx="94" ry="110" fill="#1d4ed8"/><path d="M184 292c0-30 32-56 72-56s72 26 72 56v50H184z" fill="#16a34a"/><rect x="216" y="282" width="80" height="100" rx="18" fill="#1d4ed8"/><rect x="128" y="286" width="60" height="26" rx="13" fill="#16a34a" transform="rotate(-20 128 286)"/><circle cx="114" cy="292" r="18" fill="#f2c9a0"/><rect x="324" y="236" width="60" height="26" rx="13" fill="#16a34a" transform="rotate(-60 324 236)"/><circle cx="376" cy="196" r="18" fill="#f2c9a0"/><rect x="214" y="422" width="34" height="58" rx="14" fill="#1e3a8a"/><rect x="264" y="422" width="34" height="58" rx="14" fill="#1e3a8a"/><ellipse cx="230" cy="484" rx="31" ry="14" fill="#5b3418"/><ellipse cx="280" cy="484" rx="31" ry="14" fill="#5b3418"/></svg>