<svg xmlns="http://www.w3.org/2000/svg" width="512" height="512" viewBox="0 0 512 512"><rect width="512" height="512" fill="#f7fbff"/><g transform="translate(60,70)"><ellipse cx="200" cy="180" rx="150" ry="85" fill="#f6b24d" stroke="#b56a12" stroke-width="8" transform="rotate(-18 200 180)"/><ellipse cx="200" cy="180" rx="128" ry="65" fill="#ffd78a" opacity="0.9" transform="rotate(-18 200 180)"/><path d="M95 176c18-30 42-44 66-38 14 4 23 16 36 18 17 3 28-8 44-12 26-7 48 8 62 30 14 22 28 33 50 35" fill="none" stroke="#9b5d16" stroke-width="7" stroke-linecap="round" stroke-linejoin="round" opacity="0.95"/><path d="M108 205c16-17 32-25 49-23 12 2 23 10 35 11 16 2 27-5 41-9 21-7 40 0 54 16 11 12 22 19 39 21" fill="none" stroke="#9b5d16" stroke-width="7" stroke-linecap="round" stroke-linejoin="round" opacity="0.95"/><path d="M118 143c20 12 39 10 55 2 15-7 27-16 43-16 18 0 30 10 47 15 20 6 42 2 63-12" fill="none" stroke="#9b5d16" stroke-width="7" stroke-linecap="round" stroke-linejoin="round" opacity="0.95"/><ellipse cx="200" cy="180" rx="150" ry="85" fill="none" stroke="#8d4f10" stroke-width="5" transform="rotate(-18 200 180)"/><circle cx="78" cy="115" r="22" fill="#dcecff" opacity="0.75"/><circle cx="420" cy="98" r="14" fill="#dcecff" opacity="0.55"/></g></svg>