<svg xmlns="http://www.w3.org/2000/svg" width="512" height="512" viewBox="0 0 512 512"><rect width="512" height="512" fill="#dff4ff"/><ellipse cx="245" cy="268" rx="92" ry="118" fill="#2ecc71" transform="rotate(-12 245 268)"/><ellipse cx="232" cy="255" rx="56" ry="78" fill="#37d67a" transform="rotate(-18 232 255)"/><circle cx="193" cy="210" r="42" fill="#33cc66"/><circle cx="184" cy="204" r="6" fill="#1a1a1a"/><circle cx="186" cy="202" r="2" fill="#ffffff"/><polygon points="150,210 112,198 150,188" fill="#ffcf4d"/><polygon points="150,210 112,220 149,230" fill="#f28c28"/><path d="M220 286 C250 255, 292 252, 313 278 C286 307, 250 312, 220 286 Z" fill="#1fa64d"/><path d="M308 250 C350 238, 387 210, 420 168 C410 226, 392 270, 348 312 C334 293, 319 272, 308 250 Z" fill="#0ea44c"/><polygon points="145,286 95,342 160,332" fill="#1e88e5"/><polygon points="156,302 108,365 172,350" fill="#7c4dff"/><polygon points="165,314 128,382 186,360" fill="#ff6f61"/><path d="M304 344 C336 355, 366 352, 400 342" fill="none" stroke="#8b5a2b" stroke-width="18" stroke-linecap="round"/><path d="M280 330 C285 360, 287 385, 286 405" fill="none" stroke="#8b5a2b" stroke-width="8" stroke-linecap="round"/><path d="M296 334 C301 361, 305 386, 308 404" fill="none" stroke="#8b5a2b" stroke-width="8" stroke-linecap="round"/><path d="M274 406 C286 398, 295 398, 304 406" fill="none" stroke="#8b5a2b" stroke-width="6" stroke-linecap="round"/><path d="M302 406 C314 398, 323 398, 332 406" fill="none" stroke="#8b5a2b" stroke-width="6" stroke-linecap="round"/><path d="M171 222 C165 243, 165 259, 171 275" fill="none" stroke="#1f8f4a" stroke-width="10" stroke-linecap="round"/><ellipse cx="238" cy="285" rx="40" ry="58" fill="#6cff8e" opacity="0.65" transform="rotate(-18 238 285)"/></svg>