<svg xmlns="http://www.w3.org/2000/svg" width="512" height="512" viewBox="0 0 512 512"><rect width="512" height="512" fill="#ffffff"/><ellipse cx="325" cy="290" rx="145" ry="95" fill="#111111"/><polygon points="150,240 280,200 335,235 210,280" fill="#111111"/><rect x="115" y="292" width="210" height="78" rx="8" fill="#f7f7f7" stroke="#111111" stroke-width="8"/><rect x="130" y="292" width="16" height="48" fill="#111111"/><rect x="150" y="292" width="16" height="48" fill="#111111"/><rect x="170" y="292" width="16" height="48" fill="#111111"/><rect x="190" y="292" width="16" height="48" fill="#111111"/><rect x="220" y="292" width="16" height="48" fill="#111111"/><rect x="240" y="292" width="16" height="48" fill="#111111"/><rect x="260" y="292" width="16" height="48" fill="#111111"/><rect x="280" y="292" width="16" height="48" fill="#111111"/><rect x="145" y="370" width="10" height="70" fill="#111111"/><rect x="255" y="370" width="10" height="70" fill="#111111"/><rect x="338" y="355" width="10" height="85" fill="#111111" transform="rotate(10 343 355)"/></svg>