<svg xmlns="http://www.w3.org/2000/svg" width="512" height="512" viewBox="0 0 512 512"><rect width="512" height="512" fill="#f7f4ea"/><g transform="translate(0,10)"><ellipse cx="260" cy="270" rx="150" ry="185" fill="#ff4fa3"/><ellipse cx="260" cy="270" rx="122" ry="154" fill="#fffdf7"/><g fill="#222"><ellipse cx="220" cy="225" rx="6" ry="8" transform="rotate(-20 220 225)"/><ellipse cx="280" cy="205" rx="6" ry="8" transform="rotate(15 280 205)"/><ellipse cx="315" cy="255" rx="6" ry="8" transform="rotate(-10 315 255)"/><ellipse cx="245" cy="290" rx="6" ry="8" transform="rotate(25 245 290)"/><ellipse cx="195" cy="300" rx="6" ry="8" transform="rotate(-15 195 300)"/><ellipse cx="295" cy="330" rx="6" ry="8" transform="rotate(10 295 330)"/><ellipse cx="235" cy="360" rx="6" ry="8" transform="rotate(-30 235 360)"/><ellipse cx="325" cy="300" rx="6" ry="8" transform="rotate(20 325 300)"/><ellipse cx="255" cy="245" rx="6" ry="8" transform="rotate(-5 255 245)"/><ellipse cx="175" cy="255" rx="6" ry="8" transform="rotate(12 175 255)"/><ellipse cx="335" cy="220" rx="6" ry="8" transform="rotate(-18 335 220)"/><ellipse cx="210" cy="340" rx="6" ry="8" transform="rotate(18 210 340)"/></g><g fill="#43b35b"><path d="M135 165 C110 140, 105 120, 125 100 C145 118, 160 140, 160 170 Z"/><path d="M165 130 C150 100, 155 78, 182 64 C195 92, 195 120, 180 148 Z"/><path d="M320 115 C330 82, 355 63, 385 65 C378 95, 360 122, 335 142 Z"/><path d="M358 160 C385 138, 412 136, 435 154 C414 175, 389 185, 360 181 Z"/><path d="M125 330 C95 322, 75 300, 72 270 C102 274, 126 287, 145 312 Z"/></g><path d="M134 166 C173 145, 217 135, 260 138 C307 141, 352 157, 386 182" fill="none" stroke="#d61f78" stroke-width="18" stroke-linecap="round" opacity="0.55"/><path d="M141 380 C180 400, 226 409, 271 406 C321 403, 357 389, 383 364" fill="none" stroke="#d61f78" stroke-width="18" stroke-linecap="round" opacity="0.55"/></g></svg>