<svg xmlns="http://www.w3.org/2000/svg" width="512" height="512" viewBox="0 0 512 512"><rect width="512" height="512" rx="28" fill="#f4f7fb"/><rect x="92" y="90" width="328" height="220" rx="18" fill="#1f2937"/><rect x="112" y="110" width="288" height="180" rx="10" fill="#0f172a"/><rect x="196" y="318" width="120" height="22" rx="8" fill="#1f2937"/><rect x="152" y="340" width="208" height="20" rx="10" fill="#9aa7b8"/><rect x="130" y="372" width="252" height="74" rx="22" fill="#dbe4f0" stroke="#b7c4d6" stroke-width="4"/><path d="M214 152 L176 188 L214 224" fill="none" stroke="#7dd3fc" stroke-width="14" stroke-linecap="round" stroke-linejoin="round"/><path d="M298 152 L336 188 L298 224" fill="none" stroke="#7dd3fc" stroke-width="14" stroke-linecap="round" stroke-linejoin="round"/><path d="M270 144 L242 232" fill="none" stroke="#7dd3fc" stroke-width="14" stroke-linecap="round"/><circle cx="414" cy="160" r="36" fill="#fde68a" stroke="#f59e0b" stroke-width="6"/><path d="M414 136 L420 146 L432 148 L424 158 L426 170 L414 164 L402 170 L404 158 L396 148 L408 146 Z" fill="#f59e0b"/><path d="M414 196 L414 220 M414 100 L414 124 M450 160 L474 160 M354 160 L378 160 M440 186 L456 202 M372 118 L388 134 M440 134 L456 118 M372 202 L388 186" stroke="#f59e0b" stroke-width="8" stroke-linecap="round"/><circle cx="142" cy="178" r="8" fill="#22c55e"/><circle cx="142" cy="204" r="8" fill="#22c55e"/><circle cx="142" cy="230" r="8" fill="#22c55e"/><path d="M166 178 H190 M166 204 H200 M166 230 H184" stroke="#60a5fa" stroke-width="8" stroke-linecap="round"/><path d="M98 430 C128 404 148 404 178 430 S228 456 256 430 S306 404 336 430 S384 456 414 430" fill="none" stroke="#cbd5e1" stroke-width="10" stroke-linecap="round"/></svg>