<svg xmlns="http://www.w3.org/2000/svg" width="512" height="512" viewBox="0 0 512 512"><rect width="512" height="512" fill="#f7f2e8"/><g stroke="#3b2a1a" stroke-width="10" stroke-linejoin="round" stroke-linecap="round"><path d="M176 392h160l-18-34H194z" fill="#c89b4a"/><path d="M188 358h136l-10-48H198z" fill="#d8b05a"/><path d="M198 310h116l-10-58H208z" fill="#e4c16d"/><path d="M208 252h96l-12-36H220z" fill="#d8b05a"/><path d="M220 216h72l-8-24H228z" fill="#c89b4a"/><path d="M229 192h54l-8-26h-38z" fill="#e4c16d"/><path d="M240 166h32l-6-20h-20z" fill="#c89b4a"/><circle cx="256" cy="140" r="18" fill="#d8b05a"/><path d="M148 416h216"/><path d="M160 392l-18 40h228l-18-40" fill="#b78938"/><circle cx="256" cy="140" r="6" fill="#3b2a1a" stroke="none"/><path d="M256 124l-12-18 12-16 12 16z" fill="#d8b05a"/><path d="M231 154l-18-14 10-20 20 12z" fill="#d8b05a"/><path d="M281 154l18-14-10-20-20 12z" fill="#d8b05a"/></g><circle cx="256" cy="140" r="34" fill="none" stroke="#f4d98c" stroke-width="8" opacity="0.45"/></svg>