<svg xmlns="http://www.w3.org/2000/svg" viewBox="0 0 512 512" width="512" height="512"><defs><linearGradient id="sky" x1="0" y1="0" x2="0" y2="1"><stop offset="0%" stop-color="#b3e5fc"/><stop offset="100%" stop-color="#e3f2fd"/></linearGradient><clipPath id="topHalf"><rect x="0" y="0" width="512" height="360"/></clipPath></defs><rect width="512" height="512" fill="url(#sky)"/><circle cx="410" cy="90" r="28" fill="#fff59d" opacity="0.95"/><g clip-path="url(#topHalf)" fill="none" stroke-linecap="round"><circle cx="256" cy="360" r="150" stroke="#e53935" stroke-width="12"/><circle cx="256" cy="360" r="138" stroke="#fb8c00" stroke-width="12"/><circle cx="256" cy="360" r="126" stroke="#fdd835" stroke-width="12"/><circle cx="256" cy="360" r="114" stroke="#43a047" stroke-width="12"/><circle cx="256" cy="360" r="102" stroke="#1e88e5" stroke-width="12"/><circle cx="256" cy="360" r="90" stroke="#3949ab" stroke-width="12"/><circle cx="256" cy="360" r="78" stroke="#8e24aa" stroke-width="12"/></g><g fill="#ffffff"><circle cx="180" cy="392" r="28"/><circle cx="214" cy="372" r="34"/><circle cx="254" cy="386" r="38"/><circle cx="292" cy="372" r="32"/><circle cx="330" cy="394" r="26"/><rect x="176" y="390" width="160" height="34" rx="17"/></g><ellipse cx="256" cy="436" rx="150" ry="18" fill="#90caf9" opacity="0.25"/></svg>