<svg xmlns="http://www.w3.org/2000/svg" width="512" height="512" viewBox="0 0 512 512"><rect width="512" height="512" fill="#cfefff"/><rect y="280" width="512" height="232" fill="#7ec8ff"/><circle cx="414" cy="92" r="34" fill="#ffd85a"/><rect x="200" y="170" width="28" height="125" rx="10" fill="#7b4a1f"/><circle cx="214" cy="156" r="38" fill="#4caf50"/><circle cx="182" cy="188" r="30" fill="#4caf50"/><circle cx="244" cy="188" r="30" fill="#4caf50"/><circle cx="214" cy="214" r="34" fill="#4caf50"/><path d="M156 280 C188 268, 224 268, 256 280 C288 292, 324 292, 356 280" fill="none" stroke="#ffffff" stroke-width="6" opacity="0.7"/><path d="M148 302 C184 292, 224 292, 260 302 C296 312, 336 312, 372 302" fill="none" stroke="#ffffff" stroke-width="5" opacity="0.55"/><path d="M176 328 C206 320, 238 320, 268 328 C298 336, 330 336, 360 328" fill="none" stroke="#ffffff" stroke-width="4" opacity="0.45"/><g opacity="0.35" transform="translate(0,560) scale(1,-1)"><rect x="200" y="170" width="28" height="125" rx="10" fill="#7b4a1f"/><circle cx="214" cy="156" r="38" fill="#4caf50"/><circle cx="182" cy="188" r="30" fill="#4caf50"/><circle cx="244" cy="188" r="30" fill="#4caf50"/><circle cx="214" cy="214" r="34" fill="#4caf50"/></g><path d="M175 312 C196 328, 220 336, 246 338" fill="none" stroke="#ffffff" stroke-width="4" opacity="0.4"/><path d="M266 338 C292 336, 316 328, 338 312" fill="none" stroke="#ffffff" stroke-width="4" opacity="0.4"/></svg>