<svg xmlns="http://www.w3.org/2000/svg" width="512" height="512" viewBox="0 0 512 512"><rect width="512" height="512" fill="#0b1020"/><circle cx="120" cy="110" r="3" fill="#ffffff" opacity="0.9"/><circle cx="380" cy="80" r="2.5" fill="#ffffff" opacity="0.8"/><circle cx="430" cy="170" r="2" fill="#ffffff" opacity="0.7"/><circle cx="70" cy="220" r="2" fill="#ffffff" opacity="0.7"/><circle cx="410" cy="300" r="3" fill="#ffffff" opacity="0.8"/><g transform="translate(256 260)"><path d="M0-150C34-118 54-73 54-18V72H-54V-18C-54-73-34-118 0-150Z" fill="#d9e2f2" stroke="#7a8797" stroke-width="4"/><path d="M0-150C20-120 32-88 36-52H-36C-32-88-20-120 0-150Z" fill="#ff5a5f"/><circle cx="0" cy="-12" r="24" fill="#8fd3ff" stroke="#4c6b88" stroke-width="4"/><path d="M-54 20L-112 48L-54 72Z" fill="#ff7b3a" stroke="#b84a1f" stroke-width="4"/><path d="M54 20L112 48L54 72Z" fill="#ff7b3a" stroke="#b84a1f" stroke-width="4"/><rect x="-18" y="72" width="36" height="64" rx="10" fill="#7a8797"/><path d="M-20 136C-6 150 6 150 20 136L0 188Z" fill="#ffd34d" stroke="#d48b00" stroke-width="4"/><path d="M-10 136C-2 148 2 148 10 136L0 164Z" fill="#ff8a00" opacity="0.95"/><path d="M-28 150C-18 164 -10 166 0 150C10 166 18 164 28 150C18 184 -18 184 -28 150Z" fill="#ffb347" opacity="0.45"/></g><ellipse cx="256" cy="424" rx="78" ry="18" fill="#000000" opacity="0.2"/></svg>