<svg xmlns="http://www.w3.org/2000/svg" width="512" height="512" viewBox="0 0 512 512"><rect width="512" height="512" fill="#f4fbff"/><circle cx="88" cy="92" r="8" fill="#d9eefc"/><circle cx="420" cy="104" r="6" fill="#d9eefc"/><circle cx="92" cy="404" r="7" fill="#d9eefc"/><circle cx="418" cy="392" r="8" fill="#d9eefc"/><g transform="translate(256 162)"><ellipse cx="0" cy="0" rx="118" ry="42" fill="none" stroke="#4d8bd6" stroke-width="8" opacity="0.9" transform="rotate(18)"/><ellipse cx="0" cy="0" rx="118" ry="42" fill="none" stroke="#7b5cff" stroke-width="8" opacity="0.85" transform="rotate(-18)"/><ellipse cx="0" cy="0" rx="118" ry="42" fill="none" stroke="#2fb7a3" stroke-width="8" opacity="0.8" transform="rotate(90)"/><circle cx="0" cy="0" r="24" fill="#ffcc4d" stroke="#f4a62a" stroke-width="6"/><circle cx="118" cy="0" r="10" fill="#4d8bd6"/><circle cx="-118" cy="0" r="10" fill="#7b5cff"/><circle cx="0" cy="42" r="10" fill="#2fb7a3"/></g><g transform="translate(256 322)"><path d="M-54 -92h108v26l28 55c14 27 20 58 14 87-8 40-38 72-79 82-42 10-86-5-113-39-24-30-29-71-15-106l23-57v-28z" fill="#ffffff" stroke="#2d6cdf" stroke-width="8" stroke-linejoin="round"/><path d="M-37 -44h74l17 33c11 22 14 48 7 72-8 26-30 48-58 55-31 8-64-2-84-27-17-21-21-50-11-75l15-37z" fill="#8fe3c9" opacity="0.95"/><path d="M-54 -92h108" stroke="#2d6cdf" stroke-width="8" stroke-linecap="round"/><circle cx="-18" cy="10" r="8" fill="#ffffff" opacity="0.9"/><circle cx="20" cy="-8" r="6" fill="#ffffff" opacity="0.9"/><circle cx="42" cy="22" r="9" fill="#ffffff" opacity="0.9"/><circle cx="-2" cy="34" r="6" fill="#ffffff" opacity="0.9"/><path d="M-68 70c22 16 46 24 72 24 25 0 48-7 68-20" fill="none" stroke="#2fb7a3" stroke-width="10" stroke-linecap="round" opacity="0.8"/></g><g fill="#f7b94b"><circle cx="356" cy="300" r="7"/><circle cx="382" cy="332" r="5"/><circle cx="332" cy="344" r="6"/><circle cx="338" cy="286" r="4"/></g><path d="M170 420h172" stroke="#c9d9ea" stroke-width="10" stroke-linecap="round" opacity="0.8"/></svg>