<svg xmlns="http://www.w3.org/2000/svg" viewBox="0 0 512 512"><defs><linearGradient id="sky" x1="0" y1="0" x2="0" y2="1"><stop offset="0%" stop-color="#bfe8ff"/><stop offset="100%" stop-color="#eef9ff"/></linearGradient><linearGradient id="trunk" x1="0" y1="0" x2="1" y2="0"><stop offset="0%" stop-color="#5f3119"/><stop offset="45%" stop-color="#8a4d29"/><stop offset="100%" stop-color="#553018"/></linearGradient></defs><rect width="512" height="512" fill="url(#sky)"/><ellipse cx="256" cy="470" rx="178" ry="30" fill="#5fa35f"/><circle cx="118" cy="104" r="26" fill="#fff" opacity="0.8"/><g fill="#2f7f36"><ellipse cx="256" cy="132" rx="44" ry="28"/><ellipse cx="222" cy="148" rx="40" ry="24"/><ellipse cx="290" cy="148" rx="40" ry="24"/><ellipse cx="188" cy="170" rx="34" ry="20"/><ellipse cx="324" cy="170" rx="34" ry="20"/><ellipse cx="256" cy="170" rx="72" ry="32"/></g><path d="M204 470 C202 395,205 328,216 258 C222 218,233 188,256 170 C279 188,290 218,296 258 C307 328,310 395,308 470 Z" fill="url(#trunk)"/><path d="M222 469 C219 405,223 335,232 262 C236 231,241 206,248 188" fill="none" stroke="#6f3c1f" stroke-width="8" stroke-linecap="round" opacity="0.7"/><path d="M254 470 C253 398,255 333,258 258 C260 228,262 205,268 186" fill="none" stroke="#6a381d" stroke-width="7" stroke-linecap="round" opacity="0.7"/><path d="M287 468 C287 400,283 333,276 258 C272 226,269 204,263 188" fill="none" stroke="#91542d" stroke-width="7" stroke-linecap="round" opacity="0.55"/><path d="M190 298 C216 286,237 280,256 280 C275 280,296 286,322 298" fill="none" stroke="#6d3a1e" stroke-width="10" stroke-linecap="round" opacity="0.8"/><path d="M190 350 C218 340,238 336,256 336 C274 336,294 340,322 350" fill="none" stroke="#6d3a1e" stroke-width="10" stroke-linecap="round" opacity="0.8"/><path d="M178 470 C184 446,194 430,210 420" fill="none" stroke="#7c4422" stroke-width="10" stroke-linecap="round"/><path d="M334 470 C328 446,318 430,302 420" fill="none" stroke="#7c4422" stroke-width="10" stroke-linecap="round"/><path d="M210 214 C188 206,170 196,156 182" fill="none" stroke="#7c4422" stroke-width="8" stroke-linecap="round"/><path d="M302 214 C324 206,342 196,356 182" fill="none" stroke="#7c4422" stroke-width="8" stroke-linecap="round"/><g fill="#215e28" opacity="0.65"><circle cx="230" cy="122" r="10"/><circle cx="278" cy="118" r="10"/><circle cx="202" cy="156" r="10"/><circle cx="310" cy="156" r="10"/></g><g transform="translate(86 390)"><circle cx="0" cy="12" r="6" fill="#2e2e2e"/><path d="M0 18 L0 38 M0 26 L-8 32 M0 26 L8 32 M0 38 L-6 52 M0 38 L6 52" stroke="#2e2e2e" stroke-width="4" stroke-linecap="round" fill="none"/></g></svg>