<svg xmlns="http://www.w3.org/2000/svg" width="512" height="512" viewBox="0 0 512 512"><rect width="512" height="512" fill="#ffffff"/><circle cx="190" cy="170" r="58" fill="#f2c9a0"/><path d="M154 160c18-38 66-48 92-18-2 29-17 48-41 58-24 10-46 7-51-4-4-9-3-23 0-36z" fill="#5a3a2b"/><circle cx="170" cy="172" r="6" fill="#2b1d16"/><circle cx="212" cy="172" r="6" fill="#2b1d16"/><path d="M172 194c16 10 35 10 49-1" fill="none" stroke="#2b1d16" stroke-width="5" stroke-linecap="round"/><rect x="158" y="225" width="66" height="102" rx="18" fill="#4c78a8"/><path d="M158 250c-20 8-34 24-43 50" fill="none" stroke="#f2c9a0" stroke-width="16" stroke-linecap="round"/><path d="M224 250c18 10 32 26 39 49" fill="none" stroke="#f2c9a0" stroke-width="16" stroke-linecap="round"/><rect x="150" y="324" width="34" height="98" rx="14" fill="#3b5e87"/><rect x="197" y="324" width="34" height="98" rx="14" fill="#3b5e87"/><rect x="130" y="416" width="68" height="18" rx="9" fill="#2f2f2f"/><rect x="183" y="416" width="68" height="18" rx="9" fill="#2f2f2f"/><rect x="244" y="188" width="18" height="150" rx="9" fill="#6d6d6d"/><circle cx="253" cy="176" r="24" fill="#8a8a8a"/><circle cx="253" cy="176" r="12" fill="#2f2f2f"/><path d="M286 145c18 6 30 21 34 40" fill="none" stroke="#ffcc33" stroke-width="8" stroke-linecap="round"/><path d="M302 118c27 10 45 35 49 65" fill="none" stroke="#ffcc33" stroke-width="8" stroke-linecap="round"/><path d="M314 176c20 1 35 9 46 24" fill="none" stroke="#ffcc33" stroke-width="8" stroke-linecap="round"/><path d="M111 110c20 6 32 20 37 43" fill="none" stroke="#ffcc33" stroke-width="8" stroke-linecap="round"/><path d="M86 150c22 2 38 13 49 34" fill="none" stroke="#ffcc33" stroke-width="8" stroke-linecap="round"/><path d="M405 280c14 4 24 14 29 29" fill="none" stroke="#ffcc33" stroke-width="8" stroke-linecap="round"/><path d="M425 250c18 5 30 18 36 38" fill="none" stroke="#ffcc33" stroke-width="8" stroke-linecap="round"/></svg>