<svg xmlns="http://www.w3.org/2000/svg" width="512" height="512" viewBox="0 0 512 512"><rect width="512" height="512" fill="#dff3f0"/><circle cx="430" cy="90" r="42" fill="#eaf7d8"/><circle cx="110" cy="82" r="30" fill="#eaf7d8"/><rect x="70" y="108" width="372" height="24" rx="12" fill="#7a4b26"/><path d="M92 114 C150 96, 196 96, 256 110 S362 126, 420 108" fill="none" stroke="#5f381d" stroke-width="10" stroke-linecap="round"/><ellipse cx="258" cy="292" rx="96" ry="118" fill="#8c6a4c"/><ellipse cx="258" cy="312" rx="58" ry="78" fill="#d8bf9d"/><circle cx="258" cy="202" r="60" fill="#8c6a4c"/><ellipse cx="258" cy="210" rx="38" ry="32" fill="#e7d3bb"/><ellipse cx="236" cy="198" rx="16" ry="18" fill="#5c4a3e"/><ellipse cx="280" cy="198" rx="16" ry="18" fill="#5c4a3e"/><circle cx="236" cy="200" r="6" fill="#1f1a17"/><circle cx="280" cy="200" r="6" fill="#1f1a17"/><path d="M250 216 Q258 224 266 216" fill="none" stroke="#5c4a3e" stroke-width="5" stroke-linecap="round"/><path d="M246 228 Q258 236 270 228" fill="none" stroke="#5c4a3e" stroke-width="4" stroke-linecap="round"/><path d="M201 244 C176 218, 163 176, 160 140" fill="none" stroke="#8c6a4c" stroke-width="22" stroke-linecap="round"/><path d="M315 244 C342 218, 356 178, 360 140" fill="none" stroke="#8c6a4c" stroke-width="22" stroke-linecap="round"/><path d="M160 140 C156 123, 152 117, 146 112" fill="none" stroke="#8c6a4c" stroke-width="22" stroke-linecap="round"/><path d="M360 140 C364 123, 368 117, 374 112" fill="none" stroke="#8c6a4c" stroke-width="22" stroke-linecap="round"/><path d="M198 240 C170 282, 168 334, 190 374" fill="none" stroke="#8c6a4c" stroke-width="22" stroke-linecap="round"/><path d="M318 240 C346 282, 348 334, 326 374" fill="none" stroke="#8c6a4c" stroke-width="22" stroke-linecap="round"/><path d="M186 374 C176 395, 174 412, 184 426" fill="none" stroke="#8c6a4c" stroke-width="18" stroke-linecap="round"/><path d="M330 374 C340 395, 342 412, 332 426" fill="none" stroke="#8c6a4c" stroke-width="18" stroke-linecap="round"/><path d="M138 112 l-12 -18 M148 112 l-4 -20 M158 112 l4 -20" stroke="#5c4a3e" stroke-width="4" stroke-linecap="round"/></svg>