<svg xmlns="http://www.w3.org/2000/svg" width="512" height="512" viewBox="0 0 512 512"><defs><radialGradient id="g" cx="35%" cy="30%" r="80%"><stop offset="0%" stop-color="#79d85a"/><stop offset="100%" stop-color="#46a42d"/></radialGradient><clipPath id="ballClip"><circle cx="256" cy="270" r="136"/></clipPath></defs><rect width="512" height="512" fill="url(#g)"/><ellipse cx="256" cy="405" rx="155" ry="28" fill="#2f7f1e" opacity="0.35"/><g clip-path="url(#ballClip)"><circle cx="256" cy="270" r="136" fill="#f7f7f7"/><polygon points="256,235 279,251 270,278 242,278 233,251" fill="#111"/><polygon points="256,170 278,185 272,210 240,210 234,185" fill="#111"/><polygon points="198,248 219,230 241,243 234,272 206,274" fill="#111"/><polygon points="314,248 293,230 271,243 278,272 306,274" fill="#111"/><polygon points="216,330 238,314 263,327 257,353 228,359" fill="#111"/><polygon points="296,330 274,314 249,327 255,353 284,359" fill="#111"/><polygon points="218,198 230,182 251,191 247,214 224,216" fill="#111"/><polygon points="294,198 282,182 261,191 265,214 288,216" fill="#111"/></g><circle cx="256" cy="270" r="136" fill="none" stroke="#111" stroke-width="8"/><path d="M158 250c24-32 58-52 98-58" fill="none" stroke="#fff" stroke-width="10" stroke-linecap="round" opacity="0.5"/></svg>