<svg xmlns="http://www.w3.org/2000/svg" width="512" height="512" viewBox="0 0 512 512"><rect width="512" height="512" rx="36" fill="#f4f7fb"/><rect x="92" y="126" width="328" height="220" rx="18" fill="#1f2937"/><rect x="116" y="148" width="280" height="176" rx="10" fill="#e9eef5"/><rect x="76" y="350" width="360" height="34" rx="12" fill="#374151"/><rect x="188" y="340" width="136" height="18" rx="9" fill="#6b7280"/><rect x="144" y="176" width="224" height="120" rx="12" fill="#ffffff" stroke="#d7dee8" stroke-width="4"/><circle cx="256" cy="236" r="30" fill="#7c3aed" opacity="0.92"/><circle cx="256" cy="236" r="14" fill="#ffffff"/><g fill="#7c3aed"><rect x="252" y="192" width="8" height="18" rx="4"/><rect x="252" y="262" width="8" height="18" rx="4"/><rect x="212" y="232" width="18" height="8" rx="4"/><rect x="282" y="232" width="18" height="8" rx="4"/><rect x="223" y="203" width="8" height="18" rx="4" transform="rotate(-45 227 212)"/><rect x="281" y="261" width="8" height="18" rx="4" transform="rotate(-45 285 270)"/><rect x="281" y="203" width="8" height="18" rx="4" transform="rotate(45 285 212)"/><rect x="223" y="261" width="8" height="18" rx="4" transform="rotate(45 227 270)"/></g><path d="M176 292h160" stroke="#93c5fd" stroke-width="8" stroke-linecap="round"/><path d="M176 270h120" stroke="#c4b5fd" stroke-width="8" stroke-linecap="round"/><path d="M176 248h88" stroke="#93c5fd" stroke-width="8" stroke-linecap="round"/></svg>