<svg xmlns="http://www.w3.org/2000/svg" width="512" height="512" viewBox="0 0 512 512"><rect width="512" height="512" fill="#f4f7fb"/><g transform="translate(0,10)"><path d="M138 210c18-55 68-94 126-94 72 0 130 56 130 126 0 72-58 128-130 128-62 0-114-42-127-99-5-23-6-41 1-61z" fill="#1e8fff"/><path d="M166 202c-9-20-11-42-5-62 22-11 49-11 76 1-13 17-18 38-15 64-23 11-41 12-56-3z" fill="#1c7fe0"/><path d="M204 125c14-18 35-30 60-33 12 18 14 43 7 73-21 3-42 13-58 29-12-22-16-45-9-69z" fill="#1a74cf"/><path d="M272 93c28 4 52 18 68 40-13 18-32 32-57 41-15-25-25-48-11-81z" fill="#1b7be0"/><path d="M339 145c21 16 35 39 39 66-18 12-40 18-64 18-3-22-14-43-31-61 17-15 35-23 56-23z" fill="#1f8fff"/><path d="M356 222c10 25 10 53 0 78-20 8-41 10-63 5 1-23-4-45-14-65 23-10 43-17 77-18z" fill="#1b7be0"/><path d="M248 171c53 0 96 43 96 96s-43 96-96 96-96-43-96-96 43-96 96-96z" fill="#f5d7b8"/><ellipse cx="238" cy="220" rx="24" ry="34" fill="#fff"/><circle cx="242" cy="228" r="11" fill="#1b2b4b"/><circle cx="235" cy="224" r="3.5" fill="#fff"/><path d="M195 267c20 19 43 28 69 28 22 0 41-6 58-18-7 30-31 53-62 53-32 0-58-23-65-63z" fill="#e6b48f"/><path d="M184 307c16 26 40 44 69 51 18 5 37 4 58-3 1 20-3 38-13 53-18 28-46 42-86 42-34 0-61-10-82-30-22-21-34-47-34-78 0-18 5-34 14-49 17 0 39 5 74 14z" fill="#1e8fff" opacity="0.95"/><path d="M173 303c10 21 25 35 44 43-18 13-39 20-62 21-7-11-10-22-10-34 0-14 4-25 12-33 5-6 10-6 16 3z" fill="#1c7fe0"/><path d="M303 349c17-2 34-11 50-27 17 8 31 19 41 34-8 29-28 52-57 67-11-15-24-33-34-74z" fill="#1a74cf"/><path d="M132 369c35 16 64 18 91 8-3 24-12 45-27 61-31 1-56-9-75-29-10-11-15-25-17-41 11 0 18 0 28 1z" fill="#165fb8"/><ellipse cx="190" cy="384" rx="34" ry="18" fill="#d52d2d" transform="rotate(18 190 384)"/><rect x="165" y="388" width="82" height="22" rx="11" fill="#ffffff" transform="rotate(18 165 388)"/><ellipse cx="205" cy="404" rx="42" ry="18" fill="#f0f0f0" transform="rotate(18 205 404)"/><ellipse cx="216" cy="392" rx="31" ry="16" fill="#d52d2d" transform="rotate(18 216 392)"/></g></svg>