<svg xmlns="http://www.w3.org/2000/svg" viewBox="0 0 512 512"><defs><radialGradient id="bg" cx="50%" cy="50%" r="70%"><stop offset="0%" stop-color="#10162b"/><stop offset="100%" stop-color="#03040a"/></radialGradient><radialGradient id="blast" cx="50%" cy="50%" r="50%"><stop offset="0%" stop-color="#fff7cf"/><stop offset="20%" stop-color="#ffd36a"/><stop offset="45%" stop-color="#ff8a2a"/><stop offset="70%" stop-color="#e64b2e"/><stop offset="100%" stop-color="#7a1d2b"/></radialGradient><radialGradient id="core" cx="50%" cy="50%" r="50%"><stop offset="0%" stop-color="#ffffff"/><stop offset="45%" stop-color="#fff6b8"/><stop offset="100%" stop-color="#ffd45c"/></radialGradient><linearGradient id="ray" x1="0" y1="0" x2="1" y2="0"><stop offset="0%" stop-color="#fff4b8"/><stop offset="40%" stop-color="#ffbf52"/><stop offset="100%" stop-color="#ff6b2c"/></linearGradient></defs><rect width="512" height="512" fill="url(#bg)"/><g opacity="0.95"><circle cx="256" cy="256" r="170" fill="url(#blast)" opacity="0.7"/><g stroke="url(#ray)" stroke-linecap="round" opacity="0.95"><line x1="256" y1="256" x2="256" y2="70" stroke-width="10"/><line x1="256" y1="256" x2="356" y2="92" stroke-width="8"/><line x1="256" y1="256" x2="442" y2="152" stroke-width="9"/><line x1="256" y1="256" x2="452" y2="256" stroke-width="11"/><line x1="256" y1="256" x2="430" y2="358" stroke-width="8"/><line x1="256" y1="256" x2="358" y2="428" stroke-width="10"/><line x1="256" y1="256" x2="256" y2="446" stroke-width="9"/><line x1="256" y1="256" x2="154" y2="430" stroke-width="8"/><line x1="256" y1="256" x2="78" y2="360" stroke-width="10"/><line x1="256" y1="256" x2="60" y2="256" stroke-width="9"/><line x1="256" y1="256" x2="80" y2="150" stroke-width="8"/><line x1="256" y1="256" x2="154" y2="88" stroke-width="10"/></g><circle cx="256" cy="256" r="58" fill="url(#core)"/><g fill="#fff9d8" opacity="0.95"><circle cx="256" cy="168" r="8"/><circle cx="330" cy="186" r="6"/><circle cx="388" cy="256" r="7"/><circle cx="344" cy="334" r="6"/><circle cx="256" cy="384" r="8"/><circle cx="170" cy="344" r="6"/><circle cx="124" cy="256" r="7"/><circle cx="170" cy="174" r="6"/></g><g fill="#ff9a3c" opacity="0.85"><circle cx="294" cy="156" r="10"/><circle cx="382" cy="204" r="8"/><circle cx="404" cy="312" r="10"/><circle cx="320" cy="390" r="8"/><circle cx="214" cy="402" r="9"/><circle cx="118" cy="322" r="7"/><circle cx="102" cy="190" r="9"/><circle cx="198" cy="116" r="8"/></g><g fill="#7fd7ff" opacity="0.7"><circle cx="334" cy="132" r="5"/><circle cx="430" cy="226" r="5"/><circle cx="390" cy="384" r="5"/><circle cx="214" cy="448" r="5"/><circle cx="88" cy="392" r="5"/><circle cx="74" cy="148" r="5"/><circle cx="186" cy="70" r="5"/></g></g></svg>