<svg xmlns="http://www.w3.org/2000/svg" width="512" height="512" viewBox="0 0 512 512"><rect width="512" height="512" fill="#cfe8ff"/><g fill="#7f8c8d"><ellipse cx="192" cy="226" rx="62" ry="48"/><ellipse cx="250" cy="202" rx="78" ry="58"/><ellipse cx="314" cy="224" rx="62" ry="46"/><ellipse cx="150" cy="252" rx="56" ry="40"/><ellipse cx="226" cy="246" rx="98" ry="56"/><ellipse cx="312" cy="250" rx="86" ry="50"/><rect x="126" y="240" width="260" height="56" rx="28"/></g><polygon points="270,286 214,392 270,392 236,486 356,346 298,346 332,286" fill="#ffd400" stroke="#c79f00" stroke-width="8" stroke-linejoin="round"/><g stroke="#4aa3ff" stroke-width="10" stroke-linecap="round"><line x1="164" y1="318" x2="150" y2="356"/><line x1="216" y1="324" x2="202" y2="368"/><line x1="300" y1="322" x2="286" y2="368"/><line x1="352" y1="318" x2="338" y2="356"/></g></svg>