<svg xmlns="http://www.w3.org/2000/svg" width="512" height="512" viewBox="0 0 512 512"><defs><linearGradient id="sky" x1="0" y1="0" x2="0" y2="1"><stop offset="0%" stop-color="#6ec6ff"/><stop offset="100%" stop-color="#eaf7ff"/></linearGradient><linearGradient id="tower" x1="0" y1="0" x2="0" y2="1"><stop offset="0%" stop-color="#ef5b5b"/><stop offset="100%" stop-color="#b92e2e"/></linearGradient></defs><rect width="512" height="512" fill="url(#sky)"/><circle cx="392" cy="92" r="34" fill="#ffd86b" opacity="0.95"/><path d="M110 270 C150 225, 205 210, 250 235 C275 195, 335 185, 392 220 C425 240, 445 250, 468 268 L468 300 L110 300 Z" fill="#5d8aa8" opacity="0.55"/><path d="M140 300 L170 260 L205 300 Z" fill="#7fa0b8"/><path d="M168 300 L207 235 L246 300 Z" fill="#6e8ea8"/><path d="M220 300 L258 250 L296 300 Z" fill="#7a9ab2"/><path d="M250 300 L292 225 L334 300 Z" fill="#6d8fa8"/><path d="M280 300 L324 245 L368 300 Z" fill="#7fa0b8"/><g fill="#3b4b5a"><rect x="28" y="314" width="34" height="72" rx="2"/><rect x="66" y="286" width="42" height="100" rx="2"/><rect x="116" y="330" width="30" height="56" rx="2"/><rect x="150" y="300" width="38" height="86" rx="2"/><rect x="196" y="320" width="28" height="66" rx="2"/><rect x="230" y="292" width="50" height="94" rx="2"/><rect x="288" y="324" width="34" height="62" rx="2"/><rect x="328" y="304" width="44" height="82" rx="2"/><rect x="378" y="334" width="30" height="52" rx="2"/><rect x="414" y="294" width="46" height="92" rx="2"/><rect x="466" y="320" width="18" height="66" rx="2"/></g><g fill="#eef6ff" opacity="0.75"><rect x="36" y="328" width="10" height="8"/><rect x="50" y="342" width="10" height="8"/><rect x="76" y="300" width="12" height="10"/><rect x="92" y="322" width="12" height="10"/><rect x="126" y="346" width="9" height="8"/><rect x="162" y="316" width="10" height="8"/><rect x="176" y="334" width="10" height="8"/><rect x="206" y="340" width="8" height="8"/><rect x="238" y="308" width="12" height="10"/><rect x="260" y="330" width="10" height="8"/><rect x="296" y="344" width="9" height="8"/><rect x="336" y="318" width="10" height="8"/><rect x="350" y="338" width="10" height="8"/><rect x="382" y="348" width="8" height="8"/><rect x="428" y="312" width="12" height="10"/><rect x="446" y="336" width="10" height="8"/></g><path d="M246 388 L266 388 L274 420 L238 420 Z" fill="#f2f2f2"/><rect x="248" y="298" width="16" height="90" rx="8" fill="url(#tower)"/><rect x="230" y="314" width="52" height="12" rx="6" fill="url(#tower)"/><rect x="224" y="345" width="64" height="12" rx="6" fill="url(#tower)"/><rect x="218" y="378" width="76" height="12" rx="6" fill="url(#tower)"/><path d="M256 122 L273 170 L239 170 Z" fill="url(#tower)"/><path d="M256 170 L294 300 L218 300 Z" fill="url(#tower)"/><path d="M256 170 L242 206 L270 206 Z" fill="#ffffff" opacity="0.9"/><path d="M252 208 L244 230 L268 230 Z" fill="#ffffff" opacity="0.9"/><path d="M248 230 L240 250 L272 250 Z" fill="#ffffff" opacity="0.9"/><path d="M244 250 L236 270 L276 270 Z" fill="#ffffff" opacity="0.9"/><g stroke="#f7d6d6" stroke-width="4" opacity="0.75"><path d="M232 190 L280 190"/><path d="M226 220 L286 220"/><path d="M220 250 L292 250"/><path d="M215 280 L297 280"/><path d="M246 176 L220 300"/><path d="M266 176 L292 300"/></g><path d="M38 450 C80 430, 114 430, 160 446 C198 459, 242 462, 286 446 C330 430, 382 428, 474 450 L474 512 L38 512 Z" fill="#6fb26f"/><g fill="#ff7fb4"><circle cx="96" cy="408" r="14"/><circle cx="118" cy="396" r="12"/><circle cx="142" cy="408" r="13"/><circle cx="356" cy="398" r="14"/><circle cx="378" cy="386" r="12"/><circle cx="404" cy="398" r="13"/><circle cx="334" cy="420" r="10"/><circle cx="154" cy="386" r="9"/><circle cx="92" cy="432" r="10"/><circle cx="120" cy="428" r="9"/><circle cx="140" cy="432" r="10"/><circle cx="376" cy="418" r="10"/><circle cx="398" cy="412" r="9"/></g><g fill="#ffd9ea"><circle cx="86" cy="404" r="5"/><circle cx="110" cy="390" r="5"/><circle cx="136" cy="403" r="5"/><circle cx="348" cy="394" r="5"/><circle cx="370" cy="382" r="5"/><circle cx="396" cy="395" r="5"/><circle cx="146" cy="382" r="4"/><circle cx="332" cy="417" r="4"/></g><path d="M98 440 C86 426, 82 410, 86 398 C92 382, 106 372, 122 370 C138 368, 154 374, 164 388 C172 400, 174 416, 168 430 C162 446, 146 456, 130 458 C116 460, 104 452, 98 440 Z" fill="#7a4f2a"/><path d="M126 368 C124 352, 124 338, 130 324" stroke="#7a4f2a" stroke-width="10" stroke-linecap="round" fill="none"/><path d="M126 330 C112 326, 104 314, 98 302" stroke="#7a4f2a" stroke-width="7" stroke-linecap="round" fill="none"/><path d="M134 334 C150 326, 162 314, 170 300" stroke="#7a4f2a" stroke-width="7" stroke-linecap="round" fill="none"/></svg>