<svg xmlns="http://www.w3.org/2000/svg" width="512" height="512" viewBox="0 0 512 512"><rect width="512" height="512" fill="#dff3ff"/><rect y="380" width="512" height="132" fill="#8bc34a"/><rect x="156" y="120" width="200" height="260" rx="8" fill="#8b8f98" stroke="#5f646d" stroke-width="6"/><polygon points="156,120 180,92 332,92 356,120" fill="#7a7f88" stroke="#5f646d" stroke-width="6"/><rect x="190" y="150" width="38" height="58" rx="4" fill="#cfe8ff" stroke="#5f646d" stroke-width="5"/><rect x="284" y="150" width="38" height="58" rx="4" fill="#cfe8ff" stroke="#5f646d" stroke-width="5"/><rect x="190" y="240" width="38" height="58" rx="4" fill="#cfe8ff" stroke="#5f646d" stroke-width="5"/><rect x="284" y="240" width="38" height="58" rx="4" fill="#cfe8ff" stroke="#5f646d" stroke-width="5"/><rect x="224" y="306" width="64" height="74" rx="8" fill="#6d4c41" stroke="#5f646d" stroke-width="5"/><rect x="208" y="76" width="96" height="18" rx="4" fill="#7a7f88" stroke="#5f646d" stroke-width="5"/><polygon points="256,42 274,76 238,76" fill="#d94b4b" stroke="#5f646d" stroke-width="5"/><circle cx="256" cy="38" r="8" fill="#ffd54f" stroke="#5f646d" stroke-width="4"/><ellipse cx="256" cy="404" rx="120" ry="16" fill="#000000" opacity="0.12"/></svg>