<svg xmlns="http://www.w3.org/2000/svg" width="512" height="512" viewBox="0 0 512 512"><rect width="512" height="512" fill="#eaf6ff"/><rect x="0" y="360" width="512" height="152" fill="#8fd16b"/><circle cx="170" cy="360" r="72" fill="#2b2b2b"/><circle cx="170" cy="360" r="42" fill="#9aa0a6"/><circle cx="170" cy="360" r="18" fill="#4d4d4d"/><circle cx="345" cy="384" r="46" fill="#2b2b2b"/><circle cx="345" cy="384" r="26" fill="#9aa0a6"/><circle cx="345" cy="384" r="11" fill="#4d4d4d"/><path d="M135 315 H320 L355 338 H372 Q388 338 388 354 V366 H294 V342 H135 Z" fill="#d33f2f"/><path d="M294 342 H370 V290 Q370 272 352 272 H321 Q303 272 294 290 Z" fill="#f24a3a"/><path d="M305 281 H334 V226 Q334 214 322 214 H309 Q305 214 305 226 Z" fill="#3a3a3a"/><rect x="303" y="209" width="11" height="17" rx="2" fill="#3a3a3a"/><path d="M354 290 H404 Q422 290 430 306 L438 322 H354 Z" fill="#ffb347"/><path d="M354 308 H430 V326 H354 Z" fill="#ff9f1c"/><path d="M120 336 H170" stroke="#6b3f1d" stroke-width="8" stroke-linecap="round"/><rect x="180" y="295" width="70" height="14" rx="7" fill="#8a4f2a"/><rect x="94" y="334" width="34" height="10" rx="5" fill="#6b3f1d"/><path d="M199 311 L199 275" stroke="#1f1f1f" stroke-width="6" stroke-linecap="round"/><path d="M213 311 L213 278" stroke="#1f1f1f" stroke-width="6" stroke-linecap="round"/><path d="M227 311 L227 274" stroke="#1f1f1f" stroke-width="6" stroke-linecap="round"/><path d="M141 360 L159 348" stroke="#1f1f1f" stroke-width="6" stroke-linecap="round"/><path d="M141 360 L159 372" stroke="#1f1f1f" stroke-width="6" stroke-linecap="round"/><path d="M170 288 L170 432" stroke="#1f1f1f" stroke-width="6" stroke-linecap="round" opacity="0.55"/><path d="M98 360 L242 360" stroke="#1f1f1f" stroke-width="6" stroke-linecap="round" opacity="0.55"/></svg>