<svg xmlns="http://www.w3.org/2000/svg" width="512" height="512" viewBox="0 0 512 512"><rect width="512" height="512" fill="#121826"/><circle cx="390" cy="110" r="48" fill="#f5f1c8" opacity="0.9"/><path d="M104 400 L184 240 L256 300 L328 240 L408 400 L256 470 Z" fill="#5a0f1b"/><path d="M120 392 L192 258 L256 322 L320 258 L392 392 L256 454 Z" fill="#2a0a12" opacity="0.95"/><ellipse cx="256" cy="218" rx="92" ry="104" fill="#f2dfd2"/><path d="M170 212 Q256 132 342 212 Q320 176 292 168 Q256 156 220 168 Q192 176 170 212 Z" fill="#3a1426"/><path d="M205 186 Q220 174 238 186" stroke="#111" stroke-width="8" stroke-linecap="round" fill="none"/><path d="M274 186 Q292 174 307 186" stroke="#111" stroke-width="8" stroke-linecap="round" fill="none"/><circle cx="225" cy="218" r="7" fill="#111"/><circle cx="287" cy="218" r="7" fill="#111"/><path d="M232 246 Q256 264 280 246" stroke="#8b4b4b" stroke-width="6" stroke-linecap="round" fill="none"/><path d="M246 246 L240 262 L250 262" fill="#ffffff"/><path d="M266 246 L262 262 L272 262" fill="#ffffff"/><path d="M206 150 Q180 118 170 86" stroke="#7c1630" stroke-width="18" stroke-linecap="round" fill="none"/><path d="M306 150 Q332 118 342 86" stroke="#7c1630" stroke-width="18" stroke-linecap="round" fill="none"/><ellipse cx="146" cy="156" rx="18" ry="26" fill="#f2dfd2" transform="rotate(-18 146 156)"/><ellipse cx="366" cy="156" rx="18" ry="26" fill="#f2dfd2" transform="rotate(18 366 156)"/><path d="M226 308 Q256 340 286 308" stroke="#f2dfd2" stroke-width="10" stroke-linecap="round" fill="none"/><path d="M248 308 L210 418 L256 392 L302 418 L264 308" fill="#6b0f1f"/><ellipse cx="256" cy="418" rx="38" ry="12" fill="#000" opacity="0.25"/></svg>