<svg xmlns="http://www.w3.org/2000/svg" width="512" height="512" viewBox="0 0 512 512"><rect width="512" height="512" fill="#dff3ff"/><circle cx="420" cy="90" r="34" fill="#ffe27a"/><path d="M0 360 C80 330 120 390 190 360 S310 300 380 330 S470 390 512 360 V512 H0 Z" fill="#7ec36e"/><path d="M50 430 C130 360 150 300 230 280 S360 240 430 170" fill="none" stroke="#9b7a52" stroke-width="56" stroke-linecap="round" stroke-linejoin="round"/><path d="M50 430 C130 360 150 300 230 280 S360 240 430 170" fill="none" stroke="#d8c39a" stroke-width="42" stroke-linecap="round" stroke-linejoin="round"/><ellipse cx="96" cy="404" rx="10" ry="5" fill="#6b5338" transform="rotate(-28 96 404)"/><ellipse cx="120" cy="375" rx="10" ry="5" fill="#6b5338" transform="rotate(-28 120 375)"/><ellipse cx="145" cy="344" rx="10" ry="5" fill="#6b5338" transform="rotate(-28 145 344)"/><ellipse cx="171" cy="315" rx="10" ry="5" fill="#6b5338" transform="rotate(-28 171 315)"/><ellipse cx="198" cy="291" rx="10" ry="5" fill="#6b5338" transform="rotate(-28 198 291)"/><g transform="translate(250 250) rotate(-10)"><circle cx="0" cy="-34" r="18" fill="#f2c7a5"/><path d="M-16 -41 Q0 -58 16 -41 Q18 -22 0 -18 Q-18 -22 -16 -41Z" fill="#5c4b3a"/><path d="M-12 -16 Q0 -26 12 -16 L18 24 Q0 38 -18 24 Z" fill="#3d6a8a"/><path d="M-18 -8 L-40 8" stroke="#f2c7a5" stroke-width="8" stroke-linecap="round"/><path d="M18 -8 L36 10" stroke="#f2c7a5" stroke-width="8" stroke-linecap="round"/><path d="M-6 24 L-20 58" stroke="#2f2f2f" stroke-width="8" stroke-linecap="round"/><path d="M8 24 L24 56" stroke="#2f2f2f" stroke-width="8" stroke-linecap="round"/><path d="M-22 0 L-42 -10" stroke="#5a3d2d" stroke-width="10" stroke-linecap="round"/><path d="M22 2 L41 -8" stroke="#5a3d2d" stroke-width="10" stroke-linecap="round"/><rect x="14" y="-8" width="18" height="22" rx="4" fill="#8b5e3c"/><path d="M-22 -6 Q0 -2 22 -6" fill="none" stroke="#27465f" stroke-width="4"/></g><path d="M62 176 C88 155 108 150 138 166" fill="none" stroke="#5b8f4f" stroke-width="10" stroke-linecap="round"/><path d="M92 152 C104 132 120 122 138 118" fill="none" stroke="#5b8f4f" stroke-width="10" stroke-linecap="round"/><path d="M386 150 C404 132 424 126 448 130" fill="none" stroke="#5b8f4f" stroke-width="10" stroke-linecap="round"/><path d="M402 132 C408 112 422 100 440 96" fill="none" stroke="#5b8f4f" stroke-width="10" stroke-linecap="round"/></svg>