<svg xmlns="http://www.w3.org/2000/svg" width="512" height="512" viewBox="0 0 512 512"><rect width="512" height="512" fill="#f4efe7"/><rect x="116" y="82" width="280" height="360" rx="16" fill="#8b5a2b" stroke="#5c3717" stroke-width="8"/><rect x="132" y="98" width="248" height="328" rx="10" fill="#a06a35" stroke="#6d4420" stroke-width="6"/><line x1="256" y1="100" x2="256" y2="426" stroke="#6d4420" stroke-width="6"/><rect x="148" y="118" width="92" height="292" rx="6" fill="#b77a3d" opacity="0.35"/><rect x="272" y="118" width="92" height="292" rx="6" fill="#b77a3d" opacity="0.35"/><circle cx="242" cy="256" r="7" fill="#e7d2a7" stroke="#5c3717" stroke-width="4"/><circle cx="270" cy="256" r="7" fill="#e7d2a7" stroke="#5c3717" stroke-width="4"/><rect x="150" y="122" width="78" height="4" fill="#d8b37a" opacity="0.6"/><rect x="284" y="122" width="78" height="4" fill="#d8b37a" opacity="0.6"/><rect x="150" y="418" width="212" height="20" rx="8" fill="#6d4420"/><rect x="134" y="442" width="30" height="26" rx="4" fill="#6d4420"/><rect x="348" y="442" width="30" height="26" rx="4" fill="#6d4420"/><path d="M222 140c0 18 14 32 34 32s34-14 34-32" fill="none" stroke="#5c3717" stroke-width="6" stroke-linecap="round"/><path d="M210 170h92" stroke="#5c3717" stroke-width="6" stroke-linecap="round"/><path d="M256 170v66" stroke="#5c3717" stroke-width="6" stroke-linecap="round"/><path d="M236 206h40" stroke="#5c3717" stroke-width="6" stroke-linecap="round"/><path d="M206 196h100" stroke="#e7d2a7" stroke-opacity="0.35" stroke-width="10" stroke-linecap="round"/><path d="M206 222h100" stroke="#e7d2a7" stroke-opacity="0.25" stroke-width="10" stroke-linecap="round"/></svg>