<svg xmlns="http://www.w3.org/2000/svg" width="512" height="512" viewBox="0 0 512 512"><rect width="512" height="512" fill="#f2f2f7"/><g transform="translate(256 250)"><circle r="140" fill="#ffe2cc" stroke="#d98c62" stroke-width="8"/><circle cx="-45" cy="-20" r="28" fill="#fff"/><circle cx="25" cy="-20" r="28" fill="#fff"/><circle cx="-45" cy="-10" r="12" fill="#3a2b1c"/><circle cx="25" cy="-10" r="12" fill="#3a2b1c"/><path d="M-45 50 C-25 70, 25 70, 45 50" fill="none" stroke="#3a2b1c" stroke-width="10" stroke-linecap="round" stroke-linejoin="round"/><path d="M-40 80 C-10 110, 10 110, 40 80" fill="none" stroke="#d98c62" stroke-width="6" stroke-linecap="round"/><path d="M-150 -60 L-80 -80" stroke="#d98c62" stroke-width="10" stroke-linecap="round"/><path d="M150 -60 L80 -80" stroke="#d98c62" stroke-width="10" stroke-linecap="round"/><path d="M-160 10 L-90 0" stroke="#d98c62" stroke-width="10" stroke-linecap="round"/><path d="M160 10 L90 0" stroke="#d98c62" stroke-width="10" stroke-linecap="round"/><path d="M0 -160 L0 -220" stroke="#d98c62" stroke-width="10" stroke-linecap="round"/><path d="M-40 -150 L-20 -190" stroke="#d98c62" stroke-width="10" stroke-linecap="round"/><path d="M40 -150 L20 -190" stroke="#d98c62" stroke-width="10" stroke-linecap="round"/><path d="M-70 -180 C-60 -210, -30 -210, -25 -180" fill="#82b7ff" stroke="#5576a7" stroke-width="5"/><path d="M70 -180 C-60 -210, -30 -210, -25 -180" transform="scale(-1 1)" fill="#82b7ff" stroke="#5576a7" stroke-width="5"/></g></svg>