<svg xmlns="http://www.w3.org/2000/svg" width="512" height="512" viewBox="0 0 512 512"><rect width="512" height="512" fill="#000022"/><g fill="none" stroke="none"><path d="M256 64c-24 0-48 12-64 28l-6 6c-72 72-82 146-46 208 18 32 46 60 74 74 62 36 136 26 208-46l6-6c16-16 28-40 28-64 0-17-8-35-20-52-18-25-42-44-62-62-17-12-35-20-52-20z" fill="#f04" stroke="#f09" stroke-width="2"/><path d="M256 128c-16 0-32 8-44 19-18 18-32 44-36 68-4 24-2 48 6 70 14 38 44 68 82 82 22 8 46 10 70 6 24-4 50-18 68-36 11-12 19-28 19-44 0-24-16-48-34-66-20-20-41-32-66-34-16-2-32 2-44 14-6 6-10 14-10 22 0 6 4 12 10 16 10 8 22 14 33 20 18 9 34 22 46 38 10 12 16 26 16 41 0 12-4 26-12 36-12 16-30 28-48 36-36 12-74 10-108-6-12-6-22-14-32-24-12-12-18-26-22-42-4-26-2-52 4-76 8-36 28-70 52-94 12-12 26-20 42-20s30 8 42 20c2 2 2 2 4 0 12-12 26-20 42-20 16 0 30 8 42 20 24 24 44 58 52 94 2 8 2 16 4 24 2 10 2 20 0 30-4 26-10 52-22 76-10 16-20 28-32 40-36 36-80 52-124 40-30-8-56-28-76-52-10-12-18-26-22-42-4-26-4-52 0-78 8-36 28-70 52-94 12-12 26-20 42-20s30 8 42 20z" fill="#ffa500" stroke="#ffb347" stroke-width="4"/><path d="M244 308c-16-16-24-36-24-56s8-40 24-56c16-16 36-24 56-24s40 8 56 24c0 0 0 0 0 0 0 0 0 0 0 0 16 16 24 36 24 56s-8 40-24 56c-16 16-36 24-56 24s-40-8-56-24z" fill="#fff" stroke="#e6e6e6" stroke-width="4"/><path d="M256 448v56" stroke="#ff5500" stroke-width="18" stroke-linecap="round"/><path d="M200 480 256 384 312 480" fill="#ff4400" stroke="#ff2200" stroke-width="4" stroke-linejoin="round"/></g></svg>