<svg xmlns="http://www.w3.org/2000/svg" width="512" height="512"><rect width="512" height="512" fill="#a2d5f2"/><path d="M120 280c80 120 240 140 340 80s40-180-40-230c0 0 20-20 10-40s-40-30-60 0c-20 30-80 40-150 20-70-20-110-10-140 10s-50 70-60 120c-10 50 0 80 40 90z" fill="#4a6b8b"/><path d="M260 120c70 30 150 20 190-10 20-15 20-30 0-40s-60-5-90 10c-30 15-60 5-80-5s-50-5-70 20c-20 25-30 70-10 85z" fill="#6c8ca2"/><path d="M200 320c-30-50-30-90 10-130 40-40 90-40 140-20 50 20 100 0 140-40" fill="none" stroke="#ffffff" stroke-width="10" stroke-linecap="round"/><path d="M320 200c0 0 20 20 40 20s40-20 40-20" fill="none" stroke="#ffffff" stroke-width="12" stroke-linecap="round"/></svg>