<svg width="512" height="512" viewBox="0 0 512 512" xmlns="http://www.w3.org/2000/svg"><rect x="100" y="400" width="312" height="50" fill="#8B4513"/><rect x="120" y="350" width="80" height="50" fill="#A0522D"/><rect x="210" y="350" width="80" height="50" fill="#A0522D"/><rect x="300" y="350" width="80" height="50" fill="#A0522D"/><rect x="120" y="300" width="80" height="50" fill="#8B4513"/><rect x="210" y="300" width="80" height="50" fill="#8B4513"/><rect x="300" y="300" width="80" height="50" fill="#8B4513"/><rect x="120" y="250" width="80" height="50" fill="#A0522D"/><rect x="210" y="250" width="80" height="50" fill="#A0522D"/><rect x="300" y="250" width="80" height="50" fill="#A0522D"/><rect x="120" y="200" width="80" height="50" fill="#8B4513"/><rect x="210" y="200" width="80" height="50" fill="#8B4513"/><rect x="300" y="200" width="80" height="50" fill="#8B4513"/><polygon points="100,200 256,100 412,200" fill="#696969"/></svg>