<svg xmlns="http://www.w3.org/2000/svg" viewBox="0 0 512 512"><rect width="512" height="512" fill="#fdf7ee"/><g stroke="#6b4f3b" stroke-width="12" stroke-linecap="round" stroke-linejoin="round"><path d="M144 304h224c32 0 48 24 48 56s-16 56-48 56H144c-32 0-48-24-48-56s16-56 48-56z" fill="#f8f4ec"/><path d="M112 304s0 88 80 88h128s80 0 80-88" fill="#f6f0e7"/><ellipse cx="256" cy="356" rx="168" ry="28" fill="#d0c7b8"/><path d="M336 272c32 0 48 24 48 56" fill="none"/><path d="M336 272h-200c-32 0-48-24-48-56h296c0 32-16 56-48 56z" fill="#f2ebe1"/><path d="M192 272h128c0 48-40 82-64 82s-64-34-64-82z" fill="#412815"/></g><path d="M224 168c16-40 32-56 48-56s32 16 48 56" fill="none" stroke="#6b4f3b" stroke-width="10" stroke-linecap="round"/><path d="M256 120c0 24-8 40-24 40s-24-16-24-40 24-40 24-40 24 16 24 40z" fill="none" stroke="#6b4f3b" stroke-width="10" stroke-linecap="round"/><path d="M352 248c24-40 24-80 0-120" fill="none" stroke="#6b4f3b" stroke-width="10" stroke-linecap="round"/><path d="M168 248c-24-40-24-80 0-120" fill="none" stroke="#6b4f3b" stroke-width="10" stroke-linecap="round"/></svg>