<svg xmlns="http://www.w3.org/2000/svg" viewBox="0 0 512 512"><rect width="512" height="512" fill="#87CEEB"/><rect x="0" y="360" width="512" height="152" fill="#2E8B57"/><rect x="72" y="220" width="368" height="160" rx="32" ry="32" fill="#FF4500"/><rect x="112" y="180" width="288" height="112" rx="28" ry="28" fill="#FF6347"/><rect x="118" y="220" width="136" height="80" rx="20" ry="20" fill="#1E90FF"/><rect x="258" y="220" width="136" height="80" rx="20" ry="20" fill="#1E90FF"/><circle cx="148" cy="360" r="46" fill="#000"/><circle cx="364" cy="360" r="46" fill="#000"/><circle cx="148" cy="360" r="26" fill="#888"/><circle cx="364" cy="360" r="26" fill="#888"/><rect x="240" y="280" width="32" height="44" rx="8" ry="8" fill="#FFD700"/><rect x="120" y="280" width="32" height="44" rx="8" ry="8" fill="#FFD700"/><path d="M104 334 Q104 360 128 360" stroke="#000" stroke-width="8" fill="none" stroke-linecap="round"/><path d="M388 334 Q388 360 364 360" stroke="#000" stroke-width="8" fill="none" stroke-linecap="round"/><path d="M152 180 Q176 140 256 140 Q336 140 360 180" stroke="#000" stroke-width="6" fill="none" stroke-linecap="round"/></svg>