<svg xmlns="http://www.w3.org/2000/svg" width="512" height="512" viewBox="0 0 512 512"><rect width="512" height="512" fill="#87CEEB"/><rect x="0" y="320" width="512" height="192" fill="#4B8B3B"/><g fill="#2E7D32"><path d="M120 360c0-40 20-60 40-60s40 20 40 60c0 0-10-40-40-40s-40 40-40 40z"/><path d="M220 360c0-45 30-65 50-65s50 30 50 65c0 0-12-45-50-45s-50 45-50 45z"/><path d="M340 360c0-35 25-55 45-55s45 25 45 55c0 0-12-35-45-35s-45 35-45 35z"/></g><g fill="#8B5A2B"><rect x="110" y="420" width="20" height="80" rx="5"/><rect x="260" y="420" width="18" height="92" rx="5"/><rect x="360" y="420" width="24" height="88" rx="5"/></g><circle cx="180" cy="320" r="70" fill="#1B5E20"/><circle cx="290" cy="300" r="80" fill="#1B5E20"/><circle cx="400" cy="310" r="75" fill="#1B5E20"/></svg>