<svg width="512" height="512" viewBox="0 0 512 512" xmlns="http://www.w3.org/2000/svg"><defs><radialGradient id="marsGradient" cx="40%" cy="30%" r="70%"><stop offset="0%" stop-color="#ffb371"/><stop offset="40%" stop-color="#ff7a2f"/><stop offset="100%" stop-color="#b32c0d"/></radialGradient></defs><rect width="512" height="512" fill="#04030a"/><circle cx="120" cy="80" r="3" fill="#fefefe" opacity="0.8"/><circle cx="400" cy="60" r="2.5" fill="#fdf2ff" opacity="0.7"/><circle cx="310" cy="130" r="2" fill="#fefefe" opacity="0.6"/><circle cx="460" cy="200" r="1.8" fill="#fefefe" opacity="0.6"/><circle cx="60" cy="200" r="2.2" fill="#fefefe" opacity="0.5"/><circle cx="170" cy="270" r="2" fill="#fefefe" opacity="0.6"/><circle cx="380" cy="240" r="1.6" fill="#fefefe" opacity="0.5"/><circle cx="320" cy="70" r="2.4" fill="#fefefe" opacity="0.7"/><circle cx="80" cy="360" r="2" fill="#fefefe" opacity="0.5"/><circle cx="420" cy="360" r="1.9" fill="#fefefe" opacity="0.4"/><circle cx="200" cy="420" r="2.1" fill="#fefefe" opacity="0.5"/><circle cx="340" cy="440" r="1.7" fill="#fefefe" opacity="0.4"/><circle cx="480" cy="100" r="1.5" fill="#fefefe" opacity="0.5"/><circle cx="60" cy="90" r="1.6" fill="#fefefe" opacity="0.5"/><circle cx="255" cy="256" r="200" fill="url(#marsGradient)"/><path d="M120 220c30-40 90-60 150-40s120 60 130 110c10 50-20 90-70 110s-110 10-150-30c-40-40-50-70-60-100z" fill="#a22a08" opacity="0.65"/><path d="M190 320c20-35 70-50 120-35s90 55 95 95-25 70-65 80-95 5-125-30-15-75-25-110z" fill="#9a210d" opacity="0.45"/><path d="M240 140c20-20 60-20 90-5s55 35 45 70-35 65-70 75-70 5-90-25-10-75-5-115z" fill="#c84d0a" opacity="0.6"/></svg>