<svg width="512" height="512" viewBox="0 0 512 512" xmlns="http://www.w3.org/2000/svg">
  <rect x="56" y="176" width="400" height="200" rx="24" fill="#2f8e44" stroke="#1c5b2b" stroke-width="12"/>
  <rect x="80" y="200" width="352" height="152" rx="18" fill="#4fb25c" opacity="0.9"/>
  <line x1="128" y1="232" x2="384" y2="232" stroke="#2f8e44" stroke-width="8" stroke-linecap="round"/>
  <line x1="128" y1="296" x2="384" y2="296" stroke="#2f8e44" stroke-width="8" stroke-linecap="round"/>
  <g>
    <ellipse cx="256" cy="128" rx="96" ry="42" fill="#f2c057" stroke="#c08830" stroke-width="10"/>
    <ellipse cx="256" cy="146" rx="96" ry="42" fill="#f7d88b" opacity="0.7"/>
    <ellipse cx="256" cy="164" rx="96" ry="42" fill="#f2c057" opacity="0.5"/>
    <ellipse cx="256" cy="132" rx="96" ry="42" stroke="#a76d20" stroke-width="4" fill="none"/>
  </g>
  <g>
    <ellipse cx="156" cy="380" rx="80" ry="32" fill="#f2c057" stroke="#a76d20" stroke-width="8"/>
    <ellipse cx="156" cy="404" rx="80" ry="32" fill="#f7d88b" opacity="0.8"/>
    <ellipse cx="156" cy="428" rx="80" ry="32" fill="#f2c057" opacity="0.6"/>
    <ellipse cx="156" cy="352" rx="80" ry="32" stroke="#a76d20" stroke-width="4" fill="none"/>
  </g>
  <g>
    <ellipse cx="356" cy="380" rx="80" ry="32" fill="#f2c057" stroke="#a76d20" stroke-width="8"/>
    <ellipse cx="356" cy="404" rx="80" ry="32" fill="#f7d88b" opacity="0.8"/>
    <ellipse cx="356" cy="428" rx="80" ry="32" fill="#f2c057" opacity="0.6"/>
    <ellipse cx="356" cy="352" rx="80" ry="32" stroke="#a76d20" stroke-width="4" fill="none"/>
  </g>
  <circle cx="256" cy="256" r="40" fill="#f7d88b" opacity="0.4"/>
  <path d="M218 280 C218 240 294 240 294 280 C294 320 218 320 218 280" fill="#f7d88b" opacity="0.5"/>
</svg>