<svg xmlns="http://www.w3.org/2000/svg" width="512" height="512"><rect width="512" height="512" fill="#f2f2f2"/><ellipse cx="256" cy="420" rx="180" ry="60" fill="#d0d0d0" opacity="0.5"/><circle cx="256" cy="220" r="100" fill="#ffe0c0" stroke="#b08060" stroke-width="8"/><path d="M206 250c20 20 60 20 80 0" stroke="#3a3a3a" stroke-width="10" stroke-linecap="round" fill="none"/><circle cx="226" cy="200" r="10" fill="#3a3a3a"/><circle cx="286" cy="200" r="10" fill="#3a3a3a"/><path d="M216 320c-6-30-30-70-40-130" stroke="#b03030" stroke-width="10" stroke-linecap="round" fill="none"/><path d="M296 320c6-30 30-70 40-130" stroke="#b03030" stroke-width="10" stroke-linecap="round" fill="none"/><path d="M206 320c-20 40-40 40-60 40" stroke="#3a3a3a" stroke-width="14" stroke-linecap="round" fill="none"/><path d="M306 320c20 40 40 40 60 40" stroke="#3a3a3a" stroke-width="14" stroke-linecap="round" fill="none"/><path d="M256 240c0 80-20 120-20 120" stroke="#3a3a3a" stroke-width="4" stroke-linecap="round" fill="none"/><path d="M246 260c-30 40-30 70-20 140" stroke="#feb7b7" stroke-width="12" stroke-linecap="round" fill="none" opacity="0.6"/><path d="M266 260c30 40 30 70 20 140" stroke="#feb7b7" stroke-width="12" stroke-linecap="round" fill="none" opacity="0.6"/></svg>