<svg xmlns="http://www.w3.org/2000/svg" width="512" height="512" viewBox="0 0 512 512"><defs><linearGradient id="sky" x1="0" y1="0" x2="0" y2="1"><stop offset="0%" stop-color="#8ac9ff"/><stop offset="100%" stop-color="#5cb0de"/></linearGradient><linearGradient id="water" x1="0" y1="0" x2="0" y2="1"><stop offset="0%" stop-color="#1a6fb8"/><stop offset="100%" stop-color="#0c3e73"/></linearGradient></defs><rect width="512" height="512" fill="url(#sky)"/><rect x="0" y="280" width="512" height="232" fill="url(#water)"/><g fill="none" stroke="#ffffff" stroke-width="8" stroke-linecap="round" stroke-linejoin="round"><path d="M20 360 Q 80 340 140 360 T260 360 T380 360 T500 360" opacity="0.6"/><path d="M0 400 Q 80 380 160 400 T320 400 T440 400" opacity="0.6"/><path d="M20 440 Q 80 420 140 440 T260 440 T380 440 T500 440" opacity="0.7"/><path d="M0 380 Q 60 360 120 380 T240 380 T360 380 T480 380" opacity="0.5"/></g><circle cx="420" cy="120" r="60" fill="#ffdf80" opacity="0.8"/><g stroke="#ffffff" stroke-width="4" stroke-linecap="round"><line x1="420" y1="20" x2="420" y2="60" opacity="0.8"/><line x1="420" y1="180" x2="420" y2="220" opacity="0.6"/><line x1="320" y1="120" x2="360" y2="120" opacity="0.7"/><line x1="480" y1="120" x2="520" y2="120" opacity="0.7"/></g></svg>