<svg width="512" height="512" viewBox="0 0 512 512" xmlns="http://www.w3.org/2000/svg"><defs><linearGradient id="sky" x1="0" x2="0" y1="0" y2="1"><stop offset="0%" stop-color="#ffb8e3"/><stop offset="100%" stop-color="#82c8ff"/></linearGradient><linearGradient id="mount" x1="0" x2="0" y1="0" y2="1"><stop offset="0%" stop-color="#ffffff"/><stop offset="100%" stop-color="#86b7ff"/></linearGradient><linearGradient id="sun" x1="0" x2="1" y1="0" y2="1"><stop offset="0%" stop-color="#ff5757"/><stop offset="100%" stop-color="#ff9f5b"/></linearGradient></defs><rect width="512" height="512" fill="url(#sky)"/><circle cx="406" cy="130" r="90" fill="url(#sun)" opacity="0.85"/><path d="M456 360 L300 200 L248 258 L180 188 L96 360 Z" fill="url(#mount)" stroke="#7aa2ff" stroke-width="4"/><g fill="#1f273c"><rect x="60" y="360" width="60" height="120" rx="6"/><rect x="140" y="380" width="52" height="100" rx="6"/><rect x="210" y="340" width="68" height="140" rx="6"/><rect x="298" y="365" width="55" height="115" rx="6"/><rect x="372" y="335" width="62" height="145" rx="6"/></g><g fill="#ffdfec"><circle cx="420" cy="220" r="14"/><circle cx="440" cy="240" r="10"/><circle cx="400" cy="250" r="12"/><circle cx="380" cy="220" r="11"/><circle cx="360" cy="240" r="9"/><circle cx="430" cy="190" r="10"/></g><g fill="#b64d27"><rect x="320" y="300" width="120" height="12" rx="6"/><rect x="300" y="320" width="160" height="12" rx="6"/><rect x="280" y="340" width="200" height="12" rx="6"/><rect x="260" y="360" width="240" height="16" rx="6"/><polygon points="260,360 392,320 520,360" fill="#9c371f"/></g><g fill="#f7d3af"><rect x="352" y="300" width="48" height="90" rx="4"/><rect x="332" y="380" width="88" height="24" rx="6"/></g><circle cx="480" cy="160" r="8" fill="#ffe5f3"/><circle cx="460" cy="140" r="6" fill="#ffe5f3"/><circle cx="440" cy="160" r="6" fill="#ffe5f3"/><circle cx="450" cy="180" r="5" fill="#ffe5f3"/></svg>